# Furnace Text Export

generated by Furnace dev191 (191)

# Song Information

- name: フライル
- author: 毛玉の地下基地
- album: 
- system: Yamaha YM2608 (OPNA)
- tuning: 440

- instruments: 7
- wavetables: 0
- samples: 0

# Sound Chips

- Yamaha YM2608 (OPNA)
  - id: 21
  - volume: 1
  - panning: 0
  - front/rear: 0

# Song Comments

This song is originally made by 毛玉の地下基地(Kedama's underground base).
Other MIDIs can be found at http://touhoumidihury.web.fc2.com/newfile.html

# Instruments

## 00: Vibraphone

- type: 1
- FM parameters:
  - ALG: 4
  - FB: 0
  - FMS: 0
  - AMS: 0
  - FMS2: 0
  - AMS2: 0
  - operators: 4
  - OPLL patch: 0
  - fixed drum freq: no
  - kick freq: 0520
  - snare/hat freq: 0550
  - tom/top freq: 01C0
  - operator 0:
    - enabled: yes
    - AM: 0
    - AR: 31
    - DR: 14
    - MULT: 5
    - RR: 11
    - SL: 10
    - TL: 45
    - DT2: 0
    - RS: 0
    - DT: 3
    - D2R: 6
    - SSG-EG: 0
    - DAM: 0
    - DVB: 0
    - EGT: 0
    - KSL: 0
    - SUS: 0
    - VIB: 0
    - WS: 0
    - KSR: 0
    - TL volume scale: 2
  - operator 1:
    - enabled: yes
    - AM: 0
    - AR: 31
    - DR: 10
    - MULT: 5
    - RR: 1
    - SL: 11
    - TL: 80
    - DT2: 0
    - RS: 0
    - DT: 3
    - D2R: 0
    - SSG-EG: 0
    - DAM: 0
    - DVB: 0
    - EGT: 0
    - KSL: 0
    - SUS: 0
    - VIB: 0
    - WS: 0
    - KSR: 0
    - TL volume scale: 2
  - operator 2:
    - enabled: yes
    - AM: 0
    - AR: 31
    - DR: 13
    - MULT: 4
    - RR: 11
    - SL: 15
    - TL: 10
    - DT2: 0
    - RS: 0
    - DT: 3
    - D2R: 16
    - SSG-EG: 0
    - DAM: 0
    - DVB: 0
    - EGT: 0
    - KSL: 0
    - SUS: 0
    - VIB: 0
    - WS: 0
    - KSR: 0
    - TL volume scale: 2
  - operator 3:
    - enabled: yes
    - AM: 0
    - AR: 31
    - DR: 10
    - MULT: 1
    - RR: 8
    - SL: 15
    - TL: 4
    - DT2: 0
    - RS: 0
    - DT: 3
    - D2R: 0
    - SSG-EG: 0
    - DAM: 0
    - DVB: 0
    - EGT: 0
    - KSL: 0
    - SUS: 0
    - VIB: 0
    - WS: 0
    - KSR: 0
    - TL volume scale: 2

## 01: Violin

- type: 1
- FM parameters:
  - ALG: 3
  - FB: 4
  - FMS: 0
  - AMS: 0
  - FMS2: 0
  - AMS2: 0
  - operators: 4
  - OPLL patch: 0
  - fixed drum freq: no
  - kick freq: 0520
  - snare/hat freq: 0550
  - tom/top freq: 01C0
  - operator 0:
    - enabled: yes
    - AM: 0
    - AR: 31
    - DR: 0
    - MULT: 7
    - RR: 3
    - SL: 15
    - TL: 42
    - DT2: 0
    - RS: 0
    - DT: 5
    - D2R: 0
    - SSG-EG: 0
    - DAM: 0
    - DVB: 0
    - EGT: 0
    - KSL: 0
    - SUS: 0
    - VIB: 0
    - WS: 0
    - KSR: 0
    - TL volume scale: 2
  - operator 1:
    - enabled: yes
    - AM: 0
    - AR: 31
    - DR: 0
    - MULT: 1
    - RR: 7
    - SL: 11
    - TL: 31
    - DT2: 0
    - RS: 0
    - DT: 5
    - D2R: 0
    - SSG-EG: 0
    - DAM: 0
    - DVB: 0
    - EGT: 0
    - KSL: 0
    - SUS: 0
    - VIB: 0
    - WS: 0
    - KSR: 0
    - TL volume scale: 2
  - operator 2:
    - enabled: yes
    - AM: 0
    - AR: 31
    - DR: 0
    - MULT: 3
    - RR: 7
    - SL: 15
    - TL: 37
    - DT2: 0
    - RS: 0
    - DT: 0
    - D2R: 0
    - SSG-EG: 0
    - DAM: 0
    - DVB: 0
    - EGT: 0
    - KSL: 0
    - SUS: 0
    - VIB: 0
    - WS: 0
    - KSR: 0
    - TL volume scale: 2
  - operator 3:
    - enabled: yes
    - AM: 0
    - AR: 13
    - DR: 0
    - MULT: 1
    - RR: 9
    - SL: 15
    - TL: 2
    - DT2: 0
    - RS: 0
    - DT: 0
    - D2R: 0
    - SSG-EG: 0
    - DAM: 0
    - DVB: 0
    - EGT: 0
    - KSL: 0
    - SUS: 0
    - VIB: 0
    - WS: 0
    - KSR: 0
    - TL volume scale: 2

## 02: Synth

- type: 1
- FM parameters:
  - ALG: 0
  - FB: 4
  - FMS: 0
  - AMS: 0
  - FMS2: 0
  - AMS2: 0
  - operators: 4
  - OPLL patch: 0
  - fixed drum freq: no
  - kick freq: 0520
  - snare/hat freq: 0550
  - tom/top freq: 01C0
  - operator 0:
    - enabled: yes
    - AM: 0
    - AR: 31
    - DR: 8
    - MULT: 5
    - RR: 3
    - SL: 15
    - TL: 42
    - DT2: 0
    - RS: 0
    - DT: 5
    - D2R: 0
    - SSG-EG: 0
    - DAM: 0
    - DVB: 0
    - EGT: 0
    - KSL: 0
    - SUS: 0
    - VIB: 0
    - WS: 0
    - KSR: 0
    - TL volume scale: 2
  - operator 1:
    - enabled: yes
    - AM: 0
    - AR: 31
    - DR: 4
    - MULT: 1
    - RR: 1
    - SL: 11
    - TL: 48
    - DT2: 0
    - RS: 0
    - DT: 5
    - D2R: 0
    - SSG-EG: 0
    - DAM: 0
    - DVB: 0
    - EGT: 0
    - KSL: 0
    - SUS: 0
    - VIB: 0
    - WS: 0
    - KSR: 0
    - TL volume scale: 2
  - operator 2:
    - enabled: yes
    - AM: 0
    - AR: 31
    - DR: 10
    - MULT: 1
    - RR: 4
    - SL: 15
    - TL: 18
    - DT2: 0
    - RS: 0
    - DT: 0
    - D2R: 0
    - SSG-EG: 0
    - DAM: 0
    - DVB: 0
    - EGT: 0
    - KSL: 0
    - SUS: 0
    - VIB: 0
    - WS: 0
    - KSR: 0
    - TL volume scale: 2
  - operator 3:
    - enabled: yes
    - AM: 0
    - AR: 31
    - DR: 9
    - MULT: 1
    - RR: 9
    - SL: 15
    - TL: 2
    - DT2: 0
    - RS: 0
    - DT: 0
    - D2R: 0
    - SSG-EG: 0
    - DAM: 0
    - DVB: 0
    - EGT: 0
    - KSL: 0
    - SUS: 0
    - VIB: 0
    - WS: 0
    - KSR: 0
    - TL volume scale: 2

## 03: Octave Piano

- type: 1
- FM parameters:
  - ALG: 4
  - FB: 7
  - FMS: 0
  - AMS: 0
  - FMS2: 0
  - AMS2: 0
  - operators: 4
  - OPLL patch: 0
  - fixed drum freq: no
  - kick freq: 0520
  - snare/hat freq: 0550
  - tom/top freq: 01C0
  - operator 0:
    - enabled: yes
    - AM: 0
    - AR: 28
    - DR: 0
    - MULT: 3
    - RR: 0
    - SL: 3
    - TL: 35
    - DT2: 0
    - RS: 2
    - DT: 3
    - D2R: 8
    - SSG-EG: 0
    - DAM: 0
    - DVB: 0
    - EGT: 0
    - KSL: 0
    - SUS: 0
    - VIB: 0
    - WS: 0
    - KSR: 0
    - TL volume scale: 2
  - operator 1:
    - enabled: yes
    - AM: 0
    - AR: 28
    - DR: 0
    - MULT: 3
    - RR: 0
    - SL: 3
    - TL: 33
    - DT2: 0
    - RS: 2
    - DT: 7
    - D2R: 8
    - SSG-EG: 0
    - DAM: 0
    - DVB: 0
    - EGT: 0
    - KSL: 0
    - SUS: 0
    - VIB: 0
    - WS: 0
    - KSR: 0
    - TL volume scale: 2
  - operator 2:
    - enabled: yes
    - AM: 0
    - AR: 26
    - DR: 10
    - MULT: 1
    - RR: 6
    - SL: 2
    - TL: 0
    - DT2: 0
    - RS: 1
    - DT: 3
    - D2R: 7
    - SSG-EG: 0
    - DAM: 0
    - DVB: 0
    - EGT: 0
    - KSL: 0
    - SUS: 0
    - VIB: 0
    - WS: 0
    - KSR: 0
    - TL volume scale: 2
  - operator 3:
    - enabled: yes
    - AM: 0
    - AR: 26
    - DR: 10
    - MULT: 1
    - RR: 6
    - SL: 2
    - TL: 0
    - DT2: 0
    - RS: 1
    - DT: 7
    - D2R: 7
    - SSG-EG: 0
    - DAM: 0
    - DVB: 0
    - EGT: 0
    - KSL: 0
    - SUS: 0
    - VIB: 0
    - WS: 0
    - KSR: 0
    - TL volume scale: 2

## 04: SC-55 SynthBass101

- type: 1
- FM parameters:
  - ALG: 2
  - FB: 0
  - FMS: 0
  - AMS: 0
  - FMS2: 0
  - AMS2: 0
  - operators: 4
  - OPLL patch: 0
  - fixed drum freq: no
  - kick freq: 0520
  - snare/hat freq: 0550
  - tom/top freq: 01C0
  - operator 0:
    - enabled: yes
    - AM: 0
    - AR: 31
    - DR: 11
    - MULT: 2
    - RR: 3
    - SL: 15
    - TL: 24
    - DT2: 0
    - RS: 2
    - DT: 6
    - D2R: 0
    - SSG-EG: 0
    - DAM: 0
    - DVB: 0
    - EGT: 0
    - KSL: 0
    - SUS: 0
    - VIB: 0
    - WS: 0
    - KSR: 0
    - TL volume scale: 2
  - operator 1:
    - enabled: yes
    - AM: 0
    - AR: 31
    - DR: 0
    - MULT: 1
    - RR: 1
    - SL: 15
    - TL: 24
    - DT2: 0
    - RS: 0
    - DT: 6
    - D2R: 0
    - SSG-EG: 0
    - DAM: 0
    - DVB: 0
    - EGT: 0
    - KSL: 0
    - SUS: 0
    - VIB: 0
    - WS: 0
    - KSR: 0
    - TL volume scale: 2
  - operator 2:
    - enabled: yes
    - AM: 0
    - AR: 31
    - DR: 10
    - MULT: 1
    - RR: 4
    - SL: 15
    - TL: 127
    - DT2: 0
    - RS: 0
    - DT: 3
    - D2R: 0
    - SSG-EG: 0
    - DAM: 0
    - DVB: 0
    - EGT: 0
    - KSL: 0
    - SUS: 0
    - VIB: 0
    - WS: 0
    - KSR: 0
    - TL volume scale: 2
  - operator 3:
    - enabled: yes
    - AM: 0
    - AR: 31
    - DR: 9
    - MULT: 1
    - RR: 11
    - SL: 15
    - TL: 0
    - DT2: 0
    - RS: 0
    - DT: 6
    - D2R: 0
    - SSG-EG: 0
    - DAM: 0
    - DVB: 0
    - EGT: 0
    - KSL: 0
    - SUS: 0
    - VIB: 0
    - WS: 0
    - KSR: 0
    - TL volume scale: 2

## 05: 05 Synth Lead 2

- type: 1
- FM parameters:
  - ALG: 2
  - FB: 7
  - FMS: 0
  - AMS: 0
  - FMS2: 0
  - AMS2: 0
  - operators: 4
  - OPLL patch: 0
  - fixed drum freq: no
  - kick freq: 0520
  - snare/hat freq: 0550
  - tom/top freq: 01C0
  - operator 0:
    - enabled: yes
    - AM: 0
    - AR: 31
    - DR: 4
    - MULT: 4
    - RR: 6
    - SL: 1
    - TL: 25
    - DT2: 0
    - RS: 0
    - DT: 6
    - D2R: 2
    - SSG-EG: 0
    - DAM: 0
    - DVB: 0
    - EGT: 0
    - KSL: 0
    - SUS: 0
    - VIB: 0
    - WS: 0
    - KSR: 0
    - TL volume scale: 2
  - operator 1:
    - enabled: yes
    - AM: 0
    - AR: 31
    - DR: 0
    - MULT: 2
    - RR: 4
    - SL: 0
    - TL: 35
    - DT2: 0
    - RS: 0
    - DT: 0
    - D2R: 2
    - SSG-EG: 0
    - DAM: 0
    - DVB: 0
    - EGT: 0
    - KSL: 0
    - SUS: 0
    - VIB: 0
    - WS: 0
    - KSR: 0
    - TL volume scale: 2
  - operator 2:
    - enabled: yes
    - AM: 0
    - AR: 14
    - DR: 14
    - MULT: 4
    - RR: 4
    - SL: 5
    - TL: 32
    - DT2: 0
    - RS: 1
    - DT: 3
    - D2R: 0
    - SSG-EG: 0
    - DAM: 0
    - DVB: 0
    - EGT: 0
    - KSL: 0
    - SUS: 0
    - VIB: 0
    - WS: 0
    - KSR: 0
    - TL volume scale: 2
  - operator 3:
    - enabled: yes
    - AM: 0
    - AR: 21
    - DR: 4
    - MULT: 2
    - RR: 5
    - SL: 3
    - TL: 0
    - DT2: 0
    - RS: 0
    - DT: 3
    - D2R: 1
    - SSG-EG: 0
    - DAM: 0
    - DVB: 0
    - EGT: 0
    - KSL: 0
    - SUS: 0
    - VIB: 0
    - WS: 0
    - KSR: 0
    - TL volume scale: 2

## 06: String

- type: 1
- FM parameters:
  - ALG: 4
  - FB: 7
  - FMS: 0
  - AMS: 0
  - FMS2: 0
  - AMS2: 0
  - operators: 4
  - OPLL patch: 0
  - fixed drum freq: no
  - kick freq: 0520
  - snare/hat freq: 0550
  - tom/top freq: 01C0
  - operator 0:
    - enabled: yes
    - AM: 0
    - AR: 16
    - DR: 0
    - MULT: 1
    - RR: 6
    - SL: 15
    - TL: 33
    - DT2: 0
    - RS: 0
    - DT: 1
    - D2R: 0
    - SSG-EG: 0
    - DAM: 0
    - DVB: 0
    - EGT: 0
    - KSL: 0
    - SUS: 0
    - VIB: 0
    - WS: 0
    - KSR: 0
    - TL volume scale: 2
  - operator 1:
    - enabled: yes
    - AM: 0
    - AR: 16
    - DR: 4
    - MULT: 5
    - RR: 6
    - SL: 0
    - TL: 56
    - DT2: 0
    - RS: 0
    - DT: 4
    - D2R: 0
    - SSG-EG: 0
    - DAM: 0
    - DVB: 0
    - EGT: 0
    - KSL: 0
    - SUS: 0
    - VIB: 0
    - WS: 0
    - KSR: 0
    - TL volume scale: 2
  - operator 2:
    - enabled: yes
    - AM: 0
    - AR: 16
    - DR: 0
    - MULT: 1
    - RR: 7
    - SL: 15
    - TL: 10
    - DT2: 0
    - RS: 0
    - DT: 2
    - D2R: 0
    - SSG-EG: 0
    - DAM: 0
    - DVB: 0
    - EGT: 0
    - KSL: 0
    - SUS: 0
    - VIB: 0
    - WS: 0
    - KSR: 0
    - TL volume scale: 2
  - operator 3:
    - enabled: yes
    - AM: 0
    - AR: 16
    - DR: 0
    - MULT: 1
    - RR: 7
    - SL: 15
    - TL: 10
    - DT2: 0
    - RS: 0
    - DT: 3
    - D2R: 0
    - SSG-EG: 0
    - DAM: 0
    - DVB: 0
    - EGT: 0
    - KSL: 0
    - SUS: 0
    - VIB: 0
    - WS: 0
    - KSR: 0
    - TL volume scale: 2


# Wavetables


# Samples


# Subsongs

## 0: 

- tick rate: 72
- speeds: 6
- virtual tempo: 150/150
- time base: 0
- pattern length: 64

orders:
```
00 | 00 00 00 00 00 00 00 00 00 00 00 00 00 00 00 00
01 | 01 01 01 01 01 01 01 01 01 01 01 01 01 01 01 01
02 | 02 02 02 02 02 02 01 01 02 01 01 01 01 02 02 02
03 | 01 01 01 01 01 01 02 02 01 01 01 01 01 01 01 01
04 | 02 02 02 02 02 02 03 03 02 01 01 01 01 02 02 02
05 | 03 03 03 03 03 03 04 04 03 02 02 02 02 03 03 03
06 | 04 03 03 03 03 03 04 04 03 02 02 02 02 04 04 03
07 | 05 03 03 03 03 04 04 04 04 03 02 03 03 05 05 03
08 | 06 03 03 03 03 04 04 04 05 03 03 03 03 06 06 03
09 | 07 04 04 04 04 05 05 05 06 04 04 04 04 07 07 04
0A | 08 05 05 05 05 05 06 06 07 05 05 05 05 08 08 05
0B | 07 04 04 04 04 05 07 07 08 04 04 04 04 09 09 06
0C | 08 06 06 06 06 06 08 08 09 05 05 05 05 0A 0A 07
0D | 09 01 01 01 01 01 09 09 0A 05 05 05 05 0B 0B 08
0E | 09 02 02 02 02 02 0A 0A 0B 05 05 05 05 0C 0C 09
0F | 0A 0E 01 01 01 01 0B 0B 0C 05 05 05 05 0D 0D 0A
10 | 0A 0E 02 02 02 02 0C 0C 0D 05 05 05 05 0E 0E 0B
11 | 0B 0F 10 07 07 07 0D 0D 0E 06 06 06 06 0F 0F 0C
12 | 07 04 04 04 04 05 0E 0E 0F 00 02 04 04 10 10 0D
13 | 08 05 05 05 05 06 0F 0F 10 06 02 07 07 11 11 0E
14 | 07 04 04 04 04 05 07 07 11 04 04 04 04 12 12 0F
15 | 08 06 06 06 06 06 08 08 12 05 05 05 05 13 13 10
```

## Patterns

----- ORDER 00
00 |... .. 7B ....|... .. 77 ....|... .. 77 ....|... .. 77 ....|... .. 77 ....|... .. 77 ....|... .. 0D ....|... .. 0D ....|... .. .. ....|... .. .. ....|... .. .. ....|C-3 02 .. ....|... .. .. ....|... .. .. ....|... .. .. ....|... .. .. ....
01 |... .. .. ....|... .. .. ....|... .. .. ....|... .. .. ....|... .. .. ....|... .. .. ....|... .. .. ....|... .. .. ....|... .. .. ....|... .. .. ....|... .. .. ....|... .. .. ....|... .. .. ....|... .. .. ....|... .. .. ....|... .. .. ....
02 |... .. .. ....|... .. .. ....|... .. .. ....|... .. .. ....|... .. .. ....|... .. .. ....|... .. .. ....|... .. .. ....|... .. .. ....|... .. .. ....|... .. .. ....|... .. .. ....|... .. .. ....|... .. .. ....|... .. .. ....|... .. .. ....
03 |... .. .. ....|... .. .. ....|... .. .. ....|... .. .. ....|... .. .. ....|... .. .. ....|... .. .. ....|... .. .. ....|... .. .. ....|... .. .. ....|... .. .. ....|... .. .. ....|... .. .. ....|... .. .. ....|... .. .. ....|... .. .. ....
04 |... .. .. ....|... .. .. ....|... .. .. ....|... .. .. ....|... .. .. ....|... .. .. ....|... .. .. ....|... .. .. ....|... .. .. ....|... .. .. ....|... .. .. ....|C-3 02 .. ....|... .. .. ....|... .. .. ....|... .. .. ....|... .. .. ....
05 |... .. .. ....|... .. .. ....|... .. .. ....|... .. .. ....|... .. .. ....|... .. .. ....|... .. .. ....|... .. .. ....|... .. .. ....|... .. .. ....|... .. .. ....|... .. .. ....|... .. .. ....|... .. .. ....|... .. .. ....|... .. .. ....
06 |... .. .. ....|... .. .. ....|... .. .. ....|... .. .. ....|... .. .. ....|... .. .. ....|... .. .. ....|... .. .. ....|... .. .. ....|... .. .. ....|... .. .. ....|... .. .. ....|... .. .. ....|... .. .. ....|... .. .. ....|... .. .. ....
07 |... .. .. ....|... .. .. ....|... .. .. ....|... .. .. ....|... .. .. ....|... .. .. ....|... .. .. ....|... .. .. ....|... .. .. ....|... .. .. ....|... .. .. ....|... .. .. ....|... .. .. ....|... .. .. ....|... .. .. ....|... .. .. ....
08 |... .. .. ....|... .. .. ....|... .. .. ....|... .. .. ....|... .. .. ....|D-1 04 .. ....|... .. .. ....|... .. .. ....|... .. .. ....|... .. .. ....|... .. .. ....|C-3 01 .. ....|... .. .. ....|C-3 02 .. ....|... .. .. ....|... .. .. ....
09 |... .. .. ....|... .. .. ....|... .. .. ....|... .. .. ....|... .. .. ....|E-1 .. .. ....|... .. .. ....|... .. .. ....|... .. .. ....|... .. .. ....|... .. .. ....|... .. .. ....|... .. .. ....|C-3 02 .. ....|... .. .. ....|... .. .. ....
0A |... .. .. ....|... .. .. ....|... .. .. ....|... .. .. ....|... .. .. ....|F-1 .. .. ....|... .. .. ....|... .. .. ....|... .. .. ....|... .. .. ....|... .. .. ....|... .. .. ....|... .. .. ....|C-3 01 .. ....|... .. .. ....|... .. .. ....
0B |... .. .. ....|... .. .. ....|... .. .. ....|... .. .. ....|... .. .. ....|G-1 .. .. ....|... .. .. ....|... .. .. ....|... .. .. ....|... .. .. ....|... .. .. ....|... .. .. ....|... .. .. ....|C-3 01 .. ....|... .. .. ....|... .. .. ....
0C |... .. .. ....|... .. .. ....|... .. .. ....|... .. .. ....|... .. .. ....|A-1 .. .. ....|... .. .. ....|... .. .. ....|... .. .. ....|... .. .. ....|... .. .. ....|C-3 .. .. ....|... .. .. ....|C-3 00 .. ....|... .. .. ....|... .. .. ....
0D |... .. .. ....|... .. .. ....|... .. .. ....|... .. .. ....|... .. .. ....|A#1 .. .. ....|... .. .. ....|... .. .. ....|... .. .. ....|... .. .. ....|... .. .. ....|... .. .. ....|... .. .. ....|C-3 00 .. ....|... .. .. ....|... .. .. ....
0E |... .. .. ....|... .. .. ....|... .. .. ....|... .. .. ....|... .. .. ....|C-2 .. .. ....|... .. .. ....|... .. .. ....|... .. .. ....|... .. .. ....|C-3 03 .. ....|... .. .. ....|... .. .. ....|... .. .. ....|... .. .. ....|... .. .. ....
0F |... .. .. ....|... .. .. ....|... .. .. ....|... .. .. ....|... .. .. ....|D-2 .. .. ....|... .. .. ....|... .. .. ....|... .. .. ....|... .. .. ....|C-3 03 .. ....|... .. .. ....|... .. .. ....|... .. .. ....|... .. .. ....|... .. .. 0D..
10 |... .. .. ....|... .. .. ....|... .. .. ....|... .. .. ....|... .. .. ....|... .. .. ....|... .. .. ....|... .. .. ....|... .. .. ....|... .. .. ....|... .. .. ....|... .. .. ....|... .. .. ....|... .. .. ....|... .. .. ....|... .. .. ....
11 |... .. .. ....|... .. .. ....|... .. .. ....|... .. .. ....|... .. .. ....|... .. .. ....|... .. .. ....|... .. .. ....|... .. .. ....|... .. .. ....|... .. .. ....|... .. .. ....|... .. .. ....|... .. .. ....|... .. .. ....|... .. .. ....
12 |... .. .. ....|... .. .. ....|... .. .. ....|... .. .. ....|... .. .. ....|... .. .. ....|... .. .. ....|... .. .. ....|... .. .. ....|... .. .. ....|... .. .. ....|... .. .. ....|... .. .. ....|... .. .. ....|... .. .. ....|... .. .. ....
13 |... .. .. ....|... .. .. ....|... .. .. ....|... .. .. ....|... .. .. ....|... .. .. ....|... .. .. ....|... .. .. ....|... .. .. ....|... .. .. ....|... .. .. ....|... .. .. ....|... .. .. ....|... .. .. ....|... .. .. ....|... .. .. ....
14 |... .. .. ....|... .. .. ....|... .. .. ....|... .. .. ....|... .. .. ....|... .. .. ....|... .. .. ....|... .. .. ....|... .. .. ....|... .. .. ....|... .. .. ....|... .. .. ....|... .. .. ....|... .. .. ....|... .. .. ....|... .. .. ....
15 |... .. .. ....|... .. .. ....|... .. .. ....|... .. .. ....|... .. .. ....|... .. .. ....|... .. .. ....|... .. .. ....|... .. .. ....|... .. .. ....|... .. .. ....|... .. .. ....|... .. .. ....|... .. .. ....|... .. .. ....|... .. .. ....
16 |... .. .. ....|... .. .. ....|... .. .. ....|... .. .. ....|... .. .. ....|... .. .. ....|... .. .. ....|... .. .. ....|... .. .. ....|... .. .. ....|... .. .. ....|... .. .. ....|... .. .. ....|... .. .. ....|... .. .. ....|... .. .. ....
17 |... .. .. ....|... .. .. ....|... .. .. ....|... .. .. ....|... .. .. ....|... .. .. ....|... .. .. ....|... .. .. ....|... .. .. ....|... .. .. ....|... .. .. ....|... .. .. ....|... .. .. ....|... .. .. ....|... .. .. ....|... .. .. ....
18 |... .. .. ....|... .. .. ....|... .. .. ....|... .. .. ....|... .. .. ....|... .. .. ....|... .. .. ....|... .. .. ....|... .. .. ....|... .. .. ....|... .. .. ....|... .. .. ....|... .. .. ....|... .. .. ....|... .. .. ....|... .. .. ....
19 |... .. .. ....|... .. .. ....|... .. .. ....|... .. .. ....|... .. .. ....|... .. .. ....|... .. .. ....|... .. .. ....|... .. .. ....|... .. .. ....|... .. .. ....|... .. .. ....|... .. .. ....|... .. .. ....|... .. .. ....|... .. .. ....
1A |... .. .. ....|... .. .. ....|... .. .. ....|... .. .. ....|... .. .. ....|... .. .. ....|... .. .. ....|... .. .. ....|... .. .. ....|... .. .. ....|... .. .. ....|... .. .. ....|... .. .. ....|... .. .. ....|... .. .. ....|... .. .. ....
1B |... .. .. ....|... .. .. ....|... .. .. ....|... .. .. ....|... .. .. ....|... .. .. ....|... .. .. ....|... .. .. ....|... .. .. ....|... .. .. ....|... .. .. ....|... .. .. ....|... .. .. ....|... .. .. ....|... .. .. ....|... .. .. ....
1C |... .. .. ....|... .. .. ....|... .. .. ....|... .. .. ....|... .. .. ....|... .. .. ....|... .. .. ....|... .. .. ....|... .. .. ....|... .. .. ....|... .. .. ....|... .. .. ....|... .. .. ....|... .. .. ....|... .. .. ....|... .. .. ....
1D |... .. .. ....|... .. .. ....|... .. .. ....|... .. .. ....|... .. .. ....|... .. .. ....|... .. .. ....|... .. .. ....|... .. .. ....|... .. .. ....|... .. .. ....|... .. .. ....|... .. .. ....|... .. .. ....|... .. .. ....|... .. .. ....
1E |... .. .. ....|... .. .. ....|... .. .. ....|... .. .. ....|... .. .. ....|... .. .. ....|... .. .. ....|... .. .. ....|... .. .. ....|... .. .. ....|... .. .. ....|... .. .. ....|... .. .. ....|... .. .. ....|... .. .. ....|... .. .. ....
1F |... .. .. ....|... .. .. ....|... .. .. ....|... .. .. ....|... .. .. ....|... .. .. ....|... .. .. ....|... .. .. ....|... .. .. ....|... .. .. ....|... .. .. ....|... .. .. ....|... .. .. ....|... .. .. ....|... .. .. ....|... .. .. ....
20 |... .. .. ....|... .. .. ....|... .. .. ....|... .. .. ....|... .. .. ....|... .. .. ....|... .. .. ....|... .. .. ....|... .. .. ....|... .. .. ....|... .. .. ....|... .. .. ....|... .. .. ....|... .. .. ....|... .. .. ....|... .. .. ....
21 |... .. .. ....|... .. .. ....|... .. .. ....|... .. .. ....|... .. .. ....|... .. .. ....|... .. .. ....|... .. .. ....|... .. .. ....|... .. .. ....|... .. .. ....|... .. .. ....|... .. .. ....|... .. .. ....|... .. .. ....|... .. .. ....
22 |... .. .. ....|... .. .. ....|... .. .. ....|... .. .. ....|... .. .. ....|... .. .. ....|... .. .. ....|... .. .. ....|... .. .. ....|... .. .. ....|... .. .. ....|... .. .. ....|... .. .. ....|... .. .. ....|... .. .. ....|... .. .. ....
23 |... .. .. ....|... .. .. ....|... .. .. ....|... .. .. ....|... .. .. ....|... .. .. ....|... .. .. ....|... .. .. ....|... .. .. ....|... .. .. ....|... .. .. ....|... .. .. ....|... .. .. ....|... .. .. ....|... .. .. ....|... .. .. ....
24 |... .. .. ....|... .. .. ....|... .. .. ....|... .. .. ....|... .. .. ....|... .. .. ....|... .. .. ....|... .. .. ....|... .. .. ....|... .. .. ....|... .. .. ....|... .. .. ....|... .. .. ....|... .. .. ....|... .. .. ....|... .. .. ....
25 |... .. .. ....|... .. .. ....|... .. .. ....|... .. .. ....|... .. .. ....|... .. .. ....|... .. .. ....|... .. .. ....|... .. .. ....|... .. .. ....|... .. .. ....|... .. .. ....|... .. .. ....|... .. .. ....|... .. .. ....|... .. .. ....
26 |... .. .. ....|... .. .. ....|... .. .. ....|... .. .. ....|... .. .. ....|... .. .. ....|... .. .. ....|... .. .. ....|... .. .. ....|... .. .. ....|... .. .. ....|... .. .. ....|... .. .. ....|... .. .. ....|... .. .. ....|... .. .. ....
27 |... .. .. ....|... .. .. ....|... .. .. ....|... .. .. ....|... .. .. ....|... .. .. ....|... .. .. ....|... .. .. ....|... .. .. ....|... .. .. ....|... .. .. ....|... .. .. ....|... .. .. ....|... .. .. ....|... .. .. ....|... .. .. ....
28 |... .. .. ....|... .. .. ....|... .. .. ....|... .. .. ....|... .. .. ....|... .. .. ....|... .. .. ....|... .. .. ....|... .. .. ....|... .. .. ....|... .. .. ....|... .. .. ....|... .. .. ....|... .. .. ....|... .. .. ....|... .. .. ....
29 |... .. .. ....|... .. .. ....|... .. .. ....|... .. .. ....|... .. .. ....|... .. .. ....|... .. .. ....|... .. .. ....|... .. .. ....|... .. .. ....|... .. .. ....|... .. .. ....|... .. .. ....|... .. .. ....|... .. .. ....|... .. .. ....
2A |... .. .. ....|... .. .. ....|... .. .. ....|... .. .. ....|... .. .. ....|... .. .. ....|... .. .. ....|... .. .. ....|... .. .. ....|... .. .. ....|... .. .. ....|... .. .. ....|... .. .. ....|... .. .. ....|... .. .. ....|... .. .. ....
2B |... .. .. ....|... .. .. ....|... .. .. ....|... .. .. ....|... .. .. ....|... .. .. ....|... .. .. ....|... .. .. ....|... .. .. ....|... .. .. ....|... .. .. ....|... .. .. ....|... .. .. ....|... .. .. ....|... .. .. ....|... .. .. ....
2C |... .. .. ....|... .. .. ....|... .. .. ....|... .. .. ....|... .. .. ....|... .. .. ....|... .. .. ....|... .. .. ....|... .. .. ....|... .. .. ....|... .. .. ....|... .. .. ....|... .. .. ....|... .. .. ....|... .. .. ....|... .. .. ....
2D |... .. .. ....|... .. .. ....|... .. .. ....|... .. .. ....|... .. .. ....|... .. .. ....|... .. .. ....|... .. .. ....|... .. .. ....|... .. .. ....|... .. .. ....|... .. .. ....|... .. .. ....|... .. .. ....|... .. .. ....|... .. .. ....
2E |... .. .. ....|... .. .. ....|... .. .. ....|... .. .. ....|... .. .. ....|... .. .. ....|... .. .. ....|... .. .. ....|... .. .. ....|... .. .. ....|... .. .. ....|... .. .. ....|... .. .. ....|... .. .. ....|... .. .. ....|... .. .. ....
2F |... .. .. ....|... .. .. ....|... .. .. ....|... .. .. ....|... .. .. ....|... .. .. ....|... .. .. ....|... .. .. ....|... .. .. ....|... .. .. ....|... .. .. ....|... .. .. ....|... .. .. ....|... .. .. ....|... .. .. ....|... .. .. ....
30 |... .. .. ....|... .. .. ....|... .. .. ....|... .. .. ....|... .. .. ....|... .. .. ....|... .. .. ....|... .. .. ....|... .. .. ....|... .. .. ....|... .. .. ....|... .. .. ....|... .. .. ....|... .. .. ....|... .. .. ....|... .. .. ....
31 |... .. .. ....|... .. .. ....|... .. .. ....|... .. .. ....|... .. .. ....|... .. .. ....|... .. .. ....|... .. .. ....|... .. .. ....|... .. .. ....|... .. .. ....|... .. .. ....|... .. .. ....|... .. .. ....|... .. .. ....|... .. .. ....
32 |... .. .. ....|... .. .. ....|... .. .. ....|... .. .. ....|... .. .. ....|... .. .. ....|... .. .. ....|... .. .. ....|... .. .. ....|... .. .. ....|... .. .. ....|... .. .. ....|... .. .. ....|... .. .. ....|... .. .. ....|... .. .. ....
33 |... .. .. ....|... .. .. ....|... .. .. ....|... .. .. ....|... .. .. ....|... .. .. ....|... .. .. ....|... .. .. ....|... .. .. ....|... .. .. ....|... .. .. ....|... .. .. ....|... .. .. ....|... .. .. ....|... .. .. ....|... .. .. ....
34 |... .. .. ....|... .. .. ....|... .. .. ....|... .. .. ....|... .. .. ....|... .. .. ....|... .. .. ....|... .. .. ....|... .. .. ....|... .. .. ....|... .. .. ....|... .. .. ....|... .. .. ....|... .. .. ....|... .. .. ....|... .. .. ....
35 |... .. .. ....|... .. .. ....|... .. .. ....|... .. .. ....|... .. .. ....|... .. .. ....|... .. .. ....|... .. .. ....|... .. .. ....|... .. .. ....|... .. .. ....|... .. .. ....|... .. .. ....|... .. .. ....|... .. .. ....|... .. .. ....
36 |... .. .. ....|... .. .. ....|... .. .. ....|... .. .. ....|... .. .. ....|... .. .. ....|... .. .. ....|... .. .. ....|... .. .. ....|... .. .. ....|... .. .. ....|... .. .. ....|... .. .. ....|... .. .. ....|... .. .. ....|... .. .. ....
37 |... .. .. ....|... .. .. ....|... .. .. ....|... .. .. ....|... .. .. ....|... .. .. ....|... .. .. ....|... .. .. ....|... .. .. ....|... .. .. ....|... .. .. ....|... .. .. ....|... .. .. ....|... .. .. ....|... .. .. ....|... .. .. ....
38 |... .. .. ....|... .. .. ....|... .. .. ....|... .. .. ....|... .. .. ....|... .. .. ....|... .. .. ....|... .. .. ....|... .. .. ....|... .. .. ....|... .. .. ....|... .. .. ....|... .. .. ....|... .. .. ....|... .. .. ....|... .. .. ....
39 |... .. .. ....|... .. .. ....|... .. .. ....|... .. .. ....|... .. .. ....|... .. .. ....|... .. .. ....|... .. .. ....|... .. .. ....|... .. .. ....|... .. .. ....|... .. .. ....|... .. .. ....|... .. .. ....|... .. .. ....|... .. .. ....
3A |... .. .. ....|... .. .. ....|... .. .. ....|... .. .. ....|... .. .. ....|... .. .. ....|... .. .. ....|... .. .. ....|... .. .. ....|... .. .. ....|... .. .. ....|... .. .. ....|... .. .. ....|... .. .. ....|... .. .. ....|... .. .. ....
3B |... .. .. ....|... .. .. ....|... .. .. ....|... .. .. ....|... .. .. ....|... .. .. ....|... .. .. ....|... .. .. ....|... .. .. ....|... .. .. ....|... .. .. ....|... .. .. ....|... .. .. ....|... .. .. ....|... .. .. ....|... .. .. ....
3C |... .. .. ....|... .. .. ....|... .. .. ....|... .. .. ....|... .. .. ....|... .. .. ....|... .. .. ....|... .. .. ....|... .. .. ....|... .. .. ....|... .. .. ....|... .. .. ....|... .. .. ....|... .. .. ....|... .. .. ....|... .. .. ....
3D |... .. .. ....|... .. .. ....|... .. .. ....|... .. .. ....|... .. .. ....|... .. .. ....|... .. .. ....|... .. .. ....|... .. .. ....|... .. .. ....|... .. .. ....|... .. .. ....|... .. .. ....|... .. .. ....|... .. .. ....|... .. .. ....
3E |... .. .. ....|... .. .. ....|... .. .. ....|... .. .. ....|... .. .. ....|... .. .. ....|... .. .. ....|... .. .. ....|... .. .. ....|... .. .. ....|... .. .. ....|... .. .. ....|... .. .. ....|... .. .. ....|... .. .. ....|... .. .. ....
3F |... .. .. ....|... .. .. ....|... .. .. ....|... .. .. ....|... .. .. ....|... .. .. ....|... .. .. ....|... .. .. ....|... .. .. ....|... .. .. ....|... .. .. ....|... .. .. ....|... .. .. ....|... .. .. ....|... .. .. ....|... .. .. ....
----- ORDER 01
00 |D-4 00 .. ....|A-4 06 .. ....|D-5 06 .. ....|A-3 01 .. ....|F-4 01 .. ....|D-2 .. .. ....|... .. .. ....|... .. .. ....|... .. .. ....|C-3 00 .. ....|... .. .. ....|... .. .. ....|C-3 .. .. ....|... .. .. ....|... .. .. ....|... .. .. ....
01 |... .. .. ....|... .. .. ....|... .. .. ....|... .. .. ....|... .. .. ....|... .. .. ....|... .. .. ....|... .. .. ....|... .. .. ....|... .. .. ....|... .. .. ....|... .. .. ....|C-3 .. .. ....|... .. .. ....|... .. .. ....|... .. .. ....
02 |... .. .. ....|... .. .. ....|... .. .. ....|... .. .. ....|... .. .. ....|D-3 .. .. ....|... .. .. ....|... .. .. ....|... .. .. ....|... .. .. ....|... .. .. ....|... .. .. ....|C-3 .. .. ....|... .. .. ....|... .. .. ....|... .. .. ....
03 |... .. .. ....|... .. .. ....|... .. .. ....|... .. .. ....|... .. .. ....|D-3 .. .. ....|... .. .. ....|... .. .. ....|... .. .. ....|... .. .. ....|... .. .. ....|... .. .. ....|C-3 .. .. ....|... .. .. ....|... .. .. ....|... .. .. ....
04 |A-4 .. .. ....|... .. .. ....|... .. .. ....|... .. .. ....|... .. .. ....|D-2 .. .. ....|... .. .. ....|... .. .. ....|... .. .. ....|... .. .. ....|C-3 00 .. ....|C-3 00 .. ....|C-3 .. .. ....|... .. .. ....|... .. .. ....|... .. .. ....
05 |... .. .. ....|... .. .. ....|... .. .. ....|... .. .. ....|... .. .. ....|... .. .. ....|... .. .. ....|... .. .. ....|... .. .. ....|... .. .. ....|... .. .. ....|... .. .. ....|C-3 .. .. ....|... .. .. ....|... .. .. ....|... .. .. ....
06 |... .. .. ....|... .. .. ....|... .. .. ....|... .. .. ....|... .. .. ....|D-3 .. .. ....|... .. .. ....|... .. .. ....|... .. .. ....|... .. .. ....|... .. .. ....|... .. .. ....|C-3 .. .. ....|... .. .. ....|... .. .. ....|... .. .. ....
07 |... .. .. ....|... .. .. ....|... .. .. ....|... .. .. ....|... .. .. ....|D-3 .. .. ....|... .. .. ....|... .. .. ....|... .. .. ....|... .. .. ....|... .. .. ....|... .. .. ....|C-3 .. .. ....|... .. .. ....|... .. .. ....|... .. .. ....
08 |E-4 .. .. ....|... .. .. ....|... .. .. ....|... .. .. ....|... .. .. ....|D-2 .. .. ....|... .. .. ....|... .. .. ....|... .. .. ....|C-3 00 .. ....|... .. .. ....|... .. .. ....|C-3 .. .. ....|... .. .. ....|... .. .. ....|... .. .. ....
09 |... .. .. ....|... .. .. ....|... .. .. ....|... .. .. ....|... .. .. ....|... .. .. ....|... .. .. ....|... .. .. ....|... .. .. ....|... .. .. ....|... .. .. ....|... .. .. ....|C-3 .. .. ....|... .. .. ....|... .. .. ....|... .. .. ....
0A |... .. .. ....|... .. .. ....|... .. .. ....|... .. .. ....|... .. .. ....|D-3 .. .. ....|... .. .. ....|... .. .. ....|... .. .. ....|... .. .. ....|... .. .. ....|... .. .. ....|C-3 .. .. ....|... .. .. ....|... .. .. ....|... .. .. ....
0B |... .. .. ....|... .. .. ....|... .. .. ....|... .. .. ....|... .. .. ....|D-3 .. .. ....|... .. .. ....|... .. .. ....|... .. .. ....|... .. .. ....|... .. .. ....|... .. .. ....|C-3 .. .. ....|... .. .. ....|... .. .. ....|... .. .. ....
0C |A-4 .. .. ....|... .. .. ....|... .. .. ....|... .. .. ....|... .. .. ....|D-2 .. .. ....|... .. .. ....|... .. .. ....|... .. .. ....|... .. .. ....|C-3 00 .. ....|C-3 00 .. ....|C-3 .. .. ....|... .. .. ....|... .. .. ....|... .. .. ....
0D |... .. .. ....|... .. .. ....|... .. .. ....|... .. .. ....|... .. .. ....|... .. .. ....|... .. .. ....|... .. .. ....|... .. .. ....|... .. .. ....|... .. .. ....|... .. .. ....|C-3 .. .. ....|... .. .. ....|... .. .. ....|... .. .. ....
0E |... .. .. ....|... .. .. ....|... .. .. ....|... .. .. ....|... .. .. ....|D-3 .. .. ....|... .. .. ....|... .. .. ....|... .. .. ....|... .. .. ....|... .. .. ....|... .. .. ....|C-3 .. .. ....|... .. .. ....|... .. .. ....|... .. .. ....
0F |... .. .. ....|... .. .. ....|... .. .. ....|... .. .. ....|... .. .. ....|D-3 .. .. ....|... .. .. ....|... .. .. ....|... .. .. ....|... .. .. ....|... .. .. ....|... .. .. ....|C-3 .. .. ....|... .. .. ....|... .. .. ....|... .. .. ....
10 |F-4 .. .. ....|... .. .. ....|... .. .. ....|... .. .. ....|... .. .. ....|D-2 .. .. ....|... .. .. ....|... .. .. ....|... .. .. ....|C-3 00 .. ....|... .. .. ....|... .. .. ....|C-3 .. .. ....|... .. .. ....|... .. .. ....|... .. .. ....
11 |... .. .. ....|... .. .. ....|... .. .. ....|... .. .. ....|... .. .. ....|... .. .. ....|... .. .. ....|... .. .. ....|... .. .. ....|... .. .. ....|... .. .. ....|... .. .. ....|C-3 .. .. ....|... .. .. ....|... .. .. ....|... .. .. ....
12 |... .. .. ....|... .. .. ....|... .. .. ....|... .. .. ....|... .. .. ....|D-3 .. .. ....|... .. .. ....|... .. .. ....|... .. .. ....|... .. .. ....|... .. .. ....|... .. .. ....|C-3 .. .. ....|... .. .. ....|... .. .. ....|... .. .. ....
13 |... .. .. ....|... .. .. ....|... .. .. ....|... .. .. ....|... .. .. ....|D-3 .. .. ....|... .. .. ....|... .. .. ....|... .. .. ....|... .. .. ....|... .. .. ....|... .. .. ....|C-3 .. .. ....|... .. .. ....|... .. .. ....|... .. .. ....
14 |A-4 .. .. ....|... .. .. ....|... .. .. ....|... .. .. ....|... .. .. ....|D-2 .. .. ....|... .. .. ....|... .. .. ....|... .. .. ....|... .. .. ....|C-3 00 .. ....|C-3 00 .. ....|C-3 .. .. ....|... .. .. ....|... .. .. ....|... .. .. ....
15 |... .. .. ....|... .. .. ....|... .. .. ....|... .. .. ....|... .. .. ....|... .. .. ....|... .. .. ....|... .. .. ....|... .. .. ....|... .. .. ....|... .. .. ....|... .. .. ....|C-3 .. .. ....|... .. .. ....|... .. .. ....|... .. .. ....
16 |... .. .. ....|... .. .. ....|... .. .. ....|... .. .. ....|... .. .. ....|D-3 .. .. ....|... .. .. ....|... .. .. ....|... .. .. ....|... .. .. ....|... .. .. ....|... .. .. ....|C-3 .. .. ....|... .. .. ....|... .. .. ....|... .. .. ....
17 |... .. .. ....|... .. .. ....|... .. .. ....|... .. .. ....|... .. .. ....|D-3 .. .. ....|... .. .. ....|... .. .. ....|... .. .. ....|... .. .. ....|... .. .. ....|... .. .. ....|C-3 .. .. ....|... .. .. ....|... .. .. ....|... .. .. ....
18 |E-4 .. .. ....|... .. .. ....|... .. .. ....|... .. .. ....|... .. .. ....|D-2 .. .. ....|... .. .. ....|... .. .. ....|... .. .. ....|C-3 00 .. ....|... .. .. ....|... .. .. ....|C-3 .. .. ....|... .. .. ....|... .. .. ....|... .. .. ....
19 |... .. .. ....|... .. .. ....|... .. .. ....|... .. .. ....|... .. .. ....|... .. .. ....|... .. .. ....|... .. .. ....|... .. .. ....|... .. .. ....|... .. .. ....|... .. .. ....|C-3 .. .. ....|... .. .. ....|... .. .. ....|... .. .. ....
1A |... .. .. ....|... .. .. ....|... .. .. ....|... .. .. ....|... .. .. ....|D-3 .. .. ....|... .. .. ....|... .. .. ....|... .. .. ....|... .. .. ....|... .. .. ....|... .. .. ....|C-3 .. .. ....|... .. .. ....|... .. .. ....|... .. .. ....
1B |... .. .. ....|... .. .. ....|... .. .. ....|... .. .. ....|... .. .. ....|D-3 .. .. ....|... .. .. ....|... .. .. ....|... .. .. ....|... .. .. ....|... .. .. ....|... .. .. ....|C-3 .. .. ....|... .. .. ....|... .. .. ....|... .. .. ....
1C |A-4 .. .. ....|... .. .. ....|... .. .. ....|... .. .. ....|... .. .. ....|D-2 .. .. ....|... .. .. ....|... .. .. ....|... .. .. ....|... .. .. ....|C-3 00 .. ....|C-3 00 .. ....|C-3 .. .. ....|... .. .. ....|... .. .. ....|... .. .. ....
1D |... .. .. ....|... .. .. ....|... .. .. ....|... .. .. ....|... .. .. ....|... .. .. ....|... .. .. ....|... .. .. ....|... .. .. ....|... .. .. ....|... .. .. ....|... .. .. ....|C-3 .. .. ....|... .. .. ....|... .. .. ....|... .. .. ....
1E |... .. .. ....|... .. .. ....|... .. .. ....|... .. .. ....|... .. .. ....|D-3 .. .. ....|... .. .. ....|... .. .. ....|... .. .. ....|... .. .. ....|... .. .. ....|... .. .. ....|C-3 .. .. ....|... .. .. ....|... .. .. ....|... .. .. ....
1F |... .. .. ....|... .. .. ....|... .. .. ....|... .. .. ....|... .. .. ....|D-3 .. .. ....|... .. .. ....|... .. .. ....|... .. .. ....|... .. .. ....|... .. .. ....|... .. .. ....|C-3 .. .. ....|... .. .. ....|... .. .. ....|... .. .. ....
20 |D-4 .. .. ....|... .. .. ....|... .. .. ....|... .. .. ....|... .. .. ....|D-2 .. .. ....|... .. .. ....|... .. .. ....|... .. .. ....|C-3 00 .. ....|... .. .. ....|... .. .. ....|C-3 .. .. ....|... .. .. ....|... .. .. ....|... .. .. ....
21 |... .. .. ....|... .. .. ....|... .. .. ....|... .. .. ....|... .. .. ....|... .. .. ....|... .. .. ....|... .. .. ....|... .. .. ....|... .. .. ....|... .. .. ....|... .. .. ....|C-3 .. .. ....|... .. .. ....|... .. .. ....|... .. .. ....
22 |... .. .. ....|... .. .. ....|... .. .. ....|... .. .. ....|... .. .. ....|D-3 .. .. ....|... .. .. ....|... .. .. ....|... .. .. ....|... .. .. ....|... .. .. ....|... .. .. ....|C-3 .. .. ....|... .. .. ....|... .. .. ....|... .. .. ....
23 |... .. .. ....|... .. .. ....|... .. .. ....|... .. .. ....|... .. .. ....|D-3 .. .. ....|... .. .. ....|... .. .. ....|... .. .. ....|... .. .. ....|... .. .. ....|... .. .. ....|C-3 .. .. ....|... .. .. ....|... .. .. ....|... .. .. ....
24 |A-4 .. .. ....|... .. .. ....|... .. .. ....|... .. .. ....|... .. .. ....|D-2 .. .. ....|... .. .. ....|... .. .. ....|... .. .. ....|... .. .. ....|C-3 00 .. ....|C-3 00 .. ....|C-3 .. .. ....|... .. .. ....|... .. .. ....|... .. .. ....
25 |... .. .. ....|... .. .. ....|... .. .. ....|... .. .. ....|... .. .. ....|... .. .. ....|... .. .. ....|... .. .. ....|... .. .. ....|... .. .. ....|... .. .. ....|... .. .. ....|C-3 .. .. ....|... .. .. ....|... .. .. ....|... .. .. ....
26 |... .. .. ....|... .. .. ....|... .. .. ....|... .. .. ....|... .. .. ....|D-3 .. .. ....|... .. .. ....|... .. .. ....|... .. .. ....|... .. .. ....|... .. .. ....|... .. .. ....|C-3 .. .. ....|... .. .. ....|... .. .. ....|... .. .. ....
27 |... .. .. ....|... .. .. ....|... .. .. ....|... .. .. ....|... .. .. ....|D-3 .. .. ....|... .. .. ....|... .. .. ....|... .. .. ....|... .. .. ....|... .. .. ....|... .. .. ....|C-3 .. .. ....|... .. .. ....|... .. .. ....|... .. .. ....
28 |E-4 .. .. ....|... .. .. ....|... .. .. ....|... .. .. ....|... .. .. ....|D-2 .. .. ....|... .. .. ....|... .. .. ....|... .. .. ....|C-3 00 .. ....|... .. .. ....|... .. .. ....|C-3 .. .. ....|... .. .. ....|... .. .. ....|... .. .. ....
29 |... .. .. ....|... .. .. ....|... .. .. ....|... .. .. ....|... .. .. ....|... .. .. ....|... .. .. ....|... .. .. ....|... .. .. ....|... .. .. ....|... .. .. ....|... .. .. ....|C-3 .. .. ....|... .. .. ....|... .. .. ....|... .. .. ....
2A |... .. .. ....|... .. .. ....|... .. .. ....|... .. .. ....|... .. .. ....|D-3 .. .. ....|... .. .. ....|... .. .. ....|... .. .. ....|... .. .. ....|... .. .. ....|... .. .. ....|C-3 .. .. ....|... .. .. ....|... .. .. ....|... .. .. ....
2B |... .. .. ....|... .. .. ....|... .. .. ....|... .. .. ....|... .. .. ....|D-3 .. .. ....|... .. .. ....|... .. .. ....|... .. .. ....|... .. .. ....|... .. .. ....|... .. .. ....|C-3 .. .. ....|... .. .. ....|... .. .. ....|... .. .. ....
2C |A-4 .. .. ....|... .. .. ....|... .. .. ....|... .. .. ....|... .. .. ....|D-2 .. .. ....|... .. .. ....|... .. .. ....|... .. .. ....|... .. .. ....|C-3 00 .. ....|C-3 00 .. ....|C-3 .. .. ....|... .. .. ....|... .. .. ....|... .. .. ....
2D |... .. .. ....|... .. .. ....|... .. .. ....|... .. .. ....|... .. .. ....|... .. .. ....|... .. .. ....|... .. .. ....|... .. .. ....|... .. .. ....|... .. .. ....|... .. .. ....|C-3 .. .. ....|... .. .. ....|... .. .. ....|... .. .. ....
2E |... .. .. ....|... .. .. ....|... .. .. ....|... .. .. ....|... .. .. ....|D-3 .. .. ....|... .. .. ....|... .. .. ....|... .. .. ....|... .. .. ....|... .. .. ....|... .. .. ....|C-3 .. .. ....|... .. .. ....|... .. .. ....|... .. .. ....
2F |... .. .. ....|... .. .. ....|... .. .. ....|... .. .. ....|... .. .. ....|D-3 .. .. ....|... .. .. ....|... .. .. ....|... .. .. ....|... .. .. ....|... .. .. ....|... .. .. ....|C-3 .. .. ....|... .. .. ....|... .. .. ....|... .. .. ....
30 |F-4 .. .. ....|... .. .. ....|... .. .. ....|... .. .. ....|... .. .. ....|D-2 .. .. ....|... .. .. ....|... .. .. ....|... .. .. ....|C-3 00 .. ....|... .. .. ....|... .. .. ....|C-3 .. .. ....|... .. .. ....|... .. .. ....|... .. .. ....
31 |... .. .. ....|... .. .. ....|... .. .. ....|... .. .. ....|... .. .. ....|... .. .. ....|... .. .. ....|... .. .. ....|... .. .. ....|... .. .. ....|... .. .. ....|... .. .. ....|C-3 .. .. ....|... .. .. ....|... .. .. ....|... .. .. ....
32 |... .. .. ....|... .. .. ....|... .. .. ....|... .. .. ....|... .. .. ....|D-3 .. .. ....|... .. .. ....|... .. .. ....|... .. .. ....|... .. .. ....|... .. .. ....|... .. .. ....|C-3 .. .. ....|... .. .. ....|... .. .. ....|... .. .. ....
33 |... .. .. ....|... .. .. ....|... .. .. ....|... .. .. ....|... .. .. ....|D-3 .. .. ....|... .. .. ....|... .. .. ....|... .. .. ....|... .. .. ....|... .. .. ....|... .. .. ....|C-3 .. .. ....|... .. .. ....|... .. .. ....|... .. .. ....
34 |G-4 .. .. ....|... .. .. ....|... .. .. ....|... .. .. ....|... .. .. ....|D-2 .. .. ....|... .. .. ....|... .. .. ....|... .. .. ....|... .. .. ....|C-3 00 .. ....|C-3 00 .. ....|C-3 .. .. ....|... .. .. ....|... .. .. ....|... .. .. ....
35 |... .. .. ....|... .. .. ....|... .. .. ....|... .. .. ....|... .. .. ....|... .. .. ....|... .. .. ....|... .. .. ....|... .. .. ....|... .. .. ....|... .. .. ....|... .. .. ....|C-3 .. .. ....|... .. .. ....|... .. .. ....|... .. .. ....
36 |A-4 .. .. ....|... .. .. ....|... .. .. ....|... .. .. ....|... .. .. ....|D-3 .. .. ....|... .. .. ....|... .. .. ....|... .. .. ....|... .. .. ....|... .. .. ....|... .. .. ....|C-3 .. .. ....|... .. .. ....|... .. .. ....|... .. .. ....
37 |... .. .. ....|... .. .. ....|... .. .. ....|... .. .. ....|... .. .. ....|D-3 .. .. ....|... .. .. ....|... .. .. ....|... .. .. ....|... .. .. ....|... .. .. ....|... .. .. ....|C-3 .. .. ....|... .. .. ....|... .. .. ....|... .. .. ....
38 |G-4 .. .. ....|... .. .. ....|... .. .. ....|... .. .. ....|... .. .. ....|D-2 .. .. ....|... .. .. ....|... .. .. ....|... .. .. ....|C-3 00 .. ....|... .. .. ....|... .. .. ....|C-3 .. .. ....|... .. .. ....|... .. .. ....|... .. .. ....
39 |... .. .. ....|... .. .. ....|... .. .. ....|... .. .. ....|... .. .. ....|... .. .. ....|... .. .. ....|... .. .. ....|... .. .. ....|... .. .. ....|... .. .. ....|... .. .. ....|C-3 .. .. ....|... .. .. ....|... .. .. ....|... .. .. ....
3A |F-4 .. .. ....|... .. .. ....|... .. .. ....|... .. .. ....|... .. .. ....|D-3 .. .. ....|... .. .. ....|... .. .. ....|... .. .. ....|... .. .. ....|... .. .. ....|... .. .. ....|C-3 .. .. ....|... .. .. ....|... .. .. ....|... .. .. ....
3B |... .. .. ....|... .. .. ....|... .. .. ....|... .. .. ....|... .. .. ....|D-3 .. .. ....|... .. .. ....|... .. .. ....|... .. .. ....|... .. .. ....|... .. .. ....|... .. .. ....|C-3 .. .. ....|... .. .. ....|... .. .. ....|... .. .. ....
3C |E-4 .. .. ....|... .. .. ....|... .. .. ....|... .. .. ....|... .. .. ....|D-2 .. .. ....|... .. .. ....|... .. .. ....|... .. .. ....|... .. .. ....|C-3 00 .. ....|C-3 00 .. ....|C-3 .. .. ....|... .. .. ....|... .. .. ....|... .. .. ....
3D |... .. .. ....|... .. .. ....|... .. .. ....|... .. .. ....|... .. .. ....|... .. .. ....|... .. .. ....|... .. .. ....|... .. .. ....|... .. .. ....|... .. .. ....|... .. .. ....|C-3 .. .. ....|... .. .. ....|... .. .. ....|... .. .. ....
3E |C-4 .. .. ....|... .. .. ....|... .. .. ....|... .. .. ....|... .. .. ....|D-3 .. .. ....|... .. .. ....|... .. .. ....|... .. .. ....|... .. .. ....|... .. .. ....|... .. .. ....|C-3 .. .. ....|... .. .. ....|... .. .. ....|... .. .. ....
3F |... .. .. ....|... .. .. ....|... .. .. ....|... .. .. ....|... .. .. ....|D-3 .. .. ....|... .. .. ....|... .. .. ....|... .. .. ....|... .. .. ....|... .. .. ....|... .. .. ....|C-3 .. .. ....|... .. .. ....|... .. .. ....|... .. .. ....
----- ORDER 02
00 |D-4 .. .. ....|A#4 .. .. ....|D-5 06 .. ....|A#3 .. .. ....|F-4 .. .. ....|A#1 .. .. ....|... .. .. ....|... .. .. ....|... .. .. ....|C-3 00 .. ....|... .. .. ....|... .. .. ....|C-3 .. .. ....|... .. .. ....|... .. .. ....|... .. .. ....
01 |... .. .. ....|... .. .. ....|... .. .. ....|... .. .. ....|... .. .. ....|... .. .. ....|... .. .. ....|... .. .. ....|... .. .. ....|... .. .. ....|... .. .. ....|... .. .. ....|C-3 .. .. ....|... .. .. ....|... .. .. ....|... .. .. ....
02 |... .. .. ....|... .. .. ....|... .. .. ....|... .. .. ....|... .. .. ....|A#2 .. .. ....|... .. .. ....|... .. .. ....|... .. .. ....|... .. .. ....|... .. .. ....|... .. .. ....|C-3 .. .. ....|... .. .. ....|... .. .. ....|... .. .. ....
03 |... .. .. ....|... .. .. ....|... .. .. ....|... .. .. ....|... .. .. ....|A#2 .. .. ....|... .. .. ....|... .. .. ....|... .. .. ....|... .. .. ....|... .. .. ....|... .. .. ....|C-3 .. .. ....|... .. .. ....|... .. .. ....|... .. .. ....
04 |A-4 .. .. ....|... .. .. ....|... .. .. ....|... .. .. ....|... .. .. ....|A#1 .. .. ....|... .. .. ....|... .. .. ....|... .. .. ....|... .. .. ....|C-3 00 .. ....|C-3 00 .. ....|C-3 .. .. ....|... .. .. ....|... .. .. ....|... .. .. ....
05 |... .. .. ....|... .. .. ....|... .. .. ....|... .. .. ....|... .. .. ....|... .. .. ....|... .. .. ....|... .. .. ....|... .. .. ....|... .. .. ....|... .. .. ....|... .. .. ....|C-3 .. .. ....|... .. .. ....|... .. .. ....|... .. .. ....
06 |... .. .. ....|... .. .. ....|... .. .. ....|... .. .. ....|... .. .. ....|A#2 .. .. ....|... .. .. ....|... .. .. ....|... .. .. ....|... .. .. ....|... .. .. ....|... .. .. ....|C-3 .. .. ....|... .. .. ....|... .. .. ....|... .. .. ....
07 |... .. .. ....|... .. .. ....|... .. .. ....|... .. .. ....|... .. .. ....|A#2 .. .. ....|... .. .. ....|... .. .. ....|... .. .. ....|... .. .. ....|... .. .. ....|... .. .. ....|C-3 .. .. ....|... .. .. ....|... .. .. ....|... .. .. ....
08 |E-4 .. .. ....|... .. .. ....|... .. .. ....|... .. .. ....|... .. .. ....|A#1 .. .. ....|... .. .. ....|... .. .. ....|... .. .. ....|C-3 00 .. ....|... .. .. ....|... .. .. ....|C-3 .. .. ....|... .. .. ....|... .. .. ....|... .. .. ....
09 |... .. .. ....|... .. .. ....|... .. .. ....|... .. .. ....|... .. .. ....|... .. .. ....|... .. .. ....|... .. .. ....|... .. .. ....|... .. .. ....|... .. .. ....|... .. .. ....|C-3 .. .. ....|... .. .. ....|... .. .. ....|... .. .. ....
0A |... .. .. ....|... .. .. ....|... .. .. ....|... .. .. ....|... .. .. ....|A#2 .. .. ....|... .. .. ....|... .. .. ....|... .. .. ....|... .. .. ....|... .. .. ....|... .. .. ....|C-3 .. .. ....|... .. .. ....|... .. .. ....|... .. .. ....
0B |... .. .. ....|... .. .. ....|... .. .. ....|... .. .. ....|... .. .. ....|A#2 .. .. ....|... .. .. ....|... .. .. ....|... .. .. ....|... .. .. ....|... .. .. ....|... .. .. ....|C-3 .. .. ....|... .. .. ....|... .. .. ....|... .. .. ....
0C |A-4 .. .. ....|... .. .. ....|... .. .. ....|... .. .. ....|... .. .. ....|A#1 .. .. ....|... .. .. ....|... .. .. ....|... .. .. ....|... .. .. ....|C-3 00 .. ....|C-3 00 .. ....|C-3 .. .. ....|... .. .. ....|... .. .. ....|... .. .. ....
0D |... .. .. ....|... .. .. ....|... .. .. ....|... .. .. ....|... .. .. ....|... .. .. ....|... .. .. ....|... .. .. ....|... .. .. ....|... .. .. ....|... .. .. ....|... .. .. ....|C-3 .. .. ....|... .. .. ....|... .. .. ....|... .. .. ....
0E |... .. .. ....|... .. .. ....|... .. .. ....|... .. .. ....|... .. .. ....|A#2 .. .. ....|... .. .. ....|... .. .. ....|... .. .. ....|... .. .. ....|... .. .. ....|... .. .. ....|C-3 .. .. ....|... .. .. ....|... .. .. ....|... .. .. ....
0F |... .. .. ....|... .. .. ....|... .. .. ....|... .. .. ....|... .. .. ....|A#2 .. .. ....|... .. .. ....|... .. .. ....|... .. .. ....|... .. .. ....|... .. .. ....|... .. .. ....|C-3 .. .. ....|... .. .. ....|... .. .. ....|... .. .. ....
10 |F-4 .. .. ....|... .. .. ....|... .. .. ....|... .. .. ....|... .. .. ....|A#1 .. .. ....|... .. .. ....|... .. .. ....|... .. .. ....|C-3 00 .. ....|... .. .. ....|... .. .. ....|C-3 .. .. ....|... .. .. ....|... .. .. ....|... .. .. ....
11 |... .. .. ....|... .. .. ....|... .. .. ....|... .. .. ....|... .. .. ....|... .. .. ....|... .. .. ....|... .. .. ....|... .. .. ....|... .. .. ....|... .. .. ....|... .. .. ....|C-3 .. .. ....|... .. .. ....|... .. .. ....|... .. .. ....
12 |... .. .. ....|... .. .. ....|... .. .. ....|... .. .. ....|... .. .. ....|A#2 .. .. ....|... .. .. ....|... .. .. ....|... .. .. ....|... .. .. ....|... .. .. ....|... .. .. ....|C-3 .. .. ....|... .. .. ....|... .. .. ....|... .. .. ....
13 |... .. .. ....|... .. .. ....|... .. .. ....|... .. .. ....|... .. .. ....|A#2 .. .. ....|... .. .. ....|... .. .. ....|... .. .. ....|... .. .. ....|... .. .. ....|... .. .. ....|C-3 .. .. ....|... .. .. ....|... .. .. ....|... .. .. ....
14 |A-4 .. .. ....|... .. .. ....|... .. .. ....|... .. .. ....|... .. .. ....|A#1 .. .. ....|... .. .. ....|... .. .. ....|... .. .. ....|... .. .. ....|C-3 00 .. ....|C-3 00 .. ....|C-3 .. .. ....|... .. .. ....|... .. .. ....|... .. .. ....
15 |... .. .. ....|... .. .. ....|... .. .. ....|... .. .. ....|... .. .. ....|... .. .. ....|... .. .. ....|... .. .. ....|... .. .. ....|... .. .. ....|... .. .. ....|... .. .. ....|C-3 .. .. ....|... .. .. ....|... .. .. ....|... .. .. ....
16 |... .. .. ....|... .. .. ....|... .. .. ....|... .. .. ....|... .. .. ....|A#2 .. .. ....|... .. .. ....|... .. .. ....|... .. .. ....|... .. .. ....|... .. .. ....|... .. .. ....|C-3 .. .. ....|... .. .. ....|... .. .. ....|... .. .. ....
17 |... .. .. ....|... .. .. ....|... .. .. ....|... .. .. ....|... .. .. ....|A#2 .. .. ....|... .. .. ....|... .. .. ....|... .. .. ....|... .. .. ....|... .. .. ....|... .. .. ....|C-3 .. .. ....|... .. .. ....|... .. .. ....|... .. .. ....
18 |E-4 .. .. ....|... .. .. ....|... .. .. ....|... .. .. ....|... .. .. ....|A#1 .. .. ....|... .. .. ....|... .. .. ....|... .. .. ....|C-3 00 .. ....|... .. .. ....|... .. .. ....|C-3 .. .. ....|... .. .. ....|... .. .. ....|... .. .. ....
19 |... .. .. ....|... .. .. ....|... .. .. ....|... .. .. ....|... .. .. ....|... .. .. ....|... .. .. ....|... .. .. ....|... .. .. ....|... .. .. ....|... .. .. ....|... .. .. ....|C-3 .. .. ....|... .. .. ....|... .. .. ....|... .. .. ....
1A |... .. .. ....|... .. .. ....|... .. .. ....|... .. .. ....|... .. .. ....|A#2 .. .. ....|... .. .. ....|... .. .. ....|... .. .. ....|... .. .. ....|... .. .. ....|... .. .. ....|C-3 .. .. ....|... .. .. ....|... .. .. ....|... .. .. ....
1B |... .. .. ....|... .. .. ....|... .. .. ....|... .. .. ....|... .. .. ....|A#2 .. .. ....|... .. .. ....|... .. .. ....|... .. .. ....|... .. .. ....|... .. .. ....|... .. .. ....|C-3 .. .. ....|... .. .. ....|... .. .. ....|... .. .. ....
1C |A-4 .. .. ....|... .. .. ....|... .. .. ....|... .. .. ....|... .. .. ....|A#1 .. .. ....|... .. .. ....|... .. .. ....|... .. .. ....|... .. .. ....|C-3 00 .. ....|C-3 00 .. ....|C-3 .. .. ....|... .. .. ....|... .. .. ....|... .. .. ....
1D |... .. .. ....|... .. .. ....|... .. .. ....|... .. .. ....|... .. .. ....|... .. .. ....|... .. .. ....|... .. .. ....|... .. .. ....|... .. .. ....|... .. .. ....|... .. .. ....|C-3 .. .. ....|... .. .. ....|... .. .. ....|... .. .. ....
1E |... .. .. ....|... .. .. ....|... .. .. ....|... .. .. ....|... .. .. ....|A#2 .. .. ....|... .. .. ....|... .. .. ....|... .. .. ....|... .. .. ....|... .. .. ....|... .. .. ....|C-3 .. .. ....|... .. .. ....|... .. .. ....|... .. .. ....
1F |... .. .. ....|... .. .. ....|... .. .. ....|... .. .. ....|... .. .. ....|A#2 .. .. ....|... .. .. ....|... .. .. ....|... .. .. ....|... .. .. ....|... .. .. ....|... .. .. ....|C-3 .. .. ....|... .. .. ....|... .. .. ....|... .. .. ....
20 |D-4 .. .. ....|C-5 .. .. ....|E-5 .. .. ....|C-4 .. .. ....|G-4 .. .. ....|C-2 .. .. ....|... .. .. ....|... .. .. ....|... .. .. ....|C-3 00 .. ....|... .. .. ....|... .. .. ....|C-3 .. .. ....|... .. .. ....|... .. .. ....|... .. .. ....
21 |... .. .. ....|... .. .. ....|... .. .. ....|... .. .. ....|... .. .. ....|... .. .. ....|... .. .. ....|... .. .. ....|... .. .. ....|... .. .. ....|... .. .. ....|... .. .. ....|C-3 .. .. ....|... .. .. ....|... .. .. ....|... .. .. ....
22 |... .. .. ....|... .. .. ....|... .. .. ....|... .. .. ....|... .. .. ....|C-3 .. .. ....|... .. .. ....|... .. .. ....|... .. .. ....|... .. .. ....|... .. .. ....|... .. .. ....|C-3 .. .. ....|... .. .. ....|... .. .. ....|... .. .. ....
23 |... .. .. ....|... .. .. ....|... .. .. ....|... .. .. ....|... .. .. ....|C-3 .. .. ....|... .. .. ....|... .. .. ....|... .. .. ....|... .. .. ....|... .. .. ....|... .. .. ....|C-3 .. .. ....|... .. .. ....|... .. .. ....|... .. .. ....
24 |A-4 .. .. ....|... .. .. ....|... .. .. ....|... .. .. ....|... .. .. ....|C-2 .. .. ....|... .. .. ....|... .. .. ....|... .. .. ....|... .. .. ....|C-3 00 .. ....|C-3 00 .. ....|C-3 .. .. ....|... .. .. ....|... .. .. ....|... .. .. ....
25 |... .. .. ....|... .. .. ....|... .. .. ....|... .. .. ....|... .. .. ....|... .. .. ....|... .. .. ....|... .. .. ....|... .. .. ....|... .. .. ....|... .. .. ....|... .. .. ....|C-3 .. .. ....|... .. .. ....|... .. .. ....|... .. .. ....
26 |... .. .. ....|... .. .. ....|... .. .. ....|... .. .. ....|... .. .. ....|C-3 .. .. ....|... .. .. ....|... .. .. ....|... .. .. ....|... .. .. ....|... .. .. ....|... .. .. ....|C-3 .. .. ....|... .. .. ....|... .. .. ....|... .. .. ....
27 |... .. .. ....|... .. .. ....|... .. .. ....|... .. .. ....|... .. .. ....|C-3 .. .. ....|... .. .. ....|... .. .. ....|... .. .. ....|... .. .. ....|... .. .. ....|... .. .. ....|C-3 .. .. ....|... .. .. ....|... .. .. ....|... .. .. ....
28 |E-4 .. .. ....|... .. .. ....|... .. .. ....|... .. .. ....|... .. .. ....|C-2 .. .. ....|... .. .. ....|... .. .. ....|... .. .. ....|C-3 00 .. ....|... .. .. ....|... .. .. ....|C-3 .. .. ....|... .. .. ....|... .. .. ....|... .. .. ....
29 |... .. .. ....|... .. .. ....|... .. .. ....|... .. .. ....|... .. .. ....|... .. .. ....|... .. .. ....|... .. .. ....|... .. .. ....|... .. .. ....|... .. .. ....|... .. .. ....|C-3 .. .. ....|... .. .. ....|... .. .. ....|... .. .. ....
2A |... .. .. ....|... .. .. ....|... .. .. ....|... .. .. ....|... .. .. ....|C-3 .. .. ....|... .. .. ....|... .. .. ....|... .. .. ....|... .. .. ....|... .. .. ....|... .. .. ....|C-3 .. .. ....|... .. .. ....|... .. .. ....|... .. .. ....
2B |... .. .. ....|... .. .. ....|... .. .. ....|... .. .. ....|... .. .. ....|C-3 .. .. ....|... .. .. ....|... .. .. ....|... .. .. ....|... .. .. ....|... .. .. ....|... .. .. ....|C-3 .. .. ....|... .. .. ....|... .. .. ....|... .. .. ....
2C |A-4 .. .. ....|... .. .. ....|... .. .. ....|... .. .. ....|... .. .. ....|C-2 .. .. ....|... .. .. ....|... .. .. ....|... .. .. ....|... .. .. ....|C-3 00 .. ....|C-3 00 .. ....|C-3 .. .. ....|... .. .. ....|... .. .. ....|... .. .. ....
2D |... .. .. ....|... .. .. ....|... .. .. ....|... .. .. ....|... .. .. ....|... .. .. ....|... .. .. ....|... .. .. ....|... .. .. ....|... .. .. ....|... .. .. ....|... .. .. ....|C-3 .. .. ....|... .. .. ....|... .. .. ....|... .. .. ....
2E |... .. .. ....|... .. .. ....|... .. .. ....|... .. .. ....|... .. .. ....|C-3 .. .. ....|... .. .. ....|... .. .. ....|... .. .. ....|... .. .. ....|... .. .. ....|... .. .. ....|C-3 .. .. ....|... .. .. ....|... .. .. ....|... .. .. ....
2F |... .. .. ....|... .. .. ....|... .. .. ....|... .. .. ....|... .. .. ....|C-3 .. .. ....|... .. .. ....|... .. .. ....|... .. .. ....|... .. .. ....|... .. .. ....|... .. .. ....|C-3 .. .. ....|... .. .. ....|... .. .. ....|... .. .. ....
30 |F-4 .. .. ....|G-4 .. .. ....|C-5 .. .. ....|G-3 .. .. ....|E-4 .. .. ....|C-2 .. .. ....|... .. .. ....|... .. .. ....|... .. .. ....|C-3 00 .. ....|... .. .. ....|... .. .. ....|C-3 .. .. ....|... .. .. ....|... .. .. ....|... .. .. ....
31 |... .. .. ....|... .. .. ....|... .. .. ....|... .. .. ....|... .. .. ....|... .. .. ....|... .. .. ....|... .. .. ....|... .. .. ....|... .. .. ....|... .. .. ....|... .. .. ....|C-3 .. .. ....|... .. .. ....|... .. .. ....|... .. .. ....
32 |... .. .. ....|... .. .. ....|... .. .. ....|... .. .. ....|... .. .. ....|C-3 .. .. ....|... .. .. ....|... .. .. ....|... .. .. ....|... .. .. ....|... .. .. ....|... .. .. ....|C-3 .. .. ....|... .. .. ....|... .. .. ....|... .. .. ....
33 |... .. .. ....|... .. .. ....|... .. .. ....|... .. .. ....|... .. .. ....|C-3 .. .. ....|... .. .. ....|... .. .. ....|... .. .. ....|... .. .. ....|... .. .. ....|... .. .. ....|C-3 .. .. ....|... .. .. ....|... .. .. ....|... .. .. ....
34 |G-4 .. .. ....|... .. .. ....|... .. .. ....|... .. .. ....|... .. .. ....|C-2 .. .. ....|... .. .. ....|... .. .. ....|... .. .. ....|... .. .. ....|C-3 00 .. ....|C-3 00 .. ....|C-3 .. .. ....|... .. .. ....|... .. .. ....|... .. .. ....
35 |... .. .. ....|... .. .. ....|... .. .. ....|... .. .. ....|... .. .. ....|... .. .. ....|... .. .. ....|... .. .. ....|... .. .. ....|... .. .. ....|... .. .. ....|... .. .. ....|C-3 .. .. ....|... .. .. ....|... .. .. ....|... .. .. ....
36 |A-4 .. .. ....|... .. .. ....|... .. .. ....|... .. .. ....|... .. .. ....|C-3 .. .. ....|... .. .. ....|... .. .. ....|... .. .. ....|... .. .. ....|... .. .. ....|... .. .. ....|C-3 .. .. ....|... .. .. ....|... .. .. ....|... .. .. ....
37 |... .. .. ....|... .. .. ....|... .. .. ....|... .. .. ....|... .. .. ....|C-3 .. .. ....|... .. .. ....|... .. .. ....|... .. .. ....|... .. .. ....|... .. .. ....|... .. .. ....|C-3 .. .. ....|... .. .. ....|... .. .. ....|... .. .. ....
38 |G-4 .. .. ....|... .. .. ....|... .. .. ....|... .. .. ....|... .. .. ....|C-2 .. .. ....|... .. .. ....|... .. .. ....|... .. .. ....|C-3 00 .. ....|... .. .. ....|... .. .. ....|C-3 .. .. ....|... .. .. ....|... .. .. ....|... .. .. ....
39 |... .. .. ....|... .. .. ....|... .. .. ....|... .. .. ....|... .. .. ....|... .. .. ....|... .. .. ....|... .. .. ....|... .. .. ....|... .. .. ....|... .. .. ....|... .. .. ....|C-3 .. .. ....|... .. .. ....|... .. .. ....|... .. .. ....
3A |... .. .. ....|... .. .. ....|... .. .. ....|... .. .. ....|... .. .. ....|C-3 .. .. ....|... .. .. ....|... .. .. ....|... .. .. ....|... .. .. ....|... .. .. ....|... .. .. ....|C-3 .. .. ....|... .. .. ....|... .. .. ....|... .. .. ....
3B |... .. .. ....|... .. .. ....|... .. .. ....|... .. .. ....|... .. .. ....|C-3 .. .. ....|... .. .. ....|... .. .. ....|... .. .. ....|... .. .. ....|... .. .. ....|... .. .. ....|C-3 .. .. ....|... .. .. ....|... .. .. ....|... .. .. ....
3C |C-5 .. .. ....|... .. .. ....|... .. .. ....|... .. .. ....|... .. .. ....|C-2 .. .. ....|... .. .. ....|... .. .. ....|... .. .. ....|... .. .. ....|C-3 00 .. ....|C-3 00 .. ....|C-3 .. .. ....|... .. .. ....|... .. .. ....|... .. .. ....
3D |... .. .. ....|... .. .. ....|... .. .. ....|... .. .. ....|... .. .. ....|... .. .. ....|... .. .. ....|... .. .. ....|... .. .. ....|... .. .. ....|... .. .. ....|... .. .. ....|C-3 .. .. ....|... .. .. ....|... .. .. ....|... .. .. ....
3E |... .. .. ....|... .. .. ....|... .. .. ....|... .. .. ....|... .. .. ....|C-3 .. .. ....|... .. .. ....|... .. .. ....|... .. .. ....|... .. .. ....|... .. .. ....|... .. .. ....|C-3 .. .. ....|... .. .. ....|... .. .. ....|... .. .. ....
3F |... .. .. ....|... .. .. ....|... .. .. ....|... .. .. ....|... .. .. ....|... .. .. ....|... .. .. ....|... .. .. ....|... .. .. ....|... .. .. ....|... .. .. ....|... .. .. ....|C-3 .. .. ....|... .. .. ....|... .. .. ....|... .. .. ....
----- ORDER 03
00 |D-4 00 .. ....|A-4 06 .. ....|D-5 06 .. ....|A-3 01 .. ....|F-4 01 .. ....|D-2 .. .. ....|D-5 03 .. ....|... .. .. ....|... .. .. ....|C-3 00 .. ....|... .. .. ....|... .. .. ....|C-3 .. .. ....|... .. .. ....|... .. .. ....|... .. .. ....
01 |... .. .. ....|... .. .. ....|... .. .. ....|... .. .. ....|... .. .. ....|... .. .. ....|... .. .. ....|... .. .. ....|... .. .. ....|... .. .. ....|... .. .. ....|... .. .. ....|C-3 .. .. ....|... .. .. ....|... .. .. ....|... .. .. ....
02 |... .. .. ....|... .. .. ....|... .. .. ....|... .. .. ....|... .. .. ....|D-3 .. .. ....|OFF .. .. ....|... .. .. ....|... .. .. ....|... .. .. ....|... .. .. ....|... .. .. ....|C-3 .. .. ....|... .. .. ....|... .. .. ....|... .. .. ....
03 |... .. .. ....|... .. .. ....|... .. .. ....|... .. .. ....|... .. .. ....|D-3 .. .. ....|... .. .. ....|... .. .. ....|... .. .. ....|... .. .. ....|... .. .. ....|... .. .. ....|C-3 .. .. ....|... .. .. ....|... .. .. ....|... .. .. ....
04 |A-4 .. .. ....|... .. .. ....|... .. .. ....|... .. .. ....|... .. .. ....|D-2 .. .. ....|A-5 .. .. ....|... .. .. ....|... .. .. ....|... .. .. ....|C-3 00 .. ....|C-3 00 .. ....|C-3 .. .. ....|... .. .. ....|... .. .. ....|... .. .. ....
05 |... .. .. ....|... .. .. ....|... .. .. ....|... .. .. ....|... .. .. ....|... .. .. ....|... .. .. ....|... .. .. ....|... .. .. ....|... .. .. ....|... .. .. ....|... .. .. ....|C-3 .. .. ....|... .. .. ....|... .. .. ....|... .. .. ....
06 |... .. .. ....|... .. .. ....|... .. .. ....|... .. .. ....|... .. .. ....|D-3 .. .. ....|OFF .. .. ....|... .. .. ....|... .. .. ....|... .. .. ....|... .. .. ....|... .. .. ....|C-3 .. .. ....|... .. .. ....|... .. .. ....|... .. .. ....
07 |... .. .. ....|... .. .. ....|... .. .. ....|... .. .. ....|... .. .. ....|D-3 .. .. ....|... .. .. ....|... .. .. ....|... .. .. ....|... .. .. ....|... .. .. ....|... .. .. ....|C-3 .. .. ....|... .. .. ....|... .. .. ....|... .. .. ....
08 |E-4 .. .. ....|... .. .. ....|... .. .. ....|... .. .. ....|... .. .. ....|D-2 .. .. ....|E-5 .. .. ....|... .. .. ....|... .. .. ....|C-3 00 .. ....|... .. .. ....|... .. .. ....|C-3 .. .. ....|... .. .. ....|... .. .. ....|... .. .. ....
09 |... .. .. ....|... .. .. ....|... .. .. ....|... .. .. ....|... .. .. ....|... .. .. ....|... .. .. ....|... .. .. ....|... .. .. ....|... .. .. ....|... .. .. ....|... .. .. ....|C-3 .. .. ....|... .. .. ....|... .. .. ....|... .. .. ....
0A |... .. .. ....|... .. .. ....|... .. .. ....|... .. .. ....|... .. .. ....|D-3 .. .. ....|OFF .. .. ....|... .. .. ....|... .. .. ....|... .. .. ....|... .. .. ....|... .. .. ....|C-3 .. .. ....|... .. .. ....|... .. .. ....|... .. .. ....
0B |... .. .. ....|... .. .. ....|... .. .. ....|... .. .. ....|... .. .. ....|D-3 .. .. ....|... .. .. ....|... .. .. ....|... .. .. ....|... .. .. ....|... .. .. ....|... .. .. ....|C-3 .. .. ....|... .. .. ....|... .. .. ....|... .. .. ....
0C |A-4 .. .. ....|... .. .. ....|... .. .. ....|... .. .. ....|... .. .. ....|D-2 .. .. ....|A-5 .. .. ....|... .. .. ....|... .. .. ....|... .. .. ....|C-3 00 .. ....|C-3 00 .. ....|C-3 .. .. ....|... .. .. ....|... .. .. ....|... .. .. ....
0D |... .. .. ....|... .. .. ....|... .. .. ....|... .. .. ....|... .. .. ....|... .. .. ....|... .. .. ....|... .. .. ....|... .. .. ....|... .. .. ....|... .. .. ....|... .. .. ....|C-3 .. .. ....|... .. .. ....|... .. .. ....|... .. .. ....
0E |... .. .. ....|... .. .. ....|... .. .. ....|... .. .. ....|... .. .. ....|D-3 .. .. ....|OFF .. .. ....|... .. .. ....|... .. .. ....|... .. .. ....|... .. .. ....|... .. .. ....|C-3 .. .. ....|... .. .. ....|... .. .. ....|... .. .. ....
0F |... .. .. ....|... .. .. ....|... .. .. ....|... .. .. ....|... .. .. ....|D-3 .. .. ....|... .. .. ....|... .. .. ....|... .. .. ....|... .. .. ....|... .. .. ....|... .. .. ....|C-3 .. .. ....|... .. .. ....|... .. .. ....|... .. .. ....
10 |F-4 .. .. ....|... .. .. ....|... .. .. ....|... .. .. ....|... .. .. ....|D-2 .. .. ....|F-5 .. .. ....|... .. .. ....|... .. .. ....|C-3 00 .. ....|... .. .. ....|... .. .. ....|C-3 .. .. ....|... .. .. ....|... .. .. ....|... .. .. ....
11 |... .. .. ....|... .. .. ....|... .. .. ....|... .. .. ....|... .. .. ....|... .. .. ....|... .. .. ....|... .. .. ....|... .. .. ....|... .. .. ....|... .. .. ....|... .. .. ....|C-3 .. .. ....|... .. .. ....|... .. .. ....|... .. .. ....
12 |... .. .. ....|... .. .. ....|... .. .. ....|... .. .. ....|... .. .. ....|D-3 .. .. ....|OFF .. .. ....|... .. .. ....|... .. .. ....|... .. .. ....|... .. .. ....|... .. .. ....|C-3 .. .. ....|... .. .. ....|... .. .. ....|... .. .. ....
13 |... .. .. ....|... .. .. ....|... .. .. ....|... .. .. ....|... .. .. ....|D-3 .. .. ....|... .. .. ....|... .. .. ....|... .. .. ....|... .. .. ....|... .. .. ....|... .. .. ....|C-3 .. .. ....|... .. .. ....|... .. .. ....|... .. .. ....
14 |A-4 .. .. ....|... .. .. ....|... .. .. ....|... .. .. ....|... .. .. ....|D-2 .. .. ....|A-5 .. .. ....|... .. .. ....|... .. .. ....|... .. .. ....|C-3 00 .. ....|C-3 00 .. ....|C-3 .. .. ....|... .. .. ....|... .. .. ....|... .. .. ....
15 |... .. .. ....|... .. .. ....|... .. .. ....|... .. .. ....|... .. .. ....|... .. .. ....|... .. .. ....|... .. .. ....|... .. .. ....|... .. .. ....|... .. .. ....|... .. .. ....|C-3 .. .. ....|... .. .. ....|... .. .. ....|... .. .. ....
16 |... .. .. ....|... .. .. ....|... .. .. ....|... .. .. ....|... .. .. ....|D-3 .. .. ....|OFF .. .. ....|... .. .. ....|... .. .. ....|... .. .. ....|... .. .. ....|... .. .. ....|C-3 .. .. ....|... .. .. ....|... .. .. ....|... .. .. ....
17 |... .. .. ....|... .. .. ....|... .. .. ....|... .. .. ....|... .. .. ....|D-3 .. .. ....|... .. .. ....|... .. .. ....|... .. .. ....|... .. .. ....|... .. .. ....|... .. .. ....|C-3 .. .. ....|... .. .. ....|... .. .. ....|... .. .. ....
18 |E-4 .. .. ....|... .. .. ....|... .. .. ....|... .. .. ....|... .. .. ....|D-2 .. .. ....|E-5 .. .. ....|... .. .. ....|... .. .. ....|C-3 00 .. ....|... .. .. ....|... .. .. ....|C-3 .. .. ....|... .. .. ....|... .. .. ....|... .. .. ....
19 |... .. .. ....|... .. .. ....|... .. .. ....|... .. .. ....|... .. .. ....|... .. .. ....|... .. .. ....|... .. .. ....|... .. .. ....|... .. .. ....|... .. .. ....|... .. .. ....|C-3 .. .. ....|... .. .. ....|... .. .. ....|... .. .. ....
1A |... .. .. ....|... .. .. ....|... .. .. ....|... .. .. ....|... .. .. ....|D-3 .. .. ....|OFF .. .. ....|... .. .. ....|... .. .. ....|... .. .. ....|... .. .. ....|... .. .. ....|C-3 .. .. ....|... .. .. ....|... .. .. ....|... .. .. ....
1B |... .. .. ....|... .. .. ....|... .. .. ....|... .. .. ....|... .. .. ....|D-3 .. .. ....|... .. .. ....|... .. .. ....|... .. .. ....|... .. .. ....|... .. .. ....|... .. .. ....|C-3 .. .. ....|... .. .. ....|... .. .. ....|... .. .. ....
1C |A-4 .. .. ....|... .. .. ....|... .. .. ....|... .. .. ....|... .. .. ....|D-2 .. .. ....|A-5 .. .. ....|... .. .. ....|... .. .. ....|... .. .. ....|C-3 00 .. ....|C-3 00 .. ....|C-3 .. .. ....|... .. .. ....|... .. .. ....|... .. .. ....
1D |... .. .. ....|... .. .. ....|... .. .. ....|... .. .. ....|... .. .. ....|... .. .. ....|... .. .. ....|... .. .. ....|... .. .. ....|... .. .. ....|... .. .. ....|... .. .. ....|C-3 .. .. ....|... .. .. ....|... .. .. ....|... .. .. ....
1E |... .. .. ....|... .. .. ....|... .. .. ....|... .. .. ....|... .. .. ....|D-3 .. .. ....|OFF .. .. ....|... .. .. ....|... .. .. ....|... .. .. ....|... .. .. ....|... .. .. ....|C-3 .. .. ....|... .. .. ....|... .. .. ....|... .. .. ....
1F |... .. .. ....|... .. .. ....|... .. .. ....|... .. .. ....|... .. .. ....|D-3 .. .. ....|... .. .. ....|... .. .. ....|... .. .. ....|... .. .. ....|... .. .. ....|... .. .. ....|C-3 .. .. ....|... .. .. ....|... .. .. ....|... .. .. ....
20 |D-4 .. .. ....|... .. .. ....|... .. .. ....|... .. .. ....|... .. .. ....|D-2 .. .. ....|D-5 .. .. ....|... .. .. ....|... .. .. ....|C-3 00 .. ....|... .. .. ....|... .. .. ....|C-3 .. .. ....|... .. .. ....|... .. .. ....|... .. .. ....
21 |... .. .. ....|... .. .. ....|... .. .. ....|... .. .. ....|... .. .. ....|... .. .. ....|... .. .. ....|... .. .. ....|... .. .. ....|... .. .. ....|... .. .. ....|... .. .. ....|C-3 .. .. ....|... .. .. ....|... .. .. ....|... .. .. ....
22 |... .. .. ....|... .. .. ....|... .. .. ....|... .. .. ....|... .. .. ....|D-3 .. .. ....|OFF .. .. ....|... .. .. ....|... .. .. ....|... .. .. ....|... .. .. ....|... .. .. ....|C-3 .. .. ....|... .. .. ....|... .. .. ....|... .. .. ....
23 |... .. .. ....|... .. .. ....|... .. .. ....|... .. .. ....|... .. .. ....|D-3 .. .. ....|... .. .. ....|... .. .. ....|... .. .. ....|... .. .. ....|... .. .. ....|... .. .. ....|C-3 .. .. ....|... .. .. ....|... .. .. ....|... .. .. ....
24 |A-4 .. .. ....|... .. .. ....|... .. .. ....|... .. .. ....|... .. .. ....|D-2 .. .. ....|A-5 .. .. ....|... .. .. ....|... .. .. ....|... .. .. ....|C-3 00 .. ....|C-3 00 .. ....|C-3 .. .. ....|... .. .. ....|... .. .. ....|... .. .. ....
25 |... .. .. ....|... .. .. ....|... .. .. ....|... .. .. ....|... .. .. ....|... .. .. ....|... .. .. ....|... .. .. ....|... .. .. ....|... .. .. ....|... .. .. ....|... .. .. ....|C-3 .. .. ....|... .. .. ....|... .. .. ....|... .. .. ....
26 |... .. .. ....|... .. .. ....|... .. .. ....|... .. .. ....|... .. .. ....|D-3 .. .. ....|OFF .. .. ....|... .. .. ....|... .. .. ....|... .. .. ....|... .. .. ....|... .. .. ....|C-3 .. .. ....|... .. .. ....|... .. .. ....|... .. .. ....
27 |... .. .. ....|... .. .. ....|... .. .. ....|... .. .. ....|... .. .. ....|D-3 .. .. ....|... .. .. ....|... .. .. ....|... .. .. ....|... .. .. ....|... .. .. ....|... .. .. ....|C-3 .. .. ....|... .. .. ....|... .. .. ....|... .. .. ....
28 |E-4 .. .. ....|... .. .. ....|... .. .. ....|... .. .. ....|... .. .. ....|D-2 .. .. ....|E-5 .. .. ....|... .. .. ....|... .. .. ....|C-3 00 .. ....|... .. .. ....|... .. .. ....|C-3 .. .. ....|... .. .. ....|... .. .. ....|... .. .. ....
29 |... .. .. ....|... .. .. ....|... .. .. ....|... .. .. ....|... .. .. ....|... .. .. ....|... .. .. ....|... .. .. ....|... .. .. ....|... .. .. ....|... .. .. ....|... .. .. ....|C-3 .. .. ....|... .. .. ....|... .. .. ....|... .. .. ....
2A |... .. .. ....|... .. .. ....|... .. .. ....|... .. .. ....|... .. .. ....|D-3 .. .. ....|OFF .. .. ....|... .. .. ....|... .. .. ....|... .. .. ....|... .. .. ....|... .. .. ....|C-3 .. .. ....|... .. .. ....|... .. .. ....|... .. .. ....
2B |... .. .. ....|... .. .. ....|... .. .. ....|... .. .. ....|... .. .. ....|D-3 .. .. ....|... .. .. ....|... .. .. ....|... .. .. ....|... .. .. ....|... .. .. ....|... .. .. ....|C-3 .. .. ....|... .. .. ....|... .. .. ....|... .. .. ....
2C |A-4 .. .. ....|... .. .. ....|... .. .. ....|... .. .. ....|... .. .. ....|D-2 .. .. ....|A-5 .. .. ....|... .. .. ....|... .. .. ....|... .. .. ....|C-3 00 .. ....|C-3 00 .. ....|C-3 .. .. ....|... .. .. ....|... .. .. ....|... .. .. ....
2D |... .. .. ....|... .. .. ....|... .. .. ....|... .. .. ....|... .. .. ....|... .. .. ....|... .. .. ....|... .. .. ....|... .. .. ....|... .. .. ....|... .. .. ....|... .. .. ....|C-3 .. .. ....|... .. .. ....|... .. .. ....|... .. .. ....
2E |... .. .. ....|... .. .. ....|... .. .. ....|... .. .. ....|... .. .. ....|D-3 .. .. ....|OFF .. .. ....|... .. .. ....|... .. .. ....|... .. .. ....|... .. .. ....|... .. .. ....|C-3 .. .. ....|... .. .. ....|... .. .. ....|... .. .. ....
2F |... .. .. ....|... .. .. ....|... .. .. ....|... .. .. ....|... .. .. ....|D-3 .. .. ....|... .. .. ....|... .. .. ....|... .. .. ....|... .. .. ....|... .. .. ....|... .. .. ....|C-3 .. .. ....|... .. .. ....|... .. .. ....|... .. .. ....
30 |F-4 .. .. ....|... .. .. ....|... .. .. ....|... .. .. ....|... .. .. ....|D-2 .. .. ....|F-5 .. .. ....|... .. .. ....|... .. .. ....|C-3 00 .. ....|... .. .. ....|... .. .. ....|C-3 .. .. ....|... .. .. ....|... .. .. ....|... .. .. ....
31 |... .. .. ....|... .. .. ....|... .. .. ....|... .. .. ....|... .. .. ....|... .. .. ....|... .. .. ....|... .. .. ....|... .. .. ....|... .. .. ....|... .. .. ....|... .. .. ....|C-3 .. .. ....|... .. .. ....|... .. .. ....|... .. .. ....
32 |... .. .. ....|... .. .. ....|... .. .. ....|... .. .. ....|... .. .. ....|D-3 .. .. ....|OFF .. .. ....|... .. .. ....|... .. .. ....|... .. .. ....|... .. .. ....|... .. .. ....|C-3 .. .. ....|... .. .. ....|... .. .. ....|... .. .. ....
33 |... .. .. ....|... .. .. ....|... .. .. ....|... .. .. ....|... .. .. ....|D-3 .. .. ....|... .. .. ....|... .. .. ....|... .. .. ....|... .. .. ....|... .. .. ....|... .. .. ....|C-3 .. .. ....|... .. .. ....|... .. .. ....|... .. .. ....
34 |G-4 .. .. ....|... .. .. ....|... .. .. ....|... .. .. ....|... .. .. ....|D-2 .. .. ....|G-5 .. .. ....|... .. .. ....|... .. .. ....|... .. .. ....|C-3 00 .. ....|C-3 00 .. ....|C-3 .. .. ....|... .. .. ....|... .. .. ....|... .. .. ....
35 |... .. .. ....|... .. .. ....|... .. .. ....|... .. .. ....|... .. .. ....|... .. .. ....|... .. .. ....|... .. .. ....|... .. .. ....|... .. .. ....|... .. .. ....|... .. .. ....|C-3 .. .. ....|... .. .. ....|... .. .. ....|... .. .. ....
36 |A-4 .. .. ....|... .. .. ....|... .. .. ....|... .. .. ....|... .. .. ....|D-3 .. .. ....|A-5 .. .. ....|... .. .. ....|... .. .. ....|... .. .. ....|... .. .. ....|... .. .. ....|C-3 .. .. ....|... .. .. ....|... .. .. ....|... .. .. ....
37 |... .. .. ....|... .. .. ....|... .. .. ....|... .. .. ....|... .. .. ....|D-3 .. .. ....|... .. .. ....|... .. .. ....|... .. .. ....|... .. .. ....|... .. .. ....|... .. .. ....|C-3 .. .. ....|... .. .. ....|... .. .. ....|... .. .. ....
38 |G-4 .. .. ....|... .. .. ....|... .. .. ....|... .. .. ....|... .. .. ....|D-2 .. .. ....|G-5 .. .. ....|... .. .. ....|... .. .. ....|C-3 00 .. ....|... .. .. ....|... .. .. ....|C-3 .. .. ....|... .. .. ....|... .. .. ....|... .. .. ....
39 |... .. .. ....|... .. .. ....|... .. .. ....|... .. .. ....|... .. .. ....|... .. .. ....|... .. .. ....|... .. .. ....|... .. .. ....|... .. .. ....|... .. .. ....|... .. .. ....|C-3 .. .. ....|... .. .. ....|... .. .. ....|... .. .. ....
3A |F-4 .. .. ....|... .. .. ....|... .. .. ....|... .. .. ....|... .. .. ....|D-3 .. .. ....|F-5 .. .. ....|... .. .. ....|... .. .. ....|... .. .. ....|... .. .. ....|... .. .. ....|C-3 .. .. ....|... .. .. ....|... .. .. ....|... .. .. ....
3B |... .. .. ....|... .. .. ....|... .. .. ....|... .. .. ....|... .. .. ....|D-3 .. .. ....|... .. .. ....|... .. .. ....|... .. .. ....|... .. .. ....|... .. .. ....|... .. .. ....|C-3 .. .. ....|... .. .. ....|... .. .. ....|... .. .. ....
3C |E-4 .. .. ....|... .. .. ....|... .. .. ....|... .. .. ....|... .. .. ....|D-2 .. .. ....|E-5 .. .. ....|... .. .. ....|... .. .. ....|... .. .. ....|C-3 00 .. ....|C-3 00 .. ....|C-3 .. .. ....|... .. .. ....|... .. .. ....|... .. .. ....
3D |... .. .. ....|... .. .. ....|... .. .. ....|... .. .. ....|... .. .. ....|... .. .. ....|... .. .. ....|... .. .. ....|... .. .. ....|... .. .. ....|... .. .. ....|... .. .. ....|C-3 .. .. ....|... .. .. ....|... .. .. ....|... .. .. ....
3E |C-4 .. .. ....|... .. .. ....|... .. .. ....|... .. .. ....|... .. .. ....|D-3 .. .. ....|C-5 .. .. ....|... .. .. ....|... .. .. ....|... .. .. ....|... .. .. ....|... .. .. ....|C-3 .. .. ....|... .. .. ....|... .. .. ....|... .. .. ....
3F |... .. .. ....|... .. .. ....|... .. .. ....|... .. .. ....|... .. .. ....|D-3 .. .. ....|... .. .. ....|... .. .. ....|... .. .. ....|... .. .. ....|... .. .. ....|... .. .. ....|C-3 .. .. ....|... .. .. ....|... .. .. ....|... .. .. ....
----- ORDER 04
00 |D-4 .. .. ....|A#4 .. .. ....|D-5 06 .. ....|A#3 .. .. ....|F-4 .. .. ....|A#1 .. .. ....|D-5 .. .. ....|... .. .. ....|... .. .. ....|C-3 00 .. ....|... .. .. ....|... .. .. ....|C-3 .. .. ....|... .. .. ....|... .. .. ....|... .. .. ....
01 |... .. .. ....|... .. .. ....|... .. .. ....|... .. .. ....|... .. .. ....|... .. .. ....|... .. .. ....|... .. .. ....|... .. .. ....|... .. .. ....|... .. .. ....|... .. .. ....|C-3 .. .. ....|... .. .. ....|... .. .. ....|... .. .. ....
02 |... .. .. ....|... .. .. ....|... .. .. ....|... .. .. ....|... .. .. ....|A#2 .. .. ....|OFF .. .. ....|... .. .. ....|... .. .. ....|... .. .. ....|... .. .. ....|... .. .. ....|C-3 .. .. ....|... .. .. ....|... .. .. ....|... .. .. ....
03 |... .. .. ....|... .. .. ....|... .. .. ....|... .. .. ....|... .. .. ....|A#2 .. .. ....|... .. .. ....|... .. .. ....|... .. .. ....|... .. .. ....|... .. .. ....|... .. .. ....|C-3 .. .. ....|... .. .. ....|... .. .. ....|... .. .. ....
04 |A-4 .. .. ....|... .. .. ....|... .. .. ....|... .. .. ....|... .. .. ....|A#1 .. .. ....|A-5 .. .. ....|... .. .. ....|... .. .. ....|... .. .. ....|C-3 00 .. ....|C-3 00 .. ....|C-3 .. .. ....|... .. .. ....|... .. .. ....|... .. .. ....
05 |... .. .. ....|... .. .. ....|... .. .. ....|... .. .. ....|... .. .. ....|... .. .. ....|... .. .. ....|... .. .. ....|... .. .. ....|... .. .. ....|... .. .. ....|... .. .. ....|C-3 .. .. ....|... .. .. ....|... .. .. ....|... .. .. ....
06 |... .. .. ....|... .. .. ....|... .. .. ....|... .. .. ....|... .. .. ....|A#2 .. .. ....|OFF .. .. ....|... .. .. ....|... .. .. ....|... .. .. ....|... .. .. ....|... .. .. ....|C-3 .. .. ....|... .. .. ....|... .. .. ....|... .. .. ....
07 |... .. .. ....|... .. .. ....|... .. .. ....|... .. .. ....|... .. .. ....|A#2 .. .. ....|... .. .. ....|... .. .. ....|... .. .. ....|... .. .. ....|... .. .. ....|... .. .. ....|C-3 .. .. ....|... .. .. ....|... .. .. ....|... .. .. ....
08 |E-4 .. .. ....|... .. .. ....|... .. .. ....|... .. .. ....|... .. .. ....|A#1 .. .. ....|E-5 .. .. ....|... .. .. ....|... .. .. ....|C-3 00 .. ....|... .. .. ....|... .. .. ....|C-3 .. .. ....|... .. .. ....|... .. .. ....|... .. .. ....
09 |... .. .. ....|... .. .. ....|... .. .. ....|... .. .. ....|... .. .. ....|... .. .. ....|... .. .. ....|... .. .. ....|... .. .. ....|... .. .. ....|... .. .. ....|... .. .. ....|C-3 .. .. ....|... .. .. ....|... .. .. ....|... .. .. ....
0A |... .. .. ....|... .. .. ....|... .. .. ....|... .. .. ....|... .. .. ....|A#2 .. .. ....|OFF .. .. ....|... .. .. ....|... .. .. ....|... .. .. ....|... .. .. ....|... .. .. ....|C-3 .. .. ....|... .. .. ....|... .. .. ....|... .. .. ....
0B |... .. .. ....|... .. .. ....|... .. .. ....|... .. .. ....|... .. .. ....|A#2 .. .. ....|... .. .. ....|... .. .. ....|... .. .. ....|... .. .. ....|... .. .. ....|... .. .. ....|C-3 .. .. ....|... .. .. ....|... .. .. ....|... .. .. ....
0C |A-4 .. .. ....|... .. .. ....|... .. .. ....|... .. .. ....|... .. .. ....|A#1 .. .. ....|A-5 .. .. ....|... .. .. ....|... .. .. ....|... .. .. ....|C-3 00 .. ....|C-3 00 .. ....|C-3 .. .. ....|... .. .. ....|... .. .. ....|... .. .. ....
0D |... .. .. ....|... .. .. ....|... .. .. ....|... .. .. ....|... .. .. ....|... .. .. ....|... .. .. ....|... .. .. ....|... .. .. ....|... .. .. ....|... .. .. ....|... .. .. ....|C-3 .. .. ....|... .. .. ....|... .. .. ....|... .. .. ....
0E |... .. .. ....|... .. .. ....|... .. .. ....|... .. .. ....|... .. .. ....|A#2 .. .. ....|OFF .. .. ....|... .. .. ....|... .. .. ....|... .. .. ....|... .. .. ....|... .. .. ....|C-3 .. .. ....|... .. .. ....|... .. .. ....|... .. .. ....
0F |... .. .. ....|... .. .. ....|... .. .. ....|... .. .. ....|... .. .. ....|A#2 .. .. ....|... .. .. ....|... .. .. ....|... .. .. ....|... .. .. ....|... .. .. ....|... .. .. ....|C-3 .. .. ....|... .. .. ....|... .. .. ....|... .. .. ....
10 |F-4 .. .. ....|... .. .. ....|... .. .. ....|... .. .. ....|... .. .. ....|A#1 .. .. ....|F-5 .. .. ....|... .. .. ....|... .. .. ....|C-3 00 .. ....|... .. .. ....|... .. .. ....|C-3 .. .. ....|... .. .. ....|... .. .. ....|... .. .. ....
11 |... .. .. ....|... .. .. ....|... .. .. ....|... .. .. ....|... .. .. ....|... .. .. ....|... .. .. ....|... .. .. ....|... .. .. ....|... .. .. ....|... .. .. ....|... .. .. ....|C-3 .. .. ....|... .. .. ....|... .. .. ....|... .. .. ....
12 |... .. .. ....|... .. .. ....|... .. .. ....|... .. .. ....|... .. .. ....|A#2 .. .. ....|OFF .. .. ....|... .. .. ....|... .. .. ....|... .. .. ....|... .. .. ....|... .. .. ....|C-3 .. .. ....|... .. .. ....|... .. .. ....|... .. .. ....
13 |... .. .. ....|... .. .. ....|... .. .. ....|... .. .. ....|... .. .. ....|A#2 .. .. ....|... .. .. ....|... .. .. ....|... .. .. ....|... .. .. ....|... .. .. ....|... .. .. ....|C-3 .. .. ....|... .. .. ....|... .. .. ....|... .. .. ....
14 |A-4 .. .. ....|... .. .. ....|... .. .. ....|... .. .. ....|... .. .. ....|A#1 .. .. ....|A-5 .. .. ....|... .. .. ....|... .. .. ....|... .. .. ....|C-3 00 .. ....|C-3 00 .. ....|C-3 .. .. ....|... .. .. ....|... .. .. ....|... .. .. ....
15 |... .. .. ....|... .. .. ....|... .. .. ....|... .. .. ....|... .. .. ....|... .. .. ....|... .. .. ....|... .. .. ....|... .. .. ....|... .. .. ....|... .. .. ....|... .. .. ....|C-3 .. .. ....|... .. .. ....|... .. .. ....|... .. .. ....
16 |... .. .. ....|... .. .. ....|... .. .. ....|... .. .. ....|... .. .. ....|A#2 .. .. ....|OFF .. .. ....|... .. .. ....|... .. .. ....|... .. .. ....|... .. .. ....|... .. .. ....|C-3 .. .. ....|... .. .. ....|... .. .. ....|... .. .. ....
17 |... .. .. ....|... .. .. ....|... .. .. ....|... .. .. ....|... .. .. ....|A#2 .. .. ....|... .. .. ....|... .. .. ....|... .. .. ....|... .. .. ....|... .. .. ....|... .. .. ....|C-3 .. .. ....|... .. .. ....|... .. .. ....|... .. .. ....
18 |E-4 .. .. ....|... .. .. ....|... .. .. ....|... .. .. ....|... .. .. ....|A#1 .. .. ....|E-5 .. .. ....|... .. .. ....|... .. .. ....|C-3 00 .. ....|... .. .. ....|... .. .. ....|C-3 .. .. ....|... .. .. ....|... .. .. ....|... .. .. ....
19 |... .. .. ....|... .. .. ....|... .. .. ....|... .. .. ....|... .. .. ....|... .. .. ....|... .. .. ....|... .. .. ....|... .. .. ....|... .. .. ....|... .. .. ....|... .. .. ....|C-3 .. .. ....|... .. .. ....|... .. .. ....|... .. .. ....
1A |... .. .. ....|... .. .. ....|... .. .. ....|... .. .. ....|... .. .. ....|A#2 .. .. ....|OFF .. .. ....|... .. .. ....|... .. .. ....|... .. .. ....|... .. .. ....|... .. .. ....|C-3 .. .. ....|... .. .. ....|... .. .. ....|... .. .. ....
1B |... .. .. ....|... .. .. ....|... .. .. ....|... .. .. ....|... .. .. ....|A#2 .. .. ....|... .. .. ....|... .. .. ....|... .. .. ....|... .. .. ....|... .. .. ....|... .. .. ....|C-3 .. .. ....|... .. .. ....|... .. .. ....|... .. .. ....
1C |A-4 .. .. ....|... .. .. ....|... .. .. ....|... .. .. ....|... .. .. ....|A#1 .. .. ....|A-5 .. .. ....|... .. .. ....|... .. .. ....|... .. .. ....|C-3 00 .. ....|C-3 00 .. ....|C-3 .. .. ....|... .. .. ....|... .. .. ....|... .. .. ....
1D |... .. .. ....|... .. .. ....|... .. .. ....|... .. .. ....|... .. .. ....|... .. .. ....|... .. .. ....|... .. .. ....|... .. .. ....|... .. .. ....|... .. .. ....|... .. .. ....|C-3 .. .. ....|... .. .. ....|... .. .. ....|... .. .. ....
1E |... .. .. ....|... .. .. ....|... .. .. ....|... .. .. ....|... .. .. ....|A#2 .. .. ....|OFF .. .. ....|... .. .. ....|... .. .. ....|... .. .. ....|... .. .. ....|... .. .. ....|C-3 .. .. ....|... .. .. ....|... .. .. ....|... .. .. ....
1F |... .. .. ....|... .. .. ....|... .. .. ....|... .. .. ....|... .. .. ....|A#2 .. .. ....|... .. .. ....|... .. .. ....|... .. .. ....|... .. .. ....|... .. .. ....|... .. .. ....|C-3 .. .. ....|... .. .. ....|... .. .. ....|... .. .. ....
20 |D-4 .. .. ....|C-5 .. .. ....|E-5 .. .. ....|C-4 .. .. ....|G-4 .. .. ....|C-2 .. .. ....|D-5 .. .. ....|... .. .. ....|... .. .. ....|C-3 00 .. ....|... .. .. ....|... .. .. ....|C-3 .. .. ....|... .. .. ....|... .. .. ....|... .. .. ....
21 |... .. .. ....|... .. .. ....|... .. .. ....|... .. .. ....|... .. .. ....|... .. .. ....|... .. .. ....|... .. .. ....|... .. .. ....|... .. .. ....|... .. .. ....|... .. .. ....|C-3 .. .. ....|... .. .. ....|... .. .. ....|... .. .. ....
22 |... .. .. ....|... .. .. ....|... .. .. ....|... .. .. ....|... .. .. ....|C-3 .. .. ....|OFF .. .. ....|... .. .. ....|... .. .. ....|... .. .. ....|... .. .. ....|... .. .. ....|C-3 .. .. ....|... .. .. ....|... .. .. ....|... .. .. ....
23 |... .. .. ....|... .. .. ....|... .. .. ....|... .. .. ....|... .. .. ....|C-3 .. .. ....|... .. .. ....|... .. .. ....|... .. .. ....|... .. .. ....|... .. .. ....|... .. .. ....|C-3 .. .. ....|... .. .. ....|... .. .. ....|... .. .. ....
24 |A-4 .. .. ....|... .. .. ....|... .. .. ....|... .. .. ....|... .. .. ....|C-2 .. .. ....|A-5 .. .. ....|... .. .. ....|... .. .. ....|... .. .. ....|C-3 00 .. ....|C-3 00 .. ....|C-3 .. .. ....|... .. .. ....|... .. .. ....|... .. .. ....
25 |... .. .. ....|... .. .. ....|... .. .. ....|... .. .. ....|... .. .. ....|... .. .. ....|... .. .. ....|... .. .. ....|... .. .. ....|... .. .. ....|... .. .. ....|... .. .. ....|C-3 .. .. ....|... .. .. ....|... .. .. ....|... .. .. ....
26 |... .. .. ....|... .. .. ....|... .. .. ....|... .. .. ....|... .. .. ....|C-3 .. .. ....|OFF .. .. ....|... .. .. ....|... .. .. ....|... .. .. ....|... .. .. ....|... .. .. ....|C-3 .. .. ....|... .. .. ....|... .. .. ....|... .. .. ....
27 |... .. .. ....|... .. .. ....|... .. .. ....|... .. .. ....|... .. .. ....|C-3 .. .. ....|... .. .. ....|... .. .. ....|... .. .. ....|... .. .. ....|... .. .. ....|... .. .. ....|C-3 .. .. ....|... .. .. ....|... .. .. ....|... .. .. ....
28 |E-4 .. .. ....|... .. .. ....|... .. .. ....|... .. .. ....|... .. .. ....|C-2 .. .. ....|E-5 .. .. ....|... .. .. ....|... .. .. ....|C-3 00 .. ....|... .. .. ....|... .. .. ....|C-3 .. .. ....|... .. .. ....|... .. .. ....|... .. .. ....
29 |... .. .. ....|... .. .. ....|... .. .. ....|... .. .. ....|... .. .. ....|... .. .. ....|... .. .. ....|... .. .. ....|... .. .. ....|... .. .. ....|... .. .. ....|... .. .. ....|C-3 .. .. ....|... .. .. ....|... .. .. ....|... .. .. ....
2A |... .. .. ....|... .. .. ....|... .. .. ....|... .. .. ....|... .. .. ....|C-3 .. .. ....|OFF .. .. ....|... .. .. ....|... .. .. ....|... .. .. ....|... .. .. ....|... .. .. ....|C-3 .. .. ....|... .. .. ....|... .. .. ....|... .. .. ....
2B |... .. .. ....|... .. .. ....|... .. .. ....|... .. .. ....|... .. .. ....|C-3 .. .. ....|... .. .. ....|... .. .. ....|... .. .. ....|... .. .. ....|... .. .. ....|... .. .. ....|C-3 .. .. ....|... .. .. ....|... .. .. ....|... .. .. ....
2C |A-4 .. .. ....|... .. .. ....|... .. .. ....|... .. .. ....|... .. .. ....|C-2 .. .. ....|A-5 .. .. ....|... .. .. ....|... .. .. ....|... .. .. ....|C-3 00 .. ....|C-3 00 .. ....|C-3 .. .. ....|... .. .. ....|... .. .. ....|... .. .. ....
2D |... .. .. ....|... .. .. ....|... .. .. ....|... .. .. ....|... .. .. ....|... .. .. ....|... .. .. ....|... .. .. ....|... .. .. ....|... .. .. ....|... .. .. ....|... .. .. ....|C-3 .. .. ....|... .. .. ....|... .. .. ....|... .. .. ....
2E |... .. .. ....|... .. .. ....|... .. .. ....|... .. .. ....|... .. .. ....|C-3 .. .. ....|OFF .. .. ....|... .. .. ....|... .. .. ....|... .. .. ....|... .. .. ....|... .. .. ....|C-3 .. .. ....|... .. .. ....|... .. .. ....|... .. .. ....
2F |... .. .. ....|... .. .. ....|... .. .. ....|... .. .. ....|... .. .. ....|C-3 .. .. ....|... .. .. ....|... .. .. ....|... .. .. ....|... .. .. ....|... .. .. ....|... .. .. ....|C-3 .. .. ....|... .. .. ....|... .. .. ....|... .. .. ....
30 |F-4 .. .. ....|G-4 .. .. ....|C-5 .. .. ....|G-3 .. .. ....|E-4 .. .. ....|C-2 .. .. ....|F-5 .. .. ....|... .. .. ....|... .. .. ....|C-3 00 .. ....|... .. .. ....|... .. .. ....|C-3 .. .. ....|... .. .. ....|... .. .. ....|... .. .. ....
31 |... .. .. ....|... .. .. ....|... .. .. ....|... .. .. ....|... .. .. ....|... .. .. ....|... .. .. ....|... .. .. ....|... .. .. ....|... .. .. ....|... .. .. ....|... .. .. ....|C-3 .. .. ....|... .. .. ....|... .. .. ....|... .. .. ....
32 |... .. .. ....|... .. .. ....|... .. .. ....|... .. .. ....|... .. .. ....|C-3 .. .. ....|OFF .. .. ....|... .. .. ....|... .. .. ....|... .. .. ....|... .. .. ....|... .. .. ....|C-3 .. .. ....|... .. .. ....|... .. .. ....|... .. .. ....
33 |... .. .. ....|... .. .. ....|... .. .. ....|... .. .. ....|... .. .. ....|C-3 .. .. ....|... .. .. ....|... .. .. ....|... .. .. ....|... .. .. ....|... .. .. ....|... .. .. ....|C-3 .. .. ....|... .. .. ....|... .. .. ....|... .. .. ....
34 |G-4 .. .. ....|... .. .. ....|... .. .. ....|... .. .. ....|... .. .. ....|C-2 .. .. ....|G-5 .. .. ....|... .. .. ....|... .. .. ....|... .. .. ....|C-3 00 .. ....|C-3 00 .. ....|C-3 .. .. ....|... .. .. ....|... .. .. ....|... .. .. ....
35 |... .. .. ....|... .. .. ....|... .. .. ....|... .. .. ....|... .. .. ....|... .. .. ....|... .. .. ....|... .. .. ....|... .. .. ....|... .. .. ....|... .. .. ....|... .. .. ....|C-3 .. .. ....|... .. .. ....|... .. .. ....|... .. .. ....
36 |A-4 .. .. ....|... .. .. ....|... .. .. ....|... .. .. ....|... .. .. ....|C-3 .. .. ....|A-5 .. .. ....|... .. .. ....|... .. .. ....|... .. .. ....|... .. .. ....|... .. .. ....|C-3 .. .. ....|... .. .. ....|... .. .. ....|... .. .. ....
37 |... .. .. ....|... .. .. ....|... .. .. ....|... .. .. ....|... .. .. ....|C-3 .. .. ....|... .. .. ....|... .. .. ....|... .. .. ....|... .. .. ....|... .. .. ....|... .. .. ....|C-3 .. .. ....|... .. .. ....|... .. .. ....|... .. .. ....
38 |G-4 .. .. ....|... .. .. ....|... .. .. ....|... .. .. ....|... .. .. ....|C-2 .. .. ....|G-5 .. .. ....|... .. .. ....|... .. .. ....|C-3 00 .. ....|... .. .. ....|... .. .. ....|C-3 .. .. ....|... .. .. ....|... .. .. ....|... .. .. ....
39 |... .. .. ....|... .. .. ....|... .. .. ....|... .. .. ....|... .. .. ....|... .. .. ....|... .. .. ....|... .. .. ....|... .. .. ....|... .. .. ....|... .. .. ....|... .. .. ....|C-3 .. .. ....|... .. .. ....|... .. .. ....|... .. .. ....
3A |... .. .. ....|... .. .. ....|... .. .. ....|... .. .. ....|... .. .. ....|C-3 .. .. ....|OFF .. .. ....|... .. .. ....|... .. .. ....|... .. .. ....|... .. .. ....|... .. .. ....|C-3 .. .. ....|... .. .. ....|... .. .. ....|... .. .. ....
3B |... .. .. ....|... .. .. ....|... .. .. ....|... .. .. ....|... .. .. ....|C-3 .. .. ....|... .. .. ....|... .. .. ....|... .. .. ....|... .. .. ....|... .. .. ....|... .. .. ....|C-3 .. .. ....|... .. .. ....|... .. .. ....|... .. .. ....
3C |C-5 .. .. ....|... .. .. ....|... .. .. ....|... .. .. ....|... .. .. ....|C-2 .. .. ....|C-6 .. .. ....|... .. .. ....|... .. .. ....|... .. .. ....|C-3 00 .. ....|C-3 00 .. ....|C-3 .. .. ....|... .. .. ....|... .. .. ....|... .. .. ....
3D |... .. .. ....|... .. .. ....|... .. .. ....|... .. .. ....|... .. .. ....|... .. .. ....|... .. .. ....|... .. .. ....|... .. .. ....|... .. .. ....|... .. .. ....|... .. .. ....|C-3 .. .. ....|... .. .. ....|... .. .. ....|... .. .. ....
3E |... .. .. ....|... .. .. ....|... .. .. ....|... .. .. ....|... .. .. ....|C-3 .. .. ....|OFF .. .. ....|... .. .. ....|... .. .. ....|... .. .. ....|... .. .. ....|... .. .. ....|C-3 .. .. ....|... .. .. ....|... .. .. ....|... .. .. ....
3F |... .. .. ....|... .. .. ....|... .. .. ....|... .. .. ....|... .. .. ....|... .. .. ....|... .. .. ....|... .. .. ....|... .. .. ....|... .. .. ....|... .. .. ....|... .. .. ....|C-3 .. .. ....|... .. .. ....|... .. .. ....|... .. .. ....
----- ORDER 05
00 |OFF .. .. ....|F-4 .. .. ....|A-4 .. .. ....|F-3 .. .. ....|D-4 .. .. ....|D-2 .. .. ....|D-6 03 .. ....|OFF .. .. ....|... .. .. ....|... .. .. ....|... .. .. ....|C-3 01 .. ....|... .. .. ....|... .. .. ....|... .. .. ....|... .. .. ....
01 |... .. .. ....|... .. .. ....|... .. .. ....|... .. .. ....|... .. .. ....|... .. .. ....|A-5 .. .. ....|... .. .. ....|... .. .. ....|... .. .. ....|... .. .. ....|... .. .. ....|C-3 .. .. ....|... .. .. ....|... .. .. ....|... .. .. ....
02 |... .. .. ....|... .. .. ....|... .. .. ....|... .. .. ....|... .. .. ....|... .. .. ....|F-5 .. .. ....|... .. .. ....|... .. .. ....|... .. .. ....|... .. .. ....|C-3 02 .. ....|C-3 .. .. ....|... .. .. ....|... .. .. ....|... .. .. ....
03 |... .. .. ....|... .. .. ....|... .. .. ....|... .. .. ....|... .. .. ....|... .. .. ....|D-6 .. .. ....|... .. .. ....|... .. .. ....|... .. .. ....|... .. .. ....|... .. .. ....|C-3 .. .. ....|... .. .. ....|... .. .. ....|... .. .. ....
04 |... .. .. ....|... .. .. ....|... .. .. ....|... .. .. ....|... .. .. ....|... .. .. ....|A-5 .. .. ....|... .. .. ....|... .. .. ....|... .. .. ....|... .. .. ....|... .. .. ....|C-3 .. .. ....|... .. .. ....|... .. .. ....|... .. .. ....
05 |... .. .. ....|... .. .. ....|... .. .. ....|... .. .. ....|... .. .. ....|... .. .. ....|F-5 .. .. ....|... .. .. ....|... .. .. ....|... .. .. ....|... .. .. ....|C-3 02 .. ....|C-3 .. .. ....|... .. .. ....|... .. .. ....|... .. .. ....
06 |... .. .. ....|... .. .. ....|... .. .. ....|... .. .. ....|... .. .. ....|A-2 .. .. ....|D-6 .. .. ....|... .. .. ....|... .. .. ....|... .. .. ....|... .. .. ....|... .. .. ....|C-3 .. .. ....|... .. .. ....|... .. .. ....|... .. .. ....
07 |... .. .. ....|... .. .. ....|... .. .. ....|... .. .. ....|... .. .. ....|... .. .. ....|A-5 .. .. ....|... .. .. ....|... .. .. ....|... .. .. ....|... .. .. ....|... .. .. ....|C-3 .. .. ....|... .. .. ....|... .. .. ....|... .. .. ....
08 |... .. .. ....|... .. .. ....|... .. .. ....|... .. .. ....|... .. .. ....|... .. .. ....|F-5 .. .. ....|... .. .. ....|... .. .. ....|... .. .. ....|... .. .. ....|C-3 02 .. ....|C-3 .. .. ....|... .. .. ....|... .. .. ....|... .. .. ....
09 |... .. .. ....|... .. .. ....|... .. .. ....|... .. .. ....|... .. .. ....|... .. .. ....|D-6 .. .. ....|... .. .. ....|... .. .. ....|... .. .. ....|... .. .. ....|... .. .. ....|C-3 .. .. ....|... .. .. ....|... .. .. ....|... .. .. ....
0A |... .. .. ....|... .. .. ....|... .. .. ....|... .. .. ....|... .. .. ....|D-2 .. .. ....|A-5 .. .. ....|... .. .. ....|... .. .. ....|... .. .. ....|... .. .. ....|... .. .. ....|C-3 .. .. ....|... .. .. ....|... .. .. ....|... .. .. ....
0B |... .. .. ....|... .. .. ....|... .. .. ....|... .. .. ....|... .. .. ....|... .. .. ....|F-5 .. .. ....|... .. .. ....|... .. .. ....|... .. .. ....|... .. .. ....|C-2 02 .. ....|C-3 .. .. ....|... .. .. ....|... .. .. ....|... .. .. ....
0C |... .. .. ....|A-4 .. .. ....|C-5 .. .. ....|A-3 .. .. ....|E-4 .. .. ....|E-2 .. .. ....|C-6 .. .. ....|E-6 03 .. ....|... .. .. ....|... .. .. ....|... .. .. ....|C-3 01 .. ....|... .. .. ....|... .. .. ....|... .. .. ....|... .. .. ....
0D |... .. .. ....|... .. .. ....|... .. .. ....|... .. .. ....|... .. .. ....|... .. .. ....|OFF .. .. ....|OFF .. .. ....|... .. .. ....|... .. .. ....|... .. .. ....|... .. .. ....|... .. .. ....|... .. .. ....|... .. .. ....|... .. .. ....
0E |... .. .. ....|... .. .. ....|... .. .. ....|... .. .. ....|... .. .. ....|... .. .. ....|... .. .. ....|... .. .. ....|... .. .. ....|... .. .. ....|... .. .. ....|... .. .. ....|... .. .. ....|... .. .. ....|... .. .. ....|... .. .. ....
0F |... .. .. ....|... .. .. ....|... .. .. ....|... .. .. ....|... .. .. ....|... .. .. ....|C-6 .. .. ....|E-6 .. .. ....|... .. .. ....|... .. .. ....|... .. .. ....|C-3 01 .. ....|... .. .. ....|... .. .. ....|... .. .. ....|... .. .. ....
10 |... .. .. ....|... .. .. ....|... .. .. ....|... .. .. ....|... .. .. ....|... .. .. ....|OFF .. .. ....|OFF .. .. ....|... .. .. ....|C-3 .. .. ....|... .. .. ....|... .. .. ....|... .. .. ....|... .. .. ....|... .. .. ....|... .. .. ....
11 |... .. .. ....|... .. .. ....|... .. .. ....|... .. .. ....|... .. .. ....|... .. .. ....|... .. .. ....|... .. .. ....|... .. .. ....|... .. .. ....|... .. .. ....|... .. .. ....|... .. .. ....|... .. .. ....|... .. .. ....|... .. .. ....
12 |... .. .. ....|... .. .. ....|... .. .. ....|... .. .. ....|... .. .. ....|... .. .. ....|C-6 .. .. ....|E-6 .. .. ....|... .. .. ....|... .. .. ....|... .. .. ....|C-3 01 .. ....|... .. .. ....|... .. .. ....|... .. .. ....|... .. .. ....
13 |... .. .. ....|... .. .. ....|... .. .. ....|... .. .. ....|... .. .. ....|... .. .. ....|... .. .. ....|... .. .. ....|... .. .. ....|... .. .. ....|... .. .. ....|... .. .. ....|... .. .. ....|... .. .. ....|... .. .. ....|... .. .. ....
14 |... .. .. ....|A#4 .. .. ....|D-5 .. .. ....|A#3 .. .. ....|F-4 .. .. ....|A#1 .. .. ....|F-6 .. .. ....|OFF .. .. ....|... .. .. ....|... .. .. ....|... .. .. ....|C-3 01 .. ....|... .. .. ....|... .. .. ....|... .. .. ....|... .. .. ....
15 |... .. .. ....|... .. .. ....|... .. .. ....|... .. .. ....|... .. .. ....|... .. .. ....|D-6 .. .. ....|... .. .. ....|... .. .. ....|... .. .. ....|... .. .. ....|... .. .. ....|C-3 .. .. ....|... .. .. ....|... .. .. ....|... .. .. ....
16 |... .. .. ....|... .. .. ....|... .. .. ....|... .. .. ....|... .. .. ....|... .. .. ....|A-5 .. .. ....|... .. .. ....|... .. .. ....|... .. .. ....|... .. .. ....|C-3 02 .. ....|C-3 .. .. ....|... .. .. ....|... .. .. ....|... .. .. ....
17 |... .. .. ....|... .. .. ....|... .. .. ....|... .. .. ....|... .. .. ....|... .. .. ....|F-6 .. .. ....|... .. .. ....|... .. .. ....|... .. .. ....|... .. .. ....|... .. .. ....|C-3 .. .. ....|... .. .. ....|... .. .. ....|... .. .. ....
18 |... .. .. ....|... .. .. ....|... .. .. ....|... .. .. ....|... .. .. ....|... .. .. ....|D-6 .. .. ....|... .. .. ....|... .. .. ....|... .. .. ....|... .. .. ....|... .. .. ....|C-3 .. .. ....|... .. .. ....|... .. .. ....|... .. .. ....
19 |... .. .. ....|... .. .. ....|... .. .. ....|... .. .. ....|... .. .. ....|... .. .. ....|A-5 .. .. ....|... .. .. ....|... .. .. ....|... .. .. ....|... .. .. ....|C-3 02 .. ....|C-3 .. .. ....|... .. .. ....|... .. .. ....|... .. .. ....
1A |... .. .. ....|... .. .. ....|... .. .. ....|... .. .. ....|... .. .. ....|F-2 .. .. ....|F-6 .. .. ....|... .. .. ....|... .. .. ....|... .. .. ....|... .. .. ....|... .. .. ....|C-3 .. .. ....|... .. .. ....|... .. .. ....|... .. .. ....
1B |... .. .. ....|... .. .. ....|... .. .. ....|... .. .. ....|... .. .. ....|... .. .. ....|D-6 .. .. ....|... .. .. ....|... .. .. ....|... .. .. ....|... .. .. ....|... .. .. ....|C-3 .. .. ....|... .. .. ....|... .. .. ....|... .. .. ....
1C |... .. .. ....|... .. .. ....|... .. .. ....|... .. .. ....|... .. .. ....|... .. .. ....|A-5 .. .. ....|... .. .. ....|... .. .. ....|... .. .. ....|... .. .. ....|C-3 02 .. ....|C-3 .. .. ....|... .. .. ....|... .. .. ....|... .. .. ....
1D |... .. .. ....|... .. .. ....|... .. .. ....|... .. .. ....|... .. .. ....|... .. .. ....|F-6 .. .. ....|... .. .. ....|... .. .. ....|... .. .. ....|... .. .. ....|... .. .. ....|C-3 .. .. ....|... .. .. ....|... .. .. ....|... .. .. ....
1E |... .. .. ....|... .. .. ....|... .. .. ....|... .. .. ....|... .. .. ....|A#2 .. .. ....|D-6 .. .. ....|... .. .. ....|... .. .. ....|... .. .. ....|... .. .. ....|... .. .. ....|C-3 .. .. ....|... .. .. ....|... .. .. ....|... .. .. ....
1F |... .. .. ....|... .. .. ....|... .. .. ....|... .. .. ....|... .. .. ....|... .. .. ....|A-5 .. .. ....|... .. .. ....|... .. .. ....|... .. .. ....|... .. .. ....|C-2 02 .. ....|C-3 .. .. ....|... .. .. ....|... .. .. ....|... .. .. ....
20 |... .. .. ....|C-5 .. .. ....|E-5 .. .. ....|C-4 .. .. ....|G-4 .. .. ....|C-3 .. .. ....|E-6 .. .. ....|G-6 .. .. ....|... .. .. ....|... .. .. ....|... .. .. ....|C-3 01 .. ....|... .. .. ....|... .. .. ....|... .. .. ....|... .. .. ....
21 |... .. .. ....|... .. .. ....|... .. .. ....|... .. .. ....|... .. .. ....|... .. .. ....|OFF .. .. ....|OFF .. .. ....|... .. .. ....|... .. .. ....|... .. .. ....|... .. .. ....|... .. .. ....|... .. .. ....|... .. .. ....|... .. .. ....
22 |... .. .. ....|... .. .. ....|... .. .. ....|... .. .. ....|... .. .. ....|... .. .. ....|... .. .. ....|... .. .. ....|... .. .. ....|... .. .. ....|... .. .. ....|... .. .. ....|... .. .. ....|... .. .. ....|... .. .. ....|... .. .. ....
23 |... .. .. ....|... .. .. ....|... .. .. ....|... .. .. ....|... .. .. ....|... .. .. ....|E-6 .. .. ....|G-6 .. .. ....|... .. .. ....|... .. .. ....|... .. .. ....|C-3 01 .. ....|... .. .. ....|... .. .. ....|... .. .. ....|... .. .. ....
24 |... .. .. ....|... .. .. ....|... .. .. ....|... .. .. ....|... .. .. ....|... .. .. ....|OFF .. .. ....|OFF .. .. ....|... .. .. ....|C-3 .. .. ....|... .. .. ....|... .. .. ....|... .. .. ....|... .. .. ....|... .. .. ....|... .. .. ....
25 |... .. .. ....|... .. .. ....|... .. .. ....|... .. .. ....|... .. .. ....|... .. .. ....|... .. .. ....|... .. .. ....|... .. .. ....|... .. .. ....|... .. .. ....|... .. .. ....|... .. .. ....|... .. .. ....|... .. .. ....|... .. .. ....
26 |... .. .. ....|... .. .. ....|... .. .. ....|... .. .. ....|... .. .. ....|... .. .. ....|E-6 .. .. ....|G-6 .. .. ....|... .. .. ....|... .. .. ....|... .. .. ....|C-3 01 .. ....|... .. .. ....|... .. .. ....|... .. .. ....|... .. .. ....
27 |... .. .. ....|... .. .. ....|... .. .. ....|... .. .. ....|... .. .. ....|... .. .. ....|... .. .. ....|... .. .. ....|... .. .. ....|... .. .. ....|... .. .. ....|... .. .. ....|... .. .. ....|... .. .. ....|... .. .. ....|... .. .. 0D..
28 |... .. .. ....|... .. .. ....|... .. .. ....|... .. .. ....|... .. .. ....|... .. .. ....|... .. .. ....|... .. .. ....|... .. .. ....|... .. .. ....|... .. .. ....|... .. .. ....|... .. .. ....|... .. .. ....|... .. .. ....|... .. .. ....
29 |... .. .. ....|... .. .. ....|... .. .. ....|... .. .. ....|... .. .. ....|... .. .. ....|... .. .. ....|... .. .. ....|... .. .. ....|... .. .. ....|... .. .. ....|... .. .. ....|... .. .. ....|... .. .. ....|... .. .. ....|... .. .. ....
2A |... .. .. ....|... .. .. ....|... .. .. ....|... .. .. ....|... .. .. ....|... .. .. ....|... .. .. ....|... .. .. ....|... .. .. ....|... .. .. ....|... .. .. ....|... .. .. ....|... .. .. ....|... .. .. ....|... .. .. ....|... .. .. ....
2B |... .. .. ....|... .. .. ....|... .. .. ....|... .. .. ....|... .. .. ....|... .. .. ....|... .. .. ....|... .. .. ....|... .. .. ....|... .. .. ....|... .. .. ....|... .. .. ....|... .. .. ....|... .. .. ....|... .. .. ....|... .. .. ....
2C |... .. .. ....|... .. .. ....|... .. .. ....|... .. .. ....|... .. .. ....|... .. .. ....|... .. .. ....|... .. .. ....|... .. .. ....|... .. .. ....|... .. .. ....|... .. .. ....|... .. .. ....|... .. .. ....|... .. .. ....|... .. .. ....
2D |... .. .. ....|... .. .. ....|... .. .. ....|... .. .. ....|... .. .. ....|... .. .. ....|... .. .. ....|... .. .. ....|... .. .. ....|... .. .. ....|... .. .. ....|... .. .. ....|... .. .. ....|... .. .. ....|... .. .. ....|... .. .. ....
2E |... .. .. ....|... .. .. ....|... .. .. ....|... .. .. ....|... .. .. ....|... .. .. ....|... .. .. ....|... .. .. ....|... .. .. ....|... .. .. ....|... .. .. ....|... .. .. ....|... .. .. ....|... .. .. ....|... .. .. ....|... .. .. ....
2F |... .. .. ....|... .. .. ....|... .. .. ....|... .. .. ....|... .. .. ....|... .. .. ....|... .. .. ....|... .. .. ....|... .. .. ....|... .. .. ....|... .. .. ....|... .. .. ....|... .. .. ....|... .. .. ....|... .. .. ....|... .. .. ....
30 |... .. .. ....|... .. .. ....|... .. .. ....|... .. .. ....|... .. .. ....|... .. .. ....|... .. .. ....|... .. .. ....|... .. .. ....|... .. .. ....|... .. .. ....|... .. .. ....|... .. .. ....|... .. .. ....|... .. .. ....|... .. .. ....
31 |... .. .. ....|... .. .. ....|... .. .. ....|... .. .. ....|... .. .. ....|... .. .. ....|... .. .. ....|... .. .. ....|... .. .. ....|... .. .. ....|... .. .. ....|... .. .. ....|... .. .. ....|... .. .. ....|... .. .. ....|... .. .. ....
32 |... .. .. ....|... .. .. ....|... .. .. ....|... .. .. ....|... .. .. ....|... .. .. ....|... .. .. ....|... .. .. ....|... .. .. ....|... .. .. ....|... .. .. ....|... .. .. ....|... .. .. ....|... .. .. ....|... .. .. ....|... .. .. ....
33 |... .. .. ....|... .. .. ....|... .. .. ....|... .. .. ....|... .. .. ....|... .. .. ....|... .. .. ....|... .. .. ....|... .. .. ....|... .. .. ....|... .. .. ....|... .. .. ....|... .. .. ....|... .. .. ....|... .. .. ....|... .. .. ....
34 |... .. .. ....|... .. .. ....|... .. .. ....|... .. .. ....|... .. .. ....|... .. .. ....|... .. .. ....|... .. .. ....|... .. .. ....|... .. .. ....|... .. .. ....|... .. .. ....|... .. .. ....|... .. .. ....|... .. .. ....|... .. .. ....
35 |... .. .. ....|... .. .. ....|... .. .. ....|... .. .. ....|... .. .. ....|... .. .. ....|... .. .. ....|... .. .. ....|... .. .. ....|... .. .. ....|... .. .. ....|... .. .. ....|... .. .. ....|... .. .. ....|... .. .. ....|... .. .. ....
36 |... .. .. ....|... .. .. ....|... .. .. ....|... .. .. ....|... .. .. ....|... .. .. ....|... .. .. ....|... .. .. ....|... .. .. ....|... .. .. ....|... .. .. ....|... .. .. ....|... .. .. ....|... .. .. ....|... .. .. ....|... .. .. ....
37 |... .. .. ....|... .. .. ....|... .. .. ....|... .. .. ....|... .. .. ....|... .. .. ....|... .. .. ....|... .. .. ....|... .. .. ....|... .. .. ....|... .. .. ....|... .. .. ....|... .. .. ....|... .. .. ....|... .. .. ....|... .. .. ....
38 |... .. .. ....|... .. .. ....|... .. .. ....|... .. .. ....|... .. .. ....|... .. .. ....|... .. .. ....|... .. .. ....|... .. .. ....|... .. .. ....|... .. .. ....|... .. .. ....|... .. .. ....|... .. .. ....|... .. .. ....|... .. .. ....
39 |... .. .. ....|... .. .. ....|... .. .. ....|... .. .. ....|... .. .. ....|... .. .. ....|... .. .. ....|... .. .. ....|... .. .. ....|... .. .. ....|... .. .. ....|... .. .. ....|... .. .. ....|... .. .. ....|... .. .. ....|... .. .. ....
3A |... .. .. ....|... .. .. ....|... .. .. ....|... .. .. ....|... .. .. ....|... .. .. ....|... .. .. ....|... .. .. ....|... .. .. ....|... .. .. ....|... .. .. ....|... .. .. ....|... .. .. ....|... .. .. ....|... .. .. ....|... .. .. ....
3B |... .. .. ....|... .. .. ....|... .. .. ....|... .. .. ....|... .. .. ....|... .. .. ....|... .. .. ....|... .. .. ....|... .. .. ....|... .. .. ....|... .. .. ....|... .. .. ....|... .. .. ....|... .. .. ....|... .. .. ....|... .. .. ....
3C |... .. .. ....|... .. .. ....|... .. .. ....|... .. .. ....|... .. .. ....|... .. .. ....|... .. .. ....|... .. .. ....|... .. .. ....|... .. .. ....|... .. .. ....|... .. .. ....|... .. .. ....|... .. .. ....|... .. .. ....|... .. .. ....
3D |... .. .. ....|... .. .. ....|... .. .. ....|... .. .. ....|... .. .. ....|... .. .. ....|... .. .. ....|... .. .. ....|... .. .. ....|... .. .. ....|... .. .. ....|... .. .. ....|... .. .. ....|... .. .. ....|... .. .. ....|... .. .. ....
3E |... .. .. ....|... .. .. ....|... .. .. ....|... .. .. ....|... .. .. ....|... .. .. ....|... .. .. ....|... .. .. ....|... .. .. ....|... .. .. ....|... .. .. ....|... .. .. ....|... .. .. ....|... .. .. ....|... .. .. ....|... .. .. ....
3F |... .. .. ....|... .. .. ....|... .. .. ....|... .. .. ....|... .. .. ....|... .. .. ....|... .. .. ....|... .. .. ....|... .. .. ....|... .. .. ....|... .. .. ....|... .. .. ....|... .. .. ....|... .. .. ....|... .. .. ....|... .. .. ....
----- ORDER 06
00 |... .. .. ....|F-4 .. .. ....|A-4 .. .. ....|F-3 .. .. ....|D-4 .. .. ....|D-2 .. .. ....|D-6 03 .. ....|OFF .. .. ....|... .. .. ....|... .. .. ....|... .. .. ....|C-3 01 .. ....|... .. .. ....|... .. .. ....|... .. .. ....|... .. .. ....
01 |... .. .. ....|... .. .. ....|... .. .. ....|... .. .. ....|... .. .. ....|... .. .. ....|A-5 .. .. ....|... .. .. ....|... .. .. ....|... .. .. ....|... .. .. ....|... .. .. ....|C-3 .. .. ....|... .. .. ....|... .. .. ....|... .. .. ....
02 |... .. .. ....|... .. .. ....|... .. .. ....|... .. .. ....|... .. .. ....|... .. .. ....|F-5 .. .. ....|... .. .. ....|... .. .. ....|... .. .. ....|... .. .. ....|C-3 02 .. ....|C-3 .. .. ....|... .. .. ....|... .. .. ....|... .. .. ....
03 |... .. .. ....|... .. .. ....|... .. .. ....|... .. .. ....|... .. .. ....|... .. .. ....|D-6 .. .. ....|... .. .. ....|... .. .. ....|... .. .. ....|... .. .. ....|... .. .. ....|C-3 .. .. ....|... .. .. ....|... .. .. ....|... .. .. ....
04 |... .. .. ....|... .. .. ....|... .. .. ....|... .. .. ....|... .. .. ....|... .. .. ....|A-5 .. .. ....|... .. .. ....|... .. .. ....|... .. .. ....|... .. .. ....|... .. .. ....|C-3 .. .. ....|... .. .. ....|... .. .. ....|... .. .. ....
05 |... .. .. ....|... .. .. ....|... .. .. ....|... .. .. ....|... .. .. ....|... .. .. ....|F-5 .. .. ....|... .. .. ....|... .. .. ....|... .. .. ....|... .. .. ....|C-3 02 .. ....|C-3 .. .. ....|... .. .. ....|... .. .. ....|... .. .. ....
06 |... .. .. ....|... .. .. ....|... .. .. ....|... .. .. ....|... .. .. ....|A-2 .. .. ....|D-6 .. .. ....|... .. .. ....|... .. .. ....|... .. .. ....|... .. .. ....|... .. .. ....|C-3 .. .. ....|... .. .. ....|... .. .. ....|... .. .. ....
07 |... .. .. ....|... .. .. ....|... .. .. ....|... .. .. ....|... .. .. ....|... .. .. ....|A-5 .. .. ....|... .. .. ....|... .. .. ....|... .. .. ....|... .. .. ....|... .. .. ....|C-3 .. .. ....|... .. .. ....|... .. .. ....|... .. .. ....
08 |... .. .. ....|... .. .. ....|... .. .. ....|... .. .. ....|... .. .. ....|... .. .. ....|F-5 .. .. ....|... .. .. ....|... .. .. ....|... .. .. ....|... .. .. ....|C-3 02 .. ....|C-3 .. .. ....|... .. .. ....|... .. .. ....|... .. .. ....
09 |... .. .. ....|... .. .. ....|... .. .. ....|... .. .. ....|... .. .. ....|... .. .. ....|D-6 .. .. ....|... .. .. ....|... .. .. ....|... .. .. ....|... .. .. ....|... .. .. ....|C-3 .. .. ....|... .. .. ....|... .. .. ....|... .. .. ....
0A |... .. .. ....|... .. .. ....|... .. .. ....|... .. .. ....|... .. .. ....|D-2 .. .. ....|A-5 .. .. ....|... .. .. ....|... .. .. ....|... .. .. ....|... .. .. ....|... .. .. ....|C-3 .. .. ....|... .. .. ....|... .. .. ....|... .. .. ....
0B |... .. .. ....|... .. .. ....|... .. .. ....|... .. .. ....|... .. .. ....|... .. .. ....|F-5 .. .. ....|... .. .. ....|... .. .. ....|... .. .. ....|... .. .. ....|C-2 02 .. ....|C-3 .. .. ....|... .. .. ....|... .. .. ....|... .. .. ....
0C |... .. .. ....|A-4 .. .. ....|C-5 .. .. ....|A-3 .. .. ....|E-4 .. .. ....|E-2 .. .. ....|C-6 .. .. ....|E-6 03 .. ....|... .. .. ....|... .. .. ....|... .. .. ....|C-3 01 .. ....|... .. .. ....|... .. .. ....|... .. .. ....|... .. .. ....
0D |... .. .. ....|... .. .. ....|... .. .. ....|... .. .. ....|... .. .. ....|... .. .. ....|OFF .. .. ....|OFF .. .. ....|... .. .. ....|... .. .. ....|... .. .. ....|... .. .. ....|... .. .. ....|... .. .. ....|... .. .. ....|... .. .. ....
0E |... .. .. ....|... .. .. ....|... .. .. ....|... .. .. ....|... .. .. ....|... .. .. ....|... .. .. ....|... .. .. ....|... .. .. ....|... .. .. ....|... .. .. ....|... .. .. ....|... .. .. ....|... .. .. ....|... .. .. ....|... .. .. ....
0F |... .. .. ....|... .. .. ....|... .. .. ....|... .. .. ....|... .. .. ....|... .. .. ....|C-6 .. .. ....|E-6 .. .. ....|... .. .. ....|... .. .. ....|... .. .. ....|C-3 01 .. ....|... .. .. ....|... .. .. ....|... .. .. ....|... .. .. ....
10 |... .. .. ....|... .. .. ....|... .. .. ....|... .. .. ....|... .. .. ....|... .. .. ....|OFF .. .. ....|OFF .. .. ....|... .. .. ....|C-3 .. .. ....|... .. .. ....|... .. .. ....|... .. .. ....|... .. .. ....|... .. .. ....|... .. .. ....
11 |... .. .. ....|... .. .. ....|... .. .. ....|... .. .. ....|... .. .. ....|... .. .. ....|... .. .. ....|... .. .. ....|... .. .. ....|... .. .. ....|... .. .. ....|... .. .. ....|... .. .. ....|... .. .. ....|... .. .. ....|... .. .. ....
12 |... .. .. ....|... .. .. ....|... .. .. ....|... .. .. ....|... .. .. ....|... .. .. ....|C-6 .. .. ....|E-6 .. .. ....|... .. .. ....|... .. .. ....|... .. .. ....|C-3 01 .. ....|... .. .. ....|... .. .. ....|... .. .. ....|... .. .. ....
13 |... .. .. ....|... .. .. ....|... .. .. ....|... .. .. ....|... .. .. ....|... .. .. ....|... .. .. ....|... .. .. ....|... .. .. ....|... .. .. ....|... .. .. ....|... .. .. ....|... .. .. ....|... .. .. ....|... .. .. ....|... .. .. ....
14 |... .. .. ....|A#4 .. .. ....|D-5 .. .. ....|A#3 .. .. ....|F-4 .. .. ....|A#1 .. .. ....|F-6 .. .. ....|OFF .. .. ....|... .. .. ....|... .. .. ....|... .. .. ....|C-3 01 .. ....|... .. .. ....|... .. .. ....|... .. .. ....|... .. .. ....
15 |... .. .. ....|... .. .. ....|... .. .. ....|... .. .. ....|... .. .. ....|... .. .. ....|D-6 .. .. ....|... .. .. ....|... .. .. ....|... .. .. ....|... .. .. ....|... .. .. ....|C-3 .. .. ....|... .. .. ....|... .. .. ....|... .. .. ....
16 |... .. .. ....|... .. .. ....|... .. .. ....|... .. .. ....|... .. .. ....|... .. .. ....|A-5 .. .. ....|... .. .. ....|... .. .. ....|... .. .. ....|... .. .. ....|C-3 02 .. ....|C-3 .. .. ....|... .. .. ....|... .. .. ....|... .. .. ....
17 |... .. .. ....|... .. .. ....|... .. .. ....|... .. .. ....|... .. .. ....|... .. .. ....|F-6 .. .. ....|... .. .. ....|... .. .. ....|... .. .. ....|... .. .. ....|... .. .. ....|C-3 .. .. ....|... .. .. ....|... .. .. ....|... .. .. ....
18 |... .. .. ....|... .. .. ....|... .. .. ....|... .. .. ....|... .. .. ....|... .. .. ....|D-6 .. .. ....|... .. .. ....|... .. .. ....|... .. .. ....|... .. .. ....|... .. .. ....|C-3 .. .. ....|... .. .. ....|... .. .. ....|... .. .. ....
19 |... .. .. ....|... .. .. ....|... .. .. ....|... .. .. ....|... .. .. ....|... .. .. ....|A-5 .. .. ....|... .. .. ....|... .. .. ....|... .. .. ....|... .. .. ....|C-3 02 .. ....|C-3 .. .. ....|... .. .. ....|... .. .. ....|... .. .. ....
1A |... .. .. ....|... .. .. ....|... .. .. ....|... .. .. ....|... .. .. ....|F-2 .. .. ....|F-6 .. .. ....|... .. .. ....|... .. .. ....|... .. .. ....|... .. .. ....|... .. .. ....|C-3 .. .. ....|... .. .. ....|... .. .. ....|... .. .. ....
1B |... .. .. ....|... .. .. ....|... .. .. ....|... .. .. ....|... .. .. ....|... .. .. ....|D-6 .. .. ....|... .. .. ....|... .. .. ....|... .. .. ....|... .. .. ....|... .. .. ....|C-3 .. .. ....|... .. .. ....|... .. .. ....|... .. .. ....
1C |... .. .. ....|... .. .. ....|... .. .. ....|... .. .. ....|... .. .. ....|... .. .. ....|A-5 .. .. ....|... .. .. ....|... .. .. ....|... .. .. ....|... .. .. ....|C-3 02 .. ....|C-3 .. .. ....|... .. .. ....|... .. .. ....|... .. .. ....
1D |... .. .. ....|... .. .. ....|... .. .. ....|... .. .. ....|... .. .. ....|... .. .. ....|F-6 .. .. ....|... .. .. ....|... .. .. ....|... .. .. ....|... .. .. ....|... .. .. ....|C-3 .. .. ....|... .. .. ....|... .. .. ....|... .. .. ....
1E |... .. .. ....|... .. .. ....|... .. .. ....|... .. .. ....|... .. .. ....|A#2 .. .. ....|D-6 .. .. ....|... .. .. ....|... .. .. ....|... .. .. ....|... .. .. ....|... .. .. ....|C-3 .. .. ....|... .. .. ....|... .. .. ....|... .. .. ....
1F |... .. .. ....|... .. .. ....|... .. .. ....|... .. .. ....|... .. .. ....|... .. .. ....|A-5 .. .. ....|... .. .. ....|... .. .. ....|... .. .. ....|... .. .. ....|C-2 02 .. ....|C-3 .. .. ....|... .. .. ....|... .. .. ....|... .. .. ....
20 |... .. .. ....|C-5 .. .. ....|E-5 .. .. ....|C-4 .. .. ....|G-4 .. .. ....|C-3 .. .. ....|E-6 .. .. ....|G-6 .. .. ....|... .. .. ....|... .. .. ....|... .. .. ....|C-3 01 .. ....|... .. .. ....|... .. .. ....|... .. .. ....|... .. .. ....
21 |... .. .. ....|... .. .. ....|... .. .. ....|... .. .. ....|... .. .. ....|... .. .. ....|OFF .. .. ....|OFF .. .. ....|... .. .. ....|... .. .. ....|... .. .. ....|... .. .. ....|... .. .. ....|... .. .. ....|... .. .. ....|... .. .. ....
22 |... .. .. ....|... .. .. ....|... .. .. ....|... .. .. ....|... .. .. ....|... .. .. ....|... .. .. ....|... .. .. ....|... .. .. ....|... .. .. ....|... .. .. ....|... .. .. ....|... .. .. ....|... .. .. ....|... .. .. ....|... .. .. ....
23 |... .. .. ....|... .. .. ....|... .. .. ....|... .. .. ....|... .. .. ....|... .. .. ....|E-6 .. .. ....|G-6 .. .. ....|... .. .. ....|... .. .. ....|... .. .. ....|C-3 01 .. ....|... .. .. ....|... .. .. ....|... .. .. ....|... .. .. ....
24 |... .. .. ....|... .. .. ....|... .. .. ....|... .. .. ....|... .. .. ....|... .. .. ....|OFF .. .. ....|OFF .. .. ....|... .. .. ....|C-3 .. .. ....|... .. .. ....|... .. .. ....|... .. .. ....|... .. .. ....|... .. .. ....|... .. .. ....
25 |... .. .. ....|... .. .. ....|... .. .. ....|... .. .. ....|... .. .. ....|... .. .. ....|... .. .. ....|... .. .. ....|... .. .. ....|... .. .. ....|... .. .. ....|... .. .. ....|... .. .. ....|... .. .. ....|... .. .. ....|... .. .. ....
26 |... .. .. ....|... .. .. ....|... .. .. ....|... .. .. ....|... .. .. ....|... .. .. ....|E-6 .. .. ....|G-6 .. .. ....|... .. .. ....|... .. .. ....|... .. .. ....|C-3 01 .. ....|... .. .. ....|... .. .. ....|... .. .. ....|... .. .. ....
27 |... .. .. ....|... .. .. ....|... .. .. ....|... .. .. ....|... .. .. ....|... .. .. ....|... .. .. ....|... .. .. ....|... .. .. ....|... .. .. ....|... .. .. ....|... .. .. ....|... .. .. ....|... .. .. ....|... .. .. ....|... .. .. 0D..
28 |... .. .. ....|... .. .. ....|... .. .. ....|... .. .. ....|... .. .. ....|... .. .. ....|... .. .. ....|... .. .. ....|... .. .. ....|... .. .. ....|... .. .. ....|... .. .. ....|... .. .. ....|... .. .. ....|... .. .. ....|... .. .. ....
29 |... .. .. ....|... .. .. ....|... .. .. ....|... .. .. ....|... .. .. ....|... .. .. ....|... .. .. ....|... .. .. ....|... .. .. ....|... .. .. ....|... .. .. ....|... .. .. ....|... .. .. ....|... .. .. ....|... .. .. ....|... .. .. ....
2A |... .. .. ....|... .. .. ....|... .. .. ....|... .. .. ....|... .. .. ....|... .. .. ....|... .. .. ....|... .. .. ....|... .. .. ....|... .. .. ....|... .. .. ....|... .. .. ....|... .. .. ....|... .. .. ....|... .. .. ....|... .. .. ....
2B |... .. .. ....|... .. .. ....|... .. .. ....|... .. .. ....|... .. .. ....|... .. .. ....|... .. .. ....|... .. .. ....|... .. .. ....|... .. .. ....|... .. .. ....|... .. .. ....|... .. .. ....|... .. .. ....|... .. .. ....|... .. .. ....
2C |... .. .. ....|... .. .. ....|... .. .. ....|... .. .. ....|... .. .. ....|... .. .. ....|... .. .. ....|... .. .. ....|... .. .. ....|... .. .. ....|... .. .. ....|... .. .. ....|... .. .. ....|... .. .. ....|... .. .. ....|... .. .. ....
2D |... .. .. ....|... .. .. ....|... .. .. ....|... .. .. ....|... .. .. ....|... .. .. ....|... .. .. ....|... .. .. ....|... .. .. ....|... .. .. ....|... .. .. ....|... .. .. ....|... .. .. ....|... .. .. ....|... .. .. ....|... .. .. ....
2E |... .. .. ....|... .. .. ....|... .. .. ....|... .. .. ....|... .. .. ....|... .. .. ....|... .. .. ....|... .. .. ....|... .. .. ....|... .. .. ....|... .. .. ....|... .. .. ....|... .. .. ....|... .. .. ....|... .. .. ....|... .. .. ....
2F |... .. .. ....|... .. .. ....|... .. .. ....|... .. .. ....|... .. .. ....|... .. .. ....|... .. .. ....|... .. .. ....|... .. .. ....|... .. .. ....|... .. .. ....|... .. .. ....|... .. .. ....|... .. .. ....|... .. .. ....|... .. .. ....
30 |... .. .. ....|... .. .. ....|... .. .. ....|... .. .. ....|... .. .. ....|... .. .. ....|... .. .. ....|... .. .. ....|... .. .. ....|... .. .. ....|... .. .. ....|... .. .. ....|... .. .. ....|... .. .. ....|... .. .. ....|... .. .. ....
31 |... .. .. ....|... .. .. ....|... .. .. ....|... .. .. ....|... .. .. ....|... .. .. ....|... .. .. ....|... .. .. ....|... .. .. ....|... .. .. ....|... .. .. ....|... .. .. ....|... .. .. ....|... .. .. ....|... .. .. ....|... .. .. ....
32 |... .. .. ....|... .. .. ....|... .. .. ....|... .. .. ....|... .. .. ....|... .. .. ....|... .. .. ....|... .. .. ....|... .. .. ....|... .. .. ....|... .. .. ....|... .. .. ....|... .. .. ....|... .. .. ....|... .. .. ....|... .. .. ....
33 |... .. .. ....|... .. .. ....|... .. .. ....|... .. .. ....|... .. .. ....|... .. .. ....|... .. .. ....|... .. .. ....|... .. .. ....|... .. .. ....|... .. .. ....|... .. .. ....|... .. .. ....|... .. .. ....|... .. .. ....|... .. .. ....
34 |... .. .. ....|... .. .. ....|... .. .. ....|... .. .. ....|... .. .. ....|... .. .. ....|... .. .. ....|... .. .. ....|... .. .. ....|... .. .. ....|... .. .. ....|... .. .. ....|... .. .. ....|... .. .. ....|... .. .. ....|... .. .. ....
35 |... .. .. ....|... .. .. ....|... .. .. ....|... .. .. ....|... .. .. ....|... .. .. ....|... .. .. ....|... .. .. ....|... .. .. ....|... .. .. ....|... .. .. ....|... .. .. ....|... .. .. ....|... .. .. ....|... .. .. ....|... .. .. ....
36 |... .. .. ....|... .. .. ....|... .. .. ....|... .. .. ....|... .. .. ....|... .. .. ....|... .. .. ....|... .. .. ....|... .. .. ....|... .. .. ....|... .. .. ....|... .. .. ....|... .. .. ....|... .. .. ....|... .. .. ....|... .. .. ....
37 |... .. .. ....|... .. .. ....|... .. .. ....|... .. .. ....|... .. .. ....|... .. .. ....|... .. .. ....|... .. .. ....|... .. .. ....|... .. .. ....|... .. .. ....|... .. .. ....|... .. .. ....|... .. .. ....|... .. .. ....|... .. .. ....
38 |... .. .. ....|... .. .. ....|... .. .. ....|... .. .. ....|... .. .. ....|... .. .. ....|... .. .. ....|... .. .. ....|... .. .. ....|... .. .. ....|... .. .. ....|... .. .. ....|... .. .. ....|... .. .. ....|... .. .. ....|... .. .. ....
39 |... .. .. ....|... .. .. ....|... .. .. ....|... .. .. ....|... .. .. ....|... .. .. ....|... .. .. ....|... .. .. ....|... .. .. ....|... .. .. ....|... .. .. ....|... .. .. ....|... .. .. ....|... .. .. ....|... .. .. ....|... .. .. ....
3A |... .. .. ....|... .. .. ....|... .. .. ....|... .. .. ....|... .. .. ....|... .. .. ....|... .. .. ....|... .. .. ....|... .. .. ....|... .. .. ....|... .. .. ....|... .. .. ....|... .. .. ....|... .. .. ....|... .. .. ....|... .. .. ....
3B |... .. .. ....|... .. .. ....|... .. .. ....|... .. .. ....|... .. .. ....|... .. .. ....|... .. .. ....|... .. .. ....|... .. .. ....|... .. .. ....|... .. .. ....|... .. .. ....|... .. .. ....|... .. .. ....|... .. .. ....|... .. .. ....
3C |... .. .. ....|... .. .. ....|... .. .. ....|... .. .. ....|... .. .. ....|... .. .. ....|... .. .. ....|... .. .. ....|... .. .. ....|... .. .. ....|... .. .. ....|... .. .. ....|... .. .. ....|... .. .. ....|... .. .. ....|... .. .. ....
3D |... .. .. ....|... .. .. ....|... .. .. ....|... .. .. ....|... .. .. ....|... .. .. ....|... .. .. ....|... .. .. ....|... .. .. ....|... .. .. ....|... .. .. ....|... .. .. ....|... .. .. ....|... .. .. ....|... .. .. ....|... .. .. ....
3E |... .. .. ....|... .. .. ....|... .. .. ....|... .. .. ....|... .. .. ....|... .. .. ....|... .. .. ....|... .. .. ....|... .. .. ....|... .. .. ....|... .. .. ....|... .. .. ....|... .. .. ....|... .. .. ....|... .. .. ....|... .. .. ....
3F |... .. .. ....|... .. .. ....|... .. .. ....|... .. .. ....|... .. .. ....|... .. .. ....|... .. .. ....|... .. .. ....|... .. .. ....|... .. .. ....|... .. .. ....|... .. .. ....|... .. .. ....|... .. .. ....|... .. .. ....|... .. .. ....
----- ORDER 07
00 |... .. .. ....|F-4 .. .. ....|A-4 .. .. ....|F-3 .. .. ....|D-4 .. .. ....|D-2 .. .. ....|D-6 03 .. ....|OFF .. .. ....|... .. .. ....|... .. .. ....|... .. .. ....|C-3 01 .. ....|... .. .. ....|... .. .. ....|... .. .. ....|... .. .. ....
01 |... .. .. ....|... .. .. ....|... .. .. ....|... .. .. ....|... .. .. ....|... .. .. ....|A-5 .. .. ....|... .. .. ....|... .. .. ....|... .. .. ....|... .. .. ....|... .. .. ....|C-3 .. .. ....|... .. .. ....|... .. .. ....|... .. .. ....
02 |... .. .. ....|... .. .. ....|... .. .. ....|... .. .. ....|... .. .. ....|D-3 .. .. ....|F-5 .. .. ....|... .. .. ....|... .. .. ....|... .. .. ....|... .. .. ....|C-3 02 .. ....|... .. .. ....|... .. .. ....|... .. .. ....|... .. .. ....
03 |... .. .. ....|... .. .. ....|... .. .. ....|... .. .. ....|... .. .. ....|... .. .. ....|D-6 .. .. ....|... .. .. ....|... .. .. ....|... .. .. ....|... .. .. ....|... .. .. ....|C-3 .. .. ....|... .. .. ....|... .. .. ....|... .. .. ....
04 |... .. .. ....|... .. .. ....|... .. .. ....|... .. .. ....|... .. .. ....|D-2 .. .. ....|A-5 .. .. ....|... .. .. ....|... .. .. ....|C-3 .. .. ....|... .. .. ....|... .. .. ....|C-3 .. .. ....|... .. .. ....|... .. .. ....|... .. .. ....
05 |... .. .. ....|... .. .. ....|... .. .. ....|... .. .. ....|... .. .. ....|... .. .. ....|F-5 .. .. ....|... .. .. ....|... .. .. ....|... .. .. ....|... .. .. ....|C-3 02 .. ....|... .. .. ....|... .. .. ....|... .. .. ....|... .. .. ....
06 |... .. .. ....|... .. .. ....|... .. .. ....|... .. .. ....|... .. .. ....|A-2 .. .. ....|D-6 .. .. ....|... .. .. ....|... .. .. ....|... .. .. ....|... .. .. ....|... .. .. ....|C-3 .. .. ....|... .. .. ....|... .. .. ....|... .. .. ....
07 |... .. .. ....|... .. .. ....|... .. .. ....|... .. .. ....|... .. .. ....|... .. .. ....|A-5 .. .. ....|... .. .. ....|... .. .. ....|... .. .. ....|... .. .. ....|... .. .. ....|C-3 .. .. ....|... .. .. ....|... .. .. ....|... .. .. ....
08 |... .. .. ....|... .. .. ....|... .. .. ....|... .. .. ....|... .. .. ....|A-1 .. .. ....|F-5 .. .. ....|... .. .. ....|... .. .. ....|C-3 .. .. ....|... .. .. ....|C-3 02 .. ....|... .. .. ....|... .. .. ....|... .. .. ....|... .. .. ....
09 |... .. .. ....|... .. .. ....|... .. .. ....|... .. .. ....|... .. .. ....|... .. .. ....|D-6 .. .. ....|... .. .. ....|... .. .. ....|... .. .. ....|... .. .. ....|... .. .. ....|C-3 .. .. ....|... .. .. ....|... .. .. ....|... .. .. ....
0A |... .. .. ....|... .. .. ....|... .. .. ....|... .. .. ....|... .. .. ....|D-2 .. .. ....|A-5 .. .. ....|... .. .. ....|... .. .. ....|... .. .. ....|... .. .. ....|... .. .. ....|C-3 .. .. ....|... .. .. ....|... .. .. ....|... .. .. ....
0B |... .. .. ....|... .. .. ....|... .. .. ....|... .. .. ....|... .. .. ....|... .. .. ....|F-5 .. .. ....|... .. .. ....|... .. .. ....|... .. .. ....|... .. .. ....|C-2 02 .. ....|... .. .. ....|... .. .. ....|... .. .. ....|... .. .. ....
0C |... .. .. ....|A-4 .. .. ....|C-5 .. .. ....|A-3 .. .. ....|E-4 .. .. ....|E-2 .. .. ....|C-6 .. .. ....|E-6 03 .. ....|... .. .. ....|... .. .. ....|... .. .. ....|C-3 01 .. ....|... .. .. ....|... .. .. ....|... .. .. ....|... .. .. ....
0D |... .. .. ....|... .. .. ....|... .. .. ....|... .. .. ....|... .. .. ....|... .. .. ....|OFF .. .. ....|OFF .. .. ....|... .. .. ....|... .. .. ....|... .. .. ....|... .. .. ....|... .. .. ....|... .. .. ....|... .. .. ....|... .. .. ....
0E |... .. .. ....|... .. .. ....|... .. .. ....|... .. .. ....|... .. .. ....|E-3 .. .. ....|... .. .. ....|... .. .. ....|... .. .. ....|... .. .. ....|... .. .. ....|... .. .. ....|... .. .. ....|... .. .. ....|... .. .. ....|... .. .. ....
0F |... .. .. ....|... .. .. ....|... .. .. ....|... .. .. ....|... .. .. ....|... .. .. ....|C-6 .. .. ....|E-6 .. .. ....|... .. .. ....|... .. .. ....|... .. .. ....|C-3 01 .. ....|... .. .. ....|... .. .. ....|... .. .. ....|... .. .. ....
10 |... .. .. ....|... .. .. ....|... .. .. ....|... .. .. ....|... .. .. ....|E-2 .. .. ....|OFF .. .. ....|OFF .. .. ....|... .. .. ....|C-3 .. .. ....|... .. .. ....|... .. .. ....|... .. .. ....|... .. .. ....|... .. .. ....|... .. .. ....
11 |... .. .. ....|... .. .. ....|... .. .. ....|... .. .. ....|... .. .. ....|... .. .. ....|... .. .. ....|... .. .. ....|... .. .. ....|... .. .. ....|... .. .. ....|... .. .. ....|... .. .. ....|... .. .. ....|... .. .. ....|... .. .. ....
12 |... .. .. ....|... .. .. ....|... .. .. ....|... .. .. ....|... .. .. ....|E-3 .. .. ....|C-6 .. .. ....|E-6 .. .. ....|... .. .. ....|... .. .. ....|... .. .. ....|C-3 01 .. ....|... .. .. ....|... .. .. ....|... .. .. ....|... .. .. ....
13 |... .. .. ....|... .. .. ....|... .. .. ....|... .. .. ....|... .. .. ....|... .. .. ....|... .. .. ....|... .. .. ....|... .. .. ....|... .. .. ....|... .. .. ....|... .. .. ....|... .. .. ....|... .. .. ....|... .. .. ....|... .. .. ....
14 |... .. .. ....|A#4 .. .. ....|D-5 .. .. ....|A#3 .. .. ....|F-4 .. .. ....|A#1 .. .. ....|F-6 .. .. ....|OFF .. .. ....|... .. .. ....|... .. .. ....|... .. .. ....|C-3 01 .. ....|... .. .. ....|... .. .. ....|... .. .. ....|... .. .. ....
15 |... .. .. ....|... .. .. ....|... .. .. ....|... .. .. ....|... .. .. ....|... .. .. ....|D-6 .. .. ....|... .. .. ....|... .. .. ....|... .. .. ....|... .. .. ....|... .. .. ....|C-3 .. .. ....|... .. .. ....|... .. .. ....|... .. .. ....
16 |... .. .. ....|... .. .. ....|... .. .. ....|... .. .. ....|... .. .. ....|A#2 .. .. ....|A-5 .. .. ....|... .. .. ....|... .. .. ....|... .. .. ....|... .. .. ....|C-3 02 .. ....|... .. .. ....|... .. .. ....|... .. .. ....|... .. .. ....
17 |... .. .. ....|... .. .. ....|... .. .. ....|... .. .. ....|... .. .. ....|... .. .. ....|F-6 .. .. ....|... .. .. ....|... .. .. ....|... .. .. ....|... .. .. ....|... .. .. ....|C-3 .. .. ....|... .. .. ....|... .. .. ....|... .. .. ....
18 |... .. .. ....|... .. .. ....|... .. .. ....|... .. .. ....|... .. .. ....|A#1 .. .. ....|D-6 .. .. ....|... .. .. ....|... .. .. ....|C-3 .. .. ....|... .. .. ....|... .. .. ....|C-3 .. .. ....|... .. .. ....|... .. .. ....|... .. .. ....
19 |... .. .. ....|... .. .. ....|... .. .. ....|... .. .. ....|... .. .. ....|... .. .. ....|A-5 .. .. ....|... .. .. ....|... .. .. ....|... .. .. ....|... .. .. ....|C-3 02 .. ....|... .. .. ....|... .. .. ....|... .. .. ....|... .. .. ....
1A |... .. .. ....|... .. .. ....|... .. .. ....|... .. .. ....|... .. .. ....|F-2 .. .. ....|F-6 .. .. ....|... .. .. ....|... .. .. ....|... .. .. ....|... .. .. ....|... .. .. ....|C-3 .. .. ....|... .. .. ....|... .. .. ....|... .. .. ....
1B |... .. .. ....|... .. .. ....|... .. .. ....|... .. .. ....|... .. .. ....|... .. .. ....|D-6 .. .. ....|... .. .. ....|... .. .. ....|... .. .. ....|... .. .. ....|... .. .. ....|C-3 .. .. ....|... .. .. ....|... .. .. ....|... .. .. ....
1C |... .. .. ....|... .. .. ....|... .. .. ....|... .. .. ....|... .. .. ....|F-1 .. .. ....|A-5 .. .. ....|... .. .. ....|... .. .. ....|C-3 .. .. ....|... .. .. ....|C-3 02 .. ....|... .. .. ....|... .. .. ....|... .. .. ....|... .. .. ....
1D |... .. .. ....|... .. .. ....|... .. .. ....|... .. .. ....|... .. .. ....|... .. .. ....|F-6 .. .. ....|... .. .. ....|... .. .. ....|... .. .. ....|... .. .. ....|... .. .. ....|C-3 .. .. ....|... .. .. ....|... .. .. ....|... .. .. ....
1E |... .. .. ....|... .. .. ....|... .. .. ....|... .. .. ....|... .. .. ....|A#2 .. .. ....|D-6 .. .. ....|... .. .. ....|... .. .. ....|... .. .. ....|... .. .. ....|... .. .. ....|C-3 .. .. ....|... .. .. ....|... .. .. ....|... .. .. ....
1F |... .. .. ....|... .. .. ....|... .. .. ....|... .. .. ....|... .. .. ....|... .. .. ....|A-5 .. .. ....|... .. .. ....|... .. .. ....|... .. .. ....|... .. .. ....|C-2 02 .. ....|... .. .. ....|... .. .. ....|... .. .. ....|... .. .. ....
20 |... .. .. ....|C-5 .. .. ....|E-5 .. .. ....|C-4 .. .. ....|G-4 .. .. ....|C-3 .. .. ....|E-6 .. .. ....|G-6 .. .. ....|... .. .. ....|... .. .. ....|... .. .. ....|C-3 01 .. ....|... .. .. ....|... .. .. ....|... .. .. ....|... .. .. ....
21 |... .. .. ....|... .. .. ....|... .. .. ....|... .. .. ....|... .. .. ....|... .. .. ....|OFF .. .. ....|OFF .. .. ....|... .. .. ....|... .. .. ....|... .. .. ....|... .. .. ....|... .. .. ....|... .. .. ....|... .. .. ....|... .. .. ....
22 |... .. .. ....|... .. .. ....|... .. .. ....|... .. .. ....|... .. .. ....|C-2 .. .. ....|... .. .. ....|... .. .. ....|... .. .. ....|... .. .. ....|... .. .. ....|... .. .. ....|... .. .. ....|... .. .. ....|... .. .. ....|... .. .. ....
23 |... .. .. ....|... .. .. ....|... .. .. ....|... .. .. ....|... .. .. ....|... .. .. ....|E-6 .. .. ....|G-6 .. .. ....|... .. .. ....|... .. .. ....|... .. .. ....|C-3 01 .. ....|... .. .. ....|... .. .. ....|... .. .. ....|... .. .. ....
24 |... .. .. ....|... .. .. ....|... .. .. ....|... .. .. ....|... .. .. ....|C-3 .. .. ....|OFF .. .. ....|OFF .. .. ....|... .. .. ....|C-3 .. .. ....|... .. .. ....|... .. .. ....|... .. .. ....|... .. .. ....|... .. .. ....|... .. .. ....
25 |... .. .. ....|... .. .. ....|... .. .. ....|... .. .. ....|... .. .. ....|... .. .. ....|... .. .. ....|... .. .. ....|... .. .. ....|... .. .. ....|... .. .. ....|... .. .. ....|... .. .. ....|... .. .. ....|... .. .. ....|... .. .. ....
26 |... .. .. ....|... .. .. ....|... .. .. ....|... .. .. ....|... .. .. ....|C-2 .. .. ....|E-6 .. .. ....|G-6 .. .. ....|... .. .. ....|... .. .. ....|... .. .. ....|C-3 01 .. ....|... .. .. ....|... .. .. ....|... .. .. ....|... .. .. ....
27 |... .. .. ....|... .. .. ....|... .. .. ....|... .. .. ....|... .. .. ....|... .. .. ....|... .. .. ....|... .. .. ....|... .. .. ....|... .. .. ....|... .. .. ....|... .. .. ....|... .. .. ....|... .. .. ....|... .. .. ....|... .. .. 0D..
28 |... .. .. ....|... .. .. ....|... .. .. ....|... .. .. ....|... .. .. ....|... .. .. ....|... .. .. ....|... .. .. ....|... .. .. ....|... .. .. ....|... .. .. ....|... .. .. ....|... .. .. ....|... .. .. ....|... .. .. ....|... .. .. ....
29 |... .. .. ....|... .. .. ....|... .. .. ....|... .. .. ....|... .. .. ....|... .. .. ....|... .. .. ....|... .. .. ....|... .. .. ....|... .. .. ....|... .. .. ....|... .. .. ....|... .. .. ....|... .. .. ....|... .. .. ....|... .. .. ....
2A |... .. .. ....|... .. .. ....|... .. .. ....|... .. .. ....|... .. .. ....|... .. .. ....|... .. .. ....|... .. .. ....|... .. .. ....|... .. .. ....|... .. .. ....|... .. .. ....|... .. .. ....|... .. .. ....|... .. .. ....|... .. .. ....
2B |... .. .. ....|... .. .. ....|... .. .. ....|... .. .. ....|... .. .. ....|... .. .. ....|... .. .. ....|... .. .. ....|... .. .. ....|... .. .. ....|... .. .. ....|... .. .. ....|... .. .. ....|... .. .. ....|... .. .. ....|... .. .. ....
2C |... .. .. ....|... .. .. ....|... .. .. ....|... .. .. ....|... .. .. ....|... .. .. ....|... .. .. ....|... .. .. ....|... .. .. ....|... .. .. ....|... .. .. ....|... .. .. ....|... .. .. ....|... .. .. ....|... .. .. ....|... .. .. ....
2D |... .. .. ....|... .. .. ....|... .. .. ....|... .. .. ....|... .. .. ....|... .. .. ....|... .. .. ....|... .. .. ....|... .. .. ....|... .. .. ....|... .. .. ....|... .. .. ....|... .. .. ....|... .. .. ....|... .. .. ....|... .. .. ....
2E |... .. .. ....|... .. .. ....|... .. .. ....|... .. .. ....|... .. .. ....|... .. .. ....|... .. .. ....|... .. .. ....|... .. .. ....|... .. .. ....|... .. .. ....|... .. .. ....|... .. .. ....|... .. .. ....|... .. .. ....|... .. .. ....
2F |... .. .. ....|... .. .. ....|... .. .. ....|... .. .. ....|... .. .. ....|... .. .. ....|... .. .. ....|... .. .. ....|... .. .. ....|... .. .. ....|... .. .. ....|... .. .. ....|... .. .. ....|... .. .. ....|... .. .. ....|... .. .. ....
30 |... .. .. ....|... .. .. ....|... .. .. ....|... .. .. ....|... .. .. ....|... .. .. ....|... .. .. ....|... .. .. ....|... .. .. ....|... .. .. ....|... .. .. ....|... .. .. ....|... .. .. ....|... .. .. ....|... .. .. ....|... .. .. ....
31 |... .. .. ....|... .. .. ....|... .. .. ....|... .. .. ....|... .. .. ....|... .. .. ....|... .. .. ....|... .. .. ....|... .. .. ....|... .. .. ....|... .. .. ....|... .. .. ....|... .. .. ....|... .. .. ....|... .. .. ....|... .. .. ....
32 |... .. .. ....|... .. .. ....|... .. .. ....|... .. .. ....|... .. .. ....|... .. .. ....|... .. .. ....|... .. .. ....|... .. .. ....|... .. .. ....|... .. .. ....|... .. .. ....|... .. .. ....|... .. .. ....|... .. .. ....|... .. .. ....
33 |... .. .. ....|... .. .. ....|... .. .. ....|... .. .. ....|... .. .. ....|... .. .. ....|... .. .. ....|... .. .. ....|... .. .. ....|... .. .. ....|... .. .. ....|... .. .. ....|... .. .. ....|... .. .. ....|... .. .. ....|... .. .. ....
34 |... .. .. ....|... .. .. ....|... .. .. ....|... .. .. ....|... .. .. ....|... .. .. ....|... .. .. ....|... .. .. ....|... .. .. ....|... .. .. ....|... .. .. ....|... .. .. ....|... .. .. ....|... .. .. ....|... .. .. ....|... .. .. ....
35 |... .. .. ....|... .. .. ....|... .. .. ....|... .. .. ....|... .. .. ....|... .. .. ....|... .. .. ....|... .. .. ....|... .. .. ....|... .. .. ....|... .. .. ....|... .. .. ....|... .. .. ....|... .. .. ....|... .. .. ....|... .. .. ....
36 |... .. .. ....|... .. .. ....|... .. .. ....|... .. .. ....|... .. .. ....|... .. .. ....|... .. .. ....|... .. .. ....|... .. .. ....|... .. .. ....|... .. .. ....|... .. .. ....|... .. .. ....|... .. .. ....|... .. .. ....|... .. .. ....
37 |... .. .. ....|... .. .. ....|... .. .. ....|... .. .. ....|... .. .. ....|... .. .. ....|... .. .. ....|... .. .. ....|... .. .. ....|... .. .. ....|... .. .. ....|... .. .. ....|... .. .. ....|... .. .. ....|... .. .. ....|... .. .. ....
38 |... .. .. ....|... .. .. ....|... .. .. ....|... .. .. ....|... .. .. ....|... .. .. ....|... .. .. ....|... .. .. ....|... .. .. ....|... .. .. ....|... .. .. ....|... .. .. ....|... .. .. ....|... .. .. ....|... .. .. ....|... .. .. ....
39 |... .. .. ....|... .. .. ....|... .. .. ....|... .. .. ....|... .. .. ....|... .. .. ....|... .. .. ....|... .. .. ....|... .. .. ....|... .. .. ....|... .. .. ....|... .. .. ....|... .. .. ....|... .. .. ....|... .. .. ....|... .. .. ....
3A |... .. .. ....|... .. .. ....|... .. .. ....|... .. .. ....|... .. .. ....|... .. .. ....|... .. .. ....|... .. .. ....|... .. .. ....|... .. .. ....|... .. .. ....|... .. .. ....|... .. .. ....|... .. .. ....|... .. .. ....|... .. .. ....
3B |... .. .. ....|... .. .. ....|... .. .. ....|... .. .. ....|... .. .. ....|... .. .. ....|... .. .. ....|... .. .. ....|... .. .. ....|... .. .. ....|... .. .. ....|... .. .. ....|... .. .. ....|... .. .. ....|... .. .. ....|... .. .. ....
3C |... .. .. ....|... .. .. ....|... .. .. ....|... .. .. ....|... .. .. ....|... .. .. ....|... .. .. ....|... .. .. ....|... .. .. ....|... .. .. ....|... .. .. ....|... .. .. ....|... .. .. ....|... .. .. ....|... .. .. ....|... .. .. ....
3D |... .. .. ....|... .. .. ....|... .. .. ....|... .. .. ....|... .. .. ....|... .. .. ....|... .. .. ....|... .. .. ....|... .. .. ....|... .. .. ....|... .. .. ....|... .. .. ....|... .. .. ....|... .. .. ....|... .. .. ....|... .. .. ....
3E |... .. .. ....|... .. .. ....|... .. .. ....|... .. .. ....|... .. .. ....|... .. .. ....|... .. .. ....|... .. .. ....|... .. .. ....|... .. .. ....|... .. .. ....|... .. .. ....|... .. .. ....|... .. .. ....|... .. .. ....|... .. .. ....
3F |... .. .. ....|... .. .. ....|... .. .. ....|... .. .. ....|... .. .. ....|... .. .. ....|... .. .. ....|... .. .. ....|... .. .. ....|... .. .. ....|... .. .. ....|... .. .. ....|... .. .. ....|... .. .. ....|... .. .. ....|... .. .. ....
----- ORDER 08
00 |... .. .. ....|F-4 .. .. ....|A-4 .. .. ....|F-3 .. .. ....|D-4 .. .. ....|D-2 .. .. ....|D-6 03 .. ....|OFF .. .. ....|... .. .. ....|... .. .. ....|... .. .. ....|C-3 01 .. ....|... .. .. ....|... .. .. ....|... .. .. ....|... .. .. ....
01 |... .. .. ....|... .. .. ....|... .. .. ....|... .. .. ....|... .. .. ....|... .. .. ....|A-5 .. .. ....|... .. .. ....|... .. .. ....|... .. .. ....|... .. .. ....|... .. .. ....|C-3 .. .. ....|... .. .. ....|... .. .. ....|... .. .. ....
02 |... .. .. ....|... .. .. ....|... .. .. ....|... .. .. ....|... .. .. ....|D-3 .. .. ....|F-5 .. .. ....|... .. .. ....|... .. .. ....|... .. .. ....|... .. .. ....|C-3 02 .. ....|... .. .. ....|... .. .. ....|... .. .. ....|... .. .. ....
03 |... .. .. ....|... .. .. ....|... .. .. ....|... .. .. ....|... .. .. ....|... .. .. ....|D-6 .. .. ....|... .. .. ....|... .. .. ....|... .. .. ....|... .. .. ....|... .. .. ....|C-3 .. .. ....|... .. .. ....|... .. .. ....|... .. .. ....
04 |... .. .. ....|... .. .. ....|... .. .. ....|... .. .. ....|... .. .. ....|D-2 .. .. ....|A-5 .. .. ....|... .. .. ....|... .. .. ....|C-3 .. .. ....|... .. .. ....|... .. .. ....|C-3 .. .. ....|... .. .. ....|... .. .. ....|... .. .. ....
05 |... .. .. ....|... .. .. ....|... .. .. ....|... .. .. ....|... .. .. ....|... .. .. ....|F-5 .. .. ....|... .. .. ....|... .. .. ....|... .. .. ....|... .. .. ....|C-3 02 .. ....|... .. .. ....|... .. .. ....|... .. .. ....|... .. .. ....
06 |... .. .. ....|... .. .. ....|... .. .. ....|... .. .. ....|... .. .. ....|A-2 .. .. ....|D-6 .. .. ....|... .. .. ....|... .. .. ....|... .. .. ....|... .. .. ....|... .. .. ....|C-3 .. .. ....|... .. .. ....|... .. .. ....|... .. .. ....
07 |... .. .. ....|... .. .. ....|... .. .. ....|... .. .. ....|... .. .. ....|... .. .. ....|A-5 .. .. ....|... .. .. ....|... .. .. ....|... .. .. ....|... .. .. ....|... .. .. ....|C-3 .. .. ....|... .. .. ....|... .. .. ....|... .. .. ....
08 |... .. .. ....|... .. .. ....|... .. .. ....|... .. .. ....|... .. .. ....|A-1 .. .. ....|F-5 .. .. ....|... .. .. ....|... .. .. ....|C-3 .. .. ....|... .. .. ....|C-3 02 .. ....|... .. .. ....|... .. .. ....|... .. .. ....|... .. .. ....
09 |... .. .. ....|... .. .. ....|... .. .. ....|... .. .. ....|... .. .. ....|... .. .. ....|D-6 .. .. ....|... .. .. ....|... .. .. ....|... .. .. ....|... .. .. ....|... .. .. ....|C-3 .. .. ....|... .. .. ....|... .. .. ....|... .. .. ....
0A |... .. .. ....|... .. .. ....|... .. .. ....|... .. .. ....|... .. .. ....|D-2 .. .. ....|A-5 .. .. ....|... .. .. ....|... .. .. ....|... .. .. ....|... .. .. ....|... .. .. ....|C-3 .. .. ....|... .. .. ....|... .. .. ....|... .. .. ....
0B |... .. .. ....|... .. .. ....|... .. .. ....|... .. .. ....|... .. .. ....|... .. .. ....|F-5 .. .. ....|... .. .. ....|... .. .. ....|... .. .. ....|... .. .. ....|C-2 02 .. ....|... .. .. ....|... .. .. ....|... .. .. ....|... .. .. ....
0C |... .. .. ....|A-4 .. .. ....|C-5 .. .. ....|A-3 .. .. ....|E-4 .. .. ....|E-2 .. .. ....|C-6 .. .. ....|E-6 03 .. ....|... .. .. ....|... .. .. ....|... .. .. ....|C-3 01 .. ....|... .. .. ....|... .. .. ....|... .. .. ....|... .. .. ....
0D |... .. .. ....|... .. .. ....|... .. .. ....|... .. .. ....|... .. .. ....|... .. .. ....|OFF .. .. ....|OFF .. .. ....|... .. .. ....|... .. .. ....|... .. .. ....|... .. .. ....|... .. .. ....|... .. .. ....|... .. .. ....|... .. .. ....
0E |... .. .. ....|... .. .. ....|... .. .. ....|... .. .. ....|... .. .. ....|E-3 .. .. ....|... .. .. ....|... .. .. ....|... .. .. ....|... .. .. ....|... .. .. ....|... .. .. ....|... .. .. ....|... .. .. ....|... .. .. ....|... .. .. ....
0F |... .. .. ....|... .. .. ....|... .. .. ....|... .. .. ....|... .. .. ....|... .. .. ....|C-6 .. .. ....|E-6 .. .. ....|... .. .. ....|... .. .. ....|... .. .. ....|C-3 01 .. ....|... .. .. ....|... .. .. ....|... .. .. ....|... .. .. ....
10 |... .. .. ....|... .. .. ....|... .. .. ....|... .. .. ....|... .. .. ....|E-2 .. .. ....|OFF .. .. ....|OFF .. .. ....|... .. .. ....|C-3 .. .. ....|... .. .. ....|... .. .. ....|... .. .. ....|... .. .. ....|... .. .. ....|... .. .. ....
11 |... .. .. ....|... .. .. ....|... .. .. ....|... .. .. ....|... .. .. ....|... .. .. ....|... .. .. ....|... .. .. ....|... .. .. ....|... .. .. ....|... .. .. ....|... .. .. ....|... .. .. ....|... .. .. ....|... .. .. ....|... .. .. ....
12 |... .. .. ....|... .. .. ....|... .. .. ....|... .. .. ....|... .. .. ....|E-3 .. .. ....|C-6 .. .. ....|E-6 .. .. ....|... .. .. ....|... .. .. ....|... .. .. ....|C-3 01 .. ....|... .. .. ....|... .. .. ....|... .. .. ....|... .. .. ....
13 |... .. .. ....|... .. .. ....|... .. .. ....|... .. .. ....|... .. .. ....|... .. .. ....|... .. .. ....|... .. .. ....|... .. .. ....|... .. .. ....|... .. .. ....|... .. .. ....|... .. .. ....|... .. .. ....|... .. .. ....|... .. .. ....
14 |... .. .. ....|A#4 .. .. ....|D-5 .. .. ....|A#3 .. .. ....|F-4 .. .. ....|A#1 .. .. ....|F-6 .. .. ....|OFF .. .. ....|... .. .. ....|... .. .. ....|C-2 .. .. ....|C-3 01 .. ....|... .. .. ....|... .. .. ....|... .. .. ....|... .. .. ....
15 |... .. .. ....|... .. .. ....|... .. .. ....|... .. .. ....|... .. .. ....|... .. .. ....|D-6 .. .. ....|... .. .. ....|... .. .. ....|... .. .. ....|... .. .. ....|... .. .. ....|C-3 .. .. ....|... .. .. ....|... .. .. ....|... .. .. ....
16 |... .. .. ....|... .. .. ....|... .. .. ....|... .. .. ....|... .. .. ....|A#2 .. .. ....|A-5 .. .. ....|... .. .. ....|... .. .. ....|... .. .. ....|C-2 .. .. ....|C-3 02 .. ....|... .. .. ....|... .. .. ....|... .. .. ....|... .. .. ....
17 |... .. .. ....|... .. .. ....|... .. .. ....|... .. .. ....|... .. .. ....|... .. .. ....|F-6 .. .. ....|... .. .. ....|... .. .. ....|... .. .. ....|... .. .. ....|... .. .. ....|C-3 .. .. ....|... .. .. ....|... .. .. ....|... .. .. ....
18 |... .. .. ....|... .. .. ....|... .. .. ....|... .. .. ....|... .. .. ....|A#1 .. .. ....|D-6 .. .. ....|... .. .. ....|... .. .. ....|C-3 .. .. ....|C-2 .. .. ....|... .. .. ....|C-3 .. .. ....|... .. .. ....|... .. .. ....|... .. .. ....
19 |... .. .. ....|... .. .. ....|... .. .. ....|... .. .. ....|... .. .. ....|... .. .. ....|A-5 .. .. ....|... .. .. ....|... .. .. ....|... .. .. ....|... .. .. ....|C-3 02 .. ....|... .. .. ....|... .. .. ....|... .. .. ....|... .. .. ....
1A |... .. .. ....|... .. .. ....|... .. .. ....|... .. .. ....|... .. .. ....|F-2 .. .. ....|F-6 .. .. ....|... .. .. ....|... .. .. ....|... .. .. ....|C-2 .. .. ....|... .. .. ....|C-3 .. .. ....|... .. .. ....|... .. .. ....|... .. .. ....
1B |... .. .. ....|... .. .. ....|... .. .. ....|... .. .. ....|... .. .. ....|... .. .. ....|D-6 .. .. ....|... .. .. ....|... .. .. ....|... .. .. ....|... .. .. ....|... .. .. ....|C-3 .. .. ....|... .. .. ....|... .. .. ....|... .. .. ....
1C |... .. .. ....|... .. .. ....|... .. .. ....|... .. .. ....|... .. .. ....|F-1 .. .. ....|A-5 .. .. ....|... .. .. ....|... .. .. ....|C-3 .. .. ....|C-2 .. .. ....|C-3 02 .. ....|... .. .. ....|... .. .. ....|... .. .. ....|... .. .. ....
1D |... .. .. ....|... .. .. ....|... .. .. ....|... .. .. ....|... .. .. ....|... .. .. ....|F-6 .. .. ....|... .. .. ....|... .. .. ....|... .. .. ....|... .. .. ....|... .. .. ....|C-3 .. .. ....|... .. .. ....|... .. .. ....|... .. .. ....
1E |... .. .. ....|... .. .. ....|... .. .. ....|... .. .. ....|... .. .. ....|A#2 .. .. ....|D-6 .. .. ....|... .. .. ....|... .. .. ....|... .. .. ....|C-2 .. .. ....|... .. .. ....|C-3 .. .. ....|... .. .. ....|... .. .. ....|... .. .. ....
1F |... .. .. ....|... .. .. ....|... .. .. ....|... .. .. ....|... .. .. ....|... .. .. ....|A-5 .. .. ....|... .. .. ....|... .. .. ....|... .. .. ....|... .. .. ....|C-2 02 .. ....|... .. .. ....|... .. .. ....|... .. .. ....|... .. .. ....
20 |... .. .. ....|C-5 .. .. ....|E-5 .. .. ....|C-4 .. .. ....|G-4 .. .. ....|C-3 .. .. ....|E-6 .. .. ....|G-6 .. .. ....|... .. .. ....|... .. .. ....|C-2 .. .. ....|C-3 01 .. ....|... .. .. ....|... .. .. ....|... .. .. ....|... .. .. ....
21 |... .. .. ....|... .. .. ....|... .. .. ....|... .. .. ....|... .. .. ....|... .. .. ....|OFF .. .. ....|OFF .. .. ....|... .. .. ....|... .. .. ....|C-2 .. .. ....|... .. .. ....|... .. .. ....|... .. .. ....|... .. .. ....|... .. .. ....
22 |... .. .. ....|... .. .. ....|... .. .. ....|... .. .. ....|... .. .. ....|C-2 .. .. ....|... .. .. ....|... .. .. ....|... .. .. ....|... .. .. ....|C-2 .. .. ....|... .. .. ....|... .. .. ....|... .. .. ....|... .. .. ....|... .. .. ....
23 |... .. .. ....|... .. .. ....|... .. .. ....|... .. .. ....|... .. .. ....|... .. .. ....|E-6 .. .. ....|G-6 .. .. ....|... .. .. ....|... .. .. ....|C-2 .. .. ....|C-3 01 .. ....|... .. .. ....|... .. .. ....|... .. .. ....|... .. .. ....
24 |... .. .. ....|... .. .. ....|... .. .. ....|... .. .. ....|... .. .. ....|C-3 .. .. ....|OFF .. .. ....|OFF .. .. ....|... .. .. ....|C-3 .. .. ....|C-2 .. .. ....|... .. .. ....|... .. .. ....|... .. .. ....|... .. .. ....|... .. .. ....
25 |... .. .. ....|... .. .. ....|... .. .. ....|... .. .. ....|... .. .. ....|... .. .. ....|... .. .. ....|... .. .. ....|... .. .. ....|... .. .. ....|C-2 .. .. ....|... .. .. ....|... .. .. ....|... .. .. ....|... .. .. ....|... .. .. ....
26 |... .. .. ....|... .. .. ....|... .. .. ....|... .. .. ....|... .. .. ....|C-2 .. .. ....|E-6 .. .. ....|G-6 .. .. ....|... .. .. ....|... .. .. ....|C-2 .. .. ....|C-3 01 .. ....|... .. .. ....|... .. .. ....|... .. .. ....|... .. .. ....
27 |... .. .. ....|... .. .. ....|... .. .. ....|... .. .. ....|... .. .. ....|... .. .. ....|... .. .. ....|... .. .. ....|... .. .. ....|... .. .. ....|C-2 .. .. ....|... .. .. ....|... .. .. ....|... .. .. ....|... .. .. ....|... .. .. 0D..
28 |... .. .. ....|... .. .. ....|... .. .. ....|... .. .. ....|... .. .. ....|... .. .. ....|... .. .. ....|... .. .. ....|... .. .. ....|... .. .. ....|... .. .. ....|... .. .. ....|... .. .. ....|... .. .. ....|... .. .. ....|... .. .. ....
29 |... .. .. ....|... .. .. ....|... .. .. ....|... .. .. ....|... .. .. ....|... .. .. ....|... .. .. ....|... .. .. ....|... .. .. ....|... .. .. ....|... .. .. ....|... .. .. ....|... .. .. ....|... .. .. ....|... .. .. ....|... .. .. ....
2A |... .. .. ....|... .. .. ....|... .. .. ....|... .. .. ....|... .. .. ....|... .. .. ....|... .. .. ....|... .. .. ....|... .. .. ....|... .. .. ....|... .. .. ....|... .. .. ....|... .. .. ....|... .. .. ....|... .. .. ....|... .. .. ....
2B |... .. .. ....|... .. .. ....|... .. .. ....|... .. .. ....|... .. .. ....|... .. .. ....|... .. .. ....|... .. .. ....|... .. .. ....|... .. .. ....|... .. .. ....|... .. .. ....|... .. .. ....|... .. .. ....|... .. .. ....|... .. .. ....
2C |... .. .. ....|... .. .. ....|... .. .. ....|... .. .. ....|... .. .. ....|... .. .. ....|... .. .. ....|... .. .. ....|... .. .. ....|... .. .. ....|... .. .. ....|... .. .. ....|... .. .. ....|... .. .. ....|... .. .. ....|... .. .. ....
2D |... .. .. ....|... .. .. ....|... .. .. ....|... .. .. ....|... .. .. ....|... .. .. ....|... .. .. ....|... .. .. ....|... .. .. ....|... .. .. ....|... .. .. ....|... .. .. ....|... .. .. ....|... .. .. ....|... .. .. ....|... .. .. ....
2E |... .. .. ....|... .. .. ....|... .. .. ....|... .. .. ....|... .. .. ....|... .. .. ....|... .. .. ....|... .. .. ....|... .. .. ....|... .. .. ....|... .. .. ....|... .. .. ....|... .. .. ....|... .. .. ....|... .. .. ....|... .. .. ....
2F |... .. .. ....|... .. .. ....|... .. .. ....|... .. .. ....|... .. .. ....|... .. .. ....|... .. .. ....|... .. .. ....|... .. .. ....|... .. .. ....|... .. .. ....|... .. .. ....|... .. .. ....|... .. .. ....|... .. .. ....|... .. .. ....
30 |... .. .. ....|... .. .. ....|... .. .. ....|... .. .. ....|... .. .. ....|... .. .. ....|... .. .. ....|... .. .. ....|... .. .. ....|... .. .. ....|... .. .. ....|... .. .. ....|... .. .. ....|... .. .. ....|... .. .. ....|... .. .. ....
31 |... .. .. ....|... .. .. ....|... .. .. ....|... .. .. ....|... .. .. ....|... .. .. ....|... .. .. ....|... .. .. ....|... .. .. ....|... .. .. ....|... .. .. ....|... .. .. ....|... .. .. ....|... .. .. ....|... .. .. ....|... .. .. ....
32 |... .. .. ....|... .. .. ....|... .. .. ....|... .. .. ....|... .. .. ....|... .. .. ....|... .. .. ....|... .. .. ....|... .. .. ....|... .. .. ....|... .. .. ....|... .. .. ....|... .. .. ....|... .. .. ....|... .. .. ....|... .. .. ....
33 |... .. .. ....|... .. .. ....|... .. .. ....|... .. .. ....|... .. .. ....|... .. .. ....|... .. .. ....|... .. .. ....|... .. .. ....|... .. .. ....|... .. .. ....|... .. .. ....|... .. .. ....|... .. .. ....|... .. .. ....|... .. .. ....
34 |... .. .. ....|... .. .. ....|... .. .. ....|... .. .. ....|... .. .. ....|... .. .. ....|... .. .. ....|... .. .. ....|... .. .. ....|... .. .. ....|... .. .. ....|... .. .. ....|... .. .. ....|... .. .. ....|... .. .. ....|... .. .. ....
35 |... .. .. ....|... .. .. ....|... .. .. ....|... .. .. ....|... .. .. ....|... .. .. ....|... .. .. ....|... .. .. ....|... .. .. ....|... .. .. ....|... .. .. ....|... .. .. ....|... .. .. ....|... .. .. ....|... .. .. ....|... .. .. ....
36 |... .. .. ....|... .. .. ....|... .. .. ....|... .. .. ....|... .. .. ....|... .. .. ....|... .. .. ....|... .. .. ....|... .. .. ....|... .. .. ....|... .. .. ....|... .. .. ....|... .. .. ....|... .. .. ....|... .. .. ....|... .. .. ....
37 |... .. .. ....|... .. .. ....|... .. .. ....|... .. .. ....|... .. .. ....|... .. .. ....|... .. .. ....|... .. .. ....|... .. .. ....|... .. .. ....|... .. .. ....|... .. .. ....|... .. .. ....|... .. .. ....|... .. .. ....|... .. .. ....
38 |... .. .. ....|... .. .. ....|... .. .. ....|... .. .. ....|... .. .. ....|... .. .. ....|... .. .. ....|... .. .. ....|... .. .. ....|... .. .. ....|... .. .. ....|... .. .. ....|... .. .. ....|... .. .. ....|... .. .. ....|... .. .. ....
39 |... .. .. ....|... .. .. ....|... .. .. ....|... .. .. ....|... .. .. ....|... .. .. ....|... .. .. ....|... .. .. ....|... .. .. ....|... .. .. ....|... .. .. ....|... .. .. ....|... .. .. ....|... .. .. ....|... .. .. ....|... .. .. ....
3A |... .. .. ....|... .. .. ....|... .. .. ....|... .. .. ....|... .. .. ....|... .. .. ....|... .. .. ....|... .. .. ....|... .. .. ....|... .. .. ....|... .. .. ....|... .. .. ....|... .. .. ....|... .. .. ....|... .. .. ....|... .. .. ....
3B |... .. .. ....|... .. .. ....|... .. .. ....|... .. .. ....|... .. .. ....|... .. .. ....|... .. .. ....|... .. .. ....|... .. .. ....|... .. .. ....|... .. .. ....|... .. .. ....|... .. .. ....|... .. .. ....|... .. .. ....|... .. .. ....
3C |... .. .. ....|... .. .. ....|... .. .. ....|... .. .. ....|... .. .. ....|... .. .. ....|... .. .. ....|... .. .. ....|... .. .. ....|... .. .. ....|... .. .. ....|... .. .. ....|... .. .. ....|... .. .. ....|... .. .. ....|... .. .. ....
3D |... .. .. ....|... .. .. ....|... .. .. ....|... .. .. ....|... .. .. ....|... .. .. ....|... .. .. ....|... .. .. ....|... .. .. ....|... .. .. ....|... .. .. ....|... .. .. ....|... .. .. ....|... .. .. ....|... .. .. ....|... .. .. ....
3E |... .. .. ....|... .. .. ....|... .. .. ....|... .. .. ....|... .. .. ....|... .. .. ....|... .. .. ....|... .. .. ....|... .. .. ....|... .. .. ....|... .. .. ....|... .. .. ....|... .. .. ....|... .. .. ....|... .. .. ....|... .. .. ....
3F |... .. .. ....|... .. .. ....|... .. .. ....|... .. .. ....|... .. .. ....|... .. .. ....|... .. .. ....|... .. .. ....|... .. .. ....|... .. .. ....|... .. .. ....|... .. .. ....|... .. .. ....|... .. .. ....|... .. .. ....|... .. .. ....
----- ORDER 09
00 |D-5 00 7B ....|F-4 06 .. ....|A#4 06 .. ....|F-3 .. .. ....|D-4 .. .. ....|A#1 .. .. ....|OFF .. .. ....|OFF .. .. ....|... .. .. ....|... .. .. ....|... .. .. ....|C-2 01 .. ....|... .. .. ....|... .. .. ....|... .. .. ....|... .. .. ....
01 |... .. .. ....|... .. .. ....|... .. .. ....|... .. .. ....|... .. .. ....|... .. .. ....|... .. .. ....|... .. .. ....|... .. .. ....|... .. .. ....|... .. .. ....|... .. .. ....|C-2 .. .. ....|... .. .. ....|... .. .. ....|... .. .. ....
02 |... .. .. ....|... .. .. ....|... .. .. ....|... .. .. ....|... .. .. ....|A#2 .. .. ....|... .. .. ....|... .. .. ....|... .. .. ....|... .. .. ....|... .. .. ....|C-2 00 .. ....|... .. .. ....|... .. .. ....|... .. .. ....|... .. .. ....
03 |OFF .. .. ....|... .. .. ....|... .. .. ....|... .. .. ....|... .. .. ....|... .. .. ....|... .. .. ....|... .. .. ....|... .. .. ....|... .. .. ....|... .. .. ....|... .. .. ....|C-2 .. .. ....|... .. .. ....|... .. .. ....|... .. .. ....
04 |A-5 .. .. ....|... .. .. ....|... .. .. ....|... .. .. ....|... .. .. ....|A#1 .. .. ....|... .. .. ....|... .. .. ....|... .. .. ....|... .. .. ....|C-2 .. .. ....|... .. .. ....|C-2 .. .. ....|... .. .. ....|... .. .. ....|... .. .. ....
05 |... .. .. ....|... .. .. ....|... .. .. ....|... .. .. ....|... .. .. ....|... .. .. ....|... .. .. ....|... .. .. ....|... .. .. ....|... .. .. ....|... .. .. ....|... .. .. ....|C-2 .. .. ....|... .. .. ....|... .. .. ....|... .. .. ....
06 |... .. .. ....|... .. .. ....|... .. .. ....|... .. .. ....|... .. .. ....|A#2 .. .. ....|... .. .. ....|... .. .. ....|... .. .. ....|... .. .. ....|... .. .. ....|C-2 .. .. ....|... .. .. ....|... .. .. ....|... .. .. ....|... .. .. ....
07 |OFF .. .. ....|... .. .. ....|... .. .. ....|... .. .. ....|... .. .. ....|... .. .. ....|... .. .. ....|... .. .. ....|... .. .. ....|... .. .. ....|... .. .. ....|... .. .. ....|C-2 .. .. ....|... .. .. ....|... .. .. ....|... .. .. ....
08 |E-5 .. .. ....|G-4 .. .. ....|C-5 .. .. ....|G-3 .. .. ....|E-4 .. .. ....|C-2 .. .. ....|... .. .. ....|... .. .. ....|... .. .. ....|C-2 .. .. ....|... .. .. ....|... .. .. ....|C-2 .. .. ....|... .. .. ....|... .. .. ....|... .. .. ....
09 |... .. .. ....|... .. .. ....|... .. .. ....|... .. .. ....|... .. .. ....|... .. .. ....|... .. .. ....|... .. .. ....|... .. .. ....|... .. .. ....|... .. .. ....|... .. .. ....|C-2 .. .. ....|... .. .. ....|... .. .. ....|... .. .. ....
0A |... .. .. ....|... .. .. ....|... .. .. ....|... .. .. ....|... .. .. ....|C-3 .. .. ....|... .. .. ....|... .. .. ....|... .. .. ....|... .. .. ....|... .. .. ....|C-2 .. .. ....|... .. .. ....|... .. .. ....|... .. .. ....|... .. .. ....
0B |OFF .. .. ....|... .. .. ....|... .. .. ....|... .. .. ....|... .. .. ....|... .. .. ....|... .. .. ....|... .. .. ....|... .. .. ....|... .. .. ....|... .. .. ....|... .. .. ....|C-2 .. .. ....|... .. .. ....|... .. .. ....|... .. .. ....
0C |A-5 .. .. ....|... .. .. ....|... .. .. ....|... .. .. ....|... .. .. ....|C-2 .. .. ....|... .. .. ....|... .. .. ....|... .. .. ....|... .. .. ....|C-2 .. .. ....|... .. .. ....|C-2 .. .. ....|... .. .. ....|... .. .. ....|... .. .. ....
0D |... .. .. ....|... .. .. ....|... .. .. ....|... .. .. ....|... .. .. ....|... .. .. ....|... .. .. ....|... .. .. ....|... .. .. ....|... .. .. ....|... .. .. ....|... .. .. ....|C-2 .. .. ....|... .. .. ....|... .. .. ....|... .. .. ....
0E |... .. .. ....|... .. .. ....|... .. .. ....|... .. .. ....|... .. .. ....|C-3 .. .. ....|... .. .. ....|... .. .. ....|... .. .. ....|... .. .. ....|... .. .. ....|C-2 .. .. ....|... .. .. ....|... .. .. ....|... .. .. ....|... .. .. ....
0F |OFF .. .. ....|... .. .. ....|... .. .. ....|... .. .. ....|... .. .. ....|... .. .. ....|... .. .. ....|... .. .. ....|... .. .. ....|... .. .. ....|... .. .. ....|... .. .. ....|C-2 .. .. ....|... .. .. ....|... .. .. ....|... .. .. ....
10 |F-5 .. .. ....|A-4 .. .. ....|D-5 .. .. ....|A-3 .. .. ....|F-4 .. .. ....|D-2 .. .. ....|... .. .. ....|... .. .. ....|... .. .. ....|C-2 .. .. ....|... .. .. ....|... .. .. ....|C-2 .. .. ....|... .. .. ....|... .. .. ....|... .. .. ....
11 |... .. .. ....|... .. .. ....|... .. .. ....|... .. .. ....|... .. .. ....|... .. .. ....|... .. .. ....|... .. .. ....|... .. .. ....|... .. .. ....|... .. .. ....|... .. .. ....|C-2 .. .. ....|... .. .. ....|... .. .. ....|... .. .. ....
12 |... .. .. ....|... .. .. ....|... .. .. ....|... .. .. ....|... .. .. ....|D-3 .. .. ....|... .. .. ....|... .. .. ....|... .. .. ....|... .. .. ....|... .. .. ....|C-2 00 .. ....|... .. .. ....|... .. .. ....|... .. .. ....|... .. .. ....
13 |OFF .. .. ....|... .. .. ....|... .. .. ....|... .. .. ....|... .. .. ....|... .. .. ....|... .. .. ....|... .. .. ....|... .. .. ....|... .. .. ....|... .. .. ....|... .. .. ....|C-2 .. .. ....|... .. .. ....|... .. .. ....|... .. .. ....
14 |G-5 .. .. ....|... .. .. ....|... .. .. ....|... .. .. ....|... .. .. ....|D-2 .. .. ....|... .. .. ....|... .. .. ....|... .. .. ....|... .. .. ....|C-2 .. .. ....|... .. .. ....|C-2 .. .. ....|... .. .. ....|... .. .. ....|... .. .. ....
15 |... .. .. ....|... .. .. ....|... .. .. ....|... .. .. ....|... .. .. ....|... .. .. ....|... .. .. ....|... .. .. ....|... .. .. ....|... .. .. ....|... .. .. ....|... .. .. ....|C-2 .. .. ....|... .. .. ....|... .. .. ....|... .. .. ....
16 |A-5 .. .. ....|... .. .. ....|... .. .. ....|... .. .. ....|... .. .. ....|D-3 .. .. ....|... .. .. ....|... .. .. ....|... .. .. ....|... .. .. ....|... .. .. ....|C-2 .. .. ....|... .. .. ....|... .. .. ....|... .. .. ....|... .. .. ....
17 |... .. .. ....|... .. .. ....|... .. .. ....|... .. .. ....|... .. .. ....|... .. .. ....|... .. .. ....|... .. .. ....|... .. .. ....|... .. .. ....|... .. .. ....|... .. .. ....|C-2 .. .. ....|... .. .. ....|... .. .. ....|... .. .. ....
18 |G-5 .. .. ....|G-4 .. .. ....|B-4 .. .. ....|G-3 .. .. ....|D-4 .. .. ....|B-1 .. .. ....|... .. .. ....|... .. .. ....|... .. .. ....|C-2 .. .. ....|... .. .. ....|... .. .. ....|C-2 .. .. ....|... .. .. ....|... .. .. ....|... .. .. ....
19 |... .. .. ....|... .. .. ....|... .. .. ....|... .. .. ....|... .. .. ....|... .. .. ....|... .. .. ....|... .. .. ....|... .. .. ....|... .. .. ....|... .. .. ....|... .. .. ....|C-2 .. .. ....|... .. .. ....|... .. .. ....|... .. .. ....
1A |... .. .. ....|... .. .. ....|... .. .. ....|... .. .. ....|... .. .. ....|B-2 .. .. ....|... .. .. ....|... .. .. ....|... .. .. ....|... .. .. ....|... .. .. ....|C-2 .. .. ....|... .. .. ....|... .. .. ....|... .. .. ....|... .. .. ....
1B |OFF .. .. ....|... .. .. ....|... .. .. ....|... .. .. ....|... .. .. ....|... .. .. ....|... .. .. ....|... .. .. ....|... .. .. ....|... .. .. ....|... .. .. ....|... .. .. ....|C-2 .. .. ....|... .. .. ....|... .. .. ....|... .. .. ....
1C |C-6 .. .. ....|... .. .. ....|... .. .. ....|... .. .. ....|... .. .. ....|B-1 .. .. ....|... .. .. ....|... .. .. ....|... .. .. ....|... .. .. ....|C-2 .. .. ....|... .. .. ....|C-2 .. .. ....|... .. .. ....|... .. .. ....|... .. .. ....
1D |... .. .. ....|... .. .. ....|... .. .. ....|... .. .. ....|... .. .. ....|... .. .. ....|... .. .. ....|... .. .. ....|... .. .. ....|... .. .. ....|... .. .. ....|... .. .. ....|C-2 .. .. ....|... .. .. ....|... .. .. ....|... .. .. ....
1E |... .. .. ....|... .. .. ....|... .. .. ....|... .. .. ....|... .. .. ....|B-2 .. .. ....|... .. .. ....|... .. .. ....|... .. .. ....|... .. .. ....|... .. .. ....|C-2 .. .. ....|... .. .. ....|... .. .. ....|... .. .. ....|... .. .. ....
1F |OFF .. .. ....|... .. .. ....|... .. .. ....|... .. .. ....|... .. .. ....|... .. .. ....|... .. .. ....|... .. .. ....|... .. .. ....|... .. .. ....|... .. .. ....|... .. .. ....|C-2 .. .. ....|... .. .. ....|... .. .. ....|... .. .. ....
20 |D-6 .. .. ....|F-4 .. .. ....|A#4 .. .. ....|F-3 .. .. ....|D-4 .. .. ....|A#1 .. .. ....|... .. .. ....|... .. .. ....|... .. .. ....|C-2 .. .. ....|... .. .. ....|... .. .. ....|C-2 .. .. ....|... .. .. ....|... .. .. ....|... .. .. ....
21 |... .. .. ....|... .. .. ....|... .. .. ....|... .. .. ....|... .. .. ....|... .. .. ....|... .. .. ....|... .. .. ....|... .. .. ....|... .. .. ....|... .. .. ....|... .. .. ....|C-2 .. .. ....|... .. .. ....|... .. .. ....|... .. .. ....
22 |A-5 .. .. ....|... .. .. ....|... .. .. ....|... .. .. ....|... .. .. ....|A#2 .. .. ....|... .. .. ....|... .. .. ....|... .. .. ....|... .. .. ....|... .. .. ....|C-2 00 .. ....|... .. .. ....|... .. .. ....|... .. .. ....|... .. .. ....
23 |... .. .. ....|... .. .. ....|... .. .. ....|... .. .. ....|... .. .. ....|... .. .. ....|... .. .. ....|... .. .. ....|... .. .. ....|... .. .. ....|... .. .. ....|... .. .. ....|C-2 .. .. ....|... .. .. ....|... .. .. ....|... .. .. ....
24 |E-6 .. .. ....|... .. .. ....|... .. .. ....|... .. .. ....|... .. .. ....|A#1 .. .. ....|... .. .. ....|... .. .. ....|... .. .. ....|... .. .. ....|C-2 .. .. ....|... .. .. ....|C-2 .. .. ....|... .. .. ....|... .. .. ....|... .. .. ....
25 |... .. .. ....|... .. .. ....|... .. .. ....|... .. .. ....|... .. .. ....|... .. .. ....|... .. .. ....|... .. .. ....|... .. .. ....|... .. .. ....|... .. .. ....|... .. .. ....|C-2 .. .. ....|... .. .. ....|... .. .. ....|... .. .. ....
26 |F-6 .. .. ....|... .. .. ....|... .. .. ....|... .. .. ....|... .. .. ....|A#2 .. .. ....|... .. .. ....|... .. .. ....|... .. .. ....|... .. .. ....|... .. .. ....|C-2 .. .. ....|... .. .. ....|... .. .. ....|... .. .. ....|... .. .. ....
27 |... .. .. ....|... .. .. ....|... .. .. ....|... .. .. ....|... .. .. ....|... .. .. ....|... .. .. ....|... .. .. ....|... .. .. ....|... .. .. ....|... .. .. ....|... .. .. ....|C-2 .. .. ....|... .. .. ....|... .. .. ....|... .. .. ....
28 |E-6 .. .. ....|G-4 .. .. ....|C-5 .. .. ....|G-3 .. .. ....|E-4 .. .. ....|C-2 .. .. ....|... .. .. ....|... .. .. ....|... .. .. ....|C-2 .. .. ....|... .. .. ....|... .. .. ....|C-2 .. .. ....|... .. .. ....|... .. .. ....|... .. .. ....
29 |... .. .. ....|... .. .. ....|... .. .. ....|... .. .. ....|... .. .. ....|... .. .. ....|... .. .. ....|... .. .. ....|... .. .. ....|... .. .. ....|... .. .. ....|... .. .. ....|C-2 .. .. ....|... .. .. ....|... .. .. ....|... .. .. ....
2A |F-6 .. .. ....|... .. .. ....|... .. .. ....|... .. .. ....|... .. .. ....|C-3 .. .. ....|... .. .. ....|... .. .. ....|... .. .. ....|... .. .. ....|... .. .. ....|C-2 .. .. ....|... .. .. ....|... .. .. ....|... .. .. ....|... .. .. ....
2B |E-6 .. .. ....|... .. .. ....|... .. .. ....|... .. .. ....|... .. .. ....|... .. .. ....|... .. .. ....|... .. .. ....|... .. .. ....|... .. .. ....|... .. .. ....|... .. .. ....|C-2 .. .. ....|... .. .. ....|... .. .. ....|... .. .. ....
2C |D-6 .. .. ....|... .. .. ....|... .. .. ....|... .. .. ....|... .. .. ....|C-2 .. .. ....|... .. .. ....|... .. .. ....|... .. .. ....|... .. .. ....|C-2 .. .. ....|... .. .. ....|C-2 .. .. ....|... .. .. ....|... .. .. ....|... .. .. ....
2D |... .. .. ....|... .. .. ....|... .. .. ....|... .. .. ....|... .. .. ....|... .. .. ....|... .. .. ....|... .. .. ....|... .. .. ....|... .. .. ....|... .. .. ....|... .. .. ....|C-2 .. .. ....|... .. .. ....|... .. .. ....|... .. .. ....
2E |C-6 .. .. ....|... .. .. ....|... .. .. ....|... .. .. ....|... .. .. ....|C-3 .. .. ....|... .. .. ....|... .. .. ....|... .. .. ....|... .. .. ....|... .. .. ....|C-2 .. .. ....|... .. .. ....|... .. .. ....|... .. .. ....|... .. .. ....
2F |... .. .. ....|... .. .. ....|... .. .. ....|... .. .. ....|... .. .. ....|... .. .. ....|... .. .. ....|... .. .. ....|... .. .. ....|... .. .. ....|... .. .. ....|... .. .. ....|C-2 .. .. ....|... .. .. ....|... .. .. ....|... .. .. ....
30 |A-5 .. .. ....|A-4 .. .. ....|D-5 .. .. ....|A-3 .. .. ....|F-4 .. .. ....|D-2 .. .. ....|... .. .. ....|... .. .. ....|... .. .. ....|C-2 .. .. ....|... .. .. ....|... .. .. ....|C-2 .. .. ....|... .. .. ....|... .. .. ....|... .. .. ....
31 |... .. .. ....|... .. .. ....|... .. .. ....|... .. .. ....|... .. .. ....|... .. .. ....|... .. .. ....|... .. .. ....|... .. .. ....|... .. .. ....|... .. .. ....|... .. .. ....|C-2 .. .. ....|... .. .. ....|... .. .. ....|... .. .. ....
32 |C-6 .. .. ....|... .. .. ....|... .. .. ....|... .. .. ....|... .. .. ....|D-3 .. .. ....|... .. .. ....|... .. .. ....|... .. .. ....|... .. .. ....|... .. .. ....|C-2 00 .. ....|... .. .. ....|... .. .. ....|... .. .. ....|... .. .. ....
33 |... .. .. ....|... .. .. ....|... .. .. ....|... .. .. ....|... .. .. ....|... .. .. ....|... .. .. ....|... .. .. ....|... .. .. ....|... .. .. ....|... .. .. ....|... .. .. ....|C-2 .. .. ....|... .. .. ....|... .. .. ....|... .. .. ....
34 |G-5 .. .. ....|G-4 .. .. ....|C-5 .. .. ....|G-3 .. .. ....|E-4 .. .. ....|E-2 .. .. ....|... .. .. ....|... .. .. ....|... .. .. ....|... .. .. ....|C-2 .. .. ....|... .. .. ....|C-2 .. .. ....|... .. .. ....|... .. .. ....|... .. .. ....
35 |... .. .. ....|... .. .. ....|... .. .. ....|... .. .. ....|... .. .. ....|... .. .. ....|... .. .. ....|... .. .. ....|... .. .. ....|... .. .. ....|... .. .. ....|... .. .. ....|C-2 .. .. ....|... .. .. ....|... .. .. ....|... .. .. ....
36 |A-5 .. .. ....|... .. .. ....|... .. .. ....|... .. .. ....|... .. .. ....|E-3 .. .. ....|... .. .. ....|... .. .. ....|... .. .. ....|... .. .. ....|... .. .. ....|C-2 .. .. ....|... .. .. ....|... .. .. ....|... .. .. ....|... .. .. ....
37 |... .. .. ....|... .. .. ....|... .. .. ....|... .. .. ....|... .. .. ....|... .. .. ....|... .. .. ....|... .. .. ....|... .. .. ....|... .. .. ....|... .. .. ....|... .. .. ....|C-2 .. .. ....|... .. .. ....|... .. .. ....|... .. .. ....
38 |F-5 .. .. ....|F-4 .. .. ....|A-4 .. .. ....|F-3 .. .. ....|D-4 .. .. ....|F-2 .. .. ....|... .. .. ....|... .. .. ....|... .. .. ....|C-2 .. .. ....|... .. .. ....|... .. .. ....|C-2 .. .. ....|... .. .. ....|... .. .. ....|... .. .. ....
39 |... .. .. ....|... .. .. ....|... .. .. ....|... .. .. ....|... .. .. ....|... .. .. ....|... .. .. ....|... .. .. ....|... .. .. ....|... .. .. ....|... .. .. ....|... .. .. ....|C-2 .. .. ....|... .. .. ....|... .. .. ....|... .. .. ....
3A |... .. .. ....|... .. .. ....|... .. .. ....|... .. .. ....|... .. .. ....|F-3 .. .. ....|... .. .. ....|... .. .. ....|... .. .. ....|... .. .. ....|... .. .. ....|C-2 .. .. ....|... .. .. ....|... .. .. ....|... .. .. ....|... .. .. ....
3B |... .. .. ....|... .. .. ....|... .. .. ....|... .. .. ....|... .. .. ....|... .. .. ....|... .. .. ....|... .. .. ....|... .. .. ....|... .. .. ....|... .. .. ....|... .. .. ....|C-2 .. .. ....|... .. .. ....|... .. .. ....|... .. .. ....
3C |... .. .. ....|E-4 .. .. ....|G-4 .. .. ....|E-3 .. .. ....|C-4 .. .. ....|C-2 .. .. ....|... .. .. ....|... .. .. ....|... .. .. ....|... .. .. ....|C-2 .. .. ....|... .. .. ....|C-2 .. .. ....|... .. .. ....|... .. .. ....|... .. .. ....
3D |... .. .. ....|... .. .. ....|... .. .. ....|... .. .. ....|... .. .. ....|... .. .. ....|... .. .. ....|... .. .. ....|... .. .. ....|... .. .. ....|... .. .. ....|... .. .. ....|C-2 .. .. ....|... .. .. ....|... .. .. ....|... .. .. ....
3E |OFF .. .. ....|... .. .. ....|... .. .. ....|... .. .. ....|... .. .. ....|C-3 .. .. ....|... .. .. ....|... .. .. ....|... .. .. ....|... .. .. ....|... .. .. ....|C-2 .. .. ....|... .. .. ....|... .. .. ....|... .. .. ....|... .. .. ....
3F |... .. .. ....|... .. .. ....|... .. .. ....|... .. .. ....|... .. .. ....|... .. .. ....|... .. .. ....|... .. .. ....|... .. .. ....|... .. .. ....|... .. .. ....|... .. .. ....|C-2 .. .. ....|... .. .. ....|... .. .. ....|... .. .. ....
----- ORDER 0A
00 |D-5 .. .. ....|F-4 .. .. ....|A#4 06 .. ....|F-3 .. .. ....|D-4 .. .. ....|A#1 .. .. ....|... .. .. ....|... .. .. ....|... .. .. ....|C-2 .. .. ....|... .. .. ....|... .. .. ....|C-2 .. .. ....|... .. .. ....|... .. .. ....|... .. .. ....
01 |... .. .. ....|... .. .. ....|... .. .. ....|... .. .. ....|... .. .. ....|... .. .. ....|... .. .. ....|... .. .. ....|... .. .. ....|... .. .. ....|... .. .. ....|... .. .. ....|C-2 .. .. ....|... .. .. ....|... .. .. ....|... .. .. ....
02 |... .. .. ....|... .. .. ....|... .. .. ....|... .. .. ....|... .. .. ....|A#2 .. .. ....|... .. .. ....|... .. .. ....|... .. .. ....|... .. .. ....|... .. .. ....|C-2 00 .. ....|... .. .. ....|... .. .. ....|... .. .. ....|... .. .. ....
03 |OFF .. .. ....|... .. .. ....|... .. .. ....|... .. .. ....|... .. .. ....|... .. .. ....|... .. .. ....|... .. .. ....|... .. .. ....|... .. .. ....|... .. .. ....|... .. .. ....|C-2 .. .. ....|... .. .. ....|... .. .. ....|... .. .. ....
04 |A-5 .. .. ....|... .. .. ....|... .. .. ....|... .. .. ....|... .. .. ....|A#1 .. .. ....|... .. .. ....|... .. .. ....|... .. .. ....|... .. .. ....|C-2 .. .. ....|... .. .. ....|C-2 .. .. ....|... .. .. ....|... .. .. ....|... .. .. ....
05 |... .. .. ....|... .. .. ....|... .. .. ....|... .. .. ....|... .. .. ....|... .. .. ....|... .. .. ....|... .. .. ....|... .. .. ....|... .. .. ....|... .. .. ....|... .. .. ....|C-2 .. .. ....|... .. .. ....|... .. .. ....|... .. .. ....
06 |... .. .. ....|... .. .. ....|... .. .. ....|... .. .. ....|... .. .. ....|A#2 .. .. ....|... .. .. ....|... .. .. ....|... .. .. ....|... .. .. ....|... .. .. ....|C-2 .. .. ....|... .. .. ....|... .. .. ....|... .. .. ....|... .. .. ....
07 |OFF .. .. ....|... .. .. ....|... .. .. ....|... .. .. ....|... .. .. ....|... .. .. ....|... .. .. ....|... .. .. ....|... .. .. ....|... .. .. ....|... .. .. ....|... .. .. ....|C-2 .. .. ....|... .. .. ....|... .. .. ....|... .. .. ....
08 |E-5 .. .. ....|G-4 .. .. ....|C-5 .. .. ....|G-3 .. .. ....|E-4 .. .. ....|C-2 .. .. ....|... .. .. ....|... .. .. ....|... .. .. ....|C-2 .. .. ....|... .. .. ....|... .. .. ....|C-2 .. .. ....|... .. .. ....|... .. .. ....|... .. .. ....
09 |... .. .. ....|... .. .. ....|... .. .. ....|... .. .. ....|... .. .. ....|... .. .. ....|... .. .. ....|... .. .. ....|... .. .. ....|... .. .. ....|... .. .. ....|... .. .. ....|C-2 .. .. ....|... .. .. ....|... .. .. ....|... .. .. ....
0A |... .. .. ....|... .. .. ....|... .. .. ....|... .. .. ....|... .. .. ....|C-3 .. .. ....|... .. .. ....|... .. .. ....|... .. .. ....|... .. .. ....|... .. .. ....|C-2 .. .. ....|... .. .. ....|... .. .. ....|... .. .. ....|... .. .. ....
0B |OFF .. .. ....|... .. .. ....|... .. .. ....|... .. .. ....|... .. .. ....|... .. .. ....|... .. .. ....|... .. .. ....|... .. .. ....|... .. .. ....|... .. .. ....|... .. .. ....|C-2 .. .. ....|... .. .. ....|... .. .. ....|... .. .. ....
0C |A-5 .. .. ....|... .. .. ....|... .. .. ....|... .. .. ....|... .. .. ....|C-2 .. .. ....|... .. .. ....|... .. .. ....|... .. .. ....|... .. .. ....|C-2 .. .. ....|... .. .. ....|C-2 .. .. ....|... .. .. ....|... .. .. ....|... .. .. ....
0D |... .. .. ....|... .. .. ....|... .. .. ....|... .. .. ....|... .. .. ....|... .. .. ....|... .. .. ....|... .. .. ....|... .. .. ....|... .. .. ....|... .. .. ....|... .. .. ....|C-2 .. .. ....|... .. .. ....|... .. .. ....|... .. .. ....
0E |... .. .. ....|... .. .. ....|... .. .. ....|... .. .. ....|... .. .. ....|C-3 .. .. ....|... .. .. ....|... .. .. ....|... .. .. ....|... .. .. ....|... .. .. ....|C-2 .. .. ....|... .. .. ....|... .. .. ....|... .. .. ....|... .. .. ....
0F |OFF .. .. ....|... .. .. ....|... .. .. ....|... .. .. ....|... .. .. ....|... .. .. ....|... .. .. ....|... .. .. ....|... .. .. ....|... .. .. ....|... .. .. ....|... .. .. ....|C-2 .. .. ....|... .. .. ....|... .. .. ....|... .. .. ....
10 |F-5 .. .. ....|A-4 .. .. ....|D-5 .. .. ....|A-3 .. .. ....|F-4 .. .. ....|D-2 .. .. ....|... .. .. ....|... .. .. ....|... .. .. ....|C-2 .. .. ....|... .. .. ....|... .. .. ....|C-2 .. .. ....|... .. .. ....|... .. .. ....|... .. .. ....
11 |... .. .. ....|... .. .. ....|... .. .. ....|... .. .. ....|... .. .. ....|... .. .. ....|... .. .. ....|... .. .. ....|... .. .. ....|... .. .. ....|... .. .. ....|... .. .. ....|C-2 .. .. ....|... .. .. ....|... .. .. ....|... .. .. ....
12 |... .. .. ....|... .. .. ....|... .. .. ....|... .. .. ....|... .. .. ....|D-3 .. .. ....|... .. .. ....|... .. .. ....|... .. .. ....|... .. .. ....|... .. .. ....|C-2 00 .. ....|... .. .. ....|... .. .. ....|... .. .. ....|... .. .. ....
13 |OFF .. .. ....|... .. .. ....|... .. .. ....|... .. .. ....|... .. .. ....|... .. .. ....|... .. .. ....|... .. .. ....|... .. .. ....|... .. .. ....|... .. .. ....|... .. .. ....|C-2 .. .. ....|... .. .. ....|... .. .. ....|... .. .. ....
14 |G-5 .. .. ....|... .. .. ....|... .. .. ....|... .. .. ....|... .. .. ....|D-2 .. .. ....|... .. .. ....|... .. .. ....|... .. .. ....|... .. .. ....|C-2 .. .. ....|... .. .. ....|C-2 .. .. ....|... .. .. ....|... .. .. ....|... .. .. ....
15 |... .. .. ....|... .. .. ....|... .. .. ....|... .. .. ....|... .. .. ....|... .. .. ....|... .. .. ....|... .. .. ....|... .. .. ....|... .. .. ....|... .. .. ....|... .. .. ....|C-2 .. .. ....|... .. .. ....|... .. .. ....|... .. .. ....
16 |A-5 .. .. ....|... .. .. ....|... .. .. ....|... .. .. ....|... .. .. ....|D-3 .. .. ....|... .. .. ....|... .. .. ....|... .. .. ....|... .. .. ....|... .. .. ....|C-2 .. .. ....|... .. .. ....|... .. .. ....|... .. .. ....|... .. .. ....
17 |... .. .. ....|... .. .. ....|... .. .. ....|... .. .. ....|... .. .. ....|... .. .. ....|... .. .. ....|... .. .. ....|... .. .. ....|... .. .. ....|... .. .. ....|... .. .. ....|C-2 .. .. ....|... .. .. ....|... .. .. ....|... .. .. ....
18 |G-5 .. .. ....|G-4 .. .. ....|B-4 .. .. ....|G-3 .. .. ....|D-4 .. .. ....|B-1 .. .. ....|... .. .. ....|... .. .. ....|... .. .. ....|C-2 .. .. ....|... .. .. ....|... .. .. ....|C-2 .. .. ....|... .. .. ....|... .. .. ....|... .. .. ....
19 |... .. .. ....|... .. .. ....|... .. .. ....|... .. .. ....|... .. .. ....|... .. .. ....|... .. .. ....|... .. .. ....|... .. .. ....|... .. .. ....|... .. .. ....|... .. .. ....|C-2 .. .. ....|... .. .. ....|... .. .. ....|... .. .. ....
1A |... .. .. ....|... .. .. ....|... .. .. ....|... .. .. ....|... .. .. ....|B-2 .. .. ....|... .. .. ....|... .. .. ....|... .. .. ....|... .. .. ....|... .. .. ....|C-2 .. .. ....|... .. .. ....|... .. .. ....|... .. .. ....|... .. .. ....
1B |OFF .. .. ....|... .. .. ....|... .. .. ....|... .. .. ....|... .. .. ....|... .. .. ....|... .. .. ....|... .. .. ....|... .. .. ....|... .. .. ....|... .. .. ....|... .. .. ....|C-2 .. .. ....|... .. .. ....|... .. .. ....|... .. .. ....
1C |C-6 .. .. ....|... .. .. ....|... .. .. ....|... .. .. ....|... .. .. ....|B-1 .. .. ....|... .. .. ....|... .. .. ....|... .. .. ....|... .. .. ....|C-2 .. .. ....|... .. .. ....|C-2 .. .. ....|... .. .. ....|... .. .. ....|... .. .. ....
1D |... .. .. ....|... .. .. ....|... .. .. ....|... .. .. ....|... .. .. ....|... .. .. ....|... .. .. ....|... .. .. ....|... .. .. ....|... .. .. ....|... .. .. ....|... .. .. ....|C-2 .. .. ....|... .. .. ....|... .. .. ....|... .. .. ....
1E |... .. .. ....|... .. .. ....|... .. .. ....|... .. .. ....|... .. .. ....|B-2 .. .. ....|... .. .. ....|... .. .. ....|... .. .. ....|... .. .. ....|... .. .. ....|C-2 .. .. ....|... .. .. ....|... .. .. ....|... .. .. ....|... .. .. ....
1F |OFF .. .. ....|... .. .. ....|... .. .. ....|... .. .. ....|... .. .. ....|... .. .. ....|... .. .. ....|... .. .. ....|... .. .. ....|... .. .. ....|... .. .. ....|... .. .. ....|C-2 .. .. ....|... .. .. ....|... .. .. ....|... .. .. ....
20 |D-6 .. .. ....|F-4 .. .. ....|A#4 .. .. ....|F-3 .. .. ....|D-4 .. .. ....|A#1 .. .. ....|... .. .. ....|... .. .. ....|... .. .. ....|C-2 .. .. ....|... .. .. ....|... .. .. ....|C-2 .. .. ....|... .. .. ....|... .. .. ....|... .. .. ....
21 |... .. .. ....|... .. .. ....|... .. .. ....|... .. .. ....|... .. .. ....|... .. .. ....|... .. .. ....|... .. .. ....|... .. .. ....|... .. .. ....|... .. .. ....|... .. .. ....|C-2 .. .. ....|... .. .. ....|... .. .. ....|... .. .. ....
22 |A-5 .. .. ....|... .. .. ....|... .. .. ....|... .. .. ....|... .. .. ....|A#2 .. .. ....|... .. .. ....|... .. .. ....|... .. .. ....|... .. .. ....|... .. .. ....|C-2 00 .. ....|... .. .. ....|... .. .. ....|... .. .. ....|... .. .. ....
23 |... .. .. ....|... .. .. ....|... .. .. ....|... .. .. ....|... .. .. ....|... .. .. ....|... .. .. ....|... .. .. ....|... .. .. ....|... .. .. ....|... .. .. ....|... .. .. ....|C-2 .. .. ....|... .. .. ....|... .. .. ....|... .. .. ....
24 |E-6 .. .. ....|... .. .. ....|... .. .. ....|... .. .. ....|... .. .. ....|A#1 .. .. ....|... .. .. ....|... .. .. ....|... .. .. ....|... .. .. ....|C-2 .. .. ....|... .. .. ....|C-2 .. .. ....|... .. .. ....|... .. .. ....|... .. .. ....
25 |... .. .. ....|... .. .. ....|... .. .. ....|... .. .. ....|... .. .. ....|... .. .. ....|... .. .. ....|... .. .. ....|... .. .. ....|... .. .. ....|... .. .. ....|... .. .. ....|C-2 .. .. ....|... .. .. ....|... .. .. ....|... .. .. ....
26 |F-6 .. .. ....|... .. .. ....|... .. .. ....|... .. .. ....|... .. .. ....|A#2 .. .. ....|... .. .. ....|... .. .. ....|... .. .. ....|... .. .. ....|... .. .. ....|C-2 .. .. ....|... .. .. ....|... .. .. ....|... .. .. ....|... .. .. ....
27 |... .. .. ....|... .. .. ....|... .. .. ....|... .. .. ....|... .. .. ....|... .. .. ....|... .. .. ....|... .. .. ....|... .. .. ....|... .. .. ....|... .. .. ....|... .. .. ....|C-2 .. .. ....|... .. .. ....|... .. .. ....|... .. .. ....
28 |E-6 .. .. ....|G-4 .. .. ....|C-5 .. .. ....|G-3 .. .. ....|E-4 .. .. ....|C-2 .. .. ....|... .. .. ....|... .. .. ....|... .. .. ....|C-2 .. .. ....|... .. .. ....|... .. .. ....|C-2 .. .. ....|... .. .. ....|... .. .. ....|... .. .. ....
29 |... .. .. ....|... .. .. ....|... .. .. ....|... .. .. ....|... .. .. ....|... .. .. ....|... .. .. ....|... .. .. ....|... .. .. ....|... .. .. ....|... .. .. ....|... .. .. ....|C-2 .. .. ....|... .. .. ....|... .. .. ....|... .. .. ....
2A |F-6 .. .. ....|... .. .. ....|... .. .. ....|... .. .. ....|... .. .. ....|C-3 .. .. ....|... .. .. ....|... .. .. ....|... .. .. ....|... .. .. ....|... .. .. ....|C-2 .. .. ....|... .. .. ....|... .. .. ....|... .. .. ....|... .. .. ....
2B |E-6 .. .. ....|... .. .. ....|... .. .. ....|... .. .. ....|... .. .. ....|... .. .. ....|... .. .. ....|... .. .. ....|... .. .. ....|... .. .. ....|... .. .. ....|... .. .. ....|C-2 .. .. ....|... .. .. ....|... .. .. ....|... .. .. ....
2C |D-6 .. .. ....|... .. .. ....|... .. .. ....|... .. .. ....|... .. .. ....|C-2 .. .. ....|... .. .. ....|... .. .. ....|... .. .. ....|... .. .. ....|C-2 .. .. ....|... .. .. ....|C-2 .. .. ....|... .. .. ....|... .. .. ....|... .. .. ....
2D |... .. .. ....|... .. .. ....|... .. .. ....|... .. .. ....|... .. .. ....|... .. .. ....|... .. .. ....|... .. .. ....|... .. .. ....|... .. .. ....|... .. .. ....|... .. .. ....|C-2 .. .. ....|... .. .. ....|... .. .. ....|... .. .. ....
2E |C-6 .. .. ....|... .. .. ....|... .. .. ....|... .. .. ....|... .. .. ....|C-3 .. .. ....|... .. .. ....|... .. .. ....|... .. .. ....|... .. .. ....|... .. .. ....|C-2 .. .. ....|... .. .. ....|... .. .. ....|... .. .. ....|... .. .. ....
2F |... .. .. ....|... .. .. ....|... .. .. ....|... .. .. ....|... .. .. ....|... .. .. ....|... .. .. ....|... .. .. ....|... .. .. ....|... .. .. ....|... .. .. ....|... .. .. ....|C-2 .. .. ....|... .. .. ....|... .. .. ....|... .. .. ....
30 |D-6 .. .. ....|A-4 .. .. ....|D-5 .. .. ....|A-3 .. .. ....|F-4 .. .. ....|D-2 .. .. ....|... .. .. ....|... .. .. ....|... .. .. ....|C-2 .. .. ....|... .. .. ....|... .. .. ....|C-2 .. .. ....|... .. .. ....|... .. .. ....|... .. .. ....
31 |... .. .. ....|... .. .. ....|... .. .. ....|... .. .. ....|... .. .. ....|... .. .. ....|... .. .. ....|... .. .. ....|... .. .. ....|... .. .. ....|... .. .. ....|... .. .. ....|C-2 .. .. ....|... .. .. ....|... .. .. ....|... .. .. ....
32 |... .. .. ....|... .. .. ....|... .. .. ....|... .. .. ....|... .. .. ....|D-3 .. .. ....|... .. .. ....|... .. .. ....|... .. .. ....|... .. .. ....|... .. .. ....|C-2 00 .. ....|... .. .. ....|... .. .. ....|... .. .. ....|... .. .. ....
33 |... .. .. ....|... .. .. ....|... .. .. ....|... .. .. ....|... .. .. ....|... .. .. ....|... .. .. ....|... .. .. ....|... .. .. ....|... .. .. ....|... .. .. ....|... .. .. ....|C-2 .. .. ....|... .. .. ....|... .. .. ....|... .. .. ....
34 |... .. .. ....|C-5 .. .. ....|E-5 .. .. ....|C-4 .. .. ....|G-4 .. .. ....|E-2 .. .. ....|... .. .. ....|... .. .. ....|... .. .. ....|... .. .. ....|C-2 .. .. ....|... .. .. ....|C-2 .. .. ....|... .. .. ....|... .. .. ....|... .. .. ....
35 |... .. .. ....|... .. .. ....|... .. .. ....|... .. .. ....|... .. .. ....|... .. .. ....|... .. .. ....|... .. .. ....|... .. .. ....|... .. .. ....|... .. .. ....|... .. .. ....|C-2 .. .. ....|... .. .. ....|... .. .. ....|... .. .. ....
36 |... .. .. ....|... .. .. ....|... .. .. ....|... .. .. ....|... .. .. ....|E-3 .. .. ....|... .. .. ....|... .. .. ....|... .. .. ....|... .. .. ....|... .. .. ....|C-2 .. .. ....|... .. .. ....|... .. .. ....|... .. .. ....|... .. .. ....
37 |... .. .. ....|... .. .. ....|... .. .. ....|... .. .. ....|... .. .. ....|... .. .. ....|... .. .. ....|... .. .. ....|... .. .. ....|... .. .. ....|... .. .. ....|... .. .. ....|C-2 .. .. ....|... .. .. ....|... .. .. ....|... .. .. ....
38 |... .. .. ....|A-4 .. .. ....|D-5 .. .. ....|A-3 .. .. ....|F-4 .. .. ....|F-2 .. .. ....|... .. .. ....|... .. .. ....|... .. .. ....|C-2 .. .. ....|... .. .. ....|... .. .. ....|C-2 .. .. ....|... .. .. ....|... .. .. ....|... .. .. ....
39 |... .. .. ....|... .. .. ....|... .. .. ....|... .. .. ....|... .. .. ....|... .. .. ....|... .. .. ....|... .. .. ....|... .. .. ....|... .. .. ....|... .. .. ....|... .. .. ....|C-2 .. .. ....|... .. .. ....|... .. .. ....|... .. .. ....
3A |... .. .. ....|... .. .. ....|... .. .. ....|... .. .. ....|... .. .. ....|F-3 .. .. ....|... .. .. ....|... .. .. ....|... .. .. ....|... .. .. ....|... .. .. ....|C-2 .. .. ....|... .. .. ....|... .. .. ....|... .. .. ....|... .. .. ....
3B |... .. .. ....|... .. .. ....|... .. .. ....|... .. .. ....|... .. .. ....|... .. .. ....|... .. .. ....|... .. .. ....|... .. .. ....|... .. .. ....|... .. .. ....|... .. .. ....|C-2 .. .. ....|... .. .. ....|... .. .. ....|... .. .. ....
3C |... .. .. ....|G-4 .. .. ....|C-5 .. .. ....|G-3 .. .. ....|E-4 .. .. ....|C-2 .. .. ....|... .. .. ....|... .. .. ....|... .. .. ....|... .. .. ....|C-2 .. .. ....|... .. .. ....|C-2 .. .. ....|... .. .. ....|... .. .. ....|... .. .. ....
3D |... .. .. ....|... .. .. ....|... .. .. ....|... .. .. ....|... .. .. ....|... .. .. ....|... .. .. ....|... .. .. ....|... .. .. ....|... .. .. ....|... .. .. ....|... .. .. ....|C-2 .. .. ....|... .. .. ....|... .. .. ....|... .. .. ....
3E |OFF .. .. ....|... .. .. ....|... .. .. ....|... .. .. ....|... .. .. ....|C-3 .. .. ....|... .. .. ....|... .. .. ....|... .. .. ....|... .. .. ....|... .. .. ....|C-2 .. .. ....|... .. .. ....|... .. .. ....|... .. .. ....|... .. .. ....
3F |... .. .. ....|... .. .. ....|... .. .. ....|... .. .. ....|... .. .. ....|... .. .. ....|... .. .. ....|... .. .. ....|... .. .. ....|... .. .. ....|... .. .. ....|... .. .. ....|C-2 .. .. ....|... .. .. ....|... .. .. ....|... .. .. ....
----- ORDER 0B
00 |D-5 00 7B ....|F-4 06 .. ....|A#4 06 .. ....|F-3 .. .. ....|D-4 .. .. ....|A#1 .. .. ....|D-5 03 .. ....|A#4 03 .. ....|... .. .. ....|... .. .. ....|... .. .. ....|C-2 01 .. ....|... .. .. ....|... .. .. ....|... .. .. ....|... .. .. ....
01 |... .. .. ....|... .. .. ....|... .. .. ....|... .. .. ....|... .. .. ....|... .. .. ....|... .. .. ....|... .. .. ....|... .. .. ....|... .. .. ....|... .. .. ....|... .. .. ....|C-2 .. .. ....|... .. .. ....|... .. .. ....|... .. .. ....
02 |... .. .. ....|... .. .. ....|... .. .. ....|... .. .. ....|... .. .. ....|A#2 .. .. ....|OFF .. .. ....|OFF .. .. ....|... .. .. ....|... .. .. ....|... .. .. ....|C-2 00 .. ....|... .. .. ....|... .. .. ....|... .. .. ....|... .. .. ....
03 |OFF .. .. ....|... .. .. ....|... .. .. ....|... .. .. ....|... .. .. ....|... .. .. ....|... .. .. ....|... .. .. ....|... .. .. ....|... .. .. ....|... .. .. ....|... .. .. ....|C-2 .. .. ....|... .. .. ....|... .. .. ....|... .. .. ....
04 |A-5 .. .. ....|... .. .. ....|... .. .. ....|... .. .. ....|... .. .. ....|A#1 .. .. ....|A-5 .. .. ....|F-5 .. .. ....|... .. .. ....|... .. .. ....|C-2 .. .. ....|... .. .. ....|C-2 .. .. ....|... .. .. ....|... .. .. ....|... .. .. ....
05 |... .. .. ....|... .. .. ....|... .. .. ....|... .. .. ....|... .. .. ....|... .. .. ....|... .. .. ....|... .. .. ....|... .. .. ....|... .. .. ....|... .. .. ....|... .. .. ....|C-2 .. .. ....|... .. .. ....|... .. .. ....|... .. .. ....
06 |... .. .. ....|... .. .. ....|... .. .. ....|... .. .. ....|... .. .. ....|A#2 .. .. ....|OFF .. .. ....|OFF .. .. ....|... .. .. ....|... .. .. ....|... .. .. ....|C-2 .. .. ....|... .. .. ....|... .. .. ....|... .. .. ....|... .. .. ....
07 |OFF .. .. ....|... .. .. ....|... .. .. ....|... .. .. ....|... .. .. ....|... .. .. ....|... .. .. ....|... .. .. ....|... .. .. ....|... .. .. ....|... .. .. ....|... .. .. ....|C-2 .. .. ....|... .. .. ....|... .. .. ....|... .. .. ....
08 |E-5 .. .. ....|G-4 .. .. ....|C-5 .. .. ....|G-3 .. .. ....|E-4 .. .. ....|C-2 .. .. ....|E-5 .. .. ....|C-5 .. .. ....|... .. .. ....|C-2 .. .. ....|... .. .. ....|... .. .. ....|C-2 .. .. ....|... .. .. ....|... .. .. ....|... .. .. ....
09 |... .. .. ....|... .. .. ....|... .. .. ....|... .. .. ....|... .. .. ....|... .. .. ....|... .. .. ....|... .. .. ....|... .. .. ....|... .. .. ....|... .. .. ....|... .. .. ....|C-2 .. .. ....|... .. .. ....|... .. .. ....|... .. .. ....
0A |... .. .. ....|... .. .. ....|... .. .. ....|... .. .. ....|... .. .. ....|C-3 .. .. ....|OFF .. .. ....|OFF .. .. ....|... .. .. ....|... .. .. ....|... .. .. ....|C-2 .. .. ....|... .. .. ....|... .. .. ....|... .. .. ....|... .. .. ....
0B |OFF .. .. ....|... .. .. ....|... .. .. ....|... .. .. ....|... .. .. ....|... .. .. ....|... .. .. ....|... .. .. ....|... .. .. ....|... .. .. ....|... .. .. ....|... .. .. ....|C-2 .. .. ....|... .. .. ....|... .. .. ....|... .. .. ....
0C |A-5 .. .. ....|... .. .. ....|... .. .. ....|... .. .. ....|... .. .. ....|C-2 .. .. ....|A-5 .. .. ....|F-5 .. .. ....|... .. .. ....|... .. .. ....|C-2 .. .. ....|... .. .. ....|C-2 .. .. ....|... .. .. ....|... .. .. ....|... .. .. ....
0D |... .. .. ....|... .. .. ....|... .. .. ....|... .. .. ....|... .. .. ....|... .. .. ....|... .. .. ....|... .. .. ....|... .. .. ....|... .. .. ....|... .. .. ....|... .. .. ....|C-2 .. .. ....|... .. .. ....|... .. .. ....|... .. .. ....
0E |... .. .. ....|... .. .. ....|... .. .. ....|... .. .. ....|... .. .. ....|C-3 .. .. ....|OFF .. .. ....|OFF .. .. ....|... .. .. ....|... .. .. ....|... .. .. ....|C-2 .. .. ....|... .. .. ....|... .. .. ....|... .. .. ....|... .. .. ....
0F |OFF .. .. ....|... .. .. ....|... .. .. ....|... .. .. ....|... .. .. ....|... .. .. ....|... .. .. ....|... .. .. ....|... .. .. ....|... .. .. ....|... .. .. ....|... .. .. ....|C-2 .. .. ....|... .. .. ....|... .. .. ....|... .. .. ....
10 |F-5 .. .. ....|A-4 .. .. ....|D-5 .. .. ....|A-3 .. .. ....|F-4 .. .. ....|D-2 .. .. ....|F-5 .. .. ....|D-5 .. .. ....|... .. .. ....|C-2 .. .. ....|... .. .. ....|... .. .. ....|C-2 .. .. ....|... .. .. ....|... .. .. ....|... .. .. ....
11 |... .. .. ....|... .. .. ....|... .. .. ....|... .. .. ....|... .. .. ....|... .. .. ....|... .. .. ....|... .. .. ....|... .. .. ....|... .. .. ....|... .. .. ....|... .. .. ....|C-2 .. .. ....|... .. .. ....|... .. .. ....|... .. .. ....
12 |... .. .. ....|... .. .. ....|... .. .. ....|... .. .. ....|... .. .. ....|D-3 .. .. ....|OFF .. .. ....|OFF .. .. ....|... .. .. ....|... .. .. ....|... .. .. ....|C-2 00 .. ....|... .. .. ....|... .. .. ....|... .. .. ....|... .. .. ....
13 |OFF .. .. ....|... .. .. ....|... .. .. ....|... .. .. ....|... .. .. ....|... .. .. ....|... .. .. ....|... .. .. ....|... .. .. ....|... .. .. ....|... .. .. ....|... .. .. ....|C-2 .. .. ....|... .. .. ....|... .. .. ....|... .. .. ....
14 |G-5 .. .. ....|... .. .. ....|... .. .. ....|... .. .. ....|... .. .. ....|D-2 .. .. ....|G-5 .. .. ....|E-5 .. .. ....|... .. .. ....|... .. .. ....|C-2 .. .. ....|... .. .. ....|C-2 .. .. ....|... .. .. ....|... .. .. ....|... .. .. ....
15 |... .. .. ....|... .. .. ....|... .. .. ....|... .. .. ....|... .. .. ....|... .. .. ....|... .. .. ....|... .. .. ....|... .. .. ....|... .. .. ....|... .. .. ....|... .. .. ....|C-2 .. .. ....|... .. .. ....|... .. .. ....|... .. .. ....
16 |A-5 .. .. ....|... .. .. ....|... .. .. ....|... .. .. ....|... .. .. ....|D-3 .. .. ....|A-5 .. .. ....|F-5 .. .. ....|... .. .. ....|... .. .. ....|... .. .. ....|C-2 .. .. ....|... .. .. ....|... .. .. ....|... .. .. ....|... .. .. ....
17 |... .. .. ....|... .. .. ....|... .. .. ....|... .. .. ....|... .. .. ....|... .. .. ....|... .. .. ....|... .. .. ....|... .. .. ....|... .. .. ....|... .. .. ....|... .. .. ....|C-2 .. .. ....|... .. .. ....|... .. .. ....|... .. .. ....
18 |G-5 .. .. ....|G-4 .. .. ....|B-4 .. .. ....|G-3 .. .. ....|D-4 .. .. ....|B-1 .. .. ....|G-5 .. .. ....|E-5 .. .. ....|... .. .. ....|C-2 .. .. ....|... .. .. ....|... .. .. ....|C-2 .. .. ....|... .. .. ....|... .. .. ....|... .. .. ....
19 |... .. .. ....|... .. .. ....|... .. .. ....|... .. .. ....|... .. .. ....|... .. .. ....|... .. .. ....|... .. .. ....|... .. .. ....|... .. .. ....|... .. .. ....|... .. .. ....|C-2 .. .. ....|... .. .. ....|... .. .. ....|... .. .. ....
1A |... .. .. ....|... .. .. ....|... .. .. ....|... .. .. ....|... .. .. ....|B-2 .. .. ....|OFF .. .. ....|OFF .. .. ....|... .. .. ....|... .. .. ....|... .. .. ....|C-2 .. .. ....|... .. .. ....|... .. .. ....|... .. .. ....|... .. .. ....
1B |OFF .. .. ....|... .. .. ....|... .. .. ....|... .. .. ....|... .. .. ....|... .. .. ....|... .. .. ....|... .. .. ....|... .. .. ....|... .. .. ....|... .. .. ....|... .. .. ....|C-2 .. .. ....|... .. .. ....|... .. .. ....|... .. .. ....
1C |C-6 .. .. ....|... .. .. ....|... .. .. ....|... .. .. ....|... .. .. ....|B-1 .. .. ....|C-6 .. .. ....|G-5 .. .. ....|... .. .. ....|... .. .. ....|C-2 .. .. ....|... .. .. ....|C-2 .. .. ....|... .. .. ....|... .. .. ....|... .. .. ....
1D |... .. .. ....|... .. .. ....|... .. .. ....|... .. .. ....|... .. .. ....|... .. .. ....|... .. .. ....|... .. .. ....|... .. .. ....|... .. .. ....|... .. .. ....|... .. .. ....|C-2 .. .. ....|... .. .. ....|... .. .. ....|... .. .. ....
1E |... .. .. ....|... .. .. ....|... .. .. ....|... .. .. ....|... .. .. ....|B-2 .. .. ....|OFF .. .. ....|OFF .. .. ....|... .. .. ....|... .. .. ....|... .. .. ....|C-2 .. .. ....|... .. .. ....|... .. .. ....|... .. .. ....|... .. .. ....
1F |OFF .. .. ....|... .. .. ....|... .. .. ....|... .. .. ....|... .. .. ....|... .. .. ....|... .. .. ....|... .. .. ....|... .. .. ....|... .. .. ....|... .. .. ....|... .. .. ....|C-2 .. .. ....|... .. .. ....|... .. .. ....|... .. .. ....
20 |D-6 .. .. ....|F-4 .. .. ....|A#4 .. .. ....|F-3 .. .. ....|D-4 .. .. ....|A#1 .. .. ....|D-6 .. .. ....|A-5 .. .. ....|... .. .. ....|C-2 .. .. ....|... .. .. ....|... .. .. ....|C-2 .. .. ....|... .. .. ....|... .. .. ....|... .. .. ....
21 |... .. .. ....|... .. .. ....|... .. .. ....|... .. .. ....|... .. .. ....|... .. .. ....|... .. .. ....|... .. .. ....|... .. .. ....|... .. .. ....|... .. .. ....|... .. .. ....|C-2 .. .. ....|... .. .. ....|... .. .. ....|... .. .. ....
22 |A-5 .. .. ....|... .. .. ....|... .. .. ....|... .. .. ....|... .. .. ....|A#2 .. .. ....|A-5 .. .. ....|F-5 .. .. ....|... .. .. ....|... .. .. ....|... .. .. ....|C-2 00 .. ....|... .. .. ....|... .. .. ....|... .. .. ....|... .. .. ....
23 |... .. .. ....|... .. .. ....|... .. .. ....|... .. .. ....|... .. .. ....|... .. .. ....|... .. .. ....|... .. .. ....|... .. .. ....|... .. .. ....|... .. .. ....|... .. .. ....|C-2 .. .. ....|... .. .. ....|... .. .. ....|... .. .. ....
24 |E-6 .. .. ....|... .. .. ....|... .. .. ....|... .. .. ....|... .. .. ....|A#1 .. .. ....|E-6 .. .. ....|C-6 .. .. ....|... .. .. ....|... .. .. ....|C-2 .. .. ....|... .. .. ....|C-2 .. .. ....|... .. .. ....|... .. .. ....|... .. .. ....
25 |... .. .. ....|... .. .. ....|... .. .. ....|... .. .. ....|... .. .. ....|... .. .. ....|... .. .. ....|... .. .. ....|... .. .. ....|... .. .. ....|... .. .. ....|... .. .. ....|C-2 .. .. ....|... .. .. ....|... .. .. ....|... .. .. ....
26 |F-6 .. .. ....|... .. .. ....|... .. .. ....|... .. .. ....|... .. .. ....|A#2 .. .. ....|F-6 .. .. ....|D-6 .. .. ....|... .. .. ....|... .. .. ....|... .. .. ....|C-2 .. .. ....|... .. .. ....|... .. .. ....|... .. .. ....|... .. .. ....
27 |... .. .. ....|... .. .. ....|... .. .. ....|... .. .. ....|... .. .. ....|... .. .. ....|... .. .. ....|... .. .. ....|... .. .. ....|... .. .. ....|... .. .. ....|... .. .. ....|C-2 .. .. ....|... .. .. ....|... .. .. ....|... .. .. ....
28 |E-6 .. .. ....|G-4 .. .. ....|C-5 .. .. ....|G-3 .. .. ....|E-4 .. .. ....|C-2 .. .. ....|E-6 .. .. ....|C-6 .. .. ....|... .. .. ....|C-2 .. .. ....|... .. .. ....|... .. .. ....|C-2 .. .. ....|... .. .. ....|... .. .. ....|... .. .. ....
29 |... .. .. ....|... .. .. ....|... .. .. ....|... .. .. ....|... .. .. ....|... .. .. ....|... .. .. ....|... .. .. ....|... .. .. ....|... .. .. ....|... .. .. ....|... .. .. ....|C-2 .. .. ....|... .. .. ....|... .. .. ....|... .. .. ....
2A |F-6 .. .. ....|... .. .. ....|... .. .. ....|... .. .. ....|... .. .. ....|C-3 .. .. ....|F-6 .. .. ....|D-6 .. .. ....|... .. .. ....|... .. .. ....|... .. .. ....|C-2 .. .. ....|... .. .. ....|... .. .. ....|... .. .. ....|... .. .. ....
2B |E-6 .. .. ....|... .. .. ....|... .. .. ....|... .. .. ....|... .. .. ....|... .. .. ....|E-6 .. .. ....|C-6 .. .. ....|... .. .. ....|... .. .. ....|... .. .. ....|... .. .. ....|C-2 .. .. ....|... .. .. ....|... .. .. ....|... .. .. ....
2C |D-6 .. .. ....|... .. .. ....|... .. .. ....|... .. .. ....|... .. .. ....|C-2 .. .. ....|D-6 .. .. ....|A-5 .. .. ....|... .. .. ....|... .. .. ....|C-2 .. .. ....|... .. .. ....|C-2 .. .. ....|... .. .. ....|... .. .. ....|... .. .. ....
2D |... .. .. ....|... .. .. ....|... .. .. ....|... .. .. ....|... .. .. ....|... .. .. ....|... .. .. ....|... .. .. ....|... .. .. ....|... .. .. ....|... .. .. ....|... .. .. ....|C-2 .. .. ....|... .. .. ....|... .. .. ....|... .. .. ....
2E |C-6 .. .. ....|... .. .. ....|... .. .. ....|... .. .. ....|... .. .. ....|C-3 .. .. ....|C-6 .. .. ....|F-5 .. .. ....|... .. .. ....|... .. .. ....|... .. .. ....|C-2 .. .. ....|... .. .. ....|... .. .. ....|... .. .. ....|... .. .. ....
2F |... .. .. ....|... .. .. ....|... .. .. ....|... .. .. ....|... .. .. ....|... .. .. ....|... .. .. ....|... .. .. ....|... .. .. ....|... .. .. ....|... .. .. ....|... .. .. ....|C-2 .. .. ....|... .. .. ....|... .. .. ....|... .. .. ....
30 |A-5 .. .. ....|A-4 .. .. ....|D-5 .. .. ....|A-3 .. .. ....|F-4 .. .. ....|D-2 .. .. ....|A-5 .. .. ....|F-5 .. .. ....|... .. .. ....|C-2 .. .. ....|... .. .. ....|... .. .. ....|C-2 .. .. ....|... .. .. ....|... .. .. ....|... .. .. ....
31 |... .. .. ....|... .. .. ....|... .. .. ....|... .. .. ....|... .. .. ....|... .. .. ....|... .. .. ....|... .. .. ....|... .. .. ....|... .. .. ....|... .. .. ....|... .. .. ....|C-2 .. .. ....|... .. .. ....|... .. .. ....|... .. .. ....
32 |C-6 .. .. ....|... .. .. ....|... .. .. ....|... .. .. ....|... .. .. ....|D-3 .. .. ....|C-6 .. .. ....|A-5 .. .. ....|... .. .. ....|... .. .. ....|... .. .. ....|C-2 00 .. ....|... .. .. ....|... .. .. ....|... .. .. ....|... .. .. ....
33 |... .. .. ....|... .. .. ....|... .. .. ....|... .. .. ....|... .. .. ....|... .. .. ....|... .. .. ....|... .. .. ....|... .. .. ....|... .. .. ....|... .. .. ....|... .. .. ....|C-2 .. .. ....|... .. .. ....|... .. .. ....|... .. .. ....
34 |G-5 .. .. ....|G-4 .. .. ....|C-5 .. .. ....|G-3 .. .. ....|E-4 .. .. ....|E-2 .. .. ....|G-5 .. .. ....|E-5 .. .. ....|... .. .. ....|... .. .. ....|C-2 .. .. ....|... .. .. ....|C-2 .. .. ....|... .. .. ....|... .. .. ....|... .. .. ....
35 |... .. .. ....|... .. .. ....|... .. .. ....|... .. .. ....|... .. .. ....|... .. .. ....|... .. .. ....|... .. .. ....|... .. .. ....|... .. .. ....|... .. .. ....|... .. .. ....|C-2 .. .. ....|... .. .. ....|... .. .. ....|... .. .. ....
36 |A-5 .. .. ....|... .. .. ....|... .. .. ....|... .. .. ....|... .. .. ....|E-3 .. .. ....|A-5 .. .. ....|F-5 .. .. ....|... .. .. ....|... .. .. ....|... .. .. ....|C-2 .. .. ....|... .. .. ....|... .. .. ....|... .. .. ....|... .. .. ....
37 |... .. .. ....|... .. .. ....|... .. .. ....|... .. .. ....|... .. .. ....|... .. .. ....|... .. .. ....|... .. .. ....|... .. .. ....|... .. .. ....|... .. .. ....|... .. .. ....|C-2 .. .. ....|... .. .. ....|... .. .. ....|... .. .. ....
38 |F-5 .. .. ....|F-4 .. .. ....|A-4 .. .. ....|F-3 .. .. ....|D-4 .. .. ....|F-2 .. .. ....|F-5 .. .. ....|D-5 .. .. ....|... .. .. ....|C-2 .. .. ....|... .. .. ....|... .. .. ....|C-2 .. .. ....|... .. .. ....|... .. .. ....|... .. .. ....
39 |... .. .. ....|... .. .. ....|... .. .. ....|... .. .. ....|... .. .. ....|... .. .. ....|... .. .. ....|... .. .. ....|... .. .. ....|... .. .. ....|... .. .. ....|... .. .. ....|C-2 .. .. ....|... .. .. ....|... .. .. ....|... .. .. ....
3A |... .. .. ....|... .. .. ....|... .. .. ....|... .. .. ....|... .. .. ....|F-3 .. .. ....|... .. .. ....|... .. .. ....|... .. .. ....|... .. .. ....|... .. .. ....|C-2 .. .. ....|... .. .. ....|... .. .. ....|... .. .. ....|... .. .. ....
3B |... .. .. ....|... .. .. ....|... .. .. ....|... .. .. ....|... .. .. ....|... .. .. ....|... .. .. ....|... .. .. ....|... .. .. ....|... .. .. ....|... .. .. ....|... .. .. ....|C-2 .. .. ....|... .. .. ....|... .. .. ....|... .. .. ....
3C |... .. .. ....|E-4 .. .. ....|G-4 .. .. ....|E-3 .. .. ....|C-4 .. .. ....|C-2 .. .. ....|... .. .. ....|... .. .. ....|... .. .. ....|... .. .. ....|C-2 .. .. ....|... .. .. ....|C-2 .. .. ....|... .. .. ....|... .. .. ....|... .. .. ....
3D |... .. .. ....|... .. .. ....|... .. .. ....|... .. .. ....|... .. .. ....|... .. .. ....|... .. .. ....|... .. .. ....|... .. .. ....|... .. .. ....|... .. .. ....|... .. .. ....|C-2 .. .. ....|... .. .. ....|... .. .. ....|... .. .. ....
3E |OFF .. .. ....|... .. .. ....|... .. .. ....|... .. .. ....|... .. .. ....|C-3 .. .. ....|OFF .. .. ....|OFF .. .. ....|... .. .. ....|... .. .. ....|... .. .. ....|C-2 .. .. ....|... .. .. ....|... .. .. ....|... .. .. ....|... .. .. ....
3F |... .. .. ....|... .. .. ....|... .. .. ....|... .. .. ....|... .. .. ....|... .. .. ....|... .. .. ....|... .. .. ....|... .. .. ....|... .. .. ....|... .. .. ....|... .. .. ....|C-2 .. .. ....|... .. .. ....|... .. .. ....|... .. .. ....
----- ORDER 0C
00 |D-5 .. .. ....|F-4 .. .. ....|A#4 06 .. ....|F-3 .. .. ....|D-4 .. .. ....|A#1 .. .. ....|D-5 .. .. ....|A#4 .. .. ....|... .. .. ....|C-2 .. .. ....|... .. .. ....|... .. .. ....|C-2 .. .. ....|... .. .. ....|... .. .. ....|... .. .. ....
01 |... .. .. ....|... .. .. ....|... .. .. ....|... .. .. ....|... .. .. ....|... .. .. ....|... .. .. ....|... .. .. ....|... .. .. ....|... .. .. ....|... .. .. ....|... .. .. ....|C-2 .. .. ....|... .. .. ....|... .. .. ....|... .. .. ....
02 |... .. .. ....|... .. .. ....|... .. .. ....|... .. .. ....|... .. .. ....|A#2 .. .. ....|OFF .. .. ....|OFF .. .. ....|... .. .. ....|... .. .. ....|... .. .. ....|C-2 00 .. ....|... .. .. ....|... .. .. ....|... .. .. ....|... .. .. ....
03 |OFF .. .. ....|... .. .. ....|... .. .. ....|... .. .. ....|... .. .. ....|... .. .. ....|... .. .. ....|... .. .. ....|... .. .. ....|... .. .. ....|... .. .. ....|... .. .. ....|C-2 .. .. ....|... .. .. ....|... .. .. ....|... .. .. ....
04 |A-5 .. .. ....|... .. .. ....|... .. .. ....|... .. .. ....|... .. .. ....|A#1 .. .. ....|A-5 .. .. ....|F-5 .. .. ....|... .. .. ....|... .. .. ....|C-2 .. .. ....|... .. .. ....|C-2 .. .. ....|... .. .. ....|... .. .. ....|... .. .. ....
05 |... .. .. ....|... .. .. ....|... .. .. ....|... .. .. ....|... .. .. ....|... .. .. ....|... .. .. ....|... .. .. ....|... .. .. ....|... .. .. ....|... .. .. ....|... .. .. ....|C-2 .. .. ....|... .. .. ....|... .. .. ....|... .. .. ....
06 |... .. .. ....|... .. .. ....|... .. .. ....|... .. .. ....|... .. .. ....|A#2 .. .. ....|OFF .. .. ....|OFF .. .. ....|... .. .. ....|... .. .. ....|... .. .. ....|C-2 .. .. ....|... .. .. ....|... .. .. ....|... .. .. ....|... .. .. ....
07 |OFF .. .. ....|... .. .. ....|... .. .. ....|... .. .. ....|... .. .. ....|... .. .. ....|... .. .. ....|... .. .. ....|... .. .. ....|... .. .. ....|... .. .. ....|... .. .. ....|C-2 .. .. ....|... .. .. ....|... .. .. ....|... .. .. ....
08 |E-5 .. .. ....|G-4 .. .. ....|C-5 .. .. ....|G-3 .. .. ....|E-4 .. .. ....|C-2 .. .. ....|E-5 .. .. ....|C-5 .. .. ....|... .. .. ....|C-2 .. .. ....|... .. .. ....|... .. .. ....|C-2 .. .. ....|... .. .. ....|... .. .. ....|... .. .. ....
09 |... .. .. ....|... .. .. ....|... .. .. ....|... .. .. ....|... .. .. ....|... .. .. ....|... .. .. ....|... .. .. ....|... .. .. ....|... .. .. ....|... .. .. ....|... .. .. ....|C-2 .. .. ....|... .. .. ....|... .. .. ....|... .. .. ....
0A |... .. .. ....|... .. .. ....|... .. .. ....|... .. .. ....|... .. .. ....|C-3 .. .. ....|OFF .. .. ....|OFF .. .. ....|... .. .. ....|... .. .. ....|... .. .. ....|C-2 .. .. ....|... .. .. ....|... .. .. ....|... .. .. ....|... .. .. ....
0B |OFF .. .. ....|... .. .. ....|... .. .. ....|... .. .. ....|... .. .. ....|... .. .. ....|... .. .. ....|... .. .. ....|... .. .. ....|... .. .. ....|... .. .. ....|... .. .. ....|C-2 .. .. ....|... .. .. ....|... .. .. ....|... .. .. ....
0C |A-5 .. .. ....|... .. .. ....|... .. .. ....|... .. .. ....|... .. .. ....|C-2 .. .. ....|A-5 .. .. ....|F-5 .. .. ....|... .. .. ....|... .. .. ....|C-2 .. .. ....|... .. .. ....|C-2 .. .. ....|... .. .. ....|... .. .. ....|... .. .. ....
0D |... .. .. ....|... .. .. ....|... .. .. ....|... .. .. ....|... .. .. ....|... .. .. ....|... .. .. ....|... .. .. ....|... .. .. ....|... .. .. ....|... .. .. ....|... .. .. ....|C-2 .. .. ....|... .. .. ....|... .. .. ....|... .. .. ....
0E |... .. .. ....|... .. .. ....|... .. .. ....|... .. .. ....|... .. .. ....|C-3 .. .. ....|OFF .. .. ....|OFF .. .. ....|... .. .. ....|... .. .. ....|... .. .. ....|C-2 .. .. ....|... .. .. ....|... .. .. ....|... .. .. ....|... .. .. ....
0F |OFF .. .. ....|... .. .. ....|... .. .. ....|... .. .. ....|... .. .. ....|... .. .. ....|... .. .. ....|... .. .. ....|... .. .. ....|... .. .. ....|... .. .. ....|... .. .. ....|C-2 .. .. ....|... .. .. ....|... .. .. ....|... .. .. ....
10 |F-5 .. .. ....|A-4 .. .. ....|D-5 .. .. ....|A-3 .. .. ....|F-4 .. .. ....|D-2 .. .. ....|F-5 .. .. ....|D-5 .. .. ....|... .. .. ....|C-2 .. .. ....|... .. .. ....|... .. .. ....|C-2 .. .. ....|... .. .. ....|... .. .. ....|... .. .. ....
11 |... .. .. ....|... .. .. ....|... .. .. ....|... .. .. ....|... .. .. ....|... .. .. ....|... .. .. ....|... .. .. ....|... .. .. ....|... .. .. ....|... .. .. ....|... .. .. ....|C-2 .. .. ....|... .. .. ....|... .. .. ....|... .. .. ....
12 |... .. .. ....|... .. .. ....|... .. .. ....|... .. .. ....|... .. .. ....|D-3 .. .. ....|OFF .. .. ....|OFF .. .. ....|... .. .. ....|... .. .. ....|... .. .. ....|C-2 00 .. ....|... .. .. ....|... .. .. ....|... .. .. ....|... .. .. ....
13 |OFF .. .. ....|... .. .. ....|... .. .. ....|... .. .. ....|... .. .. ....|... .. .. ....|... .. .. ....|... .. .. ....|... .. .. ....|... .. .. ....|... .. .. ....|... .. .. ....|C-2 .. .. ....|... .. .. ....|... .. .. ....|... .. .. ....
14 |G-5 .. .. ....|... .. .. ....|... .. .. ....|... .. .. ....|... .. .. ....|D-2 .. .. ....|G-5 .. .. ....|E-5 .. .. ....|... .. .. ....|... .. .. ....|C-2 .. .. ....|... .. .. ....|C-2 .. .. ....|... .. .. ....|... .. .. ....|... .. .. ....
15 |... .. .. ....|... .. .. ....|... .. .. ....|... .. .. ....|... .. .. ....|... .. .. ....|... .. .. ....|... .. .. ....|... .. .. ....|... .. .. ....|... .. .. ....|... .. .. ....|C-2 .. .. ....|... .. .. ....|... .. .. ....|... .. .. ....
16 |A-5 .. .. ....|... .. .. ....|... .. .. ....|... .. .. ....|... .. .. ....|D-3 .. .. ....|A-5 .. .. ....|F-5 .. .. ....|... .. .. ....|... .. .. ....|... .. .. ....|C-2 .. .. ....|... .. .. ....|... .. .. ....|... .. .. ....|... .. .. ....
17 |... .. .. ....|... .. .. ....|... .. .. ....|... .. .. ....|... .. .. ....|... .. .. ....|... .. .. ....|... .. .. ....|... .. .. ....|... .. .. ....|... .. .. ....|... .. .. ....|C-2 .. .. ....|... .. .. ....|... .. .. ....|... .. .. ....
18 |G-5 .. .. ....|G-4 .. .. ....|B-4 .. .. ....|G-3 .. .. ....|D-4 .. .. ....|B-1 .. .. ....|G-5 .. .. ....|E-5 .. .. ....|... .. .. ....|C-2 .. .. ....|... .. .. ....|... .. .. ....|C-2 .. .. ....|... .. .. ....|... .. .. ....|... .. .. ....
19 |... .. .. ....|... .. .. ....|... .. .. ....|... .. .. ....|... .. .. ....|... .. .. ....|... .. .. ....|... .. .. ....|... .. .. ....|... .. .. ....|... .. .. ....|... .. .. ....|C-2 .. .. ....|... .. .. ....|... .. .. ....|... .. .. ....
1A |... .. .. ....|... .. .. ....|... .. .. ....|... .. .. ....|... .. .. ....|B-2 .. .. ....|OFF .. .. ....|OFF .. .. ....|... .. .. ....|... .. .. ....|... .. .. ....|C-2 .. .. ....|... .. .. ....|... .. .. ....|... .. .. ....|... .. .. ....
1B |OFF .. .. ....|... .. .. ....|... .. .. ....|... .. .. ....|... .. .. ....|... .. .. ....|... .. .. ....|... .. .. ....|... .. .. ....|... .. .. ....|... .. .. ....|... .. .. ....|C-2 .. .. ....|... .. .. ....|... .. .. ....|... .. .. ....
1C |C-6 .. .. ....|... .. .. ....|... .. .. ....|... .. .. ....|... .. .. ....|B-1 .. .. ....|C-6 .. .. ....|G-5 .. .. ....|... .. .. ....|... .. .. ....|C-2 .. .. ....|... .. .. ....|C-2 .. .. ....|... .. .. ....|... .. .. ....|... .. .. ....
1D |... .. .. ....|... .. .. ....|... .. .. ....|... .. .. ....|... .. .. ....|... .. .. ....|... .. .. ....|... .. .. ....|... .. .. ....|... .. .. ....|... .. .. ....|... .. .. ....|C-2 .. .. ....|... .. .. ....|... .. .. ....|... .. .. ....
1E |... .. .. ....|... .. .. ....|... .. .. ....|... .. .. ....|... .. .. ....|B-2 .. .. ....|OFF .. .. ....|OFF .. .. ....|... .. .. ....|... .. .. ....|... .. .. ....|C-2 .. .. ....|... .. .. ....|... .. .. ....|... .. .. ....|... .. .. ....
1F |OFF .. .. ....|... .. .. ....|... .. .. ....|... .. .. ....|... .. .. ....|... .. .. ....|... .. .. ....|... .. .. ....|... .. .. ....|... .. .. ....|... .. .. ....|... .. .. ....|C-2 .. .. ....|... .. .. ....|... .. .. ....|... .. .. ....
20 |D-6 .. .. ....|F-4 .. .. ....|A#4 .. .. ....|F-3 .. .. ....|D-4 .. .. ....|A#1 .. .. ....|D-6 .. .. ....|A-5 .. .. ....|... .. .. ....|C-2 .. .. ....|... .. .. ....|... .. .. ....|C-2 .. .. ....|... .. .. ....|... .. .. ....|... .. .. ....
21 |... .. .. ....|... .. .. ....|... .. .. ....|... .. .. ....|... .. .. ....|... .. .. ....|... .. .. ....|... .. .. ....|... .. .. ....|... .. .. ....|... .. .. ....|... .. .. ....|C-2 .. .. ....|... .. .. ....|... .. .. ....|... .. .. ....
22 |A-5 .. .. ....|... .. .. ....|... .. .. ....|... .. .. ....|... .. .. ....|A#2 .. .. ....|A-5 .. .. ....|F-5 .. .. ....|... .. .. ....|... .. .. ....|... .. .. ....|C-2 00 .. ....|... .. .. ....|... .. .. ....|... .. .. ....|... .. .. ....
23 |... .. .. ....|... .. .. ....|... .. .. ....|... .. .. ....|... .. .. ....|... .. .. ....|... .. .. ....|... .. .. ....|... .. .. ....|... .. .. ....|... .. .. ....|... .. .. ....|C-2 .. .. ....|... .. .. ....|... .. .. ....|... .. .. ....
24 |E-6 .. .. ....|... .. .. ....|... .. .. ....|... .. .. ....|... .. .. ....|A#1 .. .. ....|E-6 .. .. ....|C-6 .. .. ....|... .. .. ....|... .. .. ....|C-2 .. .. ....|... .. .. ....|C-2 .. .. ....|... .. .. ....|... .. .. ....|... .. .. ....
25 |... .. .. ....|... .. .. ....|... .. .. ....|... .. .. ....|... .. .. ....|... .. .. ....|... .. .. ....|... .. .. ....|... .. .. ....|... .. .. ....|... .. .. ....|... .. .. ....|C-2 .. .. ....|... .. .. ....|... .. .. ....|... .. .. ....
26 |F-6 .. .. ....|... .. .. ....|... .. .. ....|... .. .. ....|... .. .. ....|A#2 .. .. ....|F-6 .. .. ....|D-6 .. .. ....|... .. .. ....|... .. .. ....|... .. .. ....|C-2 .. .. ....|... .. .. ....|... .. .. ....|... .. .. ....|... .. .. ....
27 |... .. .. ....|... .. .. ....|... .. .. ....|... .. .. ....|... .. .. ....|... .. .. ....|... .. .. ....|... .. .. ....|... .. .. ....|... .. .. ....|... .. .. ....|... .. .. ....|C-2 .. .. ....|... .. .. ....|... .. .. ....|... .. .. ....
28 |E-6 .. .. ....|G-4 .. .. ....|C-5 .. .. ....|G-3 .. .. ....|E-4 .. .. ....|C-2 .. .. ....|E-6 .. .. ....|C-6 .. .. ....|... .. .. ....|C-2 .. .. ....|... .. .. ....|... .. .. ....|C-2 .. .. ....|... .. .. ....|... .. .. ....|... .. .. ....
29 |... .. .. ....|... .. .. ....|... .. .. ....|... .. .. ....|... .. .. ....|... .. .. ....|... .. .. ....|... .. .. ....|... .. .. ....|... .. .. ....|... .. .. ....|... .. .. ....|C-2 .. .. ....|... .. .. ....|... .. .. ....|... .. .. ....
2A |F-6 .. .. ....|... .. .. ....|... .. .. ....|... .. .. ....|... .. .. ....|C-3 .. .. ....|F-6 .. .. ....|D-6 .. .. ....|... .. .. ....|... .. .. ....|... .. .. ....|C-2 .. .. ....|... .. .. ....|... .. .. ....|... .. .. ....|... .. .. ....
2B |E-6 .. .. ....|... .. .. ....|... .. .. ....|... .. .. ....|... .. .. ....|... .. .. ....|E-6 .. .. ....|C-6 .. .. ....|... .. .. ....|... .. .. ....|... .. .. ....|... .. .. ....|C-2 .. .. ....|... .. .. ....|... .. .. ....|... .. .. ....
2C |D-6 .. .. ....|... .. .. ....|... .. .. ....|... .. .. ....|... .. .. ....|C-2 .. .. ....|D-6 .. .. ....|F-5 .. .. ....|... .. .. ....|... .. .. ....|C-2 .. .. ....|... .. .. ....|C-2 .. .. ....|... .. .. ....|... .. .. ....|... .. .. ....
2D |... .. .. ....|... .. .. ....|... .. .. ....|... .. .. ....|... .. .. ....|... .. .. ....|... .. .. ....|... .. .. ....|... .. .. ....|... .. .. ....|... .. .. ....|... .. .. ....|C-2 .. .. ....|... .. .. ....|... .. .. ....|... .. .. ....
2E |C-6 .. .. ....|... .. .. ....|... .. .. ....|... .. .. ....|... .. .. ....|C-3 .. .. ....|C-6 .. .. ....|F-5 .. .. ....|... .. .. ....|... .. .. ....|... .. .. ....|C-2 .. .. ....|... .. .. ....|... .. .. ....|... .. .. ....|... .. .. ....
2F |... .. .. ....|... .. .. ....|... .. .. ....|... .. .. ....|... .. .. ....|... .. .. ....|... .. .. ....|... .. .. ....|... .. .. ....|... .. .. ....|... .. .. ....|... .. .. ....|C-2 .. .. ....|... .. .. ....|... .. .. ....|... .. .. ....
30 |D-6 .. .. ....|A-4 .. .. ....|D-5 .. .. ....|A-3 .. .. ....|F-4 .. .. ....|D-2 .. .. ....|D-6 .. .. ....|A-5 .. .. ....|... .. .. ....|C-2 .. .. ....|... .. .. ....|... .. .. ....|C-2 .. .. ....|... .. .. ....|... .. .. ....|... .. .. ....
31 |... .. .. ....|... .. .. ....|... .. .. ....|... .. .. ....|... .. .. ....|... .. .. ....|... .. .. ....|... .. .. ....|... .. .. ....|... .. .. ....|... .. .. ....|... .. .. ....|C-2 .. .. ....|... .. .. ....|... .. .. ....|... .. .. ....
32 |... .. .. ....|... .. .. ....|... .. .. ....|... .. .. ....|... .. .. ....|D-3 .. .. ....|... .. .. ....|... .. .. ....|... .. .. ....|... .. .. ....|... .. .. ....|C-2 00 .. ....|... .. .. ....|... .. .. ....|... .. .. ....|... .. .. ....
33 |... .. .. ....|... .. .. ....|... .. .. ....|... .. .. ....|... .. .. ....|... .. .. ....|... .. .. ....|... .. .. ....|... .. .. ....|... .. .. ....|... .. .. ....|... .. .. ....|C-2 .. .. ....|... .. .. ....|... .. .. ....|... .. .. ....
34 |... .. .. ....|C-5 .. .. ....|E-5 .. .. ....|C-4 .. .. ....|G-4 .. .. ....|E-2 .. .. ....|... .. .. ....|... .. .. ....|... .. .. ....|... .. .. ....|C-2 .. .. ....|... .. .. ....|C-2 .. .. ....|... .. .. ....|... .. .. ....|... .. .. ....
35 |... .. .. ....|... .. .. ....|... .. .. ....|... .. .. ....|... .. .. ....|... .. .. ....|... .. .. ....|... .. .. ....|... .. .. ....|... .. .. ....|... .. .. ....|... .. .. ....|C-2 .. .. ....|... .. .. ....|... .. .. ....|... .. .. ....
36 |... .. .. ....|... .. .. ....|... .. .. ....|... .. .. ....|... .. .. ....|E-3 .. .. ....|... .. .. ....|... .. .. ....|... .. .. ....|... .. .. ....|... .. .. ....|C-2 .. .. ....|... .. .. ....|... .. .. ....|... .. .. ....|... .. .. ....
37 |... .. .. ....|... .. .. ....|... .. .. ....|... .. .. ....|... .. .. ....|... .. .. ....|... .. .. ....|... .. .. ....|... .. .. ....|... .. .. ....|... .. .. ....|... .. .. ....|C-2 .. .. ....|... .. .. ....|... .. .. ....|... .. .. ....
38 |... .. .. ....|D-5 .. .. ....|F-5 .. .. ....|D-4 .. .. ....|A-4 .. .. ....|F-2 .. .. ....|... .. .. ....|... .. .. ....|... .. .. ....|C-2 .. .. ....|... .. .. ....|... .. .. ....|C-2 .. .. ....|... .. .. ....|... .. .. ....|... .. .. ....
39 |... .. .. ....|... .. .. ....|... .. .. ....|... .. .. ....|... .. .. ....|... .. .. ....|... .. .. ....|... .. .. ....|... .. .. ....|... .. .. ....|... .. .. ....|... .. .. ....|C-2 .. .. ....|... .. .. ....|... .. .. ....|... .. .. ....
3A |... .. .. ....|... .. .. ....|... .. .. ....|... .. .. ....|... .. .. ....|F-3 .. .. ....|... .. .. ....|... .. .. ....|... .. .. ....|... .. .. ....|... .. .. ....|C-2 .. .. ....|... .. .. ....|... .. .. ....|... .. .. ....|... .. .. ....
3B |... .. .. ....|... .. .. ....|... .. .. ....|... .. .. ....|... .. .. ....|... .. .. ....|... .. .. ....|... .. .. ....|... .. .. ....|... .. .. ....|... .. .. ....|... .. .. ....|C-2 .. .. ....|... .. .. ....|... .. .. ....|... .. .. ....
3C |... .. .. ....|E-5 .. .. ....|G-5 .. .. ....|E-4 .. .. ....|C-5 .. .. ....|G-2 .. .. ....|... .. .. ....|... .. .. ....|... .. .. ....|... .. .. ....|C-2 .. .. ....|... .. .. ....|C-2 .. .. ....|... .. .. ....|... .. .. ....|... .. .. ....
3D |... .. .. ....|... .. .. ....|... .. .. ....|... .. .. ....|... .. .. ....|... .. .. ....|... .. .. ....|... .. .. ....|... .. .. ....|... .. .. ....|... .. .. ....|... .. .. ....|C-2 .. .. ....|... .. .. ....|... .. .. ....|... .. .. ....
3E |OFF .. .. ....|... .. .. ....|... .. .. ....|... .. .. ....|... .. .. ....|G-3 .. .. ....|OFF .. .. ....|OFF .. .. ....|... .. .. ....|... .. .. ....|... .. .. ....|C-2 .. .. ....|... .. .. ....|... .. .. ....|... .. .. ....|... .. .. ....
3F |... .. .. ....|... .. .. ....|... .. .. ....|... .. .. ....|... .. .. ....|... .. .. ....|... .. .. ....|... .. .. ....|... .. .. ....|... .. .. ....|... .. .. ....|... .. .. ....|C-2 .. .. ....|... .. .. ....|... .. .. ....|... .. .. ....
----- ORDER 0D
00 |D-6 03 72 ....|A-4 06 .. ....|D-5 06 .. ....|A-3 01 .. ....|F-4 01 .. ....|D-2 .. .. ....|OFF .. .. ....|OFF .. .. ....|... .. .. ....|C-2 .. .. ....|... .. .. ....|... .. .. ....|C-2 .. .. ....|... .. .. ....|... .. .. ....|... .. .. ....
01 |... .. .. ....|... .. .. ....|... .. .. ....|... .. .. ....|... .. .. ....|... .. .. ....|... .. .. ....|... .. .. ....|... .. .. ....|... .. .. ....|... .. .. ....|... .. .. ....|C-2 .. .. ....|... .. .. ....|... .. .. ....|... .. .. ....
02 |A-5 .. .. ....|... .. .. ....|... .. .. ....|... .. .. ....|... .. .. ....|D-3 .. .. ....|... .. .. ....|... .. .. ....|... .. .. ....|... .. .. ....|... .. .. ....|C-2 00 .. ....|... .. .. ....|... .. .. ....|... .. .. ....|... .. .. ....
03 |... .. .. ....|... .. .. ....|... .. .. ....|... .. .. ....|... .. .. ....|D-3 .. .. ....|... .. .. ....|... .. .. ....|... .. .. ....|... .. .. ....|... .. .. ....|... .. .. ....|C-2 .. .. ....|... .. .. ....|... .. .. ....|... .. .. ....
04 |C-6 .. .. ....|... .. .. ....|... .. .. ....|... .. .. ....|... .. .. ....|D-2 .. .. ....|... .. .. ....|... .. .. ....|... .. .. ....|... .. .. ....|C-2 .. .. ....|... .. .. ....|C-2 .. .. ....|... .. .. ....|... .. .. ....|... .. .. ....
05 |... .. .. ....|... .. .. ....|... .. .. ....|... .. .. ....|... .. .. ....|... .. .. ....|... .. .. ....|... .. .. ....|... .. .. ....|... .. .. ....|... .. .. ....|... .. .. ....|C-2 .. .. ....|... .. .. ....|... .. .. ....|... .. .. ....
06 |G-5 .. .. ....|... .. .. ....|... .. .. ....|... .. .. ....|... .. .. ....|D-3 .. .. ....|... .. .. ....|... .. .. ....|... .. .. ....|... .. .. ....|... .. .. ....|C-2 .. .. ....|... .. .. ....|... .. .. ....|... .. .. ....|... .. .. ....
07 |... .. .. ....|... .. .. ....|... .. .. ....|... .. .. ....|... .. .. ....|D-3 .. .. ....|... .. .. ....|... .. .. ....|... .. .. ....|... .. .. ....|... .. .. ....|... .. .. ....|C-2 .. .. ....|... .. .. ....|... .. .. ....|... .. .. ....
08 |A-5 .. .. ....|... .. .. ....|... .. .. ....|... .. .. ....|... .. .. ....|D-2 .. .. ....|... .. .. ....|... .. .. ....|... .. .. ....|C-2 .. .. ....|... .. .. ....|... .. .. ....|C-2 .. .. ....|... .. .. ....|... .. .. ....|... .. .. ....
09 |... .. .. ....|... .. .. ....|... .. .. ....|... .. .. ....|... .. .. ....|... .. .. ....|... .. .. ....|... .. .. ....|... .. .. ....|... .. .. ....|... .. .. ....|... .. .. ....|C-2 .. .. ....|... .. .. ....|... .. .. ....|... .. .. ....
0A |F-5 .. .. ....|... .. .. ....|... .. .. ....|... .. .. ....|... .. .. ....|D-3 .. .. ....|... .. .. ....|... .. .. ....|... .. .. ....|... .. .. ....|... .. .. ....|C-2 .. .. ....|... .. .. ....|... .. .. ....|... .. .. ....|... .. .. ....
0B |... .. .. ....|... .. .. ....|... .. .. ....|... .. .. ....|... .. .. ....|D-3 .. .. ....|... .. .. ....|... .. .. ....|... .. .. ....|... .. .. ....|... .. .. ....|... .. .. ....|C-2 .. .. ....|... .. .. ....|... .. .. ....|... .. .. ....
0C |G-5 .. .. ....|... .. .. ....|... .. .. ....|... .. .. ....|... .. .. ....|D-2 .. .. ....|... .. .. ....|... .. .. ....|... .. .. ....|... .. .. ....|C-2 .. .. ....|... .. .. ....|C-2 .. .. ....|... .. .. ....|... .. .. ....|... .. .. ....
0D |... .. .. ....|... .. .. ....|... .. .. ....|... .. .. ....|... .. .. ....|... .. .. ....|... .. .. ....|... .. .. ....|... .. .. ....|... .. .. ....|... .. .. ....|... .. .. ....|C-2 .. .. ....|... .. .. ....|... .. .. ....|... .. .. ....
0E |E-5 .. .. ....|... .. .. ....|... .. .. ....|... .. .. ....|... .. .. ....|D-3 .. .. ....|... .. .. ....|... .. .. ....|... .. .. ....|... .. .. ....|... .. .. ....|C-2 .. .. ....|... .. .. ....|... .. .. ....|... .. .. ....|... .. .. ....
0F |... .. .. ....|... .. .. ....|... .. .. ....|... .. .. ....|... .. .. ....|D-3 .. .. ....|... .. .. ....|... .. .. ....|... .. .. ....|... .. .. ....|... .. .. ....|... .. .. ....|C-2 .. .. ....|... .. .. ....|... .. .. ....|... .. .. ....
10 |F-5 .. .. ....|... .. .. ....|... .. .. ....|... .. .. ....|... .. .. ....|D-2 .. .. ....|... .. .. ....|... .. .. ....|... .. .. ....|C-2 .. .. ....|... .. .. ....|... .. .. ....|C-2 .. .. ....|... .. .. ....|... .. .. ....|... .. .. ....
11 |... .. .. ....|... .. .. ....|... .. .. ....|... .. .. ....|... .. .. ....|... .. .. ....|... .. .. ....|... .. .. ....|... .. .. ....|... .. .. ....|... .. .. ....|... .. .. ....|C-2 .. .. ....|... .. .. ....|... .. .. ....|... .. .. ....
12 |D-5 .. .. ....|... .. .. ....|... .. .. ....|... .. .. ....|... .. .. ....|D-3 .. .. ....|... .. .. ....|... .. .. ....|... .. .. ....|... .. .. ....|... .. .. ....|C-2 00 .. ....|... .. .. ....|... .. .. ....|... .. .. ....|... .. .. ....
13 |... .. .. ....|... .. .. ....|... .. .. ....|... .. .. ....|... .. .. ....|D-3 .. .. ....|... .. .. ....|... .. .. ....|... .. .. ....|... .. .. ....|... .. .. ....|... .. .. ....|C-2 .. .. ....|... .. .. ....|... .. .. ....|... .. .. ....
14 |E-5 .. .. ....|... .. .. ....|... .. .. ....|... .. .. ....|... .. .. ....|D-2 .. .. ....|... .. .. ....|... .. .. ....|... .. .. ....|... .. .. ....|C-2 .. .. ....|... .. .. ....|C-2 .. .. ....|... .. .. ....|... .. .. ....|... .. .. ....
15 |... .. .. ....|... .. .. ....|... .. .. ....|... .. .. ....|... .. .. ....|... .. .. ....|... .. .. ....|... .. .. ....|... .. .. ....|... .. .. ....|... .. .. ....|... .. .. ....|C-2 .. .. ....|... .. .. ....|... .. .. ....|... .. .. ....
16 |C-5 .. .. ....|... .. .. ....|... .. .. ....|... .. .. ....|... .. .. ....|D-3 .. .. ....|... .. .. ....|... .. .. ....|... .. .. ....|... .. .. ....|... .. .. ....|C-2 .. .. ....|... .. .. ....|... .. .. ....|... .. .. ....|... .. .. ....
17 |... .. .. ....|... .. .. ....|... .. .. ....|... .. .. ....|... .. .. ....|D-3 .. .. ....|... .. .. ....|... .. .. ....|... .. .. ....|... .. .. ....|... .. .. ....|... .. .. ....|C-2 .. .. ....|... .. .. ....|... .. .. ....|... .. .. ....
18 |D-5 .. .. ....|... .. .. ....|... .. .. ....|... .. .. ....|... .. .. ....|D-2 .. .. ....|... .. .. ....|... .. .. ....|... .. .. ....|C-2 .. .. ....|... .. .. ....|... .. .. ....|C-2 .. .. ....|... .. .. ....|... .. .. ....|... .. .. ....
19 |... .. .. ....|... .. .. ....|... .. .. ....|... .. .. ....|... .. .. ....|... .. .. ....|... .. .. ....|... .. .. ....|... .. .. ....|... .. .. ....|... .. .. ....|... .. .. ....|C-2 .. .. ....|... .. .. ....|... .. .. ....|... .. .. ....
1A |A-4 .. .. ....|... .. .. ....|... .. .. ....|... .. .. ....|... .. .. ....|D-3 .. .. ....|... .. .. ....|... .. .. ....|... .. .. ....|... .. .. ....|... .. .. ....|C-2 .. .. ....|... .. .. ....|... .. .. ....|... .. .. ....|... .. .. ....
1B |... .. .. ....|... .. .. ....|... .. .. ....|... .. .. ....|... .. .. ....|D-3 .. .. ....|... .. .. ....|... .. .. ....|... .. .. ....|... .. .. ....|... .. .. ....|... .. .. ....|C-2 .. .. ....|... .. .. ....|... .. .. ....|... .. .. ....
1C |C-5 .. .. ....|... .. .. ....|... .. .. ....|... .. .. ....|... .. .. ....|D-2 .. .. ....|... .. .. ....|... .. .. ....|... .. .. ....|... .. .. ....|C-2 .. .. ....|... .. .. ....|C-2 .. .. ....|... .. .. ....|... .. .. ....|... .. .. ....
1D |... .. .. ....|... .. .. ....|... .. .. ....|... .. .. ....|... .. .. ....|... .. .. ....|... .. .. ....|... .. .. ....|... .. .. ....|... .. .. ....|... .. .. ....|... .. .. ....|C-2 .. .. ....|... .. .. ....|... .. .. ....|... .. .. ....
1E |G-4 .. .. ....|... .. .. ....|... .. .. ....|... .. .. ....|... .. .. ....|D-3 .. .. ....|... .. .. ....|... .. .. ....|... .. .. ....|... .. .. ....|... .. .. ....|C-2 .. .. ....|... .. .. ....|... .. .. ....|... .. .. ....|... .. .. ....
1F |... .. .. ....|... .. .. ....|... .. .. ....|... .. .. ....|... .. .. ....|D-3 .. .. ....|... .. .. ....|... .. .. ....|... .. .. ....|... .. .. ....|... .. .. ....|... .. .. ....|C-2 .. .. ....|... .. .. ....|... .. .. ....|... .. .. ....
20 |D-6 .. .. ....|... .. .. ....|... .. .. ....|... .. .. ....|... .. .. ....|D-2 .. .. ....|... .. .. ....|... .. .. ....|... .. .. ....|C-2 .. .. ....|... .. .. ....|... .. .. ....|C-2 .. .. ....|... .. .. ....|... .. .. ....|... .. .. ....
21 |... .. .. ....|... .. .. ....|... .. .. ....|... .. .. ....|... .. .. ....|... .. .. ....|... .. .. ....|... .. .. ....|... .. .. ....|... .. .. ....|... .. .. ....|... .. .. ....|C-2 .. .. ....|... .. .. ....|... .. .. ....|... .. .. ....
22 |A-5 .. .. ....|... .. .. ....|... .. .. ....|... .. .. ....|... .. .. ....|D-3 .. .. ....|... .. .. ....|... .. .. ....|... .. .. ....|... .. .. ....|... .. .. ....|C-2 00 .. ....|... .. .. ....|... .. .. ....|... .. .. ....|... .. .. ....
23 |... .. .. ....|... .. .. ....|... .. .. ....|... .. .. ....|... .. .. ....|D-3 .. .. ....|... .. .. ....|... .. .. ....|... .. .. ....|... .. .. ....|... .. .. ....|... .. .. ....|C-2 .. .. ....|... .. .. ....|... .. .. ....|... .. .. ....
24 |C-6 .. .. ....|... .. .. ....|... .. .. ....|... .. .. ....|... .. .. ....|D-2 .. .. ....|... .. .. ....|... .. .. ....|... .. .. ....|... .. .. ....|C-2 .. .. ....|... .. .. ....|C-2 .. .. ....|... .. .. ....|... .. .. ....|... .. .. ....
25 |... .. .. ....|... .. .. ....|... .. .. ....|... .. .. ....|... .. .. ....|... .. .. ....|... .. .. ....|... .. .. ....|... .. .. ....|... .. .. ....|... .. .. ....|... .. .. ....|C-2 .. .. ....|... .. .. ....|... .. .. ....|... .. .. ....
26 |G-5 .. .. ....|... .. .. ....|... .. .. ....|... .. .. ....|... .. .. ....|D-3 .. .. ....|... .. .. ....|... .. .. ....|... .. .. ....|... .. .. ....|... .. .. ....|C-2 .. .. ....|... .. .. ....|... .. .. ....|... .. .. ....|... .. .. ....
27 |... .. .. ....|... .. .. ....|... .. .. ....|... .. .. ....|... .. .. ....|D-3 .. .. ....|... .. .. ....|... .. .. ....|... .. .. ....|... .. .. ....|... .. .. ....|... .. .. ....|C-2 .. .. ....|... .. .. ....|... .. .. ....|... .. .. ....
28 |A-5 .. .. ....|... .. .. ....|... .. .. ....|... .. .. ....|... .. .. ....|D-2 .. .. ....|... .. .. ....|... .. .. ....|... .. .. ....|C-2 .. .. ....|... .. .. ....|... .. .. ....|C-2 .. .. ....|... .. .. ....|... .. .. ....|... .. .. ....
29 |... .. .. ....|... .. .. ....|... .. .. ....|... .. .. ....|... .. .. ....|... .. .. ....|... .. .. ....|... .. .. ....|... .. .. ....|... .. .. ....|... .. .. ....|... .. .. ....|C-2 .. .. ....|... .. .. ....|... .. .. ....|... .. .. ....
2A |F-5 .. .. ....|... .. .. ....|... .. .. ....|... .. .. ....|... .. .. ....|D-3 .. .. ....|... .. .. ....|... .. .. ....|... .. .. ....|... .. .. ....|... .. .. ....|C-2 .. .. ....|... .. .. ....|... .. .. ....|... .. .. ....|... .. .. ....
2B |... .. .. ....|... .. .. ....|... .. .. ....|... .. .. ....|... .. .. ....|D-3 .. .. ....|... .. .. ....|... .. .. ....|... .. .. ....|... .. .. ....|... .. .. ....|... .. .. ....|C-2 .. .. ....|... .. .. ....|... .. .. ....|... .. .. ....
2C |G-5 .. .. ....|... .. .. ....|... .. .. ....|... .. .. ....|... .. .. ....|D-2 .. .. ....|... .. .. ....|... .. .. ....|... .. .. ....|... .. .. ....|C-2 .. .. ....|... .. .. ....|C-2 .. .. ....|... .. .. ....|... .. .. ....|... .. .. ....
2D |... .. .. ....|... .. .. ....|... .. .. ....|... .. .. ....|... .. .. ....|... .. .. ....|... .. .. ....|... .. .. ....|... .. .. ....|... .. .. ....|... .. .. ....|... .. .. ....|C-2 .. .. ....|... .. .. ....|... .. .. ....|... .. .. ....
2E |E-5 .. .. ....|... .. .. ....|... .. .. ....|... .. .. ....|... .. .. ....|D-3 .. .. ....|... .. .. ....|... .. .. ....|... .. .. ....|... .. .. ....|... .. .. ....|C-2 .. .. ....|... .. .. ....|... .. .. ....|... .. .. ....|... .. .. ....
2F |... .. .. ....|... .. .. ....|... .. .. ....|... .. .. ....|... .. .. ....|D-3 .. .. ....|... .. .. ....|... .. .. ....|... .. .. ....|... .. .. ....|... .. .. ....|... .. .. ....|C-2 .. .. ....|... .. .. ....|... .. .. ....|... .. .. ....
30 |F-5 .. .. ....|... .. .. ....|... .. .. ....|... .. .. ....|... .. .. ....|D-2 .. .. ....|... .. .. ....|... .. .. ....|... .. .. ....|C-2 .. .. ....|... .. .. ....|... .. .. ....|C-2 .. .. ....|... .. .. ....|... .. .. ....|... .. .. ....
31 |... .. .. ....|... .. .. ....|... .. .. ....|... .. .. ....|... .. .. ....|... .. .. ....|... .. .. ....|... .. .. ....|... .. .. ....|... .. .. ....|... .. .. ....|... .. .. ....|C-2 .. .. ....|... .. .. ....|... .. .. ....|... .. .. ....
32 |D-5 .. .. ....|... .. .. ....|... .. .. ....|... .. .. ....|... .. .. ....|D-3 .. .. ....|... .. .. ....|... .. .. ....|... .. .. ....|... .. .. ....|... .. .. ....|C-2 00 .. ....|... .. .. ....|... .. .. ....|... .. .. ....|... .. .. ....
33 |... .. .. ....|... .. .. ....|... .. .. ....|... .. .. ....|... .. .. ....|D-3 .. .. ....|... .. .. ....|... .. .. ....|... .. .. ....|... .. .. ....|... .. .. ....|... .. .. ....|C-2 .. .. ....|... .. .. ....|... .. .. ....|... .. .. ....
34 |E-5 .. .. ....|... .. .. ....|... .. .. ....|... .. .. ....|... .. .. ....|D-2 .. .. ....|... .. .. ....|... .. .. ....|... .. .. ....|... .. .. ....|C-2 .. .. ....|... .. .. ....|C-2 .. .. ....|... .. .. ....|... .. .. ....|... .. .. ....
35 |... .. .. ....|... .. .. ....|... .. .. ....|... .. .. ....|... .. .. ....|... .. .. ....|... .. .. ....|... .. .. ....|... .. .. ....|... .. .. ....|... .. .. ....|... .. .. ....|C-2 .. .. ....|... .. .. ....|... .. .. ....|... .. .. ....
36 |C-5 .. .. ....|... .. .. ....|... .. .. ....|... .. .. ....|... .. .. ....|D-3 .. .. ....|... .. .. ....|... .. .. ....|... .. .. ....|... .. .. ....|... .. .. ....|C-2 .. .. ....|... .. .. ....|... .. .. ....|... .. .. ....|... .. .. ....
37 |... .. .. ....|... .. .. ....|... .. .. ....|... .. .. ....|... .. .. ....|D-3 .. .. ....|... .. .. ....|... .. .. ....|... .. .. ....|... .. .. ....|... .. .. ....|... .. .. ....|C-2 .. .. ....|... .. .. ....|... .. .. ....|... .. .. ....
38 |D-5 .. .. ....|... .. .. ....|... .. .. ....|... .. .. ....|... .. .. ....|D-2 .. .. ....|... .. .. ....|... .. .. ....|... .. .. ....|C-2 .. .. ....|... .. .. ....|... .. .. ....|C-2 .. .. ....|... .. .. ....|... .. .. ....|... .. .. ....
39 |... .. .. ....|... .. .. ....|... .. .. ....|... .. .. ....|... .. .. ....|... .. .. ....|... .. .. ....|... .. .. ....|... .. .. ....|... .. .. ....|... .. .. ....|... .. .. ....|C-2 .. .. ....|... .. .. ....|... .. .. ....|... .. .. ....
3A |A-4 .. .. ....|... .. .. ....|... .. .. ....|... .. .. ....|... .. .. ....|D-3 .. .. ....|... .. .. ....|... .. .. ....|... .. .. ....|... .. .. ....|... .. .. ....|C-2 .. .. ....|... .. .. ....|... .. .. ....|... .. .. ....|... .. .. ....
3B |... .. .. ....|... .. .. ....|... .. .. ....|... .. .. ....|... .. .. ....|D-3 .. .. ....|... .. .. ....|... .. .. ....|... .. .. ....|... .. .. ....|... .. .. ....|... .. .. ....|C-2 .. .. ....|... .. .. ....|... .. .. ....|... .. .. ....
3C |C-5 .. .. ....|... .. .. ....|... .. .. ....|... .. .. ....|... .. .. ....|D-2 .. .. ....|... .. .. ....|... .. .. ....|... .. .. ....|... .. .. ....|C-2 .. .. ....|... .. .. ....|C-2 .. .. ....|... .. .. ....|... .. .. ....|... .. .. ....
3D |... .. .. ....|... .. .. ....|... .. .. ....|... .. .. ....|... .. .. ....|... .. .. ....|... .. .. ....|... .. .. ....|... .. .. ....|... .. .. ....|... .. .. ....|... .. .. ....|C-2 .. .. ....|... .. .. ....|... .. .. ....|... .. .. ....
3E |G-4 .. .. ....|... .. .. ....|... .. .. ....|... .. .. ....|... .. .. ....|D-3 .. .. ....|... .. .. ....|... .. .. ....|... .. .. ....|... .. .. ....|... .. .. ....|C-2 .. .. ....|... .. .. ....|... .. .. ....|... .. .. ....|... .. .. ....
3F |... .. .. ....|... .. .. ....|... .. .. ....|... .. .. ....|... .. .. ....|D-3 .. .. ....|... .. .. ....|... .. .. ....|... .. .. ....|... .. .. ....|... .. .. ....|... .. .. ....|C-2 .. .. ....|... .. .. ....|... .. .. ....|... .. .. ....
----- ORDER 0E
00 |D-6 03 72 ....|A#4 .. .. ....|D-5 06 .. ....|A#3 .. .. ....|F-4 .. .. ....|A#1 .. .. ....|... .. .. ....|... .. .. ....|... .. .. ....|C-2 .. .. ....|... .. .. ....|... .. .. ....|C-2 .. .. ....|... .. .. ....|... .. .. ....|... .. .. ....
01 |... .. .. ....|... .. .. ....|... .. .. ....|... .. .. ....|... .. .. ....|... .. .. ....|... .. .. ....|... .. .. ....|... .. .. ....|... .. .. ....|... .. .. ....|... .. .. ....|C-2 .. .. ....|... .. .. ....|... .. .. ....|... .. .. ....
02 |A-5 .. .. ....|... .. .. ....|... .. .. ....|... .. .. ....|... .. .. ....|A#2 .. .. ....|... .. .. ....|... .. .. ....|... .. .. ....|... .. .. ....|... .. .. ....|C-2 00 .. ....|... .. .. ....|... .. .. ....|... .. .. ....|... .. .. ....
03 |... .. .. ....|... .. .. ....|... .. .. ....|... .. .. ....|... .. .. ....|A#2 .. .. ....|... .. .. ....|... .. .. ....|... .. .. ....|... .. .. ....|... .. .. ....|... .. .. ....|C-2 .. .. ....|... .. .. ....|... .. .. ....|... .. .. ....
04 |C-6 .. .. ....|... .. .. ....|... .. .. ....|... .. .. ....|... .. .. ....|A#1 .. .. ....|... .. .. ....|... .. .. ....|... .. .. ....|... .. .. ....|C-2 .. .. ....|... .. .. ....|C-2 .. .. ....|... .. .. ....|... .. .. ....|... .. .. ....
05 |... .. .. ....|... .. .. ....|... .. .. ....|... .. .. ....|... .. .. ....|... .. .. ....|... .. .. ....|... .. .. ....|... .. .. ....|... .. .. ....|... .. .. ....|... .. .. ....|C-2 .. .. ....|... .. .. ....|... .. .. ....|... .. .. ....
06 |G-5 .. .. ....|... .. .. ....|... .. .. ....|... .. .. ....|... .. .. ....|A#2 .. .. ....|... .. .. ....|... .. .. ....|... .. .. ....|... .. .. ....|... .. .. ....|C-2 .. .. ....|... .. .. ....|... .. .. ....|... .. .. ....|... .. .. ....
07 |... .. .. ....|... .. .. ....|... .. .. ....|... .. .. ....|... .. .. ....|A#2 .. .. ....|... .. .. ....|... .. .. ....|... .. .. ....|... .. .. ....|... .. .. ....|... .. .. ....|C-2 .. .. ....|... .. .. ....|... .. .. ....|... .. .. ....
08 |A-5 .. .. ....|... .. .. ....|... .. .. ....|... .. .. ....|... .. .. ....|A#1 .. .. ....|... .. .. ....|... .. .. ....|... .. .. ....|C-2 .. .. ....|... .. .. ....|... .. .. ....|C-2 .. .. ....|... .. .. ....|... .. .. ....|... .. .. ....
09 |... .. .. ....|... .. .. ....|... .. .. ....|... .. .. ....|... .. .. ....|... .. .. ....|... .. .. ....|... .. .. ....|... .. .. ....|... .. .. ....|... .. .. ....|... .. .. ....|C-2 .. .. ....|... .. .. ....|... .. .. ....|... .. .. ....
0A |F-5 .. .. ....|... .. .. ....|... .. .. ....|... .. .. ....|... .. .. ....|A#2 .. .. ....|... .. .. ....|... .. .. ....|... .. .. ....|... .. .. ....|... .. .. ....|C-2 .. .. ....|... .. .. ....|... .. .. ....|... .. .. ....|... .. .. ....
0B |... .. .. ....|... .. .. ....|... .. .. ....|... .. .. ....|... .. .. ....|A#2 .. .. ....|... .. .. ....|... .. .. ....|... .. .. ....|... .. .. ....|... .. .. ....|... .. .. ....|C-2 .. .. ....|... .. .. ....|... .. .. ....|... .. .. ....
0C |G-5 .. .. ....|... .. .. ....|... .. .. ....|... .. .. ....|... .. .. ....|A#1 .. .. ....|... .. .. ....|... .. .. ....|... .. .. ....|... .. .. ....|C-2 .. .. ....|... .. .. ....|C-2 .. .. ....|... .. .. ....|... .. .. ....|... .. .. ....
0D |... .. .. ....|... .. .. ....|... .. .. ....|... .. .. ....|... .. .. ....|... .. .. ....|... .. .. ....|... .. .. ....|... .. .. ....|... .. .. ....|... .. .. ....|... .. .. ....|C-2 .. .. ....|... .. .. ....|... .. .. ....|... .. .. ....
0E |E-5 .. .. ....|... .. .. ....|... .. .. ....|... .. .. ....|... .. .. ....|A#2 .. .. ....|... .. .. ....|... .. .. ....|... .. .. ....|... .. .. ....|... .. .. ....|C-2 .. .. ....|... .. .. ....|... .. .. ....|... .. .. ....|... .. .. ....
0F |... .. .. ....|... .. .. ....|... .. .. ....|... .. .. ....|... .. .. ....|A#2 .. .. ....|... .. .. ....|... .. .. ....|... .. .. ....|... .. .. ....|... .. .. ....|... .. .. ....|C-2 .. .. ....|... .. .. ....|... .. .. ....|... .. .. ....
10 |F-5 .. .. ....|... .. .. ....|... .. .. ....|... .. .. ....|... .. .. ....|A#1 .. .. ....|... .. .. ....|... .. .. ....|... .. .. ....|C-2 .. .. ....|... .. .. ....|... .. .. ....|C-2 .. .. ....|... .. .. ....|... .. .. ....|... .. .. ....
11 |... .. .. ....|... .. .. ....|... .. .. ....|... .. .. ....|... .. .. ....|... .. .. ....|... .. .. ....|... .. .. ....|... .. .. ....|... .. .. ....|... .. .. ....|... .. .. ....|C-2 .. .. ....|... .. .. ....|... .. .. ....|... .. .. ....
12 |D-5 .. .. ....|... .. .. ....|... .. .. ....|... .. .. ....|... .. .. ....|A#2 .. .. ....|... .. .. ....|... .. .. ....|... .. .. ....|... .. .. ....|... .. .. ....|C-2 00 .. ....|... .. .. ....|... .. .. ....|... .. .. ....|... .. .. ....
13 |... .. .. ....|... .. .. ....|... .. .. ....|... .. .. ....|... .. .. ....|A#2 .. .. ....|... .. .. ....|... .. .. ....|... .. .. ....|... .. .. ....|... .. .. ....|... .. .. ....|C-2 .. .. ....|... .. .. ....|... .. .. ....|... .. .. ....
14 |E-5 .. .. ....|... .. .. ....|... .. .. ....|... .. .. ....|... .. .. ....|A#1 .. .. ....|... .. .. ....|... .. .. ....|... .. .. ....|... .. .. ....|C-2 .. .. ....|... .. .. ....|C-2 .. .. ....|... .. .. ....|... .. .. ....|... .. .. ....
15 |... .. .. ....|... .. .. ....|... .. .. ....|... .. .. ....|... .. .. ....|... .. .. ....|... .. .. ....|... .. .. ....|... .. .. ....|... .. .. ....|... .. .. ....|... .. .. ....|C-2 .. .. ....|... .. .. ....|... .. .. ....|... .. .. ....
16 |C-5 .. .. ....|... .. .. ....|... .. .. ....|... .. .. ....|... .. .. ....|A#2 .. .. ....|... .. .. ....|... .. .. ....|... .. .. ....|... .. .. ....|... .. .. ....|C-2 .. .. ....|... .. .. ....|... .. .. ....|... .. .. ....|... .. .. ....
17 |... .. .. ....|... .. .. ....|... .. .. ....|... .. .. ....|... .. .. ....|A#2 .. .. ....|... .. .. ....|... .. .. ....|... .. .. ....|... .. .. ....|... .. .. ....|... .. .. ....|C-2 .. .. ....|... .. .. ....|... .. .. ....|... .. .. ....
18 |D-5 .. .. ....|... .. .. ....|... .. .. ....|... .. .. ....|... .. .. ....|A#1 .. .. ....|... .. .. ....|... .. .. ....|... .. .. ....|C-2 .. .. ....|... .. .. ....|... .. .. ....|C-2 .. .. ....|... .. .. ....|... .. .. ....|... .. .. ....
19 |... .. .. ....|... .. .. ....|... .. .. ....|... .. .. ....|... .. .. ....|... .. .. ....|... .. .. ....|... .. .. ....|... .. .. ....|... .. .. ....|... .. .. ....|... .. .. ....|C-2 .. .. ....|... .. .. ....|... .. .. ....|... .. .. ....
1A |A-4 .. .. ....|... .. .. ....|... .. .. ....|... .. .. ....|... .. .. ....|A#2 .. .. ....|... .. .. ....|... .. .. ....|... .. .. ....|... .. .. ....|... .. .. ....|C-2 .. .. ....|... .. .. ....|... .. .. ....|... .. .. ....|... .. .. ....
1B |... .. .. ....|... .. .. ....|... .. .. ....|... .. .. ....|... .. .. ....|A#2 .. .. ....|... .. .. ....|... .. .. ....|... .. .. ....|... .. .. ....|... .. .. ....|... .. .. ....|C-2 .. .. ....|... .. .. ....|... .. .. ....|... .. .. ....
1C |C-5 .. .. ....|... .. .. ....|... .. .. ....|... .. .. ....|... .. .. ....|A#1 .. .. ....|... .. .. ....|... .. .. ....|... .. .. ....|... .. .. ....|C-2 .. .. ....|... .. .. ....|C-2 .. .. ....|... .. .. ....|... .. .. ....|... .. .. ....
1D |... .. .. ....|... .. .. ....|... .. .. ....|... .. .. ....|... .. .. ....|... .. .. ....|... .. .. ....|... .. .. ....|... .. .. ....|... .. .. ....|... .. .. ....|... .. .. ....|C-2 .. .. ....|... .. .. ....|... .. .. ....|... .. .. ....
1E |G-4 .. .. ....|... .. .. ....|... .. .. ....|... .. .. ....|... .. .. ....|A#2 .. .. ....|... .. .. ....|... .. .. ....|... .. .. ....|... .. .. ....|... .. .. ....|C-2 .. .. ....|... .. .. ....|... .. .. ....|... .. .. ....|... .. .. ....
1F |... .. .. ....|... .. .. ....|... .. .. ....|... .. .. ....|... .. .. ....|A#2 .. .. ....|... .. .. ....|... .. .. ....|... .. .. ....|... .. .. ....|... .. .. ....|... .. .. ....|C-2 .. .. ....|... .. .. ....|... .. .. ....|... .. .. ....
20 |D-6 .. .. ....|C-5 .. .. ....|E-5 .. .. ....|C-4 .. .. ....|G-4 .. .. ....|C-2 .. .. ....|... .. .. ....|... .. .. ....|... .. .. ....|C-2 .. .. ....|... .. .. ....|... .. .. ....|C-2 .. .. ....|... .. .. ....|... .. .. ....|... .. .. ....
21 |... .. .. ....|... .. .. ....|... .. .. ....|... .. .. ....|... .. .. ....|... .. .. ....|... .. .. ....|... .. .. ....|... .. .. ....|... .. .. ....|... .. .. ....|... .. .. ....|C-2 .. .. ....|... .. .. ....|... .. .. ....|... .. .. ....
22 |A-5 .. .. ....|... .. .. ....|... .. .. ....|... .. .. ....|... .. .. ....|C-3 .. .. ....|... .. .. ....|... .. .. ....|... .. .. ....|... .. .. ....|... .. .. ....|C-2 00 .. ....|... .. .. ....|... .. .. ....|... .. .. ....|... .. .. ....
23 |... .. .. ....|... .. .. ....|... .. .. ....|... .. .. ....|... .. .. ....|C-3 .. .. ....|... .. .. ....|... .. .. ....|... .. .. ....|... .. .. ....|... .. .. ....|... .. .. ....|C-2 .. .. ....|... .. .. ....|... .. .. ....|... .. .. ....
24 |C-6 .. .. ....|... .. .. ....|... .. .. ....|... .. .. ....|... .. .. ....|C-2 .. .. ....|... .. .. ....|... .. .. ....|... .. .. ....|... .. .. ....|C-2 .. .. ....|... .. .. ....|C-2 .. .. ....|... .. .. ....|... .. .. ....|... .. .. ....
25 |... .. .. ....|... .. .. ....|... .. .. ....|... .. .. ....|... .. .. ....|... .. .. ....|... .. .. ....|... .. .. ....|... .. .. ....|... .. .. ....|... .. .. ....|... .. .. ....|C-2 .. .. ....|... .. .. ....|... .. .. ....|... .. .. ....
26 |G-5 .. .. ....|... .. .. ....|... .. .. ....|... .. .. ....|... .. .. ....|C-3 .. .. ....|... .. .. ....|... .. .. ....|... .. .. ....|... .. .. ....|... .. .. ....|C-2 .. .. ....|... .. .. ....|... .. .. ....|... .. .. ....|... .. .. ....
27 |... .. .. ....|... .. .. ....|... .. .. ....|... .. .. ....|... .. .. ....|C-3 .. .. ....|... .. .. ....|... .. .. ....|... .. .. ....|... .. .. ....|... .. .. ....|... .. .. ....|C-2 .. .. ....|... .. .. ....|... .. .. ....|... .. .. ....
28 |A-5 .. .. ....|... .. .. ....|... .. .. ....|... .. .. ....|... .. .. ....|C-2 .. .. ....|... .. .. ....|... .. .. ....|... .. .. ....|C-2 .. .. ....|... .. .. ....|... .. .. ....|C-2 .. .. ....|... .. .. ....|... .. .. ....|... .. .. ....
29 |... .. .. ....|... .. .. ....|... .. .. ....|... .. .. ....|... .. .. ....|... .. .. ....|... .. .. ....|... .. .. ....|... .. .. ....|... .. .. ....|... .. .. ....|... .. .. ....|C-2 .. .. ....|... .. .. ....|... .. .. ....|... .. .. ....
2A |F-5 .. .. ....|... .. .. ....|... .. .. ....|... .. .. ....|... .. .. ....|C-3 .. .. ....|... .. .. ....|... .. .. ....|... .. .. ....|... .. .. ....|... .. .. ....|C-2 .. .. ....|... .. .. ....|... .. .. ....|... .. .. ....|... .. .. ....
2B |... .. .. ....|... .. .. ....|... .. .. ....|... .. .. ....|... .. .. ....|C-3 .. .. ....|... .. .. ....|... .. .. ....|... .. .. ....|... .. .. ....|... .. .. ....|... .. .. ....|C-2 .. .. ....|... .. .. ....|... .. .. ....|... .. .. ....
2C |G-5 .. .. ....|... .. .. ....|... .. .. ....|... .. .. ....|... .. .. ....|C-2 .. .. ....|... .. .. ....|... .. .. ....|... .. .. ....|... .. .. ....|C-2 .. .. ....|... .. .. ....|C-2 .. .. ....|... .. .. ....|... .. .. ....|... .. .. ....
2D |... .. .. ....|... .. .. ....|... .. .. ....|... .. .. ....|... .. .. ....|... .. .. ....|... .. .. ....|... .. .. ....|... .. .. ....|... .. .. ....|... .. .. ....|... .. .. ....|C-2 .. .. ....|... .. .. ....|... .. .. ....|... .. .. ....
2E |E-5 .. .. ....|... .. .. ....|... .. .. ....|... .. .. ....|... .. .. ....|C-3 .. .. ....|... .. .. ....|... .. .. ....|... .. .. ....|... .. .. ....|... .. .. ....|C-2 .. .. ....|... .. .. ....|... .. .. ....|... .. .. ....|... .. .. ....
2F |... .. .. ....|... .. .. ....|... .. .. ....|... .. .. ....|... .. .. ....|C-3 .. .. ....|... .. .. ....|... .. .. ....|... .. .. ....|... .. .. ....|... .. .. ....|... .. .. ....|C-2 .. .. ....|... .. .. ....|... .. .. ....|... .. .. ....
30 |F-5 .. .. ....|G-4 .. .. ....|C-5 .. .. ....|G-3 .. .. ....|E-4 .. .. ....|C-2 .. .. ....|... .. .. ....|... .. .. ....|... .. .. ....|C-2 .. .. ....|... .. .. ....|... .. .. ....|C-2 .. .. ....|... .. .. ....|... .. .. ....|... .. .. ....
31 |... .. .. ....|... .. .. ....|... .. .. ....|... .. .. ....|... .. .. ....|... .. .. ....|... .. .. ....|... .. .. ....|... .. .. ....|... .. .. ....|... .. .. ....|... .. .. ....|C-2 .. .. ....|... .. .. ....|... .. .. ....|... .. .. ....
32 |D-5 .. .. ....|... .. .. ....|... .. .. ....|... .. .. ....|... .. .. ....|C-3 .. .. ....|... .. .. ....|... .. .. ....|... .. .. ....|... .. .. ....|... .. .. ....|C-2 00 .. ....|... .. .. ....|... .. .. ....|... .. .. ....|... .. .. ....
33 |... .. .. ....|... .. .. ....|... .. .. ....|... .. .. ....|... .. .. ....|C-3 .. .. ....|... .. .. ....|... .. .. ....|... .. .. ....|... .. .. ....|... .. .. ....|... .. .. ....|C-2 .. .. ....|... .. .. ....|... .. .. ....|... .. .. ....
34 |E-5 .. .. ....|... .. .. ....|... .. .. ....|... .. .. ....|... .. .. ....|C-2 .. .. ....|... .. .. ....|... .. .. ....|... .. .. ....|... .. .. ....|C-2 .. .. ....|... .. .. ....|C-2 .. .. ....|... .. .. ....|... .. .. ....|... .. .. ....
35 |... .. .. ....|... .. .. ....|... .. .. ....|... .. .. ....|... .. .. ....|... .. .. ....|... .. .. ....|... .. .. ....|... .. .. ....|... .. .. ....|... .. .. ....|... .. .. ....|C-2 .. .. ....|... .. .. ....|... .. .. ....|... .. .. ....
36 |C-5 .. .. ....|... .. .. ....|... .. .. ....|... .. .. ....|... .. .. ....|C-3 .. .. ....|... .. .. ....|... .. .. ....|... .. .. ....|... .. .. ....|... .. .. ....|C-2 .. .. ....|... .. .. ....|... .. .. ....|... .. .. ....|... .. .. ....
37 |... .. .. ....|... .. .. ....|... .. .. ....|... .. .. ....|... .. .. ....|C-3 .. .. ....|... .. .. ....|... .. .. ....|... .. .. ....|... .. .. ....|... .. .. ....|... .. .. ....|C-2 .. .. ....|... .. .. ....|... .. .. ....|... .. .. ....
38 |D-5 .. .. ....|... .. .. ....|... .. .. ....|... .. .. ....|... .. .. ....|C-2 .. .. ....|... .. .. ....|... .. .. ....|... .. .. ....|C-2 .. .. ....|... .. .. ....|... .. .. ....|C-2 .. .. ....|... .. .. ....|... .. .. ....|... .. .. ....
39 |... .. .. ....|... .. .. ....|... .. .. ....|... .. .. ....|... .. .. ....|... .. .. ....|... .. .. ....|... .. .. ....|... .. .. ....|... .. .. ....|... .. .. ....|... .. .. ....|C-2 .. .. ....|... .. .. ....|... .. .. ....|... .. .. ....
3A |A-4 .. .. ....|... .. .. ....|... .. .. ....|... .. .. ....|... .. .. ....|C-3 .. .. ....|... .. .. ....|... .. .. ....|... .. .. ....|... .. .. ....|... .. .. ....|C-2 .. .. ....|... .. .. ....|... .. .. ....|... .. .. ....|... .. .. ....
3B |... .. .. ....|... .. .. ....|... .. .. ....|... .. .. ....|... .. .. ....|C-3 .. .. ....|... .. .. ....|... .. .. ....|... .. .. ....|... .. .. ....|... .. .. ....|... .. .. ....|C-2 .. .. ....|... .. .. ....|... .. .. ....|... .. .. ....
3C |C-5 .. .. ....|... .. .. ....|... .. .. ....|... .. .. ....|... .. .. ....|C-2 .. .. ....|... .. .. ....|... .. .. ....|... .. .. ....|... .. .. ....|C-2 .. .. ....|... .. .. ....|C-2 .. .. ....|... .. .. ....|... .. .. ....|... .. .. ....
3D |... .. .. ....|... .. .. ....|... .. .. ....|... .. .. ....|... .. .. ....|... .. .. ....|... .. .. ....|... .. .. ....|... .. .. ....|... .. .. ....|... .. .. ....|... .. .. ....|C-2 .. .. ....|... .. .. ....|... .. .. ....|... .. .. ....
3E |G-4 .. .. ....|... .. .. ....|... .. .. ....|... .. .. ....|... .. .. ....|C-3 .. .. ....|... .. .. ....|... .. .. ....|... .. .. ....|... .. .. ....|... .. .. ....|C-2 .. .. ....|... .. .. ....|... .. .. ....|... .. .. ....|... .. .. ....
3F |... .. .. ....|... .. .. ....|... .. .. ....|... .. .. ....|... .. .. ....|... .. .. ....|... .. .. ....|... .. .. ....|... .. .. ....|... .. .. ....|... .. .. ....|... .. .. ....|C-2 .. .. ....|... .. .. ....|... .. .. ....|... .. .. ....
----- ORDER 0F
00 |OFF .. .. ....|OFF .. .. ....|D-5 06 .. ....|A-3 01 .. ....|F-4 01 .. ....|D-2 .. .. ....|D-6 .. .. ....|F-6 .. .. ....|... .. .. ....|C-2 .. .. ....|... .. .. ....|... .. .. ....|C-2 .. .. ....|... .. .. ....|... .. .. ....|... .. .. ....
01 |... .. .. ....|... .. .. ....|... .. .. ....|... .. .. ....|... .. .. ....|... .. .. ....|... .. .. ....|... .. .. ....|... .. .. ....|... .. .. ....|... .. .. ....|... .. .. ....|C-2 .. .. ....|... .. .. ....|... .. .. ....|... .. .. ....
02 |D-4 05 76 ....|F-4 05 76 ....|... .. .. ....|... .. .. ....|... .. .. ....|D-3 .. .. ....|A-5 .. .. ....|D-6 .. .. ....|... .. .. ....|... .. .. ....|... .. .. ....|C-2 00 .. ....|... .. .. ....|... .. .. ....|... .. .. ....|... .. .. ....
03 |OFF .. .. ....|OFF .. .. ....|... .. .. ....|... .. .. ....|... .. .. ....|D-3 .. .. ....|... .. .. ....|... .. .. ....|... .. .. ....|... .. .. ....|... .. .. ....|... .. .. ....|C-2 .. .. ....|... .. .. ....|... .. .. ....|... .. .. ....
04 |D-4 .. .. ....|F-4 .. .. ....|... .. .. ....|... .. .. ....|... .. .. ....|D-2 .. .. ....|C-6 .. .. ....|E-6 .. .. ....|... .. .. ....|... .. .. ....|C-2 .. .. ....|... .. .. ....|C-2 .. .. ....|... .. .. ....|... .. .. ....|... .. .. ....
05 |OFF .. .. ....|OFF .. .. ....|... .. .. ....|... .. .. ....|... .. .. ....|... .. .. ....|... .. .. ....|... .. .. ....|... .. .. ....|... .. .. ....|... .. .. ....|... .. .. ....|C-2 .. .. ....|... .. .. ....|... .. .. ....|... .. .. ....
06 |... .. .. ....|... .. .. ....|... .. .. ....|... .. .. ....|... .. .. ....|D-3 .. .. ....|G-5 .. .. ....|C-6 .. .. ....|... .. .. ....|... .. .. ....|... .. .. ....|C-2 .. .. ....|... .. .. ....|... .. .. ....|... .. .. ....|... .. .. ....
07 |... .. .. ....|... .. .. ....|... .. .. ....|... .. .. ....|... .. .. ....|D-3 .. .. ....|... .. .. ....|... .. .. ....|... .. .. ....|... .. .. ....|... .. .. ....|... .. .. ....|C-2 .. .. ....|... .. .. ....|... .. .. ....|... .. .. ....
08 |D-4 .. .. ....|F-4 .. .. ....|... .. .. ....|... .. .. ....|... .. .. ....|D-2 .. .. ....|A-5 .. .. ....|D-6 .. .. ....|... .. .. ....|C-2 .. .. ....|... .. .. ....|... .. .. ....|C-2 .. .. ....|... .. .. ....|... .. .. ....|... .. .. ....
09 |OFF .. .. ....|OFF .. .. ....|... .. .. ....|... .. .. ....|... .. .. ....|... .. .. ....|... .. .. ....|... .. .. ....|... .. .. ....|... .. .. ....|... .. .. ....|... .. .. ....|C-2 .. .. ....|... .. .. ....|... .. .. ....|... .. .. ....
0A |... .. .. ....|... .. .. ....|... .. .. ....|... .. .. ....|... .. .. ....|D-3 .. .. ....|F-5 .. .. ....|A-5 .. .. ....|... .. .. ....|... .. .. ....|... .. .. ....|C-2 .. .. ....|... .. .. ....|... .. .. ....|... .. .. ....|... .. .. ....
0B |C-4 .. .. ....|E-4 .. .. ....|... .. .. ....|... .. .. ....|... .. .. ....|D-3 .. .. ....|... .. .. ....|... .. .. ....|... .. .. ....|... .. .. ....|... .. .. ....|... .. .. ....|C-2 .. .. ....|... .. .. ....|... .. .. ....|... .. .. ....
0C |OFF .. .. ....|OFF .. .. ....|... .. .. ....|... .. .. ....|... .. .. ....|D-2 .. .. ....|G-5 .. .. ....|C-6 .. .. ....|... .. .. ....|... .. .. ....|C-2 .. .. ....|... .. .. ....|C-2 .. .. ....|... .. .. ....|... .. .. ....|... .. .. ....
0D |... .. .. ....|... .. .. ....|... .. .. ....|... .. .. ....|... .. .. ....|... .. .. ....|... .. .. ....|... .. .. ....|... .. .. ....|... .. .. ....|... .. .. ....|... .. .. ....|C-2 .. .. ....|... .. .. ....|... .. .. ....|... .. .. ....
0E |D-4 .. .. ....|F-4 .. .. ....|... .. .. ....|... .. .. ....|... .. .. ....|D-3 .. .. ....|E-5 .. .. ....|G-5 .. .. ....|... .. .. ....|... .. .. ....|... .. .. ....|C-2 .. .. ....|... .. .. ....|... .. .. ....|... .. .. ....|... .. .. ....
0F |OFF .. .. ....|OFF .. .. ....|... .. .. ....|... .. .. ....|... .. .. ....|D-3 .. .. ....|... .. .. ....|... .. .. ....|... .. .. ....|... .. .. ....|... .. .. ....|... .. .. ....|C-2 .. .. ....|... .. .. ....|... .. .. ....|... .. .. ....
10 |... .. .. ....|... .. .. ....|... .. .. ....|... .. .. ....|... .. .. ....|D-2 .. .. ....|F-5 .. .. ....|A-5 .. .. ....|... .. .. ....|C-2 .. .. ....|... .. .. ....|... .. .. ....|C-2 .. .. ....|... .. .. ....|... .. .. ....|... .. .. ....
11 |... .. .. ....|... .. .. ....|... .. .. ....|... .. .. ....|... .. .. ....|... .. .. ....|... .. .. ....|... .. .. ....|... .. .. ....|... .. .. ....|... .. .. ....|... .. .. ....|C-2 .. .. ....|... .. .. ....|... .. .. ....|... .. .. ....
12 |D-4 .. .. ....|F-4 .. .. ....|... .. .. ....|... .. .. ....|... .. .. ....|D-3 .. .. ....|D-5 .. .. ....|F-5 .. .. ....|... .. .. ....|... .. .. ....|... .. .. ....|C-2 00 .. ....|... .. .. ....|... .. .. ....|... .. .. ....|... .. .. ....
13 |OFF .. .. ....|OFF .. .. ....|... .. .. ....|... .. .. ....|... .. .. ....|D-3 .. .. ....|... .. .. ....|... .. .. ....|... .. .. ....|... .. .. ....|... .. .. ....|... .. .. ....|C-2 .. .. ....|... .. .. ....|... .. .. ....|... .. .. ....
14 |D-4 .. .. ....|F-4 .. .. ....|... .. .. ....|... .. .. ....|... .. .. ....|D-2 .. .. ....|E-5 .. .. ....|G-5 .. .. ....|... .. .. ....|... .. .. ....|C-2 .. .. ....|... .. .. ....|C-2 .. .. ....|... .. .. ....|... .. .. ....|... .. .. ....
15 |OFF .. .. ....|OFF .. .. ....|... .. .. ....|... .. .. ....|... .. .. ....|... .. .. ....|... .. .. ....|... .. .. ....|... .. .. ....|... .. .. ....|... .. .. ....|... .. .. ....|C-2 .. .. ....|... .. .. ....|... .. .. ....|... .. .. ....
16 |... .. .. ....|... .. .. ....|... .. .. ....|... .. .. ....|... .. .. ....|D-3 .. .. ....|C-5 .. .. ....|E-5 .. .. ....|... .. .. ....|... .. .. ....|... .. .. ....|C-2 .. .. ....|... .. .. ....|... .. .. ....|... .. .. ....|... .. .. ....
17 |... .. .. ....|... .. .. ....|... .. .. ....|... .. .. ....|... .. .. ....|D-3 .. .. ....|... .. .. ....|... .. .. ....|... .. .. ....|... .. .. ....|... .. .. ....|... .. .. ....|C-2 .. .. ....|... .. .. ....|... .. .. ....|... .. .. ....
18 |D-4 .. .. ....|F-4 .. .. ....|... .. .. ....|... .. .. ....|... .. .. ....|D-2 .. .. ....|D-5 .. .. ....|F-5 .. .. ....|... .. .. ....|C-2 .. .. ....|... .. .. ....|... .. .. ....|C-2 .. .. ....|... .. .. ....|... .. .. ....|... .. .. ....
19 |OFF .. .. ....|OFF .. .. ....|... .. .. ....|... .. .. ....|... .. .. ....|... .. .. ....|... .. .. ....|... .. .. ....|... .. .. ....|... .. .. ....|... .. .. ....|... .. .. ....|C-2 .. .. ....|... .. .. ....|... .. .. ....|... .. .. ....
1A |... .. .. ....|... .. .. ....|... .. .. ....|... .. .. ....|... .. .. ....|D-3 .. .. ....|A-4 .. .. ....|D-5 .. .. ....|... .. .. ....|... .. .. ....|... .. .. ....|C-2 .. .. ....|... .. .. ....|... .. .. ....|... .. .. ....|... .. .. ....
1B |C-4 .. .. ....|E-4 .. .. ....|... .. .. ....|... .. .. ....|... .. .. ....|D-3 .. .. ....|... .. .. ....|... .. .. ....|... .. .. ....|... .. .. ....|... .. .. ....|... .. .. ....|C-2 .. .. ....|... .. .. ....|... .. .. ....|... .. .. ....
1C |OFF .. .. ....|OFF .. .. ....|... .. .. ....|... .. .. ....|... .. .. ....|D-2 .. .. ....|C-5 .. .. ....|E-5 .. .. ....|... .. .. ....|... .. .. ....|C-2 .. .. ....|... .. .. ....|C-2 .. .. ....|... .. .. ....|... .. .. ....|... .. .. ....
1D |... .. .. ....|... .. .. ....|... .. .. ....|... .. .. ....|... .. .. ....|... .. .. ....|... .. .. ....|... .. .. ....|... .. .. ....|... .. .. ....|... .. .. ....|... .. .. ....|C-2 .. .. ....|... .. .. ....|... .. .. ....|... .. .. ....
1E |D-4 .. .. ....|F-4 .. .. ....|... .. .. ....|... .. .. ....|... .. .. ....|D-3 .. .. ....|G-4 .. .. ....|C-5 .. .. ....|... .. .. ....|... .. .. ....|... .. .. ....|C-2 .. .. ....|... .. .. ....|... .. .. ....|... .. .. ....|... .. .. ....
1F |OFF .. .. ....|OFF .. .. ....|... .. .. ....|... .. .. ....|... .. .. ....|D-3 .. .. ....|... .. .. ....|... .. .. ....|... .. .. ....|... .. .. ....|... .. .. ....|... .. .. ....|C-2 .. .. ....|... .. .. ....|... .. .. ....|... .. .. ....
20 |... .. .. ....|... .. .. ....|... .. .. ....|... .. .. ....|... .. .. ....|D-2 .. .. ....|D-6 .. .. ....|F-6 .. .. ....|... .. .. ....|C-2 .. .. ....|... .. .. ....|... .. .. ....|C-2 .. .. ....|... .. .. ....|... .. .. ....|... .. .. ....
21 |... .. .. ....|... .. .. ....|... .. .. ....|... .. .. ....|... .. .. ....|... .. .. ....|... .. .. ....|... .. .. ....|... .. .. ....|... .. .. ....|... .. .. ....|... .. .. ....|C-2 .. .. ....|... .. .. ....|... .. .. ....|... .. .. ....
22 |D-4 .. .. ....|F-4 .. .. ....|... .. .. ....|... .. .. ....|... .. .. ....|D-3 .. .. ....|A-5 .. .. ....|D-6 .. .. ....|... .. .. ....|... .. .. ....|... .. .. ....|C-2 00 .. ....|... .. .. ....|... .. .. ....|... .. .. ....|... .. .. ....
23 |OFF .. .. ....|OFF .. .. ....|... .. .. ....|... .. .. ....|... .. .. ....|D-3 .. .. ....|... .. .. ....|... .. .. ....|... .. .. ....|... .. .. ....|... .. .. ....|... .. .. ....|C-2 .. .. ....|... .. .. ....|... .. .. ....|... .. .. ....
24 |D-4 .. .. ....|F-4 .. .. ....|... .. .. ....|... .. .. ....|... .. .. ....|D-2 .. .. ....|C-6 .. .. ....|E-6 .. .. ....|... .. .. ....|... .. .. ....|C-2 .. .. ....|... .. .. ....|C-2 .. .. ....|... .. .. ....|... .. .. ....|... .. .. ....
25 |OFF .. .. ....|OFF .. .. ....|... .. .. ....|... .. .. ....|... .. .. ....|... .. .. ....|... .. .. ....|... .. .. ....|... .. .. ....|... .. .. ....|... .. .. ....|... .. .. ....|C-2 .. .. ....|... .. .. ....|... .. .. ....|... .. .. ....
26 |... .. .. ....|... .. .. ....|... .. .. ....|... .. .. ....|... .. .. ....|D-3 .. .. ....|G-5 .. .. ....|C-6 .. .. ....|... .. .. ....|... .. .. ....|... .. .. ....|C-2 .. .. ....|... .. .. ....|... .. .. ....|... .. .. ....|... .. .. ....
27 |... .. .. ....|... .. .. ....|... .. .. ....|... .. .. ....|... .. .. ....|D-3 .. .. ....|... .. .. ....|... .. .. ....|... .. .. ....|... .. .. ....|... .. .. ....|... .. .. ....|C-2 .. .. ....|... .. .. ....|... .. .. ....|... .. .. ....
28 |D-4 .. .. ....|F-4 .. .. ....|... .. .. ....|... .. .. ....|... .. .. ....|D-2 .. .. ....|A-5 .. .. ....|D-6 .. .. ....|... .. .. ....|C-2 .. .. ....|... .. .. ....|... .. .. ....|C-2 .. .. ....|... .. .. ....|... .. .. ....|... .. .. ....
29 |OFF .. .. ....|OFF .. .. ....|... .. .. ....|... .. .. ....|... .. .. ....|... .. .. ....|... .. .. ....|... .. .. ....|... .. .. ....|... .. .. ....|... .. .. ....|... .. .. ....|C-2 .. .. ....|... .. .. ....|... .. .. ....|... .. .. ....
2A |... .. .. ....|... .. .. ....|... .. .. ....|... .. .. ....|... .. .. ....|D-3 .. .. ....|F-5 .. .. ....|A-5 .. .. ....|... .. .. ....|... .. .. ....|... .. .. ....|C-2 .. .. ....|... .. .. ....|... .. .. ....|... .. .. ....|... .. .. ....
2B |C-4 .. .. ....|E-4 .. .. ....|... .. .. ....|... .. .. ....|... .. .. ....|D-3 .. .. ....|... .. .. ....|... .. .. ....|... .. .. ....|... .. .. ....|... .. .. ....|... .. .. ....|C-2 .. .. ....|... .. .. ....|... .. .. ....|... .. .. ....
2C |OFF .. .. ....|OFF .. .. ....|... .. .. ....|... .. .. ....|... .. .. ....|D-2 .. .. ....|G-5 .. .. ....|C-6 .. .. ....|... .. .. ....|... .. .. ....|C-2 .. .. ....|... .. .. ....|C-2 .. .. ....|... .. .. ....|... .. .. ....|... .. .. ....
2D |... .. .. ....|... .. .. ....|... .. .. ....|... .. .. ....|... .. .. ....|... .. .. ....|... .. .. ....|... .. .. ....|... .. .. ....|... .. .. ....|... .. .. ....|... .. .. ....|C-2 .. .. ....|... .. .. ....|... .. .. ....|... .. .. ....
2E |D-4 .. .. ....|F-4 .. .. ....|... .. .. ....|... .. .. ....|... .. .. ....|D-3 .. .. ....|E-5 .. .. ....|G-5 .. .. ....|... .. .. ....|... .. .. ....|... .. .. ....|C-2 .. .. ....|... .. .. ....|... .. .. ....|... .. .. ....|... .. .. ....
2F |OFF .. .. ....|OFF .. .. ....|... .. .. ....|... .. .. ....|... .. .. ....|D-3 .. .. ....|... .. .. ....|... .. .. ....|... .. .. ....|... .. .. ....|... .. .. ....|... .. .. ....|C-2 .. .. ....|... .. .. ....|... .. .. ....|... .. .. ....
30 |... .. .. ....|... .. .. ....|... .. .. ....|... .. .. ....|... .. .. ....|D-2 .. .. ....|F-5 .. .. ....|A-5 .. .. ....|... .. .. ....|C-2 .. .. ....|... .. .. ....|... .. .. ....|C-2 .. .. ....|... .. .. ....|... .. .. ....|... .. .. ....
31 |... .. .. ....|... .. .. ....|... .. .. ....|... .. .. ....|... .. .. ....|... .. .. ....|... .. .. ....|... .. .. ....|... .. .. ....|... .. .. ....|... .. .. ....|... .. .. ....|C-2 .. .. ....|... .. .. ....|... .. .. ....|... .. .. ....
32 |D-4 .. .. ....|F-4 .. .. ....|... .. .. ....|... .. .. ....|... .. .. ....|D-3 .. .. ....|D-5 .. .. ....|F-5 .. .. ....|... .. .. ....|... .. .. ....|... .. .. ....|C-2 00 .. ....|... .. .. ....|... .. .. ....|... .. .. ....|... .. .. ....
33 |OFF .. .. ....|OFF .. .. ....|... .. .. ....|... .. .. ....|... .. .. ....|D-3 .. .. ....|... .. .. ....|... .. .. ....|... .. .. ....|... .. .. ....|... .. .. ....|... .. .. ....|C-2 .. .. ....|... .. .. ....|... .. .. ....|... .. .. ....
34 |D-4 .. .. ....|F-4 .. .. ....|... .. .. ....|... .. .. ....|... .. .. ....|D-2 .. .. ....|E-5 .. .. ....|G-5 .. .. ....|... .. .. ....|... .. .. ....|C-2 .. .. ....|... .. .. ....|C-2 .. .. ....|... .. .. ....|... .. .. ....|... .. .. ....
35 |OFF .. .. ....|OFF .. .. ....|... .. .. ....|... .. .. ....|... .. .. ....|... .. .. ....|... .. .. ....|... .. .. ....|... .. .. ....|... .. .. ....|... .. .. ....|... .. .. ....|C-2 .. .. ....|... .. .. ....|... .. .. ....|... .. .. ....
36 |... .. .. ....|... .. .. ....|... .. .. ....|... .. .. ....|... .. .. ....|D-3 .. .. ....|C-5 .. .. ....|E-5 .. .. ....|... .. .. ....|... .. .. ....|... .. .. ....|C-2 .. .. ....|... .. .. ....|... .. .. ....|... .. .. ....|... .. .. ....
37 |... .. .. ....|... .. .. ....|... .. .. ....|... .. .. ....|... .. .. ....|D-3 .. .. ....|... .. .. ....|... .. .. ....|... .. .. ....|... .. .. ....|... .. .. ....|... .. .. ....|C-2 .. .. ....|... .. .. ....|... .. .. ....|... .. .. ....
38 |E-4 .. .. ....|G-4 .. .. ....|... .. .. ....|... .. .. ....|... .. .. ....|D-2 .. .. ....|D-5 .. .. ....|F-5 .. .. ....|... .. .. ....|C-2 .. .. ....|... .. .. ....|... .. .. ....|C-2 .. .. ....|... .. .. ....|... .. .. ....|... .. .. ....
39 |OFF .. .. ....|OFF .. .. ....|... .. .. ....|... .. .. ....|... .. .. ....|... .. .. ....|... .. .. ....|... .. .. ....|... .. .. ....|... .. .. ....|... .. .. ....|... .. .. ....|C-2 .. .. ....|... .. .. ....|... .. .. ....|... .. .. ....
3A |... .. .. ....|... .. .. ....|... .. .. ....|... .. .. ....|... .. .. ....|D-3 .. .. ....|A-4 .. .. ....|D-5 .. .. ....|... .. .. ....|... .. .. ....|... .. .. ....|C-2 .. .. ....|... .. .. ....|... .. .. ....|... .. .. ....|... .. .. ....
3B |D-4 .. .. ....|F-4 .. .. ....|... .. .. ....|... .. .. ....|... .. .. ....|D-3 .. .. ....|... .. .. ....|... .. .. ....|... .. .. ....|... .. .. ....|... .. .. ....|... .. .. ....|C-2 .. .. ....|... .. .. ....|... .. .. ....|... .. .. ....
3C |OFF .. .. ....|OFF .. .. ....|... .. .. ....|... .. .. ....|... .. .. ....|D-2 .. .. ....|C-5 .. .. ....|E-5 .. .. ....|... .. .. ....|... .. .. ....|C-2 .. .. ....|... .. .. ....|C-2 .. .. ....|... .. .. ....|... .. .. ....|... .. .. ....
3D |... .. .. ....|... .. .. ....|... .. .. ....|... .. .. ....|... .. .. ....|... .. .. ....|... .. .. ....|... .. .. ....|... .. .. ....|... .. .. ....|... .. .. ....|... .. .. ....|C-2 .. .. ....|... .. .. ....|... .. .. ....|... .. .. ....
3E |C-4 .. .. ....|E-4 .. .. ....|... .. .. ....|... .. .. ....|... .. .. ....|D-3 .. .. ....|G-4 .. .. ....|C-5 .. .. ....|... .. .. ....|... .. .. ....|... .. .. ....|C-2 .. .. ....|... .. .. ....|... .. .. ....|... .. .. ....|... .. .. ....
3F |OFF .. .. ....|OFF .. .. ....|... .. .. ....|... .. .. ....|... .. .. ....|D-3 .. .. ....|... .. .. ....|... .. .. ....|... .. .. ....|... .. .. ....|... .. .. ....|... .. .. ....|C-2 .. .. ....|... .. .. ....|... .. .. ....|... .. .. ....
----- ORDER 10
00 |OFF .. .. ....|OFF .. .. ....|D-5 06 .. ....|A#3 .. .. ....|F-4 .. .. ....|A#1 .. .. ....|D-6 .. .. ....|F-6 .. .. ....|... .. .. ....|C-2 .. .. ....|... .. .. ....|... .. .. ....|C-2 .. .. ....|... .. .. ....|... .. .. ....|... .. .. ....
01 |... .. .. ....|... .. .. ....|... .. .. ....|... .. .. ....|... .. .. ....|... .. .. ....|... .. .. ....|... .. .. ....|... .. .. ....|... .. .. ....|... .. .. ....|... .. .. ....|C-2 .. .. ....|... .. .. ....|... .. .. ....|... .. .. ....
02 |D-4 05 76 ....|F-4 05 76 ....|... .. .. ....|... .. .. ....|... .. .. ....|A#2 .. .. ....|A-5 .. .. ....|D-6 .. .. ....|... .. .. ....|... .. .. ....|... .. .. ....|C-2 00 .. ....|... .. .. ....|... .. .. ....|... .. .. ....|... .. .. ....
03 |OFF .. .. ....|OFF .. .. ....|... .. .. ....|... .. .. ....|... .. .. ....|A#2 .. .. ....|... .. .. ....|... .. .. ....|... .. .. ....|... .. .. ....|... .. .. ....|... .. .. ....|C-2 .. .. ....|... .. .. ....|... .. .. ....|... .. .. ....
04 |D-4 .. .. ....|F-4 .. .. ....|... .. .. ....|... .. .. ....|... .. .. ....|A#1 .. .. ....|C-6 .. .. ....|E-6 .. .. ....|... .. .. ....|... .. .. ....|C-2 .. .. ....|... .. .. ....|C-2 .. .. ....|... .. .. ....|... .. .. ....|... .. .. ....
05 |OFF .. .. ....|OFF .. .. ....|... .. .. ....|... .. .. ....|... .. .. ....|... .. .. ....|... .. .. ....|... .. .. ....|... .. .. ....|... .. .. ....|... .. .. ....|... .. .. ....|C-2 .. .. ....|... .. .. ....|... .. .. ....|... .. .. ....
06 |... .. .. ....|... .. .. ....|... .. .. ....|... .. .. ....|... .. .. ....|A#2 .. .. ....|G-5 .. .. ....|C-6 .. .. ....|... .. .. ....|... .. .. ....|... .. .. ....|C-2 .. .. ....|... .. .. ....|... .. .. ....|... .. .. ....|... .. .. ....
07 |... .. .. ....|... .. .. ....|... .. .. ....|... .. .. ....|... .. .. ....|A#2 .. .. ....|... .. .. ....|... .. .. ....|... .. .. ....|... .. .. ....|... .. .. ....|... .. .. ....|C-2 .. .. ....|... .. .. ....|... .. .. ....|... .. .. ....
08 |D-4 .. .. ....|F-4 .. .. ....|... .. .. ....|... .. .. ....|... .. .. ....|A#1 .. .. ....|A-5 .. .. ....|D-6 .. .. ....|... .. .. ....|C-2 .. .. ....|... .. .. ....|... .. .. ....|C-2 .. .. ....|... .. .. ....|... .. .. ....|... .. .. ....
09 |OFF .. .. ....|OFF .. .. ....|... .. .. ....|... .. .. ....|... .. .. ....|... .. .. ....|... .. .. ....|... .. .. ....|... .. .. ....|... .. .. ....|... .. .. ....|... .. .. ....|C-2 .. .. ....|... .. .. ....|... .. .. ....|... .. .. ....
0A |... .. .. ....|... .. .. ....|... .. .. ....|... .. .. ....|... .. .. ....|A#2 .. .. ....|F-5 .. .. ....|A-5 .. .. ....|... .. .. ....|... .. .. ....|... .. .. ....|C-2 .. .. ....|... .. .. ....|... .. .. ....|... .. .. ....|... .. .. ....
0B |C-4 .. .. ....|E-4 .. .. ....|... .. .. ....|... .. .. ....|... .. .. ....|A#2 .. .. ....|... .. .. ....|... .. .. ....|... .. .. ....|... .. .. ....|... .. .. ....|... .. .. ....|C-2 .. .. ....|... .. .. ....|... .. .. ....|... .. .. ....
0C |OFF .. .. ....|OFF .. .. ....|... .. .. ....|... .. .. ....|... .. .. ....|A#1 .. .. ....|G-5 .. .. ....|C-6 .. .. ....|... .. .. ....|... .. .. ....|C-2 .. .. ....|... .. .. ....|C-2 .. .. ....|... .. .. ....|... .. .. ....|... .. .. ....
0D |... .. .. ....|... .. .. ....|... .. .. ....|... .. .. ....|... .. .. ....|... .. .. ....|... .. .. ....|... .. .. ....|... .. .. ....|... .. .. ....|... .. .. ....|... .. .. ....|C-2 .. .. ....|... .. .. ....|... .. .. ....|... .. .. ....
0E |D-4 .. .. ....|F-4 .. .. ....|... .. .. ....|... .. .. ....|... .. .. ....|A#2 .. .. ....|E-5 .. .. ....|G-5 .. .. ....|... .. .. ....|... .. .. ....|... .. .. ....|C-2 .. .. ....|... .. .. ....|... .. .. ....|... .. .. ....|... .. .. ....
0F |OFF .. .. ....|OFF .. .. ....|... .. .. ....|... .. .. ....|... .. .. ....|A#2 .. .. ....|... .. .. ....|... .. .. ....|... .. .. ....|... .. .. ....|... .. .. ....|... .. .. ....|C-2 .. .. ....|... .. .. ....|... .. .. ....|... .. .. ....
10 |... .. .. ....|... .. .. ....|... .. .. ....|... .. .. ....|... .. .. ....|A#1 .. .. ....|F-5 .. .. ....|A-5 .. .. ....|... .. .. ....|C-2 .. .. ....|... .. .. ....|... .. .. ....|C-2 .. .. ....|... .. .. ....|... .. .. ....|... .. .. ....
11 |... .. .. ....|... .. .. ....|... .. .. ....|... .. .. ....|... .. .. ....|... .. .. ....|... .. .. ....|... .. .. ....|... .. .. ....|... .. .. ....|... .. .. ....|... .. .. ....|C-2 .. .. ....|... .. .. ....|... .. .. ....|... .. .. ....
12 |D-4 .. .. ....|F-4 .. .. ....|... .. .. ....|... .. .. ....|... .. .. ....|A#2 .. .. ....|D-5 .. .. ....|F-5 .. .. ....|... .. .. ....|... .. .. ....|... .. .. ....|C-2 00 .. ....|... .. .. ....|... .. .. ....|... .. .. ....|... .. .. ....
13 |OFF .. .. ....|OFF .. .. ....|... .. .. ....|... .. .. ....|... .. .. ....|A#2 .. .. ....|... .. .. ....|... .. .. ....|... .. .. ....|... .. .. ....|... .. .. ....|... .. .. ....|C-2 .. .. ....|... .. .. ....|... .. .. ....|... .. .. ....
14 |D-4 .. .. ....|F-4 .. .. ....|... .. .. ....|... .. .. ....|... .. .. ....|A#1 .. .. ....|E-5 .. .. ....|G-5 .. .. ....|... .. .. ....|... .. .. ....|C-2 .. .. ....|... .. .. ....|C-2 .. .. ....|... .. .. ....|... .. .. ....|... .. .. ....
15 |OFF .. .. ....|OFF .. .. ....|... .. .. ....|... .. .. ....|... .. .. ....|... .. .. ....|... .. .. ....|... .. .. ....|... .. .. ....|... .. .. ....|... .. .. ....|... .. .. ....|C-2 .. .. ....|... .. .. ....|... .. .. ....|... .. .. ....
16 |... .. .. ....|... .. .. ....|... .. .. ....|... .. .. ....|... .. .. ....|A#2 .. .. ....|C-5 .. .. ....|E-5 .. .. ....|... .. .. ....|... .. .. ....|... .. .. ....|C-2 .. .. ....|... .. .. ....|... .. .. ....|... .. .. ....|... .. .. ....
17 |... .. .. ....|... .. .. ....|... .. .. ....|... .. .. ....|... .. .. ....|A#2 .. .. ....|... .. .. ....|... .. .. ....|... .. .. ....|... .. .. ....|... .. .. ....|... .. .. ....|C-2 .. .. ....|... .. .. ....|... .. .. ....|... .. .. ....
18 |D-4 .. .. ....|F-4 .. .. ....|... .. .. ....|... .. .. ....|... .. .. ....|A#1 .. .. ....|D-5 .. .. ....|F-5 .. .. ....|... .. .. ....|C-2 .. .. ....|... .. .. ....|... .. .. ....|C-2 .. .. ....|... .. .. ....|... .. .. ....|... .. .. ....
19 |OFF .. .. ....|OFF .. .. ....|... .. .. ....|... .. .. ....|... .. .. ....|... .. .. ....|... .. .. ....|... .. .. ....|... .. .. ....|... .. .. ....|... .. .. ....|... .. .. ....|C-2 .. .. ....|... .. .. ....|... .. .. ....|... .. .. ....
1A |... .. .. ....|... .. .. ....|... .. .. ....|... .. .. ....|... .. .. ....|A#2 .. .. ....|A-4 .. .. ....|D-5 .. .. ....|... .. .. ....|... .. .. ....|... .. .. ....|C-2 .. .. ....|... .. .. ....|... .. .. ....|... .. .. ....|... .. .. ....
1B |C-4 .. .. ....|E-4 .. .. ....|... .. .. ....|... .. .. ....|... .. .. ....|A#2 .. .. ....|... .. .. ....|... .. .. ....|... .. .. ....|... .. .. ....|... .. .. ....|... .. .. ....|C-2 .. .. ....|... .. .. ....|... .. .. ....|... .. .. ....
1C |OFF .. .. ....|OFF .. .. ....|... .. .. ....|... .. .. ....|... .. .. ....|A#1 .. .. ....|C-5 .. .. ....|E-5 .. .. ....|... .. .. ....|... .. .. ....|C-2 .. .. ....|... .. .. ....|C-2 .. .. ....|... .. .. ....|... .. .. ....|... .. .. ....
1D |... .. .. ....|... .. .. ....|... .. .. ....|... .. .. ....|... .. .. ....|... .. .. ....|... .. .. ....|... .. .. ....|... .. .. ....|... .. .. ....|... .. .. ....|... .. .. ....|C-2 .. .. ....|... .. .. ....|... .. .. ....|... .. .. ....
1E |D-4 .. .. ....|F-4 .. .. ....|... .. .. ....|... .. .. ....|... .. .. ....|A#2 .. .. ....|G-4 .. .. ....|C-5 .. .. ....|... .. .. ....|... .. .. ....|... .. .. ....|C-2 .. .. ....|... .. .. ....|... .. .. ....|... .. .. ....|... .. .. ....
1F |OFF .. .. ....|OFF .. .. ....|... .. .. ....|... .. .. ....|... .. .. ....|A#2 .. .. ....|... .. .. ....|... .. .. ....|... .. .. ....|... .. .. ....|... .. .. ....|... .. .. ....|C-2 .. .. ....|... .. .. ....|... .. .. ....|... .. .. ....
20 |... .. .. ....|... .. .. ....|E-5 .. .. ....|C-4 .. .. ....|G-4 .. .. ....|C-2 .. .. ....|D-6 .. .. ....|F-6 .. .. ....|... .. .. ....|C-2 .. .. ....|... .. .. ....|... .. .. ....|C-2 .. .. ....|... .. .. ....|... .. .. ....|... .. .. ....
21 |... .. .. ....|... .. .. ....|... .. .. ....|... .. .. ....|... .. .. ....|... .. .. ....|... .. .. ....|... .. .. ....|... .. .. ....|... .. .. ....|... .. .. ....|... .. .. ....|C-2 .. .. ....|... .. .. ....|... .. .. ....|... .. .. ....
22 |D-4 .. .. ....|F-4 .. .. ....|... .. .. ....|... .. .. ....|... .. .. ....|C-3 .. .. ....|A-5 .. .. ....|D-6 .. .. ....|... .. .. ....|... .. .. ....|... .. .. ....|C-2 00 .. ....|... .. .. ....|... .. .. ....|... .. .. ....|... .. .. ....
23 |OFF .. .. ....|OFF .. .. ....|... .. .. ....|... .. .. ....|... .. .. ....|C-3 .. .. ....|... .. .. ....|... .. .. ....|... .. .. ....|... .. .. ....|... .. .. ....|... .. .. ....|C-2 .. .. ....|... .. .. ....|... .. .. ....|... .. .. ....
24 |D-4 .. .. ....|F-4 .. .. ....|... .. .. ....|... .. .. ....|... .. .. ....|C-2 .. .. ....|C-6 .. .. ....|E-6 .. .. ....|... .. .. ....|... .. .. ....|C-2 .. .. ....|... .. .. ....|C-2 .. .. ....|... .. .. ....|... .. .. ....|... .. .. ....
25 |OFF .. .. ....|OFF .. .. ....|... .. .. ....|... .. .. ....|... .. .. ....|... .. .. ....|... .. .. ....|... .. .. ....|... .. .. ....|... .. .. ....|... .. .. ....|... .. .. ....|C-2 .. .. ....|... .. .. ....|... .. .. ....|... .. .. ....
26 |... .. .. ....|... .. .. ....|... .. .. ....|... .. .. ....|... .. .. ....|C-3 .. .. ....|G-5 .. .. ....|C-6 .. .. ....|... .. .. ....|... .. .. ....|... .. .. ....|C-2 .. .. ....|... .. .. ....|... .. .. ....|... .. .. ....|... .. .. ....
27 |... .. .. ....|... .. .. ....|... .. .. ....|... .. .. ....|... .. .. ....|C-3 .. .. ....|... .. .. ....|... .. .. ....|... .. .. ....|... .. .. ....|... .. .. ....|... .. .. ....|C-2 .. .. ....|... .. .. ....|... .. .. ....|... .. .. ....
28 |D-4 .. .. ....|F-4 .. .. ....|... .. .. ....|... .. .. ....|... .. .. ....|C-2 .. .. ....|A-5 .. .. ....|D-6 .. .. ....|... .. .. ....|C-2 .. .. ....|... .. .. ....|... .. .. ....|C-2 .. .. ....|... .. .. ....|... .. .. ....|... .. .. ....
29 |OFF .. .. ....|OFF .. .. ....|... .. .. ....|... .. .. ....|... .. .. ....|... .. .. ....|... .. .. ....|... .. .. ....|... .. .. ....|... .. .. ....|... .. .. ....|... .. .. ....|C-2 .. .. ....|... .. .. ....|... .. .. ....|... .. .. ....
2A |... .. .. ....|... .. .. ....|... .. .. ....|... .. .. ....|... .. .. ....|C-3 .. .. ....|F-5 .. .. ....|A-5 .. .. ....|... .. .. ....|... .. .. ....|... .. .. ....|C-2 .. .. ....|... .. .. ....|... .. .. ....|... .. .. ....|... .. .. ....
2B |C-4 .. .. ....|E-4 .. .. ....|... .. .. ....|... .. .. ....|... .. .. ....|C-3 .. .. ....|... .. .. ....|... .. .. ....|... .. .. ....|... .. .. ....|... .. .. ....|... .. .. ....|C-2 .. .. ....|... .. .. ....|... .. .. ....|... .. .. ....
2C |OFF .. .. ....|OFF .. .. ....|... .. .. ....|... .. .. ....|... .. .. ....|C-2 .. .. ....|G-5 .. .. ....|C-6 .. .. ....|... .. .. ....|... .. .. ....|C-2 .. .. ....|... .. .. ....|C-2 .. .. ....|... .. .. ....|... .. .. ....|... .. .. ....
2D |... .. .. ....|... .. .. ....|... .. .. ....|... .. .. ....|... .. .. ....|... .. .. ....|... .. .. ....|... .. .. ....|... .. .. ....|... .. .. ....|... .. .. ....|... .. .. ....|C-2 .. .. ....|... .. .. ....|... .. .. ....|... .. .. ....
2E |D-4 .. .. ....|F-4 .. .. ....|... .. .. ....|... .. .. ....|... .. .. ....|C-3 .. .. ....|E-5 .. .. ....|G-5 .. .. ....|... .. .. ....|... .. .. ....|... .. .. ....|C-2 .. .. ....|... .. .. ....|... .. .. ....|... .. .. ....|... .. .. ....
2F |OFF .. .. ....|OFF .. .. ....|... .. .. ....|... .. .. ....|... .. .. ....|C-3 .. .. ....|... .. .. ....|... .. .. ....|... .. .. ....|... .. .. ....|... .. .. ....|... .. .. ....|C-2 .. .. ....|... .. .. ....|... .. .. ....|... .. .. ....
30 |... .. .. ....|... .. .. ....|C-5 .. .. ....|G-3 .. .. ....|E-4 .. .. ....|C-2 .. .. ....|F-5 .. .. ....|A-5 .. .. ....|... .. .. ....|C-2 .. .. ....|... .. .. ....|... .. .. ....|C-2 .. .. ....|... .. .. ....|... .. .. ....|... .. .. ....
31 |... .. .. ....|... .. .. ....|... .. .. ....|... .. .. ....|... .. .. ....|... .. .. ....|... .. .. ....|... .. .. ....|... .. .. ....|... .. .. ....|... .. .. ....|... .. .. ....|C-2 .. .. ....|... .. .. ....|... .. .. ....|... .. .. ....
32 |D-4 .. .. ....|F-4 .. .. ....|... .. .. ....|... .. .. ....|... .. .. ....|C-3 .. .. ....|D-5 .. .. ....|F-5 .. .. ....|... .. .. ....|... .. .. ....|... .. .. ....|C-2 00 .. ....|... .. .. ....|... .. .. ....|... .. .. ....|... .. .. ....
33 |OFF .. .. ....|OFF .. .. ....|... .. .. ....|... .. .. ....|... .. .. ....|C-3 .. .. ....|... .. .. ....|... .. .. ....|... .. .. ....|... .. .. ....|... .. .. ....|... .. .. ....|C-2 .. .. ....|... .. .. ....|... .. .. ....|... .. .. ....
34 |D-4 .. .. ....|F-4 .. .. ....|... .. .. ....|... .. .. ....|... .. .. ....|C-2 .. .. ....|E-5 .. .. ....|G-5 .. .. ....|... .. .. ....|... .. .. ....|C-2 .. .. ....|... .. .. ....|C-2 .. .. ....|... .. .. ....|... .. .. ....|... .. .. ....
35 |OFF .. .. ....|OFF .. .. ....|... .. .. ....|... .. .. ....|... .. .. ....|... .. .. ....|... .. .. ....|... .. .. ....|... .. .. ....|... .. .. ....|... .. .. ....|... .. .. ....|C-2 .. .. ....|... .. .. ....|... .. .. ....|... .. .. ....
36 |... .. .. ....|... .. .. ....|... .. .. ....|... .. .. ....|... .. .. ....|C-3 .. .. ....|C-5 .. .. ....|E-5 .. .. ....|... .. .. ....|... .. .. ....|... .. .. ....|C-2 .. .. ....|... .. .. ....|... .. .. ....|... .. .. ....|... .. .. ....
37 |... .. .. ....|... .. .. ....|... .. .. ....|... .. .. ....|... .. .. ....|C-3 .. .. ....|... .. .. ....|... .. .. ....|... .. .. ....|... .. .. ....|... .. .. ....|... .. .. ....|C-2 .. .. ....|... .. .. ....|... .. .. ....|... .. .. ....
38 |E-4 .. .. ....|G-4 .. .. ....|... .. .. ....|... .. .. ....|... .. .. ....|C-2 .. .. ....|D-5 .. .. ....|F-5 .. .. ....|... .. .. ....|C-2 .. .. ....|... .. .. ....|... .. .. ....|C-2 .. .. ....|... .. .. ....|... .. .. ....|... .. .. ....
39 |OFF .. .. ....|OFF .. .. ....|... .. .. ....|... .. .. ....|... .. .. ....|... .. .. ....|... .. .. ....|... .. .. ....|... .. .. ....|... .. .. ....|... .. .. ....|... .. .. ....|C-2 .. .. ....|... .. .. ....|... .. .. ....|... .. .. ....
3A |... .. .. ....|... .. .. ....|... .. .. ....|... .. .. ....|... .. .. ....|C-3 .. .. ....|F-5 .. .. ....|A-5 .. .. ....|... .. .. ....|... .. .. ....|... .. .. ....|C-2 .. .. ....|... .. .. ....|... .. .. ....|... .. .. ....|... .. .. ....
3B |D-4 .. .. ....|F-4 .. .. ....|... .. .. ....|... .. .. ....|... .. .. ....|C-3 .. .. ....|... .. .. ....|... .. .. ....|... .. .. ....|... .. .. ....|... .. .. ....|... .. .. ....|C-2 .. .. ....|... .. .. ....|... .. .. ....|... .. .. ....
3C |OFF .. .. ....|OFF .. .. ....|... .. .. ....|... .. .. ....|... .. .. ....|C-2 .. .. ....|A-5 .. .. ....|C-6 .. .. ....|... .. .. ....|... .. .. ....|C-2 .. .. ....|... .. .. ....|C-2 .. .. ....|... .. .. ....|... .. .. ....|... .. .. ....
3D |... .. .. ....|... .. .. ....|... .. .. ....|... .. .. ....|... .. .. ....|... .. .. ....|... .. .. ....|... .. .. ....|... .. .. ....|... .. .. ....|... .. .. ....|... .. .. ....|C-2 .. .. ....|... .. .. ....|... .. .. ....|... .. .. ....
3E |C-4 .. .. ....|E-4 .. .. ....|... .. .. ....|... .. .. ....|... .. .. ....|C-3 .. .. ....|C-6 .. .. ....|E-6 .. .. ....|... .. .. ....|... .. .. ....|... .. .. ....|C-2 .. .. ....|... .. .. ....|... .. .. ....|... .. .. ....|... .. .. ....
3F |OFF .. .. ....|OFF .. .. ....|... .. .. ....|... .. .. ....|... .. .. ....|... .. .. ....|... .. .. ....|... .. .. ....|... .. .. ....|... .. .. ....|... .. .. ....|... .. .. ....|C-2 .. .. ....|... .. .. ....|... .. .. ....|... .. .. ....
----- ORDER 11
00 |OFF .. .. ....|OFF .. .. ....|OFF .. .. ....|OFF .. .. ....|OFF .. .. ....|OFF .. .. ....|D-7 .. .. ....|OFF .. .. ....|... .. .. ....|... .. .. ....|C-5 .. .. ....|... .. .. ....|... .. .. ....|... .. .. ....|... .. .. ....|... .. .. ....
01 |... .. .. ....|... .. .. ....|... .. .. ....|... .. .. ....|... .. .. ....|... .. .. ....|A-6 .. .. ....|... .. .. ....|... .. .. ....|... .. .. ....|C-5 .. .. ....|... .. .. ....|... .. .. ....|... .. .. ....|... .. .. ....|... .. .. ....
02 |... .. .. ....|... .. .. ....|... .. .. ....|... .. .. ....|... .. .. ....|... .. .. ....|F-6 .. .. ....|... .. .. ....|... .. .. ....|... .. .. ....|C-5 .. .. ....|... .. .. ....|... .. .. ....|... .. .. ....|... .. .. ....|... .. .. ....
03 |... .. .. ....|... .. .. ....|... .. .. ....|... .. .. ....|... .. .. ....|... .. .. ....|E-6 .. .. ....|... .. .. ....|... .. .. ....|... .. .. ....|C-5 .. .. ....|... .. .. ....|... .. .. ....|... .. .. ....|... .. .. ....|... .. .. ....
04 |... .. .. ....|... .. .. ....|... .. .. ....|... .. .. ....|... .. .. ....|... .. .. ....|D-6 .. .. ....|... .. .. ....|... .. .. ....|... .. .. ....|... .. .. ....|C-5 01 .. ....|... .. .. ....|... .. .. ....|... .. .. ....|... .. .. ....
05 |... .. .. ....|... .. .. ....|... .. .. ....|... .. .. ....|... .. .. ....|... .. .. ....|A-5 .. .. ....|... .. .. ....|... .. .. ....|... .. .. ....|... .. .. ....|... .. .. ....|... .. .. ....|... .. .. ....|... .. .. ....|... .. .. ....
06 |... .. .. ....|... .. .. ....|... .. .. ....|... .. .. ....|... .. .. ....|... .. .. ....|F-5 .. .. ....|... .. .. ....|... .. .. ....|... .. .. ....|... .. .. ....|... .. .. ....|... .. .. ....|... .. .. ....|... .. .. ....|... .. .. ....
07 |... .. .. ....|... .. .. ....|... .. .. ....|... .. .. ....|... .. .. ....|... .. .. ....|E-5 .. .. ....|... .. .. ....|... .. .. ....|... .. .. ....|... .. .. ....|... .. .. ....|... .. .. ....|... .. .. ....|... .. .. ....|... .. .. 0D..
08 |... .. .. ....|... .. .. ....|... .. .. ....|... .. .. ....|... .. .. ....|... .. .. ....|... .. .. ....|... .. .. ....|... .. .. ....|... .. .. ....|... .. .. ....|... .. .. ....|... .. .. ....|... .. .. ....|... .. .. ....|... .. .. ....
09 |... .. .. ....|... .. .. ....|... .. .. ....|... .. .. ....|... .. .. ....|... .. .. ....|... .. .. ....|... .. .. ....|... .. .. ....|... .. .. ....|... .. .. ....|... .. .. ....|... .. .. ....|... .. .. ....|... .. .. ....|... .. .. ....
0A |... .. .. ....|... .. .. ....|... .. .. ....|... .. .. ....|... .. .. ....|... .. .. ....|... .. .. ....|... .. .. ....|... .. .. ....|... .. .. ....|... .. .. ....|... .. .. ....|... .. .. ....|... .. .. ....|... .. .. ....|... .. .. ....
0B |... .. .. ....|... .. .. ....|... .. .. ....|... .. .. ....|... .. .. ....|... .. .. ....|... .. .. ....|... .. .. ....|... .. .. ....|... .. .. ....|... .. .. ....|... .. .. ....|... .. .. ....|... .. .. ....|... .. .. ....|... .. .. ....
0C |... .. .. ....|... .. .. ....|... .. .. ....|... .. .. ....|... .. .. ....|... .. .. ....|... .. .. ....|... .. .. ....|... .. .. ....|... .. .. ....|... .. .. ....|... .. .. ....|... .. .. ....|... .. .. ....|... .. .. ....|... .. .. ....
0D |... .. .. ....|... .. .. ....|... .. .. ....|... .. .. ....|... .. .. ....|... .. .. ....|... .. .. ....|... .. .. ....|... .. .. ....|... .. .. ....|... .. .. ....|... .. .. ....|... .. .. ....|... .. .. ....|... .. .. ....|... .. .. ....
0E |... .. .. ....|... .. .. ....|... .. .. ....|... .. .. ....|... .. .. ....|... .. .. ....|... .. .. ....|... .. .. ....|... .. .. ....|... .. .. ....|... .. .. ....|... .. .. ....|... .. .. ....|... .. .. ....|... .. .. ....|... .. .. ....
0F |... .. .. ....|... .. .. ....|... .. .. ....|... .. .. ....|... .. .. ....|... .. .. ....|... .. .. ....|... .. .. ....|... .. .. ....|... .. .. ....|... .. .. ....|... .. .. ....|... .. .. ....|... .. .. ....|... .. .. ....|... .. .. ....
10 |... .. .. ....|... .. .. ....|... .. .. ....|... .. .. ....|... .. .. ....|... .. .. ....|... .. .. ....|... .. .. ....|... .. .. ....|... .. .. ....|... .. .. ....|... .. .. ....|... .. .. ....|... .. .. ....|... .. .. ....|... .. .. ....
11 |... .. .. ....|... .. .. ....|... .. .. ....|... .. .. ....|... .. .. ....|... .. .. ....|... .. .. ....|... .. .. ....|... .. .. ....|... .. .. ....|... .. .. ....|... .. .. ....|... .. .. ....|... .. .. ....|... .. .. ....|... .. .. ....
12 |... .. .. ....|... .. .. ....|... .. .. ....|... .. .. ....|... .. .. ....|... .. .. ....|... .. .. ....|... .. .. ....|... .. .. ....|... .. .. ....|... .. .. ....|... .. .. ....|... .. .. ....|... .. .. ....|... .. .. ....|... .. .. ....
13 |... .. .. ....|... .. .. ....|... .. .. ....|... .. .. ....|... .. .. ....|... .. .. ....|... .. .. ....|... .. .. ....|... .. .. ....|... .. .. ....|... .. .. ....|... .. .. ....|... .. .. ....|... .. .. ....|... .. .. ....|... .. .. ....
14 |... .. .. ....|... .. .. ....|... .. .. ....|... .. .. ....|... .. .. ....|... .. .. ....|... .. .. ....|... .. .. ....|... .. .. ....|... .. .. ....|... .. .. ....|... .. .. ....|... .. .. ....|... .. .. ....|... .. .. ....|... .. .. ....
15 |... .. .. ....|... .. .. ....|... .. .. ....|... .. .. ....|... .. .. ....|... .. .. ....|... .. .. ....|... .. .. ....|... .. .. ....|... .. .. ....|... .. .. ....|... .. .. ....|... .. .. ....|... .. .. ....|... .. .. ....|... .. .. ....
16 |... .. .. ....|... .. .. ....|... .. .. ....|... .. .. ....|... .. .. ....|... .. .. ....|... .. .. ....|... .. .. ....|... .. .. ....|... .. .. ....|... .. .. ....|... .. .. ....|... .. .. ....|... .. .. ....|... .. .. ....|... .. .. ....
17 |... .. .. ....|... .. .. ....|... .. .. ....|... .. .. ....|... .. .. ....|... .. .. ....|... .. .. ....|... .. .. ....|... .. .. ....|... .. .. ....|... .. .. ....|... .. .. ....|... .. .. ....|... .. .. ....|... .. .. ....|... .. .. ....
18 |... .. .. ....|... .. .. ....|... .. .. ....|... .. .. ....|... .. .. ....|... .. .. ....|... .. .. ....|... .. .. ....|... .. .. ....|... .. .. ....|... .. .. ....|... .. .. ....|... .. .. ....|... .. .. ....|... .. .. ....|... .. .. ....
19 |... .. .. ....|... .. .. ....|... .. .. ....|... .. .. ....|... .. .. ....|... .. .. ....|... .. .. ....|... .. .. ....|... .. .. ....|... .. .. ....|... .. .. ....|... .. .. ....|... .. .. ....|... .. .. ....|... .. .. ....|... .. .. ....
1A |... .. .. ....|... .. .. ....|... .. .. ....|... .. .. ....|... .. .. ....|... .. .. ....|... .. .. ....|... .. .. ....|... .. .. ....|... .. .. ....|... .. .. ....|... .. .. ....|... .. .. ....|... .. .. ....|... .. .. ....|... .. .. ....
1B |... .. .. ....|... .. .. ....|... .. .. ....|... .. .. ....|... .. .. ....|... .. .. ....|... .. .. ....|... .. .. ....|... .. .. ....|... .. .. ....|... .. .. ....|... .. .. ....|... .. .. ....|... .. .. ....|... .. .. ....|... .. .. ....
1C |... .. .. ....|... .. .. ....|... .. .. ....|... .. .. ....|... .. .. ....|... .. .. ....|... .. .. ....|... .. .. ....|... .. .. ....|... .. .. ....|... .. .. ....|... .. .. ....|... .. .. ....|... .. .. ....|... .. .. ....|... .. .. ....
1D |... .. .. ....|... .. .. ....|... .. .. ....|... .. .. ....|... .. .. ....|... .. .. ....|... .. .. ....|... .. .. ....|... .. .. ....|... .. .. ....|... .. .. ....|... .. .. ....|... .. .. ....|... .. .. ....|... .. .. ....|... .. .. ....
1E |... .. .. ....|... .. .. ....|... .. .. ....|... .. .. ....|... .. .. ....|... .. .. ....|... .. .. ....|... .. .. ....|... .. .. ....|... .. .. ....|... .. .. ....|... .. .. ....|... .. .. ....|... .. .. ....|... .. .. ....|... .. .. ....
1F |... .. .. ....|... .. .. ....|... .. .. ....|... .. .. ....|... .. .. ....|... .. .. ....|... .. .. ....|... .. .. ....|... .. .. ....|... .. .. ....|... .. .. ....|... .. .. ....|... .. .. ....|... .. .. ....|... .. .. ....|... .. .. ....
20 |... .. .. ....|... .. .. ....|... .. .. ....|... .. .. ....|... .. .. ....|... .. .. ....|... .. .. ....|... .. .. ....|... .. .. ....|... .. .. ....|... .. .. ....|... .. .. ....|... .. .. ....|... .. .. ....|... .. .. ....|... .. .. ....
21 |... .. .. ....|... .. .. ....|... .. .. ....|... .. .. ....|... .. .. ....|... .. .. ....|... .. .. ....|... .. .. ....|... .. .. ....|... .. .. ....|... .. .. ....|... .. .. ....|... .. .. ....|... .. .. ....|... .. .. ....|... .. .. ....
22 |... .. .. ....|... .. .. ....|... .. .. ....|... .. .. ....|... .. .. ....|... .. .. ....|... .. .. ....|... .. .. ....|... .. .. ....|... .. .. ....|... .. .. ....|... .. .. ....|... .. .. ....|... .. .. ....|... .. .. ....|... .. .. ....
23 |... .. .. ....|... .. .. ....|... .. .. ....|... .. .. ....|... .. .. ....|... .. .. ....|... .. .. ....|... .. .. ....|... .. .. ....|... .. .. ....|... .. .. ....|... .. .. ....|... .. .. ....|... .. .. ....|... .. .. ....|... .. .. ....
24 |... .. .. ....|... .. .. ....|... .. .. ....|... .. .. ....|... .. .. ....|... .. .. ....|... .. .. ....|... .. .. ....|... .. .. ....|... .. .. ....|... .. .. ....|... .. .. ....|... .. .. ....|... .. .. ....|... .. .. ....|... .. .. ....
25 |... .. .. ....|... .. .. ....|... .. .. ....|... .. .. ....|... .. .. ....|... .. .. ....|... .. .. ....|... .. .. ....|... .. .. ....|... .. .. ....|... .. .. ....|... .. .. ....|... .. .. ....|... .. .. ....|... .. .. ....|... .. .. ....
26 |... .. .. ....|... .. .. ....|... .. .. ....|... .. .. ....|... .. .. ....|... .. .. ....|... .. .. ....|... .. .. ....|... .. .. ....|... .. .. ....|... .. .. ....|... .. .. ....|... .. .. ....|... .. .. ....|... .. .. ....|... .. .. ....
27 |... .. .. ....|... .. .. ....|... .. .. ....|... .. .. ....|... .. .. ....|... .. .. ....|... .. .. ....|... .. .. ....|... .. .. ....|... .. .. ....|... .. .. ....|... .. .. ....|... .. .. ....|... .. .. ....|... .. .. ....|... .. .. ....
28 |... .. .. ....|... .. .. ....|... .. .. ....|... .. .. ....|... .. .. ....|... .. .. ....|... .. .. ....|... .. .. ....|... .. .. ....|... .. .. ....|... .. .. ....|... .. .. ....|... .. .. ....|... .. .. ....|... .. .. ....|... .. .. ....
29 |... .. .. ....|... .. .. ....|... .. .. ....|... .. .. ....|... .. .. ....|... .. .. ....|... .. .. ....|... .. .. ....|... .. .. ....|... .. .. ....|... .. .. ....|... .. .. ....|... .. .. ....|... .. .. ....|... .. .. ....|... .. .. ....
2A |... .. .. ....|... .. .. ....|... .. .. ....|... .. .. ....|... .. .. ....|... .. .. ....|... .. .. ....|... .. .. ....|... .. .. ....|... .. .. ....|... .. .. ....|... .. .. ....|... .. .. ....|... .. .. ....|... .. .. ....|... .. .. ....
2B |... .. .. ....|... .. .. ....|... .. .. ....|... .. .. ....|... .. .. ....|... .. .. ....|... .. .. ....|... .. .. ....|... .. .. ....|... .. .. ....|... .. .. ....|... .. .. ....|... .. .. ....|... .. .. ....|... .. .. ....|... .. .. ....
2C |... .. .. ....|... .. .. ....|... .. .. ....|... .. .. ....|... .. .. ....|... .. .. ....|... .. .. ....|... .. .. ....|... .. .. ....|... .. .. ....|... .. .. ....|... .. .. ....|... .. .. ....|... .. .. ....|... .. .. ....|... .. .. ....
2D |... .. .. ....|... .. .. ....|... .. .. ....|... .. .. ....|... .. .. ....|... .. .. ....|... .. .. ....|... .. .. ....|... .. .. ....|... .. .. ....|... .. .. ....|... .. .. ....|... .. .. ....|... .. .. ....|... .. .. ....|... .. .. ....
2E |... .. .. ....|... .. .. ....|... .. .. ....|... .. .. ....|... .. .. ....|... .. .. ....|... .. .. ....|... .. .. ....|... .. .. ....|... .. .. ....|... .. .. ....|... .. .. ....|... .. .. ....|... .. .. ....|... .. .. ....|... .. .. ....
2F |... .. .. ....|... .. .. ....|... .. .. ....|... .. .. ....|... .. .. ....|... .. .. ....|... .. .. ....|... .. .. ....|... .. .. ....|... .. .. ....|... .. .. ....|... .. .. ....|... .. .. ....|... .. .. ....|... .. .. ....|... .. .. ....
30 |... .. .. ....|... .. .. ....|... .. .. ....|... .. .. ....|... .. .. ....|... .. .. ....|... .. .. ....|... .. .. ....|... .. .. ....|... .. .. ....|... .. .. ....|... .. .. ....|... .. .. ....|... .. .. ....|... .. .. ....|... .. .. ....
31 |... .. .. ....|... .. .. ....|... .. .. ....|... .. .. ....|... .. .. ....|... .. .. ....|... .. .. ....|... .. .. ....|... .. .. ....|... .. .. ....|... .. .. ....|... .. .. ....|... .. .. ....|... .. .. ....|... .. .. ....|... .. .. ....
32 |... .. .. ....|... .. .. ....|... .. .. ....|... .. .. ....|... .. .. ....|... .. .. ....|... .. .. ....|... .. .. ....|... .. .. ....|... .. .. ....|... .. .. ....|... .. .. ....|... .. .. ....|... .. .. ....|... .. .. ....|... .. .. ....
33 |... .. .. ....|... .. .. ....|... .. .. ....|... .. .. ....|... .. .. ....|... .. .. ....|... .. .. ....|... .. .. ....|... .. .. ....|... .. .. ....|... .. .. ....|... .. .. ....|... .. .. ....|... .. .. ....|... .. .. ....|... .. .. ....
34 |... .. .. ....|... .. .. ....|... .. .. ....|... .. .. ....|... .. .. ....|... .. .. ....|... .. .. ....|... .. .. ....|... .. .. ....|... .. .. ....|... .. .. ....|... .. .. ....|... .. .. ....|... .. .. ....|... .. .. ....|... .. .. ....
35 |... .. .. ....|... .. .. ....|... .. .. ....|... .. .. ....|... .. .. ....|... .. .. ....|... .. .. ....|... .. .. ....|... .. .. ....|... .. .. ....|... .. .. ....|... .. .. ....|... .. .. ....|... .. .. ....|... .. .. ....|... .. .. ....
36 |... .. .. ....|... .. .. ....|... .. .. ....|... .. .. ....|... .. .. ....|... .. .. ....|... .. .. ....|... .. .. ....|... .. .. ....|... .. .. ....|... .. .. ....|... .. .. ....|... .. .. ....|... .. .. ....|... .. .. ....|... .. .. ....
37 |... .. .. ....|... .. .. ....|... .. .. ....|... .. .. ....|... .. .. ....|... .. .. ....|... .. .. ....|... .. .. ....|... .. .. ....|... .. .. ....|... .. .. ....|... .. .. ....|... .. .. ....|... .. .. ....|... .. .. ....|... .. .. ....
38 |... .. .. ....|... .. .. ....|... .. .. ....|... .. .. ....|... .. .. ....|... .. .. ....|... .. .. ....|... .. .. ....|... .. .. ....|C-3 .. .. ....|... .. .. ....|... .. .. ....|... .. .. ....|... .. .. ....|... .. .. ....|... .. .. ....
39 |... .. .. ....|... .. .. ....|... .. .. ....|... .. .. ....|... .. .. ....|... .. .. ....|... .. .. ....|... .. .. ....|... .. .. ....|... .. .. ....|... .. .. ....|... .. .. ....|... .. .. ....|... .. .. ....|... .. .. ....|... .. .. ....
3A |... .. .. ....|... .. .. ....|... .. .. ....|... .. .. ....|... .. .. ....|... .. .. ....|... .. .. ....|... .. .. ....|... .. .. ....|... .. .. ....|... .. .. ....|... .. .. ....|... .. .. ....|... .. .. ....|... .. .. ....|... .. .. ....
3B |... .. .. ....|... .. .. ....|... .. .. ....|... .. .. ....|... .. .. ....|... .. .. ....|... .. .. ....|... .. .. ....|... .. .. ....|C-3 .. .. ....|... .. .. ....|... .. .. ....|... .. .. ....|... .. .. ....|... .. .. ....|... .. .. ....
3C |... .. .. ....|... .. .. ....|... .. .. ....|... .. .. ....|... .. .. ....|... .. .. ....|... .. .. ....|... .. .. ....|... .. .. ....|C-3 .. .. ....|... .. .. ....|... .. .. ....|... .. .. ....|... .. .. ....|... .. .. ....|... .. .. ....
3D |... .. .. ....|... .. .. ....|... .. .. ....|... .. .. ....|... .. .. ....|... .. .. ....|... .. .. ....|... .. .. ....|... .. .. ....|... .. .. ....|... .. .. ....|... .. .. ....|... .. .. ....|... .. .. ....|... .. .. ....|... .. .. ....
3E |... .. .. ....|... .. .. ....|... .. .. ....|... .. .. ....|... .. .. ....|... .. .. ....|... .. .. ....|... .. .. ....|... .. .. ....|C-3 .. .. ....|... .. .. ....|... .. .. ....|... .. .. ....|... .. .. ....|... .. .. ....|... .. .. ....
3F |... .. .. ....|... .. .. ....|... .. .. ....|... .. .. ....|... .. .. ....|... .. .. ....|... .. .. ....|... .. .. ....|... .. .. ....|... .. .. ....|... .. .. ....|... .. .. ....|... .. .. ....|... .. .. ....|... .. .. ....|... .. .. ....
----- ORDER 12
00 |D-5 00 7B ....|F-4 06 .. ....|A#4 06 .. ....|F-3 .. .. ....|D-4 .. .. ....|A#1 .. .. ....|OFF .. .. ....|OFF .. .. ....|... .. .. ....|... .. .. ....|... .. .. ....|C-2 01 .. ....|... .. .. ....|... .. .. ....|... .. .. ....|... .. .. ....
01 |... .. .. ....|... .. .. ....|... .. .. ....|... .. .. ....|... .. .. ....|... .. .. ....|... .. .. ....|... .. .. ....|... .. .. ....|... .. .. ....|... .. .. ....|... .. .. ....|C-2 .. .. ....|... .. .. ....|... .. .. ....|... .. .. ....
02 |... .. .. ....|... .. .. ....|... .. .. ....|... .. .. ....|... .. .. ....|A#2 .. .. ....|... .. .. ....|... .. .. ....|... .. .. ....|... .. .. ....|... .. .. ....|C-2 00 .. ....|... .. .. ....|... .. .. ....|... .. .. ....|... .. .. ....
03 |OFF .. .. ....|... .. .. ....|... .. .. ....|... .. .. ....|... .. .. ....|... .. .. ....|... .. .. ....|... .. .. ....|... .. .. ....|... .. .. ....|... .. .. ....|... .. .. ....|C-2 .. .. ....|... .. .. ....|... .. .. ....|... .. .. ....
04 |A-5 .. .. ....|... .. .. ....|... .. .. ....|... .. .. ....|... .. .. ....|A#1 .. .. ....|... .. .. ....|... .. .. ....|... .. .. ....|... .. .. ....|... .. .. ....|... .. .. ....|C-2 .. .. ....|... .. .. ....|... .. .. ....|... .. .. ....
05 |... .. .. ....|... .. .. ....|... .. .. ....|... .. .. ....|... .. .. ....|... .. .. ....|... .. .. ....|... .. .. ....|... .. .. ....|... .. .. ....|... .. .. ....|... .. .. ....|C-2 .. .. ....|... .. .. ....|... .. .. ....|... .. .. ....
06 |... .. .. ....|... .. .. ....|... .. .. ....|... .. .. ....|... .. .. ....|A#2 .. .. ....|... .. .. ....|... .. .. ....|... .. .. ....|... .. .. ....|... .. .. ....|C-2 .. .. ....|... .. .. ....|... .. .. ....|... .. .. ....|... .. .. ....
07 |OFF .. .. ....|... .. .. ....|... .. .. ....|... .. .. ....|... .. .. ....|... .. .. ....|... .. .. ....|... .. .. ....|... .. .. ....|... .. .. ....|... .. .. ....|... .. .. ....|C-2 .. .. ....|... .. .. ....|... .. .. ....|... .. .. ....
08 |E-5 .. .. ....|G-4 .. .. ....|C-5 .. .. ....|G-3 .. .. ....|E-4 .. .. ....|C-2 .. .. ....|... .. .. ....|... .. .. ....|... .. .. ....|... .. .. ....|... .. .. ....|... .. .. ....|C-2 .. .. ....|... .. .. ....|... .. .. ....|... .. .. ....
09 |... .. .. ....|... .. .. ....|... .. .. ....|... .. .. ....|... .. .. ....|... .. .. ....|... .. .. ....|... .. .. ....|... .. .. ....|... .. .. ....|... .. .. ....|... .. .. ....|C-2 .. .. ....|... .. .. ....|... .. .. ....|... .. .. ....
0A |... .. .. ....|... .. .. ....|... .. .. ....|... .. .. ....|... .. .. ....|C-3 .. .. ....|... .. .. ....|... .. .. ....|... .. .. ....|... .. .. ....|... .. .. ....|C-2 .. .. ....|... .. .. ....|... .. .. ....|... .. .. ....|... .. .. ....
0B |OFF .. .. ....|... .. .. ....|... .. .. ....|... .. .. ....|... .. .. ....|... .. .. ....|... .. .. ....|... .. .. ....|... .. .. ....|... .. .. ....|... .. .. ....|... .. .. ....|C-2 .. .. ....|... .. .. ....|... .. .. ....|... .. .. ....
0C |A-5 .. .. ....|... .. .. ....|... .. .. ....|... .. .. ....|... .. .. ....|C-2 .. .. ....|... .. .. ....|... .. .. ....|... .. .. ....|... .. .. ....|... .. .. ....|... .. .. ....|C-2 .. .. ....|... .. .. ....|... .. .. ....|... .. .. ....
0D |... .. .. ....|... .. .. ....|... .. .. ....|... .. .. ....|... .. .. ....|... .. .. ....|... .. .. ....|... .. .. ....|... .. .. ....|... .. .. ....|... .. .. ....|... .. .. ....|C-2 .. .. ....|... .. .. ....|... .. .. ....|... .. .. ....
0E |... .. .. ....|... .. .. ....|... .. .. ....|... .. .. ....|... .. .. ....|C-3 .. .. ....|... .. .. ....|... .. .. ....|... .. .. ....|... .. .. ....|... .. .. ....|C-2 .. .. ....|... .. .. ....|... .. .. ....|... .. .. ....|... .. .. ....
0F |OFF .. .. ....|... .. .. ....|... .. .. ....|... .. .. ....|... .. .. ....|... .. .. ....|... .. .. ....|... .. .. ....|... .. .. ....|... .. .. ....|... .. .. ....|... .. .. ....|C-2 .. .. ....|... .. .. ....|... .. .. ....|... .. .. ....
10 |F-5 .. .. ....|A-4 .. .. ....|D-5 .. .. ....|A-3 .. .. ....|F-4 .. .. ....|D-2 .. .. ....|... .. .. ....|... .. .. ....|... .. .. ....|... .. .. ....|... .. .. ....|... .. .. ....|C-2 .. .. ....|... .. .. ....|... .. .. ....|... .. .. ....
11 |... .. .. ....|... .. .. ....|... .. .. ....|... .. .. ....|... .. .. ....|... .. .. ....|... .. .. ....|... .. .. ....|... .. .. ....|... .. .. ....|... .. .. ....|... .. .. ....|C-2 .. .. ....|... .. .. ....|... .. .. ....|... .. .. ....
12 |... .. .. ....|... .. .. ....|... .. .. ....|... .. .. ....|... .. .. ....|D-3 .. .. ....|... .. .. ....|... .. .. ....|... .. .. ....|... .. .. ....|... .. .. ....|C-2 00 .. ....|... .. .. ....|... .. .. ....|... .. .. ....|... .. .. ....
13 |OFF .. .. ....|... .. .. ....|... .. .. ....|... .. .. ....|... .. .. ....|... .. .. ....|... .. .. ....|... .. .. ....|... .. .. ....|... .. .. ....|... .. .. ....|... .. .. ....|C-2 .. .. ....|... .. .. ....|... .. .. ....|... .. .. ....
14 |G-5 .. .. ....|... .. .. ....|... .. .. ....|... .. .. ....|... .. .. ....|D-2 .. .. ....|... .. .. ....|... .. .. ....|... .. .. ....|... .. .. ....|... .. .. ....|... .. .. ....|C-2 .. .. ....|... .. .. ....|... .. .. ....|... .. .. ....
15 |... .. .. ....|... .. .. ....|... .. .. ....|... .. .. ....|... .. .. ....|... .. .. ....|... .. .. ....|... .. .. ....|... .. .. ....|... .. .. ....|... .. .. ....|... .. .. ....|C-2 .. .. ....|... .. .. ....|... .. .. ....|... .. .. ....
16 |A-5 .. .. ....|... .. .. ....|... .. .. ....|... .. .. ....|... .. .. ....|D-3 .. .. ....|... .. .. ....|... .. .. ....|... .. .. ....|... .. .. ....|... .. .. ....|C-2 .. .. ....|... .. .. ....|... .. .. ....|... .. .. ....|... .. .. ....
17 |... .. .. ....|... .. .. ....|... .. .. ....|... .. .. ....|... .. .. ....|... .. .. ....|... .. .. ....|... .. .. ....|... .. .. ....|... .. .. ....|... .. .. ....|... .. .. ....|C-2 .. .. ....|... .. .. ....|... .. .. ....|... .. .. ....
18 |G-5 .. .. ....|G-4 .. .. ....|B-4 .. .. ....|G-3 .. .. ....|D-4 .. .. ....|B-1 .. .. ....|... .. .. ....|... .. .. ....|... .. .. ....|... .. .. ....|... .. .. ....|... .. .. ....|C-2 .. .. ....|... .. .. ....|... .. .. ....|... .. .. ....
19 |... .. .. ....|... .. .. ....|... .. .. ....|... .. .. ....|... .. .. ....|... .. .. ....|... .. .. ....|... .. .. ....|... .. .. ....|... .. .. ....|... .. .. ....|... .. .. ....|C-2 .. .. ....|... .. .. ....|... .. .. ....|... .. .. ....
1A |... .. .. ....|... .. .. ....|... .. .. ....|... .. .. ....|... .. .. ....|B-2 .. .. ....|... .. .. ....|... .. .. ....|... .. .. ....|... .. .. ....|... .. .. ....|C-2 .. .. ....|... .. .. ....|... .. .. ....|... .. .. ....|... .. .. ....
1B |OFF .. .. ....|... .. .. ....|... .. .. ....|... .. .. ....|... .. .. ....|... .. .. ....|... .. .. ....|... .. .. ....|... .. .. ....|... .. .. ....|... .. .. ....|... .. .. ....|C-2 .. .. ....|... .. .. ....|... .. .. ....|... .. .. ....
1C |C-6 .. .. ....|... .. .. ....|... .. .. ....|... .. .. ....|... .. .. ....|B-1 .. .. ....|... .. .. ....|... .. .. ....|... .. .. ....|... .. .. ....|... .. .. ....|... .. .. ....|C-2 .. .. ....|... .. .. ....|... .. .. ....|... .. .. ....
1D |... .. .. ....|... .. .. ....|... .. .. ....|... .. .. ....|... .. .. ....|... .. .. ....|... .. .. ....|... .. .. ....|... .. .. ....|... .. .. ....|... .. .. ....|... .. .. ....|C-2 .. .. ....|... .. .. ....|... .. .. ....|... .. .. ....
1E |... .. .. ....|... .. .. ....|... .. .. ....|... .. .. ....|... .. .. ....|B-2 .. .. ....|... .. .. ....|... .. .. ....|... .. .. ....|... .. .. ....|... .. .. ....|C-2 .. .. ....|... .. .. ....|... .. .. ....|... .. .. ....|... .. .. ....
1F |OFF .. .. ....|... .. .. ....|... .. .. ....|... .. .. ....|... .. .. ....|... .. .. ....|... .. .. ....|... .. .. ....|... .. .. ....|... .. .. ....|... .. .. ....|... .. .. ....|C-2 .. .. ....|... .. .. ....|... .. .. ....|... .. .. ....
20 |D-6 .. .. ....|F-4 .. .. ....|A#4 .. .. ....|F-3 .. .. ....|D-4 .. .. ....|A#1 .. .. ....|... .. .. ....|... .. .. ....|... .. .. ....|... .. .. ....|... .. .. ....|... .. .. ....|C-2 .. .. ....|... .. .. ....|... .. .. ....|... .. .. ....
21 |... .. .. ....|... .. .. ....|... .. .. ....|... .. .. ....|... .. .. ....|... .. .. ....|... .. .. ....|... .. .. ....|... .. .. ....|... .. .. ....|... .. .. ....|... .. .. ....|C-2 .. .. ....|... .. .. ....|... .. .. ....|... .. .. ....
22 |A-5 .. .. ....|... .. .. ....|... .. .. ....|... .. .. ....|... .. .. ....|A#2 .. .. ....|... .. .. ....|... .. .. ....|... .. .. ....|... .. .. ....|... .. .. ....|C-2 00 .. ....|... .. .. ....|... .. .. ....|... .. .. ....|... .. .. ....
23 |... .. .. ....|... .. .. ....|... .. .. ....|... .. .. ....|... .. .. ....|... .. .. ....|... .. .. ....|... .. .. ....|... .. .. ....|... .. .. ....|... .. .. ....|... .. .. ....|C-2 .. .. ....|... .. .. ....|... .. .. ....|... .. .. ....
24 |E-6 .. .. ....|... .. .. ....|... .. .. ....|... .. .. ....|... .. .. ....|A#1 .. .. ....|... .. .. ....|... .. .. ....|... .. .. ....|... .. .. ....|... .. .. ....|... .. .. ....|C-2 .. .. ....|... .. .. ....|... .. .. ....|... .. .. ....
25 |... .. .. ....|... .. .. ....|... .. .. ....|... .. .. ....|... .. .. ....|... .. .. ....|... .. .. ....|... .. .. ....|... .. .. ....|... .. .. ....|... .. .. ....|... .. .. ....|C-2 .. .. ....|... .. .. ....|... .. .. ....|... .. .. ....
26 |F-6 .. .. ....|... .. .. ....|... .. .. ....|... .. .. ....|... .. .. ....|A#2 .. .. ....|... .. .. ....|... .. .. ....|... .. .. ....|... .. .. ....|... .. .. ....|C-2 .. .. ....|... .. .. ....|... .. .. ....|... .. .. ....|... .. .. ....
27 |... .. .. ....|... .. .. ....|... .. .. ....|... .. .. ....|... .. .. ....|... .. .. ....|... .. .. ....|... .. .. ....|... .. .. ....|... .. .. ....|... .. .. ....|... .. .. ....|C-2 .. .. ....|... .. .. ....|... .. .. ....|... .. .. ....
28 |E-6 .. .. ....|G-4 .. .. ....|C-5 .. .. ....|G-3 .. .. ....|E-4 .. .. ....|C-2 .. .. ....|... .. .. ....|... .. .. ....|... .. .. ....|... .. .. ....|... .. .. ....|... .. .. ....|C-2 .. .. ....|... .. .. ....|... .. .. ....|... .. .. ....
29 |... .. .. ....|... .. .. ....|... .. .. ....|... .. .. ....|... .. .. ....|... .. .. ....|... .. .. ....|... .. .. ....|... .. .. ....|... .. .. ....|... .. .. ....|... .. .. ....|C-2 .. .. ....|... .. .. ....|... .. .. ....|... .. .. ....
2A |F-6 .. .. ....|... .. .. ....|... .. .. ....|... .. .. ....|... .. .. ....|C-3 .. .. ....|... .. .. ....|... .. .. ....|... .. .. ....|... .. .. ....|... .. .. ....|C-2 .. .. ....|... .. .. ....|... .. .. ....|... .. .. ....|... .. .. ....
2B |E-6 .. .. ....|... .. .. ....|... .. .. ....|... .. .. ....|... .. .. ....|... .. .. ....|... .. .. ....|... .. .. ....|... .. .. ....|... .. .. ....|... .. .. ....|... .. .. ....|C-2 .. .. ....|... .. .. ....|... .. .. ....|... .. .. ....
2C |D-6 .. .. ....|... .. .. ....|... .. .. ....|... .. .. ....|... .. .. ....|C-2 .. .. ....|... .. .. ....|... .. .. ....|... .. .. ....|... .. .. ....|... .. .. ....|... .. .. ....|C-2 .. .. ....|... .. .. ....|... .. .. ....|... .. .. ....
2D |... .. .. ....|... .. .. ....|... .. .. ....|... .. .. ....|... .. .. ....|... .. .. ....|... .. .. ....|... .. .. ....|... .. .. ....|... .. .. ....|... .. .. ....|... .. .. ....|C-2 .. .. ....|... .. .. ....|... .. .. ....|... .. .. ....
2E |C-6 .. .. ....|... .. .. ....|... .. .. ....|... .. .. ....|... .. .. ....|C-3 .. .. ....|... .. .. ....|... .. .. ....|... .. .. ....|... .. .. ....|... .. .. ....|C-2 .. .. ....|... .. .. ....|... .. .. ....|... .. .. ....|... .. .. ....
2F |... .. .. ....|... .. .. ....|... .. .. ....|... .. .. ....|... .. .. ....|... .. .. ....|... .. .. ....|... .. .. ....|... .. .. ....|... .. .. ....|... .. .. ....|... .. .. ....|C-2 .. .. ....|... .. .. ....|... .. .. ....|... .. .. ....
30 |A-5 .. .. ....|A-4 .. .. ....|D-5 .. .. ....|A-3 .. .. ....|F-4 .. .. ....|D-2 .. .. ....|... .. .. ....|... .. .. ....|... .. .. ....|... .. .. ....|... .. .. ....|... .. .. ....|C-2 .. .. ....|... .. .. ....|... .. .. ....|... .. .. ....
31 |... .. .. ....|... .. .. ....|... .. .. ....|... .. .. ....|... .. .. ....|... .. .. ....|... .. .. ....|... .. .. ....|... .. .. ....|... .. .. ....|... .. .. ....|... .. .. ....|C-2 .. .. ....|... .. .. ....|... .. .. ....|... .. .. ....
32 |C-6 .. .. ....|... .. .. ....|... .. .. ....|... .. .. ....|... .. .. ....|D-3 .. .. ....|... .. .. ....|... .. .. ....|... .. .. ....|... .. .. ....|... .. .. ....|C-2 00 .. ....|... .. .. ....|... .. .. ....|... .. .. ....|... .. .. ....
33 |... .. .. ....|... .. .. ....|... .. .. ....|... .. .. ....|... .. .. ....|... .. .. ....|... .. .. ....|... .. .. ....|... .. .. ....|... .. .. ....|... .. .. ....|... .. .. ....|C-2 .. .. ....|... .. .. ....|... .. .. ....|... .. .. ....
34 |G-5 .. .. ....|G-4 .. .. ....|C-5 .. .. ....|G-3 .. .. ....|E-4 .. .. ....|E-2 .. .. ....|... .. .. ....|... .. .. ....|... .. .. ....|... .. .. ....|... .. .. ....|... .. .. ....|C-2 .. .. ....|... .. .. ....|... .. .. ....|... .. .. ....
35 |... .. .. ....|... .. .. ....|... .. .. ....|... .. .. ....|... .. .. ....|... .. .. ....|... .. .. ....|... .. .. ....|... .. .. ....|... .. .. ....|... .. .. ....|... .. .. ....|C-2 .. .. ....|... .. .. ....|... .. .. ....|... .. .. ....
36 |A-5 .. .. ....|... .. .. ....|... .. .. ....|... .. .. ....|... .. .. ....|E-3 .. .. ....|... .. .. ....|... .. .. ....|... .. .. ....|... .. .. ....|... .. .. ....|C-2 .. .. ....|... .. .. ....|... .. .. ....|... .. .. ....|... .. .. ....
37 |... .. .. ....|... .. .. ....|... .. .. ....|... .. .. ....|... .. .. ....|... .. .. ....|... .. .. ....|... .. .. ....|... .. .. ....|... .. .. ....|... .. .. ....|... .. .. ....|C-2 .. .. ....|... .. .. ....|... .. .. ....|... .. .. ....
38 |F-5 .. .. ....|F-4 .. .. ....|A-4 .. .. ....|F-3 .. .. ....|D-4 .. .. ....|F-2 .. .. ....|... .. .. ....|... .. .. ....|... .. .. ....|... .. .. ....|... .. .. ....|... .. .. ....|C-2 .. .. ....|... .. .. ....|... .. .. ....|... .. .. ....
39 |... .. .. ....|... .. .. ....|... .. .. ....|... .. .. ....|... .. .. ....|... .. .. ....|... .. .. ....|... .. .. ....|... .. .. ....|... .. .. ....|... .. .. ....|... .. .. ....|C-2 .. .. ....|... .. .. ....|... .. .. ....|... .. .. ....
3A |... .. .. ....|... .. .. ....|... .. .. ....|... .. .. ....|... .. .. ....|F-3 .. .. ....|... .. .. ....|... .. .. ....|... .. .. ....|... .. .. ....|... .. .. ....|C-2 .. .. ....|... .. .. ....|... .. .. ....|... .. .. ....|... .. .. ....
3B |... .. .. ....|... .. .. ....|... .. .. ....|... .. .. ....|... .. .. ....|... .. .. ....|... .. .. ....|... .. .. ....|... .. .. ....|... .. .. ....|... .. .. ....|... .. .. ....|C-2 .. .. ....|... .. .. ....|... .. .. ....|... .. .. ....
3C |... .. .. ....|E-4 .. .. ....|G-4 .. .. ....|E-3 .. .. ....|C-4 .. .. ....|C-2 .. .. ....|... .. .. ....|... .. .. ....|... .. .. ....|... .. .. ....|... .. .. ....|... .. .. ....|C-2 .. .. ....|... .. .. ....|... .. .. ....|... .. .. ....
3D |... .. .. ....|... .. .. ....|... .. .. ....|... .. .. ....|... .. .. ....|... .. .. ....|... .. .. ....|... .. .. ....|... .. .. ....|... .. .. ....|... .. .. ....|... .. .. ....|C-2 .. .. ....|... .. .. ....|... .. .. ....|... .. .. ....
3E |OFF .. .. ....|... .. .. ....|... .. .. ....|... .. .. ....|... .. .. ....|C-3 .. .. ....|... .. .. ....|... .. .. ....|... .. .. ....|... .. .. ....|... .. .. ....|C-2 .. .. ....|... .. .. ....|... .. .. ....|... .. .. ....|... .. .. ....
3F |... .. .. ....|... .. .. ....|... .. .. ....|... .. .. ....|... .. .. ....|... .. .. ....|... .. .. ....|... .. .. ....|... .. .. ....|... .. .. ....|... .. .. ....|... .. .. ....|C-2 .. .. ....|... .. .. ....|... .. .. ....|... .. .. ....
----- ORDER 13
00 |D-5 .. .. ....|F-4 .. .. ....|A#4 06 .. ....|F-3 .. .. ....|D-4 .. .. ....|A#1 .. .. ....|... .. .. ....|... .. .. ....|... .. .. ....|... .. .. ....|... .. .. ....|... .. .. ....|C-2 .. .. ....|... .. .. ....|... .. .. ....|... .. .. ....
01 |... .. .. ....|... .. .. ....|... .. .. ....|... .. .. ....|... .. .. ....|... .. .. ....|... .. .. ....|... .. .. ....|... .. .. ....|... .. .. ....|... .. .. ....|... .. .. ....|C-2 .. .. ....|... .. .. ....|... .. .. ....|... .. .. ....
02 |... .. .. ....|... .. .. ....|... .. .. ....|... .. .. ....|... .. .. ....|A#2 .. .. ....|... .. .. ....|... .. .. ....|... .. .. ....|... .. .. ....|... .. .. ....|C-2 00 .. ....|... .. .. ....|... .. .. ....|... .. .. ....|... .. .. ....
03 |OFF .. .. ....|... .. .. ....|... .. .. ....|... .. .. ....|... .. .. ....|... .. .. ....|... .. .. ....|... .. .. ....|... .. .. ....|... .. .. ....|... .. .. ....|... .. .. ....|C-2 .. .. ....|... .. .. ....|... .. .. ....|... .. .. ....
04 |A-5 .. .. ....|... .. .. ....|... .. .. ....|... .. .. ....|... .. .. ....|A#1 .. .. ....|... .. .. ....|... .. .. ....|... .. .. ....|... .. .. ....|... .. .. ....|... .. .. ....|C-2 .. .. ....|... .. .. ....|... .. .. ....|... .. .. ....
05 |... .. .. ....|... .. .. ....|... .. .. ....|... .. .. ....|... .. .. ....|... .. .. ....|... .. .. ....|... .. .. ....|... .. .. ....|... .. .. ....|... .. .. ....|... .. .. ....|C-2 .. .. ....|... .. .. ....|... .. .. ....|... .. .. ....
06 |... .. .. ....|... .. .. ....|... .. .. ....|... .. .. ....|... .. .. ....|A#2 .. .. ....|... .. .. ....|... .. .. ....|... .. .. ....|... .. .. ....|... .. .. ....|C-2 .. .. ....|... .. .. ....|... .. .. ....|... .. .. ....|... .. .. ....
07 |OFF .. .. ....|... .. .. ....|... .. .. ....|... .. .. ....|... .. .. ....|... .. .. ....|... .. .. ....|... .. .. ....|... .. .. ....|... .. .. ....|... .. .. ....|... .. .. ....|C-2 .. .. ....|... .. .. ....|... .. .. ....|... .. .. ....
08 |E-5 .. .. ....|G-4 .. .. ....|C-5 .. .. ....|G-3 .. .. ....|E-4 .. .. ....|C-2 .. .. ....|... .. .. ....|... .. .. ....|... .. .. ....|... .. .. ....|... .. .. ....|... .. .. ....|C-2 .. .. ....|... .. .. ....|... .. .. ....|... .. .. ....
09 |... .. .. ....|... .. .. ....|... .. .. ....|... .. .. ....|... .. .. ....|... .. .. ....|... .. .. ....|... .. .. ....|... .. .. ....|... .. .. ....|... .. .. ....|... .. .. ....|C-2 .. .. ....|... .. .. ....|... .. .. ....|... .. .. ....
0A |... .. .. ....|... .. .. ....|... .. .. ....|... .. .. ....|... .. .. ....|C-3 .. .. ....|... .. .. ....|... .. .. ....|... .. .. ....|... .. .. ....|... .. .. ....|C-2 .. .. ....|... .. .. ....|... .. .. ....|... .. .. ....|... .. .. ....
0B |OFF .. .. ....|... .. .. ....|... .. .. ....|... .. .. ....|... .. .. ....|... .. .. ....|... .. .. ....|... .. .. ....|... .. .. ....|... .. .. ....|... .. .. ....|... .. .. ....|C-2 .. .. ....|... .. .. ....|... .. .. ....|... .. .. ....
0C |A-5 .. .. ....|... .. .. ....|... .. .. ....|... .. .. ....|... .. .. ....|C-2 .. .. ....|... .. .. ....|... .. .. ....|... .. .. ....|... .. .. ....|... .. .. ....|... .. .. ....|C-2 .. .. ....|... .. .. ....|... .. .. ....|... .. .. ....
0D |... .. .. ....|... .. .. ....|... .. .. ....|... .. .. ....|... .. .. ....|... .. .. ....|... .. .. ....|... .. .. ....|... .. .. ....|... .. .. ....|... .. .. ....|... .. .. ....|C-2 .. .. ....|... .. .. ....|... .. .. ....|... .. .. ....
0E |... .. .. ....|... .. .. ....|... .. .. ....|... .. .. ....|... .. .. ....|C-3 .. .. ....|... .. .. ....|... .. .. ....|... .. .. ....|... .. .. ....|... .. .. ....|C-2 .. .. ....|... .. .. ....|... .. .. ....|... .. .. ....|... .. .. ....
0F |OFF .. .. ....|... .. .. ....|... .. .. ....|... .. .. ....|... .. .. ....|... .. .. ....|... .. .. ....|... .. .. ....|... .. .. ....|... .. .. ....|... .. .. ....|... .. .. ....|C-2 .. .. ....|... .. .. ....|... .. .. ....|... .. .. ....
10 |F-5 .. .. ....|A-4 .. .. ....|D-5 .. .. ....|A-3 .. .. ....|F-4 .. .. ....|D-2 .. .. ....|... .. .. ....|... .. .. ....|... .. .. ....|... .. .. ....|... .. .. ....|... .. .. ....|C-2 .. .. ....|... .. .. ....|... .. .. ....|... .. .. ....
11 |... .. .. ....|... .. .. ....|... .. .. ....|... .. .. ....|... .. .. ....|... .. .. ....|... .. .. ....|... .. .. ....|... .. .. ....|... .. .. ....|... .. .. ....|... .. .. ....|C-2 .. .. ....|... .. .. ....|... .. .. ....|... .. .. ....
12 |... .. .. ....|... .. .. ....|... .. .. ....|... .. .. ....|... .. .. ....|D-3 .. .. ....|... .. .. ....|... .. .. ....|... .. .. ....|... .. .. ....|... .. .. ....|C-2 00 .. ....|... .. .. ....|... .. .. ....|... .. .. ....|... .. .. ....
13 |OFF .. .. ....|... .. .. ....|... .. .. ....|... .. .. ....|... .. .. ....|... .. .. ....|... .. .. ....|... .. .. ....|... .. .. ....|... .. .. ....|... .. .. ....|... .. .. ....|C-2 .. .. ....|... .. .. ....|... .. .. ....|... .. .. ....
14 |G-5 .. .. ....|... .. .. ....|... .. .. ....|... .. .. ....|... .. .. ....|D-2 .. .. ....|... .. .. ....|... .. .. ....|... .. .. ....|... .. .. ....|... .. .. ....|... .. .. ....|C-2 .. .. ....|... .. .. ....|... .. .. ....|... .. .. ....
15 |... .. .. ....|... .. .. ....|... .. .. ....|... .. .. ....|... .. .. ....|... .. .. ....|... .. .. ....|... .. .. ....|... .. .. ....|... .. .. ....|... .. .. ....|... .. .. ....|C-2 .. .. ....|... .. .. ....|... .. .. ....|... .. .. ....
16 |A-5 .. .. ....|... .. .. ....|... .. .. ....|... .. .. ....|... .. .. ....|D-3 .. .. ....|... .. .. ....|... .. .. ....|... .. .. ....|... .. .. ....|... .. .. ....|C-2 .. .. ....|... .. .. ....|... .. .. ....|... .. .. ....|... .. .. ....
17 |... .. .. ....|... .. .. ....|... .. .. ....|... .. .. ....|... .. .. ....|... .. .. ....|... .. .. ....|... .. .. ....|... .. .. ....|... .. .. ....|... .. .. ....|... .. .. ....|C-2 .. .. ....|... .. .. ....|... .. .. ....|... .. .. ....
18 |G-5 .. .. ....|G-4 .. .. ....|B-4 .. .. ....|G-3 .. .. ....|D-4 .. .. ....|B-1 .. .. ....|... .. .. ....|... .. .. ....|... .. .. ....|... .. .. ....|... .. .. ....|... .. .. ....|C-2 .. .. ....|... .. .. ....|... .. .. ....|... .. .. ....
19 |... .. .. ....|... .. .. ....|... .. .. ....|... .. .. ....|... .. .. ....|... .. .. ....|... .. .. ....|... .. .. ....|... .. .. ....|... .. .. ....|... .. .. ....|... .. .. ....|C-2 .. .. ....|... .. .. ....|... .. .. ....|... .. .. ....
1A |... .. .. ....|... .. .. ....|... .. .. ....|... .. .. ....|... .. .. ....|B-2 .. .. ....|... .. .. ....|... .. .. ....|... .. .. ....|... .. .. ....|... .. .. ....|C-2 .. .. ....|... .. .. ....|... .. .. ....|... .. .. ....|... .. .. ....
1B |OFF .. .. ....|... .. .. ....|... .. .. ....|... .. .. ....|... .. .. ....|... .. .. ....|... .. .. ....|... .. .. ....|... .. .. ....|... .. .. ....|... .. .. ....|... .. .. ....|C-2 .. .. ....|... .. .. ....|... .. .. ....|... .. .. ....
1C |C-6 .. .. ....|... .. .. ....|... .. .. ....|... .. .. ....|... .. .. ....|B-1 .. .. ....|... .. .. ....|... .. .. ....|... .. .. ....|... .. .. ....|... .. .. ....|... .. .. ....|C-2 .. .. ....|... .. .. ....|... .. .. ....|... .. .. ....
1D |... .. .. ....|... .. .. ....|... .. .. ....|... .. .. ....|... .. .. ....|... .. .. ....|... .. .. ....|... .. .. ....|... .. .. ....|... .. .. ....|... .. .. ....|... .. .. ....|C-2 .. .. ....|... .. .. ....|... .. .. ....|... .. .. ....
1E |... .. .. ....|... .. .. ....|... .. .. ....|... .. .. ....|... .. .. ....|B-2 .. .. ....|... .. .. ....|... .. .. ....|... .. .. ....|... .. .. ....|... .. .. ....|C-2 .. .. ....|... .. .. ....|... .. .. ....|... .. .. ....|... .. .. ....
1F |OFF .. .. ....|... .. .. ....|... .. .. ....|... .. .. ....|... .. .. ....|... .. .. ....|... .. .. ....|... .. .. ....|... .. .. ....|... .. .. ....|... .. .. ....|... .. .. ....|C-2 .. .. ....|... .. .. ....|... .. .. ....|... .. .. ....
20 |D-6 .. .. ....|F-4 .. .. ....|A#4 .. .. ....|F-3 .. .. ....|D-4 .. .. ....|A#1 .. .. ....|... .. .. ....|... .. .. ....|... .. .. ....|... .. .. ....|... .. .. ....|... .. .. ....|C-2 .. .. ....|... .. .. ....|... .. .. ....|... .. .. ....
21 |... .. .. ....|... .. .. ....|... .. .. ....|... .. .. ....|... .. .. ....|... .. .. ....|... .. .. ....|... .. .. ....|... .. .. ....|... .. .. ....|... .. .. ....|... .. .. ....|C-2 .. .. ....|... .. .. ....|... .. .. ....|... .. .. ....
22 |A-5 .. .. ....|... .. .. ....|... .. .. ....|... .. .. ....|... .. .. ....|A#2 .. .. ....|... .. .. ....|... .. .. ....|... .. .. ....|... .. .. ....|... .. .. ....|C-2 00 .. ....|... .. .. ....|... .. .. ....|... .. .. ....|... .. .. ....
23 |... .. .. ....|... .. .. ....|... .. .. ....|... .. .. ....|... .. .. ....|... .. .. ....|... .. .. ....|... .. .. ....|... .. .. ....|... .. .. ....|... .. .. ....|... .. .. ....|C-2 .. .. ....|... .. .. ....|... .. .. ....|... .. .. ....
24 |E-6 .. .. ....|... .. .. ....|... .. .. ....|... .. .. ....|... .. .. ....|A#1 .. .. ....|... .. .. ....|... .. .. ....|... .. .. ....|... .. .. ....|... .. .. ....|... .. .. ....|C-2 .. .. ....|... .. .. ....|... .. .. ....|... .. .. ....
25 |... .. .. ....|... .. .. ....|... .. .. ....|... .. .. ....|... .. .. ....|... .. .. ....|... .. .. ....|... .. .. ....|... .. .. ....|... .. .. ....|... .. .. ....|... .. .. ....|C-2 .. .. ....|... .. .. ....|... .. .. ....|... .. .. ....
26 |F-6 .. .. ....|... .. .. ....|... .. .. ....|... .. .. ....|... .. .. ....|A#2 .. .. ....|... .. .. ....|... .. .. ....|... .. .. ....|... .. .. ....|... .. .. ....|C-2 .. .. ....|... .. .. ....|... .. .. ....|... .. .. ....|... .. .. ....
27 |... .. .. ....|... .. .. ....|... .. .. ....|... .. .. ....|... .. .. ....|... .. .. ....|... .. .. ....|... .. .. ....|... .. .. ....|... .. .. ....|... .. .. ....|... .. .. ....|C-2 .. .. ....|... .. .. ....|... .. .. ....|... .. .. ....
28 |E-6 .. .. ....|G-4 .. .. ....|C-5 .. .. ....|G-3 .. .. ....|E-4 .. .. ....|C-2 .. .. ....|... .. .. ....|... .. .. ....|... .. .. ....|... .. .. ....|... .. .. ....|... .. .. ....|C-2 .. .. ....|... .. .. ....|... .. .. ....|... .. .. ....
29 |... .. .. ....|... .. .. ....|... .. .. ....|... .. .. ....|... .. .. ....|... .. .. ....|... .. .. ....|... .. .. ....|... .. .. ....|... .. .. ....|... .. .. ....|... .. .. ....|C-2 .. .. ....|... .. .. ....|... .. .. ....|... .. .. ....
2A |F-6 .. .. ....|... .. .. ....|... .. .. ....|... .. .. ....|... .. .. ....|C-3 .. .. ....|... .. .. ....|... .. .. ....|... .. .. ....|... .. .. ....|... .. .. ....|C-2 .. .. ....|... .. .. ....|... .. .. ....|... .. .. ....|... .. .. ....
2B |E-6 .. .. ....|... .. .. ....|... .. .. ....|... .. .. ....|... .. .. ....|... .. .. ....|... .. .. ....|... .. .. ....|... .. .. ....|... .. .. ....|... .. .. ....|... .. .. ....|C-2 .. .. ....|... .. .. ....|... .. .. ....|... .. .. ....
2C |D-6 .. .. ....|... .. .. ....|... .. .. ....|... .. .. ....|... .. .. ....|C-2 .. .. ....|... .. .. ....|... .. .. ....|... .. .. ....|... .. .. ....|... .. .. ....|... .. .. ....|C-2 .. .. ....|... .. .. ....|... .. .. ....|... .. .. ....
2D |... .. .. ....|... .. .. ....|... .. .. ....|... .. .. ....|... .. .. ....|... .. .. ....|... .. .. ....|... .. .. ....|... .. .. ....|... .. .. ....|... .. .. ....|... .. .. ....|C-2 .. .. ....|... .. .. ....|... .. .. ....|... .. .. ....
2E |C-6 .. .. ....|... .. .. ....|... .. .. ....|... .. .. ....|... .. .. ....|C-3 .. .. ....|... .. .. ....|... .. .. ....|... .. .. ....|... .. .. ....|... .. .. ....|C-2 .. .. ....|... .. .. ....|... .. .. ....|... .. .. ....|... .. .. ....
2F |... .. .. ....|... .. .. ....|... .. .. ....|... .. .. ....|... .. .. ....|... .. .. ....|... .. .. ....|... .. .. ....|... .. .. ....|... .. .. ....|... .. .. ....|... .. .. ....|C-2 .. .. ....|... .. .. ....|... .. .. ....|... .. .. ....
30 |D-6 .. .. ....|A-4 .. .. ....|D-5 .. .. ....|A-3 .. .. ....|F-4 .. .. ....|D-2 .. .. ....|... .. .. ....|... .. .. ....|... .. .. ....|... .. .. ....|... .. .. ....|... .. .. ....|C-2 .. .. ....|... .. .. ....|... .. .. ....|... .. .. ....
31 |... .. .. ....|... .. .. ....|... .. .. ....|... .. .. ....|... .. .. ....|... .. .. ....|... .. .. ....|... .. .. ....|... .. .. ....|... .. .. ....|... .. .. ....|... .. .. ....|C-2 .. .. ....|... .. .. ....|... .. .. ....|... .. .. ....
32 |... .. .. ....|... .. .. ....|... .. .. ....|... .. .. ....|... .. .. ....|D-3 .. .. ....|... .. .. ....|... .. .. ....|... .. .. ....|... .. .. ....|... .. .. ....|C-2 00 .. ....|... .. .. ....|... .. .. ....|... .. .. ....|... .. .. ....
33 |... .. .. ....|... .. .. ....|... .. .. ....|... .. .. ....|... .. .. ....|... .. .. ....|... .. .. ....|... .. .. ....|... .. .. ....|... .. .. ....|... .. .. ....|... .. .. ....|C-2 .. .. ....|... .. .. ....|... .. .. ....|... .. .. ....
34 |... .. .. ....|C-5 .. .. ....|E-5 .. .. ....|C-4 .. .. ....|G-4 .. .. ....|E-2 .. .. ....|... .. .. ....|... .. .. ....|... .. .. ....|... .. .. ....|... .. .. ....|... .. .. ....|C-2 .. .. ....|... .. .. ....|... .. .. ....|... .. .. ....
35 |... .. .. ....|... .. .. ....|... .. .. ....|... .. .. ....|... .. .. ....|... .. .. ....|... .. .. ....|... .. .. ....|... .. .. ....|... .. .. ....|... .. .. ....|... .. .. ....|C-2 .. .. ....|... .. .. ....|... .. .. ....|... .. .. ....
36 |... .. .. ....|... .. .. ....|... .. .. ....|... .. .. ....|... .. .. ....|E-3 .. .. ....|... .. .. ....|... .. .. ....|... .. .. ....|... .. .. ....|... .. .. ....|C-3 .. .. ....|... .. .. ....|... .. .. ....|... .. .. ....|... .. .. ....
37 |... .. .. ....|... .. .. ....|... .. .. ....|... .. .. ....|... .. .. ....|... .. .. ....|... .. .. ....|... .. .. ....|... .. .. ....|... .. .. ....|... .. .. ....|... .. .. ....|C-2 .. .. ....|... .. .. ....|... .. .. ....|... .. .. ....
38 |... .. .. ....|A-4 .. .. ....|D-5 .. .. ....|A-3 .. .. ....|F-4 .. .. ....|F-2 .. .. ....|... .. .. ....|... .. .. ....|... .. .. ....|C-3 .. .. ....|... .. .. ....|C-3 01 .. ....|... .. .. ....|... .. .. ....|... .. .. ....|... .. .. ....
39 |... .. .. ....|... .. .. ....|... .. .. ....|... .. .. ....|... .. .. ....|... .. .. ....|... .. .. ....|... .. .. ....|... .. .. ....|... .. .. ....|... .. .. ....|... .. .. ....|C-2 .. .. ....|... .. .. ....|... .. .. ....|... .. .. ....
3A |... .. .. ....|... .. .. ....|... .. .. ....|... .. .. ....|... .. .. ....|F-3 .. .. ....|... .. .. ....|... .. .. ....|... .. .. ....|... .. .. ....|... .. .. ....|... .. .. ....|C-3 .. .. ....|... .. .. ....|... .. .. ....|... .. .. ....
3B |... .. .. ....|... .. .. ....|... .. .. ....|... .. .. ....|... .. .. ....|... .. .. ....|... .. .. ....|... .. .. ....|... .. .. ....|C-3 .. .. ....|... .. .. ....|... .. .. ....|C-2 .. .. ....|... .. .. ....|... .. .. ....|... .. .. ....
3C |... .. .. ....|G-4 .. .. ....|C-5 .. .. ....|G-3 .. .. ....|E-4 .. .. ....|G-2 .. .. ....|... .. .. ....|... .. .. ....|... .. .. ....|C-3 .. .. ....|... .. .. ....|C-3 01 .. ....|... .. .. ....|... .. .. ....|... .. .. ....|... .. .. ....
3D |... .. .. ....|... .. .. ....|... .. .. ....|... .. .. ....|... .. .. ....|... .. .. ....|... .. .. ....|... .. .. ....|... .. .. ....|... .. .. ....|... .. .. ....|... .. .. ....|C-2 .. .. ....|... .. .. ....|... .. .. ....|... .. .. ....
3E |OFF .. .. ....|... .. .. ....|... .. .. ....|... .. .. ....|... .. .. ....|G-3 .. .. ....|... .. .. ....|... .. .. ....|... .. .. ....|C-3 .. .. ....|... .. .. ....|... .. .. ....|C-3 .. .. ....|... .. .. ....|... .. .. ....|... .. .. ....
3F |... .. .. ....|... .. .. ....|... .. .. ....|... .. .. ....|... .. .. ....|... .. .. ....|... .. .. ....|... .. .. ....|... .. .. ....|... .. .. ....|... .. .. ....|... .. .. ....|C-2 .. .. ....|... .. .. ....|... .. .. ....|... .. .. ....
----- ORDER 14
00 |D-5 00 7B ....|F-4 06 .. ....|A#4 06 .. ....|F-3 .. .. ....|D-4 .. .. ....|A#1 .. .. ....|D-5 03 .. ....|A#4 03 .. ....|... .. .. ....|... .. .. ....|... .. .. ....|C-2 01 .. ....|... .. .. ....|... .. .. ....|... .. .. ....|... .. .. ....
01 |... .. .. ....|... .. .. ....|... .. .. ....|... .. .. ....|... .. .. ....|... .. .. ....|... .. .. ....|... .. .. ....|... .. .. ....|... .. .. ....|... .. .. ....|... .. .. ....|C-2 .. .. ....|... .. .. ....|... .. .. ....|... .. .. ....
02 |... .. .. ....|... .. .. ....|... .. .. ....|... .. .. ....|... .. .. ....|A#2 .. .. ....|OFF .. .. ....|OFF .. .. ....|... .. .. ....|... .. .. ....|... .. .. ....|C-2 00 .. ....|... .. .. ....|... .. .. ....|... .. .. ....|... .. .. ....
03 |OFF .. .. ....|... .. .. ....|... .. .. ....|... .. .. ....|... .. .. ....|... .. .. ....|... .. .. ....|... .. .. ....|... .. .. ....|... .. .. ....|... .. .. ....|... .. .. ....|C-2 .. .. ....|... .. .. ....|... .. .. ....|... .. .. ....
04 |A-5 .. .. ....|... .. .. ....|... .. .. ....|... .. .. ....|... .. .. ....|A#1 .. .. ....|A-5 .. .. ....|F-5 .. .. ....|... .. .. ....|... .. .. ....|C-2 .. .. ....|... .. .. ....|C-2 .. .. ....|... .. .. ....|... .. .. ....|... .. .. ....
05 |... .. .. ....|... .. .. ....|... .. .. ....|... .. .. ....|... .. .. ....|... .. .. ....|... .. .. ....|... .. .. ....|... .. .. ....|... .. .. ....|... .. .. ....|... .. .. ....|C-2 .. .. ....|... .. .. ....|... .. .. ....|... .. .. ....
06 |... .. .. ....|... .. .. ....|... .. .. ....|... .. .. ....|... .. .. ....|A#2 .. .. ....|OFF .. .. ....|OFF .. .. ....|... .. .. ....|... .. .. ....|... .. .. ....|C-2 .. .. ....|... .. .. ....|... .. .. ....|... .. .. ....|... .. .. ....
07 |OFF .. .. ....|... .. .. ....|... .. .. ....|... .. .. ....|... .. .. ....|... .. .. ....|... .. .. ....|... .. .. ....|... .. .. ....|... .. .. ....|... .. .. ....|... .. .. ....|C-2 .. .. ....|... .. .. ....|... .. .. ....|... .. .. ....
08 |E-5 .. .. ....|G-4 .. .. ....|C-5 .. .. ....|G-3 .. .. ....|E-4 .. .. ....|C-2 .. .. ....|E-5 .. .. ....|C-5 .. .. ....|... .. .. ....|C-2 .. .. ....|... .. .. ....|... .. .. ....|C-2 .. .. ....|... .. .. ....|... .. .. ....|... .. .. ....
09 |... .. .. ....|... .. .. ....|... .. .. ....|... .. .. ....|... .. .. ....|... .. .. ....|... .. .. ....|... .. .. ....|... .. .. ....|... .. .. ....|... .. .. ....|... .. .. ....|C-2 .. .. ....|... .. .. ....|... .. .. ....|... .. .. ....
0A |... .. .. ....|... .. .. ....|... .. .. ....|... .. .. ....|... .. .. ....|C-3 .. .. ....|OFF .. .. ....|OFF .. .. ....|... .. .. ....|... .. .. ....|... .. .. ....|C-2 .. .. ....|... .. .. ....|... .. .. ....|... .. .. ....|... .. .. ....
0B |OFF .. .. ....|... .. .. ....|... .. .. ....|... .. .. ....|... .. .. ....|... .. .. ....|... .. .. ....|... .. .. ....|... .. .. ....|... .. .. ....|... .. .. ....|... .. .. ....|C-2 .. .. ....|... .. .. ....|... .. .. ....|... .. .. ....
0C |A-5 .. .. ....|... .. .. ....|... .. .. ....|... .. .. ....|... .. .. ....|C-2 .. .. ....|A-5 .. .. ....|F-5 .. .. ....|... .. .. ....|... .. .. ....|C-2 .. .. ....|... .. .. ....|C-2 .. .. ....|... .. .. ....|... .. .. ....|... .. .. ....
0D |... .. .. ....|... .. .. ....|... .. .. ....|... .. .. ....|... .. .. ....|... .. .. ....|... .. .. ....|... .. .. ....|... .. .. ....|... .. .. ....|... .. .. ....|... .. .. ....|C-2 .. .. ....|... .. .. ....|... .. .. ....|... .. .. ....
0E |... .. .. ....|... .. .. ....|... .. .. ....|... .. .. ....|... .. .. ....|C-3 .. .. ....|OFF .. .. ....|OFF .. .. ....|... .. .. ....|... .. .. ....|... .. .. ....|C-2 .. .. ....|... .. .. ....|... .. .. ....|... .. .. ....|... .. .. ....
0F |OFF .. .. ....|... .. .. ....|... .. .. ....|... .. .. ....|... .. .. ....|... .. .. ....|... .. .. ....|... .. .. ....|... .. .. ....|... .. .. ....|... .. .. ....|... .. .. ....|C-2 .. .. ....|... .. .. ....|... .. .. ....|... .. .. ....
10 |F-5 .. .. ....|A-4 .. .. ....|D-5 .. .. ....|A-3 .. .. ....|F-4 .. .. ....|D-2 .. .. ....|F-5 .. .. ....|D-5 .. .. ....|... .. .. ....|C-2 .. .. ....|... .. .. ....|... .. .. ....|C-2 .. .. ....|... .. .. ....|... .. .. ....|... .. .. ....
11 |... .. .. ....|... .. .. ....|... .. .. ....|... .. .. ....|... .. .. ....|... .. .. ....|... .. .. ....|... .. .. ....|... .. .. ....|... .. .. ....|... .. .. ....|... .. .. ....|C-2 .. .. ....|... .. .. ....|... .. .. ....|... .. .. ....
12 |... .. .. ....|... .. .. ....|... .. .. ....|... .. .. ....|... .. .. ....|D-3 .. .. ....|OFF .. .. ....|OFF .. .. ....|... .. .. ....|... .. .. ....|... .. .. ....|C-2 00 .. ....|... .. .. ....|... .. .. ....|... .. .. ....|... .. .. ....
13 |OFF .. .. ....|... .. .. ....|... .. .. ....|... .. .. ....|... .. .. ....|... .. .. ....|... .. .. ....|... .. .. ....|... .. .. ....|... .. .. ....|... .. .. ....|... .. .. ....|C-2 .. .. ....|... .. .. ....|... .. .. ....|... .. .. ....
14 |G-5 .. .. ....|... .. .. ....|... .. .. ....|... .. .. ....|... .. .. ....|D-2 .. .. ....|G-5 .. .. ....|E-5 .. .. ....|... .. .. ....|... .. .. ....|C-2 .. .. ....|... .. .. ....|C-2 .. .. ....|... .. .. ....|... .. .. ....|... .. .. ....
15 |... .. .. ....|... .. .. ....|... .. .. ....|... .. .. ....|... .. .. ....|... .. .. ....|... .. .. ....|... .. .. ....|... .. .. ....|... .. .. ....|... .. .. ....|... .. .. ....|C-2 .. .. ....|... .. .. ....|... .. .. ....|... .. .. ....
16 |A-5 .. .. ....|... .. .. ....|... .. .. ....|... .. .. ....|... .. .. ....|D-3 .. .. ....|A-5 .. .. ....|F-5 .. .. ....|... .. .. ....|... .. .. ....|... .. .. ....|C-2 .. .. ....|... .. .. ....|... .. .. ....|... .. .. ....|... .. .. ....
17 |... .. .. ....|... .. .. ....|... .. .. ....|... .. .. ....|... .. .. ....|... .. .. ....|... .. .. ....|... .. .. ....|... .. .. ....|... .. .. ....|... .. .. ....|... .. .. ....|C-2 .. .. ....|... .. .. ....|... .. .. ....|... .. .. ....
18 |G-5 .. .. ....|G-4 .. .. ....|B-4 .. .. ....|G-3 .. .. ....|D-4 .. .. ....|B-1 .. .. ....|G-5 .. .. ....|E-5 .. .. ....|... .. .. ....|C-2 .. .. ....|... .. .. ....|... .. .. ....|C-2 .. .. ....|... .. .. ....|... .. .. ....|... .. .. ....
19 |... .. .. ....|... .. .. ....|... .. .. ....|... .. .. ....|... .. .. ....|... .. .. ....|... .. .. ....|... .. .. ....|... .. .. ....|... .. .. ....|... .. .. ....|... .. .. ....|C-2 .. .. ....|... .. .. ....|... .. .. ....|... .. .. ....
1A |... .. .. ....|... .. .. ....|... .. .. ....|... .. .. ....|... .. .. ....|B-2 .. .. ....|OFF .. .. ....|OFF .. .. ....|... .. .. ....|... .. .. ....|... .. .. ....|C-2 .. .. ....|... .. .. ....|... .. .. ....|... .. .. ....|... .. .. ....
1B |OFF .. .. ....|... .. .. ....|... .. .. ....|... .. .. ....|... .. .. ....|... .. .. ....|... .. .. ....|... .. .. ....|... .. .. ....|... .. .. ....|... .. .. ....|... .. .. ....|C-2 .. .. ....|... .. .. ....|... .. .. ....|... .. .. ....
1C |C-6 .. .. ....|... .. .. ....|... .. .. ....|... .. .. ....|... .. .. ....|B-1 .. .. ....|C-6 .. .. ....|G-5 .. .. ....|... .. .. ....|... .. .. ....|C-2 .. .. ....|... .. .. ....|C-2 .. .. ....|... .. .. ....|... .. .. ....|... .. .. ....
1D |... .. .. ....|... .. .. ....|... .. .. ....|... .. .. ....|... .. .. ....|... .. .. ....|... .. .. ....|... .. .. ....|... .. .. ....|... .. .. ....|... .. .. ....|... .. .. ....|C-2 .. .. ....|... .. .. ....|... .. .. ....|... .. .. ....
1E |... .. .. ....|... .. .. ....|... .. .. ....|... .. .. ....|... .. .. ....|B-2 .. .. ....|OFF .. .. ....|OFF .. .. ....|... .. .. ....|... .. .. ....|... .. .. ....|C-2 .. .. ....|... .. .. ....|... .. .. ....|... .. .. ....|... .. .. ....
1F |OFF .. .. ....|... .. .. ....|... .. .. ....|... .. .. ....|... .. .. ....|... .. .. ....|... .. .. ....|... .. .. ....|... .. .. ....|... .. .. ....|... .. .. ....|... .. .. ....|C-2 .. .. ....|... .. .. ....|... .. .. ....|... .. .. ....
20 |D-6 .. .. ....|F-4 .. .. ....|A#4 .. .. ....|F-3 .. .. ....|D-4 .. .. ....|A#1 .. .. ....|D-6 .. .. ....|A-5 .. .. ....|... .. .. ....|C-2 .. .. ....|... .. .. ....|... .. .. ....|C-2 .. .. ....|... .. .. ....|... .. .. ....|... .. .. ....
21 |... .. .. ....|... .. .. ....|... .. .. ....|... .. .. ....|... .. .. ....|... .. .. ....|... .. .. ....|... .. .. ....|... .. .. ....|... .. .. ....|... .. .. ....|... .. .. ....|C-2 .. .. ....|... .. .. ....|... .. .. ....|... .. .. ....
22 |A-5 .. .. ....|... .. .. ....|... .. .. ....|... .. .. ....|... .. .. ....|A#2 .. .. ....|A-5 .. .. ....|F-5 .. .. ....|... .. .. ....|... .. .. ....|... .. .. ....|C-2 00 .. ....|... .. .. ....|... .. .. ....|... .. .. ....|... .. .. ....
23 |... .. .. ....|... .. .. ....|... .. .. ....|... .. .. ....|... .. .. ....|... .. .. ....|... .. .. ....|... .. .. ....|... .. .. ....|... .. .. ....|... .. .. ....|... .. .. ....|C-2 .. .. ....|... .. .. ....|... .. .. ....|... .. .. ....
24 |E-6 .. .. ....|... .. .. ....|... .. .. ....|... .. .. ....|... .. .. ....|A#1 .. .. ....|E-6 .. .. ....|C-6 .. .. ....|... .. .. ....|... .. .. ....|C-2 .. .. ....|... .. .. ....|C-2 .. .. ....|... .. .. ....|... .. .. ....|... .. .. ....
25 |... .. .. ....|... .. .. ....|... .. .. ....|... .. .. ....|... .. .. ....|... .. .. ....|... .. .. ....|... .. .. ....|... .. .. ....|... .. .. ....|... .. .. ....|... .. .. ....|C-2 .. .. ....|... .. .. ....|... .. .. ....|... .. .. ....
26 |F-6 .. .. ....|... .. .. ....|... .. .. ....|... .. .. ....|... .. .. ....|A#2 .. .. ....|F-6 .. .. ....|D-6 .. .. ....|... .. .. ....|... .. .. ....|... .. .. ....|C-2 .. .. ....|... .. .. ....|... .. .. ....|... .. .. ....|... .. .. ....
27 |... .. .. ....|... .. .. ....|... .. .. ....|... .. .. ....|... .. .. ....|... .. .. ....|... .. .. ....|... .. .. ....|... .. .. ....|... .. .. ....|... .. .. ....|... .. .. ....|C-2 .. .. ....|... .. .. ....|... .. .. ....|... .. .. ....
28 |E-6 .. .. ....|G-4 .. .. ....|C-5 .. .. ....|G-3 .. .. ....|E-4 .. .. ....|C-2 .. .. ....|E-6 .. .. ....|C-6 .. .. ....|... .. .. ....|C-2 .. .. ....|... .. .. ....|... .. .. ....|C-2 .. .. ....|... .. .. ....|... .. .. ....|... .. .. ....
29 |... .. .. ....|... .. .. ....|... .. .. ....|... .. .. ....|... .. .. ....|... .. .. ....|... .. .. ....|... .. .. ....|... .. .. ....|... .. .. ....|... .. .. ....|... .. .. ....|C-2 .. .. ....|... .. .. ....|... .. .. ....|... .. .. ....
2A |F-6 .. .. ....|... .. .. ....|... .. .. ....|... .. .. ....|... .. .. ....|C-3 .. .. ....|F-6 .. .. ....|D-6 .. .. ....|... .. .. ....|... .. .. ....|... .. .. ....|C-2 .. .. ....|... .. .. ....|... .. .. ....|... .. .. ....|... .. .. ....
2B |E-6 .. .. ....|... .. .. ....|... .. .. ....|... .. .. ....|... .. .. ....|... .. .. ....|E-6 .. .. ....|C-6 .. .. ....|... .. .. ....|... .. .. ....|... .. .. ....|... .. .. ....|C-2 .. .. ....|... .. .. ....|... .. .. ....|... .. .. ....
2C |D-6 .. .. ....|... .. .. ....|... .. .. ....|... .. .. ....|... .. .. ....|C-2 .. .. ....|D-6 .. .. ....|A-5 .. .. ....|... .. .. ....|... .. .. ....|C-2 .. .. ....|... .. .. ....|C-2 .. .. ....|... .. .. ....|... .. .. ....|... .. .. ....
2D |... .. .. ....|... .. .. ....|... .. .. ....|... .. .. ....|... .. .. ....|... .. .. ....|... .. .. ....|... .. .. ....|... .. .. ....|... .. .. ....|... .. .. ....|... .. .. ....|C-2 .. .. ....|... .. .. ....|... .. .. ....|... .. .. ....
2E |C-6 .. .. ....|... .. .. ....|... .. .. ....|... .. .. ....|... .. .. ....|C-3 .. .. ....|C-6 .. .. ....|F-5 .. .. ....|... .. .. ....|... .. .. ....|... .. .. ....|C-2 .. .. ....|... .. .. ....|... .. .. ....|... .. .. ....|... .. .. ....
2F |... .. .. ....|... .. .. ....|... .. .. ....|... .. .. ....|... .. .. ....|... .. .. ....|... .. .. ....|... .. .. ....|... .. .. ....|... .. .. ....|... .. .. ....|... .. .. ....|C-2 .. .. ....|... .. .. ....|... .. .. ....|... .. .. ....
30 |A-5 .. .. ....|A-4 .. .. ....|D-5 .. .. ....|A-3 .. .. ....|F-4 .. .. ....|D-2 .. .. ....|A-5 .. .. ....|F-5 .. .. ....|... .. .. ....|C-2 .. .. ....|... .. .. ....|... .. .. ....|C-2 .. .. ....|... .. .. ....|... .. .. ....|... .. .. ....
31 |... .. .. ....|... .. .. ....|... .. .. ....|... .. .. ....|... .. .. ....|... .. .. ....|... .. .. ....|... .. .. ....|... .. .. ....|... .. .. ....|... .. .. ....|... .. .. ....|C-2 .. .. ....|... .. .. ....|... .. .. ....|... .. .. ....
32 |C-6 .. .. ....|... .. .. ....|... .. .. ....|... .. .. ....|... .. .. ....|D-3 .. .. ....|C-6 .. .. ....|A-5 .. .. ....|... .. .. ....|... .. .. ....|... .. .. ....|C-2 00 .. ....|... .. .. ....|... .. .. ....|... .. .. ....|... .. .. ....
33 |... .. .. ....|... .. .. ....|... .. .. ....|... .. .. ....|... .. .. ....|... .. .. ....|... .. .. ....|... .. .. ....|... .. .. ....|... .. .. ....|... .. .. ....|... .. .. ....|C-2 .. .. ....|... .. .. ....|... .. .. ....|... .. .. ....
34 |G-5 .. .. ....|G-4 .. .. ....|C-5 .. .. ....|G-3 .. .. ....|E-4 .. .. ....|E-2 .. .. ....|G-5 .. .. ....|E-5 .. .. ....|... .. .. ....|... .. .. ....|C-2 .. .. ....|... .. .. ....|C-2 .. .. ....|... .. .. ....|... .. .. ....|... .. .. ....
35 |... .. .. ....|... .. .. ....|... .. .. ....|... .. .. ....|... .. .. ....|... .. .. ....|... .. .. ....|... .. .. ....|... .. .. ....|... .. .. ....|... .. .. ....|... .. .. ....|C-2 .. .. ....|... .. .. ....|... .. .. ....|... .. .. ....
36 |A-5 .. .. ....|... .. .. ....|... .. .. ....|... .. .. ....|... .. .. ....|E-3 .. .. ....|A-5 .. .. ....|F-5 .. .. ....|... .. .. ....|... .. .. ....|... .. .. ....|C-2 .. .. ....|... .. .. ....|... .. .. ....|... .. .. ....|... .. .. ....
37 |... .. .. ....|... .. .. ....|... .. .. ....|... .. .. ....|... .. .. ....|... .. .. ....|... .. .. ....|... .. .. ....|... .. .. ....|... .. .. ....|... .. .. ....|... .. .. ....|C-2 .. .. ....|... .. .. ....|... .. .. ....|... .. .. ....
38 |F-5 .. .. ....|F-4 .. .. ....|A-4 .. .. ....|F-3 .. .. ....|D-4 .. .. ....|F-2 .. .. ....|F-5 .. .. ....|D-5 .. .. ....|... .. .. ....|C-2 .. .. ....|... .. .. ....|... .. .. ....|C-2 .. .. ....|... .. .. ....|... .. .. ....|... .. .. ....
39 |... .. .. ....|... .. .. ....|... .. .. ....|... .. .. ....|... .. .. ....|... .. .. ....|... .. .. ....|... .. .. ....|... .. .. ....|... .. .. ....|... .. .. ....|... .. .. ....|C-2 .. .. ....|... .. .. ....|... .. .. ....|... .. .. ....
3A |... .. .. ....|... .. .. ....|... .. .. ....|... .. .. ....|... .. .. ....|F-3 .. .. ....|... .. .. ....|... .. .. ....|... .. .. ....|... .. .. ....|... .. .. ....|C-2 .. .. ....|... .. .. ....|... .. .. ....|... .. .. ....|... .. .. ....
3B |... .. .. ....|... .. .. ....|... .. .. ....|... .. .. ....|... .. .. ....|... .. .. ....|... .. .. ....|... .. .. ....|... .. .. ....|... .. .. ....|... .. .. ....|... .. .. ....|C-2 .. .. ....|... .. .. ....|... .. .. ....|... .. .. ....
3C |... .. .. ....|E-4 .. .. ....|G-4 .. .. ....|E-3 .. .. ....|C-4 .. .. ....|C-2 .. .. ....|... .. .. ....|... .. .. ....|... .. .. ....|... .. .. ....|C-2 .. .. ....|... .. .. ....|C-2 .. .. ....|... .. .. ....|... .. .. ....|... .. .. ....
3D |... .. .. ....|... .. .. ....|... .. .. ....|... .. .. ....|... .. .. ....|... .. .. ....|... .. .. ....|... .. .. ....|... .. .. ....|... .. .. ....|... .. .. ....|... .. .. ....|C-2 .. .. ....|... .. .. ....|... .. .. ....|... .. .. ....
3E |OFF .. .. ....|... .. .. ....|... .. .. ....|... .. .. ....|... .. .. ....|C-3 .. .. ....|OFF .. .. ....|OFF .. .. ....|... .. .. ....|... .. .. ....|... .. .. ....|C-2 .. .. ....|... .. .. ....|... .. .. ....|... .. .. ....|... .. .. ....
3F |... .. .. ....|... .. .. ....|... .. .. ....|... .. .. ....|... .. .. ....|... .. .. ....|... .. .. ....|... .. .. ....|... .. .. ....|... .. .. ....|... .. .. ....|... .. .. ....|C-2 .. .. ....|... .. .. ....|... .. .. ....|... .. .. ....
----- ORDER 15
00 |D-5 .. .. ....|F-4 .. .. ....|A#4 06 .. ....|F-3 .. .. ....|D-4 .. .. ....|A#1 .. .. ....|D-5 .. .. ....|A#4 .. .. ....|... .. .. ....|C-2 .. .. ....|... .. .. ....|... .. .. ....|C-2 .. .. ....|... .. .. ....|... .. .. ....|... .. .. ....
01 |... .. .. ....|... .. .. ....|... .. .. ....|... .. .. ....|... .. .. ....|... .. .. ....|... .. .. ....|... .. .. ....|... .. .. ....|... .. .. ....|... .. .. ....|... .. .. ....|C-2 .. .. ....|... .. .. ....|... .. .. ....|... .. .. ....
02 |... .. .. ....|... .. .. ....|... .. .. ....|... .. .. ....|... .. .. ....|A#2 .. .. ....|OFF .. .. ....|OFF .. .. ....|... .. .. ....|... .. .. ....|... .. .. ....|C-2 00 .. ....|... .. .. ....|... .. .. ....|... .. .. ....|... .. .. ....
03 |OFF .. .. ....|... .. .. ....|... .. .. ....|... .. .. ....|... .. .. ....|... .. .. ....|... .. .. ....|... .. .. ....|... .. .. ....|... .. .. ....|... .. .. ....|... .. .. ....|C-2 .. .. ....|... .. .. ....|... .. .. ....|... .. .. ....
04 |A-5 .. .. ....|... .. .. ....|... .. .. ....|... .. .. ....|... .. .. ....|A#1 .. .. ....|A-5 .. .. ....|F-5 .. .. ....|... .. .. ....|... .. .. ....|C-2 .. .. ....|... .. .. ....|C-2 .. .. ....|... .. .. ....|... .. .. ....|... .. .. ....
05 |... .. .. ....|... .. .. ....|... .. .. ....|... .. .. ....|... .. .. ....|... .. .. ....|... .. .. ....|... .. .. ....|... .. .. ....|... .. .. ....|... .. .. ....|... .. .. ....|C-2 .. .. ....|... .. .. ....|... .. .. ....|... .. .. ....
06 |... .. .. ....|... .. .. ....|... .. .. ....|... .. .. ....|... .. .. ....|A#2 .. .. ....|OFF .. .. ....|OFF .. .. ....|... .. .. ....|... .. .. ....|... .. .. ....|C-2 .. .. ....|... .. .. ....|... .. .. ....|... .. .. ....|... .. .. ....
07 |OFF .. .. ....|... .. .. ....|... .. .. ....|... .. .. ....|... .. .. ....|... .. .. ....|... .. .. ....|... .. .. ....|... .. .. ....|... .. .. ....|... .. .. ....|... .. .. ....|C-2 .. .. ....|... .. .. ....|... .. .. ....|... .. .. ....
08 |E-5 .. .. ....|G-4 .. .. ....|C-5 .. .. ....|G-3 .. .. ....|E-4 .. .. ....|C-2 .. .. ....|E-5 .. .. ....|C-5 .. .. ....|... .. .. ....|C-2 .. .. ....|... .. .. ....|... .. .. ....|C-2 .. .. ....|... .. .. ....|... .. .. ....|... .. .. ....
09 |... .. .. ....|... .. .. ....|... .. .. ....|... .. .. ....|... .. .. ....|... .. .. ....|... .. .. ....|... .. .. ....|... .. .. ....|... .. .. ....|... .. .. ....|... .. .. ....|C-2 .. .. ....|... .. .. ....|... .. .. ....|... .. .. ....
0A |... .. .. ....|... .. .. ....|... .. .. ....|... .. .. ....|... .. .. ....|C-3 .. .. ....|OFF .. .. ....|OFF .. .. ....|... .. .. ....|... .. .. ....|... .. .. ....|C-2 .. .. ....|... .. .. ....|... .. .. ....|... .. .. ....|... .. .. ....
0B |OFF .. .. ....|... .. .. ....|... .. .. ....|... .. .. ....|... .. .. ....|... .. .. ....|... .. .. ....|... .. .. ....|... .. .. ....|... .. .. ....|... .. .. ....|... .. .. ....|C-2 .. .. ....|... .. .. ....|... .. .. ....|... .. .. ....
0C |A-5 .. .. ....|... .. .. ....|... .. .. ....|... .. .. ....|... .. .. ....|C-2 .. .. ....|A-5 .. .. ....|F-5 .. .. ....|... .. .. ....|... .. .. ....|C-2 .. .. ....|... .. .. ....|C-2 .. .. ....|... .. .. ....|... .. .. ....|... .. .. ....
0D |... .. .. ....|... .. .. ....|... .. .. ....|... .. .. ....|... .. .. ....|... .. .. ....|... .. .. ....|... .. .. ....|... .. .. ....|... .. .. ....|... .. .. ....|... .. .. ....|C-2 .. .. ....|... .. .. ....|... .. .. ....|... .. .. ....
0E |... .. .. ....|... .. .. ....|... .. .. ....|... .. .. ....|... .. .. ....|C-3 .. .. ....|OFF .. .. ....|OFF .. .. ....|... .. .. ....|... .. .. ....|... .. .. ....|C-2 .. .. ....|... .. .. ....|... .. .. ....|... .. .. ....|... .. .. ....
0F |OFF .. .. ....|... .. .. ....|... .. .. ....|... .. .. ....|... .. .. ....|... .. .. ....|... .. .. ....|... .. .. ....|... .. .. ....|... .. .. ....|... .. .. ....|... .. .. ....|C-2 .. .. ....|... .. .. ....|... .. .. ....|... .. .. ....
10 |F-5 .. .. ....|A-4 .. .. ....|D-5 .. .. ....|A-3 .. .. ....|F-4 .. .. ....|D-2 .. .. ....|F-5 .. .. ....|D-5 .. .. ....|... .. .. ....|C-2 .. .. ....|... .. .. ....|... .. .. ....|C-2 .. .. ....|... .. .. ....|... .. .. ....|... .. .. ....
11 |... .. .. ....|... .. .. ....|... .. .. ....|... .. .. ....|... .. .. ....|... .. .. ....|... .. .. ....|... .. .. ....|... .. .. ....|... .. .. ....|... .. .. ....|... .. .. ....|C-2 .. .. ....|... .. .. ....|... .. .. ....|... .. .. ....
12 |... .. .. ....|... .. .. ....|... .. .. ....|... .. .. ....|... .. .. ....|D-3 .. .. ....|OFF .. .. ....|OFF .. .. ....|... .. .. ....|... .. .. ....|... .. .. ....|C-2 00 .. ....|... .. .. ....|... .. .. ....|... .. .. ....|... .. .. ....
13 |OFF .. .. ....|... .. .. ....|... .. .. ....|... .. .. ....|... .. .. ....|... .. .. ....|... .. .. ....|... .. .. ....|... .. .. ....|... .. .. ....|... .. .. ....|... .. .. ....|C-2 .. .. ....|... .. .. ....|... .. .. ....|... .. .. ....
14 |G-5 .. .. ....|... .. .. ....|... .. .. ....|... .. .. ....|... .. .. ....|D-2 .. .. ....|G-5 .. .. ....|E-5 .. .. ....|... .. .. ....|... .. .. ....|C-2 .. .. ....|... .. .. ....|C-2 .. .. ....|... .. .. ....|... .. .. ....|... .. .. ....
15 |... .. .. ....|... .. .. ....|... .. .. ....|... .. .. ....|... .. .. ....|... .. .. ....|... .. .. ....|... .. .. ....|... .. .. ....|... .. .. ....|... .. .. ....|... .. .. ....|C-2 .. .. ....|... .. .. ....|... .. .. ....|... .. .. ....
16 |A-5 .. .. ....|... .. .. ....|... .. .. ....|... .. .. ....|... .. .. ....|D-3 .. .. ....|A-5 .. .. ....|F-5 .. .. ....|... .. .. ....|... .. .. ....|... .. .. ....|C-2 .. .. ....|... .. .. ....|... .. .. ....|... .. .. ....|... .. .. ....
17 |... .. .. ....|... .. .. ....|... .. .. ....|... .. .. ....|... .. .. ....|... .. .. ....|... .. .. ....|... .. .. ....|... .. .. ....|... .. .. ....|... .. .. ....|... .. .. ....|C-2 .. .. ....|... .. .. ....|... .. .. ....|... .. .. ....
18 |G-5 .. .. ....|G-4 .. .. ....|B-4 .. .. ....|G-3 .. .. ....|D-4 .. .. ....|B-1 .. .. ....|G-5 .. .. ....|E-5 .. .. ....|... .. .. ....|C-2 .. .. ....|... .. .. ....|... .. .. ....|C-2 .. .. ....|... .. .. ....|... .. .. ....|... .. .. ....
19 |... .. .. ....|... .. .. ....|... .. .. ....|... .. .. ....|... .. .. ....|... .. .. ....|... .. .. ....|... .. .. ....|... .. .. ....|... .. .. ....|... .. .. ....|... .. .. ....|C-2 .. .. ....|... .. .. ....|... .. .. ....|... .. .. ....
1A |... .. .. ....|... .. .. ....|... .. .. ....|... .. .. ....|... .. .. ....|B-2 .. .. ....|OFF .. .. ....|OFF .. .. ....|... .. .. ....|... .. .. ....|... .. .. ....|C-2 .. .. ....|... .. .. ....|... .. .. ....|... .. .. ....|... .. .. ....
1B |OFF .. .. ....|... .. .. ....|... .. .. ....|... .. .. ....|... .. .. ....|... .. .. ....|... .. .. ....|... .. .. ....|... .. .. ....|... .. .. ....|... .. .. ....|... .. .. ....|C-2 .. .. ....|... .. .. ....|... .. .. ....|... .. .. ....
1C |C-6 .. .. ....|... .. .. ....|... .. .. ....|... .. .. ....|... .. .. ....|B-1 .. .. ....|C-6 .. .. ....|G-5 .. .. ....|... .. .. ....|... .. .. ....|C-2 .. .. ....|... .. .. ....|C-2 .. .. ....|... .. .. ....|... .. .. ....|... .. .. ....
1D |... .. .. ....|... .. .. ....|... .. .. ....|... .. .. ....|... .. .. ....|... .. .. ....|... .. .. ....|... .. .. ....|... .. .. ....|... .. .. ....|... .. .. ....|... .. .. ....|C-2 .. .. ....|... .. .. ....|... .. .. ....|... .. .. ....
1E |... .. .. ....|... .. .. ....|... .. .. ....|... .. .. ....|... .. .. ....|B-2 .. .. ....|OFF .. .. ....|OFF .. .. ....|... .. .. ....|... .. .. ....|... .. .. ....|C-2 .. .. ....|... .. .. ....|... .. .. ....|... .. .. ....|... .. .. ....
1F |OFF .. .. ....|... .. .. ....|... .. .. ....|... .. .. ....|... .. .. ....|... .. .. ....|... .. .. ....|... .. .. ....|... .. .. ....|... .. .. ....|... .. .. ....|... .. .. ....|C-2 .. .. ....|... .. .. ....|... .. .. ....|... .. .. ....
20 |D-6 .. .. ....|F-4 .. .. ....|A#4 .. .. ....|F-3 .. .. ....|D-4 .. .. ....|A#1 .. .. ....|D-6 .. .. ....|A-5 .. .. ....|... .. .. ....|C-2 .. .. ....|... .. .. ....|... .. .. ....|C-2 .. .. ....|... .. .. ....|... .. .. ....|... .. .. ....
21 |... .. .. ....|... .. .. ....|... .. .. ....|... .. .. ....|... .. .. ....|... .. .. ....|... .. .. ....|... .. .. ....|... .. .. ....|... .. .. ....|... .. .. ....|... .. .. ....|C-2 .. .. ....|... .. .. ....|... .. .. ....|... .. .. ....
22 |A-5 .. .. ....|... .. .. ....|... .. .. ....|... .. .. ....|... .. .. ....|A#2 .. .. ....|A-5 .. .. ....|F-5 .. .. ....|... .. .. ....|... .. .. ....|... .. .. ....|C-2 00 .. ....|... .. .. ....|... .. .. ....|... .. .. ....|... .. .. ....
23 |... .. .. ....|... .. .. ....|... .. .. ....|... .. .. ....|... .. .. ....|... .. .. ....|... .. .. ....|... .. .. ....|... .. .. ....|... .. .. ....|... .. .. ....|... .. .. ....|C-2 .. .. ....|... .. .. ....|... .. .. ....|... .. .. ....
24 |E-6 .. .. ....|... .. .. ....|... .. .. ....|... .. .. ....|... .. .. ....|A#1 .. .. ....|E-6 .. .. ....|C-6 .. .. ....|... .. .. ....|... .. .. ....|C-2 .. .. ....|... .. .. ....|C-2 .. .. ....|... .. .. ....|... .. .. ....|... .. .. ....
25 |... .. .. ....|... .. .. ....|... .. .. ....|... .. .. ....|... .. .. ....|... .. .. ....|... .. .. ....|... .. .. ....|... .. .. ....|... .. .. ....|... .. .. ....|... .. .. ....|C-2 .. .. ....|... .. .. ....|... .. .. ....|... .. .. ....
26 |F-6 .. .. ....|... .. .. ....|... .. .. ....|... .. .. ....|... .. .. ....|A#2 .. .. ....|F-6 .. .. ....|D-6 .. .. ....|... .. .. ....|... .. .. ....|... .. .. ....|C-2 .. .. ....|... .. .. ....|... .. .. ....|... .. .. ....|... .. .. ....
27 |... .. .. ....|... .. .. ....|... .. .. ....|... .. .. ....|... .. .. ....|... .. .. ....|... .. .. ....|... .. .. ....|... .. .. ....|... .. .. ....|... .. .. ....|... .. .. ....|C-2 .. .. ....|... .. .. ....|... .. .. ....|... .. .. ....
28 |E-6 .. .. ....|G-4 .. .. ....|C-5 .. .. ....|G-3 .. .. ....|E-4 .. .. ....|C-2 .. .. ....|E-6 .. .. ....|C-6 .. .. ....|... .. .. ....|C-2 .. .. ....|... .. .. ....|... .. .. ....|C-2 .. .. ....|... .. .. ....|... .. .. ....|... .. .. ....
29 |... .. .. ....|... .. .. ....|... .. .. ....|... .. .. ....|... .. .. ....|... .. .. ....|... .. .. ....|... .. .. ....|... .. .. ....|... .. .. ....|... .. .. ....|... .. .. ....|C-2 .. .. ....|... .. .. ....|... .. .. ....|... .. .. ....
2A |F-6 .. .. ....|... .. .. ....|... .. .. ....|... .. .. ....|... .. .. ....|C-3 .. .. ....|F-6 .. .. ....|D-6 .. .. ....|... .. .. ....|... .. .. ....|... .. .. ....|C-2 .. .. ....|... .. .. ....|... .. .. ....|... .. .. ....|... .. .. ....
2B |E-6 .. .. ....|... .. .. ....|... .. .. ....|... .. .. ....|... .. .. ....|... .. .. ....|E-6 .. .. ....|C-6 .. .. ....|... .. .. ....|... .. .. ....|... .. .. ....|... .. .. ....|C-2 .. .. ....|... .. .. ....|... .. .. ....|... .. .. ....
2C |D-6 .. .. ....|... .. .. ....|... .. .. ....|... .. .. ....|... .. .. ....|C-2 .. .. ....|D-6 .. .. ....|F-5 .. .. ....|... .. .. ....|... .. .. ....|C-2 .. .. ....|... .. .. ....|C-2 .. .. ....|... .. .. ....|... .. .. ....|... .. .. ....
2D |... .. .. ....|... .. .. ....|... .. .. ....|... .. .. ....|... .. .. ....|... .. .. ....|... .. .. ....|... .. .. ....|... .. .. ....|... .. .. ....|... .. .. ....|... .. .. ....|C-2 .. .. ....|... .. .. ....|... .. .. ....|... .. .. ....
2E |C-6 .. .. ....|... .. .. ....|... .. .. ....|... .. .. ....|... .. .. ....|C-3 .. .. ....|C-6 .. .. ....|F-5 .. .. ....|... .. .. ....|... .. .. ....|... .. .. ....|C-2 .. .. ....|... .. .. ....|... .. .. ....|... .. .. ....|... .. .. ....
2F |... .. .. ....|... .. .. ....|... .. .. ....|... .. .. ....|... .. .. ....|... .. .. ....|... .. .. ....|... .. .. ....|... .. .. ....|... .. .. ....|... .. .. ....|... .. .. ....|C-2 .. .. ....|... .. .. ....|... .. .. ....|... .. .. ....
30 |D-6 .. .. ....|A-4 .. .. ....|D-5 .. .. ....|A-3 .. .. ....|F-4 .. .. ....|D-2 .. .. ....|D-6 .. .. ....|A-5 .. .. ....|... .. .. ....|C-2 .. .. ....|... .. .. ....|... .. .. ....|C-2 .. .. ....|... .. .. ....|... .. .. ....|... .. .. ....
31 |... .. .. ....|... .. .. ....|... .. .. ....|... .. .. ....|... .. .. ....|... .. .. ....|... .. .. ....|... .. .. ....|... .. .. ....|... .. .. ....|... .. .. ....|... .. .. ....|C-2 .. .. ....|... .. .. ....|... .. .. ....|... .. .. ....
32 |... .. .. ....|... .. .. ....|... .. .. ....|... .. .. ....|... .. .. ....|D-3 .. .. ....|... .. .. ....|... .. .. ....|... .. .. ....|... .. .. ....|... .. .. ....|C-2 00 .. ....|... .. .. ....|... .. .. ....|... .. .. ....|... .. .. ....
33 |... .. .. ....|... .. .. ....|... .. .. ....|... .. .. ....|... .. .. ....|... .. .. ....|... .. .. ....|... .. .. ....|... .. .. ....|... .. .. ....|... .. .. ....|... .. .. ....|C-2 .. .. ....|... .. .. ....|... .. .. ....|... .. .. ....
34 |... .. .. ....|C-5 .. .. ....|E-5 .. .. ....|C-4 .. .. ....|G-4 .. .. ....|E-2 .. .. ....|... .. .. ....|... .. .. ....|... .. .. ....|... .. .. ....|C-2 .. .. ....|... .. .. ....|C-2 .. .. ....|... .. .. ....|... .. .. ....|... .. .. ....
35 |... .. .. ....|... .. .. ....|... .. .. ....|... .. .. ....|... .. .. ....|... .. .. ....|... .. .. ....|... .. .. ....|... .. .. ....|... .. .. ....|... .. .. ....|... .. .. ....|C-2 .. .. ....|... .. .. ....|... .. .. ....|... .. .. ....
36 |... .. .. ....|... .. .. ....|... .. .. ....|... .. .. ....|... .. .. ....|E-3 .. .. ....|... .. .. ....|... .. .. ....|... .. .. ....|... .. .. ....|... .. .. ....|C-2 .. .. ....|... .. .. ....|... .. .. ....|... .. .. ....|... .. .. ....
37 |... .. .. ....|... .. .. ....|... .. .. ....|... .. .. ....|... .. .. ....|... .. .. ....|... .. .. ....|... .. .. ....|... .. .. ....|... .. .. ....|... .. .. ....|... .. .. ....|C-2 .. .. ....|... .. .. ....|... .. .. ....|... .. .. ....
38 |... .. .. ....|D-5 .. .. ....|F-5 .. .. ....|D-4 .. .. ....|A-4 .. .. ....|F-2 .. .. ....|... .. .. ....|... .. .. ....|... .. .. ....|C-2 .. .. ....|... .. .. ....|... .. .. ....|C-2 .. .. ....|... .. .. ....|... .. .. ....|... .. .. ....
39 |... .. .. ....|... .. .. ....|... .. .. ....|... .. .. ....|... .. .. ....|... .. .. ....|... .. .. ....|... .. .. ....|... .. .. ....|... .. .. ....|... .. .. ....|... .. .. ....|C-2 .. .. ....|... .. .. ....|... .. .. ....|... .. .. ....
3A |... .. .. ....|... .. .. ....|... .. .. ....|... .. .. ....|... .. .. ....|F-3 .. .. ....|... .. .. ....|... .. .. ....|... .. .. ....|... .. .. ....|... .. .. ....|C-2 .. .. ....|... .. .. ....|... .. .. ....|... .. .. ....|... .. .. ....
3B |... .. .. ....|... .. .. ....|... .. .. ....|... .. .. ....|... .. .. ....|... .. .. ....|... .. .. ....|... .. .. ....|... .. .. ....|... .. .. ....|... .. .. ....|... .. .. ....|C-2 .. .. ....|... .. .. ....|... .. .. ....|... .. .. ....
3C |... .. .. ....|E-5 .. .. ....|G-5 .. .. ....|E-4 .. .. ....|C-5 .. .. ....|G-2 .. .. ....|... .. .. ....|... .. .. ....|... .. .. ....|... .. .. ....|C-2 .. .. ....|... .. .. ....|C-2 .. .. ....|... .. .. ....|... .. .. ....|... .. .. ....
3D |... .. .. ....|... .. .. ....|... .. .. ....|... .. .. ....|... .. .. ....|... .. .. ....|... .. .. ....|... .. .. ....|... .. .. ....|... .. .. ....|... .. .. ....|... .. .. ....|C-2 .. .. ....|... .. .. ....|... .. .. ....|... .. .. ....
3E |OFF .. .. ....|... .. .. ....|... .. .. ....|... .. .. ....|... .. .. ....|G-3 .. .. ....|OFF .. .. ....|OFF .. .. ....|... .. .. ....|... .. .. ....|... .. .. ....|C-2 .. .. ....|... .. .. ....|... .. .. ....|... .. .. ....|... .. .. ....
3F |... .. .. ....|... .. .. ....|... .. .. ....|... .. .. ....|... .. .. ....|... .. .. ....|... .. .. ....|... .. .. ....|... .. .. ....|... .. .. ....|... .. .. ....|... .. .. ....|C-2 .. .. ....|... .. .. ....|... .. .. ....|... .. .. FF..
