# Furnace Text Export

generated by Furnace dev191 (191)

# Song Information

- name: 魔法少女たちの百年通夜
- author: 毛玉の地下基地
- album: 
- system: Yamaha YM2608 (OPNA)
- tuning: 440

- instruments: 10
- wavetables: 0
- samples: 0

# Sound Chips

- Yamaha YM2608 (OPNA)
  - id: 21
  - volume: 1
  - panning: 0
  - front/rear: 0

# Instruments

## 00: Octave Piano

- type: 1
- FM parameters:
  - ALG: 4
  - FB: 7
  - FMS: 0
  - AMS: 0
  - FMS2: 0
  - AMS2: 0
  - operators: 4
  - OPLL patch: 0
  - fixed drum freq: no
  - kick freq: 0520
  - snare/hat freq: 0550
  - tom/top freq: 01C0
  - operator 0:
    - enabled: yes
    - AM: 0
    - AR: 28
    - DR: 0
    - MULT: 3
    - RR: 0
    - SL: 3
    - TL: 35
    - DT2: 0
    - RS: 2
    - DT: 3
    - D2R: 8
    - SSG-EG: 0
    - DAM: 0
    - DVB: 0
    - EGT: 0
    - KSL: 0
    - SUS: 0
    - VIB: 0
    - WS: 0
    - KSR: 0
    - TL volume scale: 2
  - operator 1:
    - enabled: yes
    - AM: 0
    - AR: 28
    - DR: 0
    - MULT: 3
    - RR: 0
    - SL: 3
    - TL: 33
    - DT2: 0
    - RS: 2
    - DT: 7
    - D2R: 8
    - SSG-EG: 0
    - DAM: 0
    - DVB: 0
    - EGT: 0
    - KSL: 0
    - SUS: 0
    - VIB: 0
    - WS: 0
    - KSR: 0
    - TL volume scale: 2
  - operator 2:
    - enabled: yes
    - AM: 0
    - AR: 26
    - DR: 10
    - MULT: 1
    - RR: 6
    - SL: 2
    - TL: 0
    - DT2: 0
    - RS: 1
    - DT: 3
    - D2R: 7
    - SSG-EG: 0
    - DAM: 0
    - DVB: 0
    - EGT: 0
    - KSL: 0
    - SUS: 0
    - VIB: 0
    - WS: 0
    - KSR: 0
    - TL volume scale: 2
  - operator 3:
    - enabled: yes
    - AM: 0
    - AR: 26
    - DR: 10
    - MULT: 1
    - RR: 6
    - SL: 2
    - TL: 0
    - DT2: 0
    - RS: 1
    - DT: 7
    - D2R: 7
    - SSG-EG: 0
    - DAM: 0
    - DVB: 0
    - EGT: 0
    - KSL: 0
    - SUS: 0
    - VIB: 0
    - WS: 0
    - KSR: 0
    - TL volume scale: 2

## 01: String

- type: 1
- FM parameters:
  - ALG: 4
  - FB: 3
  - FMS: 0
  - AMS: 0
  - FMS2: 0
  - AMS2: 0
  - operators: 4
  - OPLL patch: 0
  - fixed drum freq: no
  - kick freq: 0520
  - snare/hat freq: 0550
  - tom/top freq: 01C0
  - operator 0:
    - enabled: yes
    - AM: 0
    - AR: 18
    - DR: 0
    - MULT: 2
    - RR: 9
    - SL: 7
    - TL: 33
    - DT2: 0
    - RS: 0
    - DT: 6
    - D2R: 3
    - SSG-EG: 0
    - DAM: 0
    - DVB: 0
    - EGT: 0
    - KSL: 0
    - SUS: 0
    - VIB: 0
    - WS: 0
    - KSR: 0
    - TL volume scale: 2
  - operator 1:
    - enabled: yes
    - AM: 0
    - AR: 18
    - DR: 0
    - MULT: 2
    - RR: 9
    - SL: 2
    - TL: 33
    - DT2: 0
    - RS: 0
    - DT: 0
    - D2R: 3
    - SSG-EG: 0
    - DAM: 0
    - DVB: 0
    - EGT: 0
    - KSL: 0
    - SUS: 0
    - VIB: 0
    - WS: 0
    - KSR: 0
    - TL volume scale: 2
  - operator 2:
    - enabled: yes
    - AM: 0
    - AR: 12
    - DR: 0
    - MULT: 2
    - RR: 8
    - SL: 10
    - TL: 11
    - DT2: 0
    - RS: 0
    - DT: 6
    - D2R: 18
    - SSG-EG: 0
    - DAM: 0
    - DVB: 0
    - EGT: 0
    - KSL: 0
    - SUS: 0
    - VIB: 0
    - WS: 0
    - KSR: 0
    - TL volume scale: 2
  - operator 3:
    - enabled: yes
    - AM: 0
    - AR: 12
    - DR: 0
    - MULT: 2
    - RR: 8
    - SL: 8
    - TL: 12
    - DT2: 0
    - RS: 0
    - DT: 6
    - D2R: 18
    - SSG-EG: 0
    - DAM: 0
    - DVB: 0
    - EGT: 0
    - KSL: 0
    - SUS: 0
    - VIB: 0
    - WS: 0
    - KSR: 0
    - TL volume scale: 2

## 02: Bass

- type: 1
- FM parameters:
  - ALG: 2
  - FB: 6
  - FMS: 0
  - AMS: 1
  - FMS2: 0
  - AMS2: 0
  - operators: 4
  - OPLL patch: 0
  - fixed drum freq: no
  - kick freq: 0520
  - snare/hat freq: 0550
  - tom/top freq: 01C0
  - operator 0:
    - enabled: yes
    - AM: 0
    - AR: 22
    - DR: 9
    - MULT: 0
    - RR: 15
    - SL: 0
    - TL: 35
    - DT2: 0
    - RS: 0
    - DT: 6
    - D2R: 0
    - SSG-EG: 0
    - DAM: 0
    - DVB: 0
    - EGT: 0
    - KSL: 0
    - SUS: 0
    - VIB: 0
    - WS: 0
    - KSR: 0
    - TL volume scale: 2
  - operator 1:
    - enabled: yes
    - AM: 0
    - AR: 25
    - DR: 9
    - MULT: 2
    - RR: 15
    - SL: 0
    - TL: 42
    - DT2: 0
    - RS: 0
    - DT: 0
    - D2R: 0
    - SSG-EG: 0
    - DAM: 0
    - DVB: 0
    - EGT: 0
    - KSL: 0
    - SUS: 0
    - VIB: 0
    - WS: 0
    - KSR: 0
    - TL volume scale: 2
  - operator 2:
    - enabled: yes
    - AM: 0
    - AR: 22
    - DR: 14
    - MULT: 2
    - RR: 15
    - SL: 4
    - TL: 22
    - DT2: 0
    - RS: 0
    - DT: 0
    - D2R: 0
    - SSG-EG: 0
    - DAM: 0
    - DVB: 0
    - EGT: 0
    - KSL: 0
    - SUS: 0
    - VIB: 0
    - WS: 0
    - KSR: 0
    - TL volume scale: 2
  - operator 3:
    - enabled: yes
    - AM: 0
    - AR: 25
    - DR: 6
    - MULT: 0
    - RR: 15
    - SL: 15
    - TL: 7
    - DT2: 0
    - RS: 0
    - DT: 6
    - D2R: 0
    - SSG-EG: 0
    - DAM: 0
    - DVB: 0
    - EGT: 0
    - KSL: 0
    - SUS: 0
    - VIB: 0
    - WS: 0
    - KSR: 0
    - TL volume scale: 2

## 03: Vibraphone

- type: 1
- FM parameters:
  - ALG: 4
  - FB: 0
  - FMS: 0
  - AMS: 0
  - FMS2: 0
  - AMS2: 0
  - operators: 4
  - OPLL patch: 0
  - fixed drum freq: no
  - kick freq: 0520
  - snare/hat freq: 0550
  - tom/top freq: 01C0
  - operator 0:
    - enabled: yes
    - AM: 0
    - AR: 31
    - DR: 14
    - MULT: 5
    - RR: 11
    - SL: 10
    - TL: 45
    - DT2: 0
    - RS: 0
    - DT: 3
    - D2R: 6
    - SSG-EG: 0
    - DAM: 0
    - DVB: 0
    - EGT: 0
    - KSL: 0
    - SUS: 0
    - VIB: 0
    - WS: 0
    - KSR: 0
    - TL volume scale: 2
  - operator 1:
    - enabled: yes
    - AM: 0
    - AR: 31
    - DR: 10
    - MULT: 5
    - RR: 1
    - SL: 11
    - TL: 80
    - DT2: 0
    - RS: 0
    - DT: 3
    - D2R: 0
    - SSG-EG: 0
    - DAM: 0
    - DVB: 0
    - EGT: 0
    - KSL: 0
    - SUS: 0
    - VIB: 0
    - WS: 0
    - KSR: 0
    - TL volume scale: 2
  - operator 2:
    - enabled: yes
    - AM: 0
    - AR: 31
    - DR: 13
    - MULT: 4
    - RR: 11
    - SL: 15
    - TL: 10
    - DT2: 0
    - RS: 0
    - DT: 3
    - D2R: 16
    - SSG-EG: 0
    - DAM: 0
    - DVB: 0
    - EGT: 0
    - KSL: 0
    - SUS: 0
    - VIB: 0
    - WS: 0
    - KSR: 0
    - TL volume scale: 2
  - operator 3:
    - enabled: yes
    - AM: 0
    - AR: 31
    - DR: 10
    - MULT: 1
    - RR: 8
    - SL: 15
    - TL: 4
    - DT2: 0
    - RS: 0
    - DT: 3
    - D2R: 0
    - SSG-EG: 0
    - DAM: 0
    - DVB: 0
    - EGT: 0
    - KSL: 0
    - SUS: 0
    - VIB: 0
    - WS: 0
    - KSR: 0
    - TL volume scale: 2

## 04: Instrument 4

- type: 1
- FM parameters:
  - ALG: 0
  - FB: 4
  - FMS: 0
  - AMS: 0
  - FMS2: 0
  - AMS2: 0
  - operators: 2
  - OPLL patch: 0
  - fixed drum freq: no
  - kick freq: 0520
  - snare/hat freq: 0550
  - tom/top freq: 01C0
  - operator 0:
    - enabled: yes
    - AM: 0
    - AR: 31
    - DR: 8
    - MULT: 5
    - RR: 3
    - SL: 15
    - TL: 42
    - DT2: 0
    - RS: 0
    - DT: 5
    - D2R: 0
    - SSG-EG: 0
    - DAM: 0
    - DVB: 0
    - EGT: 0
    - KSL: 0
    - SUS: 0
    - VIB: 0
    - WS: 0
    - KSR: 0
    - TL volume scale: 2
  - operator 1:
    - enabled: yes
    - AM: 0
    - AR: 31
    - DR: 4
    - MULT: 1
    - RR: 1
    - SL: 11
    - TL: 48
    - DT2: 0
    - RS: 0
    - DT: 5
    - D2R: 0
    - SSG-EG: 0
    - DAM: 0
    - DVB: 0
    - EGT: 0
    - KSL: 0
    - SUS: 0
    - VIB: 0
    - WS: 0
    - KSR: 0
    - TL volume scale: 2

## 05: Instrument 5

- type: 1
- FM parameters:
  - ALG: 0
  - FB: 4
  - FMS: 0
  - AMS: 0
  - FMS2: 0
  - AMS2: 0
  - operators: 2
  - OPLL patch: 0
  - fixed drum freq: no
  - kick freq: 0520
  - snare/hat freq: 0550
  - tom/top freq: 01C0
  - operator 0:
    - enabled: yes
    - AM: 0
    - AR: 31
    - DR: 8
    - MULT: 5
    - RR: 3
    - SL: 15
    - TL: 42
    - DT2: 0
    - RS: 0
    - DT: 5
    - D2R: 0
    - SSG-EG: 0
    - DAM: 0
    - DVB: 0
    - EGT: 0
    - KSL: 0
    - SUS: 0
    - VIB: 0
    - WS: 0
    - KSR: 0
    - TL volume scale: 2
  - operator 1:
    - enabled: yes
    - AM: 0
    - AR: 31
    - DR: 4
    - MULT: 1
    - RR: 1
    - SL: 11
    - TL: 48
    - DT2: 0
    - RS: 0
    - DT: 5
    - D2R: 0
    - SSG-EG: 0
    - DAM: 0
    - DVB: 0
    - EGT: 0
    - KSL: 0
    - SUS: 0
    - VIB: 0
    - WS: 0
    - KSR: 0
    - TL volume scale: 2

## 06: Instrument 6

- type: 1
- FM parameters:
  - ALG: 0
  - FB: 4
  - FMS: 0
  - AMS: 0
  - FMS2: 0
  - AMS2: 0
  - operators: 2
  - OPLL patch: 0
  - fixed drum freq: no
  - kick freq: 0520
  - snare/hat freq: 0550
  - tom/top freq: 01C0
  - operator 0:
    - enabled: yes
    - AM: 0
    - AR: 31
    - DR: 8
    - MULT: 5
    - RR: 3
    - SL: 15
    - TL: 42
    - DT2: 0
    - RS: 0
    - DT: 5
    - D2R: 0
    - SSG-EG: 0
    - DAM: 0
    - DVB: 0
    - EGT: 0
    - KSL: 0
    - SUS: 0
    - VIB: 0
    - WS: 0
    - KSR: 0
    - TL volume scale: 2
  - operator 1:
    - enabled: yes
    - AM: 0
    - AR: 31
    - DR: 4
    - MULT: 1
    - RR: 1
    - SL: 11
    - TL: 48
    - DT2: 0
    - RS: 0
    - DT: 5
    - D2R: 0
    - SSG-EG: 0
    - DAM: 0
    - DVB: 0
    - EGT: 0
    - KSL: 0
    - SUS: 0
    - VIB: 0
    - WS: 0
    - KSR: 0
    - TL volume scale: 2

## 07: Instrument 7

- type: 1
- FM parameters:
  - ALG: 0
  - FB: 4
  - FMS: 0
  - AMS: 0
  - FMS2: 0
  - AMS2: 0
  - operators: 2
  - OPLL patch: 0
  - fixed drum freq: no
  - kick freq: 0520
  - snare/hat freq: 0550
  - tom/top freq: 01C0
  - operator 0:
    - enabled: yes
    - AM: 0
    - AR: 31
    - DR: 8
    - MULT: 5
    - RR: 3
    - SL: 15
    - TL: 42
    - DT2: 0
    - RS: 0
    - DT: 5
    - D2R: 0
    - SSG-EG: 0
    - DAM: 0
    - DVB: 0
    - EGT: 0
    - KSL: 0
    - SUS: 0
    - VIB: 0
    - WS: 0
    - KSR: 0
    - TL volume scale: 2
  - operator 1:
    - enabled: yes
    - AM: 0
    - AR: 31
    - DR: 4
    - MULT: 1
    - RR: 1
    - SL: 11
    - TL: 48
    - DT2: 0
    - RS: 0
    - DT: 5
    - D2R: 0
    - SSG-EG: 0
    - DAM: 0
    - DVB: 0
    - EGT: 0
    - KSL: 0
    - SUS: 0
    - VIB: 0
    - WS: 0
    - KSR: 0
    - TL volume scale: 2

## 08: Instrument 8

- type: 1
- FM parameters:
  - ALG: 0
  - FB: 4
  - FMS: 0
  - AMS: 0
  - FMS2: 0
  - AMS2: 0
  - operators: 2
  - OPLL patch: 0
  - fixed drum freq: no
  - kick freq: 0520
  - snare/hat freq: 0550
  - tom/top freq: 01C0
  - operator 0:
    - enabled: yes
    - AM: 0
    - AR: 31
    - DR: 8
    - MULT: 5
    - RR: 3
    - SL: 15
    - TL: 42
    - DT2: 0
    - RS: 0
    - DT: 5
    - D2R: 0
    - SSG-EG: 0
    - DAM: 0
    - DVB: 0
    - EGT: 0
    - KSL: 0
    - SUS: 0
    - VIB: 0
    - WS: 0
    - KSR: 0
    - TL volume scale: 2
  - operator 1:
    - enabled: yes
    - AM: 0
    - AR: 31
    - DR: 4
    - MULT: 1
    - RR: 1
    - SL: 11
    - TL: 48
    - DT2: 0
    - RS: 0
    - DT: 5
    - D2R: 0
    - SSG-EG: 0
    - DAM: 0
    - DVB: 0
    - EGT: 0
    - KSL: 0
    - SUS: 0
    - VIB: 0
    - WS: 0
    - KSR: 0
    - TL volume scale: 2

## 09: Instrument 9

- type: 1
- FM parameters:
  - ALG: 0
  - FB: 4
  - FMS: 0
  - AMS: 0
  - FMS2: 0
  - AMS2: 0
  - operators: 2
  - OPLL patch: 0
  - fixed drum freq: no
  - kick freq: 0520
  - snare/hat freq: 0550
  - tom/top freq: 01C0
  - operator 0:
    - enabled: yes
    - AM: 0
    - AR: 31
    - DR: 8
    - MULT: 5
    - RR: 3
    - SL: 15
    - TL: 42
    - DT2: 0
    - RS: 0
    - DT: 5
    - D2R: 0
    - SSG-EG: 0
    - DAM: 0
    - DVB: 0
    - EGT: 0
    - KSL: 0
    - SUS: 0
    - VIB: 0
    - WS: 0
    - KSR: 0
    - TL volume scale: 2
  - operator 1:
    - enabled: yes
    - AM: 0
    - AR: 31
    - DR: 4
    - MULT: 1
    - RR: 1
    - SL: 11
    - TL: 48
    - DT2: 0
    - RS: 0
    - DT: 5
    - D2R: 0
    - SSG-EG: 0
    - DAM: 0
    - DVB: 0
    - EGT: 0
    - KSL: 0
    - SUS: 0
    - VIB: 0
    - WS: 0
    - KSR: 0
    - TL volume scale: 2


# Wavetables


# Samples


# Subsongs

## 0: 

- tick rate: 40
- speeds: 6
- virtual tempo: 150/150
- time base: 0
- pattern length: 32

orders:
```
00 | 00 00 00 00 00 00 00 00 00 00 00 00 00 00 00 00
01 | 01 01 01 01 01 01 01 01 01 01 01 01 01 01 01 01
02 | 01 01 01 02 02 02 02 02 02 02 02 02 02 02 02 02
03 | 02 02 02 03 03 03 03 03 03 03 03 03 03 03 03 03
04 | 03 03 03 04 04 04 04 04 04 04 04 04 04 04 04 04
05 | 01 01 01 05 05 05 05 05 05 05 05 05 05 05 05 05
06 | 03 03 03 02 06 06 06 06 06 06 06 06 06 06 06 06
07 | 01 01 01 03 07 07 07 07 07 07 07 07 07 07 07 07
08 | 03 03 03 04 08 06 08 08 08 07 07 07 07 08 08 08
09 | 01 01 01 05 09 07 09 09 09 07 07 07 07 09 09 09
0A | 03 03 03 02 0A 06 0A 0A 0A 06 06 06 06 0A 0A 0A
0B | 01 01 01 03 0B 07 0B 0B 0B 07 07 07 07 0B 0B 0B
0C | 03 03 03 04 0C 06 0C 0C 0C 07 07 07 07 0C 0C 0C
0D | 01 01 01 05 0D 07 0D 0D 0D 07 07 07 07 0D 0D 0D
0E | 03 03 03 02 0E 06 0A 0E 0E 07 07 07 07 0E 0E 0E
0F | 01 01 01 03 0F 07 0B 0F 0F 07 07 07 07 0F 0F 0F
10 | 03 03 03 04 10 06 0C 10 10 07 07 07 07 10 10 10
11 | 01 01 01 05 11 07 0D 11 11 07 07 07 07 11 11 11
12 | 04 04 04 06 12 08 0E 12 12 08 08 08 08 12 12 12
13 | 05 05 05 07 13 09 0F 13 13 09 09 09 09 13 13 13
14 | 06 06 06 07 12 09 10 14 14 0A 0A 0A 0A 14 14 14
15 | 07 07 07 09 15 0B 11 15 15 0B 0B 0B 0B 15 15 15
```

## Patterns

----- ORDER 00
00 |OFF .. .. ....|OFF .. .. ....|OFF .. .. ....|OFF .. .. ....|OFF .. .. ....|OFF .. .. ....|OFF .. .. ....|OFF .. .. ....|OFF .. .. ....|OFF .. .. ....|OFF .. .. ....|OFF .. .. ....|OFF .. .. ....|OFF .. .. ....|OFF .. .. ....|... .. .. 0D..
01 |... .. .. ....|... .. .. ....|... .. .. ....|... .. .. ....|... .. .. ....|... .. .. ....|... .. .. ....|... .. .. ....|... .. .. ....|... .. .. ....|... .. .. ....|... .. .. ....|... .. .. ....|... .. .. ....|... .. .. ....|... .. .. ....
02 |... .. .. ....|... .. .. ....|... .. .. ....|... .. .. ....|... .. .. ....|... .. .. ....|... .. .. ....|... .. .. ....|... .. .. ....|... .. .. ....|... .. .. ....|... .. .. ....|... .. .. ....|... .. .. ....|... .. .. ....|... .. .. ....
03 |... .. .. ....|... .. .. ....|... .. .. ....|... .. .. ....|... .. .. ....|... .. .. ....|... .. .. ....|... .. .. ....|... .. .. ....|... .. .. ....|... .. .. ....|... .. .. ....|... .. .. ....|... .. .. ....|... .. .. ....|... .. .. ....
04 |... .. .. ....|... .. .. ....|... .. .. ....|... .. .. ....|... .. .. ....|... .. .. ....|... .. .. ....|... .. .. ....|... .. .. ....|... .. .. ....|... .. .. ....|... .. .. ....|... .. .. ....|... .. .. ....|... .. .. ....|... .. .. ....
05 |... .. .. ....|... .. .. ....|... .. .. ....|... .. .. ....|... .. .. ....|... .. .. ....|... .. .. ....|... .. .. ....|... .. .. ....|... .. .. ....|... .. .. ....|... .. .. ....|... .. .. ....|... .. .. ....|... .. .. ....|... .. .. ....
06 |... .. .. ....|... .. .. ....|... .. .. ....|... .. .. ....|... .. .. ....|... .. .. ....|... .. .. ....|... .. .. ....|... .. .. ....|... .. .. ....|... .. .. ....|... .. .. ....|... .. .. ....|... .. .. ....|... .. .. ....|... .. .. ....
07 |... .. .. ....|... .. .. ....|... .. .. ....|... .. .. ....|... .. .. ....|... .. .. ....|... .. .. ....|... .. .. ....|... .. .. ....|... .. .. ....|... .. .. ....|... .. .. ....|... .. .. ....|... .. .. ....|... .. .. ....|... .. .. ....
08 |... .. .. ....|... .. .. ....|... .. .. ....|... .. .. ....|... .. .. ....|... .. .. ....|... .. .. ....|... .. .. ....|... .. .. ....|... .. .. ....|... .. .. ....|... .. .. ....|... .. .. ....|... .. .. ....|... .. .. ....|... .. .. ....
09 |... .. .. ....|... .. .. ....|... .. .. ....|... .. .. ....|... .. .. ....|... .. .. ....|... .. .. ....|... .. .. ....|... .. .. ....|... .. .. ....|... .. .. ....|... .. .. ....|... .. .. ....|... .. .. ....|... .. .. ....|... .. .. ....
0A |... .. .. ....|... .. .. ....|... .. .. ....|... .. .. ....|... .. .. ....|... .. .. ....|... .. .. ....|... .. .. ....|... .. .. ....|... .. .. ....|... .. .. ....|... .. .. ....|... .. .. ....|... .. .. ....|... .. .. ....|... .. .. ....
0B |... .. .. ....|... .. .. ....|... .. .. ....|... .. .. ....|... .. .. ....|... .. .. ....|... .. .. ....|... .. .. ....|... .. .. ....|... .. .. ....|... .. .. ....|... .. .. ....|... .. .. ....|... .. .. ....|... .. .. ....|... .. .. ....
0C |... .. .. ....|... .. .. ....|... .. .. ....|... .. .. ....|... .. .. ....|... .. .. ....|... .. .. ....|... .. .. ....|... .. .. ....|... .. .. ....|... .. .. ....|... .. .. ....|... .. .. ....|... .. .. ....|... .. .. ....|... .. .. ....
0D |... .. .. ....|... .. .. ....|... .. .. ....|... .. .. ....|... .. .. ....|... .. .. ....|... .. .. ....|... .. .. ....|... .. .. ....|... .. .. ....|... .. .. ....|... .. .. ....|... .. .. ....|... .. .. ....|... .. .. ....|... .. .. ....
0E |... .. .. ....|... .. .. ....|... .. .. ....|... .. .. ....|... .. .. ....|... .. .. ....|... .. .. ....|... .. .. ....|... .. .. ....|... .. .. ....|... .. .. ....|... .. .. ....|... .. .. ....|... .. .. ....|... .. .. ....|... .. .. ....
0F |... .. .. ....|... .. .. ....|... .. .. ....|... .. .. ....|... .. .. ....|... .. .. ....|... .. .. ....|... .. .. ....|... .. .. ....|... .. .. ....|... .. .. ....|... .. .. ....|... .. .. ....|... .. .. ....|... .. .. ....|... .. .. ....
10 |... .. .. ....|... .. .. ....|... .. .. ....|... .. .. ....|... .. .. ....|... .. .. ....|... .. .. ....|... .. .. ....|... .. .. ....|... .. .. ....|... .. .. ....|... .. .. ....|... .. .. ....|... .. .. ....|... .. .. ....|... .. .. ....
11 |... .. .. ....|... .. .. ....|... .. .. ....|... .. .. ....|... .. .. ....|... .. .. ....|... .. .. ....|... .. .. ....|... .. .. ....|... .. .. ....|... .. .. ....|... .. .. ....|... .. .. ....|... .. .. ....|... .. .. ....|... .. .. ....
12 |... .. .. ....|... .. .. ....|... .. .. ....|... .. .. ....|... .. .. ....|... .. .. ....|... .. .. ....|... .. .. ....|... .. .. ....|... .. .. ....|... .. .. ....|... .. .. ....|... .. .. ....|... .. .. ....|... .. .. ....|... .. .. ....
13 |... .. .. ....|... .. .. ....|... .. .. ....|... .. .. ....|... .. .. ....|... .. .. ....|... .. .. ....|... .. .. ....|... .. .. ....|... .. .. ....|... .. .. ....|... .. .. ....|... .. .. ....|... .. .. ....|... .. .. ....|... .. .. ....
14 |... .. .. ....|... .. .. ....|... .. .. ....|... .. .. ....|... .. .. ....|... .. .. ....|... .. .. ....|... .. .. ....|... .. .. ....|... .. .. ....|... .. .. ....|... .. .. ....|... .. .. ....|... .. .. ....|... .. .. ....|... .. .. ....
15 |... .. .. ....|... .. .. ....|... .. .. ....|... .. .. ....|... .. .. ....|... .. .. ....|... .. .. ....|... .. .. ....|... .. .. ....|... .. .. ....|... .. .. ....|... .. .. ....|... .. .. ....|... .. .. ....|... .. .. ....|... .. .. ....
16 |... .. .. ....|... .. .. ....|... .. .. ....|... .. .. ....|... .. .. ....|... .. .. ....|... .. .. ....|... .. .. ....|... .. .. ....|... .. .. ....|... .. .. ....|... .. .. ....|... .. .. ....|... .. .. ....|... .. .. ....|... .. .. ....
17 |... .. .. ....|... .. .. ....|... .. .. ....|... .. .. ....|... .. .. ....|... .. .. ....|... .. .. ....|... .. .. ....|... .. .. ....|... .. .. ....|... .. .. ....|... .. .. ....|... .. .. ....|... .. .. ....|... .. .. ....|... .. .. ....
18 |... .. .. ....|... .. .. ....|... .. .. ....|... .. .. ....|... .. .. ....|... .. .. ....|... .. .. ....|... .. .. ....|... .. .. ....|... .. .. ....|... .. .. ....|... .. .. ....|... .. .. ....|... .. .. ....|... .. .. ....|... .. .. ....
19 |... .. .. ....|... .. .. ....|... .. .. ....|... .. .. ....|... .. .. ....|... .. .. ....|... .. .. ....|... .. .. ....|... .. .. ....|... .. .. ....|... .. .. ....|... .. .. ....|... .. .. ....|... .. .. ....|... .. .. ....|... .. .. ....
1A |... .. .. ....|... .. .. ....|... .. .. ....|... .. .. ....|... .. .. ....|... .. .. ....|... .. .. ....|... .. .. ....|... .. .. ....|... .. .. ....|... .. .. ....|... .. .. ....|... .. .. ....|... .. .. ....|... .. .. ....|... .. .. ....
1B |... .. .. ....|... .. .. ....|... .. .. ....|... .. .. ....|... .. .. ....|... .. .. ....|... .. .. ....|... .. .. ....|... .. .. ....|... .. .. ....|... .. .. ....|... .. .. ....|... .. .. ....|... .. .. ....|... .. .. ....|... .. .. ....
1C |... .. .. ....|... .. .. ....|... .. .. ....|... .. .. ....|... .. .. ....|... .. .. ....|... .. .. ....|... .. .. ....|... .. .. ....|... .. .. ....|... .. .. ....|... .. .. ....|... .. .. ....|... .. .. ....|... .. .. ....|... .. .. ....
1D |... .. .. ....|... .. .. ....|... .. .. ....|... .. .. ....|... .. .. ....|... .. .. ....|... .. .. ....|... .. .. ....|... .. .. ....|... .. .. ....|... .. .. ....|... .. .. ....|... .. .. ....|... .. .. ....|... .. .. ....|... .. .. ....
1E |... .. .. ....|... .. .. ....|... .. .. ....|... .. .. ....|... .. .. ....|... .. .. ....|... .. .. ....|... .. .. ....|... .. .. ....|... .. .. ....|... .. .. ....|... .. .. ....|... .. .. ....|... .. .. ....|... .. .. ....|... .. .. ....
1F |... .. .. ....|... .. .. ....|... .. .. ....|... .. .. ....|... .. .. ....|... .. .. ....|... .. .. ....|... .. .. ....|... .. .. ....|... .. .. ....|... .. .. ....|... .. .. ....|... .. .. ....|... .. .. ....|... .. .. ....|... .. .. ....
----- ORDER 01
00 |C-2 00 73 ....|G-2 00 73 ....|C-3 00 73 ....|... .. .. ....|... .. .. ....|... .. .. ....|... .. .. ....|... .. .. ....|... .. .. ....|... .. .. ....|... .. .. ....|... .. .. ....|... .. .. ....|... .. .. ....|... .. .. ....|... .. .. ....
01 |... .. .. ....|... .. .. ....|... .. .. ....|... .. .. ....|... .. .. ....|... .. .. ....|... .. .. ....|... .. .. ....|... .. .. ....|... .. .. ....|... .. .. ....|... .. .. ....|... .. .. ....|... .. .. ....|... .. .. ....|... .. .. ....
02 |... .. .. ....|... .. .. ....|... .. .. ....|... .. .. ....|... .. .. ....|... .. .. ....|... .. .. ....|... .. .. ....|... .. .. ....|... .. .. ....|... .. .. ....|... .. .. ....|... .. .. ....|... .. .. ....|... .. .. ....|... .. .. ....
03 |... .. .. ....|... .. .. ....|... .. .. ....|... .. .. ....|... .. .. ....|... .. .. ....|... .. .. ....|... .. .. ....|... .. .. ....|... .. .. ....|... .. .. ....|... .. .. ....|... .. .. ....|... .. .. ....|... .. .. ....|... .. .. ....
04 |... .. .. ....|... .. .. ....|... .. .. ....|... .. .. ....|... .. .. ....|... .. .. ....|... .. .. ....|... .. .. ....|... .. .. ....|... .. .. ....|... .. .. ....|... .. .. ....|... .. .. ....|... .. .. ....|... .. .. ....|... .. .. ....
05 |... .. .. ....|... .. .. ....|... .. .. ....|... .. .. ....|... .. .. ....|... .. .. ....|... .. .. ....|... .. .. ....|... .. .. ....|... .. .. ....|... .. .. ....|... .. .. ....|... .. .. ....|... .. .. ....|... .. .. ....|... .. .. ....
06 |... .. .. ....|... .. .. ....|... .. .. ....|... .. .. ....|... .. .. ....|... .. .. ....|... .. .. ....|... .. .. ....|... .. .. ....|... .. .. ....|... .. .. ....|... .. .. ....|... .. .. ....|... .. .. ....|... .. .. ....|... .. .. ....
07 |... .. .. ....|... .. .. ....|... .. .. ....|... .. .. ....|... .. .. ....|... .. .. ....|... .. .. ....|... .. .. ....|... .. .. ....|... .. .. ....|... .. .. ....|... .. .. ....|... .. .. ....|... .. .. ....|... .. .. ....|... .. .. ....
08 |... .. .. ....|... .. .. ....|... .. .. ....|... .. .. ....|... .. .. ....|... .. .. ....|... .. .. ....|... .. .. ....|... .. .. ....|... .. .. ....|... .. .. ....|... .. .. ....|... .. .. ....|... .. .. ....|... .. .. ....|... .. .. ....
09 |... .. .. ....|... .. .. ....|... .. .. ....|... .. .. ....|... .. .. ....|... .. .. ....|... .. .. ....|... .. .. ....|... .. .. ....|... .. .. ....|... .. .. ....|... .. .. ....|... .. .. ....|... .. .. ....|... .. .. ....|... .. .. ....
0A |... .. .. ....|... .. .. ....|... .. .. ....|... .. .. ....|... .. .. ....|... .. .. ....|... .. .. ....|... .. .. ....|... .. .. ....|... .. .. ....|... .. .. ....|... .. .. ....|... .. .. ....|... .. .. ....|... .. .. ....|... .. .. ....
0B |... .. .. ....|... .. .. ....|... .. .. ....|... .. .. ....|... .. .. ....|... .. .. ....|... .. .. ....|... .. .. ....|... .. .. ....|... .. .. ....|... .. .. ....|... .. .. ....|... .. .. ....|... .. .. ....|... .. .. ....|... .. .. ....
0C |... .. .. ....|... .. .. ....|... .. .. ....|... .. .. ....|... .. .. ....|... .. .. ....|... .. .. ....|... .. .. ....|... .. .. ....|... .. .. ....|... .. .. ....|... .. .. ....|... .. .. ....|... .. .. ....|... .. .. ....|... .. .. ....
0D |... .. .. ....|... .. .. ....|... .. .. ....|... .. .. ....|... .. .. ....|... .. .. ....|... .. .. ....|... .. .. ....|... .. .. ....|... .. .. ....|... .. .. ....|... .. .. ....|... .. .. ....|... .. .. ....|... .. .. ....|... .. .. ....
0E |... .. .. ....|... .. .. ....|... .. .. ....|... .. .. ....|... .. .. ....|... .. .. ....|... .. .. ....|... .. .. ....|... .. .. ....|... .. .. ....|... .. .. ....|... .. .. ....|... .. .. ....|... .. .. ....|... .. .. ....|... .. .. ....
0F |... .. .. ....|... .. .. ....|... .. .. ....|... .. .. ....|... .. .. ....|... .. .. ....|... .. .. ....|... .. .. ....|... .. .. ....|... .. .. ....|... .. .. ....|... .. .. ....|... .. .. ....|... .. .. ....|... .. .. ....|... .. .. ....
10 |C-2 .. .. ....|G-2 .. .. ....|C-3 .. .. ....|... .. .. ....|... .. .. ....|... .. .. ....|... .. .. ....|... .. .. ....|... .. .. ....|... .. .. ....|... .. .. ....|... .. .. ....|... .. .. ....|... .. .. ....|... .. .. ....|... .. .. ....
11 |... .. .. ....|... .. .. ....|... .. .. ....|... .. .. ....|... .. .. ....|... .. .. ....|... .. .. ....|... .. .. ....|... .. .. ....|... .. .. ....|... .. .. ....|... .. .. ....|... .. .. ....|... .. .. ....|... .. .. ....|... .. .. ....
12 |... .. .. ....|... .. .. ....|... .. .. ....|... .. .. ....|... .. .. ....|... .. .. ....|... .. .. ....|... .. .. ....|... .. .. ....|... .. .. ....|... .. .. ....|... .. .. ....|... .. .. ....|... .. .. ....|... .. .. ....|... .. .. ....
13 |... .. .. ....|... .. .. ....|... .. .. ....|... .. .. ....|... .. .. ....|... .. .. ....|... .. .. ....|... .. .. ....|... .. .. ....|... .. .. ....|... .. .. ....|... .. .. ....|... .. .. ....|... .. .. ....|... .. .. ....|... .. .. ....
14 |... .. .. ....|... .. .. ....|... .. .. ....|... .. .. ....|... .. .. ....|... .. .. ....|... .. .. ....|... .. .. ....|... .. .. ....|... .. .. ....|... .. .. ....|... .. .. ....|... .. .. ....|... .. .. ....|... .. .. ....|... .. .. ....
15 |... .. .. ....|... .. .. ....|... .. .. ....|... .. .. ....|... .. .. ....|... .. .. ....|... .. .. ....|... .. .. ....|... .. .. ....|... .. .. ....|... .. .. ....|... .. .. ....|... .. .. ....|... .. .. ....|... .. .. ....|... .. .. ....
16 |... .. .. ....|... .. .. ....|... .. .. ....|... .. .. ....|... .. .. ....|... .. .. ....|... .. .. ....|... .. .. ....|... .. .. ....|... .. .. ....|... .. .. ....|... .. .. ....|... .. .. ....|... .. .. ....|... .. .. ....|... .. .. ....
17 |... .. .. ....|... .. .. ....|... .. .. ....|... .. .. ....|... .. .. ....|... .. .. ....|... .. .. ....|... .. .. ....|... .. .. ....|... .. .. ....|... .. .. ....|... .. .. ....|... .. .. ....|... .. .. ....|... .. .. ....|... .. .. ....
18 |... .. .. ....|... .. .. ....|... .. .. ....|... .. .. ....|... .. .. ....|... .. .. ....|... .. .. ....|... .. .. ....|... .. .. ....|... .. .. ....|... .. .. ....|... .. .. ....|... .. .. ....|... .. .. ....|... .. .. ....|... .. .. ....
19 |... .. .. ....|... .. .. ....|... .. .. ....|... .. .. ....|... .. .. ....|... .. .. ....|... .. .. ....|... .. .. ....|... .. .. ....|... .. .. ....|... .. .. ....|... .. .. ....|... .. .. ....|... .. .. ....|... .. .. ....|... .. .. ....
1A |... .. .. ....|... .. .. ....|... .. .. ....|... .. .. ....|... .. .. ....|... .. .. ....|... .. .. ....|... .. .. ....|... .. .. ....|... .. .. ....|... .. .. ....|... .. .. ....|... .. .. ....|... .. .. ....|... .. .. ....|... .. .. ....
1B |... .. .. ....|... .. .. ....|... .. .. ....|... .. .. ....|... .. .. ....|... .. .. ....|... .. .. ....|... .. .. ....|... .. .. ....|... .. .. ....|... .. .. ....|... .. .. ....|... .. .. ....|... .. .. ....|... .. .. ....|... .. .. ....
1C |... .. .. ....|... .. .. ....|... .. .. ....|... .. .. ....|... .. .. ....|... .. .. ....|... .. .. ....|... .. .. ....|... .. .. ....|... .. .. ....|... .. .. ....|... .. .. ....|... .. .. ....|... .. .. ....|... .. .. ....|... .. .. ....
1D |... .. .. ....|... .. .. ....|... .. .. ....|... .. .. ....|... .. .. ....|... .. .. ....|... .. .. ....|... .. .. ....|... .. .. ....|... .. .. ....|... .. .. ....|... .. .. ....|... .. .. ....|... .. .. ....|... .. .. ....|... .. .. ....
1E |... .. .. ....|... .. .. ....|... .. .. ....|... .. .. ....|... .. .. ....|... .. .. ....|... .. .. ....|... .. .. ....|... .. .. ....|... .. .. ....|... .. .. ....|... .. .. ....|... .. .. ....|... .. .. ....|... .. .. ....|... .. .. ....
1F |... .. .. ....|... .. .. ....|... .. .. ....|... .. .. ....|... .. .. ....|... .. .. ....|... .. .. ....|... .. .. ....|... .. .. ....|... .. .. ....|... .. .. ....|... .. .. ....|... .. .. ....|... .. .. ....|... .. .. ....|... .. .. ....
----- ORDER 02
00 |C-2 00 73 ....|G-2 00 73 ....|C-3 00 73 ....|C-5 01 72 ....|... .. .. ....|... .. .. ....|... .. .. ....|... .. .. ....|... .. .. ....|... .. .. ....|... .. .. ....|... .. .. ....|... .. .. ....|... .. .. ....|... .. .. ....|... .. .. ....
01 |... .. .. ....|... .. .. ....|... .. .. ....|... .. .. ....|... .. .. ....|... .. .. ....|... .. .. ....|... .. .. ....|... .. .. ....|... .. .. ....|... .. .. ....|... .. .. ....|... .. .. ....|... .. .. ....|... .. .. ....|... .. .. ....
02 |... .. .. ....|... .. .. ....|... .. .. ....|... .. .. ....|... .. .. ....|... .. .. ....|... .. .. ....|... .. .. ....|... .. .. ....|... .. .. ....|... .. .. ....|... .. .. ....|... .. .. ....|... .. .. ....|... .. .. ....|... .. .. ....
03 |... .. .. ....|... .. .. ....|... .. .. ....|... .. .. ....|... .. .. ....|... .. .. ....|... .. .. ....|... .. .. ....|... .. .. ....|... .. .. ....|... .. .. ....|... .. .. ....|... .. .. ....|... .. .. ....|... .. .. ....|... .. .. ....
04 |... .. .. ....|... .. .. ....|... .. .. ....|A#4 .. .. ....|... .. .. ....|... .. .. ....|... .. .. ....|... .. .. ....|... .. .. ....|... .. .. ....|... .. .. ....|... .. .. ....|... .. .. ....|... .. .. ....|... .. .. ....|... .. .. ....
05 |... .. .. ....|... .. .. ....|... .. .. ....|... .. .. ....|... .. .. ....|... .. .. ....|... .. .. ....|... .. .. ....|... .. .. ....|... .. .. ....|... .. .. ....|... .. .. ....|... .. .. ....|... .. .. ....|... .. .. ....|... .. .. ....
06 |... .. .. ....|... .. .. ....|... .. .. ....|C-5 .. .. ....|... .. .. ....|... .. .. ....|... .. .. ....|... .. .. ....|... .. .. ....|... .. .. ....|... .. .. ....|... .. .. ....|... .. .. ....|... .. .. ....|... .. .. ....|... .. .. ....
07 |... .. .. ....|... .. .. ....|... .. .. ....|... .. .. ....|... .. .. ....|... .. .. ....|... .. .. ....|... .. .. ....|... .. .. ....|... .. .. ....|... .. .. ....|... .. .. ....|... .. .. ....|... .. .. ....|... .. .. ....|... .. .. ....
08 |... .. .. ....|... .. .. ....|... .. .. ....|... .. .. ....|... .. .. ....|... .. .. ....|... .. .. ....|... .. .. ....|... .. .. ....|... .. .. ....|... .. .. ....|... .. .. ....|... .. .. ....|... .. .. ....|... .. .. ....|... .. .. ....
09 |... .. .. ....|... .. .. ....|... .. .. ....|... .. .. ....|... .. .. ....|... .. .. ....|... .. .. ....|... .. .. ....|... .. .. ....|... .. .. ....|... .. .. ....|... .. .. ....|... .. .. ....|... .. .. ....|... .. .. ....|... .. .. ....
0A |... .. .. ....|... .. .. ....|... .. .. ....|A#4 .. .. ....|... .. .. ....|... .. .. ....|... .. .. ....|... .. .. ....|... .. .. ....|... .. .. ....|... .. .. ....|... .. .. ....|... .. .. ....|... .. .. ....|... .. .. ....|... .. .. ....
0B |... .. .. ....|... .. .. ....|... .. .. ....|... .. .. ....|... .. .. ....|... .. .. ....|... .. .. ....|... .. .. ....|... .. .. ....|... .. .. ....|... .. .. ....|... .. .. ....|... .. .. ....|... .. .. ....|... .. .. ....|... .. .. ....
0C |... .. .. ....|... .. .. ....|... .. .. ....|C-5 .. .. ....|... .. .. ....|... .. .. ....|... .. .. ....|... .. .. ....|... .. .. ....|... .. .. ....|... .. .. ....|... .. .. ....|... .. .. ....|... .. .. ....|... .. .. ....|... .. .. ....
0D |... .. .. ....|... .. .. ....|... .. .. ....|... .. .. ....|... .. .. ....|... .. .. ....|... .. .. ....|... .. .. ....|... .. .. ....|... .. .. ....|... .. .. ....|... .. .. ....|... .. .. ....|... .. .. ....|... .. .. ....|... .. .. ....
0E |... .. .. ....|... .. .. ....|... .. .. ....|D-5 .. .. ....|... .. .. ....|... .. .. ....|... .. .. ....|... .. .. ....|... .. .. ....|... .. .. ....|... .. .. ....|... .. .. ....|... .. .. ....|... .. .. ....|... .. .. ....|... .. .. ....
0F |... .. .. ....|... .. .. ....|... .. .. ....|... .. .. ....|... .. .. ....|... .. .. ....|... .. .. ....|... .. .. ....|... .. .. ....|... .. .. ....|... .. .. ....|... .. .. ....|... .. .. ....|... .. .. ....|... .. .. ....|... .. .. ....
10 |C-2 .. .. ....|G-2 .. .. ....|C-3 .. .. ....|D#5 .. .. ....|... .. .. ....|... .. .. ....|... .. .. ....|... .. .. ....|... .. .. ....|... .. .. ....|... .. .. ....|... .. .. ....|... .. .. ....|... .. .. ....|... .. .. ....|... .. .. ....
11 |... .. .. ....|... .. .. ....|... .. .. ....|... .. .. ....|... .. .. ....|... .. .. ....|... .. .. ....|... .. .. ....|... .. .. ....|... .. .. ....|... .. .. ....|... .. .. ....|... .. .. ....|... .. .. ....|... .. .. ....|... .. .. ....
12 |... .. .. ....|... .. .. ....|... .. .. ....|G-4 .. .. ....|... .. .. ....|... .. .. ....|... .. .. ....|... .. .. ....|... .. .. ....|... .. .. ....|... .. .. ....|... .. .. ....|... .. .. ....|... .. .. ....|... .. .. ....|... .. .. ....
13 |... .. .. ....|... .. .. ....|... .. .. ....|... .. .. ....|... .. .. ....|... .. .. ....|... .. .. ....|... .. .. ....|... .. .. ....|... .. .. ....|... .. .. ....|... .. .. ....|... .. .. ....|... .. .. ....|... .. .. ....|... .. .. ....
14 |... .. .. ....|... .. .. ....|... .. .. ....|D-5 .. .. ....|... .. .. ....|... .. .. ....|... .. .. ....|... .. .. ....|... .. .. ....|... .. .. ....|... .. .. ....|... .. .. ....|... .. .. ....|... .. .. ....|... .. .. ....|... .. .. ....
15 |... .. .. ....|... .. .. ....|... .. .. ....|... .. .. ....|... .. .. ....|... .. .. ....|... .. .. ....|... .. .. ....|... .. .. ....|... .. .. ....|... .. .. ....|... .. .. ....|... .. .. ....|... .. .. ....|... .. .. ....|... .. .. ....
16 |... .. .. ....|... .. .. ....|... .. .. ....|G-4 .. .. ....|... .. .. ....|... .. .. ....|... .. .. ....|... .. .. ....|... .. .. ....|... .. .. ....|... .. .. ....|... .. .. ....|... .. .. ....|... .. .. ....|... .. .. ....|... .. .. ....
17 |... .. .. ....|... .. .. ....|... .. .. ....|... .. .. ....|... .. .. ....|... .. .. ....|... .. .. ....|... .. .. ....|... .. .. ....|... .. .. ....|... .. .. ....|... .. .. ....|... .. .. ....|... .. .. ....|... .. .. ....|... .. .. ....
18 |... .. .. ....|... .. .. ....|... .. .. ....|C-5 .. .. ....|... .. .. ....|... .. .. ....|... .. .. ....|... .. .. ....|... .. .. ....|... .. .. ....|... .. .. ....|... .. .. ....|... .. .. ....|... .. .. ....|... .. .. ....|... .. .. ....
19 |... .. .. ....|... .. .. ....|... .. .. ....|... .. .. ....|... .. .. ....|... .. .. ....|... .. .. ....|... .. .. ....|... .. .. ....|... .. .. ....|... .. .. ....|... .. .. ....|... .. .. ....|... .. .. ....|... .. .. ....|... .. .. ....
1A |... .. .. ....|... .. .. ....|... .. .. ....|... .. .. ....|... .. .. ....|... .. .. ....|... .. .. ....|... .. .. ....|... .. .. ....|... .. .. ....|... .. .. ....|... .. .. ....|... .. .. ....|... .. .. ....|... .. .. ....|... .. .. ....
1B |... .. .. ....|... .. .. ....|... .. .. ....|... .. .. ....|... .. .. ....|... .. .. ....|... .. .. ....|... .. .. ....|... .. .. ....|... .. .. ....|... .. .. ....|... .. .. ....|... .. .. ....|... .. .. ....|... .. .. ....|... .. .. ....
1C |... .. .. ....|... .. .. ....|... .. .. ....|... .. .. ....|... .. .. ....|... .. .. ....|... .. .. ....|... .. .. ....|... .. .. ....|... .. .. ....|... .. .. ....|... .. .. ....|... .. .. ....|... .. .. ....|... .. .. ....|... .. .. ....
1D |... .. .. ....|... .. .. ....|... .. .. ....|... .. .. ....|... .. .. ....|... .. .. ....|... .. .. ....|... .. .. ....|... .. .. ....|... .. .. ....|... .. .. ....|... .. .. ....|... .. .. ....|... .. .. ....|... .. .. ....|... .. .. ....
1E |... .. .. ....|... .. .. ....|... .. .. ....|... .. .. ....|... .. .. ....|... .. .. ....|... .. .. ....|... .. .. ....|... .. .. ....|... .. .. ....|... .. .. ....|... .. .. ....|... .. .. ....|... .. .. ....|... .. .. ....|... .. .. ....
1F |... .. .. ....|... .. .. ....|... .. .. ....|... .. .. ....|... .. .. ....|... .. .. ....|... .. .. ....|... .. .. ....|... .. .. ....|... .. .. ....|... .. .. ....|... .. .. ....|... .. .. ....|... .. .. ....|... .. .. ....|... .. .. ....
----- ORDER 03
00 |C-2 .. .. ....|G#2 .. .. ....|C-3 .. .. ....|C-5 .. .. ....|... .. .. ....|... .. .. ....|... .. .. ....|... .. .. ....|... .. .. ....|... .. .. ....|... .. .. ....|... .. .. ....|... .. .. ....|... .. .. ....|... .. .. ....|... .. .. ....
01 |... .. .. ....|... .. .. ....|... .. .. ....|... .. .. ....|... .. .. ....|... .. .. ....|... .. .. ....|... .. .. ....|... .. .. ....|... .. .. ....|... .. .. ....|... .. .. ....|... .. .. ....|... .. .. ....|... .. .. ....|... .. .. ....
02 |... .. .. ....|... .. .. ....|... .. .. ....|A#4 .. .. ....|... .. .. ....|... .. .. ....|... .. .. ....|... .. .. ....|... .. .. ....|... .. .. ....|... .. .. ....|... .. .. ....|... .. .. ....|... .. .. ....|... .. .. ....|... .. .. ....
03 |... .. .. ....|... .. .. ....|... .. .. ....|... .. .. ....|... .. .. ....|... .. .. ....|... .. .. ....|... .. .. ....|... .. .. ....|... .. .. ....|... .. .. ....|... .. .. ....|... .. .. ....|... .. .. ....|... .. .. ....|... .. .. ....
04 |... .. .. ....|... .. .. ....|... .. .. ....|G-4 .. .. ....|... .. .. ....|... .. .. ....|... .. .. ....|... .. .. ....|... .. .. ....|... .. .. ....|... .. .. ....|... .. .. ....|... .. .. ....|... .. .. ....|... .. .. ....|... .. .. ....
05 |... .. .. ....|... .. .. ....|... .. .. ....|... .. .. ....|... .. .. ....|... .. .. ....|... .. .. ....|... .. .. ....|... .. .. ....|... .. .. ....|... .. .. ....|... .. .. ....|... .. .. ....|... .. .. ....|... .. .. ....|... .. .. ....
06 |... .. .. ....|... .. .. ....|... .. .. ....|A#4 .. .. ....|... .. .. ....|... .. .. ....|... .. .. ....|... .. .. ....|... .. .. ....|... .. .. ....|... .. .. ....|... .. .. ....|... .. .. ....|... .. .. ....|... .. .. ....|... .. .. ....
07 |... .. .. ....|... .. .. ....|... .. .. ....|... .. .. ....|... .. .. ....|... .. .. ....|... .. .. ....|... .. .. ....|... .. .. ....|... .. .. ....|... .. .. ....|... .. .. ....|... .. .. ....|... .. .. ....|... .. .. ....|... .. .. ....
08 |... .. .. ....|... .. .. ....|... .. .. ....|F-4 .. .. ....|... .. .. ....|... .. .. ....|... .. .. ....|... .. .. ....|... .. .. ....|... .. .. ....|... .. .. ....|... .. .. ....|... .. .. ....|... .. .. ....|... .. .. ....|... .. .. ....
09 |... .. .. ....|... .. .. ....|... .. .. ....|... .. .. ....|... .. .. ....|... .. .. ....|... .. .. ....|... .. .. ....|... .. .. ....|... .. .. ....|... .. .. ....|... .. .. ....|... .. .. ....|... .. .. ....|... .. .. ....|... .. .. ....
0A |... .. .. ....|... .. .. ....|... .. .. ....|... .. .. ....|... .. .. ....|... .. .. ....|... .. .. ....|... .. .. ....|... .. .. ....|... .. .. ....|... .. .. ....|... .. .. ....|... .. .. ....|... .. .. ....|... .. .. ....|... .. .. ....
0B |... .. .. ....|... .. .. ....|... .. .. ....|... .. .. ....|... .. .. ....|... .. .. ....|... .. .. ....|... .. .. ....|... .. .. ....|... .. .. ....|... .. .. ....|... .. .. ....|... .. .. ....|... .. .. ....|... .. .. ....|... .. .. ....
0C |... .. .. ....|... .. .. ....|... .. .. ....|... .. .. ....|... .. .. ....|... .. .. ....|... .. .. ....|... .. .. ....|... .. .. ....|... .. .. ....|... .. .. ....|... .. .. ....|... .. .. ....|... .. .. ....|... .. .. ....|... .. .. ....
0D |... .. .. ....|... .. .. ....|... .. .. ....|... .. .. ....|... .. .. ....|... .. .. ....|... .. .. ....|... .. .. ....|... .. .. ....|... .. .. ....|... .. .. ....|... .. .. ....|... .. .. ....|... .. .. ....|... .. .. ....|... .. .. ....
0E |... .. .. ....|... .. .. ....|... .. .. ....|... .. .. ....|... .. .. ....|... .. .. ....|... .. .. ....|... .. .. ....|... .. .. ....|... .. .. ....|... .. .. ....|... .. .. ....|... .. .. ....|... .. .. ....|... .. .. ....|... .. .. ....
0F |... .. .. ....|... .. .. ....|... .. .. ....|... .. .. ....|... .. .. ....|... .. .. ....|... .. .. ....|... .. .. ....|... .. .. ....|... .. .. ....|... .. .. ....|... .. .. ....|... .. .. ....|... .. .. ....|... .. .. ....|... .. .. ....
10 |C-2 .. .. ....|G#2 .. .. ....|C-3 .. .. ....|F-4 .. .. ....|... .. .. ....|... .. .. ....|... .. .. ....|... .. .. ....|... .. .. ....|... .. .. ....|... .. .. ....|... .. .. ....|... .. .. ....|... .. .. ....|... .. .. ....|... .. .. ....
11 |... .. .. ....|... .. .. ....|... .. .. ....|... .. .. ....|... .. .. ....|... .. .. ....|... .. .. ....|... .. .. ....|... .. .. ....|... .. .. ....|... .. .. ....|... .. .. ....|... .. .. ....|... .. .. ....|... .. .. ....|... .. .. ....
12 |... .. .. ....|... .. .. ....|... .. .. ....|D#4 .. .. ....|... .. .. ....|... .. .. ....|... .. .. ....|... .. .. ....|... .. .. ....|... .. .. ....|... .. .. ....|... .. .. ....|... .. .. ....|... .. .. ....|... .. .. ....|... .. .. ....
13 |... .. .. ....|... .. .. ....|... .. .. ....|... .. .. ....|... .. .. ....|... .. .. ....|... .. .. ....|... .. .. ....|... .. .. ....|... .. .. ....|... .. .. ....|... .. .. ....|... .. .. ....|... .. .. ....|... .. .. ....|... .. .. ....
14 |... .. .. ....|... .. .. ....|... .. .. ....|C-4 .. .. ....|... .. .. ....|... .. .. ....|... .. .. ....|... .. .. ....|... .. .. ....|... .. .. ....|... .. .. ....|... .. .. ....|... .. .. ....|... .. .. ....|... .. .. ....|... .. .. ....
15 |... .. .. ....|... .. .. ....|... .. .. ....|... .. .. ....|... .. .. ....|... .. .. ....|... .. .. ....|... .. .. ....|... .. .. ....|... .. .. ....|... .. .. ....|... .. .. ....|... .. .. ....|... .. .. ....|... .. .. ....|... .. .. ....
16 |... .. .. ....|... .. .. ....|... .. .. ....|D#4 .. .. ....|... .. .. ....|... .. .. ....|... .. .. ....|... .. .. ....|... .. .. ....|... .. .. ....|... .. .. ....|... .. .. ....|... .. .. ....|... .. .. ....|... .. .. ....|... .. .. ....
17 |... .. .. ....|... .. .. ....|... .. .. ....|... .. .. ....|... .. .. ....|... .. .. ....|... .. .. ....|... .. .. ....|... .. .. ....|... .. .. ....|... .. .. ....|... .. .. ....|... .. .. ....|... .. .. ....|... .. .. ....|... .. .. ....
18 |... .. .. ....|... .. .. ....|... .. .. ....|G-4 .. .. ....|... .. .. ....|... .. .. ....|... .. .. ....|... .. .. ....|... .. .. ....|... .. .. ....|... .. .. ....|... .. .. ....|... .. .. ....|... .. .. ....|... .. .. ....|... .. .. ....
19 |... .. .. ....|... .. .. ....|... .. .. ....|... .. .. ....|... .. .. ....|... .. .. ....|... .. .. ....|... .. .. ....|... .. .. ....|... .. .. ....|... .. .. ....|... .. .. ....|... .. .. ....|... .. .. ....|... .. .. ....|... .. .. ....
1A |... .. .. ....|... .. .. ....|... .. .. ....|... .. .. ....|... .. .. ....|... .. .. ....|... .. .. ....|... .. .. ....|... .. .. ....|... .. .. ....|... .. .. ....|... .. .. ....|... .. .. ....|... .. .. ....|... .. .. ....|... .. .. ....
1B |... .. .. ....|... .. .. ....|... .. .. ....|... .. .. ....|... .. .. ....|... .. .. ....|... .. .. ....|... .. .. ....|... .. .. ....|... .. .. ....|... .. .. ....|... .. .. ....|... .. .. ....|... .. .. ....|... .. .. ....|... .. .. ....
1C |... .. .. ....|... .. .. ....|... .. .. ....|... .. .. ....|... .. .. ....|... .. .. ....|... .. .. ....|... .. .. ....|... .. .. ....|... .. .. ....|... .. .. ....|... .. .. ....|... .. .. ....|... .. .. ....|... .. .. ....|... .. .. ....
1D |... .. .. ....|... .. .. ....|... .. .. ....|... .. .. ....|... .. .. ....|... .. .. ....|... .. .. ....|... .. .. ....|... .. .. ....|... .. .. ....|... .. .. ....|... .. .. ....|... .. .. ....|... .. .. ....|... .. .. ....|... .. .. ....
1E |... .. .. ....|... .. .. ....|... .. .. ....|... .. .. ....|... .. .. ....|... .. .. ....|... .. .. ....|... .. .. ....|... .. .. ....|... .. .. ....|... .. .. ....|... .. .. ....|... .. .. ....|... .. .. ....|... .. .. ....|... .. .. ....
1F |... .. .. ....|... .. .. ....|... .. .. ....|... .. .. ....|... .. .. ....|... .. .. ....|... .. .. ....|... .. .. ....|... .. .. ....|... .. .. ....|... .. .. ....|... .. .. ....|... .. .. ....|... .. .. ....|... .. .. ....|... .. .. ....
----- ORDER 04
00 |D#2 .. .. ....|G#2 .. .. ....|C-3 .. .. ....|G#4 .. .. ....|... .. .. ....|... .. .. ....|... .. .. ....|... .. .. ....|... .. .. ....|... .. .. ....|... .. .. ....|... .. .. ....|... .. .. ....|... .. .. ....|... .. .. ....|... .. .. ....
01 |... .. .. ....|... .. .. ....|... .. .. ....|... .. .. ....|... .. .. ....|... .. .. ....|... .. .. ....|... .. .. ....|... .. .. ....|... .. .. ....|... .. .. ....|... .. .. ....|... .. .. ....|... .. .. ....|... .. .. ....|... .. .. ....
02 |... .. .. ....|... .. .. ....|... .. .. ....|... .. .. ....|... .. .. ....|... .. .. ....|... .. .. ....|... .. .. ....|... .. .. ....|... .. .. ....|... .. .. ....|... .. .. ....|... .. .. ....|... .. .. ....|... .. .. ....|... .. .. ....
03 |... .. .. ....|... .. .. ....|... .. .. ....|... .. .. ....|... .. .. ....|... .. .. ....|... .. .. ....|... .. .. ....|... .. .. ....|... .. .. ....|... .. .. ....|... .. .. ....|... .. .. ....|... .. .. ....|... .. .. ....|... .. .. ....
04 |... .. .. ....|... .. .. ....|... .. .. ....|G-4 .. .. ....|... .. .. ....|... .. .. ....|... .. .. ....|... .. .. ....|... .. .. ....|... .. .. ....|... .. .. ....|... .. .. ....|... .. .. ....|... .. .. ....|... .. .. ....|... .. .. ....
05 |... .. .. ....|... .. .. ....|... .. .. ....|... .. .. ....|... .. .. ....|... .. .. ....|... .. .. ....|... .. .. ....|... .. .. ....|... .. .. ....|... .. .. ....|... .. .. ....|... .. .. ....|... .. .. ....|... .. .. ....|... .. .. ....
06 |... .. .. ....|... .. .. ....|... .. .. ....|G#4 .. .. ....|... .. .. ....|... .. .. ....|... .. .. ....|... .. .. ....|... .. .. ....|... .. .. ....|... .. .. ....|... .. .. ....|... .. .. ....|... .. .. ....|... .. .. ....|... .. .. ....
07 |... .. .. ....|... .. .. ....|... .. .. ....|... .. .. ....|... .. .. ....|... .. .. ....|... .. .. ....|... .. .. ....|... .. .. ....|... .. .. ....|... .. .. ....|... .. .. ....|... .. .. ....|... .. .. ....|... .. .. ....|... .. .. ....
08 |... .. .. ....|... .. .. ....|... .. .. ....|... .. .. ....|... .. .. ....|... .. .. ....|... .. .. ....|... .. .. ....|... .. .. ....|... .. .. ....|... .. .. ....|... .. .. ....|... .. .. ....|... .. .. ....|... .. .. ....|... .. .. ....
09 |... .. .. ....|... .. .. ....|... .. .. ....|... .. .. ....|... .. .. ....|... .. .. ....|... .. .. ....|... .. .. ....|... .. .. ....|... .. .. ....|... .. .. ....|... .. .. ....|... .. .. ....|... .. .. ....|... .. .. ....|... .. .. ....
0A |... .. .. ....|... .. .. ....|... .. .. ....|G-4 .. .. ....|... .. .. ....|... .. .. ....|... .. .. ....|... .. .. ....|... .. .. ....|... .. .. ....|... .. .. ....|... .. .. ....|... .. .. ....|... .. .. ....|... .. .. ....|... .. .. ....
0B |... .. .. ....|... .. .. ....|... .. .. ....|... .. .. ....|... .. .. ....|... .. .. ....|... .. .. ....|... .. .. ....|... .. .. ....|... .. .. ....|... .. .. ....|... .. .. ....|... .. .. ....|... .. .. ....|... .. .. ....|... .. .. ....
0C |... .. .. ....|... .. .. ....|... .. .. ....|G#4 .. .. ....|... .. .. ....|... .. .. ....|... .. .. ....|... .. .. ....|... .. .. ....|... .. .. ....|... .. .. ....|... .. .. ....|... .. .. ....|... .. .. ....|... .. .. ....|... .. .. ....
0D |... .. .. ....|... .. .. ....|... .. .. ....|... .. .. ....|... .. .. ....|... .. .. ....|... .. .. ....|... .. .. ....|... .. .. ....|... .. .. ....|... .. .. ....|... .. .. ....|... .. .. ....|... .. .. ....|... .. .. ....|... .. .. ....
0E |... .. .. ....|... .. .. ....|... .. .. ....|A#4 .. .. ....|... .. .. ....|... .. .. ....|... .. .. ....|... .. .. ....|... .. .. ....|... .. .. ....|... .. .. ....|... .. .. ....|... .. .. ....|... .. .. ....|... .. .. ....|... .. .. ....
0F |... .. .. ....|... .. .. ....|... .. .. ....|... .. .. ....|... .. .. ....|... .. .. ....|... .. .. ....|... .. .. ....|... .. .. ....|... .. .. ....|... .. .. ....|... .. .. ....|... .. .. ....|... .. .. ....|... .. .. ....|... .. .. ....
10 |D#2 .. .. ....|G#2 .. .. ....|C-3 .. .. ....|C-5 .. .. ....|... .. .. ....|... .. .. ....|... .. .. ....|... .. .. ....|... .. .. ....|... .. .. ....|... .. .. ....|... .. .. ....|... .. .. ....|... .. .. ....|... .. .. ....|... .. .. ....
11 |... .. .. ....|... .. .. ....|... .. .. ....|... .. .. ....|... .. .. ....|... .. .. ....|... .. .. ....|... .. .. ....|... .. .. ....|... .. .. ....|... .. .. ....|... .. .. ....|... .. .. ....|... .. .. ....|... .. .. ....|... .. .. ....
12 |... .. .. ....|... .. .. ....|... .. .. ....|G-4 .. .. ....|... .. .. ....|... .. .. ....|... .. .. ....|... .. .. ....|... .. .. ....|... .. .. ....|... .. .. ....|... .. .. ....|... .. .. ....|... .. .. ....|... .. .. ....|... .. .. ....
13 |... .. .. ....|... .. .. ....|... .. .. ....|... .. .. ....|... .. .. ....|... .. .. ....|... .. .. ....|... .. .. ....|... .. .. ....|... .. .. ....|... .. .. ....|... .. .. ....|... .. .. ....|... .. .. ....|... .. .. ....|... .. .. ....
14 |... .. .. ....|... .. .. ....|... .. .. ....|D-5 .. .. ....|... .. .. ....|... .. .. ....|... .. .. ....|... .. .. ....|... .. .. ....|... .. .. ....|... .. .. ....|... .. .. ....|... .. .. ....|... .. .. ....|... .. .. ....|... .. .. ....
15 |... .. .. ....|... .. .. ....|... .. .. ....|... .. .. ....|... .. .. ....|... .. .. ....|... .. .. ....|... .. .. ....|... .. .. ....|... .. .. ....|... .. .. ....|... .. .. ....|... .. .. ....|... .. .. ....|... .. .. ....|... .. .. ....
16 |... .. .. ....|... .. .. ....|... .. .. ....|G-4 .. .. ....|... .. .. ....|... .. .. ....|... .. .. ....|... .. .. ....|... .. .. ....|... .. .. ....|... .. .. ....|... .. .. ....|... .. .. ....|... .. .. ....|... .. .. ....|... .. .. ....
17 |... .. .. ....|... .. .. ....|... .. .. ....|... .. .. ....|... .. .. ....|... .. .. ....|... .. .. ....|... .. .. ....|... .. .. ....|... .. .. ....|... .. .. ....|... .. .. ....|... .. .. ....|... .. .. ....|... .. .. ....|... .. .. ....
18 |... .. .. ....|... .. .. ....|... .. .. ....|D#5 .. .. ....|... .. .. ....|... .. .. ....|... .. .. ....|... .. .. ....|... .. .. ....|... .. .. ....|... .. .. ....|... .. .. ....|... .. .. ....|... .. .. ....|... .. .. ....|... .. .. ....
19 |... .. .. ....|... .. .. ....|... .. .. ....|... .. .. ....|... .. .. ....|... .. .. ....|... .. .. ....|... .. .. ....|... .. .. ....|... .. .. ....|... .. .. ....|... .. .. ....|... .. .. ....|... .. .. ....|... .. .. ....|... .. .. ....
1A |... .. .. ....|... .. .. ....|... .. .. ....|... .. .. ....|... .. .. ....|... .. .. ....|... .. .. ....|... .. .. ....|... .. .. ....|... .. .. ....|... .. .. ....|... .. .. ....|... .. .. ....|... .. .. ....|... .. .. ....|... .. .. ....
1B |... .. .. ....|... .. .. ....|... .. .. ....|... .. .. ....|... .. .. ....|... .. .. ....|... .. .. ....|... .. .. ....|... .. .. ....|... .. .. ....|... .. .. ....|... .. .. ....|... .. .. ....|... .. .. ....|... .. .. ....|... .. .. ....
1C |... .. .. ....|... .. .. ....|... .. .. ....|... .. .. ....|... .. .. ....|... .. .. ....|... .. .. ....|... .. .. ....|... .. .. ....|... .. .. ....|... .. .. ....|... .. .. ....|... .. .. ....|... .. .. ....|... .. .. ....|... .. .. ....
1D |... .. .. ....|... .. .. ....|... .. .. ....|... .. .. ....|... .. .. ....|... .. .. ....|... .. .. ....|... .. .. ....|... .. .. ....|... .. .. ....|... .. .. ....|... .. .. ....|... .. .. ....|... .. .. ....|... .. .. ....|... .. .. ....
1E |... .. .. ....|... .. .. ....|... .. .. ....|... .. .. ....|... .. .. ....|... .. .. ....|... .. .. ....|... .. .. ....|... .. .. ....|... .. .. ....|... .. .. ....|... .. .. ....|... .. .. ....|... .. .. ....|... .. .. ....|... .. .. ....
1F |... .. .. ....|... .. .. ....|... .. .. ....|... .. .. ....|... .. .. ....|... .. .. ....|... .. .. ....|... .. .. ....|... .. .. ....|... .. .. ....|... .. .. ....|... .. .. ....|... .. .. ....|... .. .. ....|... .. .. ....|... .. .. ....
----- ORDER 05
00 |C-2 00 73 ....|G-2 00 73 ....|C-3 00 73 ....|C-5 .. .. ....|... .. .. ....|... .. .. ....|... .. .. ....|... .. .. ....|... .. .. ....|... .. .. ....|... .. .. ....|... .. .. ....|... .. .. ....|... .. .. ....|... .. .. ....|... .. .. ....
01 |... .. .. ....|... .. .. ....|... .. .. ....|... .. .. ....|... .. .. ....|... .. .. ....|... .. .. ....|... .. .. ....|... .. .. ....|... .. .. ....|... .. .. ....|... .. .. ....|... .. .. ....|... .. .. ....|... .. .. ....|... .. .. ....
02 |... .. .. ....|... .. .. ....|... .. .. ....|A#4 .. .. ....|... .. .. ....|... .. .. ....|... .. .. ....|... .. .. ....|... .. .. ....|... .. .. ....|... .. .. ....|... .. .. ....|... .. .. ....|... .. .. ....|... .. .. ....|... .. .. ....
03 |... .. .. ....|... .. .. ....|... .. .. ....|... .. .. ....|... .. .. ....|... .. .. ....|... .. .. ....|... .. .. ....|... .. .. ....|... .. .. ....|... .. .. ....|... .. .. ....|... .. .. ....|... .. .. ....|... .. .. ....|... .. .. ....
04 |... .. .. ....|... .. .. ....|... .. .. ....|G-4 .. .. ....|... .. .. ....|... .. .. ....|... .. .. ....|... .. .. ....|... .. .. ....|... .. .. ....|... .. .. ....|... .. .. ....|... .. .. ....|... .. .. ....|... .. .. ....|... .. .. ....
05 |... .. .. ....|... .. .. ....|... .. .. ....|... .. .. ....|... .. .. ....|... .. .. ....|... .. .. ....|... .. .. ....|... .. .. ....|... .. .. ....|... .. .. ....|... .. .. ....|... .. .. ....|... .. .. ....|... .. .. ....|... .. .. ....
06 |... .. .. ....|... .. .. ....|... .. .. ....|A#4 .. .. ....|... .. .. ....|... .. .. ....|... .. .. ....|... .. .. ....|... .. .. ....|... .. .. ....|... .. .. ....|... .. .. ....|... .. .. ....|... .. .. ....|... .. .. ....|... .. .. ....
07 |... .. .. ....|... .. .. ....|... .. .. ....|... .. .. ....|... .. .. ....|... .. .. ....|... .. .. ....|... .. .. ....|... .. .. ....|... .. .. ....|... .. .. ....|... .. .. ....|... .. .. ....|... .. .. ....|... .. .. ....|... .. .. ....
08 |... .. .. ....|... .. .. ....|... .. .. ....|F-5 .. .. ....|... .. .. ....|... .. .. ....|... .. .. ....|... .. .. ....|... .. .. ....|... .. .. ....|... .. .. ....|... .. .. ....|... .. .. ....|... .. .. ....|... .. .. ....|... .. .. ....
09 |... .. .. ....|... .. .. ....|... .. .. ....|... .. .. ....|... .. .. ....|... .. .. ....|... .. .. ....|... .. .. ....|... .. .. ....|... .. .. ....|... .. .. ....|... .. .. ....|... .. .. ....|... .. .. ....|... .. .. ....|... .. .. ....
0A |... .. .. ....|... .. .. ....|... .. .. ....|G-5 .. .. ....|... .. .. ....|... .. .. ....|... .. .. ....|... .. .. ....|... .. .. ....|... .. .. ....|... .. .. ....|... .. .. ....|... .. .. ....|... .. .. ....|... .. .. ....|... .. .. ....
0B |... .. .. ....|... .. .. ....|... .. .. ....|... .. .. ....|... .. .. ....|... .. .. ....|... .. .. ....|... .. .. ....|... .. .. ....|... .. .. ....|... .. .. ....|... .. .. ....|... .. .. ....|... .. .. ....|... .. .. ....|... .. .. ....
0C |... .. .. ....|... .. .. ....|... .. .. ....|D-5 .. .. ....|... .. .. ....|... .. .. ....|... .. .. ....|... .. .. ....|... .. .. ....|... .. .. ....|... .. .. ....|... .. .. ....|... .. .. ....|... .. .. ....|... .. .. ....|... .. .. ....
0D |... .. .. ....|... .. .. ....|... .. .. ....|... .. .. ....|... .. .. ....|... .. .. ....|... .. .. ....|... .. .. ....|... .. .. ....|... .. .. ....|... .. .. ....|... .. .. ....|... .. .. ....|... .. .. ....|... .. .. ....|... .. .. ....
0E |... .. .. ....|... .. .. ....|... .. .. ....|A#4 .. .. ....|... .. .. ....|... .. .. ....|... .. .. ....|... .. .. ....|... .. .. ....|... .. .. ....|... .. .. ....|... .. .. ....|... .. .. ....|... .. .. ....|... .. .. ....|... .. .. ....
0F |... .. .. ....|... .. .. ....|... .. .. ....|... .. .. ....|... .. .. ....|... .. .. ....|... .. .. ....|... .. .. ....|... .. .. ....|... .. .. ....|... .. .. ....|... .. .. ....|... .. .. ....|... .. .. ....|... .. .. ....|... .. .. ....
10 |C-2 .. .. ....|G-2 .. .. ....|C-3 .. .. ....|C-5 .. .. ....|... .. .. ....|... .. .. ....|... .. .. ....|... .. .. ....|... .. .. ....|... .. .. ....|... .. .. ....|... .. .. ....|... .. .. ....|... .. .. ....|... .. .. ....|... .. .. ....
11 |... .. .. ....|... .. .. ....|... .. .. ....|... .. .. ....|... .. .. ....|... .. .. ....|... .. .. ....|... .. .. ....|... .. .. ....|... .. .. ....|... .. .. ....|... .. .. ....|... .. .. ....|... .. .. ....|... .. .. ....|... .. .. ....
12 |... .. .. ....|... .. .. ....|... .. .. ....|... .. .. ....|... .. .. ....|... .. .. ....|... .. .. ....|... .. .. ....|... .. .. ....|... .. .. ....|... .. .. ....|... .. .. ....|... .. .. ....|... .. .. ....|... .. .. ....|... .. .. ....
13 |... .. .. ....|... .. .. ....|... .. .. ....|... .. .. ....|... .. .. ....|... .. .. ....|... .. .. ....|... .. .. ....|... .. .. ....|... .. .. ....|... .. .. ....|... .. .. ....|... .. .. ....|... .. .. ....|... .. .. ....|... .. .. ....
14 |... .. .. ....|... .. .. ....|... .. .. ....|... .. .. ....|... .. .. ....|... .. .. ....|... .. .. ....|... .. .. ....|... .. .. ....|... .. .. ....|... .. .. ....|... .. .. ....|... .. .. ....|... .. .. ....|... .. .. ....|... .. .. ....
15 |... .. .. ....|... .. .. ....|... .. .. ....|... .. .. ....|... .. .. ....|... .. .. ....|... .. .. ....|... .. .. ....|... .. .. ....|... .. .. ....|... .. .. ....|... .. .. ....|... .. .. ....|... .. .. ....|... .. .. ....|... .. .. ....
16 |... .. .. ....|... .. .. ....|... .. .. ....|... .. .. ....|... .. .. ....|... .. .. ....|... .. .. ....|... .. .. ....|... .. .. ....|... .. .. ....|... .. .. ....|... .. .. ....|... .. .. ....|... .. .. ....|... .. .. ....|... .. .. ....
17 |... .. .. ....|... .. .. ....|... .. .. ....|... .. .. ....|... .. .. ....|... .. .. ....|... .. .. ....|... .. .. ....|... .. .. ....|... .. .. ....|... .. .. ....|... .. .. ....|... .. .. ....|... .. .. ....|... .. .. ....|... .. .. ....
18 |... .. .. ....|... .. .. ....|... .. .. ....|... .. .. ....|... .. .. ....|... .. .. ....|... .. .. ....|... .. .. ....|... .. .. ....|... .. .. ....|... .. .. ....|... .. .. ....|... .. .. ....|... .. .. ....|... .. .. ....|... .. .. ....
19 |... .. .. ....|... .. .. ....|... .. .. ....|... .. .. ....|... .. .. ....|... .. .. ....|... .. .. ....|... .. .. ....|... .. .. ....|... .. .. ....|... .. .. ....|... .. .. ....|... .. .. ....|... .. .. ....|... .. .. ....|... .. .. ....
1A |... .. .. ....|... .. .. ....|... .. .. ....|... .. .. ....|... .. .. ....|... .. .. ....|... .. .. ....|... .. .. ....|... .. .. ....|... .. .. ....|... .. .. ....|... .. .. ....|... .. .. ....|... .. .. ....|... .. .. ....|... .. .. ....
1B |... .. .. ....|... .. .. ....|... .. .. ....|... .. .. ....|... .. .. ....|... .. .. ....|... .. .. ....|... .. .. ....|... .. .. ....|... .. .. ....|... .. .. ....|... .. .. ....|... .. .. ....|... .. .. ....|... .. .. ....|... .. .. ....
1C |... .. .. ....|... .. .. ....|... .. .. ....|... .. .. ....|... .. .. ....|... .. .. ....|... .. .. ....|... .. .. ....|... .. .. ....|... .. .. ....|... .. .. ....|... .. .. ....|... .. .. ....|... .. .. ....|... .. .. ....|... .. .. ....
1D |... .. .. ....|... .. .. ....|... .. .. ....|... .. .. ....|... .. .. ....|... .. .. ....|... .. .. ....|... .. .. ....|... .. .. ....|... .. .. ....|... .. .. ....|... .. .. ....|... .. .. ....|... .. .. ....|... .. .. ....|... .. .. ....
1E |... .. .. ....|... .. .. ....|... .. .. ....|... .. .. ....|... .. .. ....|... .. .. ....|... .. .. ....|... .. .. ....|... .. .. ....|... .. .. ....|... .. .. ....|... .. .. ....|... .. .. ....|... .. .. ....|... .. .. ....|... .. .. ....
1F |... .. .. ....|... .. .. ....|... .. .. ....|... .. .. ....|... .. .. ....|... .. .. ....|... .. .. ....|... .. .. ....|... .. .. ....|... .. .. ....|... .. .. ....|... .. .. ....|... .. .. ....|... .. .. ....|... .. .. ....|... .. .. ....
----- ORDER 06
00 |D#2 .. .. ....|G#2 .. .. ....|C-3 .. .. ....|C-5 01 72 ....|... .. .. ....|OFF .. .. ....|... .. .. ....|... .. .. ....|... .. .. ....|... .. .. ....|... .. .. ....|C-3 01 .. ....|... .. .. ....|... .. .. ....|... .. .. ....|... .. .. ....
01 |... .. .. ....|... .. .. ....|... .. .. ....|... .. .. ....|... .. .. ....|... .. .. ....|... .. .. ....|... .. .. ....|... .. .. ....|... .. .. ....|... .. .. ....|... .. .. ....|C-3 .. .. ....|... .. .. ....|... .. .. ....|... .. .. ....
02 |... .. .. ....|... .. .. ....|... .. .. ....|... .. .. ....|... .. .. ....|G#2 02 7C ....|... .. .. ....|... .. .. ....|... .. .. ....|... .. .. ....|... .. .. ....|C-3 00 .. ....|... .. .. ....|... .. .. ....|... .. .. ....|... .. .. ....
03 |... .. .. ....|... .. .. ....|... .. .. ....|... .. .. ....|... .. .. ....|... .. .. ....|... .. .. ....|... .. .. ....|... .. .. ....|... .. .. ....|... .. .. ....|... .. .. ....|... .. .. ....|... .. .. ....|... .. .. ....|... .. .. ....
04 |... .. .. ....|... .. .. ....|... .. .. ....|A#4 .. .. ....|... .. .. ....|OFF .. .. ....|... .. .. ....|... .. .. ....|... .. .. ....|... .. .. ....|C-3 00 .. ....|... .. .. ....|C-3 .. .. ....|... .. .. ....|... .. .. ....|... .. .. ....
05 |... .. .. ....|... .. .. ....|... .. .. ....|... .. .. ....|... .. .. ....|... .. .. ....|... .. .. ....|... .. .. ....|... .. .. ....|... .. .. ....|... .. .. ....|... .. .. ....|C-3 .. .. ....|... .. .. ....|... .. .. ....|... .. .. ....
06 |... .. .. ....|... .. .. ....|... .. .. ....|C-5 .. .. ....|... .. .. ....|G#2 .. .. ....|... .. .. ....|... .. .. ....|... .. .. ....|... .. .. ....|... .. .. ....|C-3 00 .. ....|... .. .. ....|... .. .. ....|... .. .. ....|... .. .. ....
07 |... .. .. ....|... .. .. ....|... .. .. ....|... .. .. ....|... .. .. ....|... .. .. ....|... .. .. ....|... .. .. ....|... .. .. ....|C-3 .. .. ....|... .. .. ....|... .. .. ....|... .. .. ....|... .. .. ....|... .. .. ....|... .. .. ....
08 |... .. .. ....|... .. .. ....|... .. .. ....|... .. .. ....|... .. .. ....|OFF .. .. ....|... .. .. ....|... .. .. ....|... .. .. ....|... .. .. ....|... .. .. ....|... .. .. ....|C-3 .. .. ....|... .. .. ....|... .. .. ....|... .. .. ....
09 |... .. .. ....|... .. .. ....|... .. .. ....|... .. .. ....|... .. .. ....|... .. .. ....|... .. .. ....|... .. .. ....|... .. .. ....|... .. .. ....|... .. .. ....|... .. .. ....|C-3 .. .. ....|... .. .. ....|... .. .. ....|... .. .. ....
0A |... .. .. ....|... .. .. ....|... .. .. ....|A#4 .. .. ....|... .. .. ....|G#2 .. .. ....|... .. .. ....|... .. .. ....|... .. .. ....|C-3 .. .. ....|... .. .. ....|C-3 00 .. ....|... .. .. ....|... .. .. ....|... .. .. ....|... .. .. ....
0B |... .. .. ....|... .. .. ....|... .. .. ....|... .. .. ....|... .. .. ....|... .. .. ....|... .. .. ....|... .. .. ....|... .. .. ....|... .. .. ....|... .. .. ....|... .. .. ....|... .. .. ....|... .. .. ....|... .. .. ....|... .. .. ....
0C |... .. .. ....|... .. .. ....|... .. .. ....|C-5 .. .. ....|... .. .. ....|OFF .. .. ....|... .. .. ....|... .. .. ....|... .. .. ....|... .. .. ....|C-3 .. .. ....|... .. .. ....|C-3 .. .. ....|... .. .. ....|... .. .. ....|... .. .. ....
0D |... .. .. ....|... .. .. ....|... .. .. ....|... .. .. ....|... .. .. ....|... .. .. ....|... .. .. ....|... .. .. ....|... .. .. ....|... .. .. ....|... .. .. ....|... .. .. ....|C-3 .. .. ....|... .. .. ....|... .. .. ....|... .. .. ....
0E |... .. .. ....|... .. .. ....|... .. .. ....|D-5 .. .. ....|... .. .. ....|G#2 .. .. ....|... .. .. ....|... .. .. ....|... .. .. ....|... .. .. ....|... .. .. ....|C-3 00 .. ....|... .. .. ....|... .. .. ....|... .. .. ....|... .. .. ....
0F |... .. .. ....|... .. .. ....|... .. .. ....|... .. .. ....|... .. .. ....|... .. .. ....|... .. .. ....|... .. .. ....|... .. .. ....|... .. .. ....|... .. .. ....|... .. .. ....|... .. .. ....|... .. .. ....|... .. .. ....|... .. .. ....
10 |D#2 .. .. ....|G#2 .. .. ....|C-3 .. .. ....|D#5 .. .. ....|... .. .. ....|OFF .. .. ....|... .. .. ....|... .. .. ....|... .. .. ....|C-3 .. .. ....|... .. .. ....|... .. .. ....|C-3 .. .. ....|... .. .. ....|... .. .. ....|... .. .. ....
11 |... .. .. ....|... .. .. ....|... .. .. ....|... .. .. ....|... .. .. ....|... .. .. ....|... .. .. ....|... .. .. ....|... .. .. ....|... .. .. ....|... .. .. ....|... .. .. ....|C-3 .. .. ....|... .. .. ....|... .. .. ....|... .. .. ....
12 |... .. .. ....|... .. .. ....|... .. .. ....|G-4 .. .. ....|... .. .. ....|G#2 .. .. ....|... .. .. ....|... .. .. ....|... .. .. ....|... .. .. ....|... .. .. ....|C-3 00 .. ....|... .. .. ....|... .. .. ....|... .. .. ....|... .. .. ....
13 |... .. .. ....|... .. .. ....|... .. .. ....|... .. .. ....|... .. .. ....|... .. .. ....|... .. .. ....|... .. .. ....|... .. .. ....|... .. .. ....|... .. .. ....|... .. .. ....|... .. .. ....|... .. .. ....|... .. .. ....|... .. .. ....
14 |... .. .. ....|... .. .. ....|... .. .. ....|D-5 .. .. ....|... .. .. ....|OFF .. .. ....|... .. .. ....|... .. .. ....|... .. .. ....|... .. .. ....|C-3 .. .. ....|... .. .. ....|C-3 .. .. ....|... .. .. ....|... .. .. ....|... .. .. ....
15 |... .. .. ....|... .. .. ....|... .. .. ....|... .. .. ....|... .. .. ....|... .. .. ....|... .. .. ....|... .. .. ....|... .. .. ....|... .. .. ....|... .. .. ....|... .. .. ....|C-3 .. .. ....|... .. .. ....|... .. .. ....|... .. .. ....
16 |... .. .. ....|... .. .. ....|... .. .. ....|G-4 .. .. ....|... .. .. ....|G#2 .. .. ....|... .. .. ....|... .. .. ....|... .. .. ....|... .. .. ....|... .. .. ....|C-3 00 .. ....|... .. .. ....|... .. .. ....|... .. .. ....|... .. .. ....
17 |... .. .. ....|... .. .. ....|... .. .. ....|... .. .. ....|... .. .. ....|... .. .. ....|... .. .. ....|... .. .. ....|... .. .. ....|C-3 .. .. ....|... .. .. ....|... .. .. ....|... .. .. ....|... .. .. ....|... .. .. ....|... .. .. ....
18 |... .. .. ....|... .. .. ....|... .. .. ....|C-5 .. .. ....|... .. .. ....|OFF .. .. ....|... .. .. ....|... .. .. ....|... .. .. ....|... .. .. ....|... .. .. ....|... .. .. ....|C-3 .. .. ....|... .. .. ....|... .. .. ....|... .. .. ....
19 |... .. .. ....|... .. .. ....|... .. .. ....|... .. .. ....|... .. .. ....|... .. .. ....|... .. .. ....|... .. .. ....|... .. .. ....|... .. .. ....|... .. .. ....|... .. .. ....|C-3 .. .. ....|... .. .. ....|... .. .. ....|... .. .. ....
1A |... .. .. ....|... .. .. ....|... .. .. ....|... .. .. ....|... .. .. ....|G#2 .. .. ....|... .. .. ....|... .. .. ....|... .. .. ....|C-3 .. .. ....|... .. .. ....|C-3 00 .. ....|... .. .. ....|... .. .. ....|... .. .. ....|... .. .. ....
1B |... .. .. ....|... .. .. ....|... .. .. ....|... .. .. ....|... .. .. ....|... .. .. ....|... .. .. ....|... .. .. ....|... .. .. ....|... .. .. ....|... .. .. ....|... .. .. ....|... .. .. ....|... .. .. ....|... .. .. ....|... .. .. ....
1C |... .. .. ....|... .. .. ....|... .. .. ....|... .. .. ....|... .. .. ....|OFF .. .. ....|... .. .. ....|... .. .. ....|... .. .. ....|... .. .. ....|C-3 .. .. ....|... .. .. ....|C-3 .. .. ....|... .. .. ....|... .. .. ....|... .. .. ....
1D |... .. .. ....|... .. .. ....|... .. .. ....|... .. .. ....|... .. .. ....|... .. .. ....|... .. .. ....|... .. .. ....|... .. .. ....|... .. .. ....|... .. .. ....|... .. .. ....|C-3 .. .. ....|... .. .. ....|... .. .. ....|... .. .. ....
1E |... .. .. ....|... .. .. ....|... .. .. ....|... .. .. ....|... .. .. ....|G#2 .. .. ....|... .. .. ....|... .. .. ....|... .. .. ....|C-3 .. .. ....|... .. .. ....|C-3 00 .. ....|... .. .. ....|... .. .. ....|... .. .. ....|... .. .. ....
1F |... .. .. ....|... .. .. ....|... .. .. ....|... .. .. ....|... .. .. ....|... .. .. ....|... .. .. ....|... .. .. ....|... .. .. ....|... .. .. ....|... .. .. ....|... .. .. ....|... .. .. ....|... .. .. ....|... .. .. ....|... .. .. ....
----- ORDER 07
00 |C-2 00 73 ....|G-2 00 73 ....|C-3 00 73 ....|C-5 .. .. ....|... .. .. ....|OFF .. .. ....|... .. .. ....|... .. .. ....|... .. .. ....|C-3 .. .. ....|... .. .. ....|... .. .. ....|C-3 .. .. ....|... .. .. ....|... .. .. ....|... .. .. ....
01 |... .. .. ....|... .. .. ....|... .. .. ....|... .. .. ....|... .. .. ....|... .. .. ....|... .. .. ....|... .. .. ....|... .. .. ....|... .. .. ....|... .. .. ....|... .. .. ....|C-3 .. .. ....|... .. .. ....|... .. .. ....|... .. .. ....
02 |... .. .. ....|... .. .. ....|... .. .. ....|A#4 .. .. ....|... .. .. ....|C-3 .. .. ....|... .. .. ....|... .. .. ....|... .. .. ....|... .. .. ....|... .. .. ....|C-3 00 .. ....|... .. .. ....|... .. .. ....|... .. .. ....|... .. .. ....
03 |... .. .. ....|... .. .. ....|... .. .. ....|... .. .. ....|... .. .. ....|... .. .. ....|... .. .. ....|... .. .. ....|... .. .. ....|... .. .. ....|... .. .. ....|... .. .. ....|... .. .. ....|... .. .. ....|... .. .. ....|... .. .. ....
04 |... .. .. ....|... .. .. ....|... .. .. ....|G-4 .. .. ....|... .. .. ....|OFF .. .. ....|... .. .. ....|... .. .. ....|... .. .. ....|... .. .. ....|C-3 .. .. ....|... .. .. ....|C-3 .. .. ....|... .. .. ....|... .. .. ....|... .. .. ....
05 |... .. .. ....|... .. .. ....|... .. .. ....|... .. .. ....|... .. .. ....|... .. .. ....|... .. .. ....|... .. .. ....|... .. .. ....|... .. .. ....|... .. .. ....|... .. .. ....|C-3 .. .. ....|... .. .. ....|... .. .. ....|... .. .. ....
06 |... .. .. ....|... .. .. ....|... .. .. ....|A#4 .. .. ....|... .. .. ....|C-3 .. .. ....|... .. .. ....|... .. .. ....|... .. .. ....|... .. .. ....|... .. .. ....|C-3 00 .. ....|... .. .. ....|... .. .. ....|... .. .. ....|... .. .. ....
07 |... .. .. ....|... .. .. ....|... .. .. ....|... .. .. ....|... .. .. ....|... .. .. ....|... .. .. ....|... .. .. ....|... .. .. ....|C-3 .. .. ....|... .. .. ....|... .. .. ....|... .. .. ....|... .. .. ....|... .. .. ....|... .. .. ....
08 |... .. .. ....|... .. .. ....|... .. .. ....|F-4 .. .. ....|... .. .. ....|OFF .. .. ....|... .. .. ....|... .. .. ....|... .. .. ....|... .. .. ....|... .. .. ....|... .. .. ....|C-3 .. .. ....|... .. .. ....|... .. .. ....|... .. .. ....
09 |... .. .. ....|... .. .. ....|... .. .. ....|... .. .. ....|... .. .. ....|... .. .. ....|... .. .. ....|... .. .. ....|... .. .. ....|... .. .. ....|... .. .. ....|... .. .. ....|C-3 .. .. ....|... .. .. ....|... .. .. ....|... .. .. ....
0A |... .. .. ....|... .. .. ....|... .. .. ....|... .. .. ....|... .. .. ....|C-3 .. .. ....|... .. .. ....|... .. .. ....|... .. .. ....|C-3 .. .. ....|... .. .. ....|C-3 00 .. ....|... .. .. ....|... .. .. ....|... .. .. ....|... .. .. ....
0B |... .. .. ....|... .. .. ....|... .. .. ....|... .. .. ....|... .. .. ....|... .. .. ....|... .. .. ....|... .. .. ....|... .. .. ....|... .. .. ....|... .. .. ....|... .. .. ....|... .. .. ....|... .. .. ....|... .. .. ....|... .. .. ....
0C |... .. .. ....|... .. .. ....|... .. .. ....|... .. .. ....|... .. .. ....|OFF .. .. ....|... .. .. ....|... .. .. ....|... .. .. ....|... .. .. ....|C-3 .. .. ....|... .. .. ....|C-3 .. .. ....|... .. .. ....|... .. .. ....|... .. .. ....
0D |... .. .. ....|... .. .. ....|... .. .. ....|... .. .. ....|... .. .. ....|... .. .. ....|... .. .. ....|... .. .. ....|... .. .. ....|... .. .. ....|... .. .. ....|... .. .. ....|C-3 .. .. ....|... .. .. ....|... .. .. ....|... .. .. ....
0E |... .. .. ....|... .. .. ....|... .. .. ....|... .. .. ....|... .. .. ....|C-3 .. .. ....|... .. .. ....|... .. .. ....|... .. .. ....|... .. .. ....|... .. .. ....|C-3 00 .. ....|... .. .. ....|... .. .. ....|... .. .. ....|... .. .. ....
0F |... .. .. ....|... .. .. ....|... .. .. ....|... .. .. ....|... .. .. ....|... .. .. ....|... .. .. ....|... .. .. ....|... .. .. ....|... .. .. ....|... .. .. ....|... .. .. ....|... .. .. ....|... .. .. ....|... .. .. ....|... .. .. ....
10 |C-2 .. .. ....|G-2 .. .. ....|C-3 .. .. ....|F-4 .. .. ....|... .. .. ....|OFF .. .. ....|... .. .. ....|... .. .. ....|... .. .. ....|C-3 .. .. ....|... .. .. ....|... .. .. ....|C-3 .. .. ....|... .. .. ....|... .. .. ....|... .. .. ....
11 |... .. .. ....|... .. .. ....|... .. .. ....|... .. .. ....|... .. .. ....|... .. .. ....|... .. .. ....|... .. .. ....|... .. .. ....|... .. .. ....|... .. .. ....|... .. .. ....|C-3 .. .. ....|... .. .. ....|... .. .. ....|... .. .. ....
12 |... .. .. ....|... .. .. ....|... .. .. ....|D#4 .. .. ....|... .. .. ....|C-3 .. .. ....|... .. .. ....|... .. .. ....|... .. .. ....|... .. .. ....|... .. .. ....|C-3 00 .. ....|... .. .. ....|... .. .. ....|... .. .. ....|... .. .. ....
13 |... .. .. ....|... .. .. ....|... .. .. ....|... .. .. ....|... .. .. ....|... .. .. ....|... .. .. ....|... .. .. ....|... .. .. ....|... .. .. ....|... .. .. ....|... .. .. ....|... .. .. ....|... .. .. ....|... .. .. ....|... .. .. ....
14 |... .. .. ....|... .. .. ....|... .. .. ....|C-4 .. .. ....|... .. .. ....|OFF .. .. ....|... .. .. ....|... .. .. ....|... .. .. ....|... .. .. ....|C-3 .. .. ....|... .. .. ....|C-3 .. .. ....|... .. .. ....|... .. .. ....|... .. .. ....
15 |... .. .. ....|... .. .. ....|... .. .. ....|... .. .. ....|... .. .. ....|... .. .. ....|... .. .. ....|... .. .. ....|... .. .. ....|... .. .. ....|... .. .. ....|... .. .. ....|C-3 .. .. ....|... .. .. ....|... .. .. ....|... .. .. ....
16 |... .. .. ....|... .. .. ....|... .. .. ....|D#4 .. .. ....|... .. .. ....|C-3 .. .. ....|... .. .. ....|... .. .. ....|... .. .. ....|... .. .. ....|... .. .. ....|C-3 00 .. ....|... .. .. ....|... .. .. ....|... .. .. ....|... .. .. ....
17 |... .. .. ....|... .. .. ....|... .. .. ....|... .. .. ....|... .. .. ....|... .. .. ....|... .. .. ....|... .. .. ....|... .. .. ....|C-3 .. .. ....|... .. .. ....|... .. .. ....|... .. .. ....|... .. .. ....|... .. .. ....|... .. .. ....
18 |... .. .. ....|... .. .. ....|... .. .. ....|G-4 .. .. ....|... .. .. ....|OFF .. .. ....|... .. .. ....|... .. .. ....|... .. .. ....|... .. .. ....|... .. .. ....|... .. .. ....|C-3 .. .. ....|... .. .. ....|... .. .. ....|... .. .. ....
19 |... .. .. ....|... .. .. ....|... .. .. ....|... .. .. ....|... .. .. ....|... .. .. ....|... .. .. ....|... .. .. ....|... .. .. ....|... .. .. ....|... .. .. ....|... .. .. ....|C-3 .. .. ....|... .. .. ....|... .. .. ....|... .. .. ....
1A |... .. .. ....|... .. .. ....|... .. .. ....|... .. .. ....|... .. .. ....|C-3 .. .. ....|... .. .. ....|... .. .. ....|... .. .. ....|C-3 .. .. ....|... .. .. ....|C-3 00 .. ....|... .. .. ....|... .. .. ....|... .. .. ....|... .. .. ....
1B |... .. .. ....|... .. .. ....|... .. .. ....|... .. .. ....|... .. .. ....|... .. .. ....|... .. .. ....|... .. .. ....|... .. .. ....|... .. .. ....|... .. .. ....|... .. .. ....|... .. .. ....|... .. .. ....|... .. .. ....|... .. .. ....
1C |... .. .. ....|... .. .. ....|... .. .. ....|... .. .. ....|... .. .. ....|OFF .. .. ....|... .. .. ....|... .. .. ....|... .. .. ....|... .. .. ....|C-3 .. .. ....|... .. .. ....|C-3 .. .. ....|... .. .. ....|... .. .. ....|... .. .. ....
1D |... .. .. ....|... .. .. ....|... .. .. ....|... .. .. ....|... .. .. ....|... .. .. ....|... .. .. ....|... .. .. ....|... .. .. ....|... .. .. ....|... .. .. ....|... .. .. ....|C-3 .. .. ....|... .. .. ....|... .. .. ....|... .. .. ....
1E |... .. .. ....|... .. .. ....|... .. .. ....|... .. .. ....|... .. .. ....|C-3 .. .. ....|... .. .. ....|... .. .. ....|... .. .. ....|C-3 .. .. ....|... .. .. ....|C-3 00 .. ....|... .. .. ....|... .. .. ....|... .. .. ....|... .. .. ....
1F |... .. .. ....|... .. .. ....|... .. .. ....|... .. .. ....|... .. .. ....|... .. .. ....|... .. .. ....|... .. .. ....|... .. .. ....|... .. .. ....|... .. .. ....|... .. .. ....|... .. .. ....|... .. .. ....|... .. .. ....|... .. .. ....
----- ORDER 08
00 |D#2 .. .. ....|G#2 .. .. ....|C-3 .. .. ....|G#4 .. .. ....|... .. .. ....|OFF .. .. ....|... .. .. ....|... .. .. ....|... .. .. ....|C-3 .. .. ....|... .. .. ....|... .. .. ....|C-3 .. .. ....|... .. .. ....|... .. .. ....|... .. .. ....
01 |... .. .. ....|... .. .. ....|... .. .. ....|... .. .. ....|... .. .. ....|... .. .. ....|... .. .. ....|... .. .. ....|... .. .. ....|... .. .. ....|... .. .. ....|... .. .. ....|C-3 .. .. ....|... .. .. ....|... .. .. ....|... .. .. ....
02 |... .. .. ....|... .. .. ....|... .. .. ....|... .. .. ....|... .. .. ....|G#2 02 7C ....|... .. .. ....|... .. .. ....|... .. .. ....|... .. .. ....|... .. .. ....|C-3 00 .. ....|... .. .. ....|... .. .. ....|... .. .. ....|... .. .. ....
03 |... .. .. ....|... .. .. ....|... .. .. ....|... .. .. ....|... .. .. ....|... .. .. ....|... .. .. ....|... .. .. ....|... .. .. ....|... .. .. ....|... .. .. ....|... .. .. ....|... .. .. ....|... .. .. ....|... .. .. ....|... .. .. ....
04 |... .. .. ....|... .. .. ....|... .. .. ....|G-4 .. .. ....|... .. .. ....|OFF .. .. ....|... .. .. ....|... .. .. ....|... .. .. ....|... .. .. ....|C-3 .. .. ....|... .. .. ....|C-3 .. .. ....|... .. .. ....|... .. .. ....|... .. .. ....
05 |... .. .. ....|... .. .. ....|... .. .. ....|... .. .. ....|... .. .. ....|... .. .. ....|... .. .. ....|... .. .. ....|... .. .. ....|... .. .. ....|... .. .. ....|... .. .. ....|C-3 .. .. ....|... .. .. ....|... .. .. ....|... .. .. ....
06 |... .. .. ....|... .. .. ....|... .. .. ....|G#4 .. .. ....|... .. .. ....|G#2 .. .. ....|... .. .. ....|... .. .. ....|... .. .. ....|... .. .. ....|... .. .. ....|C-3 00 .. ....|... .. .. ....|... .. .. ....|... .. .. ....|... .. .. ....
07 |... .. .. ....|... .. .. ....|... .. .. ....|... .. .. ....|... .. .. ....|... .. .. ....|... .. .. ....|... .. .. ....|... .. .. ....|C-3 .. .. ....|... .. .. ....|... .. .. ....|... .. .. ....|... .. .. ....|... .. .. ....|... .. .. ....
08 |... .. .. ....|... .. .. ....|... .. .. ....|... .. .. ....|... .. .. ....|OFF .. .. ....|... .. .. ....|... .. .. ....|... .. .. ....|... .. .. ....|... .. .. ....|... .. .. ....|C-3 .. .. ....|... .. .. ....|... .. .. ....|... .. .. ....
09 |... .. .. ....|... .. .. ....|... .. .. ....|... .. .. ....|... .. .. ....|... .. .. ....|... .. .. ....|... .. .. ....|... .. .. ....|... .. .. ....|... .. .. ....|... .. .. ....|C-3 .. .. ....|... .. .. ....|... .. .. ....|... .. .. ....
0A |... .. .. ....|... .. .. ....|... .. .. ....|G-4 .. .. ....|... .. .. ....|G#2 .. .. ....|... .. .. ....|... .. .. ....|... .. .. ....|C-3 .. .. ....|... .. .. ....|C-3 00 .. ....|... .. .. ....|... .. .. ....|... .. .. ....|... .. .. ....
0B |... .. .. ....|... .. .. ....|... .. .. ....|... .. .. ....|... .. .. ....|... .. .. ....|... .. .. ....|... .. .. ....|... .. .. ....|... .. .. ....|... .. .. ....|... .. .. ....|... .. .. ....|... .. .. ....|... .. .. ....|... .. .. ....
0C |... .. .. ....|... .. .. ....|... .. .. ....|G#4 .. .. ....|... .. .. ....|OFF .. .. ....|... .. .. ....|... .. .. ....|... .. .. ....|... .. .. ....|C-3 .. .. ....|... .. .. ....|C-3 .. .. ....|... .. .. ....|... .. .. ....|... .. .. ....
0D |... .. .. ....|... .. .. ....|... .. .. ....|... .. .. ....|... .. .. ....|... .. .. ....|... .. .. ....|... .. .. ....|... .. .. ....|... .. .. ....|... .. .. ....|... .. .. ....|C-3 .. .. ....|... .. .. ....|... .. .. ....|... .. .. ....
0E |... .. .. ....|... .. .. ....|... .. .. ....|A#4 .. .. ....|... .. .. ....|G#2 .. .. ....|... .. .. ....|... .. .. ....|... .. .. ....|... .. .. ....|... .. .. ....|C-3 00 .. ....|... .. .. ....|... .. .. ....|... .. .. ....|... .. .. ....
0F |... .. .. ....|... .. .. ....|... .. .. ....|... .. .. ....|... .. .. ....|... .. .. ....|... .. .. ....|... .. .. ....|... .. .. ....|... .. .. ....|... .. .. ....|... .. .. ....|... .. .. ....|... .. .. ....|... .. .. ....|... .. .. ....
10 |D#2 .. .. ....|G#2 .. .. ....|C-3 .. .. ....|C-5 .. .. ....|... .. .. ....|OFF .. .. ....|... .. .. ....|... .. .. ....|... .. .. ....|C-3 .. .. ....|... .. .. ....|... .. .. ....|C-3 .. .. ....|... .. .. ....|... .. .. ....|... .. .. ....
11 |... .. .. ....|... .. .. ....|... .. .. ....|... .. .. ....|... .. .. ....|... .. .. ....|... .. .. ....|... .. .. ....|... .. .. ....|... .. .. ....|... .. .. ....|... .. .. ....|C-3 .. .. ....|... .. .. ....|... .. .. ....|... .. .. ....
12 |... .. .. ....|... .. .. ....|... .. .. ....|G-4 .. .. ....|... .. .. ....|G#2 .. .. ....|... .. .. ....|... .. .. ....|... .. .. ....|... .. .. ....|... .. .. ....|C-3 00 .. ....|... .. .. ....|... .. .. ....|... .. .. ....|... .. .. ....
13 |... .. .. ....|... .. .. ....|... .. .. ....|... .. .. ....|... .. .. ....|... .. .. ....|... .. .. ....|... .. .. ....|... .. .. ....|... .. .. ....|... .. .. ....|... .. .. ....|... .. .. ....|... .. .. ....|... .. .. ....|... .. .. ....
14 |... .. .. ....|... .. .. ....|... .. .. ....|D-5 .. .. ....|... .. .. ....|OFF .. .. ....|... .. .. ....|... .. .. ....|... .. .. ....|... .. .. ....|C-3 .. .. ....|... .. .. ....|C-3 .. .. ....|... .. .. ....|... .. .. ....|... .. .. ....
15 |... .. .. ....|... .. .. ....|... .. .. ....|... .. .. ....|... .. .. ....|... .. .. ....|... .. .. ....|... .. .. ....|... .. .. ....|... .. .. ....|... .. .. ....|... .. .. ....|C-3 .. .. ....|... .. .. ....|... .. .. ....|... .. .. ....
16 |... .. .. ....|... .. .. ....|... .. .. ....|G-4 .. .. ....|... .. .. ....|G#2 .. .. ....|... .. .. ....|... .. .. ....|... .. .. ....|... .. .. ....|... .. .. ....|C-3 00 .. ....|... .. .. ....|... .. .. ....|... .. .. ....|... .. .. ....
17 |... .. .. ....|... .. .. ....|... .. .. ....|... .. .. ....|... .. .. ....|... .. .. ....|... .. .. ....|... .. .. ....|... .. .. ....|C-3 .. .. ....|... .. .. ....|... .. .. ....|... .. .. ....|... .. .. ....|... .. .. ....|... .. .. ....
18 |... .. .. ....|... .. .. ....|... .. .. ....|D#5 .. .. ....|... .. .. ....|OFF .. .. ....|... .. .. ....|... .. .. ....|... .. .. ....|... .. .. ....|... .. .. ....|... .. .. ....|C-3 .. .. ....|... .. .. ....|... .. .. ....|... .. .. ....
19 |... .. .. ....|... .. .. ....|... .. .. ....|... .. .. ....|... .. .. ....|... .. .. ....|... .. .. ....|... .. .. ....|... .. .. ....|... .. .. ....|... .. .. ....|... .. .. ....|C-3 .. .. ....|... .. .. ....|... .. .. ....|... .. .. ....
1A |... .. .. ....|... .. .. ....|... .. .. ....|... .. .. ....|... .. .. ....|G#2 .. .. ....|... .. .. ....|... .. .. ....|... .. .. ....|C-3 .. .. ....|... .. .. ....|C-3 00 .. ....|... .. .. ....|... .. .. ....|... .. .. ....|... .. .. ....
1B |... .. .. ....|... .. .. ....|... .. .. ....|... .. .. ....|... .. .. ....|... .. .. ....|... .. .. ....|... .. .. ....|... .. .. ....|... .. .. ....|... .. .. ....|... .. .. ....|... .. .. ....|... .. .. ....|... .. .. ....|... .. .. ....
1C |... .. .. ....|... .. .. ....|... .. .. ....|... .. .. ....|... .. .. ....|OFF .. .. ....|... .. .. ....|... .. .. ....|... .. .. ....|... .. .. ....|C-3 .. .. ....|... .. .. ....|C-3 .. .. ....|... .. .. ....|... .. .. ....|... .. .. ....
1D |... .. .. ....|... .. .. ....|... .. .. ....|... .. .. ....|... .. .. ....|... .. .. ....|... .. .. ....|... .. .. ....|... .. .. ....|... .. .. ....|... .. .. ....|... .. .. ....|C-3 .. .. ....|... .. .. ....|... .. .. ....|... .. .. ....
1E |... .. .. ....|... .. .. ....|... .. .. ....|... .. .. ....|... .. .. ....|G#2 .. .. ....|... .. .. ....|... .. .. ....|... .. .. ....|C-3 .. .. ....|... .. .. ....|C-3 00 .. ....|... .. .. ....|... .. .. ....|... .. .. ....|... .. .. ....
1F |... .. .. ....|... .. .. ....|... .. .. ....|... .. .. ....|... .. .. ....|... .. .. ....|... .. .. ....|... .. .. ....|... .. .. ....|... .. .. ....|... .. .. ....|... .. .. ....|... .. .. ....|... .. .. ....|... .. .. ....|... .. .. ....
----- ORDER 09
00 |C-2 00 73 ....|G-2 00 73 ....|C-3 00 73 ....|C-5 .. .. ....|... .. .. ....|OFF .. .. ....|... .. .. ....|... .. .. ....|... .. .. ....|C-3 .. .. ....|... .. .. ....|... .. .. ....|C-3 .. .. ....|... .. .. ....|... .. .. ....|... .. .. ....
01 |... .. .. ....|... .. .. ....|... .. .. ....|... .. .. ....|... .. .. ....|... .. .. ....|... .. .. ....|... .. .. ....|... .. .. ....|... .. .. ....|... .. .. ....|... .. .. ....|C-3 .. .. ....|... .. .. ....|... .. .. ....|... .. .. ....
02 |... .. .. ....|... .. .. ....|... .. .. ....|A#4 .. .. ....|... .. .. ....|C-3 .. .. ....|... .. .. ....|... .. .. ....|... .. .. ....|... .. .. ....|... .. .. ....|C-3 00 .. ....|... .. .. ....|... .. .. ....|... .. .. ....|... .. .. ....
03 |... .. .. ....|... .. .. ....|... .. .. ....|... .. .. ....|... .. .. ....|... .. .. ....|... .. .. ....|... .. .. ....|... .. .. ....|... .. .. ....|... .. .. ....|... .. .. ....|... .. .. ....|... .. .. ....|... .. .. ....|... .. .. ....
04 |... .. .. ....|... .. .. ....|... .. .. ....|G-4 .. .. ....|... .. .. ....|OFF .. .. ....|... .. .. ....|... .. .. ....|... .. .. ....|... .. .. ....|C-3 .. .. ....|... .. .. ....|C-3 .. .. ....|... .. .. ....|... .. .. ....|... .. .. ....
05 |... .. .. ....|... .. .. ....|... .. .. ....|... .. .. ....|... .. .. ....|... .. .. ....|... .. .. ....|... .. .. ....|... .. .. ....|... .. .. ....|... .. .. ....|... .. .. ....|C-3 .. .. ....|... .. .. ....|... .. .. ....|... .. .. ....
06 |... .. .. ....|... .. .. ....|... .. .. ....|A#4 .. .. ....|... .. .. ....|C-3 .. .. ....|... .. .. ....|... .. .. ....|... .. .. ....|... .. .. ....|... .. .. ....|C-3 00 .. ....|... .. .. ....|... .. .. ....|... .. .. ....|... .. .. ....
07 |... .. .. ....|... .. .. ....|... .. .. ....|... .. .. ....|... .. .. ....|... .. .. ....|... .. .. ....|... .. .. ....|... .. .. ....|C-3 .. .. ....|... .. .. ....|... .. .. ....|... .. .. ....|... .. .. ....|... .. .. ....|... .. .. ....
08 |... .. .. ....|... .. .. ....|... .. .. ....|F-5 .. .. ....|... .. .. ....|OFF .. .. ....|... .. .. ....|... .. .. ....|... .. .. ....|... .. .. ....|... .. .. ....|... .. .. ....|C-3 .. .. ....|... .. .. ....|... .. .. ....|... .. .. ....
09 |... .. .. ....|... .. .. ....|... .. .. ....|... .. .. ....|... .. .. ....|... .. .. ....|... .. .. ....|... .. .. ....|... .. .. ....|... .. .. ....|... .. .. ....|... .. .. ....|C-3 .. .. ....|... .. .. ....|... .. .. ....|... .. .. ....
0A |... .. .. ....|... .. .. ....|... .. .. ....|G-5 .. .. ....|... .. .. ....|C-3 .. .. ....|... .. .. ....|... .. .. ....|... .. .. ....|C-3 .. .. ....|... .. .. ....|C-3 00 .. ....|... .. .. ....|... .. .. ....|... .. .. ....|... .. .. ....
0B |... .. .. ....|... .. .. ....|... .. .. ....|... .. .. ....|... .. .. ....|... .. .. ....|... .. .. ....|... .. .. ....|... .. .. ....|... .. .. ....|... .. .. ....|... .. .. ....|... .. .. ....|... .. .. ....|... .. .. ....|... .. .. ....
0C |... .. .. ....|... .. .. ....|... .. .. ....|D-5 .. .. ....|... .. .. ....|OFF .. .. ....|... .. .. ....|... .. .. ....|... .. .. ....|... .. .. ....|C-3 .. .. ....|... .. .. ....|C-3 .. .. ....|... .. .. ....|... .. .. ....|... .. .. ....
0D |... .. .. ....|... .. .. ....|... .. .. ....|... .. .. ....|... .. .. ....|... .. .. ....|... .. .. ....|... .. .. ....|... .. .. ....|... .. .. ....|... .. .. ....|... .. .. ....|C-3 .. .. ....|... .. .. ....|... .. .. ....|... .. .. ....
0E |... .. .. ....|... .. .. ....|... .. .. ....|A#4 .. .. ....|... .. .. ....|C-3 .. .. ....|... .. .. ....|... .. .. ....|... .. .. ....|... .. .. ....|... .. .. ....|C-3 00 .. ....|... .. .. ....|... .. .. ....|... .. .. ....|... .. .. ....
0F |... .. .. ....|... .. .. ....|... .. .. ....|... .. .. ....|... .. .. ....|... .. .. ....|... .. .. ....|... .. .. ....|... .. .. ....|... .. .. ....|... .. .. ....|... .. .. ....|... .. .. ....|... .. .. ....|... .. .. ....|... .. .. ....
10 |C-2 .. .. ....|G-2 .. .. ....|C-3 .. .. ....|C-5 .. .. ....|... .. .. ....|OFF .. .. ....|... .. .. ....|... .. .. ....|... .. .. ....|C-3 .. .. ....|... .. .. ....|... .. .. ....|C-3 .. .. ....|... .. .. ....|... .. .. ....|... .. .. ....
11 |... .. .. ....|... .. .. ....|... .. .. ....|... .. .. ....|... .. .. ....|... .. .. ....|... .. .. ....|... .. .. ....|... .. .. ....|... .. .. ....|... .. .. ....|... .. .. ....|C-3 .. .. ....|... .. .. ....|... .. .. ....|... .. .. ....
12 |... .. .. ....|... .. .. ....|... .. .. ....|... .. .. ....|... .. .. ....|C-3 .. .. ....|C-4 09 0B ....|... .. .. ....|... .. .. ....|... .. .. ....|... .. .. ....|C-3 00 .. ....|... .. .. ....|... .. .. ....|... .. .. ....|... .. .. ....
13 |... .. .. ....|... .. .. ....|... .. .. ....|... .. .. ....|... .. .. ....|... .. .. ....|... .. .. ....|... .. .. ....|... .. .. ....|... .. .. ....|... .. .. ....|... .. .. ....|... .. .. ....|... .. .. ....|... .. .. ....|... .. .. ....
14 |... .. .. ....|... .. .. ....|... .. .. ....|... .. .. ....|... .. .. ....|OFF .. .. ....|D-4 .. .. ....|... .. .. ....|... .. .. ....|... .. .. ....|C-3 .. .. ....|... .. .. ....|C-3 .. .. ....|... .. .. ....|... .. .. ....|... .. .. ....
15 |... .. .. ....|... .. .. ....|... .. .. ....|... .. .. ....|... .. .. ....|... .. .. ....|... .. .. ....|... .. .. ....|... .. .. ....|... .. .. ....|... .. .. ....|... .. .. ....|C-3 .. .. ....|... .. .. ....|... .. .. ....|... .. .. ....
16 |... .. .. ....|... .. .. ....|... .. .. ....|... .. .. ....|... .. .. ....|C-3 .. .. ....|D#4 .. .. ....|... .. .. ....|... .. .. ....|... .. .. ....|... .. .. ....|C-3 00 .. ....|... .. .. ....|... .. .. ....|... .. .. ....|... .. .. ....
17 |... .. .. ....|... .. .. ....|... .. .. ....|... .. .. ....|... .. .. ....|... .. .. ....|... .. .. ....|... .. .. ....|... .. .. ....|C-3 .. .. ....|... .. .. ....|... .. .. ....|... .. .. ....|... .. .. ....|... .. .. ....|... .. .. ....
18 |... .. .. ....|... .. .. ....|... .. .. ....|... .. .. ....|... .. .. ....|OFF .. .. ....|F-4 .. .. ....|... .. .. ....|... .. .. ....|... .. .. ....|... .. .. ....|... .. .. ....|C-3 .. .. ....|... .. .. ....|... .. .. ....|... .. .. ....
19 |... .. .. ....|... .. .. ....|... .. .. ....|... .. .. ....|... .. .. ....|... .. .. ....|... .. .. ....|... .. .. ....|... .. .. ....|... .. .. ....|... .. .. ....|... .. .. ....|C-3 .. .. ....|... .. .. ....|... .. .. ....|... .. .. ....
1A |... .. .. ....|... .. .. ....|... .. .. ....|... .. .. ....|... .. .. ....|C-3 .. .. ....|G-4 .. .. ....|... .. .. ....|... .. .. ....|C-3 .. .. ....|... .. .. ....|C-3 00 .. ....|... .. .. ....|... .. .. ....|... .. .. ....|... .. .. ....
1B |... .. .. ....|... .. .. ....|... .. .. ....|... .. .. ....|... .. .. ....|... .. .. ....|... .. .. ....|... .. .. ....|... .. .. ....|... .. .. ....|... .. .. ....|... .. .. ....|... .. .. ....|... .. .. ....|... .. .. ....|... .. .. ....
1C |... .. .. ....|... .. .. ....|... .. .. ....|... .. .. ....|... .. .. ....|OFF .. .. ....|A#4 .. .. ....|... .. .. ....|... .. .. ....|... .. .. ....|C-3 .. .. ....|... .. .. ....|C-3 .. .. ....|... .. .. ....|... .. .. ....|... .. .. ....
1D |... .. .. ....|... .. .. ....|... .. .. ....|... .. .. ....|... .. .. ....|... .. .. ....|... .. .. ....|... .. .. ....|... .. .. ....|... .. .. ....|... .. .. ....|... .. .. ....|C-3 .. .. ....|... .. .. ....|... .. .. ....|... .. .. ....
1E |... .. .. ....|... .. .. ....|... .. .. ....|... .. .. ....|... .. .. ....|C-3 .. .. ....|B-4 .. .. ....|... .. .. ....|... .. .. ....|C-3 .. .. ....|... .. .. ....|C-3 00 .. ....|... .. .. ....|... .. .. ....|... .. .. ....|... .. .. ....
1F |... .. .. ....|... .. .. ....|... .. .. ....|... .. .. ....|... .. .. ....|... .. .. ....|... .. .. ....|... .. .. ....|... .. .. ....|... .. .. ....|... .. .. ....|... .. .. ....|... .. .. ....|... .. .. ....|... .. .. ....|... .. .. ....
----- ORDER 0A
00 |D#2 .. .. ....|G#2 .. .. ....|C-3 .. .. ....|C-5 01 72 ....|... .. .. ....|OFF .. .. ....|C-5 .. .. ....|... .. .. ....|... .. .. ....|... .. .. ....|... .. .. ....|C-3 01 .. ....|... .. .. ....|... .. .. ....|... .. .. ....|... .. .. ....
01 |... .. .. ....|... .. .. ....|... .. .. ....|... .. .. ....|... .. .. ....|... .. .. ....|... .. .. ....|... .. .. ....|... .. .. ....|... .. .. ....|... .. .. ....|... .. .. ....|C-3 .. .. ....|... .. .. ....|... .. .. ....|... .. .. ....
02 |... .. .. ....|... .. .. ....|... .. .. ....|... .. .. ....|... .. .. ....|G#2 02 7C ....|... .. .. ....|... .. .. ....|... .. .. ....|... .. .. ....|... .. .. ....|C-3 00 .. ....|... .. .. ....|... .. .. ....|... .. .. ....|... .. .. ....
03 |... .. .. ....|... .. .. ....|... .. .. ....|... .. .. ....|... .. .. ....|... .. .. ....|... .. .. ....|... .. .. ....|... .. .. ....|... .. .. ....|... .. .. ....|... .. .. ....|... .. .. ....|... .. .. ....|... .. .. ....|... .. .. ....
04 |... .. .. ....|... .. .. ....|... .. .. ....|A#4 .. .. ....|... .. .. ....|OFF .. .. ....|A#4 .. .. ....|... .. .. ....|... .. .. ....|... .. .. ....|C-3 00 .. ....|... .. .. ....|C-3 .. .. ....|... .. .. ....|... .. .. ....|... .. .. ....
05 |... .. .. ....|... .. .. ....|... .. .. ....|... .. .. ....|... .. .. ....|... .. .. ....|... .. .. ....|... .. .. ....|... .. .. ....|... .. .. ....|... .. .. ....|... .. .. ....|C-3 .. .. ....|... .. .. ....|... .. .. ....|... .. .. ....
06 |... .. .. ....|... .. .. ....|... .. .. ....|C-5 .. .. ....|... .. .. ....|G#2 .. .. ....|C-5 .. .. ....|... .. .. ....|... .. .. ....|... .. .. ....|... .. .. ....|C-3 00 .. ....|... .. .. ....|... .. .. ....|... .. .. ....|... .. .. ....
07 |... .. .. ....|... .. .. ....|... .. .. ....|... .. .. ....|... .. .. ....|... .. .. ....|... .. .. ....|... .. .. ....|... .. .. ....|C-3 .. .. ....|... .. .. ....|... .. .. ....|... .. .. ....|... .. .. ....|... .. .. ....|... .. .. ....
08 |... .. .. ....|... .. .. ....|... .. .. ....|... .. .. ....|... .. .. ....|OFF .. .. ....|... .. .. ....|... .. .. ....|... .. .. ....|... .. .. ....|... .. .. ....|... .. .. ....|C-3 .. .. ....|... .. .. ....|... .. .. ....|... .. .. ....
09 |... .. .. ....|... .. .. ....|... .. .. ....|... .. .. ....|... .. .. ....|... .. .. ....|... .. .. ....|... .. .. ....|... .. .. ....|... .. .. ....|... .. .. ....|... .. .. ....|C-3 .. .. ....|... .. .. ....|... .. .. ....|... .. .. ....
0A |... .. .. ....|... .. .. ....|... .. .. ....|A#4 .. .. ....|... .. .. ....|G#2 .. .. ....|A#4 .. .. ....|... .. .. ....|... .. .. ....|C-3 .. .. ....|... .. .. ....|C-3 00 .. ....|... .. .. ....|... .. .. ....|... .. .. ....|... .. .. ....
0B |... .. .. ....|... .. .. ....|... .. .. ....|... .. .. ....|... .. .. ....|... .. .. ....|... .. .. ....|... .. .. ....|... .. .. ....|... .. .. ....|... .. .. ....|... .. .. ....|... .. .. ....|... .. .. ....|... .. .. ....|... .. .. ....
0C |... .. .. ....|... .. .. ....|... .. .. ....|C-5 .. .. ....|... .. .. ....|OFF .. .. ....|C-5 .. .. ....|... .. .. ....|... .. .. ....|... .. .. ....|C-3 .. .. ....|... .. .. ....|C-3 .. .. ....|... .. .. ....|... .. .. ....|... .. .. ....
0D |... .. .. ....|... .. .. ....|... .. .. ....|... .. .. ....|... .. .. ....|... .. .. ....|... .. .. ....|... .. .. ....|... .. .. ....|... .. .. ....|... .. .. ....|... .. .. ....|C-3 .. .. ....|... .. .. ....|... .. .. ....|... .. .. ....
0E |... .. .. ....|... .. .. ....|... .. .. ....|D-5 .. .. ....|... .. .. ....|G#2 .. .. ....|D-5 .. .. ....|... .. .. ....|... .. .. ....|... .. .. ....|... .. .. ....|C-3 00 .. ....|... .. .. ....|... .. .. ....|... .. .. ....|... .. .. ....
0F |... .. .. ....|... .. .. ....|... .. .. ....|... .. .. ....|... .. .. ....|... .. .. ....|... .. .. ....|... .. .. ....|... .. .. ....|... .. .. ....|... .. .. ....|... .. .. ....|... .. .. ....|... .. .. ....|... .. .. ....|... .. .. ....
10 |D#2 .. .. ....|G#2 .. .. ....|C-3 .. .. ....|D#5 .. .. ....|... .. .. ....|OFF .. .. ....|D#5 .. .. ....|... .. .. ....|... .. .. ....|C-3 .. .. ....|... .. .. ....|... .. .. ....|C-3 .. .. ....|... .. .. ....|... .. .. ....|... .. .. ....
11 |... .. .. ....|... .. .. ....|... .. .. ....|... .. .. ....|... .. .. ....|... .. .. ....|... .. .. ....|... .. .. ....|... .. .. ....|... .. .. ....|... .. .. ....|... .. .. ....|C-3 .. .. ....|... .. .. ....|... .. .. ....|... .. .. ....
12 |... .. .. ....|... .. .. ....|... .. .. ....|G-4 .. .. ....|... .. .. ....|G#2 .. .. ....|G-4 .. .. ....|... .. .. ....|... .. .. ....|... .. .. ....|... .. .. ....|C-3 00 .. ....|... .. .. ....|... .. .. ....|... .. .. ....|... .. .. ....
13 |... .. .. ....|... .. .. ....|... .. .. ....|... .. .. ....|... .. .. ....|... .. .. ....|... .. .. ....|... .. .. ....|... .. .. ....|... .. .. ....|... .. .. ....|... .. .. ....|... .. .. ....|... .. .. ....|... .. .. ....|... .. .. ....
14 |... .. .. ....|... .. .. ....|... .. .. ....|D-5 .. .. ....|... .. .. ....|OFF .. .. ....|D-5 .. .. ....|... .. .. ....|... .. .. ....|... .. .. ....|C-3 .. .. ....|... .. .. ....|C-3 .. .. ....|... .. .. ....|... .. .. ....|... .. .. ....
15 |... .. .. ....|... .. .. ....|... .. .. ....|... .. .. ....|... .. .. ....|... .. .. ....|... .. .. ....|... .. .. ....|... .. .. ....|... .. .. ....|... .. .. ....|... .. .. ....|C-3 .. .. ....|... .. .. ....|... .. .. ....|... .. .. ....
16 |... .. .. ....|... .. .. ....|... .. .. ....|G-4 .. .. ....|... .. .. ....|G#2 .. .. ....|G-4 .. .. ....|... .. .. ....|... .. .. ....|... .. .. ....|... .. .. ....|C-3 00 .. ....|... .. .. ....|... .. .. ....|... .. .. ....|... .. .. ....
17 |... .. .. ....|... .. .. ....|... .. .. ....|... .. .. ....|... .. .. ....|... .. .. ....|... .. .. ....|... .. .. ....|... .. .. ....|C-3 .. .. ....|... .. .. ....|... .. .. ....|... .. .. ....|... .. .. ....|... .. .. ....|... .. .. ....
18 |... .. .. ....|... .. .. ....|... .. .. ....|C-5 .. .. ....|... .. .. ....|OFF .. .. ....|C-5 .. .. ....|... .. .. ....|... .. .. ....|... .. .. ....|... .. .. ....|... .. .. ....|C-3 .. .. ....|... .. .. ....|... .. .. ....|... .. .. ....
19 |... .. .. ....|... .. .. ....|... .. .. ....|... .. .. ....|... .. .. ....|... .. .. ....|... .. .. ....|... .. .. ....|... .. .. ....|... .. .. ....|... .. .. ....|... .. .. ....|C-3 .. .. ....|... .. .. ....|... .. .. ....|... .. .. ....
1A |... .. .. ....|... .. .. ....|... .. .. ....|... .. .. ....|... .. .. ....|G#2 .. .. ....|... .. .. ....|... .. .. ....|... .. .. ....|C-3 .. .. ....|... .. .. ....|C-3 00 .. ....|... .. .. ....|... .. .. ....|... .. .. ....|... .. .. ....
1B |... .. .. ....|... .. .. ....|... .. .. ....|... .. .. ....|... .. .. ....|... .. .. ....|... .. .. ....|... .. .. ....|... .. .. ....|... .. .. ....|... .. .. ....|... .. .. ....|... .. .. ....|... .. .. ....|... .. .. ....|... .. .. ....
1C |... .. .. ....|... .. .. ....|... .. .. ....|... .. .. ....|... .. .. ....|OFF .. .. ....|... .. .. ....|... .. .. ....|... .. .. ....|... .. .. ....|C-3 .. .. ....|... .. .. ....|C-3 .. .. ....|... .. .. ....|... .. .. ....|... .. .. ....
1D |... .. .. ....|... .. .. ....|... .. .. ....|... .. .. ....|... .. .. ....|... .. .. ....|... .. .. ....|... .. .. ....|... .. .. ....|... .. .. ....|... .. .. ....|... .. .. ....|C-3 .. .. ....|... .. .. ....|... .. .. ....|... .. .. ....
1E |... .. .. ....|... .. .. ....|... .. .. ....|... .. .. ....|... .. .. ....|G#2 .. .. ....|... .. .. ....|... .. .. ....|... .. .. ....|C-3 .. .. ....|... .. .. ....|C-3 00 .. ....|... .. .. ....|... .. .. ....|... .. .. ....|... .. .. ....
1F |... .. .. ....|... .. .. ....|... .. .. ....|... .. .. ....|... .. .. ....|... .. .. ....|... .. .. ....|... .. .. ....|... .. .. ....|... .. .. ....|... .. .. ....|... .. .. ....|... .. .. ....|... .. .. ....|... .. .. ....|... .. .. ....
----- ORDER 0B
00 |C-2 00 73 ....|G-2 00 73 ....|C-3 00 73 ....|C-5 .. .. ....|... .. .. ....|OFF .. .. ....|C-5 .. .. ....|... .. .. ....|... .. .. ....|C-3 .. .. ....|... .. .. ....|... .. .. ....|C-3 .. .. ....|... .. .. ....|... .. .. ....|... .. .. ....
01 |... .. .. ....|... .. .. ....|... .. .. ....|... .. .. ....|... .. .. ....|... .. .. ....|... .. .. ....|... .. .. ....|... .. .. ....|... .. .. ....|... .. .. ....|... .. .. ....|C-3 .. .. ....|... .. .. ....|... .. .. ....|... .. .. ....
02 |... .. .. ....|... .. .. ....|... .. .. ....|A#4 .. .. ....|... .. .. ....|C-3 .. .. ....|A#4 .. .. ....|... .. .. ....|... .. .. ....|... .. .. ....|... .. .. ....|C-3 00 .. ....|... .. .. ....|... .. .. ....|... .. .. ....|... .. .. ....
03 |... .. .. ....|... .. .. ....|... .. .. ....|... .. .. ....|... .. .. ....|... .. .. ....|... .. .. ....|... .. .. ....|... .. .. ....|... .. .. ....|... .. .. ....|... .. .. ....|... .. .. ....|... .. .. ....|... .. .. ....|... .. .. ....
04 |... .. .. ....|... .. .. ....|... .. .. ....|G-4 .. .. ....|... .. .. ....|OFF .. .. ....|G-4 .. .. ....|... .. .. ....|... .. .. ....|... .. .. ....|C-3 .. .. ....|... .. .. ....|C-3 .. .. ....|... .. .. ....|... .. .. ....|... .. .. ....
05 |... .. .. ....|... .. .. ....|... .. .. ....|... .. .. ....|... .. .. ....|... .. .. ....|... .. .. ....|... .. .. ....|... .. .. ....|... .. .. ....|... .. .. ....|... .. .. ....|C-3 .. .. ....|... .. .. ....|... .. .. ....|... .. .. ....
06 |... .. .. ....|... .. .. ....|... .. .. ....|A#4 .. .. ....|... .. .. ....|C-3 .. .. ....|A#4 .. .. ....|... .. .. ....|... .. .. ....|... .. .. ....|... .. .. ....|C-3 00 .. ....|... .. .. ....|... .. .. ....|... .. .. ....|... .. .. ....
07 |... .. .. ....|... .. .. ....|... .. .. ....|... .. .. ....|... .. .. ....|... .. .. ....|... .. .. ....|... .. .. ....|... .. .. ....|C-3 .. .. ....|... .. .. ....|... .. .. ....|... .. .. ....|... .. .. ....|... .. .. ....|... .. .. ....
08 |... .. .. ....|... .. .. ....|... .. .. ....|F-4 .. .. ....|... .. .. ....|OFF .. .. ....|F-4 .. .. ....|... .. .. ....|... .. .. ....|... .. .. ....|... .. .. ....|... .. .. ....|C-3 .. .. ....|... .. .. ....|... .. .. ....|... .. .. ....
09 |... .. .. ....|... .. .. ....|... .. .. ....|... .. .. ....|... .. .. ....|... .. .. ....|... .. .. ....|... .. .. ....|... .. .. ....|... .. .. ....|... .. .. ....|... .. .. ....|C-3 .. .. ....|... .. .. ....|... .. .. ....|... .. .. ....
0A |... .. .. ....|... .. .. ....|... .. .. ....|... .. .. ....|... .. .. ....|C-3 .. .. ....|... .. .. ....|... .. .. ....|... .. .. ....|C-3 .. .. ....|... .. .. ....|C-3 00 .. ....|... .. .. ....|... .. .. ....|... .. .. ....|... .. .. ....
0B |... .. .. ....|... .. .. ....|... .. .. ....|... .. .. ....|... .. .. ....|... .. .. ....|... .. .. ....|... .. .. ....|... .. .. ....|... .. .. ....|... .. .. ....|... .. .. ....|... .. .. ....|... .. .. ....|... .. .. ....|... .. .. ....
0C |... .. .. ....|... .. .. ....|... .. .. ....|... .. .. ....|... .. .. ....|OFF .. .. ....|... .. .. ....|... .. .. ....|... .. .. ....|... .. .. ....|C-3 .. .. ....|... .. .. ....|C-3 .. .. ....|... .. .. ....|... .. .. ....|... .. .. ....
0D |... .. .. ....|... .. .. ....|... .. .. ....|... .. .. ....|... .. .. ....|... .. .. ....|... .. .. ....|... .. .. ....|... .. .. ....|... .. .. ....|... .. .. ....|... .. .. ....|C-3 .. .. ....|... .. .. ....|... .. .. ....|... .. .. ....
0E |... .. .. ....|... .. .. ....|... .. .. ....|... .. .. ....|... .. .. ....|C-3 .. .. ....|... .. .. ....|... .. .. ....|... .. .. ....|... .. .. ....|... .. .. ....|C-3 00 .. ....|... .. .. ....|... .. .. ....|... .. .. ....|... .. .. ....
0F |... .. .. ....|... .. .. ....|... .. .. ....|... .. .. ....|... .. .. ....|... .. .. ....|... .. .. ....|... .. .. ....|... .. .. ....|... .. .. ....|... .. .. ....|... .. .. ....|... .. .. ....|... .. .. ....|... .. .. ....|... .. .. ....
10 |C-2 .. .. ....|G-2 .. .. ....|C-3 .. .. ....|F-4 .. .. ....|... .. .. ....|OFF .. .. ....|F-4 .. .. ....|... .. .. ....|... .. .. ....|C-3 .. .. ....|... .. .. ....|... .. .. ....|C-3 .. .. ....|... .. .. ....|... .. .. ....|... .. .. ....
11 |... .. .. ....|... .. .. ....|... .. .. ....|... .. .. ....|... .. .. ....|... .. .. ....|... .. .. ....|... .. .. ....|... .. .. ....|... .. .. ....|... .. .. ....|... .. .. ....|C-3 .. .. ....|... .. .. ....|... .. .. ....|... .. .. ....
12 |... .. .. ....|... .. .. ....|... .. .. ....|D#4 .. .. ....|... .. .. ....|C-3 .. .. ....|D#4 .. .. ....|... .. .. ....|... .. .. ....|... .. .. ....|... .. .. ....|C-3 00 .. ....|... .. .. ....|... .. .. ....|... .. .. ....|... .. .. ....
13 |... .. .. ....|... .. .. ....|... .. .. ....|... .. .. ....|... .. .. ....|... .. .. ....|... .. .. ....|... .. .. ....|... .. .. ....|... .. .. ....|... .. .. ....|... .. .. ....|... .. .. ....|... .. .. ....|... .. .. ....|... .. .. ....
14 |... .. .. ....|... .. .. ....|... .. .. ....|C-4 .. .. ....|... .. .. ....|OFF .. .. ....|C-4 .. .. ....|... .. .. ....|... .. .. ....|... .. .. ....|C-3 .. .. ....|... .. .. ....|C-3 .. .. ....|... .. .. ....|... .. .. ....|... .. .. ....
15 |... .. .. ....|... .. .. ....|... .. .. ....|... .. .. ....|... .. .. ....|... .. .. ....|... .. .. ....|... .. .. ....|... .. .. ....|... .. .. ....|... .. .. ....|... .. .. ....|C-3 .. .. ....|... .. .. ....|... .. .. ....|... .. .. ....
16 |... .. .. ....|... .. .. ....|... .. .. ....|D#4 .. .. ....|... .. .. ....|C-3 .. .. ....|D#4 .. .. ....|... .. .. ....|... .. .. ....|... .. .. ....|... .. .. ....|C-3 00 .. ....|... .. .. ....|... .. .. ....|... .. .. ....|... .. .. ....
17 |... .. .. ....|... .. .. ....|... .. .. ....|... .. .. ....|... .. .. ....|... .. .. ....|... .. .. ....|... .. .. ....|... .. .. ....|C-3 .. .. ....|... .. .. ....|... .. .. ....|... .. .. ....|... .. .. ....|... .. .. ....|... .. .. ....
18 |... .. .. ....|... .. .. ....|... .. .. ....|G-4 .. .. ....|... .. .. ....|OFF .. .. ....|G-4 .. .. ....|... .. .. ....|... .. .. ....|... .. .. ....|... .. .. ....|... .. .. ....|C-3 .. .. ....|... .. .. ....|... .. .. ....|... .. .. ....
19 |... .. .. ....|... .. .. ....|... .. .. ....|... .. .. ....|... .. .. ....|... .. .. ....|... .. .. ....|... .. .. ....|... .. .. ....|... .. .. ....|... .. .. ....|... .. .. ....|C-3 .. .. ....|... .. .. ....|... .. .. ....|... .. .. ....
1A |... .. .. ....|... .. .. ....|... .. .. ....|... .. .. ....|... .. .. ....|C-3 .. .. ....|... .. .. ....|... .. .. ....|... .. .. ....|C-3 .. .. ....|... .. .. ....|C-3 00 .. ....|... .. .. ....|... .. .. ....|... .. .. ....|... .. .. ....
1B |... .. .. ....|... .. .. ....|... .. .. ....|... .. .. ....|... .. .. ....|... .. .. ....|... .. .. ....|... .. .. ....|... .. .. ....|... .. .. ....|... .. .. ....|... .. .. ....|... .. .. ....|... .. .. ....|... .. .. ....|... .. .. ....
1C |... .. .. ....|... .. .. ....|... .. .. ....|... .. .. ....|... .. .. ....|OFF .. .. ....|... .. .. ....|... .. .. ....|... .. .. ....|... .. .. ....|C-3 .. .. ....|... .. .. ....|C-3 .. .. ....|... .. .. ....|... .. .. ....|... .. .. ....
1D |... .. .. ....|... .. .. ....|... .. .. ....|... .. .. ....|... .. .. ....|... .. .. ....|... .. .. ....|... .. .. ....|... .. .. ....|... .. .. ....|... .. .. ....|... .. .. ....|C-3 .. .. ....|... .. .. ....|... .. .. ....|... .. .. ....
1E |... .. .. ....|... .. .. ....|... .. .. ....|... .. .. ....|... .. .. ....|C-3 .. .. ....|... .. .. ....|... .. .. ....|... .. .. ....|C-3 .. .. ....|... .. .. ....|C-3 00 .. ....|... .. .. ....|... .. .. ....|... .. .. ....|... .. .. ....
1F |... .. .. ....|... .. .. ....|... .. .. ....|... .. .. ....|... .. .. ....|... .. .. ....|... .. .. ....|... .. .. ....|... .. .. ....|... .. .. ....|... .. .. ....|... .. .. ....|... .. .. ....|... .. .. ....|... .. .. ....|... .. .. ....
----- ORDER 0C
00 |D#2 .. .. ....|G#2 .. .. ....|C-3 .. .. ....|G#4 .. .. ....|... .. .. ....|OFF .. .. ....|G#4 .. .. ....|... .. .. ....|... .. .. ....|C-3 .. .. ....|... .. .. ....|... .. .. ....|C-3 .. .. ....|... .. .. ....|... .. .. ....|... .. .. ....
01 |... .. .. ....|... .. .. ....|... .. .. ....|... .. .. ....|... .. .. ....|... .. .. ....|... .. .. ....|... .. .. ....|... .. .. ....|... .. .. ....|... .. .. ....|... .. .. ....|C-3 .. .. ....|... .. .. ....|... .. .. ....|... .. .. ....
02 |... .. .. ....|... .. .. ....|... .. .. ....|... .. .. ....|... .. .. ....|G#2 02 7C ....|... .. .. ....|... .. .. ....|... .. .. ....|... .. .. ....|... .. .. ....|C-3 00 .. ....|... .. .. ....|... .. .. ....|... .. .. ....|... .. .. ....
03 |... .. .. ....|... .. .. ....|... .. .. ....|... .. .. ....|... .. .. ....|... .. .. ....|... .. .. ....|... .. .. ....|... .. .. ....|... .. .. ....|... .. .. ....|... .. .. ....|... .. .. ....|... .. .. ....|... .. .. ....|... .. .. ....
04 |... .. .. ....|... .. .. ....|... .. .. ....|G-4 .. .. ....|... .. .. ....|OFF .. .. ....|G-4 .. .. ....|... .. .. ....|... .. .. ....|... .. .. ....|C-3 .. .. ....|... .. .. ....|C-3 .. .. ....|... .. .. ....|... .. .. ....|... .. .. ....
05 |... .. .. ....|... .. .. ....|... .. .. ....|... .. .. ....|... .. .. ....|... .. .. ....|... .. .. ....|... .. .. ....|... .. .. ....|... .. .. ....|... .. .. ....|... .. .. ....|C-3 .. .. ....|... .. .. ....|... .. .. ....|... .. .. ....
06 |... .. .. ....|... .. .. ....|... .. .. ....|G#4 .. .. ....|... .. .. ....|G#2 .. .. ....|G#4 .. .. ....|... .. .. ....|... .. .. ....|... .. .. ....|... .. .. ....|C-3 00 .. ....|... .. .. ....|... .. .. ....|... .. .. ....|... .. .. ....
07 |... .. .. ....|... .. .. ....|... .. .. ....|... .. .. ....|... .. .. ....|... .. .. ....|... .. .. ....|... .. .. ....|... .. .. ....|C-3 .. .. ....|... .. .. ....|... .. .. ....|... .. .. ....|... .. .. ....|... .. .. ....|... .. .. ....
08 |... .. .. ....|... .. .. ....|... .. .. ....|... .. .. ....|... .. .. ....|OFF .. .. ....|... .. .. ....|... .. .. ....|... .. .. ....|... .. .. ....|... .. .. ....|... .. .. ....|C-3 .. .. ....|... .. .. ....|... .. .. ....|... .. .. ....
09 |... .. .. ....|... .. .. ....|... .. .. ....|... .. .. ....|... .. .. ....|... .. .. ....|... .. .. ....|... .. .. ....|... .. .. ....|... .. .. ....|... .. .. ....|... .. .. ....|C-3 .. .. ....|... .. .. ....|... .. .. ....|... .. .. ....
0A |... .. .. ....|... .. .. ....|... .. .. ....|G-4 .. .. ....|... .. .. ....|G#2 .. .. ....|G-4 .. .. ....|... .. .. ....|... .. .. ....|C-3 .. .. ....|... .. .. ....|C-3 00 .. ....|... .. .. ....|... .. .. ....|... .. .. ....|... .. .. ....
0B |... .. .. ....|... .. .. ....|... .. .. ....|... .. .. ....|... .. .. ....|... .. .. ....|... .. .. ....|... .. .. ....|... .. .. ....|... .. .. ....|... .. .. ....|... .. .. ....|... .. .. ....|... .. .. ....|... .. .. ....|... .. .. ....
0C |... .. .. ....|... .. .. ....|... .. .. ....|G#4 .. .. ....|... .. .. ....|OFF .. .. ....|G#4 .. .. ....|... .. .. ....|... .. .. ....|... .. .. ....|C-3 .. .. ....|... .. .. ....|C-3 .. .. ....|... .. .. ....|... .. .. ....|... .. .. ....
0D |... .. .. ....|... .. .. ....|... .. .. ....|... .. .. ....|... .. .. ....|... .. .. ....|... .. .. ....|... .. .. ....|... .. .. ....|... .. .. ....|... .. .. ....|... .. .. ....|C-3 .. .. ....|... .. .. ....|... .. .. ....|... .. .. ....
0E |... .. .. ....|... .. .. ....|... .. .. ....|A#4 .. .. ....|... .. .. ....|G#2 .. .. ....|A#4 .. .. ....|... .. .. ....|... .. .. ....|... .. .. ....|... .. .. ....|C-3 00 .. ....|... .. .. ....|... .. .. ....|... .. .. ....|... .. .. ....
0F |... .. .. ....|... .. .. ....|... .. .. ....|... .. .. ....|... .. .. ....|... .. .. ....|... .. .. ....|... .. .. ....|... .. .. ....|... .. .. ....|... .. .. ....|... .. .. ....|... .. .. ....|... .. .. ....|... .. .. ....|... .. .. ....
10 |D#2 .. .. ....|G#2 .. .. ....|C-3 .. .. ....|C-5 .. .. ....|... .. .. ....|OFF .. .. ....|C-5 .. .. ....|... .. .. ....|... .. .. ....|C-3 .. .. ....|... .. .. ....|... .. .. ....|C-3 .. .. ....|... .. .. ....|... .. .. ....|... .. .. ....
11 |... .. .. ....|... .. .. ....|... .. .. ....|... .. .. ....|... .. .. ....|... .. .. ....|... .. .. ....|... .. .. ....|... .. .. ....|... .. .. ....|... .. .. ....|... .. .. ....|C-3 .. .. ....|... .. .. ....|... .. .. ....|... .. .. ....
12 |... .. .. ....|... .. .. ....|... .. .. ....|G-4 .. .. ....|... .. .. ....|G#2 .. .. ....|G-4 .. .. ....|... .. .. ....|... .. .. ....|... .. .. ....|... .. .. ....|C-3 00 .. ....|... .. .. ....|... .. .. ....|... .. .. ....|... .. .. ....
13 |... .. .. ....|... .. .. ....|... .. .. ....|... .. .. ....|... .. .. ....|... .. .. ....|... .. .. ....|... .. .. ....|... .. .. ....|... .. .. ....|... .. .. ....|... .. .. ....|... .. .. ....|... .. .. ....|... .. .. ....|... .. .. ....
14 |... .. .. ....|... .. .. ....|... .. .. ....|D-5 .. .. ....|... .. .. ....|OFF .. .. ....|D-5 .. .. ....|... .. .. ....|... .. .. ....|... .. .. ....|C-3 .. .. ....|... .. .. ....|C-3 .. .. ....|... .. .. ....|... .. .. ....|... .. .. ....
15 |... .. .. ....|... .. .. ....|... .. .. ....|... .. .. ....|... .. .. ....|... .. .. ....|... .. .. ....|... .. .. ....|... .. .. ....|... .. .. ....|... .. .. ....|... .. .. ....|C-3 .. .. ....|... .. .. ....|... .. .. ....|... .. .. ....
16 |... .. .. ....|... .. .. ....|... .. .. ....|G-4 .. .. ....|... .. .. ....|G#2 .. .. ....|G-4 .. .. ....|... .. .. ....|... .. .. ....|... .. .. ....|... .. .. ....|C-3 00 .. ....|... .. .. ....|... .. .. ....|... .. .. ....|... .. .. ....
17 |... .. .. ....|... .. .. ....|... .. .. ....|... .. .. ....|... .. .. ....|... .. .. ....|... .. .. ....|... .. .. ....|... .. .. ....|C-3 .. .. ....|... .. .. ....|... .. .. ....|... .. .. ....|... .. .. ....|... .. .. ....|... .. .. ....
18 |... .. .. ....|... .. .. ....|... .. .. ....|D#5 .. .. ....|... .. .. ....|OFF .. .. ....|D#5 .. .. ....|... .. .. ....|... .. .. ....|... .. .. ....|... .. .. ....|... .. .. ....|C-3 .. .. ....|... .. .. ....|... .. .. ....|... .. .. ....
19 |... .. .. ....|... .. .. ....|... .. .. ....|... .. .. ....|... .. .. ....|... .. .. ....|... .. .. ....|... .. .. ....|... .. .. ....|... .. .. ....|... .. .. ....|... .. .. ....|C-3 .. .. ....|... .. .. ....|... .. .. ....|... .. .. ....
1A |... .. .. ....|... .. .. ....|... .. .. ....|... .. .. ....|... .. .. ....|G#2 .. .. ....|... .. .. ....|... .. .. ....|... .. .. ....|C-3 .. .. ....|... .. .. ....|C-3 00 .. ....|... .. .. ....|... .. .. ....|... .. .. ....|... .. .. ....
1B |... .. .. ....|... .. .. ....|... .. .. ....|... .. .. ....|... .. .. ....|... .. .. ....|... .. .. ....|... .. .. ....|... .. .. ....|... .. .. ....|... .. .. ....|... .. .. ....|... .. .. ....|... .. .. ....|... .. .. ....|... .. .. ....
1C |... .. .. ....|... .. .. ....|... .. .. ....|... .. .. ....|... .. .. ....|OFF .. .. ....|... .. .. ....|... .. .. ....|... .. .. ....|... .. .. ....|C-3 .. .. ....|... .. .. ....|C-3 .. .. ....|... .. .. ....|... .. .. ....|... .. .. ....
1D |... .. .. ....|... .. .. ....|... .. .. ....|... .. .. ....|... .. .. ....|... .. .. ....|... .. .. ....|... .. .. ....|... .. .. ....|... .. .. ....|... .. .. ....|... .. .. ....|C-3 .. .. ....|... .. .. ....|... .. .. ....|... .. .. ....
1E |... .. .. ....|... .. .. ....|... .. .. ....|... .. .. ....|... .. .. ....|G#2 .. .. ....|... .. .. ....|... .. .. ....|... .. .. ....|C-3 .. .. ....|... .. .. ....|C-3 00 .. ....|... .. .. ....|... .. .. ....|... .. .. ....|... .. .. ....
1F |... .. .. ....|... .. .. ....|... .. .. ....|... .. .. ....|... .. .. ....|... .. .. ....|... .. .. ....|... .. .. ....|... .. .. ....|... .. .. ....|... .. .. ....|... .. .. ....|... .. .. ....|... .. .. ....|... .. .. ....|... .. .. ....
----- ORDER 0D
00 |C-2 00 73 ....|G-2 00 73 ....|C-3 00 73 ....|C-5 .. .. ....|... .. .. ....|OFF .. .. ....|C-5 .. .. ....|... .. .. ....|... .. .. ....|C-3 .. .. ....|... .. .. ....|... .. .. ....|C-3 .. .. ....|... .. .. ....|... .. .. ....|... .. .. ....
01 |... .. .. ....|... .. .. ....|... .. .. ....|... .. .. ....|... .. .. ....|... .. .. ....|... .. .. ....|... .. .. ....|... .. .. ....|... .. .. ....|... .. .. ....|... .. .. ....|C-3 .. .. ....|... .. .. ....|... .. .. ....|... .. .. ....
02 |... .. .. ....|... .. .. ....|... .. .. ....|A#4 .. .. ....|... .. .. ....|C-3 .. .. ....|A#4 .. .. ....|... .. .. ....|... .. .. ....|... .. .. ....|... .. .. ....|C-3 00 .. ....|... .. .. ....|... .. .. ....|... .. .. ....|... .. .. ....
03 |... .. .. ....|... .. .. ....|... .. .. ....|... .. .. ....|... .. .. ....|... .. .. ....|... .. .. ....|... .. .. ....|... .. .. ....|... .. .. ....|... .. .. ....|... .. .. ....|... .. .. ....|... .. .. ....|... .. .. ....|... .. .. ....
04 |... .. .. ....|... .. .. ....|... .. .. ....|G-4 .. .. ....|... .. .. ....|OFF .. .. ....|G-4 .. .. ....|... .. .. ....|... .. .. ....|... .. .. ....|C-3 .. .. ....|... .. .. ....|C-3 .. .. ....|... .. .. ....|... .. .. ....|... .. .. ....
05 |... .. .. ....|... .. .. ....|... .. .. ....|... .. .. ....|... .. .. ....|... .. .. ....|... .. .. ....|... .. .. ....|... .. .. ....|... .. .. ....|... .. .. ....|... .. .. ....|C-3 .. .. ....|... .. .. ....|... .. .. ....|... .. .. ....
06 |... .. .. ....|... .. .. ....|... .. .. ....|A#4 .. .. ....|... .. .. ....|C-3 .. .. ....|A#4 .. .. ....|... .. .. ....|... .. .. ....|... .. .. ....|... .. .. ....|C-3 00 .. ....|... .. .. ....|... .. .. ....|... .. .. ....|... .. .. ....
07 |... .. .. ....|... .. .. ....|... .. .. ....|... .. .. ....|... .. .. ....|... .. .. ....|... .. .. ....|... .. .. ....|... .. .. ....|C-3 .. .. ....|... .. .. ....|... .. .. ....|... .. .. ....|... .. .. ....|... .. .. ....|... .. .. ....
08 |... .. .. ....|... .. .. ....|... .. .. ....|F-5 .. .. ....|... .. .. ....|OFF .. .. ....|F-5 .. .. ....|... .. .. ....|... .. .. ....|... .. .. ....|... .. .. ....|... .. .. ....|C-3 .. .. ....|... .. .. ....|... .. .. ....|... .. .. ....
09 |... .. .. ....|... .. .. ....|... .. .. ....|... .. .. ....|... .. .. ....|... .. .. ....|... .. .. ....|... .. .. ....|... .. .. ....|... .. .. ....|... .. .. ....|... .. .. ....|C-3 .. .. ....|... .. .. ....|... .. .. ....|... .. .. ....
0A |... .. .. ....|... .. .. ....|... .. .. ....|G-5 .. .. ....|... .. .. ....|C-3 .. .. ....|G-5 .. .. ....|... .. .. ....|... .. .. ....|C-3 .. .. ....|... .. .. ....|C-3 00 .. ....|... .. .. ....|... .. .. ....|... .. .. ....|... .. .. ....
0B |... .. .. ....|... .. .. ....|... .. .. ....|... .. .. ....|... .. .. ....|... .. .. ....|... .. .. ....|... .. .. ....|... .. .. ....|... .. .. ....|... .. .. ....|... .. .. ....|... .. .. ....|... .. .. ....|... .. .. ....|... .. .. ....
0C |... .. .. ....|... .. .. ....|... .. .. ....|D-5 .. .. ....|... .. .. ....|OFF .. .. ....|D-5 .. .. ....|... .. .. ....|... .. .. ....|... .. .. ....|C-3 .. .. ....|... .. .. ....|C-3 .. .. ....|... .. .. ....|... .. .. ....|... .. .. ....
0D |... .. .. ....|... .. .. ....|... .. .. ....|... .. .. ....|... .. .. ....|... .. .. ....|... .. .. ....|... .. .. ....|... .. .. ....|... .. .. ....|... .. .. ....|... .. .. ....|C-3 .. .. ....|... .. .. ....|... .. .. ....|... .. .. ....
0E |... .. .. ....|... .. .. ....|... .. .. ....|A#4 .. .. ....|... .. .. ....|C-3 .. .. ....|A#4 .. .. ....|... .. .. ....|... .. .. ....|... .. .. ....|... .. .. ....|C-3 00 .. ....|... .. .. ....|... .. .. ....|... .. .. ....|... .. .. ....
0F |... .. .. ....|... .. .. ....|... .. .. ....|... .. .. ....|... .. .. ....|... .. .. ....|... .. .. ....|... .. .. ....|... .. .. ....|... .. .. ....|... .. .. ....|... .. .. ....|... .. .. ....|... .. .. ....|... .. .. ....|... .. .. ....
10 |C-2 .. .. ....|G-2 .. .. ....|C-3 .. .. ....|C-5 .. .. ....|... .. .. ....|OFF .. .. ....|C-5 .. .. ....|... .. .. ....|... .. .. ....|C-3 .. .. ....|... .. .. ....|... .. .. ....|C-3 .. .. ....|... .. .. ....|... .. .. ....|... .. .. ....
11 |... .. .. ....|... .. .. ....|... .. .. ....|... .. .. ....|... .. .. ....|... .. .. ....|... .. .. ....|... .. .. ....|... .. .. ....|... .. .. ....|... .. .. ....|... .. .. ....|C-3 .. .. ....|... .. .. ....|... .. .. ....|... .. .. ....
12 |... .. .. ....|... .. .. ....|... .. .. ....|... .. .. ....|... .. .. ....|C-3 .. .. ....|... .. .. ....|... .. .. ....|... .. .. ....|... .. .. ....|... .. .. ....|C-3 00 .. ....|... .. .. ....|... .. .. ....|... .. .. ....|... .. .. ....
13 |... .. .. ....|... .. .. ....|... .. .. ....|... .. .. ....|... .. .. ....|... .. .. ....|... .. .. ....|... .. .. ....|... .. .. ....|... .. .. ....|... .. .. ....|... .. .. ....|... .. .. ....|... .. .. ....|... .. .. ....|... .. .. ....
14 |... .. .. ....|... .. .. ....|... .. .. ....|... .. .. ....|... .. .. ....|OFF .. .. ....|... .. .. ....|... .. .. ....|... .. .. ....|... .. .. ....|C-3 .. .. ....|... .. .. ....|C-3 .. .. ....|... .. .. ....|... .. .. ....|... .. .. ....
15 |... .. .. ....|... .. .. ....|... .. .. ....|... .. .. ....|... .. .. ....|... .. .. ....|... .. .. ....|... .. .. ....|... .. .. ....|... .. .. ....|... .. .. ....|... .. .. ....|C-3 .. .. ....|... .. .. ....|... .. .. ....|... .. .. ....
16 |... .. .. ....|... .. .. ....|... .. .. ....|... .. .. ....|... .. .. ....|C-3 .. .. ....|... .. .. ....|... .. .. ....|... .. .. ....|... .. .. ....|... .. .. ....|C-3 00 .. ....|... .. .. ....|... .. .. ....|... .. .. ....|... .. .. ....
17 |... .. .. ....|... .. .. ....|... .. .. ....|... .. .. ....|... .. .. ....|... .. .. ....|... .. .. ....|... .. .. ....|... .. .. ....|C-3 .. .. ....|... .. .. ....|... .. .. ....|... .. .. ....|... .. .. ....|... .. .. ....|... .. .. ....
18 |... .. .. ....|... .. .. ....|... .. .. ....|... .. .. ....|... .. .. ....|OFF .. .. ....|... .. .. ....|... .. .. ....|... .. .. ....|... .. .. ....|... .. .. ....|... .. .. ....|C-3 .. .. ....|... .. .. ....|... .. .. ....|... .. .. ....
19 |... .. .. ....|... .. .. ....|... .. .. ....|... .. .. ....|... .. .. ....|... .. .. ....|... .. .. ....|... .. .. ....|... .. .. ....|... .. .. ....|... .. .. ....|... .. .. ....|C-3 .. .. ....|... .. .. ....|... .. .. ....|... .. .. ....
1A |... .. .. ....|... .. .. ....|... .. .. ....|... .. .. ....|... .. .. ....|C-3 .. .. ....|... .. .. ....|... .. .. ....|... .. .. ....|C-3 .. .. ....|... .. .. ....|C-3 00 .. ....|... .. .. ....|... .. .. ....|... .. .. ....|... .. .. ....
1B |... .. .. ....|... .. .. ....|... .. .. ....|... .. .. ....|... .. .. ....|... .. .. ....|... .. .. ....|... .. .. ....|... .. .. ....|... .. .. ....|... .. .. ....|... .. .. ....|... .. .. ....|... .. .. ....|... .. .. ....|... .. .. ....
1C |... .. .. ....|... .. .. ....|... .. .. ....|... .. .. ....|... .. .. ....|OFF .. .. ....|... .. .. ....|... .. .. ....|... .. .. ....|... .. .. ....|C-3 .. .. ....|... .. .. ....|C-3 .. .. ....|... .. .. ....|... .. .. ....|... .. .. ....
1D |... .. .. ....|... .. .. ....|... .. .. ....|... .. .. ....|... .. .. ....|... .. .. ....|... .. .. ....|... .. .. ....|... .. .. ....|... .. .. ....|... .. .. ....|... .. .. ....|C-3 .. .. ....|... .. .. ....|... .. .. ....|... .. .. ....
1E |... .. .. ....|... .. .. ....|... .. .. ....|... .. .. ....|... .. .. ....|C-3 .. .. ....|... .. .. ....|... .. .. ....|... .. .. ....|C-3 .. .. ....|... .. .. ....|C-3 00 .. ....|... .. .. ....|... .. .. ....|... .. .. ....|... .. .. ....
1F |... .. .. ....|... .. .. ....|... .. .. ....|... .. .. ....|... .. .. ....|... .. .. ....|... .. .. ....|... .. .. ....|... .. .. ....|... .. .. ....|... .. .. ....|... .. .. ....|... .. .. ....|... .. .. ....|... .. .. ....|... .. .. ....
----- ORDER 0E
00 |D#2 .. .. ....|G#2 .. .. ....|C-3 .. .. ....|C-5 01 72 ....|... .. .. ....|OFF .. .. ....|C-5 .. .. ....|D#5 09 0B ....|... .. .. ....|C-3 .. .. ....|... .. .. ....|... .. .. ....|C-3 .. .. ....|... .. .. ....|... .. .. ....|... .. .. ....
01 |... .. .. ....|... .. .. ....|... .. .. ....|... .. .. ....|... .. .. ....|... .. .. ....|... .. .. ....|... .. .. ....|... .. .. ....|... .. .. ....|... .. .. ....|... .. .. ....|C-3 .. .. ....|... .. .. ....|... .. .. ....|... .. .. ....
02 |... .. .. ....|... .. .. ....|... .. .. ....|... .. .. ....|... .. .. ....|G#2 02 7C ....|... .. .. ....|... .. .. ....|... .. .. ....|... .. .. ....|... .. .. ....|C-3 00 .. ....|... .. .. ....|... .. .. ....|... .. .. ....|... .. .. ....
03 |... .. .. ....|... .. .. ....|... .. .. ....|... .. .. ....|... .. .. ....|... .. .. ....|... .. .. ....|... .. .. ....|... .. .. ....|... .. .. ....|... .. .. ....|... .. .. ....|... .. .. ....|... .. .. ....|... .. .. ....|... .. .. ....
04 |... .. .. ....|... .. .. ....|... .. .. ....|A#4 .. .. ....|... .. .. ....|OFF .. .. ....|A#4 .. .. ....|D-5 .. .. ....|... .. .. ....|... .. .. ....|C-3 .. .. ....|... .. .. ....|C-3 .. .. ....|... .. .. ....|... .. .. ....|... .. .. ....
05 |... .. .. ....|... .. .. ....|... .. .. ....|... .. .. ....|... .. .. ....|... .. .. ....|... .. .. ....|... .. .. ....|... .. .. ....|... .. .. ....|... .. .. ....|... .. .. ....|C-3 .. .. ....|... .. .. ....|... .. .. ....|... .. .. ....
06 |... .. .. ....|... .. .. ....|... .. .. ....|C-5 .. .. ....|... .. .. ....|G#2 .. .. ....|C-5 .. .. ....|D#5 .. .. ....|... .. .. ....|... .. .. ....|... .. .. ....|C-3 00 .. ....|... .. .. ....|... .. .. ....|... .. .. ....|... .. .. ....
07 |... .. .. ....|... .. .. ....|... .. .. ....|... .. .. ....|... .. .. ....|... .. .. ....|... .. .. ....|... .. .. ....|... .. .. ....|C-3 .. .. ....|... .. .. ....|... .. .. ....|... .. .. ....|... .. .. ....|... .. .. ....|... .. .. ....
08 |... .. .. ....|... .. .. ....|... .. .. ....|... .. .. ....|... .. .. ....|OFF .. .. ....|... .. .. ....|... .. .. ....|... .. .. ....|... .. .. ....|... .. .. ....|... .. .. ....|C-3 .. .. ....|... .. .. ....|... .. .. ....|... .. .. ....
09 |... .. .. ....|... .. .. ....|... .. .. ....|... .. .. ....|... .. .. ....|... .. .. ....|... .. .. ....|... .. .. ....|... .. .. ....|... .. .. ....|... .. .. ....|... .. .. ....|C-3 .. .. ....|... .. .. ....|... .. .. ....|... .. .. ....
0A |... .. .. ....|... .. .. ....|... .. .. ....|A#4 .. .. ....|... .. .. ....|G#2 .. .. ....|A#4 .. .. ....|D-5 .. .. ....|... .. .. ....|C-3 .. .. ....|... .. .. ....|C-3 00 .. ....|... .. .. ....|... .. .. ....|... .. .. ....|... .. .. ....
0B |... .. .. ....|... .. .. ....|... .. .. ....|... .. .. ....|... .. .. ....|... .. .. ....|... .. .. ....|... .. .. ....|... .. .. ....|... .. .. ....|... .. .. ....|... .. .. ....|... .. .. ....|... .. .. ....|... .. .. ....|... .. .. ....
0C |... .. .. ....|... .. .. ....|... .. .. ....|C-5 .. .. ....|... .. .. ....|OFF .. .. ....|C-5 .. .. ....|D#5 .. .. ....|... .. .. ....|... .. .. ....|C-3 .. .. ....|... .. .. ....|C-3 .. .. ....|... .. .. ....|... .. .. ....|... .. .. ....
0D |... .. .. ....|... .. .. ....|... .. .. ....|... .. .. ....|... .. .. ....|... .. .. ....|... .. .. ....|... .. .. ....|... .. .. ....|... .. .. ....|... .. .. ....|... .. .. ....|C-3 .. .. ....|... .. .. ....|... .. .. ....|... .. .. ....
0E |... .. .. ....|... .. .. ....|... .. .. ....|D-5 .. .. ....|... .. .. ....|G#2 .. .. ....|D-5 .. .. ....|F-5 .. .. ....|... .. .. ....|... .. .. ....|... .. .. ....|C-3 00 .. ....|... .. .. ....|... .. .. ....|... .. .. ....|... .. .. ....
0F |... .. .. ....|... .. .. ....|... .. .. ....|... .. .. ....|... .. .. ....|... .. .. ....|... .. .. ....|... .. .. ....|... .. .. ....|... .. .. ....|... .. .. ....|... .. .. ....|... .. .. ....|... .. .. ....|... .. .. ....|... .. .. ....
10 |D#2 .. .. ....|G#2 .. .. ....|C-3 .. .. ....|D#5 .. .. ....|... .. .. ....|OFF .. .. ....|D#5 .. .. ....|G-5 .. .. ....|... .. .. ....|C-3 .. .. ....|... .. .. ....|... .. .. ....|C-3 .. .. ....|... .. .. ....|... .. .. ....|... .. .. ....
11 |... .. .. ....|... .. .. ....|... .. .. ....|... .. .. ....|... .. .. ....|... .. .. ....|... .. .. ....|... .. .. ....|... .. .. ....|... .. .. ....|... .. .. ....|... .. .. ....|C-3 .. .. ....|... .. .. ....|... .. .. ....|... .. .. ....
12 |... .. .. ....|... .. .. ....|... .. .. ....|G-4 .. .. ....|... .. .. ....|G#2 .. .. ....|G-4 .. .. ....|A#4 .. .. ....|... .. .. ....|... .. .. ....|... .. .. ....|C-3 00 .. ....|... .. .. ....|... .. .. ....|... .. .. ....|... .. .. ....
13 |... .. .. ....|... .. .. ....|... .. .. ....|... .. .. ....|... .. .. ....|... .. .. ....|... .. .. ....|... .. .. ....|... .. .. ....|... .. .. ....|... .. .. ....|... .. .. ....|... .. .. ....|... .. .. ....|... .. .. ....|... .. .. ....
14 |... .. .. ....|... .. .. ....|... .. .. ....|D-5 .. .. ....|... .. .. ....|OFF .. .. ....|D-5 .. .. ....|F-5 .. .. ....|... .. .. ....|... .. .. ....|C-3 .. .. ....|... .. .. ....|C-3 .. .. ....|... .. .. ....|... .. .. ....|... .. .. ....
15 |... .. .. ....|... .. .. ....|... .. .. ....|... .. .. ....|... .. .. ....|... .. .. ....|... .. .. ....|... .. .. ....|... .. .. ....|... .. .. ....|... .. .. ....|... .. .. ....|C-3 .. .. ....|... .. .. ....|... .. .. ....|... .. .. ....
16 |... .. .. ....|... .. .. ....|... .. .. ....|G-4 .. .. ....|... .. .. ....|G#2 .. .. ....|G-4 .. .. ....|A#4 .. .. ....|... .. .. ....|... .. .. ....|... .. .. ....|C-3 00 .. ....|... .. .. ....|... .. .. ....|... .. .. ....|... .. .. ....
17 |... .. .. ....|... .. .. ....|... .. .. ....|... .. .. ....|... .. .. ....|... .. .. ....|... .. .. ....|... .. .. ....|... .. .. ....|C-3 .. .. ....|... .. .. ....|... .. .. ....|... .. .. ....|... .. .. ....|... .. .. ....|... .. .. ....
18 |... .. .. ....|... .. .. ....|... .. .. ....|C-5 .. .. ....|... .. .. ....|OFF .. .. ....|C-5 .. .. ....|D#5 .. .. ....|... .. .. ....|... .. .. ....|... .. .. ....|... .. .. ....|C-3 .. .. ....|... .. .. ....|... .. .. ....|... .. .. ....
19 |... .. .. ....|... .. .. ....|... .. .. ....|... .. .. ....|... .. .. ....|... .. .. ....|... .. .. ....|... .. .. ....|... .. .. ....|... .. .. ....|... .. .. ....|... .. .. ....|C-3 .. .. ....|... .. .. ....|... .. .. ....|... .. .. ....
1A |... .. .. ....|... .. .. ....|... .. .. ....|... .. .. ....|... .. .. ....|G#2 .. .. ....|... .. .. ....|... .. .. ....|... .. .. ....|C-3 .. .. ....|... .. .. ....|C-3 00 .. ....|... .. .. ....|... .. .. ....|... .. .. ....|... .. .. ....
1B |... .. .. ....|... .. .. ....|... .. .. ....|... .. .. ....|... .. .. ....|... .. .. ....|... .. .. ....|... .. .. ....|... .. .. ....|... .. .. ....|... .. .. ....|... .. .. ....|... .. .. ....|... .. .. ....|... .. .. ....|... .. .. ....
1C |... .. .. ....|... .. .. ....|... .. .. ....|... .. .. ....|... .. .. ....|OFF .. .. ....|... .. .. ....|... .. .. ....|... .. .. ....|... .. .. ....|C-3 .. .. ....|... .. .. ....|C-3 .. .. ....|... .. .. ....|... .. .. ....|... .. .. ....
1D |... .. .. ....|... .. .. ....|... .. .. ....|... .. .. ....|... .. .. ....|... .. .. ....|... .. .. ....|... .. .. ....|... .. .. ....|... .. .. ....|... .. .. ....|... .. .. ....|C-3 .. .. ....|... .. .. ....|... .. .. ....|... .. .. ....
1E |... .. .. ....|... .. .. ....|... .. .. ....|... .. .. ....|... .. .. ....|G#2 .. .. ....|... .. .. ....|... .. .. ....|... .. .. ....|C-3 .. .. ....|... .. .. ....|C-3 00 .. ....|... .. .. ....|... .. .. ....|... .. .. ....|... .. .. ....
1F |... .. .. ....|... .. .. ....|... .. .. ....|... .. .. ....|... .. .. ....|... .. .. ....|... .. .. ....|... .. .. ....|... .. .. ....|... .. .. ....|... .. .. ....|... .. .. ....|... .. .. ....|... .. .. ....|... .. .. ....|... .. .. ....
----- ORDER 0F
00 |C-2 00 73 ....|G-2 00 73 ....|C-3 00 73 ....|C-5 .. .. ....|... .. .. ....|OFF .. .. ....|C-5 .. .. ....|D#5 .. .. ....|... .. .. ....|C-3 .. .. ....|... .. .. ....|... .. .. ....|C-3 .. .. ....|... .. .. ....|... .. .. ....|... .. .. ....
01 |... .. .. ....|... .. .. ....|... .. .. ....|... .. .. ....|... .. .. ....|... .. .. ....|... .. .. ....|... .. .. ....|... .. .. ....|... .. .. ....|... .. .. ....|... .. .. ....|C-3 .. .. ....|... .. .. ....|... .. .. ....|... .. .. ....
02 |... .. .. ....|... .. .. ....|... .. .. ....|A#4 .. .. ....|... .. .. ....|C-3 .. .. ....|A#4 .. .. ....|D-5 .. .. ....|... .. .. ....|... .. .. ....|... .. .. ....|C-3 00 .. ....|... .. .. ....|... .. .. ....|... .. .. ....|... .. .. ....
03 |... .. .. ....|... .. .. ....|... .. .. ....|... .. .. ....|... .. .. ....|... .. .. ....|... .. .. ....|... .. .. ....|... .. .. ....|... .. .. ....|... .. .. ....|... .. .. ....|... .. .. ....|... .. .. ....|... .. .. ....|... .. .. ....
04 |... .. .. ....|... .. .. ....|... .. .. ....|G-4 .. .. ....|... .. .. ....|OFF .. .. ....|G-4 .. .. ....|A#4 .. .. ....|... .. .. ....|... .. .. ....|C-3 .. .. ....|... .. .. ....|C-3 .. .. ....|... .. .. ....|... .. .. ....|... .. .. ....
05 |... .. .. ....|... .. .. ....|... .. .. ....|... .. .. ....|... .. .. ....|... .. .. ....|... .. .. ....|... .. .. ....|... .. .. ....|... .. .. ....|... .. .. ....|... .. .. ....|C-3 .. .. ....|... .. .. ....|... .. .. ....|... .. .. ....
06 |... .. .. ....|... .. .. ....|... .. .. ....|A#4 .. .. ....|... .. .. ....|C-3 .. .. ....|A#4 .. .. ....|D-5 .. .. ....|... .. .. ....|... .. .. ....|... .. .. ....|C-3 00 .. ....|... .. .. ....|... .. .. ....|... .. .. ....|... .. .. ....
07 |... .. .. ....|... .. .. ....|... .. .. ....|... .. .. ....|... .. .. ....|... .. .. ....|... .. .. ....|... .. .. ....|... .. .. ....|C-3 .. .. ....|... .. .. ....|... .. .. ....|... .. .. ....|... .. .. ....|... .. .. ....|... .. .. ....
08 |... .. .. ....|... .. .. ....|... .. .. ....|F-4 .. .. ....|... .. .. ....|OFF .. .. ....|F-4 .. .. ....|A#4 .. .. ....|... .. .. ....|... .. .. ....|... .. .. ....|... .. .. ....|C-3 .. .. ....|... .. .. ....|... .. .. ....|... .. .. ....
09 |... .. .. ....|... .. .. ....|... .. .. ....|... .. .. ....|... .. .. ....|... .. .. ....|... .. .. ....|... .. .. ....|... .. .. ....|... .. .. ....|... .. .. ....|... .. .. ....|C-3 .. .. ....|... .. .. ....|... .. .. ....|... .. .. ....
0A |... .. .. ....|... .. .. ....|... .. .. ....|... .. .. ....|... .. .. ....|C-3 .. .. ....|... .. .. ....|... .. .. ....|... .. .. ....|C-3 .. .. ....|... .. .. ....|C-3 00 .. ....|... .. .. ....|... .. .. ....|... .. .. ....|... .. .. ....
0B |... .. .. ....|... .. .. ....|... .. .. ....|... .. .. ....|... .. .. ....|... .. .. ....|... .. .. ....|... .. .. ....|... .. .. ....|... .. .. ....|... .. .. ....|... .. .. ....|... .. .. ....|... .. .. ....|... .. .. ....|... .. .. ....
0C |... .. .. ....|... .. .. ....|... .. .. ....|... .. .. ....|... .. .. ....|OFF .. .. ....|... .. .. ....|... .. .. ....|... .. .. ....|... .. .. ....|C-3 .. .. ....|... .. .. ....|C-3 .. .. ....|... .. .. ....|... .. .. ....|... .. .. ....
0D |... .. .. ....|... .. .. ....|... .. .. ....|... .. .. ....|... .. .. ....|... .. .. ....|... .. .. ....|... .. .. ....|... .. .. ....|... .. .. ....|... .. .. ....|... .. .. ....|C-3 .. .. ....|... .. .. ....|... .. .. ....|... .. .. ....
0E |... .. .. ....|... .. .. ....|... .. .. ....|... .. .. ....|... .. .. ....|C-3 .. .. ....|... .. .. ....|... .. .. ....|... .. .. ....|... .. .. ....|... .. .. ....|C-3 00 .. ....|... .. .. ....|... .. .. ....|... .. .. ....|... .. .. ....
0F |... .. .. ....|... .. .. ....|... .. .. ....|... .. .. ....|... .. .. ....|... .. .. ....|... .. .. ....|... .. .. ....|... .. .. ....|... .. .. ....|... .. .. ....|... .. .. ....|... .. .. ....|... .. .. ....|... .. .. ....|... .. .. ....
10 |C-2 .. .. ....|G-2 .. .. ....|C-3 .. .. ....|F-4 .. .. ....|... .. .. ....|OFF .. .. ....|F-4 .. .. ....|A#4 .. .. ....|... .. .. ....|C-3 .. .. ....|... .. .. ....|... .. .. ....|C-3 .. .. ....|... .. .. ....|... .. .. ....|... .. .. ....
11 |... .. .. ....|... .. .. ....|... .. .. ....|... .. .. ....|... .. .. ....|... .. .. ....|... .. .. ....|... .. .. ....|... .. .. ....|... .. .. ....|... .. .. ....|... .. .. ....|C-3 .. .. ....|... .. .. ....|... .. .. ....|... .. .. ....
12 |... .. .. ....|... .. .. ....|... .. .. ....|D#4 .. .. ....|... .. .. ....|C-3 .. .. ....|D#4 .. .. ....|G#4 .. .. ....|... .. .. ....|... .. .. ....|... .. .. ....|C-3 00 .. ....|... .. .. ....|... .. .. ....|... .. .. ....|... .. .. ....
13 |... .. .. ....|... .. .. ....|... .. .. ....|... .. .. ....|... .. .. ....|... .. .. ....|... .. .. ....|... .. .. ....|... .. .. ....|... .. .. ....|... .. .. ....|... .. .. ....|... .. .. ....|... .. .. ....|... .. .. ....|... .. .. ....
14 |... .. .. ....|... .. .. ....|... .. .. ....|C-4 .. .. ....|... .. .. ....|OFF .. .. ....|C-4 .. .. ....|F-4 .. .. ....|... .. .. ....|... .. .. ....|C-3 .. .. ....|... .. .. ....|C-3 .. .. ....|... .. .. ....|... .. .. ....|... .. .. ....
15 |... .. .. ....|... .. .. ....|... .. .. ....|... .. .. ....|... .. .. ....|... .. .. ....|... .. .. ....|... .. .. ....|... .. .. ....|... .. .. ....|... .. .. ....|... .. .. ....|C-3 .. .. ....|... .. .. ....|... .. .. ....|... .. .. ....
16 |... .. .. ....|... .. .. ....|... .. .. ....|D#4 .. .. ....|... .. .. ....|C-3 .. .. ....|D#4 .. .. ....|G#4 .. .. ....|... .. .. ....|... .. .. ....|... .. .. ....|C-3 00 .. ....|... .. .. ....|... .. .. ....|... .. .. ....|... .. .. ....
17 |... .. .. ....|... .. .. ....|... .. .. ....|... .. .. ....|... .. .. ....|... .. .. ....|... .. .. ....|... .. .. ....|... .. .. ....|C-3 .. .. ....|... .. .. ....|... .. .. ....|... .. .. ....|... .. .. ....|... .. .. ....|... .. .. ....
18 |... .. .. ....|... .. .. ....|... .. .. ....|G-4 .. .. ....|... .. .. ....|OFF .. .. ....|G-4 .. .. ....|A#4 .. .. ....|... .. .. ....|... .. .. ....|... .. .. ....|... .. .. ....|C-3 .. .. ....|... .. .. ....|... .. .. ....|... .. .. ....
19 |... .. .. ....|... .. .. ....|... .. .. ....|... .. .. ....|... .. .. ....|... .. .. ....|... .. .. ....|... .. .. ....|... .. .. ....|... .. .. ....|... .. .. ....|... .. .. ....|C-3 .. .. ....|... .. .. ....|... .. .. ....|... .. .. ....
1A |... .. .. ....|... .. .. ....|... .. .. ....|... .. .. ....|... .. .. ....|C-3 .. .. ....|... .. .. ....|... .. .. ....|... .. .. ....|C-3 .. .. ....|... .. .. ....|C-3 00 .. ....|... .. .. ....|... .. .. ....|... .. .. ....|... .. .. ....
1B |... .. .. ....|... .. .. ....|... .. .. ....|... .. .. ....|... .. .. ....|... .. .. ....|... .. .. ....|... .. .. ....|... .. .. ....|... .. .. ....|... .. .. ....|... .. .. ....|... .. .. ....|... .. .. ....|... .. .. ....|... .. .. ....
1C |... .. .. ....|... .. .. ....|... .. .. ....|... .. .. ....|... .. .. ....|OFF .. .. ....|... .. .. ....|... .. .. ....|... .. .. ....|... .. .. ....|C-3 .. .. ....|... .. .. ....|C-3 .. .. ....|... .. .. ....|... .. .. ....|... .. .. ....
1D |... .. .. ....|... .. .. ....|... .. .. ....|... .. .. ....|... .. .. ....|... .. .. ....|... .. .. ....|... .. .. ....|... .. .. ....|... .. .. ....|... .. .. ....|... .. .. ....|C-3 .. .. ....|... .. .. ....|... .. .. ....|... .. .. ....
1E |... .. .. ....|... .. .. ....|... .. .. ....|... .. .. ....|... .. .. ....|C-3 .. .. ....|... .. .. ....|... .. .. ....|... .. .. ....|C-3 .. .. ....|... .. .. ....|C-3 00 .. ....|... .. .. ....|... .. .. ....|... .. .. ....|... .. .. ....
1F |... .. .. ....|... .. .. ....|... .. .. ....|... .. .. ....|... .. .. ....|... .. .. ....|... .. .. ....|... .. .. ....|... .. .. ....|... .. .. ....|... .. .. ....|... .. .. ....|... .. .. ....|... .. .. ....|... .. .. ....|... .. .. ....
----- ORDER 10
00 |D#2 .. .. ....|G#2 .. .. ....|C-3 .. .. ....|G#4 .. .. ....|... .. .. ....|OFF .. .. ....|G#4 .. .. ....|C-5 .. .. ....|... .. .. ....|C-3 .. .. ....|... .. .. ....|... .. .. ....|C-3 .. .. ....|... .. .. ....|... .. .. ....|... .. .. ....
01 |... .. .. ....|... .. .. ....|... .. .. ....|... .. .. ....|... .. .. ....|... .. .. ....|... .. .. ....|... .. .. ....|... .. .. ....|... .. .. ....|... .. .. ....|... .. .. ....|C-3 .. .. ....|... .. .. ....|... .. .. ....|... .. .. ....
02 |... .. .. ....|... .. .. ....|... .. .. ....|... .. .. ....|... .. .. ....|G#2 02 7C ....|... .. .. ....|... .. .. ....|... .. .. ....|... .. .. ....|... .. .. ....|C-3 00 .. ....|... .. .. ....|... .. .. ....|... .. .. ....|... .. .. ....
03 |... .. .. ....|... .. .. ....|... .. .. ....|... .. .. ....|... .. .. ....|... .. .. ....|... .. .. ....|... .. .. ....|... .. .. ....|... .. .. ....|... .. .. ....|... .. .. ....|... .. .. ....|... .. .. ....|... .. .. ....|... .. .. ....
04 |... .. .. ....|... .. .. ....|... .. .. ....|G-4 .. .. ....|... .. .. ....|OFF .. .. ....|G-4 .. .. ....|A#4 .. .. ....|... .. .. ....|... .. .. ....|C-3 .. .. ....|... .. .. ....|C-3 .. .. ....|... .. .. ....|... .. .. ....|... .. .. ....
05 |... .. .. ....|... .. .. ....|... .. .. ....|... .. .. ....|... .. .. ....|... .. .. ....|... .. .. ....|... .. .. ....|... .. .. ....|... .. .. ....|... .. .. ....|... .. .. ....|C-3 .. .. ....|... .. .. ....|... .. .. ....|... .. .. ....
06 |... .. .. ....|... .. .. ....|... .. .. ....|G#4 .. .. ....|... .. .. ....|G#2 .. .. ....|G#4 .. .. ....|C-5 .. .. ....|... .. .. ....|... .. .. ....|... .. .. ....|C-3 00 .. ....|... .. .. ....|... .. .. ....|... .. .. ....|... .. .. ....
07 |... .. .. ....|... .. .. ....|... .. .. ....|... .. .. ....|... .. .. ....|... .. .. ....|... .. .. ....|... .. .. ....|... .. .. ....|C-3 .. .. ....|... .. .. ....|... .. .. ....|... .. .. ....|... .. .. ....|... .. .. ....|... .. .. ....
08 |... .. .. ....|... .. .. ....|... .. .. ....|... .. .. ....|... .. .. ....|OFF .. .. ....|... .. .. ....|... .. .. ....|... .. .. ....|... .. .. ....|... .. .. ....|... .. .. ....|C-3 .. .. ....|... .. .. ....|... .. .. ....|... .. .. ....
09 |... .. .. ....|... .. .. ....|... .. .. ....|... .. .. ....|... .. .. ....|... .. .. ....|... .. .. ....|... .. .. ....|... .. .. ....|... .. .. ....|... .. .. ....|... .. .. ....|C-3 .. .. ....|... .. .. ....|... .. .. ....|... .. .. ....
0A |... .. .. ....|... .. .. ....|... .. .. ....|G-4 .. .. ....|... .. .. ....|G#2 .. .. ....|G-4 .. .. ....|A#4 .. .. ....|... .. .. ....|C-3 .. .. ....|... .. .. ....|C-3 00 .. ....|... .. .. ....|... .. .. ....|... .. .. ....|... .. .. ....
0B |... .. .. ....|... .. .. ....|... .. .. ....|... .. .. ....|... .. .. ....|... .. .. ....|... .. .. ....|... .. .. ....|... .. .. ....|... .. .. ....|... .. .. ....|... .. .. ....|... .. .. ....|... .. .. ....|... .. .. ....|... .. .. ....
0C |... .. .. ....|... .. .. ....|... .. .. ....|G#4 .. .. ....|... .. .. ....|OFF .. .. ....|G#4 .. .. ....|C-5 .. .. ....|... .. .. ....|... .. .. ....|C-3 .. .. ....|... .. .. ....|C-3 .. .. ....|... .. .. ....|... .. .. ....|... .. .. ....
0D |... .. .. ....|... .. .. ....|... .. .. ....|... .. .. ....|... .. .. ....|... .. .. ....|... .. .. ....|... .. .. ....|... .. .. ....|... .. .. ....|... .. .. ....|... .. .. ....|C-3 .. .. ....|... .. .. ....|... .. .. ....|... .. .. ....
0E |... .. .. ....|... .. .. ....|... .. .. ....|A#4 .. .. ....|... .. .. ....|G#2 .. .. ....|A#4 .. .. ....|D-5 .. .. ....|... .. .. ....|... .. .. ....|... .. .. ....|C-3 00 .. ....|... .. .. ....|... .. .. ....|... .. .. ....|... .. .. ....
0F |... .. .. ....|... .. .. ....|... .. .. ....|... .. .. ....|... .. .. ....|... .. .. ....|... .. .. ....|... .. .. ....|... .. .. ....|... .. .. ....|... .. .. ....|... .. .. ....|... .. .. ....|... .. .. ....|... .. .. ....|... .. .. ....
10 |D#2 .. .. ....|G#2 .. .. ....|C-3 .. .. ....|C-5 .. .. ....|... .. .. ....|OFF .. .. ....|C-5 .. .. ....|D#5 .. .. ....|... .. .. ....|C-3 .. .. ....|... .. .. ....|... .. .. ....|C-3 .. .. ....|... .. .. ....|... .. .. ....|... .. .. ....
11 |... .. .. ....|... .. .. ....|... .. .. ....|... .. .. ....|... .. .. ....|... .. .. ....|... .. .. ....|... .. .. ....|... .. .. ....|... .. .. ....|... .. .. ....|... .. .. ....|C-3 .. .. ....|... .. .. ....|... .. .. ....|... .. .. ....
12 |... .. .. ....|... .. .. ....|... .. .. ....|G-4 .. .. ....|... .. .. ....|G#2 .. .. ....|G-4 .. .. ....|A#4 .. .. ....|... .. .. ....|... .. .. ....|... .. .. ....|C-3 00 .. ....|... .. .. ....|... .. .. ....|... .. .. ....|... .. .. ....
13 |... .. .. ....|... .. .. ....|... .. .. ....|... .. .. ....|... .. .. ....|... .. .. ....|... .. .. ....|... .. .. ....|... .. .. ....|... .. .. ....|... .. .. ....|... .. .. ....|... .. .. ....|... .. .. ....|... .. .. ....|... .. .. ....
14 |... .. .. ....|... .. .. ....|... .. .. ....|D-5 .. .. ....|... .. .. ....|OFF .. .. ....|D-5 .. .. ....|F-5 .. .. ....|... .. .. ....|... .. .. ....|C-3 .. .. ....|... .. .. ....|C-3 .. .. ....|... .. .. ....|... .. .. ....|... .. .. ....
15 |... .. .. ....|... .. .. ....|... .. .. ....|... .. .. ....|... .. .. ....|... .. .. ....|... .. .. ....|... .. .. ....|... .. .. ....|... .. .. ....|... .. .. ....|... .. .. ....|C-3 .. .. ....|... .. .. ....|... .. .. ....|... .. .. ....
16 |... .. .. ....|... .. .. ....|... .. .. ....|G-4 .. .. ....|... .. .. ....|G#2 .. .. ....|G-4 .. .. ....|A#4 .. .. ....|... .. .. ....|... .. .. ....|... .. .. ....|C-3 00 .. ....|... .. .. ....|... .. .. ....|... .. .. ....|... .. .. ....
17 |... .. .. ....|... .. .. ....|... .. .. ....|... .. .. ....|... .. .. ....|... .. .. ....|... .. .. ....|... .. .. ....|... .. .. ....|C-3 .. .. ....|... .. .. ....|... .. .. ....|... .. .. ....|... .. .. ....|... .. .. ....|... .. .. ....
18 |... .. .. ....|... .. .. ....|... .. .. ....|D#5 .. .. ....|... .. .. ....|OFF .. .. ....|D#5 .. .. ....|G-5 .. .. ....|... .. .. ....|... .. .. ....|... .. .. ....|... .. .. ....|C-3 .. .. ....|... .. .. ....|... .. .. ....|... .. .. ....
19 |... .. .. ....|... .. .. ....|... .. .. ....|... .. .. ....|... .. .. ....|... .. .. ....|... .. .. ....|... .. .. ....|... .. .. ....|... .. .. ....|... .. .. ....|... .. .. ....|C-3 .. .. ....|... .. .. ....|... .. .. ....|... .. .. ....
1A |... .. .. ....|... .. .. ....|... .. .. ....|... .. .. ....|... .. .. ....|G#2 .. .. ....|... .. .. ....|... .. .. ....|... .. .. ....|C-3 .. .. ....|... .. .. ....|C-3 00 .. ....|... .. .. ....|... .. .. ....|... .. .. ....|... .. .. ....
1B |... .. .. ....|... .. .. ....|... .. .. ....|... .. .. ....|... .. .. ....|... .. .. ....|... .. .. ....|... .. .. ....|... .. .. ....|... .. .. ....|... .. .. ....|... .. .. ....|... .. .. ....|... .. .. ....|... .. .. ....|... .. .. ....
1C |... .. .. ....|... .. .. ....|... .. .. ....|... .. .. ....|... .. .. ....|OFF .. .. ....|... .. .. ....|... .. .. ....|... .. .. ....|... .. .. ....|C-3 .. .. ....|... .. .. ....|C-3 .. .. ....|... .. .. ....|... .. .. ....|... .. .. ....
1D |... .. .. ....|... .. .. ....|... .. .. ....|... .. .. ....|... .. .. ....|... .. .. ....|... .. .. ....|... .. .. ....|... .. .. ....|... .. .. ....|... .. .. ....|... .. .. ....|C-3 .. .. ....|... .. .. ....|... .. .. ....|... .. .. ....
1E |... .. .. ....|... .. .. ....|... .. .. ....|... .. .. ....|... .. .. ....|G#2 .. .. ....|... .. .. ....|... .. .. ....|... .. .. ....|C-3 .. .. ....|... .. .. ....|C-3 00 .. ....|... .. .. ....|... .. .. ....|... .. .. ....|... .. .. ....
1F |... .. .. ....|... .. .. ....|... .. .. ....|... .. .. ....|... .. .. ....|... .. .. ....|... .. .. ....|... .. .. ....|... .. .. ....|... .. .. ....|... .. .. ....|... .. .. ....|... .. .. ....|... .. .. ....|... .. .. ....|... .. .. ....
----- ORDER 11
00 |C-2 00 73 ....|G-2 00 73 ....|C-3 00 73 ....|C-5 .. .. ....|... .. .. ....|OFF .. .. ....|C-5 .. .. ....|D#5 .. .. ....|... .. .. ....|C-3 .. .. ....|... .. .. ....|... .. .. ....|C-3 .. .. ....|... .. .. ....|... .. .. ....|... .. .. ....
01 |... .. .. ....|... .. .. ....|... .. .. ....|... .. .. ....|... .. .. ....|... .. .. ....|... .. .. ....|... .. .. ....|... .. .. ....|... .. .. ....|... .. .. ....|... .. .. ....|C-3 .. .. ....|... .. .. ....|... .. .. ....|... .. .. ....
02 |... .. .. ....|... .. .. ....|... .. .. ....|A#4 .. .. ....|... .. .. ....|C-3 .. .. ....|A#4 .. .. ....|D-5 .. .. ....|... .. .. ....|... .. .. ....|... .. .. ....|C-3 00 .. ....|... .. .. ....|... .. .. ....|... .. .. ....|... .. .. ....
03 |... .. .. ....|... .. .. ....|... .. .. ....|... .. .. ....|... .. .. ....|... .. .. ....|... .. .. ....|... .. .. ....|... .. .. ....|... .. .. ....|... .. .. ....|... .. .. ....|... .. .. ....|... .. .. ....|... .. .. ....|... .. .. ....
04 |... .. .. ....|... .. .. ....|... .. .. ....|G-4 .. .. ....|... .. .. ....|OFF .. .. ....|G-4 .. .. ....|C-5 .. .. ....|... .. .. ....|... .. .. ....|C-3 .. .. ....|... .. .. ....|C-3 .. .. ....|... .. .. ....|... .. .. ....|... .. .. ....
05 |... .. .. ....|... .. .. ....|... .. .. ....|... .. .. ....|... .. .. ....|... .. .. ....|... .. .. ....|... .. .. ....|... .. .. ....|... .. .. ....|... .. .. ....|... .. .. ....|C-3 .. .. ....|... .. .. ....|... .. .. ....|... .. .. ....
06 |... .. .. ....|... .. .. ....|... .. .. ....|A#4 .. .. ....|... .. .. ....|C-3 .. .. ....|A#4 .. .. ....|D-5 .. .. ....|... .. .. ....|... .. .. ....|... .. .. ....|C-3 00 .. ....|... .. .. ....|... .. .. ....|... .. .. ....|... .. .. ....
07 |... .. .. ....|... .. .. ....|... .. .. ....|... .. .. ....|... .. .. ....|... .. .. ....|... .. .. ....|... .. .. ....|... .. .. ....|C-3 .. .. ....|... .. .. ....|... .. .. ....|... .. .. ....|... .. .. ....|... .. .. ....|... .. .. ....
08 |... .. .. ....|... .. .. ....|... .. .. ....|F-5 .. .. ....|... .. .. ....|OFF .. .. ....|F-5 .. .. ....|D-5 .. .. ....|... .. .. ....|... .. .. ....|... .. .. ....|... .. .. ....|C-3 .. .. ....|... .. .. ....|... .. .. ....|... .. .. ....
09 |... .. .. ....|... .. .. ....|... .. .. ....|... .. .. ....|... .. .. ....|... .. .. ....|... .. .. ....|... .. .. ....|... .. .. ....|... .. .. ....|... .. .. ....|... .. .. ....|C-3 .. .. ....|... .. .. ....|... .. .. ....|... .. .. ....
0A |... .. .. ....|... .. .. ....|... .. .. ....|G-5 .. .. ....|... .. .. ....|C-3 .. .. ....|G-5 .. .. ....|F-5 .. .. ....|... .. .. ....|C-3 .. .. ....|... .. .. ....|C-3 00 .. ....|... .. .. ....|... .. .. ....|... .. .. ....|... .. .. ....
0B |... .. .. ....|... .. .. ....|... .. .. ....|... .. .. ....|... .. .. ....|... .. .. ....|... .. .. ....|... .. .. ....|... .. .. ....|... .. .. ....|... .. .. ....|... .. .. ....|... .. .. ....|... .. .. ....|... .. .. ....|... .. .. ....
0C |... .. .. ....|... .. .. ....|... .. .. ....|D-5 .. .. ....|... .. .. ....|OFF .. .. ....|D-5 .. .. ....|F-5 .. .. ....|... .. .. ....|... .. .. ....|C-3 .. .. ....|... .. .. ....|C-3 .. .. ....|... .. .. ....|... .. .. ....|... .. .. ....
0D |... .. .. ....|... .. .. ....|... .. .. ....|... .. .. ....|... .. .. ....|... .. .. ....|... .. .. ....|... .. .. ....|... .. .. ....|... .. .. ....|... .. .. ....|... .. .. ....|C-3 .. .. ....|... .. .. ....|... .. .. ....|... .. .. ....
0E |... .. .. ....|... .. .. ....|... .. .. ....|A#4 .. .. ....|... .. .. ....|C-3 .. .. ....|A#4 .. .. ....|D-5 .. .. ....|... .. .. ....|... .. .. ....|... .. .. ....|C-3 00 .. ....|... .. .. ....|... .. .. ....|... .. .. ....|... .. .. ....
0F |... .. .. ....|... .. .. ....|... .. .. ....|... .. .. ....|... .. .. ....|... .. .. ....|... .. .. ....|... .. .. ....|... .. .. ....|... .. .. ....|... .. .. ....|... .. .. ....|... .. .. ....|... .. .. ....|... .. .. ....|... .. .. ....
10 |C-2 .. .. ....|G-2 .. .. ....|C-3 .. .. ....|C-5 .. .. ....|... .. .. ....|OFF .. .. ....|C-5 .. .. ....|D#5 .. .. ....|... .. .. ....|C-3 .. .. ....|... .. .. ....|... .. .. ....|C-3 .. .. ....|... .. .. ....|... .. .. ....|... .. .. ....
11 |... .. .. ....|... .. .. ....|... .. .. ....|... .. .. ....|... .. .. ....|... .. .. ....|... .. .. ....|... .. .. ....|... .. .. ....|... .. .. ....|... .. .. ....|... .. .. ....|C-3 .. .. ....|... .. .. ....|... .. .. ....|... .. .. ....
12 |... .. .. ....|... .. .. ....|... .. .. ....|... .. .. ....|... .. .. ....|C-3 .. .. ....|... .. .. ....|... .. .. ....|... .. .. ....|... .. .. ....|... .. .. ....|C-3 00 .. ....|... .. .. ....|... .. .. ....|... .. .. ....|... .. .. ....
13 |... .. .. ....|... .. .. ....|... .. .. ....|... .. .. ....|... .. .. ....|... .. .. ....|... .. .. ....|... .. .. ....|... .. .. ....|... .. .. ....|... .. .. ....|... .. .. ....|... .. .. ....|... .. .. ....|... .. .. ....|... .. .. ....
14 |... .. .. ....|... .. .. ....|... .. .. ....|... .. .. ....|... .. .. ....|OFF .. .. ....|... .. .. ....|... .. .. ....|... .. .. ....|... .. .. ....|C-3 .. .. ....|... .. .. ....|C-3 .. .. ....|... .. .. ....|... .. .. ....|... .. .. ....
15 |... .. .. ....|... .. .. ....|... .. .. ....|... .. .. ....|... .. .. ....|... .. .. ....|... .. .. ....|... .. .. ....|... .. .. ....|... .. .. ....|... .. .. ....|... .. .. ....|C-3 .. .. ....|... .. .. ....|... .. .. ....|... .. .. ....
16 |... .. .. ....|... .. .. ....|... .. .. ....|... .. .. ....|... .. .. ....|C-3 .. .. ....|... .. .. ....|... .. .. ....|... .. .. ....|... .. .. ....|... .. .. ....|C-3 00 .. ....|... .. .. ....|... .. .. ....|... .. .. ....|... .. .. ....
17 |... .. .. ....|... .. .. ....|... .. .. ....|... .. .. ....|... .. .. ....|... .. .. ....|... .. .. ....|... .. .. ....|... .. .. ....|C-3 .. .. ....|... .. .. ....|... .. .. ....|... .. .. ....|... .. .. ....|... .. .. ....|... .. .. ....
18 |... .. .. ....|... .. .. ....|... .. .. ....|... .. .. ....|... .. .. ....|OFF .. .. ....|... .. .. ....|... .. .. ....|... .. .. ....|... .. .. ....|... .. .. ....|... .. .. ....|C-3 .. .. ....|... .. .. ....|... .. .. ....|... .. .. ....
19 |... .. .. ....|... .. .. ....|... .. .. ....|... .. .. ....|... .. .. ....|... .. .. ....|... .. .. ....|... .. .. ....|... .. .. ....|... .. .. ....|... .. .. ....|... .. .. ....|C-3 .. .. ....|... .. .. ....|... .. .. ....|... .. .. ....
1A |... .. .. ....|... .. .. ....|... .. .. ....|... .. .. ....|... .. .. ....|C-3 .. .. ....|... .. .. ....|... .. .. ....|... .. .. ....|C-3 .. .. ....|... .. .. ....|C-3 00 .. ....|... .. .. ....|... .. .. ....|... .. .. ....|... .. .. ....
1B |... .. .. ....|... .. .. ....|... .. .. ....|... .. .. ....|... .. .. ....|... .. .. ....|... .. .. ....|... .. .. ....|... .. .. ....|... .. .. ....|... .. .. ....|... .. .. ....|... .. .. ....|... .. .. ....|... .. .. ....|... .. .. ....
1C |... .. .. ....|... .. .. ....|... .. .. ....|... .. .. ....|... .. .. ....|OFF .. .. ....|... .. .. ....|... .. .. ....|... .. .. ....|... .. .. ....|C-3 .. .. ....|... .. .. ....|C-3 .. .. ....|... .. .. ....|... .. .. ....|... .. .. ....
1D |... .. .. ....|... .. .. ....|... .. .. ....|... .. .. ....|... .. .. ....|... .. .. ....|... .. .. ....|... .. .. ....|... .. .. ....|... .. .. ....|... .. .. ....|... .. .. ....|C-3 .. .. ....|... .. .. ....|... .. .. ....|... .. .. ....
1E |... .. .. ....|... .. .. ....|... .. .. ....|... .. .. ....|... .. .. ....|C-3 .. .. ....|... .. .. ....|... .. .. ....|... .. .. ....|C-3 .. .. ....|... .. .. ....|C-3 00 .. ....|... .. .. ....|... .. .. ....|... .. .. ....|... .. .. ....
1F |... .. .. ....|... .. .. ....|... .. .. ....|... .. .. ....|... .. .. ....|... .. .. ....|... .. .. ....|... .. .. ....|... .. .. ....|... .. .. ....|... .. .. ....|... .. .. ....|... .. .. ....|... .. .. ....|... .. .. ....|... .. .. ....
----- ORDER 12
00 |C-6 03 .. F90A|OFF 03 .. ....|... .. .. ....|D#5 01 65 ....|G#5 01 65 ....|C-6 01 65 ....|OFF .. .. ....|OFF .. .. ....|... .. .. ....|... .. .. ....|... .. .. ....|C-3 01 .. ....|... .. .. ....|... .. .. ....|... .. .. ....|... .. .. 0901
01 |... .. .. ....|C-6 .. .. ....|C-7 03 .. ....|... .. .. ....|... .. .. ....|... .. .. ....|... .. .. ....|... .. .. ....|... .. .. ....|... .. .. ....|... .. .. ....|... .. .. ....|... .. .. ....|... .. .. ....|... .. .. ....|... .. .. ....
02 |... .. .. ....|... .. .. ....|... .. .. ....|... .. .. ....|... .. .. ....|... .. .. ....|... .. .. ....|... .. .. ....|... .. .. ....|... .. .. ....|... .. .. ....|... .. .. ....|... .. .. ....|... .. .. ....|... .. .. ....|... .. .. ....
03 |... .. .. ....|... .. .. ....|... .. .. ....|... .. .. ....|... .. .. ....|... .. .. ....|... .. .. ....|... .. .. ....|... .. .. ....|... .. .. ....|... .. .. ....|... .. .. ....|... .. .. ....|... .. .. ....|... .. .. ....|... .. .. ....
04 |A#5 .. .. ....|... .. .. ....|... .. .. ....|... .. .. ....|... .. .. ....|... .. .. ....|... .. .. ....|... .. .. ....|... .. .. ....|... .. .. ....|... .. .. ....|... .. .. ....|... .. .. ....|... .. .. ....|... .. .. ....|... .. .. ....
05 |... .. .. ....|A#5 .. .. ....|A#6 .. .. ....|... .. .. ....|... .. .. ....|... .. .. ....|... .. .. ....|... .. .. ....|... .. .. ....|... .. .. ....|... .. .. ....|... .. .. ....|... .. .. ....|... .. .. ....|... .. .. ....|... .. .. ....
06 |C-6 .. .. ....|... .. .. ....|... .. .. ....|... .. .. ....|... .. .. ....|... .. .. ....|... .. .. ....|... .. .. ....|... .. .. ....|... .. .. ....|... .. .. ....|... .. .. ....|... .. .. ....|... .. .. ....|... .. .. ....|... .. .. ....
07 |... .. .. ....|C-6 .. .. ....|C-7 .. .. ....|... .. .. ....|... .. .. ....|... .. .. ....|... .. .. ....|... .. .. ....|... .. .. ....|... .. .. ....|... .. .. ....|... .. .. ....|... .. .. ....|... .. .. ....|... .. .. ....|... .. .. ....
08 |... .. .. ....|... .. .. ....|... .. .. ....|... .. .. ....|... .. .. ....|... .. .. ....|... .. .. ....|... .. .. ....|... .. .. ....|... .. .. ....|... .. .. ....|... .. .. ....|... .. .. ....|... .. .. ....|... .. .. ....|... .. .. ....
09 |... .. .. ....|... .. .. ....|... .. .. ....|... .. .. ....|... .. .. ....|... .. .. ....|... .. .. ....|... .. .. ....|... .. .. ....|... .. .. ....|... .. .. ....|... .. .. ....|... .. .. ....|... .. .. ....|... .. .. ....|... .. .. ....
0A |A#5 .. .. ....|... .. .. ....|... .. .. ....|... .. .. ....|... .. .. ....|... .. .. ....|... .. .. ....|... .. .. ....|... .. .. ....|... .. .. ....|... .. .. ....|... .. .. ....|... .. .. ....|... .. .. ....|... .. .. ....|... .. .. ....
0B |... .. .. ....|A#5 .. .. ....|A#6 .. .. ....|... .. .. ....|... .. .. ....|... .. .. ....|... .. .. ....|... .. .. ....|... .. .. ....|... .. .. ....|... .. .. ....|... .. .. ....|... .. .. ....|... .. .. ....|... .. .. ....|... .. .. ....
0C |C-6 .. .. ....|... .. .. ....|... .. .. ....|... .. .. ....|... .. .. ....|... .. .. ....|... .. .. ....|... .. .. ....|... .. .. ....|... .. .. ....|... .. .. ....|... .. .. ....|... .. .. ....|... .. .. ....|... .. .. ....|... .. .. ....
0D |... .. .. ....|C-6 .. .. ....|C-7 .. .. ....|... .. .. ....|... .. .. ....|... .. .. ....|... .. .. ....|... .. .. ....|... .. .. ....|... .. .. ....|... .. .. ....|... .. .. ....|... .. .. ....|... .. .. ....|... .. .. ....|... .. .. ....
0E |D-6 .. .. ....|... .. .. ....|... .. .. ....|... .. .. ....|... .. .. ....|... .. .. ....|... .. .. ....|... .. .. ....|... .. .. ....|... .. .. ....|... .. .. ....|... .. .. ....|... .. .. ....|... .. .. ....|... .. .. ....|... .. .. ....
0F |... .. .. ....|D-6 .. .. ....|D-7 .. .. ....|... .. .. ....|... .. .. ....|... .. .. ....|... .. .. ....|... .. .. ....|... .. .. ....|... .. .. ....|... .. .. ....|... .. .. ....|... .. .. ....|... .. .. ....|... .. .. ....|... .. .. ....
10 |D#6 .. .. ....|... .. .. ....|... .. .. ....|... .. .. ....|... .. .. ....|... .. .. ....|... .. .. ....|... .. .. ....|... .. .. ....|... .. .. ....|... .. .. ....|... .. .. ....|... .. .. ....|... .. .. ....|... .. .. ....|... .. .. ....
11 |... .. .. ....|D#6 .. .. ....|D#7 .. .. ....|... .. .. ....|... .. .. ....|... .. .. ....|... .. .. ....|... .. .. ....|... .. .. ....|... .. .. ....|... .. .. ....|... .. .. ....|... .. .. ....|... .. .. ....|... .. .. ....|... .. .. ....
12 |G-5 .. .. ....|... .. .. ....|... .. .. ....|... .. .. ....|... .. .. ....|... .. .. ....|... .. .. ....|... .. .. ....|... .. .. ....|... .. .. ....|... .. .. ....|... .. .. ....|... .. .. ....|... .. .. ....|... .. .. ....|... .. .. ....
13 |... .. .. ....|G-5 .. .. ....|G-6 .. .. ....|... .. .. ....|... .. .. ....|... .. .. ....|... .. .. ....|... .. .. ....|... .. .. ....|... .. .. ....|... .. .. ....|... .. .. ....|... .. .. ....|... .. .. ....|... .. .. ....|... .. .. ....
14 |D-6 .. .. ....|... .. .. ....|... .. .. ....|... .. .. ....|... .. .. ....|... .. .. ....|... .. .. ....|... .. .. ....|... .. .. ....|... .. .. ....|... .. .. ....|... .. .. ....|... .. .. ....|... .. .. ....|... .. .. ....|... .. .. ....
15 |... .. .. ....|D-6 .. .. ....|D-7 .. .. ....|... .. .. ....|... .. .. ....|... .. .. ....|... .. .. ....|... .. .. ....|... .. .. ....|... .. .. ....|... .. .. ....|... .. .. ....|... .. .. ....|... .. .. ....|... .. .. ....|... .. .. ....
16 |G-5 .. .. ....|... .. .. ....|... .. .. ....|... .. .. ....|... .. .. ....|... .. .. ....|... .. .. ....|... .. .. ....|... .. .. ....|... .. .. ....|... .. .. ....|... .. .. ....|... .. .. ....|... .. .. ....|... .. .. ....|... .. .. ....
17 |... .. .. ....|G-5 .. .. ....|G-6 .. .. ....|... .. .. ....|... .. .. ....|... .. .. ....|... .. .. ....|... .. .. ....|... .. .. ....|... .. .. ....|... .. .. ....|... .. .. ....|... .. .. ....|... .. .. ....|... .. .. ....|... .. .. ....
18 |C-6 .. .. ....|... .. .. ....|... .. .. ....|... .. .. ....|... .. .. ....|... .. .. ....|... .. .. ....|... .. .. ....|... .. .. ....|... .. .. ....|... .. .. ....|... .. .. ....|... .. .. ....|... .. .. ....|... .. .. ....|... .. .. ....
19 |... .. .. ....|C-6 .. .. ....|C-7 .. .. ....|... .. .. ....|... .. .. ....|... .. .. ....|... .. .. ....|... .. .. ....|... .. .. ....|... .. .. ....|... .. .. ....|... .. .. ....|... .. .. ....|... .. .. ....|... .. .. ....|... .. .. ....
1A |... .. .. ....|... .. .. ....|... .. .. ....|... .. .. ....|... .. .. ....|... .. .. ....|... .. .. ....|... .. .. ....|... .. .. ....|... .. .. ....|... .. .. ....|... .. .. ....|... .. .. ....|... .. .. ....|... .. .. ....|... .. .. ....
1B |... .. .. ....|... .. .. ....|... .. .. ....|... .. .. ....|... .. .. ....|... .. .. ....|... .. .. ....|... .. .. ....|... .. .. ....|... .. .. ....|... .. .. ....|... .. .. ....|... .. .. ....|... .. .. ....|... .. .. ....|... .. .. ....
1C |... .. .. ....|... .. .. ....|... .. .. ....|... .. .. ....|... .. .. ....|... .. .. ....|... .. .. ....|... .. .. ....|... .. .. ....|... .. .. ....|... .. .. ....|... .. .. ....|... .. .. ....|... .. .. ....|... .. .. ....|... .. .. ....
1D |... .. .. ....|... .. .. ....|... .. .. ....|... .. .. ....|... .. .. ....|... .. .. ....|... .. .. ....|... .. .. ....|... .. .. ....|... .. .. ....|... .. .. ....|... .. .. ....|... .. .. ....|... .. .. ....|... .. .. ....|... .. .. ....
1E |... .. .. ....|... .. .. ....|... .. .. ....|... .. .. ....|... .. .. ....|... .. .. ....|... .. .. ....|... .. .. ....|... .. .. ....|... .. .. ....|... .. .. ....|... .. .. ....|... .. .. ....|... .. .. ....|... .. .. ....|... .. .. ....
1F |... .. .. ....|... .. .. ....|... .. .. ....|... .. .. ....|... .. .. ....|... .. .. ....|... .. .. ....|... .. .. ....|... .. .. ....|... .. .. ....|... .. .. ....|... .. .. ....|... .. .. ....|... .. .. ....|... .. .. ....|... .. .. ....
----- ORDER 13
00 |C-6 .. .. ....|... .. .. ....|... .. .. ....|... .. .. ....|G-5 .. .. ....|... .. .. ....|... .. .. ....|... .. .. ....|... .. .. ....|... .. .. ....|... .. .. ....|... .. .. ....|... .. .. ....|... .. .. ....|... .. .. ....|... .. .. ....
01 |... .. .. ....|C-6 .. .. ....|C-7 .. .. ....|... .. .. ....|... .. .. ....|... .. .. ....|... .. .. ....|... .. .. ....|... .. .. ....|... .. .. ....|... .. .. ....|... .. .. ....|... .. .. ....|... .. .. ....|... .. .. ....|... .. .. ....
02 |A#5 .. .. ....|... .. .. ....|... .. .. ....|... .. .. ....|... .. .. ....|... .. .. ....|... .. .. ....|... .. .. ....|... .. .. ....|... .. .. ....|... .. .. ....|... .. .. ....|... .. .. ....|... .. .. ....|... .. .. ....|... .. .. ....
03 |... .. .. ....|A#5 .. .. ....|A#6 .. .. ....|... .. .. ....|... .. .. ....|... .. .. ....|... .. .. ....|... .. .. ....|... .. .. ....|... .. .. ....|... .. .. ....|... .. .. ....|... .. .. ....|... .. .. ....|... .. .. ....|... .. .. ....
04 |G-5 .. .. ....|... .. .. ....|... .. .. ....|... .. .. ....|... .. .. ....|... .. .. ....|... .. .. ....|... .. .. ....|... .. .. ....|... .. .. ....|... .. .. ....|... .. .. ....|... .. .. ....|... .. .. ....|... .. .. ....|... .. .. ....
05 |... .. .. ....|G-5 .. .. ....|G-6 .. .. ....|... .. .. ....|... .. .. ....|... .. .. ....|... .. .. ....|... .. .. ....|... .. .. ....|... .. .. ....|... .. .. ....|... .. .. ....|... .. .. ....|... .. .. ....|... .. .. ....|... .. .. ....
06 |A#5 .. .. ....|... .. .. ....|... .. .. ....|... .. .. ....|... .. .. ....|... .. .. ....|... .. .. ....|... .. .. ....|... .. .. ....|... .. .. ....|... .. .. ....|... .. .. ....|... .. .. ....|... .. .. ....|... .. .. ....|... .. .. ....
07 |... .. .. ....|A#5 .. .. ....|A#6 .. .. ....|... .. .. ....|... .. .. ....|... .. .. ....|... .. .. ....|... .. .. ....|... .. .. ....|... .. .. ....|... .. .. ....|... .. .. ....|... .. .. ....|... .. .. ....|... .. .. ....|... .. .. ....
08 |F-5 .. .. ....|... .. .. ....|... .. .. ....|... .. .. ....|... .. .. ....|... .. .. ....|... .. .. ....|... .. .. ....|... .. .. ....|... .. .. ....|... .. .. ....|... .. .. ....|... .. .. ....|... .. .. ....|... .. .. ....|... .. .. ....
09 |... .. .. ....|F-5 .. .. ....|F-6 .. .. ....|... .. .. ....|... .. .. ....|... .. .. ....|... .. .. ....|... .. .. ....|... .. .. ....|... .. .. ....|... .. .. ....|... .. .. ....|... .. .. ....|... .. .. ....|... .. .. ....|... .. .. ....
0A |... .. .. ....|... .. .. ....|... .. .. ....|... .. .. ....|... .. .. ....|... .. .. ....|... .. .. ....|... .. .. ....|... .. .. ....|... .. .. ....|... .. .. ....|... .. .. ....|... .. .. ....|... .. .. ....|... .. .. ....|... .. .. ....
0B |... .. .. ....|... .. .. ....|... .. .. ....|... .. .. ....|... .. .. ....|... .. .. ....|... .. .. ....|... .. .. ....|... .. .. ....|... .. .. ....|... .. .. ....|... .. .. ....|... .. .. ....|... .. .. ....|... .. .. ....|... .. .. ....
0C |... .. .. ....|... .. .. ....|... .. .. ....|... .. .. ....|... .. .. ....|... .. .. ....|... .. .. ....|... .. .. ....|... .. .. ....|... .. .. ....|... .. .. ....|... .. .. ....|... .. .. ....|... .. .. ....|... .. .. ....|... .. .. ....
0D |... .. .. ....|... .. .. ....|... .. .. ....|... .. .. ....|... .. .. ....|... .. .. ....|... .. .. ....|... .. .. ....|... .. .. ....|... .. .. ....|... .. .. ....|... .. .. ....|... .. .. ....|... .. .. ....|... .. .. ....|... .. .. ....
0E |... .. .. ....|... .. .. ....|... .. .. ....|... .. .. ....|... .. .. ....|... .. .. ....|... .. .. ....|... .. .. ....|... .. .. ....|... .. .. ....|... .. .. ....|... .. .. ....|... .. .. ....|... .. .. ....|... .. .. ....|... .. .. ....
0F |... .. .. ....|... .. .. ....|... .. .. ....|... .. .. ....|... .. .. ....|... .. .. ....|... .. .. ....|... .. .. ....|... .. .. ....|... .. .. ....|... .. .. ....|... .. .. ....|... .. .. ....|... .. .. ....|... .. .. ....|... .. .. ....
10 |F-5 .. .. ....|... .. .. ....|... .. .. ....|... .. .. ....|... .. .. ....|... .. .. ....|... .. .. ....|... .. .. ....|... .. .. ....|... .. .. ....|... .. .. ....|... .. .. ....|... .. .. ....|... .. .. ....|... .. .. ....|... .. .. ....
11 |... .. .. ....|F-5 .. .. ....|F-6 .. .. ....|... .. .. ....|... .. .. ....|... .. .. ....|... .. .. ....|... .. .. ....|... .. .. ....|... .. .. ....|... .. .. ....|... .. .. ....|... .. .. ....|... .. .. ....|... .. .. ....|... .. .. ....
12 |D#5 .. .. ....|... .. .. ....|... .. .. ....|... .. .. ....|... .. .. ....|... .. .. ....|... .. .. ....|... .. .. ....|... .. .. ....|... .. .. ....|... .. .. ....|... .. .. ....|... .. .. ....|... .. .. ....|... .. .. ....|... .. .. ....
13 |... .. .. ....|D#5 .. .. ....|D#6 .. .. ....|... .. .. ....|... .. .. ....|... .. .. ....|... .. .. ....|... .. .. ....|... .. .. ....|... .. .. ....|... .. .. ....|... .. .. ....|... .. .. ....|... .. .. ....|... .. .. ....|... .. .. ....
14 |C-5 .. .. ....|... .. .. ....|... .. .. ....|... .. .. ....|... .. .. ....|... .. .. ....|... .. .. ....|... .. .. ....|... .. .. ....|... .. .. ....|... .. .. ....|... .. .. ....|... .. .. ....|... .. .. ....|... .. .. ....|... .. .. ....
15 |... .. .. ....|C-5 .. .. ....|C-6 .. .. ....|... .. .. ....|... .. .. ....|... .. .. ....|... .. .. ....|... .. .. ....|... .. .. ....|... .. .. ....|... .. .. ....|... .. .. ....|... .. .. ....|... .. .. ....|... .. .. ....|... .. .. ....
16 |D#5 .. .. ....|... .. .. ....|... .. .. ....|... .. .. ....|... .. .. ....|... .. .. ....|... .. .. ....|... .. .. ....|... .. .. ....|... .. .. ....|... .. .. ....|... .. .. ....|... .. .. ....|... .. .. ....|... .. .. ....|... .. .. ....
17 |... .. .. ....|D#5 .. .. ....|D#6 .. .. ....|... .. .. ....|... .. .. ....|... .. .. ....|... .. .. ....|... .. .. ....|... .. .. ....|... .. .. ....|... .. .. ....|... .. .. ....|... .. .. ....|... .. .. ....|... .. .. ....|... .. .. ....
18 |G-5 .. .. ....|... .. .. ....|... .. .. ....|... .. .. ....|... .. .. ....|... .. .. ....|... .. .. ....|... .. .. ....|... .. .. ....|... .. .. ....|... .. .. ....|... .. .. ....|... .. .. ....|... .. .. ....|... .. .. ....|... .. .. ....
19 |... .. .. ....|G-5 .. .. ....|G-6 .. .. ....|... .. .. ....|... .. .. ....|... .. .. ....|... .. .. ....|... .. .. ....|... .. .. ....|... .. .. ....|... .. .. ....|... .. .. ....|... .. .. ....|... .. .. ....|... .. .. ....|... .. .. ....
1A |... .. .. ....|... .. .. ....|... .. .. ....|... .. .. ....|... .. .. ....|... .. .. ....|... .. .. ....|... .. .. ....|... .. .. ....|... .. .. ....|... .. .. ....|... .. .. ....|... .. .. ....|... .. .. ....|... .. .. ....|... .. .. ....
1B |... .. .. ....|... .. .. ....|... .. .. ....|... .. .. ....|... .. .. ....|... .. .. ....|... .. .. ....|... .. .. ....|... .. .. ....|... .. .. ....|... .. .. ....|... .. .. ....|... .. .. ....|... .. .. ....|... .. .. ....|... .. .. ....
1C |... .. .. ....|... .. .. ....|... .. .. ....|... .. .. ....|... .. .. ....|... .. .. ....|... .. .. ....|... .. .. ....|... .. .. ....|... .. .. ....|... .. .. ....|... .. .. ....|... .. .. ....|... .. .. ....|... .. .. ....|... .. .. ....
1D |... .. .. ....|... .. .. ....|... .. .. ....|... .. .. ....|... .. .. ....|... .. .. ....|... .. .. ....|... .. .. ....|... .. .. ....|... .. .. ....|... .. .. ....|... .. .. ....|... .. .. ....|... .. .. ....|... .. .. ....|... .. .. ....
1E |... .. .. ....|... .. .. ....|... .. .. ....|... .. .. ....|... .. .. ....|... .. .. ....|... .. .. ....|... .. .. ....|... .. .. ....|... .. .. ....|... .. .. ....|... .. .. ....|... .. .. ....|... .. .. ....|... .. .. ....|... .. .. ....
1F |... .. .. ....|... .. .. ....|... .. .. ....|... .. .. ....|... .. .. ....|... .. .. ....|... .. .. ....|... .. .. ....|... .. .. ....|... .. .. ....|... .. .. ....|... .. .. ....|... .. .. ....|... .. .. ....|... .. .. ....|... .. .. ....
----- ORDER 14
00 |G#5 .. .. ....|... .. .. ....|... .. .. ....|... .. .. ....|G#5 01 65 ....|... .. .. ....|... .. .. ....|... .. .. ....|... .. .. ....|... .. .. ....|... .. .. ....|... .. .. ....|... .. .. ....|... .. .. ....|... .. .. ....|... .. .. ....
01 |... .. .. ....|G#5 .. .. ....|G#6 .. .. ....|... .. .. ....|... .. .. ....|... .. .. ....|... .. .. ....|... .. .. ....|... .. .. ....|... .. .. ....|... .. .. ....|... .. .. ....|... .. .. ....|... .. .. ....|... .. .. ....|... .. .. ....
02 |... .. .. ....|... .. .. ....|... .. .. ....|... .. .. ....|... .. .. ....|... .. .. ....|... .. .. ....|... .. .. ....|... .. .. ....|... .. .. ....|... .. .. ....|... .. .. ....|... .. .. ....|... .. .. ....|... .. .. ....|... .. .. ....
03 |... .. .. ....|... .. .. ....|... .. .. ....|... .. .. ....|... .. .. ....|... .. .. ....|... .. .. ....|... .. .. ....|... .. .. ....|... .. .. ....|... .. .. ....|... .. .. ....|... .. .. ....|... .. .. ....|... .. .. ....|... .. .. ....
04 |G-5 .. .. ....|... .. .. ....|... .. .. ....|... .. .. ....|... .. .. ....|... .. .. ....|... .. .. ....|... .. .. ....|... .. .. ....|... .. .. ....|... .. .. ....|... .. .. ....|... .. .. ....|... .. .. ....|... .. .. ....|... .. .. ....
05 |... .. .. ....|G-5 .. .. ....|G-6 .. .. ....|... .. .. ....|... .. .. ....|... .. .. ....|... .. .. ....|... .. .. ....|... .. .. ....|... .. .. ....|... .. .. ....|... .. .. ....|... .. .. ....|... .. .. ....|... .. .. ....|... .. .. ....
06 |G#5 .. .. ....|... .. .. ....|... .. .. ....|... .. .. ....|... .. .. ....|... .. .. ....|... .. .. ....|... .. .. ....|... .. .. ....|... .. .. ....|... .. .. ....|... .. .. ....|... .. .. ....|... .. .. ....|... .. .. ....|... .. .. ....
07 |... .. .. ....|G#5 .. .. ....|G#6 .. .. ....|... .. .. ....|... .. .. ....|... .. .. ....|... .. .. ....|... .. .. ....|... .. .. ....|... .. .. ....|... .. .. ....|... .. .. ....|... .. .. ....|... .. .. ....|... .. .. ....|... .. .. ....
08 |... .. .. ....|... .. .. ....|... .. .. ....|... .. .. ....|... .. .. ....|... .. .. ....|... .. .. ....|... .. .. ....|... .. .. ....|... .. .. ....|... .. .. ....|... .. .. ....|... .. .. ....|... .. .. ....|... .. .. ....|... .. .. ....
09 |... .. .. ....|... .. .. ....|... .. .. ....|... .. .. ....|... .. .. ....|... .. .. ....|... .. .. ....|... .. .. ....|... .. .. ....|... .. .. ....|... .. .. ....|... .. .. ....|... .. .. ....|... .. .. ....|... .. .. ....|... .. .. ....
0A |G-5 .. .. ....|... .. .. ....|... .. .. ....|... .. .. ....|... .. .. ....|... .. .. ....|... .. .. ....|... .. .. ....|... .. .. ....|... .. .. ....|... .. .. ....|... .. .. ....|... .. .. ....|... .. .. ....|... .. .. ....|... .. .. ....
0B |... .. .. ....|G-5 .. .. ....|G-6 .. .. ....|... .. .. ....|... .. .. ....|... .. .. ....|... .. .. ....|... .. .. ....|... .. .. ....|... .. .. ....|... .. .. ....|... .. .. ....|... .. .. ....|... .. .. ....|... .. .. ....|... .. .. ....
0C |G#5 .. .. ....|... .. .. ....|... .. .. ....|... .. .. ....|... .. .. ....|... .. .. ....|... .. .. ....|... .. .. ....|... .. .. ....|... .. .. ....|... .. .. ....|... .. .. ....|... .. .. ....|... .. .. ....|... .. .. ....|... .. .. ....
0D |... .. .. ....|G#5 .. .. ....|G#6 .. .. ....|... .. .. ....|... .. .. ....|... .. .. ....|... .. .. ....|... .. .. ....|... .. .. ....|... .. .. ....|... .. .. ....|... .. .. ....|... .. .. ....|... .. .. ....|... .. .. ....|... .. .. ....
0E |A#5 .. .. ....|... .. .. ....|... .. .. ....|... .. .. ....|... .. .. ....|... .. .. ....|... .. .. ....|... .. .. ....|... .. .. ....|... .. .. ....|... .. .. ....|... .. .. ....|... .. .. ....|... .. .. ....|... .. .. ....|... .. .. ....
0F |... .. .. ....|A#5 .. .. ....|A#6 .. .. ....|... .. .. ....|... .. .. ....|... .. .. ....|... .. .. ....|... .. .. ....|... .. .. ....|... .. .. ....|... .. .. ....|... .. .. ....|... .. .. ....|... .. .. ....|... .. .. ....|... .. .. ....
10 |C-6 .. .. ....|... .. .. ....|... .. .. ....|... .. .. ....|... .. .. ....|... .. .. ....|... .. .. ....|... .. .. ....|... .. .. ....|... .. .. ....|... .. .. ....|... .. .. ....|... .. .. ....|... .. .. ....|... .. .. ....|... .. .. ....
11 |... .. .. ....|C-6 .. .. ....|C-7 .. .. ....|... .. .. ....|... .. .. ....|... .. .. ....|... .. .. ....|... .. .. ....|... .. .. ....|... .. .. ....|... .. .. ....|... .. .. ....|... .. .. ....|... .. .. ....|... .. .. ....|... .. .. ....
12 |G-5 .. .. ....|... .. .. ....|... .. .. ....|... .. .. ....|... .. .. ....|... .. .. ....|... .. .. ....|... .. .. ....|... .. .. ....|... .. .. ....|... .. .. ....|... .. .. ....|... .. .. ....|... .. .. ....|... .. .. ....|... .. .. ....
13 |... .. .. ....|G-5 .. .. ....|G-6 .. .. ....|... .. .. ....|... .. .. ....|... .. .. ....|... .. .. ....|... .. .. ....|... .. .. ....|... .. .. ....|... .. .. ....|... .. .. ....|... .. .. ....|... .. .. ....|... .. .. ....|... .. .. ....
14 |D-6 .. .. ....|... .. .. ....|... .. .. ....|... .. .. ....|... .. .. ....|... .. .. ....|... .. .. ....|... .. .. ....|... .. .. ....|... .. .. ....|... .. .. ....|... .. .. ....|... .. .. ....|... .. .. ....|... .. .. ....|... .. .. ....
15 |... .. .. ....|D-6 .. .. ....|D-7 .. .. ....|... .. .. ....|... .. .. ....|... .. .. ....|... .. .. ....|... .. .. ....|... .. .. ....|... .. .. ....|... .. .. ....|... .. .. ....|... .. .. ....|... .. .. ....|... .. .. ....|... .. .. ....
16 |G-5 .. .. ....|... .. .. ....|... .. .. ....|... .. .. ....|... .. .. ....|... .. .. ....|... .. .. ....|... .. .. ....|... .. .. ....|... .. .. ....|... .. .. ....|... .. .. ....|... .. .. ....|... .. .. ....|... .. .. ....|... .. .. ....
17 |... .. .. ....|G-5 .. .. ....|G-6 .. .. ....|... .. .. ....|... .. .. ....|... .. .. ....|... .. .. ....|... .. .. ....|... .. .. ....|... .. .. ....|... .. .. ....|... .. .. ....|... .. .. ....|... .. .. ....|... .. .. ....|... .. .. ....
18 |D#6 .. .. ....|... .. .. ....|... .. .. ....|... .. .. ....|... .. .. ....|... .. .. ....|... .. .. ....|... .. .. ....|... .. .. ....|... .. .. ....|... .. .. ....|... .. .. ....|... .. .. ....|... .. .. ....|... .. .. ....|... .. .. ....
19 |... .. .. ....|D#6 .. .. ....|D#7 .. .. ....|... .. .. ....|... .. .. ....|... .. .. ....|... .. .. ....|... .. .. ....|... .. .. ....|... .. .. ....|... .. .. ....|... .. .. ....|... .. .. ....|... .. .. ....|... .. .. ....|... .. .. ....
1A |... .. .. ....|... .. .. ....|... .. .. ....|... .. .. ....|... .. .. ....|... .. .. ....|... .. .. ....|... .. .. ....|... .. .. ....|... .. .. ....|... .. .. ....|... .. .. ....|... .. .. ....|... .. .. ....|... .. .. ....|... .. .. ....
1B |... .. .. ....|... .. .. ....|... .. .. ....|... .. .. ....|... .. .. ....|... .. .. ....|... .. .. ....|... .. .. ....|... .. .. ....|... .. .. ....|... .. .. ....|... .. .. ....|... .. .. ....|... .. .. ....|... .. .. ....|... .. .. ....
1C |... .. .. ....|... .. .. ....|... .. .. ....|... .. .. ....|... .. .. ....|... .. .. ....|... .. .. ....|... .. .. ....|... .. .. ....|... .. .. ....|... .. .. ....|... .. .. ....|... .. .. ....|... .. .. ....|... .. .. ....|... .. .. ....
1D |... .. .. ....|... .. .. ....|... .. .. ....|... .. .. ....|... .. .. ....|... .. .. ....|... .. .. ....|... .. .. ....|... .. .. ....|... .. .. ....|... .. .. ....|... .. .. ....|... .. .. ....|... .. .. ....|... .. .. ....|... .. .. ....
1E |... .. .. ....|... .. .. ....|... .. .. ....|... .. .. ....|... .. .. ....|... .. .. ....|... .. .. ....|... .. .. ....|... .. .. ....|... .. .. ....|... .. .. ....|... .. .. ....|... .. .. ....|... .. .. ....|... .. .. ....|... .. .. ....
1F |... .. .. ....|... .. .. ....|... .. .. ....|... .. .. ....|... .. .. ....|... .. .. ....|... .. .. ....|... .. .. ....|... .. .. ....|... .. .. ....|... .. .. ....|... .. .. ....|... .. .. ....|... .. .. ....|... .. .. ....|... .. .. ....
----- ORDER 15
00 |C-6 .. .. ....|... .. .. ....|... .. .. ....|G-5 .. .. ....|D#6 .. .. ....|... .. .. ....|... .. .. ....|... .. .. ....|... .. .. ....|... .. .. ....|... .. .. ....|... .. .. ....|... .. .. ....|... .. .. ....|... .. .. ....|... .. .. ....
01 |... .. .. ....|C-6 .. .. ....|C-7 .. .. ....|... .. .. ....|... .. .. ....|... .. .. ....|... .. .. ....|... .. .. ....|... .. .. ....|... .. .. ....|... .. .. ....|... .. .. ....|... .. .. ....|... .. .. ....|... .. .. ....|... .. .. ....
02 |A#5 .. .. ....|... .. .. ....|... .. .. ....|... .. .. ....|... .. .. ....|... .. .. ....|... .. .. ....|... .. .. ....|... .. .. ....|... .. .. ....|... .. .. ....|... .. .. ....|... .. .. ....|... .. .. ....|... .. .. ....|... .. .. ....
03 |... .. .. ....|A#5 .. .. ....|A#6 .. .. ....|... .. .. ....|... .. .. ....|... .. .. ....|... .. .. ....|... .. .. ....|... .. .. ....|... .. .. ....|... .. .. ....|... .. .. ....|... .. .. ....|... .. .. ....|... .. .. ....|... .. .. ....
04 |G-5 .. .. ....|... .. .. ....|... .. .. ....|... .. .. ....|... .. .. ....|... .. .. ....|... .. .. ....|... .. .. ....|... .. .. ....|... .. .. ....|... .. .. ....|... .. .. ....|... .. .. ....|... .. .. ....|... .. .. ....|... .. .. ....
05 |... .. .. ....|G-5 .. .. ....|G-6 .. .. ....|... .. .. ....|... .. .. ....|... .. .. ....|... .. .. ....|... .. .. ....|... .. .. ....|... .. .. ....|... .. .. ....|... .. .. ....|... .. .. ....|... .. .. ....|... .. .. ....|... .. .. ....
06 |A#5 .. .. ....|... .. .. ....|... .. .. ....|... .. .. ....|... .. .. ....|... .. .. ....|... .. .. ....|... .. .. ....|... .. .. ....|... .. .. ....|... .. .. ....|... .. .. ....|... .. .. ....|... .. .. ....|... .. .. ....|... .. .. ....
07 |... .. .. ....|A#5 .. .. ....|A#6 .. .. ....|... .. .. ....|... .. .. ....|... .. .. ....|... .. .. ....|... .. .. ....|... .. .. ....|... .. .. ....|... .. .. ....|... .. .. ....|... .. .. ....|... .. .. ....|... .. .. ....|... .. .. ....
08 |F-6 .. .. ....|... .. .. ....|... .. .. ....|... .. .. ....|... .. .. ....|... .. .. ....|... .. .. ....|... .. .. ....|... .. .. ....|... .. .. ....|... .. .. ....|... .. .. ....|... .. .. ....|... .. .. ....|... .. .. ....|... .. .. ....
09 |... .. .. ....|F-6 .. .. ....|F-7 .. .. ....|... .. .. ....|... .. .. ....|... .. .. ....|... .. .. ....|... .. .. ....|... .. .. ....|... .. .. ....|... .. .. ....|... .. .. ....|... .. .. ....|... .. .. ....|... .. .. ....|... .. .. ....
0A |G-6 .. .. ....|... .. .. ....|... .. .. ....|... .. .. ....|... .. .. ....|... .. .. ....|... .. .. ....|... .. .. ....|... .. .. ....|... .. .. ....|... .. .. ....|... .. .. ....|... .. .. ....|... .. .. ....|... .. .. ....|... .. .. ....
0B |... .. .. ....|G-6 .. .. ....|G-7 .. .. ....|... .. .. ....|... .. .. ....|... .. .. ....|... .. .. ....|... .. .. ....|... .. .. ....|... .. .. ....|... .. .. ....|... .. .. ....|... .. .. ....|... .. .. ....|... .. .. ....|... .. .. ....
0C |D-6 .. .. ....|... .. .. ....|... .. .. ....|... .. .. ....|... .. .. ....|... .. .. ....|... .. .. ....|... .. .. ....|... .. .. ....|... .. .. ....|... .. .. ....|... .. .. ....|... .. .. ....|... .. .. ....|... .. .. ....|... .. .. ....
0D |... .. .. ....|D-6 .. .. ....|D-7 .. .. ....|... .. .. ....|... .. .. ....|... .. .. ....|... .. .. ....|... .. .. ....|... .. .. ....|... .. .. ....|... .. .. ....|... .. .. ....|... .. .. ....|... .. .. ....|... .. .. ....|... .. .. ....
0E |A#5 .. .. ....|... .. .. ....|... .. .. ....|... .. .. ....|... .. .. ....|... .. .. ....|... .. .. ....|... .. .. ....|... .. .. ....|... .. .. ....|... .. .. ....|... .. .. ....|... .. .. ....|... .. .. ....|... .. .. ....|... .. .. ....
0F |... .. .. ....|A#5 .. .. ....|A#6 .. .. ....|... .. .. ....|... .. .. ....|... .. .. ....|... .. .. ....|... .. .. ....|... .. .. ....|... .. .. ....|... .. .. ....|... .. .. ....|... .. .. ....|... .. .. ....|... .. .. ....|... .. .. ....
10 |C-6 .. .. ....|... .. .. ....|... .. .. ....|... .. .. ....|... .. .. ....|... .. .. ....|... .. .. ....|... .. .. ....|... .. .. ....|... .. .. ....|... .. .. ....|... .. .. ....|... .. .. ....|... .. .. ....|... .. .. ....|... .. .. ....
11 |... .. .. ....|C-6 .. .. ....|C-7 .. .. ....|... .. .. ....|... .. .. ....|... .. .. ....|... .. .. ....|... .. .. ....|... .. .. ....|... .. .. ....|... .. .. ....|... .. .. ....|... .. .. ....|... .. .. ....|... .. .. ....|... .. .. ....
12 |... .. .. ....|... .. .. ....|... .. .. ....|... .. .. ....|... .. .. ....|... .. .. ....|... .. .. ....|... .. .. ....|... .. .. ....|... .. .. ....|... .. .. ....|... .. .. ....|... .. .. ....|... .. .. ....|... .. .. ....|... .. .. ....
13 |... .. .. ....|... .. .. ....|... .. .. ....|... .. .. ....|... .. .. ....|... .. .. ....|... .. .. ....|... .. .. ....|... .. .. ....|... .. .. ....|... .. .. ....|... .. .. ....|... .. .. ....|... .. .. ....|... .. .. ....|... .. .. ....
14 |... .. .. ....|... .. .. ....|... .. .. ....|... .. .. ....|... .. .. ....|... .. .. ....|... .. .. ....|... .. .. ....|... .. .. ....|... .. .. ....|... .. .. ....|... .. .. ....|... .. .. ....|... .. .. ....|... .. .. ....|... .. .. ....
15 |... .. .. ....|... .. .. ....|... .. .. ....|... .. .. ....|... .. .. ....|... .. .. ....|... .. .. ....|... .. .. ....|... .. .. ....|... .. .. ....|... .. .. ....|... .. .. ....|... .. .. ....|... .. .. ....|... .. .. ....|... .. .. ....
16 |... .. .. ....|... .. .. ....|... .. .. ....|... .. .. ....|... .. .. ....|... .. .. ....|... .. .. ....|... .. .. ....|... .. .. ....|... .. .. ....|... .. .. ....|... .. .. ....|... .. .. ....|... .. .. ....|... .. .. ....|... .. .. ....
17 |... .. .. ....|... .. .. ....|... .. .. ....|... .. .. ....|... .. .. ....|... .. .. ....|... .. .. ....|... .. .. ....|... .. .. ....|... .. .. ....|... .. .. ....|... .. .. ....|... .. .. ....|... .. .. ....|... .. .. ....|... .. .. ....
18 |... .. .. ....|... .. .. ....|... .. .. ....|... .. .. ....|... .. .. ....|... .. .. ....|... .. .. ....|... .. .. ....|... .. .. ....|... .. .. ....|... .. .. ....|... .. .. ....|... .. .. ....|... .. .. ....|... .. .. ....|... .. .. ....
19 |... .. .. ....|... .. .. ....|... .. .. ....|... .. .. ....|... .. .. ....|... .. .. ....|... .. .. ....|... .. .. ....|... .. .. ....|... .. .. ....|... .. .. ....|... .. .. ....|... .. .. ....|... .. .. ....|... .. .. ....|... .. .. ....
1A |... .. .. ....|... .. .. ....|... .. .. ....|... .. .. ....|... .. .. ....|... .. .. ....|... .. .. ....|... .. .. ....|... .. .. ....|... .. .. ....|... .. .. ....|... .. .. ....|... .. .. ....|... .. .. ....|... .. .. ....|... .. .. ....
1B |... .. .. ....|... .. .. ....|... .. .. ....|... .. .. ....|... .. .. ....|... .. .. ....|... .. .. ....|... .. .. ....|... .. .. ....|... .. .. ....|... .. .. ....|... .. .. ....|... .. .. ....|... .. .. ....|... .. .. ....|... .. .. ....
1C |... .. .. ....|... .. .. ....|... .. .. ....|... .. .. ....|... .. .. ....|... .. .. ....|... .. .. ....|... .. .. ....|... .. .. ....|... .. .. ....|... .. .. ....|... .. .. ....|... .. .. ....|... .. .. ....|... .. .. ....|... .. .. ....
1D |... .. .. ....|... .. .. ....|... .. .. ....|... .. .. ....|... .. .. ....|... .. .. ....|... .. .. ....|... .. .. ....|... .. .. ....|... .. .. ....|... .. .. ....|... .. .. ....|... .. .. ....|... .. .. ....|... .. .. ....|... .. .. ....
1E |... .. .. ....|... .. .. ....|... .. .. ....|... .. .. ....|... .. .. ....|... .. .. ....|... .. .. ....|... .. .. ....|... .. .. ....|... .. .. ....|... .. .. ....|... .. .. ....|... .. .. ....|... .. .. ....|... .. .. ....|... .. .. ....
1F |... .. .. ....|... .. .. ....|... .. .. ....|... .. .. ....|... .. .. ....|... .. .. ....|... .. .. ....|... .. .. ....|... .. .. ....|... .. .. ....|... .. .. ....|... .. .. ....|... .. .. ....|... .. .. ....|... .. .. ....|... .. .. FF..
