# Furnace Text Export

generated by Furnace dev191 (191)

# Song Information

- name: オリエンタル小春フライト
- author: 毛玉の地下基地
- album: 
- system: Yamaha YM2608 (OPNA)
- tuning: 440

- instruments: 6
- wavetables: 0
- samples: 0

# Sound Chips

- Yamaha YM2608 (OPNA)
  - id: 21
  - volume: 1
  - panning: 0
  - front/rear: 0

# Instruments

## 00: String Ensemble

- type: 1
- FM parameters:
  - ALG: 4
  - FB: 4
  - FMS: 0
  - AMS: 0
  - FMS2: 0
  - AMS2: 0
  - operators: 4
  - OPLL patch: 0
  - fixed drum freq: no
  - kick freq: 0520
  - snare/hat freq: 0550
  - tom/top freq: 01C0
  - operator 0:
    - enabled: yes
    - AM: 0
    - AR: 18
    - DR: 0
    - MULT: 2
    - RR: 9
    - SL: 7
    - TL: 26
    - DT2: 0
    - RS: 0
    - DT: 6
    - D2R: 3
    - SSG-EG: 0
    - DAM: 0
    - DVB: 0
    - EGT: 0
    - KSL: 0
    - SUS: 0
    - VIB: 0
    - WS: 0
    - KSR: 0
    - TL volume scale: 2
  - operator 1:
    - enabled: yes
    - AM: 0
    - AR: 18
    - DR: 0
    - MULT: 2
    - RR: 9
    - SL: 2
    - TL: 30
    - DT2: 0
    - RS: 0
    - DT: 0
    - D2R: 3
    - SSG-EG: 0
    - DAM: 0
    - DVB: 0
    - EGT: 0
    - KSL: 0
    - SUS: 0
    - VIB: 0
    - WS: 0
    - KSR: 0
    - TL volume scale: 2
  - operator 2:
    - enabled: yes
    - AM: 0
    - AR: 12
    - DR: 0
    - MULT: 2
    - RR: 8
    - SL: 10
    - TL: 7
    - DT2: 0
    - RS: 0
    - DT: 6
    - D2R: 18
    - SSG-EG: 0
    - DAM: 0
    - DVB: 0
    - EGT: 0
    - KSL: 0
    - SUS: 0
    - VIB: 0
    - WS: 0
    - KSR: 0
    - TL volume scale: 2
  - operator 3:
    - enabled: yes
    - AM: 0
    - AR: 12
    - DR: 0
    - MULT: 2
    - RR: 8
    - SL: 8
    - TL: 0
    - DT2: 0
    - RS: 0
    - DT: 6
    - D2R: 18
    - SSG-EG: 0
    - DAM: 0
    - DVB: 0
    - EGT: 0
    - KSL: 0
    - SUS: 0
    - VIB: 0
    - WS: 0
    - KSR: 0
    - TL volume scale: 2

## 01: Voice Pad

- type: 1
- FM parameters:
  - ALG: 4
  - FB: 4
  - FMS: 0
  - AMS: 0
  - FMS2: 0
  - AMS2: 0
  - operators: 4
  - OPLL patch: 0
  - fixed drum freq: no
  - kick freq: 0520
  - snare/hat freq: 0550
  - tom/top freq: 01C0
  - operator 0:
    - enabled: yes
    - AM: 0
    - AR: 16
    - DR: 0
    - MULT: 2
    - RR: 2
    - SL: 0
    - TL: 42
    - DT2: 0
    - RS: 0
    - DT: 6
    - D2R: 0
    - SSG-EG: 0
    - DAM: 0
    - DVB: 0
    - EGT: 0
    - KSL: 0
    - SUS: 0
    - VIB: 0
    - WS: 0
    - KSR: 0
    - TL volume scale: 2
  - operator 1:
    - enabled: yes
    - AM: 0
    - AR: 22
    - DR: 0
    - MULT: 2
    - RR: 2
    - SL: 0
    - TL: 45
    - DT2: 0
    - RS: 0
    - DT: 0
    - D2R: 0
    - SSG-EG: 0
    - DAM: 0
    - DVB: 0
    - EGT: 0
    - KSL: 0
    - SUS: 0
    - VIB: 0
    - WS: 0
    - KSR: 0
    - TL volume scale: 2
  - operator 2:
    - enabled: yes
    - AM: 0
    - AR: 15
    - DR: 4
    - MULT: 4
    - RR: 6
    - SL: 1
    - TL: 3
    - DT2: 0
    - RS: 0
    - DT: 6
    - D2R: 0
    - SSG-EG: 0
    - DAM: 0
    - DVB: 0
    - EGT: 0
    - KSL: 0
    - SUS: 0
    - VIB: 0
    - WS: 0
    - KSR: 0
    - TL volume scale: 2
  - operator 3:
    - enabled: yes
    - AM: 0
    - AR: 15
    - DR: 4
    - MULT: 2
    - RR: 6
    - SL: 1
    - TL: 3
    - DT2: 0
    - RS: 0
    - DT: 0
    - D2R: 0
    - SSG-EG: 0
    - DAM: 0
    - DVB: 0
    - EGT: 0
    - KSL: 0
    - SUS: 0
    - VIB: 0
    - WS: 0
    - KSR: 0
    - TL volume scale: 2

## 02: Bass

- type: 1
- FM parameters:
  - ALG: 2
  - FB: 6
  - FMS: 0
  - AMS: 1
  - FMS2: 0
  - AMS2: 0
  - operators: 4
  - OPLL patch: 0
  - fixed drum freq: no
  - kick freq: 0520
  - snare/hat freq: 0550
  - tom/top freq: 01C0
  - operator 0:
    - enabled: yes
    - AM: 0
    - AR: 22
    - DR: 9
    - MULT: 0
    - RR: 15
    - SL: 0
    - TL: 35
    - DT2: 0
    - RS: 0
    - DT: 6
    - D2R: 0
    - SSG-EG: 0
    - DAM: 0
    - DVB: 0
    - EGT: 0
    - KSL: 0
    - SUS: 0
    - VIB: 0
    - WS: 0
    - KSR: 0
    - TL volume scale: 2
  - operator 1:
    - enabled: yes
    - AM: 0
    - AR: 25
    - DR: 9
    - MULT: 2
    - RR: 15
    - SL: 0
    - TL: 42
    - DT2: 0
    - RS: 0
    - DT: 0
    - D2R: 0
    - SSG-EG: 0
    - DAM: 0
    - DVB: 0
    - EGT: 0
    - KSL: 0
    - SUS: 0
    - VIB: 0
    - WS: 0
    - KSR: 0
    - TL volume scale: 2
  - operator 2:
    - enabled: yes
    - AM: 0
    - AR: 22
    - DR: 14
    - MULT: 2
    - RR: 15
    - SL: 4
    - TL: 22
    - DT2: 0
    - RS: 0
    - DT: 0
    - D2R: 0
    - SSG-EG: 0
    - DAM: 0
    - DVB: 0
    - EGT: 0
    - KSL: 0
    - SUS: 0
    - VIB: 0
    - WS: 0
    - KSR: 0
    - TL volume scale: 2
  - operator 3:
    - enabled: yes
    - AM: 0
    - AR: 25
    - DR: 6
    - MULT: 0
    - RR: 15
    - SL: 15
    - TL: 7
    - DT2: 0
    - RS: 0
    - DT: 6
    - D2R: 0
    - SSG-EG: 0
    - DAM: 0
    - DVB: 0
    - EGT: 0
    - KSL: 0
    - SUS: 0
    - VIB: 0
    - WS: 0
    - KSR: 0
    - TL volume scale: 2

## 03: Trumpet

- type: 1
- FM parameters:
  - ALG: 5
  - FB: 7
  - FMS: 1
  - AMS: 0
  - FMS2: 0
  - AMS2: 0
  - operators: 4
  - OPLL patch: 0
  - fixed drum freq: no
  - kick freq: 0520
  - snare/hat freq: 0550
  - tom/top freq: 01C0
  - operator 0:
    - enabled: yes
    - AM: 0
    - AR: 31
    - DR: 12
    - MULT: 1
    - RR: 6
    - SL: 1
    - TL: 25
    - DT2: 0
    - RS: 0
    - DT: 3
    - D2R: 3
    - SSG-EG: 0
    - DAM: 0
    - DVB: 0
    - EGT: 0
    - KSL: 0
    - SUS: 0
    - VIB: 0
    - WS: 0
    - KSR: 0
    - TL volume scale: 2
  - operator 1:
    - enabled: yes
    - AM: 0
    - AR: 14
    - DR: 7
    - MULT: 2
    - RR: 9
    - SL: 4
    - TL: 12
    - DT2: 0
    - RS: 0
    - DT: 3
    - D2R: 0
    - SSG-EG: 0
    - DAM: 0
    - DVB: 0
    - EGT: 0
    - KSL: 0
    - SUS: 0
    - VIB: 0
    - WS: 0
    - KSR: 0
    - TL volume scale: 2
  - operator 2:
    - enabled: yes
    - AM: 0
    - AR: 15
    - DR: 9
    - MULT: 3
    - RR: 8
    - SL: 4
    - TL: 12
    - DT2: 0
    - RS: 0
    - DT: 2
    - D2R: 0
    - SSG-EG: 0
    - DAM: 0
    - DVB: 0
    - EGT: 0
    - KSL: 0
    - SUS: 0
    - VIB: 0
    - WS: 0
    - KSR: 0
    - TL volume scale: 2
  - operator 3:
    - enabled: yes
    - AM: 0
    - AR: 14
    - DR: 2
    - MULT: 1
    - RR: 8
    - SL: 3
    - TL: 12
    - DT2: 0
    - RS: 0
    - DT: 4
    - D2R: 0
    - SSG-EG: 0
    - DAM: 0
    - DVB: 0
    - EGT: 0
    - KSL: 0
    - SUS: 0
    - VIB: 0
    - WS: 0
    - KSR: 0
    - TL volume scale: 2

## 04: SJS_SynthBrass2

- type: 1
- FM parameters:
  - ALG: 6
  - FB: 5
  - FMS: 0
  - AMS: 0
  - FMS2: 0
  - AMS2: 0
  - operators: 4
  - OPLL patch: 0
  - fixed drum freq: no
  - kick freq: 0520
  - snare/hat freq: 0550
  - tom/top freq: 01C0
  - operator 0:
    - enabled: yes
    - AM: 0
    - AR: 18
    - DR: 3
    - MULT: 1
    - RR: 5
    - SL: 6
    - TL: 15
    - DT2: 0
    - RS: 0
    - DT: 3
    - D2R: 0
    - SSG-EG: 0
    - DAM: 0
    - DVB: 0
    - EGT: 0
    - KSL: 0
    - SUS: 0
    - VIB: 0
    - WS: 0
    - KSR: 0
    - TL volume scale: 2
  - operator 1:
    - enabled: yes
    - AM: 0
    - AR: 31
    - DR: 4
    - MULT: 1
    - RR: 5
    - SL: 10
    - TL: 17
    - DT2: 0
    - RS: 0
    - DT: 3
    - D2R: 0
    - SSG-EG: 0
    - DAM: 0
    - DVB: 0
    - EGT: 0
    - KSL: 0
    - SUS: 0
    - VIB: 0
    - WS: 0
    - KSR: 0
    - TL volume scale: 2
  - operator 2:
    - enabled: yes
    - AM: 0
    - AR: 31
    - DR: 1
    - MULT: 1
    - RR: 5
    - SL: 11
    - TL: 8
    - DT2: 0
    - RS: 0
    - DT: 3
    - D2R: 0
    - SSG-EG: 0
    - DAM: 0
    - DVB: 0
    - EGT: 0
    - KSL: 0
    - SUS: 0
    - VIB: 0
    - WS: 0
    - KSR: 0
    - TL volume scale: 2
  - operator 3:
    - enabled: yes
    - AM: 0
    - AR: 31
    - DR: 4
    - MULT: 1
    - RR: 5
    - SL: 4
    - TL: 15
    - DT2: 0
    - RS: 0
    - DT: 3
    - D2R: 0
    - SSG-EG: 0
    - DAM: 0
    - DVB: 0
    - EGT: 0
    - KSL: 0
    - SUS: 0
    - VIB: 0
    - WS: 0
    - KSR: 0
    - TL volume scale: 2

## 05: Synth String

- type: 1
- FM parameters:
  - ALG: 2
  - FB: 0
  - FMS: 0
  - AMS: 0
  - FMS2: 0
  - AMS2: 0
  - operators: 4
  - OPLL patch: 0
  - fixed drum freq: no
  - kick freq: 0520
  - snare/hat freq: 0550
  - tom/top freq: 01C0
  - operator 0:
    - enabled: yes
    - AM: 0
    - AR: 16
    - DR: 1
    - MULT: 2
    - RR: 4
    - SL: 1
    - TL: 32
    - DT2: 0
    - RS: 0
    - DT: 7
    - D2R: 0
    - SSG-EG: 0
    - DAM: 0
    - DVB: 0
    - EGT: 0
    - KSL: 0
    - SUS: 0
    - VIB: 0
    - WS: 0
    - KSR: 0
    - TL volume scale: 2
  - operator 1:
    - enabled: yes
    - AM: 0
    - AR: 27
    - DR: 1
    - MULT: 2
    - RR: 4
    - SL: 1
    - TL: 34
    - DT2: 0
    - RS: 0
    - DT: 3
    - D2R: 0
    - SSG-EG: 0
    - DAM: 0
    - DVB: 0
    - EGT: 0
    - KSL: 0
    - SUS: 0
    - VIB: 0
    - WS: 0
    - KSR: 0
    - TL volume scale: 2
  - operator 2:
    - enabled: yes
    - AM: 0
    - AR: 11
    - DR: 4
    - MULT: 2
    - RR: 4
    - SL: 1
    - TL: 28
    - DT2: 0
    - RS: 0
    - DT: 0
    - D2R: 0
    - SSG-EG: 0
    - DAM: 0
    - DVB: 0
    - EGT: 0
    - KSL: 0
    - SUS: 0
    - VIB: 0
    - WS: 0
    - KSR: 0
    - TL volume scale: 2
  - operator 3:
    - enabled: yes
    - AM: 0
    - AR: 12
    - DR: 2
    - MULT: 2
    - RR: 6
    - SL: 1
    - TL: 0
    - DT2: 0
    - RS: 0
    - DT: 0
    - D2R: 0
    - SSG-EG: 0
    - DAM: 0
    - DVB: 0
    - EGT: 0
    - KSL: 0
    - SUS: 0
    - VIB: 0
    - WS: 0
    - KSR: 0
    - TL volume scale: 2


# Wavetables


# Samples


# Subsongs

## 0: 

- tick rate: 60
- speeds: 6
- virtual tempo: 150/150
- time base: 0
- pattern length: 32

orders:
```
00 | 00 00 00 00 00 00 00 00 00 00 00 00 00 00 00 00
01 | 01 01 01 01 01 01 01 01 01 01 01 01 01 01 01 01
02 | 02 02 01 02 02 02 02 02 02 02 02 02 02 02 02 02
03 | 03 03 01 01 01 01 03 03 03 04 02 02 02 03 03 03
04 | 04 04 01 02 02 02 04 04 04 03 03 03 03 04 04 04
05 | 05 05 01 01 01 01 05 05 05 01 01 01 01 05 05 05
06 | 06 06 01 02 02 02 06 06 06 02 02 02 02 06 06 06
07 | 07 07 01 01 01 01 07 07 07 04 02 02 02 07 07 07
08 | 08 08 01 02 02 02 08 08 08 03 03 03 03 08 08 08
09 | 09 09 02 03 03 03 09 09 09 05 04 04 04 09 09 09
0A | 0A 0A 03 04 04 04 0A 0A 0A 04 05 05 05 0A 0A 0A
0B | 0B 0B 04 05 05 05 0B 0B 0B 06 06 06 05 0B 0B 0B
0C | 0C 0C 05 06 06 06 0C 0C 0C 04 05 07 05 0C 0C 0C
0D | 0D 0D 06 07 07 07 0D 0D 0D 06 06 08 05 0D 0D 0D
0E | 0A 0A 03 04 04 04 0E 0E 0E 04 05 09 05 0E 0E 0E
0F | 0B 0B 04 08 08 08 0F 0F 0F 06 06 0A 05 0F 0F 0F
10 | 0E 0E 07 09 09 09 10 10 10 04 05 0B 05 10 10 10
11 | 0F 0F 08 0A 0A 0A 11 11 11 06 06 0C 05 11 11 11
12 | 10 10 09 0B 0B 0B 12 12 12 07 07 0D 06 12 12 12
13 | 11 11 09 0B 0B 0B 12 12 12 07 07 0D 06 12 12 12
14 | 10 10 09 0B 0B 0B 12 12 12 07 07 0D 06 12 12 12
15 | 11 11 0A 0C 0C 0C 12 12 12 07 08 0E 06 12 12 12
16 | 10 10 09 0B 0B 0B 12 12 12 08 09 0F 05 12 12 12
17 | 11 11 09 0B 0B 0B 12 12 12 08 09 0F 05 12 12 12
18 | 10 10 09 0B 0B 0B 12 12 12 08 09 0F 05 12 12 12
19 | 11 11 0A 0C 0C 0C 12 12 12 09 0A 10 07 12 12 13
```

## Patterns

----- ORDER 00
00 |... .. .. ....|... .. .. ....|... .. .. ....|... .. .. ....|... .. .. ....|... .. .. ....|... .. .. ....|... .. .. ....|... .. .. ....|... .. .. ....|... .. .. ....|... .. .. ....|... .. .. ....|... .. .. ....|... .. .. ....|... .. .. 0D..
01 |... .. .. ....|... .. .. ....|... .. .. ....|... .. .. ....|... .. .. ....|... .. .. ....|... .. .. ....|... .. .. ....|... .. .. ....|... .. .. ....|... .. .. ....|... .. .. ....|... .. .. ....|... .. .. ....|... .. .. ....|... .. .. ....
02 |... .. .. ....|... .. .. ....|... .. .. ....|... .. .. ....|... .. .. ....|... .. .. ....|... .. .. ....|... .. .. ....|... .. .. ....|... .. .. ....|... .. .. ....|... .. .. ....|... .. .. ....|... .. .. ....|... .. .. ....|... .. .. ....
03 |... .. .. ....|... .. .. ....|... .. .. ....|... .. .. ....|... .. .. ....|... .. .. ....|... .. .. ....|... .. .. ....|... .. .. ....|... .. .. ....|... .. .. ....|... .. .. ....|... .. .. ....|... .. .. ....|... .. .. ....|... .. .. ....
04 |... .. .. ....|... .. .. ....|... .. .. ....|... .. .. ....|... .. .. ....|... .. .. ....|... .. .. ....|... .. .. ....|... .. .. ....|... .. .. ....|... .. .. ....|... .. .. ....|... .. .. ....|... .. .. ....|... .. .. ....|... .. .. ....
05 |... .. .. ....|... .. .. ....|... .. .. ....|... .. .. ....|... .. .. ....|... .. .. ....|... .. .. ....|... .. .. ....|... .. .. ....|... .. .. ....|... .. .. ....|... .. .. ....|... .. .. ....|... .. .. ....|... .. .. ....|... .. .. ....
06 |... .. .. ....|... .. .. ....|... .. .. ....|... .. .. ....|... .. .. ....|... .. .. ....|... .. .. ....|... .. .. ....|... .. .. ....|... .. .. ....|... .. .. ....|... .. .. ....|... .. .. ....|... .. .. ....|... .. .. ....|... .. .. ....
07 |... .. .. ....|... .. .. ....|... .. .. ....|... .. .. ....|... .. .. ....|... .. .. ....|... .. .. ....|... .. .. ....|... .. .. ....|... .. .. ....|... .. .. ....|... .. .. ....|... .. .. ....|... .. .. ....|... .. .. ....|... .. .. ....
08 |... .. .. ....|... .. .. ....|... .. .. ....|... .. .. ....|... .. .. ....|... .. .. ....|... .. .. ....|... .. .. ....|... .. .. ....|... .. .. ....|... .. .. ....|... .. .. ....|... .. .. ....|... .. .. ....|... .. .. ....|... .. .. ....
09 |... .. .. ....|... .. .. ....|... .. .. ....|... .. .. ....|... .. .. ....|... .. .. ....|... .. .. ....|... .. .. ....|... .. .. ....|... .. .. ....|... .. .. ....|... .. .. ....|... .. .. ....|... .. .. ....|... .. .. ....|... .. .. ....
0A |... .. .. ....|... .. .. ....|... .. .. ....|... .. .. ....|... .. .. ....|... .. .. ....|... .. .. ....|... .. .. ....|... .. .. ....|... .. .. ....|... .. .. ....|... .. .. ....|... .. .. ....|... .. .. ....|... .. .. ....|... .. .. ....
0B |... .. .. ....|... .. .. ....|... .. .. ....|... .. .. ....|... .. .. ....|... .. .. ....|... .. .. ....|... .. .. ....|... .. .. ....|... .. .. ....|... .. .. ....|... .. .. ....|... .. .. ....|... .. .. ....|... .. .. ....|... .. .. ....
0C |... .. .. ....|... .. .. ....|... .. .. ....|... .. .. ....|... .. .. ....|... .. .. ....|... .. .. ....|... .. .. ....|... .. .. ....|... .. .. ....|... .. .. ....|... .. .. ....|... .. .. ....|... .. .. ....|... .. .. ....|... .. .. ....
0D |... .. .. ....|... .. .. ....|... .. .. ....|... .. .. ....|... .. .. ....|... .. .. ....|... .. .. ....|... .. .. ....|... .. .. ....|... .. .. ....|... .. .. ....|... .. .. ....|... .. .. ....|... .. .. ....|... .. .. ....|... .. .. ....
0E |... .. .. ....|... .. .. ....|... .. .. ....|... .. .. ....|... .. .. ....|... .. .. ....|... .. .. ....|... .. .. ....|... .. .. ....|... .. .. ....|... .. .. ....|... .. .. ....|... .. .. ....|... .. .. ....|... .. .. ....|... .. .. ....
0F |... .. .. ....|... .. .. ....|... .. .. ....|... .. .. ....|... .. .. ....|... .. .. ....|... .. .. ....|... .. .. ....|... .. .. ....|... .. .. ....|... .. .. ....|... .. .. ....|... .. .. ....|... .. .. ....|... .. .. ....|... .. .. ....
10 |... .. .. ....|... .. .. ....|... .. .. ....|... .. .. ....|... .. .. ....|... .. .. ....|... .. .. ....|... .. .. ....|... .. .. ....|... .. .. ....|... .. .. ....|... .. .. ....|... .. .. ....|... .. .. ....|... .. .. ....|... .. .. ....
11 |... .. .. ....|... .. .. ....|... .. .. ....|... .. .. ....|... .. .. ....|... .. .. ....|... .. .. ....|... .. .. ....|... .. .. ....|... .. .. ....|... .. .. ....|... .. .. ....|... .. .. ....|... .. .. ....|... .. .. ....|... .. .. ....
12 |... .. .. ....|... .. .. ....|... .. .. ....|... .. .. ....|... .. .. ....|... .. .. ....|... .. .. ....|... .. .. ....|... .. .. ....|... .. .. ....|... .. .. ....|... .. .. ....|... .. .. ....|... .. .. ....|... .. .. ....|... .. .. ....
13 |... .. .. ....|... .. .. ....|... .. .. ....|... .. .. ....|... .. .. ....|... .. .. ....|... .. .. ....|... .. .. ....|... .. .. ....|... .. .. ....|... .. .. ....|... .. .. ....|... .. .. ....|... .. .. ....|... .. .. ....|... .. .. ....
14 |... .. .. ....|... .. .. ....|... .. .. ....|... .. .. ....|... .. .. ....|... .. .. ....|... .. .. ....|... .. .. ....|... .. .. ....|... .. .. ....|... .. .. ....|... .. .. ....|... .. .. ....|... .. .. ....|... .. .. ....|... .. .. ....
15 |... .. .. ....|... .. .. ....|... .. .. ....|... .. .. ....|... .. .. ....|... .. .. ....|... .. .. ....|... .. .. ....|... .. .. ....|... .. .. ....|... .. .. ....|... .. .. ....|... .. .. ....|... .. .. ....|... .. .. ....|... .. .. ....
16 |... .. .. ....|... .. .. ....|... .. .. ....|... .. .. ....|... .. .. ....|... .. .. ....|... .. .. ....|... .. .. ....|... .. .. ....|... .. .. ....|... .. .. ....|... .. .. ....|... .. .. ....|... .. .. ....|... .. .. ....|... .. .. ....
17 |... .. .. ....|... .. .. ....|... .. .. ....|... .. .. ....|... .. .. ....|... .. .. ....|... .. .. ....|... .. .. ....|... .. .. ....|... .. .. ....|... .. .. ....|... .. .. ....|... .. .. ....|... .. .. ....|... .. .. ....|... .. .. ....
18 |... .. .. ....|... .. .. ....|... .. .. ....|... .. .. ....|... .. .. ....|... .. .. ....|... .. .. ....|... .. .. ....|... .. .. ....|... .. .. ....|... .. .. ....|... .. .. ....|... .. .. ....|... .. .. ....|... .. .. ....|... .. .. ....
19 |... .. .. ....|... .. .. ....|... .. .. ....|... .. .. ....|... .. .. ....|... .. .. ....|... .. .. ....|... .. .. ....|... .. .. ....|... .. .. ....|... .. .. ....|... .. .. ....|... .. .. ....|... .. .. ....|... .. .. ....|... .. .. ....
1A |... .. .. ....|... .. .. ....|... .. .. ....|... .. .. ....|... .. .. ....|... .. .. ....|... .. .. ....|... .. .. ....|... .. .. ....|... .. .. ....|... .. .. ....|... .. .. ....|... .. .. ....|... .. .. ....|... .. .. ....|... .. .. ....
1B |... .. .. ....|... .. .. ....|... .. .. ....|... .. .. ....|... .. .. ....|... .. .. ....|... .. .. ....|... .. .. ....|... .. .. ....|... .. .. ....|... .. .. ....|... .. .. ....|... .. .. ....|... .. .. ....|... .. .. ....|... .. .. ....
1C |... .. .. ....|... .. .. ....|... .. .. ....|... .. .. ....|... .. .. ....|... .. .. ....|... .. .. ....|... .. .. ....|... .. .. ....|... .. .. ....|... .. .. ....|... .. .. ....|... .. .. ....|... .. .. ....|... .. .. ....|... .. .. ....
1D |... .. .. ....|... .. .. ....|... .. .. ....|... .. .. ....|... .. .. ....|... .. .. ....|... .. .. ....|... .. .. ....|... .. .. ....|... .. .. ....|... .. .. ....|... .. .. ....|... .. .. ....|... .. .. ....|... .. .. ....|... .. .. ....
1E |... .. .. ....|... .. .. ....|... .. .. ....|... .. .. ....|... .. .. ....|... .. .. ....|... .. .. ....|... .. .. ....|... .. .. ....|... .. .. ....|... .. .. ....|... .. .. ....|... .. .. ....|... .. .. ....|... .. .. ....|... .. .. ....
1F |... .. .. ....|... .. .. ....|... .. .. ....|... .. .. ....|... .. .. ....|... .. .. ....|... .. .. ....|... .. .. ....|... .. .. ....|... .. .. ....|... .. .. ....|... .. .. ....|... .. .. ....|... .. .. ....|... .. .. ....|... .. .. ....
----- ORDER 01
00 |... .. .. ....|... .. .. ....|A-2 02 7A ....|E-2 01 72 ....|A-2 01 72 ....|C-3 01 72 ....|... .. .. ....|... .. .. ....|... .. .. ....|... .. .. ....|... .. .. ....|C-3 01 .. ....|... .. .. ....|... .. .. ....|... .. .. ....|... .. .. ....
01 |... .. .. ....|... .. .. ....|OFF .. .. ....|... .. .. ....|... .. .. ....|... .. .. ....|... .. .. ....|... .. .. ....|... .. .. ....|... .. .. ....|... .. .. ....|... .. .. ....|... .. .. ....|... .. .. ....|... .. .. ....|... .. .. ....
02 |... .. .. ....|... .. .. ....|E-3 .. .. ....|... .. .. ....|... .. .. ....|... .. .. ....|... .. .. ....|... .. .. ....|... .. .. ....|... .. .. ....|... .. .. ....|... .. .. ....|B-2 .. .. ....|... .. .. ....|... .. .. ....|... .. .. ....
03 |... .. .. ....|... .. .. ....|OFF .. .. ....|... .. .. ....|... .. .. ....|... .. .. ....|... .. .. ....|... .. .. ....|... .. .. ....|... .. .. ....|... .. .. ....|... .. .. ....|... .. .. ....|... .. .. ....|... .. .. ....|... .. .. ....
04 |... .. .. ....|... .. .. ....|A-2 .. .. ....|... .. .. ....|... .. .. ....|... .. .. ....|... .. .. ....|... .. .. ....|... .. .. ....|B-2 .. .. ....|... .. .. ....|... .. .. ....|B-2 .. .. ....|... .. .. ....|... .. .. ....|... .. .. ....
05 |... .. .. ....|... .. .. ....|OFF .. .. ....|... .. .. ....|... .. .. ....|... .. .. ....|... .. .. ....|... .. .. ....|... .. .. ....|... .. .. ....|... .. .. ....|... .. .. ....|... .. .. ....|... .. .. ....|... .. .. ....|... .. .. ....
06 |... .. .. ....|... .. .. ....|E-3 .. .. ....|... .. .. ....|... .. .. ....|... .. .. ....|... .. .. ....|... .. .. ....|... .. .. ....|... .. .. ....|... .. .. ....|... .. .. ....|B-2 .. .. ....|... .. .. ....|... .. .. ....|... .. .. ....
07 |... .. .. ....|... .. .. ....|OFF .. .. ....|... .. .. ....|... .. .. ....|... .. .. ....|... .. .. ....|... .. .. ....|... .. .. ....|... .. .. ....|... .. .. ....|... .. .. ....|... .. .. ....|... .. .. ....|... .. .. ....|... .. .. ....
08 |... .. .. ....|... .. .. ....|A-2 .. .. ....|... .. .. ....|... .. .. ....|... .. .. ....|... .. .. ....|... .. .. ....|... .. .. ....|B-2 .. .. ....|... .. .. ....|... .. .. ....|B-2 .. .. ....|... .. .. ....|... .. .. ....|... .. .. ....
09 |... .. .. ....|... .. .. ....|OFF .. .. ....|... .. .. ....|... .. .. ....|... .. .. ....|... .. .. ....|... .. .. ....|... .. .. ....|... .. .. ....|... .. .. ....|... .. .. ....|... .. .. ....|... .. .. ....|... .. .. ....|... .. .. ....
0A |... .. .. ....|... .. .. ....|E-3 .. .. ....|... .. .. ....|... .. .. ....|... .. .. ....|... .. .. ....|... .. .. ....|... .. .. ....|... .. .. ....|... .. .. ....|... .. .. ....|B-2 .. .. ....|... .. .. ....|... .. .. ....|... .. .. ....
0B |... .. .. ....|... .. .. ....|OFF .. .. ....|... .. .. ....|... .. .. ....|... .. .. ....|... .. .. ....|... .. .. ....|... .. .. ....|... .. .. ....|... .. .. ....|... .. .. ....|... .. .. ....|... .. .. ....|... .. .. ....|... .. .. ....
0C |... .. .. ....|... .. .. ....|A-2 .. .. ....|... .. .. ....|B-2 .. .. ....|D-3 .. .. ....|... .. .. ....|... .. .. ....|... .. .. ....|B-2 .. .. ....|... .. .. ....|... .. .. ....|B-2 .. .. ....|... .. .. ....|... .. .. ....|... .. .. ....
0D |... .. .. ....|... .. .. ....|OFF .. .. ....|... .. .. ....|... .. .. ....|... .. .. ....|... .. .. ....|... .. .. ....|... .. .. ....|... .. .. ....|... .. .. ....|... .. .. ....|... .. .. ....|... .. .. ....|... .. .. ....|... .. .. ....
0E |... .. .. ....|... .. .. ....|E-3 .. .. ....|... .. .. ....|... .. .. ....|... .. .. ....|... .. .. ....|... .. .. ....|... .. .. ....|... .. .. ....|... .. .. ....|... .. .. ....|B-2 .. .. ....|... .. .. ....|... .. .. ....|... .. .. ....
0F |... .. .. ....|... .. .. ....|OFF .. .. ....|... .. .. ....|... .. .. ....|... .. .. ....|... .. .. ....|... .. .. ....|... .. .. ....|... .. .. ....|... .. .. ....|... .. .. ....|... .. .. ....|... .. .. ....|... .. .. ....|... .. .. ....
10 |... .. .. ....|... .. .. ....|A-2 .. .. ....|E-2 .. .. ....|A-2 .. .. ....|C-3 .. .. ....|... .. .. ....|... .. .. ....|... .. .. ....|B-2 .. .. ....|... .. .. ....|... .. .. ....|B-2 .. .. ....|... .. .. ....|... .. .. ....|... .. .. ....
11 |... .. .. ....|... .. .. ....|OFF .. .. ....|... .. .. ....|... .. .. ....|... .. .. ....|... .. .. ....|... .. .. ....|... .. .. ....|... .. .. ....|... .. .. ....|... .. .. ....|... .. .. ....|... .. .. ....|... .. .. ....|... .. .. ....
12 |... .. .. ....|... .. .. ....|E-3 .. .. ....|... .. .. ....|... .. .. ....|... .. .. ....|... .. .. ....|... .. .. ....|... .. .. ....|... .. .. ....|... .. .. ....|... .. .. ....|B-2 .. .. ....|... .. .. ....|... .. .. ....|... .. .. ....
13 |... .. .. ....|... .. .. ....|OFF .. .. ....|... .. .. ....|... .. .. ....|... .. .. ....|... .. .. ....|... .. .. ....|... .. .. ....|... .. .. ....|... .. .. ....|... .. .. ....|... .. .. ....|... .. .. ....|... .. .. ....|... .. .. ....
14 |... .. .. ....|... .. .. ....|A-2 .. .. ....|... .. .. ....|... .. .. ....|... .. .. ....|... .. .. ....|... .. .. ....|... .. .. ....|B-2 .. .. ....|... .. .. ....|... .. .. ....|B-2 .. .. ....|... .. .. ....|... .. .. ....|... .. .. ....
15 |... .. .. ....|... .. .. ....|OFF .. .. ....|... .. .. ....|... .. .. ....|... .. .. ....|... .. .. ....|... .. .. ....|... .. .. ....|... .. .. ....|... .. .. ....|... .. .. ....|... .. .. ....|... .. .. ....|... .. .. ....|... .. .. ....
16 |... .. .. ....|... .. .. ....|E-3 .. .. ....|... .. .. ....|... .. .. ....|... .. .. ....|... .. .. ....|... .. .. ....|... .. .. ....|... .. .. ....|... .. .. ....|... .. .. ....|B-2 .. .. ....|... .. .. ....|... .. .. ....|... .. .. ....
17 |... .. .. ....|... .. .. ....|OFF .. .. ....|... .. .. ....|... .. .. ....|... .. .. ....|... .. .. ....|... .. .. ....|... .. .. ....|... .. .. ....|... .. .. ....|... .. .. ....|... .. .. ....|... .. .. ....|... .. .. ....|... .. .. ....
18 |... .. .. ....|... .. .. ....|A-2 .. .. ....|... .. .. ....|... .. .. ....|... .. .. ....|... .. .. ....|... .. .. ....|... .. .. ....|B-2 .. .. ....|... .. .. ....|... .. .. ....|B-2 .. .. ....|... .. .. ....|... .. .. ....|... .. .. ....
19 |... .. .. ....|... .. .. ....|OFF .. .. ....|... .. .. ....|... .. .. ....|... .. .. ....|... .. .. ....|... .. .. ....|... .. .. ....|... .. .. ....|... .. .. ....|... .. .. ....|... .. .. ....|... .. .. ....|... .. .. ....|... .. .. ....
1A |... .. .. ....|... .. .. ....|E-3 .. .. ....|... .. .. ....|... .. .. ....|... .. .. ....|... .. .. ....|... .. .. ....|... .. .. ....|... .. .. ....|... .. .. ....|... .. .. ....|B-2 .. .. ....|... .. .. ....|... .. .. ....|... .. .. ....
1B |... .. .. ....|... .. .. ....|OFF .. .. ....|... .. .. ....|... .. .. ....|... .. .. ....|... .. .. ....|... .. .. ....|... .. .. ....|... .. .. ....|... .. .. ....|... .. .. ....|... .. .. ....|... .. .. ....|... .. .. ....|... .. .. ....
1C |... .. .. ....|... .. .. ....|A#2 .. .. ....|... .. .. ....|G#2 .. .. ....|B-2 .. .. ....|... .. .. ....|... .. .. ....|... .. .. ....|B-2 .. .. ....|... .. .. ....|... .. .. ....|B-2 .. .. ....|... .. .. ....|... .. .. ....|... .. .. ....
1D |... .. .. ....|... .. .. ....|OFF .. .. ....|... .. .. ....|... .. .. ....|... .. .. ....|... .. .. ....|... .. .. ....|... .. .. ....|... .. .. ....|... .. .. ....|... .. .. ....|... .. .. ....|... .. .. ....|... .. .. ....|... .. .. ....
1E |... .. .. ....|... .. .. ....|F-3 .. .. ....|... .. .. ....|... .. .. ....|... .. .. ....|... .. .. ....|... .. .. ....|... .. .. ....|... .. .. ....|... .. .. ....|C-3 00 .. ....|... .. .. ....|... .. .. ....|... .. .. ....|... .. .. ....
1F |... .. .. ....|... .. .. ....|OFF .. .. ....|... .. .. ....|... .. .. ....|... .. .. ....|... .. .. ....|... .. .. ....|... .. .. ....|... .. .. ....|... .. .. ....|... .. .. ....|... .. .. ....|... .. .. ....|... .. .. ....|... .. .. ....
----- ORDER 02
00 |... .. .. ....|... .. .. ....|A-2 02 7A ....|E-2 .. .. ....|A-2 .. .. ....|C-3 .. .. ....|... .. .. ....|... .. .. ....|... .. .. ....|C-3 .. .. ....|... .. .. ....|... .. .. ....|C-3 .. .. ....|... .. .. ....|... .. .. ....|... .. .. ....
01 |... .. .. ....|... .. .. ....|OFF .. .. ....|... .. .. ....|... .. .. ....|... .. .. ....|... .. .. ....|... .. .. ....|... .. .. ....|... .. .. ....|... .. .. ....|... .. .. ....|... .. .. ....|... .. .. ....|... .. .. ....|... .. .. ....
02 |... .. .. ....|... .. .. ....|E-3 .. .. ....|... .. .. ....|... .. .. ....|... .. .. ....|... .. .. ....|... .. .. ....|... .. .. ....|... .. .. ....|... .. .. ....|... .. .. ....|C-3 .. .. ....|... .. .. ....|... .. .. ....|... .. .. ....
03 |... .. .. ....|... .. .. ....|OFF .. .. ....|... .. .. ....|... .. .. ....|... .. .. ....|... .. .. ....|... .. .. ....|... .. .. ....|... .. .. ....|... .. .. ....|... .. .. ....|... .. .. ....|... .. .. ....|... .. .. ....|... .. .. ....
04 |... .. .. ....|... .. .. ....|A-2 .. .. ....|... .. .. ....|... .. .. ....|... .. .. ....|... .. .. ....|... .. .. ....|... .. .. ....|C-3 .. .. ....|... .. .. ....|... .. .. ....|C-3 .. .. ....|... .. .. ....|... .. .. ....|... .. .. ....
05 |... .. .. ....|... .. .. ....|OFF .. .. ....|... .. .. ....|... .. .. ....|... .. .. ....|... .. .. ....|... .. .. ....|... .. .. ....|... .. .. ....|... .. .. ....|... .. .. ....|... .. .. ....|... .. .. ....|... .. .. ....|... .. .. ....
06 |... .. .. ....|... .. .. ....|E-3 .. .. ....|... .. .. ....|... .. .. ....|... .. .. ....|... .. .. ....|... .. .. ....|... .. .. ....|... .. .. ....|... .. .. ....|... .. .. ....|C-3 .. .. ....|... .. .. ....|... .. .. ....|... .. .. ....
07 |... .. .. ....|... .. .. ....|OFF .. .. ....|... .. .. ....|... .. .. ....|... .. .. ....|... .. .. ....|... .. .. ....|... .. .. ....|... .. .. ....|... .. .. ....|... .. .. ....|... .. .. ....|... .. .. ....|... .. .. ....|... .. .. ....
08 |... .. .. ....|... .. .. ....|A-2 .. .. ....|... .. .. ....|... .. .. ....|... .. .. ....|... .. .. ....|... .. .. ....|... .. .. ....|C-3 .. .. ....|... .. .. ....|... .. .. ....|C-3 .. .. ....|... .. .. ....|... .. .. ....|... .. .. ....
09 |... .. .. ....|... .. .. ....|OFF .. .. ....|... .. .. ....|... .. .. ....|... .. .. ....|... .. .. ....|... .. .. ....|... .. .. ....|... .. .. ....|... .. .. ....|... .. .. ....|... .. .. ....|... .. .. ....|... .. .. ....|... .. .. ....
0A |... .. .. ....|... .. .. ....|E-3 .. .. ....|... .. .. ....|... .. .. ....|... .. .. ....|... .. .. ....|... .. .. ....|... .. .. ....|... .. .. ....|... .. .. ....|... .. .. ....|C-3 .. .. ....|... .. .. ....|... .. .. ....|... .. .. ....
0B |... .. .. ....|... .. .. ....|OFF .. .. ....|... .. .. ....|... .. .. ....|... .. .. ....|... .. .. ....|... .. .. ....|... .. .. ....|... .. .. ....|... .. .. ....|... .. .. ....|... .. .. ....|... .. .. ....|... .. .. ....|... .. .. ....
0C |... .. .. ....|... .. .. ....|A-2 .. .. ....|... .. .. ....|B-2 .. .. ....|D-3 .. .. ....|... .. .. ....|... .. .. ....|... .. .. ....|C-3 .. .. ....|... .. .. ....|... .. .. ....|C-3 .. .. ....|... .. .. ....|... .. .. ....|... .. .. ....
0D |... .. .. ....|... .. .. ....|OFF .. .. ....|... .. .. ....|... .. .. ....|... .. .. ....|... .. .. ....|... .. .. ....|... .. .. ....|... .. .. ....|... .. .. ....|... .. .. ....|... .. .. ....|... .. .. ....|... .. .. ....|... .. .. ....
0E |... .. .. ....|... .. .. ....|E-3 .. .. ....|... .. .. ....|... .. .. ....|... .. .. ....|... .. .. ....|... .. .. ....|... .. .. ....|... .. .. ....|... .. .. ....|... .. .. ....|C-3 .. .. ....|... .. .. ....|... .. .. ....|... .. .. ....
0F |... .. .. ....|... .. .. ....|OFF .. .. ....|... .. .. ....|... .. .. ....|... .. .. ....|... .. .. ....|... .. .. ....|... .. .. ....|... .. .. ....|... .. .. ....|... .. .. ....|... .. .. ....|... .. .. ....|... .. .. ....|... .. .. ....
10 |... .. .. ....|... .. .. ....|A-2 .. .. ....|A-2 .. .. ....|C-3 .. .. ....|E-3 .. .. ....|... .. .. ....|... .. .. ....|... .. .. ....|C-3 .. .. ....|... .. .. ....|... .. .. ....|C-3 .. .. ....|... .. .. ....|... .. .. ....|... .. .. ....
11 |... .. .. ....|... .. .. ....|OFF .. .. ....|... .. .. ....|... .. .. ....|... .. .. ....|... .. .. ....|... .. .. ....|... .. .. ....|... .. .. ....|... .. .. ....|... .. .. ....|... .. .. ....|... .. .. ....|... .. .. ....|... .. .. ....
12 |... .. .. ....|... .. .. ....|E-3 .. .. ....|... .. .. ....|... .. .. ....|... .. .. ....|... .. .. ....|... .. .. ....|... .. .. ....|... .. .. ....|... .. .. ....|... .. .. ....|C-3 .. .. ....|... .. .. ....|... .. .. ....|... .. .. ....
13 |... .. .. ....|... .. .. ....|OFF .. .. ....|... .. .. ....|... .. .. ....|... .. .. ....|... .. .. ....|... .. .. ....|... .. .. ....|... .. .. ....|... .. .. ....|... .. .. ....|... .. .. ....|... .. .. ....|... .. .. ....|... .. .. ....
14 |... .. .. ....|... .. .. ....|A-2 .. .. ....|... .. .. ....|... .. .. ....|... .. .. ....|... .. .. ....|... .. .. ....|... .. .. ....|C-3 .. .. ....|... .. .. ....|... .. .. ....|C-3 .. .. ....|... .. .. ....|... .. .. ....|... .. .. ....
15 |... .. .. ....|... .. .. ....|OFF .. .. ....|... .. .. ....|... .. .. ....|... .. .. ....|... .. .. ....|... .. .. ....|... .. .. ....|... .. .. ....|... .. .. ....|... .. .. ....|... .. .. ....|... .. .. ....|... .. .. ....|... .. .. ....
16 |... .. .. ....|... .. .. ....|E-3 .. .. ....|... .. .. ....|... .. .. ....|... .. .. ....|... .. .. ....|... .. .. ....|... .. .. ....|... .. .. ....|... .. .. ....|... .. .. ....|C-3 .. .. ....|... .. .. ....|... .. .. ....|... .. .. ....
17 |... .. .. ....|... .. .. ....|OFF .. .. ....|... .. .. ....|... .. .. ....|... .. .. ....|... .. .. ....|... .. .. ....|... .. .. ....|... .. .. ....|... .. .. ....|... .. .. ....|... .. .. ....|... .. .. ....|... .. .. ....|... .. .. ....
18 |... .. .. ....|... .. .. ....|A-2 .. .. ....|... .. .. ....|... .. .. ....|... .. .. ....|... .. .. ....|... .. .. ....|... .. .. ....|C-3 .. .. ....|... .. .. ....|... .. .. ....|C-3 .. .. ....|... .. .. ....|... .. .. ....|... .. .. ....
19 |... .. .. ....|... .. .. ....|OFF .. .. ....|... .. .. ....|... .. .. ....|... .. .. ....|... .. .. ....|... .. .. ....|... .. .. ....|... .. .. ....|... .. .. ....|... .. .. ....|... .. .. ....|... .. .. ....|... .. .. ....|... .. .. ....
1A |... .. .. ....|... .. .. ....|E-3 .. .. ....|... .. .. ....|... .. .. ....|... .. .. ....|... .. .. ....|... .. .. ....|... .. .. ....|... .. .. ....|... .. .. ....|... .. .. ....|C-3 .. .. ....|... .. .. ....|... .. .. ....|... .. .. ....
1B |... .. .. ....|... .. .. ....|OFF .. .. ....|... .. .. ....|... .. .. ....|... .. .. ....|... .. .. ....|... .. .. ....|... .. .. ....|... .. .. ....|... .. .. ....|... .. .. ....|... .. .. ....|... .. .. ....|... .. .. ....|... .. .. ....
1C |... .. .. ....|... .. .. ....|A#2 .. .. ....|... .. .. ....|B-2 .. .. ....|D-3 .. .. ....|... .. .. ....|... .. .. ....|... .. .. ....|C-3 .. .. ....|... .. .. ....|... .. .. ....|C-3 .. .. ....|... .. .. ....|... .. .. ....|... .. .. ....
1D |... .. .. ....|... .. .. ....|OFF .. .. ....|... .. .. ....|... .. .. ....|... .. .. ....|... .. .. ....|... .. .. ....|... .. .. ....|... .. .. ....|... .. .. ....|... .. .. ....|... .. .. ....|... .. .. ....|... .. .. ....|... .. .. ....
1E |... .. .. ....|... .. .. ....|F-3 .. .. ....|... .. .. ....|... .. .. ....|... .. .. ....|... .. .. ....|... .. .. ....|... .. .. ....|C-3 .. .. ....|... .. .. ....|C-3 00 .. ....|... .. .. ....|... .. .. ....|... .. .. ....|... .. .. ....
1F |... .. .. ....|... .. .. ....|OFF .. .. ....|... .. .. ....|... .. .. ....|... .. .. ....|... .. .. ....|... .. .. ....|... .. .. ....|... .. .. ....|... .. .. ....|... .. .. ....|... .. .. ....|... .. .. ....|... .. .. ....|... .. .. ....
----- ORDER 03
00 |... .. .. ....|... .. .. ....|A-2 02 7A ....|E-2 01 72 ....|A-2 01 72 ....|C-3 01 72 ....|... .. .. ....|... .. .. ....|... .. .. ....|C-3 .. .. ....|... .. .. ....|... .. .. ....|C-3 .. .. ....|... .. .. ....|... .. .. ....|... .. .. ....
01 |... .. .. ....|... .. .. ....|OFF .. .. ....|... .. .. ....|... .. .. ....|... .. .. ....|... .. .. ....|... .. .. ....|... .. .. ....|... .. .. ....|... .. .. ....|... .. .. ....|... .. .. ....|... .. .. ....|... .. .. ....|... .. .. ....
02 |... .. .. ....|... .. .. ....|E-3 .. .. ....|... .. .. ....|... .. .. ....|... .. .. ....|... .. .. ....|... .. .. ....|... .. .. ....|... .. .. ....|... .. .. ....|... .. .. ....|C-3 .. .. ....|... .. .. ....|... .. .. ....|... .. .. ....
03 |... .. .. ....|... .. .. ....|OFF .. .. ....|... .. .. ....|... .. .. ....|... .. .. ....|... .. .. ....|... .. .. ....|... .. .. ....|... .. .. ....|... .. .. ....|... .. .. ....|... .. .. ....|... .. .. ....|... .. .. ....|... .. .. ....
04 |... .. .. ....|... .. .. ....|A-2 .. .. ....|... .. .. ....|... .. .. ....|... .. .. ....|... .. .. ....|... .. .. ....|... .. .. ....|C-3 .. .. ....|... .. .. ....|... .. .. ....|C-3 .. .. ....|... .. .. ....|... .. .. ....|... .. .. ....
05 |... .. .. ....|... .. .. ....|OFF .. .. ....|... .. .. ....|... .. .. ....|... .. .. ....|... .. .. ....|... .. .. ....|... .. .. ....|... .. .. ....|... .. .. ....|... .. .. ....|... .. .. ....|... .. .. ....|... .. .. ....|... .. .. ....
06 |... .. .. ....|... .. .. ....|E-3 .. .. ....|... .. .. ....|... .. .. ....|... .. .. ....|... .. .. ....|... .. .. ....|... .. .. ....|... .. .. ....|... .. .. ....|... .. .. ....|C-3 .. .. ....|... .. .. ....|... .. .. ....|... .. .. ....
07 |... .. .. ....|... .. .. ....|OFF .. .. ....|... .. .. ....|... .. .. ....|... .. .. ....|... .. .. ....|... .. .. ....|... .. .. ....|... .. .. ....|... .. .. ....|... .. .. ....|... .. .. ....|... .. .. ....|... .. .. ....|... .. .. ....
08 |... .. .. ....|... .. .. ....|A-2 .. .. ....|... .. .. ....|... .. .. ....|... .. .. ....|... .. .. ....|... .. .. ....|... .. .. ....|C-3 .. .. ....|... .. .. ....|... .. .. ....|C-3 .. .. ....|... .. .. ....|... .. .. ....|... .. .. ....
09 |... .. .. ....|... .. .. ....|OFF .. .. ....|... .. .. ....|... .. .. ....|... .. .. ....|... .. .. ....|... .. .. ....|... .. .. ....|... .. .. ....|... .. .. ....|... .. .. ....|... .. .. ....|... .. .. ....|... .. .. ....|... .. .. ....
0A |... .. .. ....|... .. .. ....|E-3 .. .. ....|... .. .. ....|... .. .. ....|... .. .. ....|... .. .. ....|... .. .. ....|... .. .. ....|... .. .. ....|... .. .. ....|... .. .. ....|C-3 .. .. ....|... .. .. ....|... .. .. ....|... .. .. ....
0B |... .. .. ....|... .. .. ....|OFF .. .. ....|... .. .. ....|... .. .. ....|... .. .. ....|... .. .. ....|... .. .. ....|... .. .. ....|... .. .. ....|... .. .. ....|... .. .. ....|... .. .. ....|... .. .. ....|... .. .. ....|... .. .. ....
0C |... .. .. ....|... .. .. ....|A-2 .. .. ....|... .. .. ....|B-2 .. .. ....|D-3 .. .. ....|... .. .. ....|... .. .. ....|... .. .. ....|C-3 .. .. ....|... .. .. ....|... .. .. ....|C-3 .. .. ....|... .. .. ....|... .. .. ....|... .. .. ....
0D |... .. .. ....|... .. .. ....|OFF .. .. ....|... .. .. ....|... .. .. ....|... .. .. ....|... .. .. ....|... .. .. ....|... .. .. ....|... .. .. ....|... .. .. ....|... .. .. ....|... .. .. ....|... .. .. ....|... .. .. ....|... .. .. ....
0E |... .. .. ....|... .. .. ....|E-3 .. .. ....|... .. .. ....|... .. .. ....|... .. .. ....|... .. .. ....|... .. .. ....|... .. .. ....|... .. .. ....|... .. .. ....|... .. .. ....|C-3 .. .. ....|... .. .. ....|... .. .. ....|... .. .. ....
0F |... .. .. ....|... .. .. ....|OFF .. .. ....|... .. .. ....|... .. .. ....|... .. .. ....|... .. .. ....|... .. .. ....|... .. .. ....|... .. .. ....|... .. .. ....|... .. .. ....|... .. .. ....|... .. .. ....|... .. .. ....|... .. .. ....
10 |... .. .. ....|... .. .. ....|A-2 .. .. ....|E-2 .. .. ....|A-2 .. .. ....|C-3 .. .. ....|... .. .. ....|... .. .. ....|... .. .. ....|C-3 .. .. ....|... .. .. ....|... .. .. ....|C-3 .. .. ....|... .. .. ....|... .. .. ....|... .. .. ....
11 |... .. .. ....|... .. .. ....|OFF .. .. ....|... .. .. ....|... .. .. ....|... .. .. ....|... .. .. ....|... .. .. ....|... .. .. ....|... .. .. ....|... .. .. ....|... .. .. ....|... .. .. ....|... .. .. ....|... .. .. ....|... .. .. ....
12 |... .. .. ....|... .. .. ....|E-3 .. .. ....|... .. .. ....|... .. .. ....|... .. .. ....|... .. .. ....|... .. .. ....|... .. .. ....|... .. .. ....|... .. .. ....|... .. .. ....|C-3 .. .. ....|... .. .. ....|... .. .. ....|... .. .. ....
13 |... .. .. ....|... .. .. ....|OFF .. .. ....|... .. .. ....|... .. .. ....|... .. .. ....|... .. .. ....|... .. .. ....|... .. .. ....|... .. .. ....|... .. .. ....|... .. .. ....|... .. .. ....|... .. .. ....|... .. .. ....|... .. .. ....
14 |... .. .. ....|... .. .. ....|A-2 .. .. ....|... .. .. ....|... .. .. ....|... .. .. ....|... .. .. ....|... .. .. ....|... .. .. ....|C-3 .. .. ....|... .. .. ....|... .. .. ....|C-3 .. .. ....|... .. .. ....|... .. .. ....|... .. .. ....
15 |... .. .. ....|... .. .. ....|OFF .. .. ....|... .. .. ....|... .. .. ....|... .. .. ....|... .. .. ....|... .. .. ....|... .. .. ....|... .. .. ....|... .. .. ....|... .. .. ....|... .. .. ....|... .. .. ....|... .. .. ....|... .. .. ....
16 |... .. .. ....|... .. .. ....|E-3 .. .. ....|... .. .. ....|... .. .. ....|... .. .. ....|... .. .. ....|... .. .. ....|... .. .. ....|... .. .. ....|... .. .. ....|... .. .. ....|C-3 .. .. ....|... .. .. ....|... .. .. ....|... .. .. ....
17 |... .. .. ....|... .. .. ....|OFF .. .. ....|... .. .. ....|... .. .. ....|... .. .. ....|... .. .. ....|... .. .. ....|... .. .. ....|... .. .. ....|... .. .. ....|... .. .. ....|... .. .. ....|... .. .. ....|... .. .. ....|... .. .. ....
18 |... .. .. ....|... .. .. ....|A-2 .. .. ....|... .. .. ....|... .. .. ....|... .. .. ....|... .. .. ....|... .. .. ....|... .. .. ....|C-3 .. .. ....|... .. .. ....|... .. .. ....|C-3 .. .. ....|... .. .. ....|... .. .. ....|... .. .. ....
19 |... .. .. ....|... .. .. ....|OFF .. .. ....|... .. .. ....|... .. .. ....|... .. .. ....|... .. .. ....|... .. .. ....|... .. .. ....|... .. .. ....|... .. .. ....|... .. .. ....|... .. .. ....|... .. .. ....|... .. .. ....|... .. .. ....
1A |... .. .. ....|... .. .. ....|E-3 .. .. ....|... .. .. ....|... .. .. ....|... .. .. ....|... .. .. ....|... .. .. ....|... .. .. ....|... .. .. ....|... .. .. ....|... .. .. ....|C-3 .. .. ....|... .. .. ....|... .. .. ....|... .. .. ....
1B |... .. .. ....|... .. .. ....|OFF .. .. ....|... .. .. ....|... .. .. ....|... .. .. ....|... .. .. ....|... .. .. ....|... .. .. ....|... .. .. ....|... .. .. ....|... .. .. ....|... .. .. ....|... .. .. ....|... .. .. ....|... .. .. ....
1C |... .. .. ....|... .. .. ....|A#2 .. .. ....|... .. .. ....|G#2 .. .. ....|B-2 .. .. ....|... .. .. ....|... .. .. ....|... .. .. ....|C-3 .. .. ....|... .. .. ....|... .. .. ....|C-3 .. .. ....|... .. .. ....|... .. .. ....|... .. .. ....
1D |... .. .. ....|... .. .. ....|OFF .. .. ....|... .. .. ....|... .. .. ....|... .. .. ....|... .. .. ....|... .. .. ....|... .. .. ....|... .. .. ....|... .. .. ....|... .. .. ....|... .. .. ....|... .. .. ....|... .. .. ....|... .. .. ....
1E |... .. .. ....|... .. .. ....|F-3 .. .. ....|... .. .. ....|... .. .. ....|... .. .. ....|... .. .. ....|... .. .. ....|... .. .. ....|... .. .. ....|... .. .. ....|C-3 00 .. ....|... .. .. ....|... .. .. ....|... .. .. ....|... .. .. ....
1F |... .. .. ....|... .. .. ....|OFF .. .. ....|... .. .. ....|... .. .. ....|... .. .. ....|... .. .. ....|... .. .. ....|... .. .. ....|... .. .. ....|... .. .. ....|... .. .. ....|... .. .. ....|... .. .. ....|... .. .. ....|... .. .. ....
----- ORDER 04
00 |... .. .. ....|... .. .. ....|A-2 02 7A ....|E-2 .. .. ....|A-2 .. .. ....|C-3 .. .. ....|... .. .. ....|... .. .. ....|... .. .. ....|C-3 .. .. ....|... .. .. ....|... .. .. ....|C-3 .. .. ....|... .. .. ....|... .. .. ....|... .. .. ....
01 |... .. .. ....|... .. .. ....|OFF .. .. ....|... .. .. ....|... .. .. ....|... .. .. ....|... .. .. ....|... .. .. ....|... .. .. ....|... .. .. ....|... .. .. ....|... .. .. ....|... .. .. ....|... .. .. ....|... .. .. ....|... .. .. ....
02 |... .. .. ....|... .. .. ....|E-3 .. .. ....|... .. .. ....|... .. .. ....|... .. .. ....|... .. .. ....|... .. .. ....|... .. .. ....|... .. .. ....|... .. .. ....|... .. .. ....|C-3 .. .. ....|... .. .. ....|... .. .. ....|... .. .. ....
03 |... .. .. ....|... .. .. ....|OFF .. .. ....|... .. .. ....|... .. .. ....|... .. .. ....|... .. .. ....|... .. .. ....|... .. .. ....|... .. .. ....|... .. .. ....|... .. .. ....|... .. .. ....|... .. .. ....|... .. .. ....|... .. .. ....
04 |... .. .. ....|... .. .. ....|A-2 .. .. ....|... .. .. ....|... .. .. ....|... .. .. ....|... .. .. ....|... .. .. ....|... .. .. ....|C-3 .. .. ....|... .. .. ....|... .. .. ....|C-3 .. .. ....|... .. .. ....|... .. .. ....|... .. .. ....
05 |... .. .. ....|... .. .. ....|OFF .. .. ....|... .. .. ....|... .. .. ....|... .. .. ....|... .. .. ....|... .. .. ....|... .. .. ....|... .. .. ....|... .. .. ....|... .. .. ....|... .. .. ....|... .. .. ....|... .. .. ....|... .. .. ....
06 |... .. .. ....|... .. .. ....|E-3 .. .. ....|... .. .. ....|... .. .. ....|... .. .. ....|... .. .. ....|... .. .. ....|... .. .. ....|... .. .. ....|... .. .. ....|... .. .. ....|C-3 .. .. ....|... .. .. ....|... .. .. ....|... .. .. ....
07 |... .. .. ....|... .. .. ....|OFF .. .. ....|... .. .. ....|... .. .. ....|... .. .. ....|... .. .. ....|... .. .. ....|... .. .. ....|... .. .. ....|... .. .. ....|... .. .. ....|... .. .. ....|... .. .. ....|... .. .. ....|... .. .. ....
08 |... .. .. ....|... .. .. ....|A-2 .. .. ....|... .. .. ....|... .. .. ....|... .. .. ....|... .. .. ....|... .. .. ....|... .. .. ....|C-3 .. .. ....|... .. .. ....|... .. .. ....|C-3 .. .. ....|... .. .. ....|... .. .. ....|... .. .. ....
09 |... .. .. ....|... .. .. ....|OFF .. .. ....|... .. .. ....|... .. .. ....|... .. .. ....|... .. .. ....|... .. .. ....|... .. .. ....|... .. .. ....|... .. .. ....|... .. .. ....|... .. .. ....|... .. .. ....|... .. .. ....|... .. .. ....
0A |... .. .. ....|... .. .. ....|E-3 .. .. ....|... .. .. ....|... .. .. ....|... .. .. ....|... .. .. ....|... .. .. ....|... .. .. ....|... .. .. ....|... .. .. ....|... .. .. ....|C-3 .. .. ....|... .. .. ....|... .. .. ....|... .. .. ....
0B |... .. .. ....|... .. .. ....|OFF .. .. ....|... .. .. ....|... .. .. ....|... .. .. ....|... .. .. ....|... .. .. ....|... .. .. ....|... .. .. ....|... .. .. ....|... .. .. ....|... .. .. ....|... .. .. ....|... .. .. ....|... .. .. ....
0C |... .. .. ....|... .. .. ....|A-2 .. .. ....|... .. .. ....|B-2 .. .. ....|D-3 .. .. ....|... .. .. ....|... .. .. ....|... .. .. ....|C-3 .. .. ....|... .. .. ....|... .. .. ....|C-3 .. .. ....|... .. .. ....|... .. .. ....|... .. .. ....
0D |... .. .. ....|... .. .. ....|OFF .. .. ....|... .. .. ....|... .. .. ....|... .. .. ....|... .. .. ....|... .. .. ....|... .. .. ....|... .. .. ....|... .. .. ....|... .. .. ....|... .. .. ....|... .. .. ....|... .. .. ....|... .. .. ....
0E |... .. .. ....|... .. .. ....|E-3 .. .. ....|... .. .. ....|... .. .. ....|... .. .. ....|... .. .. ....|... .. .. ....|... .. .. ....|... .. .. ....|... .. .. ....|... .. .. ....|C-3 .. .. ....|... .. .. ....|... .. .. ....|... .. .. ....
0F |... .. .. ....|... .. .. ....|OFF .. .. ....|... .. .. ....|... .. .. ....|... .. .. ....|... .. .. ....|... .. .. ....|... .. .. ....|... .. .. ....|... .. .. ....|... .. .. ....|... .. .. ....|... .. .. ....|... .. .. ....|... .. .. ....
10 |... .. .. ....|... .. .. ....|A-2 .. .. ....|A-2 .. .. ....|C-3 .. .. ....|E-3 .. .. ....|... .. .. ....|... .. .. ....|... .. .. ....|... .. .. ....|... .. .. ....|C-3 00 .. ....|... .. .. ....|... .. .. ....|... .. .. ....|... .. .. ....
11 |... .. .. ....|... .. .. ....|OFF .. .. ....|... .. .. ....|... .. .. ....|... .. .. ....|... .. .. ....|... .. .. ....|... .. .. ....|... .. .. ....|... .. .. ....|... .. .. ....|... .. .. ....|... .. .. ....|... .. .. ....|... .. .. ....
12 |... .. .. ....|... .. .. ....|E-3 .. .. ....|... .. .. ....|... .. .. ....|... .. .. ....|... .. .. ....|... .. .. ....|... .. .. ....|... .. .. ....|... .. .. ....|... .. .. ....|... .. .. ....|... .. .. ....|... .. .. ....|... .. .. ....
13 |... .. .. ....|... .. .. ....|OFF .. .. ....|... .. .. ....|... .. .. ....|... .. .. ....|... .. .. ....|... .. .. ....|... .. .. ....|... .. .. ....|... .. .. ....|... .. .. ....|... .. .. ....|... .. .. ....|... .. .. ....|... .. .. ....
14 |... .. .. ....|... .. .. ....|A-2 .. .. ....|... .. .. ....|... .. .. ....|... .. .. ....|... .. .. ....|... .. .. ....|... .. .. ....|... .. .. ....|... .. .. ....|... .. .. ....|... .. .. ....|... .. .. ....|... .. .. ....|... .. .. ....
15 |... .. .. ....|... .. .. ....|OFF .. .. ....|... .. .. ....|... .. .. ....|... .. .. ....|... .. .. ....|... .. .. ....|... .. .. ....|... .. .. ....|... .. .. ....|... .. .. ....|... .. .. ....|... .. .. ....|... .. .. ....|... .. .. ....
16 |... .. .. ....|... .. .. ....|E-3 .. .. ....|... .. .. ....|... .. .. ....|... .. .. ....|... .. .. ....|... .. .. ....|... .. .. ....|... .. .. ....|... .. .. ....|... .. .. ....|... .. .. ....|... .. .. ....|... .. .. ....|... .. .. ....
17 |... .. .. ....|... .. .. ....|OFF .. .. ....|... .. .. ....|... .. .. ....|... .. .. ....|... .. .. ....|... .. .. ....|... .. .. ....|... .. .. ....|... .. .. ....|... .. .. ....|... .. .. ....|... .. .. ....|... .. .. ....|... .. .. ....
18 |... .. .. ....|... .. .. ....|A-2 .. .. ....|... .. .. ....|... .. .. ....|... .. .. ....|... .. .. ....|... .. .. ....|... .. .. ....|... .. .. ....|... .. .. ....|C-3 01 .. ....|... .. .. ....|... .. .. ....|... .. .. ....|... .. .. ....
19 |... .. .. ....|... .. .. ....|OFF .. .. ....|... .. .. ....|... .. .. ....|... .. .. ....|... .. .. ....|... .. .. ....|... .. .. ....|... .. .. ....|... .. .. ....|... .. .. ....|... .. .. ....|... .. .. ....|... .. .. ....|... .. .. ....
1A |... .. .. ....|... .. .. ....|E-3 .. .. ....|... .. .. ....|... .. .. ....|... .. .. ....|... .. .. ....|... .. .. ....|... .. .. ....|... .. .. ....|... .. .. ....|... .. .. ....|... .. .. ....|... .. .. ....|... .. .. ....|... .. .. ....
1B |... .. .. ....|... .. .. ....|OFF .. .. ....|... .. .. ....|... .. .. ....|... .. .. ....|... .. .. ....|... .. .. ....|... .. .. ....|C-3 .. .. ....|... .. .. ....|... .. .. ....|... .. .. ....|... .. .. ....|... .. .. ....|... .. .. ....
1C |... .. .. ....|... .. .. ....|A#2 .. .. ....|... .. .. ....|B-2 .. .. ....|D-3 .. .. ....|... .. .. ....|... .. .. ....|... .. .. ....|C-3 .. .. ....|... .. .. ....|C-3 01 .. ....|... .. .. ....|... .. .. ....|... .. .. ....|... .. .. ....
1D |... .. .. ....|... .. .. ....|OFF .. .. ....|... .. .. ....|... .. .. ....|... .. .. ....|... .. .. ....|... .. .. ....|... .. .. ....|... .. .. ....|... .. .. ....|... .. .. ....|... .. .. ....|... .. .. ....|... .. .. ....|... .. .. ....
1E |... .. .. ....|... .. .. ....|F-3 .. .. ....|... .. .. ....|... .. .. ....|... .. .. ....|... .. .. ....|... .. .. ....|... .. .. ....|C-3 .. .. ....|... .. .. ....|... .. .. ....|... .. .. ....|... .. .. ....|... .. .. ....|... .. .. ....
1F |... .. .. ....|... .. .. ....|OFF .. .. ....|... .. .. ....|... .. .. ....|... .. .. ....|... .. .. ....|... .. .. ....|... .. .. ....|... .. .. ....|... .. .. ....|... .. .. ....|... .. .. ....|... .. .. ....|... .. .. ....|... .. .. ....
----- ORDER 05
00 |E-3 00 72 ....|A-3 00 72 ....|A-2 02 7A ....|E-2 01 72 ....|A-2 01 72 ....|C-3 01 72 ....|... .. .. ....|... .. .. ....|... .. .. ....|... .. .. ....|... .. .. ....|C-3 01 .. ....|... .. .. ....|... .. .. ....|... .. .. ....|... .. .. ....
01 |... .. .. ....|... .. .. ....|OFF .. .. ....|... .. .. ....|... .. .. ....|... .. .. ....|... .. .. ....|... .. .. ....|... .. .. ....|... .. .. ....|... .. .. ....|... .. .. ....|... .. .. ....|... .. .. ....|... .. .. ....|... .. .. ....
02 |... .. .. ....|... .. .. ....|E-3 .. .. ....|... .. .. ....|... .. .. ....|... .. .. ....|... .. .. ....|... .. .. ....|... .. .. ....|... .. .. ....|... .. .. ....|... .. .. ....|B-2 .. .. ....|... .. .. ....|... .. .. ....|... .. .. ....
03 |... .. .. ....|... .. .. ....|OFF .. .. ....|... .. .. ....|... .. .. ....|... .. .. ....|... .. .. ....|... .. .. ....|... .. .. ....|... .. .. ....|... .. .. ....|... .. .. ....|... .. .. ....|... .. .. ....|... .. .. ....|... .. .. ....
04 |... .. .. ....|... .. .. ....|A-2 .. .. ....|... .. .. ....|... .. .. ....|... .. .. ....|... .. .. ....|... .. .. ....|... .. .. ....|B-2 .. .. ....|... .. .. ....|... .. .. ....|B-2 .. .. ....|... .. .. ....|... .. .. ....|... .. .. ....
05 |... .. .. ....|... .. .. ....|OFF .. .. ....|... .. .. ....|... .. .. ....|... .. .. ....|... .. .. ....|... .. .. ....|... .. .. ....|... .. .. ....|... .. .. ....|... .. .. ....|... .. .. ....|... .. .. ....|... .. .. ....|... .. .. ....
06 |... .. .. ....|... .. .. ....|E-3 .. .. ....|... .. .. ....|... .. .. ....|... .. .. ....|... .. .. ....|... .. .. ....|... .. .. ....|... .. .. ....|... .. .. ....|... .. .. ....|B-2 .. .. ....|... .. .. ....|... .. .. ....|... .. .. ....
07 |... .. .. ....|... .. .. ....|OFF .. .. ....|... .. .. ....|... .. .. ....|... .. .. ....|... .. .. ....|... .. .. ....|... .. .. ....|... .. .. ....|... .. .. ....|... .. .. ....|... .. .. ....|... .. .. ....|... .. .. ....|... .. .. ....
08 |... .. .. ....|... .. .. ....|A-2 .. .. ....|... .. .. ....|... .. .. ....|... .. .. ....|... .. .. ....|... .. .. ....|... .. .. ....|B-2 .. .. ....|... .. .. ....|... .. .. ....|B-2 .. .. ....|... .. .. ....|... .. .. ....|... .. .. ....
09 |... .. .. ....|... .. .. ....|OFF .. .. ....|... .. .. ....|... .. .. ....|... .. .. ....|... .. .. ....|... .. .. ....|... .. .. ....|... .. .. ....|... .. .. ....|... .. .. ....|... .. .. ....|... .. .. ....|... .. .. ....|... .. .. ....
0A |... .. .. ....|... .. .. ....|E-3 .. .. ....|... .. .. ....|... .. .. ....|... .. .. ....|... .. .. ....|... .. .. ....|... .. .. ....|... .. .. ....|... .. .. ....|... .. .. ....|B-2 .. .. ....|... .. .. ....|... .. .. ....|... .. .. ....
0B |... .. .. ....|... .. .. ....|OFF .. .. ....|... .. .. ....|... .. .. ....|... .. .. ....|... .. .. ....|... .. .. ....|... .. .. ....|... .. .. ....|... .. .. ....|... .. .. ....|... .. .. ....|... .. .. ....|... .. .. ....|... .. .. ....
0C |... .. .. ....|... .. .. ....|A-2 .. .. ....|... .. .. ....|B-2 .. .. ....|D-3 .. .. ....|... .. .. ....|... .. .. ....|... .. .. ....|B-2 .. .. ....|... .. .. ....|... .. .. ....|B-2 .. .. ....|... .. .. ....|... .. .. ....|... .. .. ....
0D |... .. .. ....|... .. .. ....|OFF .. .. ....|... .. .. ....|... .. .. ....|... .. .. ....|... .. .. ....|... .. .. ....|... .. .. ....|... .. .. ....|... .. .. ....|... .. .. ....|... .. .. ....|... .. .. ....|... .. .. ....|... .. .. ....
0E |... .. .. ....|... .. .. ....|E-3 .. .. ....|... .. .. ....|... .. .. ....|... .. .. ....|... .. .. ....|... .. .. ....|... .. .. ....|... .. .. ....|... .. .. ....|... .. .. ....|B-2 .. .. ....|... .. .. ....|... .. .. ....|... .. .. ....
0F |... .. .. ....|... .. .. ....|OFF .. .. ....|... .. .. ....|... .. .. ....|... .. .. ....|... .. .. ....|... .. .. ....|... .. .. ....|... .. .. ....|... .. .. ....|... .. .. ....|... .. .. ....|... .. .. ....|... .. .. ....|... .. .. ....
10 |E-3 .. .. ....|A-3 .. .. ....|A-2 .. .. ....|E-2 .. .. ....|A-2 .. .. ....|C-3 .. .. ....|... .. .. ....|... .. .. ....|... .. .. ....|B-2 .. .. ....|... .. .. ....|... .. .. ....|B-2 .. .. ....|... .. .. ....|... .. .. ....|... .. .. ....
11 |... .. .. ....|... .. .. ....|OFF .. .. ....|... .. .. ....|... .. .. ....|... .. .. ....|... .. .. ....|... .. .. ....|... .. .. ....|... .. .. ....|... .. .. ....|... .. .. ....|... .. .. ....|... .. .. ....|... .. .. ....|... .. .. ....
12 |... .. .. ....|... .. .. ....|E-3 .. .. ....|... .. .. ....|... .. .. ....|... .. .. ....|... .. .. ....|... .. .. ....|... .. .. ....|... .. .. ....|... .. .. ....|... .. .. ....|B-2 .. .. ....|... .. .. ....|... .. .. ....|... .. .. ....
13 |... .. .. ....|... .. .. ....|OFF .. .. ....|... .. .. ....|... .. .. ....|... .. .. ....|... .. .. ....|... .. .. ....|... .. .. ....|... .. .. ....|... .. .. ....|... .. .. ....|... .. .. ....|... .. .. ....|... .. .. ....|... .. .. ....
14 |... .. .. ....|... .. .. ....|A-2 .. .. ....|... .. .. ....|... .. .. ....|... .. .. ....|... .. .. ....|... .. .. ....|... .. .. ....|B-2 .. .. ....|... .. .. ....|... .. .. ....|B-2 .. .. ....|... .. .. ....|... .. .. ....|... .. .. ....
15 |... .. .. ....|... .. .. ....|OFF .. .. ....|... .. .. ....|... .. .. ....|... .. .. ....|... .. .. ....|... .. .. ....|... .. .. ....|... .. .. ....|... .. .. ....|... .. .. ....|... .. .. ....|... .. .. ....|... .. .. ....|... .. .. ....
16 |... .. .. ....|... .. .. ....|E-3 .. .. ....|... .. .. ....|... .. .. ....|... .. .. ....|... .. .. ....|... .. .. ....|... .. .. ....|... .. .. ....|... .. .. ....|... .. .. ....|B-2 .. .. ....|... .. .. ....|... .. .. ....|... .. .. ....
17 |... .. .. ....|... .. .. ....|OFF .. .. ....|... .. .. ....|... .. .. ....|... .. .. ....|... .. .. ....|... .. .. ....|... .. .. ....|... .. .. ....|... .. .. ....|... .. .. ....|... .. .. ....|... .. .. ....|... .. .. ....|... .. .. ....
18 |... .. .. ....|... .. .. ....|A-2 .. .. ....|... .. .. ....|... .. .. ....|... .. .. ....|... .. .. ....|... .. .. ....|... .. .. ....|B-2 .. .. ....|... .. .. ....|... .. .. ....|B-2 .. .. ....|... .. .. ....|... .. .. ....|... .. .. ....
19 |... .. .. ....|... .. .. ....|OFF .. .. ....|... .. .. ....|... .. .. ....|... .. .. ....|... .. .. ....|... .. .. ....|... .. .. ....|... .. .. ....|... .. .. ....|... .. .. ....|... .. .. ....|... .. .. ....|... .. .. ....|... .. .. ....
1A |... .. .. ....|... .. .. ....|E-3 .. .. ....|... .. .. ....|... .. .. ....|... .. .. ....|... .. .. ....|... .. .. ....|... .. .. ....|... .. .. ....|... .. .. ....|... .. .. ....|B-2 .. .. ....|... .. .. ....|... .. .. ....|... .. .. ....
1B |... .. .. ....|... .. .. ....|OFF .. .. ....|... .. .. ....|... .. .. ....|... .. .. ....|... .. .. ....|... .. .. ....|... .. .. ....|... .. .. ....|... .. .. ....|... .. .. ....|... .. .. ....|... .. .. ....|... .. .. ....|... .. .. ....
1C |... .. .. ....|... .. .. ....|A#2 .. .. ....|... .. .. ....|G#2 .. .. ....|B-2 .. .. ....|... .. .. ....|... .. .. ....|... .. .. ....|B-2 .. .. ....|... .. .. ....|... .. .. ....|B-2 .. .. ....|... .. .. ....|... .. .. ....|... .. .. ....
1D |... .. .. ....|... .. .. ....|OFF .. .. ....|... .. .. ....|... .. .. ....|... .. .. ....|... .. .. ....|... .. .. ....|... .. .. ....|... .. .. ....|... .. .. ....|... .. .. ....|... .. .. ....|... .. .. ....|... .. .. ....|... .. .. ....
1E |... .. .. ....|... .. .. ....|F-3 .. .. ....|... .. .. ....|... .. .. ....|... .. .. ....|... .. .. ....|... .. .. ....|... .. .. ....|... .. .. ....|... .. .. ....|C-3 00 .. ....|... .. .. ....|... .. .. ....|... .. .. ....|... .. .. ....
1F |... .. .. ....|... .. .. ....|OFF .. .. ....|... .. .. ....|... .. .. ....|... .. .. ....|... .. .. ....|... .. .. ....|... .. .. ....|... .. .. ....|... .. .. ....|... .. .. ....|... .. .. ....|... .. .. ....|... .. .. ....|... .. .. ....
----- ORDER 06
00 |A-3 .. .. ....|C-4 .. .. ....|A-2 02 7A ....|E-2 .. .. ....|A-2 .. .. ....|C-3 .. .. ....|... .. .. ....|... .. .. ....|... .. .. ....|C-3 .. .. ....|... .. .. ....|... .. .. ....|C-3 .. .. ....|... .. .. ....|... .. .. ....|... .. .. ....
01 |... .. .. ....|... .. .. ....|OFF .. .. ....|... .. .. ....|... .. .. ....|... .. .. ....|... .. .. ....|... .. .. ....|... .. .. ....|... .. .. ....|... .. .. ....|... .. .. ....|... .. .. ....|... .. .. ....|... .. .. ....|... .. .. ....
02 |... .. .. ....|... .. .. ....|E-3 .. .. ....|... .. .. ....|... .. .. ....|... .. .. ....|... .. .. ....|... .. .. ....|... .. .. ....|... .. .. ....|... .. .. ....|... .. .. ....|C-3 .. .. ....|... .. .. ....|... .. .. ....|... .. .. ....
03 |... .. .. ....|... .. .. ....|OFF .. .. ....|... .. .. ....|... .. .. ....|... .. .. ....|... .. .. ....|... .. .. ....|... .. .. ....|... .. .. ....|... .. .. ....|... .. .. ....|... .. .. ....|... .. .. ....|... .. .. ....|... .. .. ....
04 |... .. .. ....|... .. .. ....|A-2 .. .. ....|... .. .. ....|... .. .. ....|... .. .. ....|... .. .. ....|... .. .. ....|... .. .. ....|C-3 .. .. ....|... .. .. ....|... .. .. ....|C-3 .. .. ....|... .. .. ....|... .. .. ....|... .. .. ....
05 |... .. .. ....|... .. .. ....|OFF .. .. ....|... .. .. ....|... .. .. ....|... .. .. ....|... .. .. ....|... .. .. ....|... .. .. ....|... .. .. ....|... .. .. ....|... .. .. ....|... .. .. ....|... .. .. ....|... .. .. ....|... .. .. ....
06 |... .. .. ....|... .. .. ....|E-3 .. .. ....|... .. .. ....|... .. .. ....|... .. .. ....|... .. .. ....|... .. .. ....|... .. .. ....|... .. .. ....|... .. .. ....|... .. .. ....|C-3 .. .. ....|... .. .. ....|... .. .. ....|... .. .. ....
07 |... .. .. ....|... .. .. ....|OFF .. .. ....|... .. .. ....|... .. .. ....|... .. .. ....|... .. .. ....|... .. .. ....|... .. .. ....|... .. .. ....|... .. .. ....|... .. .. ....|... .. .. ....|... .. .. ....|... .. .. ....|... .. .. ....
08 |... .. .. ....|... .. .. ....|A-2 .. .. ....|... .. .. ....|... .. .. ....|... .. .. ....|... .. .. ....|... .. .. ....|... .. .. ....|C-3 .. .. ....|... .. .. ....|... .. .. ....|C-3 .. .. ....|... .. .. ....|... .. .. ....|... .. .. ....
09 |... .. .. ....|... .. .. ....|OFF .. .. ....|... .. .. ....|... .. .. ....|... .. .. ....|... .. .. ....|... .. .. ....|... .. .. ....|... .. .. ....|... .. .. ....|... .. .. ....|... .. .. ....|... .. .. ....|... .. .. ....|... .. .. ....
0A |... .. .. ....|... .. .. ....|E-3 .. .. ....|... .. .. ....|... .. .. ....|... .. .. ....|... .. .. ....|... .. .. ....|... .. .. ....|... .. .. ....|... .. .. ....|... .. .. ....|C-3 .. .. ....|... .. .. ....|... .. .. ....|... .. .. ....
0B |... .. .. ....|... .. .. ....|OFF .. .. ....|... .. .. ....|... .. .. ....|... .. .. ....|... .. .. ....|... .. .. ....|... .. .. ....|... .. .. ....|... .. .. ....|... .. .. ....|... .. .. ....|... .. .. ....|... .. .. ....|... .. .. ....
0C |... .. .. ....|... .. .. ....|A-2 .. .. ....|... .. .. ....|B-2 .. .. ....|D-3 .. .. ....|... .. .. ....|... .. .. ....|... .. .. ....|C-3 .. .. ....|... .. .. ....|... .. .. ....|C-3 .. .. ....|... .. .. ....|... .. .. ....|... .. .. ....
0D |... .. .. ....|... .. .. ....|OFF .. .. ....|... .. .. ....|... .. .. ....|... .. .. ....|... .. .. ....|... .. .. ....|... .. .. ....|... .. .. ....|... .. .. ....|... .. .. ....|... .. .. ....|... .. .. ....|... .. .. ....|... .. .. ....
0E |... .. .. ....|... .. .. ....|E-3 .. .. ....|... .. .. ....|... .. .. ....|... .. .. ....|... .. .. ....|... .. .. ....|... .. .. ....|... .. .. ....|... .. .. ....|... .. .. ....|C-3 .. .. ....|... .. .. ....|... .. .. ....|... .. .. ....
0F |... .. .. ....|... .. .. ....|OFF .. .. ....|... .. .. ....|... .. .. ....|... .. .. ....|... .. .. ....|... .. .. ....|... .. .. ....|... .. .. ....|... .. .. ....|... .. .. ....|... .. .. ....|... .. .. ....|... .. .. ....|... .. .. ....
10 |A-3 .. .. ....|C-4 .. .. ....|A-2 .. .. ....|A-2 .. .. ....|C-3 .. .. ....|E-3 .. .. ....|... .. .. ....|... .. .. ....|... .. .. ....|C-3 .. .. ....|... .. .. ....|... .. .. ....|C-3 .. .. ....|... .. .. ....|... .. .. ....|... .. .. ....
11 |... .. .. ....|... .. .. ....|OFF .. .. ....|... .. .. ....|... .. .. ....|... .. .. ....|... .. .. ....|... .. .. ....|... .. .. ....|... .. .. ....|... .. .. ....|... .. .. ....|... .. .. ....|... .. .. ....|... .. .. ....|... .. .. ....
12 |... .. .. ....|... .. .. ....|E-3 .. .. ....|... .. .. ....|... .. .. ....|... .. .. ....|... .. .. ....|... .. .. ....|... .. .. ....|... .. .. ....|... .. .. ....|... .. .. ....|C-3 .. .. ....|... .. .. ....|... .. .. ....|... .. .. ....
13 |... .. .. ....|... .. .. ....|OFF .. .. ....|... .. .. ....|... .. .. ....|... .. .. ....|... .. .. ....|... .. .. ....|... .. .. ....|... .. .. ....|... .. .. ....|... .. .. ....|... .. .. ....|... .. .. ....|... .. .. ....|... .. .. ....
14 |... .. .. ....|... .. .. ....|A-2 .. .. ....|... .. .. ....|... .. .. ....|... .. .. ....|... .. .. ....|... .. .. ....|... .. .. ....|C-3 .. .. ....|... .. .. ....|... .. .. ....|C-3 .. .. ....|... .. .. ....|... .. .. ....|... .. .. ....
15 |... .. .. ....|... .. .. ....|OFF .. .. ....|... .. .. ....|... .. .. ....|... .. .. ....|... .. .. ....|... .. .. ....|... .. .. ....|... .. .. ....|... .. .. ....|... .. .. ....|... .. .. ....|... .. .. ....|... .. .. ....|... .. .. ....
16 |... .. .. ....|... .. .. ....|E-3 .. .. ....|... .. .. ....|... .. .. ....|... .. .. ....|... .. .. ....|... .. .. ....|... .. .. ....|... .. .. ....|... .. .. ....|... .. .. ....|C-3 .. .. ....|... .. .. ....|... .. .. ....|... .. .. ....
17 |... .. .. ....|... .. .. ....|OFF .. .. ....|... .. .. ....|... .. .. ....|... .. .. ....|... .. .. ....|... .. .. ....|... .. .. ....|... .. .. ....|... .. .. ....|... .. .. ....|... .. .. ....|... .. .. ....|... .. .. ....|... .. .. ....
18 |... .. .. ....|... .. .. ....|A-2 .. .. ....|... .. .. ....|... .. .. ....|... .. .. ....|... .. .. ....|... .. .. ....|... .. .. ....|C-3 .. .. ....|... .. .. ....|... .. .. ....|C-3 .. .. ....|... .. .. ....|... .. .. ....|... .. .. ....
19 |... .. .. ....|... .. .. ....|OFF .. .. ....|... .. .. ....|... .. .. ....|... .. .. ....|... .. .. ....|... .. .. ....|... .. .. ....|... .. .. ....|... .. .. ....|... .. .. ....|... .. .. ....|... .. .. ....|... .. .. ....|... .. .. ....
1A |... .. .. ....|... .. .. ....|E-3 .. .. ....|... .. .. ....|... .. .. ....|... .. .. ....|... .. .. ....|... .. .. ....|... .. .. ....|... .. .. ....|... .. .. ....|... .. .. ....|C-3 .. .. ....|... .. .. ....|... .. .. ....|... .. .. ....
1B |... .. .. ....|... .. .. ....|OFF .. .. ....|... .. .. ....|... .. .. ....|... .. .. ....|... .. .. ....|... .. .. ....|... .. .. ....|... .. .. ....|... .. .. ....|... .. .. ....|... .. .. ....|... .. .. ....|... .. .. ....|... .. .. ....
1C |... .. .. ....|... .. .. ....|A#2 .. .. ....|... .. .. ....|B-2 .. .. ....|D-3 .. .. ....|... .. .. ....|... .. .. ....|... .. .. ....|C-3 .. .. ....|... .. .. ....|... .. .. ....|C-3 .. .. ....|... .. .. ....|... .. .. ....|... .. .. ....
1D |... .. .. ....|... .. .. ....|OFF .. .. ....|... .. .. ....|... .. .. ....|... .. .. ....|... .. .. ....|... .. .. ....|... .. .. ....|... .. .. ....|... .. .. ....|... .. .. ....|... .. .. ....|... .. .. ....|... .. .. ....|... .. .. ....
1E |... .. .. ....|... .. .. ....|F-3 .. .. ....|... .. .. ....|... .. .. ....|... .. .. ....|... .. .. ....|... .. .. ....|... .. .. ....|C-3 .. .. ....|... .. .. ....|C-3 00 .. ....|... .. .. ....|... .. .. ....|... .. .. ....|... .. .. ....
1F |... .. .. ....|... .. .. ....|OFF .. .. ....|... .. .. ....|... .. .. ....|... .. .. ....|... .. .. ....|... .. .. ....|... .. .. ....|... .. .. ....|... .. .. ....|... .. .. ....|... .. .. ....|... .. .. ....|... .. .. ....|... .. .. ....
----- ORDER 07
00 |C-4 .. .. ....|E-4 .. .. ....|A-2 02 7A ....|E-2 01 72 ....|A-2 01 72 ....|C-3 01 72 ....|... .. .. ....|... .. .. ....|... .. .. ....|C-3 .. .. ....|... .. .. ....|... .. .. ....|C-3 .. .. ....|... .. .. ....|... .. .. ....|... .. .. ....
01 |... .. .. ....|... .. .. ....|OFF .. .. ....|... .. .. ....|... .. .. ....|... .. .. ....|... .. .. ....|... .. .. ....|... .. .. ....|... .. .. ....|... .. .. ....|... .. .. ....|... .. .. ....|... .. .. ....|... .. .. ....|... .. .. ....
02 |... .. .. ....|... .. .. ....|E-3 .. .. ....|... .. .. ....|... .. .. ....|... .. .. ....|... .. .. ....|... .. .. ....|... .. .. ....|... .. .. ....|... .. .. ....|... .. .. ....|C-3 .. .. ....|... .. .. ....|... .. .. ....|... .. .. ....
03 |... .. .. ....|... .. .. ....|OFF .. .. ....|... .. .. ....|... .. .. ....|... .. .. ....|... .. .. ....|... .. .. ....|... .. .. ....|... .. .. ....|... .. .. ....|... .. .. ....|... .. .. ....|... .. .. ....|... .. .. ....|... .. .. ....
04 |... .. .. ....|... .. .. ....|A-2 .. .. ....|... .. .. ....|... .. .. ....|... .. .. ....|... .. .. ....|... .. .. ....|... .. .. ....|C-3 .. .. ....|... .. .. ....|... .. .. ....|C-3 .. .. ....|... .. .. ....|... .. .. ....|... .. .. ....
05 |... .. .. ....|... .. .. ....|OFF .. .. ....|... .. .. ....|... .. .. ....|... .. .. ....|... .. .. ....|... .. .. ....|... .. .. ....|... .. .. ....|... .. .. ....|... .. .. ....|... .. .. ....|... .. .. ....|... .. .. ....|... .. .. ....
06 |... .. .. ....|... .. .. ....|E-3 .. .. ....|... .. .. ....|... .. .. ....|... .. .. ....|... .. .. ....|... .. .. ....|... .. .. ....|... .. .. ....|... .. .. ....|... .. .. ....|C-3 .. .. ....|... .. .. ....|... .. .. ....|... .. .. ....
07 |... .. .. ....|... .. .. ....|OFF .. .. ....|... .. .. ....|... .. .. ....|... .. .. ....|... .. .. ....|... .. .. ....|... .. .. ....|... .. .. ....|... .. .. ....|... .. .. ....|... .. .. ....|... .. .. ....|... .. .. ....|... .. .. ....
08 |... .. .. ....|... .. .. ....|A-2 .. .. ....|... .. .. ....|... .. .. ....|... .. .. ....|... .. .. ....|... .. .. ....|... .. .. ....|C-3 .. .. ....|... .. .. ....|... .. .. ....|C-3 .. .. ....|... .. .. ....|... .. .. ....|... .. .. ....
09 |... .. .. ....|... .. .. ....|OFF .. .. ....|... .. .. ....|... .. .. ....|... .. .. ....|... .. .. ....|... .. .. ....|... .. .. ....|... .. .. ....|... .. .. ....|... .. .. ....|... .. .. ....|... .. .. ....|... .. .. ....|... .. .. ....
0A |... .. .. ....|... .. .. ....|E-3 .. .. ....|... .. .. ....|... .. .. ....|... .. .. ....|... .. .. ....|... .. .. ....|... .. .. ....|... .. .. ....|... .. .. ....|... .. .. ....|C-3 .. .. ....|... .. .. ....|... .. .. ....|... .. .. ....
0B |... .. .. ....|... .. .. ....|OFF .. .. ....|... .. .. ....|... .. .. ....|... .. .. ....|... .. .. ....|... .. .. ....|... .. .. ....|... .. .. ....|... .. .. ....|... .. .. ....|... .. .. ....|... .. .. ....|... .. .. ....|... .. .. ....
0C |... .. .. ....|... .. .. ....|A-2 .. .. ....|... .. .. ....|B-2 .. .. ....|D-3 .. .. ....|... .. .. ....|... .. .. ....|... .. .. ....|C-3 .. .. ....|... .. .. ....|... .. .. ....|C-3 .. .. ....|... .. .. ....|... .. .. ....|... .. .. ....
0D |... .. .. ....|... .. .. ....|OFF .. .. ....|... .. .. ....|... .. .. ....|... .. .. ....|... .. .. ....|... .. .. ....|... .. .. ....|... .. .. ....|... .. .. ....|... .. .. ....|... .. .. ....|... .. .. ....|... .. .. ....|... .. .. ....
0E |... .. .. ....|... .. .. ....|E-3 .. .. ....|... .. .. ....|... .. .. ....|... .. .. ....|... .. .. ....|... .. .. ....|... .. .. ....|... .. .. ....|... .. .. ....|... .. .. ....|C-3 .. .. ....|... .. .. ....|... .. .. ....|... .. .. ....
0F |... .. .. ....|... .. .. ....|OFF .. .. ....|... .. .. ....|... .. .. ....|... .. .. ....|... .. .. ....|... .. .. ....|... .. .. ....|... .. .. ....|... .. .. ....|... .. .. ....|... .. .. ....|... .. .. ....|... .. .. ....|... .. .. ....
10 |C-4 .. .. ....|E-4 .. .. ....|A-2 .. .. ....|E-2 .. .. ....|A-2 .. .. ....|C-3 .. .. ....|... .. .. ....|... .. .. ....|... .. .. ....|C-3 .. .. ....|... .. .. ....|... .. .. ....|C-3 .. .. ....|... .. .. ....|... .. .. ....|... .. .. ....
11 |... .. .. ....|... .. .. ....|OFF .. .. ....|... .. .. ....|... .. .. ....|... .. .. ....|... .. .. ....|... .. .. ....|... .. .. ....|... .. .. ....|... .. .. ....|... .. .. ....|... .. .. ....|... .. .. ....|... .. .. ....|... .. .. ....
12 |... .. .. ....|... .. .. ....|E-3 .. .. ....|... .. .. ....|... .. .. ....|... .. .. ....|... .. .. ....|... .. .. ....|... .. .. ....|... .. .. ....|... .. .. ....|... .. .. ....|C-3 .. .. ....|... .. .. ....|... .. .. ....|... .. .. ....
13 |... .. .. ....|... .. .. ....|OFF .. .. ....|... .. .. ....|... .. .. ....|... .. .. ....|... .. .. ....|... .. .. ....|... .. .. ....|... .. .. ....|... .. .. ....|... .. .. ....|... .. .. ....|... .. .. ....|... .. .. ....|... .. .. ....
14 |... .. .. ....|... .. .. ....|A-2 .. .. ....|... .. .. ....|... .. .. ....|... .. .. ....|... .. .. ....|... .. .. ....|... .. .. ....|C-3 .. .. ....|... .. .. ....|... .. .. ....|C-3 .. .. ....|... .. .. ....|... .. .. ....|... .. .. ....
15 |... .. .. ....|... .. .. ....|OFF .. .. ....|... .. .. ....|... .. .. ....|... .. .. ....|... .. .. ....|... .. .. ....|... .. .. ....|... .. .. ....|... .. .. ....|... .. .. ....|... .. .. ....|... .. .. ....|... .. .. ....|... .. .. ....
16 |... .. .. ....|... .. .. ....|E-3 .. .. ....|... .. .. ....|... .. .. ....|... .. .. ....|... .. .. ....|... .. .. ....|... .. .. ....|... .. .. ....|... .. .. ....|... .. .. ....|C-3 .. .. ....|... .. .. ....|... .. .. ....|... .. .. ....
17 |... .. .. ....|... .. .. ....|OFF .. .. ....|... .. .. ....|... .. .. ....|... .. .. ....|... .. .. ....|... .. .. ....|... .. .. ....|... .. .. ....|... .. .. ....|... .. .. ....|... .. .. ....|... .. .. ....|... .. .. ....|... .. .. ....
18 |... .. .. ....|... .. .. ....|A-2 .. .. ....|... .. .. ....|... .. .. ....|... .. .. ....|... .. .. ....|... .. .. ....|... .. .. ....|C-3 .. .. ....|... .. .. ....|... .. .. ....|C-3 .. .. ....|... .. .. ....|... .. .. ....|... .. .. ....
19 |... .. .. ....|... .. .. ....|OFF .. .. ....|... .. .. ....|... .. .. ....|... .. .. ....|... .. .. ....|... .. .. ....|... .. .. ....|... .. .. ....|... .. .. ....|... .. .. ....|... .. .. ....|... .. .. ....|... .. .. ....|... .. .. ....
1A |... .. .. ....|... .. .. ....|E-3 .. .. ....|... .. .. ....|... .. .. ....|... .. .. ....|... .. .. ....|... .. .. ....|... .. .. ....|... .. .. ....|... .. .. ....|... .. .. ....|C-3 .. .. ....|... .. .. ....|... .. .. ....|... .. .. ....
1B |... .. .. ....|... .. .. ....|OFF .. .. ....|... .. .. ....|... .. .. ....|... .. .. ....|... .. .. ....|... .. .. ....|... .. .. ....|... .. .. ....|... .. .. ....|... .. .. ....|... .. .. ....|... .. .. ....|... .. .. ....|... .. .. ....
1C |... .. .. ....|... .. .. ....|A#2 .. .. ....|... .. .. ....|G#2 .. .. ....|B-2 .. .. ....|... .. .. ....|... .. .. ....|... .. .. ....|C-3 .. .. ....|... .. .. ....|... .. .. ....|C-3 .. .. ....|... .. .. ....|... .. .. ....|... .. .. ....
1D |... .. .. ....|... .. .. ....|OFF .. .. ....|... .. .. ....|... .. .. ....|... .. .. ....|... .. .. ....|... .. .. ....|... .. .. ....|... .. .. ....|... .. .. ....|... .. .. ....|... .. .. ....|... .. .. ....|... .. .. ....|... .. .. ....
1E |... .. .. ....|... .. .. ....|F-3 .. .. ....|... .. .. ....|... .. .. ....|... .. .. ....|... .. .. ....|... .. .. ....|... .. .. ....|... .. .. ....|... .. .. ....|C-3 00 .. ....|... .. .. ....|... .. .. ....|... .. .. ....|... .. .. ....
1F |... .. .. ....|... .. .. ....|OFF .. .. ....|... .. .. ....|... .. .. ....|... .. .. ....|... .. .. ....|... .. .. ....|... .. .. ....|... .. .. ....|... .. .. ....|... .. .. ....|... .. .. ....|... .. .. ....|... .. .. ....|... .. .. ....
----- ORDER 08
00 |E-4 .. .. ....|A-4 .. .. ....|A-2 02 7A ....|E-2 .. .. ....|A-2 .. .. ....|C-3 .. .. ....|... .. .. ....|... .. .. ....|... .. .. ....|C-3 .. .. ....|... .. .. ....|... .. .. ....|C-3 .. .. ....|... .. .. ....|... .. .. ....|... .. .. ....
01 |... .. .. ....|... .. .. ....|OFF .. .. ....|... .. .. ....|... .. .. ....|... .. .. ....|... .. .. ....|... .. .. ....|... .. .. ....|... .. .. ....|... .. .. ....|... .. .. ....|... .. .. ....|... .. .. ....|... .. .. ....|... .. .. ....
02 |... .. .. ....|... .. .. ....|E-3 .. .. ....|... .. .. ....|... .. .. ....|... .. .. ....|... .. .. ....|... .. .. ....|... .. .. ....|... .. .. ....|... .. .. ....|... .. .. ....|C-3 .. .. ....|... .. .. ....|... .. .. ....|... .. .. ....
03 |... .. .. ....|... .. .. ....|OFF .. .. ....|... .. .. ....|... .. .. ....|... .. .. ....|... .. .. ....|... .. .. ....|... .. .. ....|... .. .. ....|... .. .. ....|... .. .. ....|... .. .. ....|... .. .. ....|... .. .. ....|... .. .. ....
04 |... .. .. ....|... .. .. ....|A-2 .. .. ....|... .. .. ....|... .. .. ....|... .. .. ....|... .. .. ....|... .. .. ....|... .. .. ....|C-3 .. .. ....|... .. .. ....|... .. .. ....|C-3 .. .. ....|... .. .. ....|... .. .. ....|... .. .. ....
05 |... .. .. ....|... .. .. ....|OFF .. .. ....|... .. .. ....|... .. .. ....|... .. .. ....|... .. .. ....|... .. .. ....|... .. .. ....|... .. .. ....|... .. .. ....|... .. .. ....|... .. .. ....|... .. .. ....|... .. .. ....|... .. .. ....
06 |... .. .. ....|... .. .. ....|E-3 .. .. ....|... .. .. ....|... .. .. ....|... .. .. ....|... .. .. ....|... .. .. ....|... .. .. ....|... .. .. ....|... .. .. ....|... .. .. ....|C-3 .. .. ....|... .. .. ....|... .. .. ....|... .. .. ....
07 |... .. .. ....|... .. .. ....|OFF .. .. ....|... .. .. ....|... .. .. ....|... .. .. ....|... .. .. ....|... .. .. ....|... .. .. ....|... .. .. ....|... .. .. ....|... .. .. ....|... .. .. ....|... .. .. ....|... .. .. ....|... .. .. ....
08 |... .. .. ....|... .. .. ....|A-2 .. .. ....|... .. .. ....|... .. .. ....|... .. .. ....|... .. .. ....|... .. .. ....|... .. .. ....|C-3 .. .. ....|... .. .. ....|... .. .. ....|C-3 .. .. ....|... .. .. ....|... .. .. ....|... .. .. ....
09 |... .. .. ....|... .. .. ....|OFF .. .. ....|... .. .. ....|... .. .. ....|... .. .. ....|... .. .. ....|... .. .. ....|... .. .. ....|... .. .. ....|... .. .. ....|... .. .. ....|... .. .. ....|... .. .. ....|... .. .. ....|... .. .. ....
0A |... .. .. ....|... .. .. ....|E-3 .. .. ....|... .. .. ....|... .. .. ....|... .. .. ....|... .. .. ....|... .. .. ....|... .. .. ....|... .. .. ....|... .. .. ....|... .. .. ....|C-3 .. .. ....|... .. .. ....|... .. .. ....|... .. .. ....
0B |... .. .. ....|... .. .. ....|OFF .. .. ....|... .. .. ....|... .. .. ....|... .. .. ....|... .. .. ....|... .. .. ....|... .. .. ....|... .. .. ....|... .. .. ....|... .. .. ....|... .. .. ....|... .. .. ....|... .. .. ....|... .. .. ....
0C |... .. .. ....|... .. .. ....|A-2 .. .. ....|... .. .. ....|B-2 .. .. ....|D-3 .. .. ....|... .. .. ....|... .. .. ....|... .. .. ....|C-3 .. .. ....|... .. .. ....|... .. .. ....|C-3 .. .. ....|... .. .. ....|... .. .. ....|... .. .. ....
0D |... .. .. ....|... .. .. ....|OFF .. .. ....|... .. .. ....|... .. .. ....|... .. .. ....|... .. .. ....|... .. .. ....|... .. .. ....|... .. .. ....|... .. .. ....|... .. .. ....|... .. .. ....|... .. .. ....|... .. .. ....|... .. .. ....
0E |... .. .. ....|... .. .. ....|E-3 .. .. ....|... .. .. ....|... .. .. ....|... .. .. ....|... .. .. ....|... .. .. ....|... .. .. ....|... .. .. ....|... .. .. ....|... .. .. ....|C-3 .. .. ....|... .. .. ....|... .. .. ....|... .. .. ....
0F |... .. .. ....|... .. .. ....|OFF .. .. ....|... .. .. ....|... .. .. ....|... .. .. ....|... .. .. ....|... .. .. ....|... .. .. ....|... .. .. ....|... .. .. ....|... .. .. ....|... .. .. ....|... .. .. ....|... .. .. ....|... .. .. ....
10 |E-4 .. .. ....|A-4 .. .. ....|A-2 .. .. ....|A-2 .. .. ....|C-3 .. .. ....|E-3 .. .. ....|... .. .. ....|... .. .. ....|... .. .. ....|... .. .. ....|... .. .. ....|C-3 00 .. ....|... .. .. ....|... .. .. ....|... .. .. ....|... .. .. ....
11 |... .. .. ....|... .. .. ....|OFF .. .. ....|... .. .. ....|... .. .. ....|... .. .. ....|... .. .. ....|... .. .. ....|... .. .. ....|... .. .. ....|... .. .. ....|... .. .. ....|... .. .. ....|... .. .. ....|... .. .. ....|... .. .. ....
12 |... .. .. ....|... .. .. ....|E-3 .. .. ....|... .. .. ....|... .. .. ....|... .. .. ....|... .. .. ....|... .. .. ....|... .. .. ....|... .. .. ....|... .. .. ....|... .. .. ....|... .. .. ....|... .. .. ....|... .. .. ....|... .. .. ....
13 |... .. .. ....|... .. .. ....|OFF .. .. ....|... .. .. ....|... .. .. ....|... .. .. ....|... .. .. ....|... .. .. ....|... .. .. ....|... .. .. ....|... .. .. ....|... .. .. ....|... .. .. ....|... .. .. ....|... .. .. ....|... .. .. ....
14 |C-4 .. .. ....|E-4 .. .. ....|A-2 .. .. ....|... .. .. ....|... .. .. ....|... .. .. ....|... .. .. ....|... .. .. ....|... .. .. ....|... .. .. ....|... .. .. ....|... .. .. ....|... .. .. ....|... .. .. ....|... .. .. ....|... .. .. ....
15 |... .. .. ....|... .. .. ....|OFF .. .. ....|... .. .. ....|... .. .. ....|... .. .. ....|... .. .. ....|... .. .. ....|... .. .. ....|... .. .. ....|... .. .. ....|... .. .. ....|... .. .. ....|... .. .. ....|... .. .. ....|... .. .. ....
16 |... .. .. ....|... .. .. ....|E-3 .. .. ....|... .. .. ....|... .. .. ....|... .. .. ....|... .. .. ....|... .. .. ....|... .. .. ....|... .. .. ....|... .. .. ....|... .. .. ....|... .. .. ....|... .. .. ....|... .. .. ....|... .. .. ....
17 |... .. .. ....|... .. .. ....|OFF .. .. ....|... .. .. ....|... .. .. ....|... .. .. ....|... .. .. ....|... .. .. ....|... .. .. ....|... .. .. ....|... .. .. ....|... .. .. ....|... .. .. ....|... .. .. ....|... .. .. ....|... .. .. ....
18 |A-3 .. .. ....|C-4 .. .. ....|A-2 .. .. ....|... .. .. ....|... .. .. ....|... .. .. ....|... .. .. ....|... .. .. ....|... .. .. ....|... .. .. ....|... .. .. ....|C-3 01 .. ....|... .. .. ....|... .. .. ....|... .. .. ....|... .. .. ....
19 |... .. .. ....|... .. .. ....|OFF .. .. ....|... .. .. ....|... .. .. ....|... .. .. ....|... .. .. ....|... .. .. ....|... .. .. ....|... .. .. ....|... .. .. ....|... .. .. ....|... .. .. ....|... .. .. ....|... .. .. ....|... .. .. ....
1A |... .. .. ....|... .. .. ....|E-3 .. .. ....|... .. .. ....|... .. .. ....|... .. .. ....|... .. .. ....|... .. .. ....|... .. .. ....|... .. .. ....|... .. .. ....|... .. .. ....|... .. .. ....|... .. .. ....|... .. .. ....|... .. .. ....
1B |... .. .. ....|... .. .. ....|OFF .. .. ....|... .. .. ....|... .. .. ....|... .. .. ....|... .. .. ....|... .. .. ....|... .. .. ....|C-3 .. .. ....|... .. .. ....|... .. .. ....|... .. .. ....|... .. .. ....|... .. .. ....|... .. .. ....
1C |E-3 .. .. ....|A-3 .. .. ....|A#2 .. .. ....|... .. .. ....|B-2 .. .. ....|D-3 .. .. ....|... .. .. ....|... .. .. ....|... .. .. ....|C-3 .. .. ....|... .. .. ....|C-3 01 .. ....|... .. .. ....|... .. .. ....|... .. .. ....|... .. .. ....
1D |... .. .. ....|... .. .. ....|OFF .. .. ....|... .. .. ....|... .. .. ....|... .. .. ....|... .. .. ....|... .. .. ....|... .. .. ....|... .. .. ....|... .. .. ....|... .. .. ....|... .. .. ....|... .. .. ....|... .. .. ....|... .. .. ....
1E |... .. .. ....|... .. .. ....|F-3 .. .. ....|... .. .. ....|... .. .. ....|... .. .. ....|... .. .. ....|... .. .. ....|... .. .. ....|C-3 .. .. ....|... .. .. ....|... .. .. ....|... .. .. ....|... .. .. ....|... .. .. ....|... .. .. ....
1F |... .. .. ....|... .. .. ....|OFF .. .. ....|... .. .. ....|... .. .. ....|... .. .. ....|... .. .. ....|... .. .. ....|... .. .. ....|... .. .. ....|... .. .. ....|... .. .. ....|... .. .. ....|... .. .. ....|... .. .. ....|... .. .. ....
----- ORDER 09
00 |OFF .. .. ....|OFF .. .. ....|OFF .. .. ....|OFF .. .. ....|OFF .. .. ....|OFF .. .. F905|OFF .. .. ....|OFF .. .. ....|... .. .. ....|... .. .. ....|... .. .. ....|... .. .. ....|C-3 .. .. ....|... .. .. ....|... .. .. ....|... .. .. ....
01 |... .. .. ....|... .. .. ....|... .. .. ....|... .. .. ....|... .. .. ....|... .. .. ....|... .. .. ....|... .. .. ....|... .. .. ....|... .. .. ....|... .. .. ....|... .. .. ....|... .. .. ....|... .. .. ....|... .. .. ....|... .. .. ....
02 |... .. .. ....|... .. .. ....|... .. .. ....|... .. .. ....|... .. .. ....|... .. .. ....|... .. .. ....|... .. .. ....|... .. .. ....|... .. .. ....|... .. .. ....|... .. .. ....|... .. .. ....|... .. .. ....|... .. .. ....|... .. .. ....
03 |... .. .. ....|... .. .. ....|... .. .. ....|... .. .. ....|... .. .. ....|... .. .. ....|... .. .. ....|... .. .. ....|... .. .. ....|... .. .. ....|... .. .. ....|... .. .. ....|... .. .. ....|... .. .. ....|... .. .. ....|... .. .. ....
04 |... .. .. ....|... .. .. ....|... .. .. ....|... .. .. ....|... .. .. ....|... .. .. ....|... .. .. ....|... .. .. ....|... .. .. ....|... .. .. ....|... .. .. ....|... .. .. ....|C-3 .. .. ....|... .. .. ....|... .. .. ....|... .. .. ....
05 |... .. .. ....|... .. .. ....|... .. .. ....|... .. .. ....|... .. .. ....|... .. .. ....|... .. .. ....|... .. .. ....|... .. .. ....|... .. .. ....|... .. .. ....|... .. .. ....|... .. .. ....|... .. .. ....|... .. .. ....|... .. .. ....
06 |... .. .. ....|... .. .. ....|... .. .. ....|... .. .. ....|... .. .. ....|... .. .. ....|... .. .. ....|... .. .. ....|... .. .. ....|... .. .. ....|... .. .. ....|... .. .. ....|... .. .. ....|... .. .. ....|... .. .. ....|... .. .. ....
07 |... .. .. ....|... .. .. ....|... .. .. ....|... .. .. ....|... .. .. ....|... .. .. ....|... .. .. ....|... .. .. ....|... .. .. ....|... .. .. ....|... .. .. ....|... .. .. ....|... .. .. ....|... .. .. ....|... .. .. ....|... .. .. ....
08 |... .. .. ....|... .. .. ....|... .. .. ....|... .. .. ....|... .. .. ....|... .. .. ....|... .. .. ....|... .. .. ....|... .. .. ....|... .. .. ....|... .. .. ....|... .. .. ....|C-3 .. .. ....|... .. .. ....|... .. .. ....|... .. .. ....
09 |... .. .. ....|... .. .. ....|... .. .. ....|... .. .. ....|... .. .. ....|... .. .. ....|... .. .. ....|... .. .. ....|... .. .. ....|... .. .. ....|... .. .. ....|... .. .. ....|... .. .. ....|... .. .. ....|... .. .. ....|... .. .. ....
0A |... .. .. ....|... .. .. ....|... .. .. ....|... .. .. ....|... .. .. ....|... .. .. ....|... .. .. ....|... .. .. ....|... .. .. ....|... .. .. ....|... .. .. ....|... .. .. ....|C-3 .. .. ....|... .. .. ....|... .. .. ....|... .. .. ....
0B |... .. .. ....|... .. .. ....|... .. .. ....|... .. .. ....|... .. .. ....|... .. .. ....|... .. .. ....|... .. .. ....|... .. .. ....|... .. .. ....|... .. .. ....|... .. .. ....|C-3 .. .. ....|... .. .. ....|... .. .. ....|... .. .. ....
0C |... .. .. ....|... .. .. ....|... .. .. ....|... .. .. ....|... .. .. ....|... .. .. ....|... .. .. ....|... .. .. ....|... .. .. ....|... .. .. ....|... .. .. ....|C-3 00 .. ....|... .. .. ....|... .. .. ....|... .. .. ....|... .. .. ....
0D |... .. .. ....|... .. .. ....|... .. .. ....|... .. .. ....|... .. .. ....|... .. .. ....|... .. .. ....|... .. .. ....|... .. .. ....|... .. .. ....|... .. .. ....|... .. .. ....|... .. .. ....|... .. .. ....|... .. .. ....|... .. .. ....
0E |... .. .. ....|... .. .. ....|... .. .. ....|... .. .. ....|... .. .. ....|... .. .. ....|... .. .. ....|... .. .. ....|... .. .. ....|... .. .. ....|... .. .. ....|... .. .. ....|... .. .. ....|... .. .. ....|... .. .. ....|... .. .. ....
0F |... .. .. ....|... .. .. ....|... .. .. ....|... .. .. ....|... .. .. ....|... .. .. ....|... .. .. ....|... .. .. ....|... .. .. ....|... .. .. ....|... .. .. ....|... .. .. ....|... .. .. ....|... .. .. ....|... .. .. ....|... .. .. 0D..
10 |... .. .. ....|... .. .. ....|... .. .. ....|... .. .. ....|... .. .. ....|... .. .. ....|... .. .. ....|... .. .. ....|... .. .. ....|... .. .. ....|... .. .. ....|... .. .. ....|... .. .. ....|... .. .. ....|... .. .. ....|... .. .. ....
11 |... .. .. ....|... .. .. ....|... .. .. ....|... .. .. ....|... .. .. ....|... .. .. ....|... .. .. ....|... .. .. ....|... .. .. ....|... .. .. ....|... .. .. ....|... .. .. ....|... .. .. ....|... .. .. ....|... .. .. ....|... .. .. ....
12 |... .. .. ....|... .. .. ....|... .. .. ....|... .. .. ....|... .. .. ....|... .. .. ....|... .. .. ....|... .. .. ....|... .. .. ....|... .. .. ....|... .. .. ....|... .. .. ....|... .. .. ....|... .. .. ....|... .. .. ....|... .. .. ....
13 |... .. .. ....|... .. .. ....|... .. .. ....|... .. .. ....|... .. .. ....|... .. .. ....|... .. .. ....|... .. .. ....|... .. .. ....|... .. .. ....|... .. .. ....|... .. .. ....|... .. .. ....|... .. .. ....|... .. .. ....|... .. .. ....
14 |... .. .. ....|... .. .. ....|... .. .. ....|... .. .. ....|... .. .. ....|... .. .. ....|... .. .. ....|... .. .. ....|... .. .. ....|... .. .. ....|... .. .. ....|... .. .. ....|... .. .. ....|... .. .. ....|... .. .. ....|... .. .. ....
15 |... .. .. ....|... .. .. ....|... .. .. ....|... .. .. ....|... .. .. ....|... .. .. ....|... .. .. ....|... .. .. ....|... .. .. ....|... .. .. ....|... .. .. ....|... .. .. ....|... .. .. ....|... .. .. ....|... .. .. ....|... .. .. ....
16 |... .. .. ....|... .. .. ....|... .. .. ....|... .. .. ....|... .. .. ....|... .. .. ....|... .. .. ....|... .. .. ....|... .. .. ....|... .. .. ....|... .. .. ....|... .. .. ....|... .. .. ....|... .. .. ....|... .. .. ....|... .. .. ....
17 |... .. .. ....|... .. .. ....|... .. .. ....|... .. .. ....|... .. .. ....|... .. .. ....|... .. .. ....|... .. .. ....|... .. .. ....|... .. .. ....|... .. .. ....|... .. .. ....|... .. .. ....|... .. .. ....|... .. .. ....|... .. .. ....
18 |... .. .. ....|... .. .. ....|... .. .. ....|... .. .. ....|... .. .. ....|... .. .. ....|... .. .. ....|... .. .. ....|... .. .. ....|... .. .. ....|... .. .. ....|... .. .. ....|... .. .. ....|... .. .. ....|... .. .. ....|... .. .. ....
19 |... .. .. ....|... .. .. ....|... .. .. ....|... .. .. ....|... .. .. ....|... .. .. ....|... .. .. ....|... .. .. ....|... .. .. ....|... .. .. ....|... .. .. ....|... .. .. ....|... .. .. ....|... .. .. ....|... .. .. ....|... .. .. ....
1A |... .. .. ....|... .. .. ....|... .. .. ....|... .. .. ....|... .. .. ....|... .. .. ....|... .. .. ....|... .. .. ....|... .. .. ....|... .. .. ....|... .. .. ....|... .. .. ....|... .. .. ....|... .. .. ....|... .. .. ....|... .. .. ....
1B |... .. .. ....|... .. .. ....|... .. .. ....|... .. .. ....|... .. .. ....|... .. .. ....|... .. .. ....|... .. .. ....|... .. .. ....|... .. .. ....|... .. .. ....|... .. .. ....|... .. .. ....|... .. .. ....|... .. .. ....|... .. .. ....
1C |... .. .. ....|... .. .. ....|... .. .. ....|... .. .. ....|... .. .. ....|... .. .. ....|... .. .. ....|... .. .. ....|... .. .. ....|... .. .. ....|... .. .. ....|... .. .. ....|... .. .. ....|... .. .. ....|... .. .. ....|... .. .. ....
1D |... .. .. ....|... .. .. ....|... .. .. ....|... .. .. ....|... .. .. ....|... .. .. ....|... .. .. ....|... .. .. ....|... .. .. ....|... .. .. ....|... .. .. ....|... .. .. ....|... .. .. ....|... .. .. ....|... .. .. ....|... .. .. ....
1E |... .. .. ....|... .. .. ....|... .. .. ....|... .. .. ....|... .. .. ....|... .. .. ....|... .. .. ....|... .. .. ....|... .. .. ....|... .. .. ....|... .. .. ....|... .. .. ....|... .. .. ....|... .. .. ....|... .. .. ....|... .. .. ....
1F |... .. .. ....|... .. .. ....|... .. .. ....|... .. .. ....|... .. .. ....|... .. .. ....|... .. .. ....|... .. .. ....|... .. .. ....|... .. .. ....|... .. .. ....|... .. .. ....|... .. .. ....|... .. .. ....|... .. .. ....|... .. .. ....
----- ORDER 0A
00 |C-4 .. .. ....|A-4 .. .. ....|A-2 .. .. ....|E-4 05 75 ....|E-4 03 75 ....|C-4 03 75 ....|... .. .. ....|... .. .. ....|... .. .. ....|C-3 .. .. ....|... .. .. ....|... .. .. ....|C-3 .. .. ....|... .. .. ....|... .. .. ....|... .. .. ....
01 |... .. .. ....|... .. .. ....|... .. .. ....|... .. .. ....|... .. .. ....|... .. .. ....|... .. .. ....|... .. .. ....|... .. .. ....|... .. .. ....|... .. .. ....|... .. .. ....|C-3 .. .. ....|... .. .. ....|... .. .. ....|... .. .. ....
02 |... .. .. ....|... .. .. ....|A-3 .. .. ....|... .. .. ....|... .. .. ....|... .. .. ....|... .. .. ....|... .. .. ....|... .. .. ....|... .. .. ....|C-3 01 .. ....|... .. .. ....|C-3 .. .. ....|... .. .. ....|... .. .. ....|... .. .. ....
03 |... .. .. ....|... .. .. ....|A-3 .. .. ....|... .. .. ....|... .. .. ....|... .. .. ....|... .. .. ....|... .. .. ....|... .. .. ....|... .. .. ....|... .. .. ....|... .. .. ....|C-3 .. .. ....|... .. .. ....|... .. .. ....|... .. .. ....
04 |... .. .. ....|... .. .. ....|A-2 .. .. ....|... .. .. ....|... .. .. ....|... .. .. ....|... .. .. ....|... .. .. ....|... .. .. ....|C-3 .. .. ....|... .. .. ....|... .. .. ....|C-3 .. .. ....|... .. .. ....|... .. .. ....|... .. .. ....
05 |... .. .. ....|... .. .. ....|... .. .. ....|... .. .. ....|... .. .. ....|... .. .. ....|... .. .. ....|... .. .. ....|... .. .. ....|... .. .. ....|... .. .. ....|... .. .. ....|C-3 .. .. ....|... .. .. ....|... .. .. ....|... .. .. ....
06 |... .. .. ....|... .. .. ....|A-3 .. .. ....|... .. .. ....|... .. .. ....|... .. .. ....|... .. .. ....|... .. .. ....|... .. .. ....|... .. .. ....|C-3 .. .. ....|... .. .. ....|C-3 .. .. ....|... .. .. ....|... .. .. ....|... .. .. ....
07 |... .. .. ....|... .. .. ....|A-3 .. .. ....|... .. .. ....|... .. .. ....|... .. .. ....|... .. .. ....|... .. .. ....|... .. .. ....|... .. .. ....|... .. .. ....|... .. .. ....|C-3 .. .. ....|... .. .. ....|... .. .. ....|... .. .. ....
08 |... .. .. ....|... .. .. ....|A-2 .. .. ....|A-4 .. .. ....|A-4 .. .. ....|E-4 .. .. ....|... .. .. ....|... .. .. ....|... .. .. ....|C-3 .. .. ....|... .. .. ....|... .. .. ....|C-3 .. .. ....|... .. .. ....|... .. .. ....|... .. .. ....
09 |... .. .. ....|... .. .. ....|... .. .. ....|... .. .. ....|... .. .. ....|... .. .. ....|... .. .. ....|... .. .. ....|... .. .. ....|... .. .. ....|... .. .. ....|... .. .. ....|C-3 .. .. ....|... .. .. ....|... .. .. ....|... .. .. ....
0A |... .. .. ....|... .. .. ....|A-3 .. .. ....|... .. .. ....|... .. .. ....|... .. .. ....|... .. .. ....|... .. .. ....|... .. .. ....|... .. .. ....|C-3 .. .. ....|... .. .. ....|C-3 .. .. ....|... .. .. ....|... .. .. ....|... .. .. ....
0B |... .. .. ....|... .. .. ....|A-3 .. .. ....|... .. .. ....|... .. .. ....|... .. .. ....|... .. .. ....|... .. .. ....|... .. .. ....|... .. .. ....|... .. .. ....|... .. .. ....|C-3 .. .. ....|... .. .. ....|... .. .. ....|... .. .. ....
0C |... .. .. ....|... .. .. ....|A-2 .. .. ....|E-4 .. .. ....|E-4 .. .. ....|C-4 .. .. ....|... .. .. ....|... .. .. ....|... .. .. ....|C-3 .. .. ....|... .. .. ....|... .. .. ....|C-3 .. .. ....|... .. .. ....|... .. .. ....|... .. .. ....
0D |... .. .. ....|... .. .. ....|... .. .. ....|... .. .. ....|... .. .. ....|... .. .. ....|... .. .. ....|... .. .. ....|... .. .. ....|... .. .. ....|... .. .. ....|... .. .. ....|C-3 .. .. ....|... .. .. ....|... .. .. ....|... .. .. ....
0E |... .. .. ....|... .. .. ....|A-3 .. .. ....|A-4 .. .. ....|A-4 .. .. ....|E-4 .. .. ....|... .. .. ....|... .. .. ....|... .. .. ....|... .. .. ....|C-3 .. .. ....|... .. .. ....|C-3 .. .. ....|... .. .. ....|... .. .. ....|... .. .. ....
0F |... .. .. ....|... .. .. ....|A-3 .. .. ....|... .. .. ....|... .. .. ....|... .. .. ....|... .. .. ....|... .. .. ....|... .. .. ....|... .. .. ....|... .. .. ....|... .. .. ....|C-3 .. .. ....|... .. .. ....|... .. .. ....|... .. .. ....
10 |B-3 .. .. ....|G-4 .. .. ....|G-2 .. .. ....|B-4 .. .. ....|B-4 .. .. ....|G-4 .. .. ....|... .. .. ....|... .. .. ....|... .. .. ....|C-3 .. .. ....|... .. .. ....|... .. .. ....|C-3 .. .. ....|... .. .. ....|... .. .. ....|... .. .. ....
11 |... .. .. ....|... .. .. ....|... .. .. ....|... .. .. ....|... .. .. ....|... .. .. ....|... .. .. ....|... .. .. ....|... .. .. ....|... .. .. ....|... .. .. ....|... .. .. ....|C-3 .. .. ....|... .. .. ....|... .. .. ....|... .. .. ....
12 |... .. .. ....|... .. .. ....|G-3 .. .. ....|... .. .. ....|... .. .. ....|... .. .. ....|... .. .. ....|... .. .. ....|... .. .. ....|... .. .. ....|C-3 .. .. ....|... .. .. ....|C-3 .. .. ....|... .. .. ....|... .. .. ....|... .. .. ....
13 |... .. .. ....|... .. .. ....|G-3 .. .. ....|... .. .. ....|... .. .. ....|... .. .. ....|... .. .. ....|... .. .. ....|... .. .. ....|... .. .. ....|... .. .. ....|... .. .. ....|C-3 .. .. ....|... .. .. ....|... .. .. ....|... .. .. ....
14 |... .. .. ....|... .. .. ....|G-2 .. .. ....|... .. .. ....|... .. .. ....|... .. .. ....|... .. .. ....|... .. .. ....|... .. .. ....|C-3 .. .. ....|... .. .. ....|... .. .. ....|C-3 .. .. ....|... .. .. ....|... .. .. ....|... .. .. ....
15 |... .. .. ....|... .. .. ....|... .. .. ....|... .. .. ....|... .. .. ....|... .. .. ....|... .. .. ....|... .. .. ....|... .. .. ....|... .. .. ....|... .. .. ....|... .. .. ....|C-3 .. .. ....|... .. .. ....|... .. .. ....|... .. .. ....
16 |... .. .. ....|... .. .. ....|G-3 .. .. ....|OFF .. .. ....|OFF .. .. ....|OFF .. .. ....|... .. .. ....|... .. .. ....|... .. .. ....|... .. .. ....|C-3 .. .. ....|... .. .. ....|C-3 .. .. ....|... .. .. ....|... .. .. ....|... .. .. ....
17 |... .. .. ....|... .. .. ....|G-3 .. .. ....|... .. .. ....|... .. .. ....|... .. .. ....|... .. .. ....|... .. .. ....|... .. .. ....|... .. .. ....|... .. .. ....|... .. .. ....|C-3 .. .. ....|... .. .. ....|... .. .. ....|... .. .. ....
18 |... .. .. ....|... .. .. ....|G-2 .. .. ....|B-4 .. .. ....|B-4 .. .. ....|G-4 .. .. ....|... .. .. ....|... .. .. ....|... .. .. ....|C-3 .. .. ....|... .. .. ....|... .. .. ....|C-3 .. .. ....|... .. .. ....|... .. .. ....|... .. .. ....
19 |... .. .. ....|... .. .. ....|... .. .. ....|... .. .. ....|... .. .. ....|... .. .. ....|... .. .. ....|... .. .. ....|... .. .. ....|... .. .. ....|... .. .. ....|... .. .. ....|C-3 .. .. ....|... .. .. ....|... .. .. ....|... .. .. ....
1A |... .. .. ....|... .. .. ....|G-3 .. .. ....|... .. .. ....|... .. .. ....|... .. .. ....|... .. .. ....|... .. .. ....|... .. .. ....|... .. .. ....|C-3 .. .. ....|... .. .. ....|C-3 .. .. ....|... .. .. ....|... .. .. ....|... .. .. ....
1B |... .. .. ....|... .. .. ....|G-3 .. .. ....|C-5 .. .. ....|C-5 .. .. ....|A-4 .. .. ....|... .. .. ....|... .. .. ....|... .. .. ....|... .. .. ....|C-3 .. .. ....|... .. .. ....|C-3 .. .. ....|... .. .. ....|... .. .. ....|... .. .. ....
1C |... .. .. ....|... .. .. ....|G-2 .. .. ....|... .. .. ....|... .. .. ....|... .. .. ....|... .. .. ....|... .. .. ....|... .. .. ....|C-3 .. .. ....|... .. .. ....|... .. .. ....|C-3 .. .. ....|... .. .. ....|... .. .. ....|... .. .. ....
1D |... .. .. ....|... .. .. ....|... .. .. ....|... .. .. ....|... .. .. ....|... .. .. ....|... .. .. ....|... .. .. ....|... .. .. ....|... .. .. ....|... .. .. ....|... .. .. ....|C-3 .. .. ....|... .. .. ....|... .. .. ....|... .. .. ....
1E |... .. .. ....|... .. .. ....|G-3 .. .. ....|D-5 .. .. ....|D-5 .. .. ....|B-4 .. .. ....|... .. .. ....|... .. .. ....|... .. .. ....|... .. .. ....|C-3 .. .. ....|... .. .. ....|C-3 .. .. ....|... .. .. ....|... .. .. ....|... .. .. ....
1F |... .. .. ....|... .. .. ....|G-3 .. .. ....|... .. .. ....|... .. .. ....|... .. .. ....|... .. .. ....|... .. .. ....|... .. .. ....|... .. .. ....|... .. .. ....|... .. .. ....|C-3 .. .. ....|... .. .. ....|... .. .. ....|... .. .. ....
----- ORDER 0B
00 |A-3 .. .. ....|F#4 .. .. ....|F#2 .. .. ....|D-5 .. .. ....|D-5 .. .. ....|F#4 .. .. ....|... .. .. ....|... .. .. ....|... .. .. ....|C-3 .. .. ....|... .. .. ....|... .. .. ....|C-3 .. .. ....|... .. .. ....|... .. .. ....|... .. .. ....
01 |... .. .. ....|... .. .. ....|... .. .. ....|... .. .. ....|... .. .. ....|... .. .. ....|... .. .. ....|... .. .. ....|... .. .. ....|... .. .. ....|... .. .. ....|... .. .. ....|C-3 .. .. ....|... .. .. ....|... .. .. ....|... .. .. ....
02 |... .. .. ....|... .. .. ....|F#3 .. .. ....|... .. .. ....|... .. .. ....|... .. .. ....|... .. .. ....|... .. .. ....|... .. .. ....|... .. .. ....|C-3 .. .. ....|... .. .. ....|C-3 .. .. ....|... .. .. ....|... .. .. ....|... .. .. ....
03 |... .. .. ....|... .. .. ....|F#3 .. .. ....|... .. .. ....|... .. .. ....|... .. .. ....|... .. .. ....|... .. .. ....|... .. .. ....|... .. .. ....|... .. .. ....|... .. .. ....|C-3 .. .. ....|... .. .. ....|... .. .. ....|... .. .. ....
04 |... .. .. ....|... .. .. ....|F#2 .. .. ....|... .. .. ....|... .. .. ....|... .. .. ....|... .. .. ....|... .. .. ....|... .. .. ....|C-3 .. .. ....|... .. .. ....|... .. .. ....|C-3 .. .. ....|... .. .. ....|... .. .. ....|... .. .. ....
05 |... .. .. ....|... .. .. ....|... .. .. ....|... .. .. ....|... .. .. ....|... .. .. ....|... .. .. ....|... .. .. ....|... .. .. ....|... .. .. ....|... .. .. ....|... .. .. ....|C-3 .. .. ....|... .. .. ....|... .. .. ....|... .. .. ....
06 |... .. .. ....|... .. .. ....|F#3 .. .. ....|E-5 .. .. ....|E-5 .. .. ....|G-4 .. .. ....|... .. .. ....|... .. .. ....|... .. .. ....|... .. .. ....|C-3 .. .. ....|... .. .. ....|C-3 .. .. ....|... .. .. ....|... .. .. ....|... .. .. ....
07 |... .. .. ....|... .. .. ....|F#3 .. .. ....|... .. .. ....|... .. .. ....|... .. .. ....|... .. .. ....|... .. .. ....|... .. .. ....|... .. .. ....|... .. .. ....|... .. .. ....|C-3 .. .. ....|... .. .. ....|... .. .. ....|... .. .. ....
08 |... .. .. ....|... .. .. ....|F#2 .. .. ....|... .. .. ....|... .. .. ....|... .. .. ....|... .. .. ....|... .. .. ....|... .. .. ....|C-3 .. .. ....|... .. .. ....|... .. .. ....|C-3 .. .. ....|... .. .. ....|... .. .. ....|... .. .. ....
09 |... .. .. ....|... .. .. ....|... .. .. ....|... .. .. ....|... .. .. ....|... .. .. ....|... .. .. ....|... .. .. ....|... .. .. ....|... .. .. ....|... .. .. ....|... .. .. ....|C-3 .. .. ....|... .. .. ....|... .. .. ....|... .. .. ....
0A |... .. .. ....|... .. .. ....|F#3 .. .. ....|... .. .. ....|... .. .. ....|... .. .. ....|... .. .. ....|... .. .. ....|... .. .. ....|... .. .. ....|C-3 .. .. ....|... .. .. ....|C-3 .. .. ....|... .. .. ....|... .. .. ....|... .. .. ....
0B |... .. .. ....|... .. .. ....|F#3 .. .. ....|... .. .. ....|... .. .. ....|... .. .. ....|... .. .. ....|... .. .. ....|... .. .. ....|... .. .. ....|... .. .. ....|... .. .. ....|C-3 .. .. ....|... .. .. ....|... .. .. ....|... .. .. ....
0C |... .. .. ....|... .. .. ....|F#2 .. .. ....|D-5 .. .. ....|D-5 .. .. ....|F#4 .. .. ....|... .. .. ....|... .. .. ....|... .. .. ....|C-3 .. .. ....|... .. .. ....|... .. .. ....|C-3 .. .. ....|... .. .. ....|... .. .. ....|... .. .. ....
0D |... .. .. ....|... .. .. ....|... .. .. ....|... .. .. ....|... .. .. ....|... .. .. ....|... .. .. ....|... .. .. ....|... .. .. ....|... .. .. ....|... .. .. ....|... .. .. ....|C-3 .. .. ....|... .. .. ....|... .. .. ....|... .. .. ....
0E |... .. .. ....|... .. .. ....|F#3 .. .. ....|OFF .. .. ....|OFF .. .. ....|OFF .. .. ....|... .. .. ....|... .. .. ....|... .. .. ....|... .. .. ....|C-3 .. .. ....|... .. .. ....|C-3 .. .. ....|... .. .. ....|... .. .. ....|... .. .. ....
0F |... .. .. ....|... .. .. ....|F#3 .. .. ....|... .. .. ....|... .. .. ....|... .. .. ....|... .. .. ....|... .. .. ....|... .. .. ....|... .. .. ....|... .. .. ....|... .. .. ....|C-3 .. .. ....|... .. .. ....|... .. .. ....|... .. .. ....
10 |D-4 .. .. ....|A-4 .. .. ....|D-2 .. .. ....|D-5 .. .. ....|D-5 .. .. ....|A-4 .. .. ....|... .. .. ....|... .. .. ....|... .. .. ....|C-3 .. .. ....|... .. .. ....|... .. .. ....|C-3 .. .. ....|... .. .. ....|... .. .. ....|... .. .. ....
11 |... .. .. ....|... .. .. ....|... .. .. ....|... .. .. ....|... .. .. ....|... .. .. ....|... .. .. ....|... .. .. ....|... .. .. ....|... .. .. ....|... .. .. ....|... .. .. ....|C-3 .. .. ....|... .. .. ....|... .. .. ....|... .. .. ....
12 |... .. .. ....|... .. .. ....|D-3 .. .. ....|... .. .. ....|... .. .. ....|... .. .. ....|... .. .. ....|... .. .. ....|... .. .. ....|... .. .. ....|C-3 .. .. ....|... .. .. ....|C-3 .. .. ....|... .. .. ....|... .. .. ....|... .. .. ....
13 |... .. .. ....|... .. .. ....|D-3 .. .. ....|... .. .. ....|... .. .. ....|... .. .. ....|... .. .. ....|... .. .. ....|... .. .. ....|... .. .. ....|... .. .. ....|... .. .. ....|C-3 .. .. ....|... .. .. ....|... .. .. ....|... .. .. ....
14 |... .. .. ....|... .. .. ....|D-2 .. .. ....|... .. .. ....|... .. .. ....|... .. .. ....|... .. .. ....|... .. .. ....|... .. .. ....|C-3 .. .. ....|... .. .. ....|... .. .. ....|C-3 .. .. ....|... .. .. ....|... .. .. ....|... .. .. ....
15 |... .. .. ....|... .. .. ....|... .. .. ....|... .. .. ....|... .. .. ....|... .. .. ....|... .. .. ....|... .. .. ....|... .. .. ....|... .. .. ....|... .. .. ....|... .. .. ....|C-3 .. .. ....|... .. .. ....|... .. .. ....|... .. .. ....
16 |... .. .. ....|... .. .. ....|D-3 .. .. ....|A-4 .. .. ....|A-4 .. .. ....|D-4 .. .. ....|... .. .. ....|... .. .. ....|... .. .. ....|... .. .. ....|C-3 .. .. ....|... .. .. ....|C-3 .. .. ....|... .. .. ....|... .. .. ....|... .. .. ....
17 |... .. .. ....|... .. .. ....|D-3 .. .. ....|... .. .. ....|... .. .. ....|... .. .. ....|... .. .. ....|... .. .. ....|... .. .. ....|... .. .. ....|... .. .. ....|... .. .. ....|C-3 .. .. ....|... .. .. ....|... .. .. ....|... .. .. ....
18 |... .. .. ....|... .. .. ....|D-2 .. .. ....|A-4 .. .. ....|A-4 .. .. ....|D-4 .. .. ....|... .. .. ....|... .. .. ....|... .. .. ....|C-3 .. .. ....|... .. .. ....|... .. .. ....|C-3 .. .. ....|... .. .. ....|... .. .. ....|... .. .. ....
19 |... .. .. ....|... .. .. ....|... .. .. ....|... .. .. ....|... .. .. ....|... .. .. ....|... .. .. ....|... .. .. ....|... .. .. ....|... .. .. ....|... .. .. ....|... .. .. ....|C-3 .. .. ....|... .. .. ....|... .. .. ....|... .. .. ....
1A |... .. .. ....|... .. .. ....|D-3 .. .. ....|... .. .. ....|... .. .. ....|... .. .. ....|... .. .. ....|... .. .. ....|... .. .. ....|... .. .. ....|C-3 .. .. ....|... .. .. ....|C-3 .. .. ....|... .. .. ....|... .. .. ....|... .. .. ....
1B |... .. .. ....|... .. .. ....|D-3 .. .. ....|... .. .. ....|... .. .. ....|... .. .. ....|... .. .. ....|... .. .. ....|... .. .. ....|... .. .. ....|C-3 .. .. ....|... .. .. ....|C-3 .. .. ....|... .. .. ....|... .. .. ....|... .. .. ....
1C |... .. .. ....|... .. .. ....|E-2 .. .. ....|A-4 .. .. ....|A-4 .. .. ....|D-4 .. .. ....|... .. .. ....|... .. .. ....|... .. .. ....|C-3 .. .. ....|... .. .. ....|... .. .. ....|C-3 .. .. ....|... .. .. ....|... .. .. ....|... .. .. ....
1D |... .. .. ....|... .. .. ....|... .. .. ....|... .. .. ....|... .. .. ....|... .. .. ....|... .. .. ....|... .. .. ....|... .. .. ....|... .. .. ....|... .. .. ....|... .. .. ....|C-3 .. .. ....|... .. .. ....|... .. .. ....|... .. .. ....
1E |... .. .. ....|... .. .. ....|E-3 .. .. ....|B-4 .. .. ....|B-4 .. .. ....|E-4 .. .. ....|... .. .. ....|... .. .. ....|... .. .. ....|... .. .. ....|C-3 .. .. ....|... .. .. ....|C-3 .. .. ....|... .. .. ....|... .. .. ....|... .. .. ....
1F |... .. .. ....|... .. .. ....|E-3 .. .. ....|... .. .. ....|... .. .. ....|... .. .. ....|... .. .. ....|... .. .. ....|... .. .. ....|... .. .. ....|C-3 .. .. ....|... .. .. ....|C-3 .. .. ....|... .. .. ....|... .. .. ....|... .. .. ....
----- ORDER 0C
00 |A-3 .. .. ....|F-4 .. .. ....|F-2 .. .. ....|C-5 .. .. ....|C-5 .. .. ....|A-4 .. .. ....|... .. .. ....|... .. .. ....|... .. .. ....|C-3 .. .. ....|... .. .. ....|... .. .. ....|C-3 .. .. ....|... .. .. ....|... .. .. ....|... .. .. ....
01 |... .. .. ....|... .. .. ....|... .. .. ....|... .. .. ....|... .. .. ....|... .. .. ....|... .. .. ....|... .. .. ....|... .. .. ....|... .. .. ....|... .. .. ....|... .. .. ....|C-3 .. .. ....|... .. .. ....|... .. .. ....|... .. .. ....
02 |... .. .. ....|... .. .. ....|F-3 .. .. ....|... .. .. ....|... .. .. ....|... .. .. ....|... .. .. ....|... .. .. ....|... .. .. ....|... .. .. ....|C-3 01 .. ....|... .. .. ....|C-3 .. .. ....|... .. .. ....|... .. .. ....|... .. .. ....
03 |... .. .. ....|... .. .. ....|F-3 .. .. ....|... .. .. ....|... .. .. ....|... .. .. ....|... .. .. ....|... .. .. ....|... .. .. ....|... .. .. ....|... .. .. ....|... .. .. ....|C-3 .. .. ....|... .. .. ....|... .. .. ....|... .. .. ....
04 |... .. .. ....|... .. .. ....|F-2 .. .. ....|... .. .. ....|... .. .. ....|... .. .. ....|... .. .. ....|... .. .. ....|... .. .. ....|C-3 .. .. ....|... .. .. ....|... .. .. ....|C-3 .. .. ....|... .. .. ....|... .. .. ....|... .. .. ....
05 |... .. .. ....|... .. .. ....|... .. .. ....|... .. .. ....|... .. .. ....|... .. .. ....|... .. .. ....|... .. .. ....|... .. .. ....|... .. .. ....|... .. .. ....|... .. .. ....|C-3 .. .. ....|... .. .. ....|... .. .. ....|... .. .. ....
06 |... .. .. ....|... .. .. ....|F-3 .. .. ....|OFF .. .. ....|OFF .. .. ....|OFF .. .. ....|... .. .. ....|... .. .. ....|... .. .. ....|... .. .. ....|C-3 .. .. ....|... .. .. ....|C-3 .. .. ....|... .. .. ....|... .. .. ....|... .. .. ....
07 |... .. .. ....|... .. .. ....|F-3 .. .. ....|... .. .. ....|... .. .. ....|... .. .. ....|... .. .. ....|... .. .. ....|... .. .. ....|... .. .. ....|... .. .. ....|... .. .. ....|C-3 .. .. ....|... .. .. ....|... .. .. ....|... .. .. ....
08 |... .. .. ....|... .. .. ....|F-2 .. .. ....|C-5 .. .. ....|C-5 .. .. ....|F-4 .. .. ....|... .. .. ....|... .. .. ....|... .. .. ....|C-3 .. .. ....|... .. .. ....|... .. .. ....|C-3 .. .. ....|... .. .. ....|... .. .. ....|... .. .. ....
09 |... .. .. ....|... .. .. ....|... .. .. ....|... .. .. ....|... .. .. ....|... .. .. ....|... .. .. ....|... .. .. ....|... .. .. ....|... .. .. ....|... .. .. ....|... .. .. ....|C-3 .. .. ....|... .. .. ....|... .. .. ....|... .. .. ....
0A |... .. .. ....|... .. .. ....|F-3 .. .. ....|... .. .. ....|... .. .. ....|... .. .. ....|... .. .. ....|... .. .. ....|... .. .. ....|... .. .. ....|C-3 .. .. ....|... .. .. ....|C-3 .. .. ....|... .. .. ....|... .. .. ....|... .. .. ....
0B |... .. .. ....|... .. .. ....|F-3 .. .. ....|D-5 .. .. ....|D-5 .. .. ....|G-4 .. .. ....|... .. .. ....|... .. .. ....|... .. .. ....|... .. .. ....|... .. .. ....|... .. .. ....|C-3 .. .. ....|... .. .. ....|... .. .. ....|... .. .. ....
0C |... .. .. ....|... .. .. ....|F-2 .. .. ....|... .. .. ....|... .. .. ....|... .. .. ....|... .. .. ....|... .. .. ....|... .. .. ....|C-3 .. .. ....|... .. .. ....|... .. .. ....|C-3 .. .. ....|... .. .. ....|... .. .. ....|... .. .. ....
0D |... .. .. ....|... .. .. ....|... .. .. ....|... .. .. ....|... .. .. ....|... .. .. ....|... .. .. ....|... .. .. ....|... .. .. ....|... .. .. ....|... .. .. ....|... .. .. ....|C-3 .. .. ....|... .. .. ....|... .. .. ....|... .. .. ....
0E |... .. .. ....|... .. .. ....|F-3 .. .. ....|C-5 .. .. ....|C-5 .. .. ....|F-4 .. .. ....|... .. .. ....|... .. .. ....|... .. .. ....|... .. .. ....|C-3 .. .. ....|... .. .. ....|C-3 .. .. ....|... .. .. ....|... .. .. ....|... .. .. ....
0F |... .. .. ....|... .. .. ....|F-3 .. .. ....|... .. .. ....|... .. .. ....|... .. .. ....|... .. .. ....|... .. .. ....|... .. .. ....|... .. .. ....|... .. .. ....|... .. .. ....|C-3 .. .. ....|... .. .. ....|... .. .. ....|... .. .. ....
10 |E-4 .. .. ....|C-5 .. .. ....|C-2 .. .. ....|G-4 .. .. ....|G-4 .. .. ....|E-4 .. .. ....|... .. .. ....|... .. .. ....|... .. .. ....|C-3 .. .. ....|... .. .. ....|... .. .. ....|C-3 .. .. ....|... .. .. ....|... .. .. ....|... .. .. ....
11 |... .. .. ....|... .. .. ....|... .. .. ....|... .. .. ....|... .. .. ....|... .. .. ....|... .. .. ....|... .. .. ....|... .. .. ....|... .. .. ....|... .. .. ....|... .. .. ....|C-3 .. .. ....|... .. .. ....|... .. .. ....|... .. .. ....
12 |... .. .. ....|... .. .. ....|C-3 .. .. ....|... .. .. ....|... .. .. ....|... .. .. ....|... .. .. ....|... .. .. ....|... .. .. ....|... .. .. ....|C-3 .. .. ....|... .. .. ....|C-3 .. .. ....|... .. .. ....|... .. .. ....|... .. .. ....
13 |... .. .. ....|... .. .. ....|C-3 .. .. ....|... .. .. ....|... .. .. ....|... .. .. ....|... .. .. ....|... .. .. ....|... .. .. ....|... .. .. ....|... .. .. ....|... .. .. ....|C-3 .. .. ....|... .. .. ....|... .. .. ....|... .. .. ....
14 |... .. .. ....|... .. .. ....|C-2 .. .. ....|... .. .. ....|... .. .. ....|... .. .. ....|... .. .. ....|... .. .. ....|... .. .. ....|C-3 .. .. ....|... .. .. ....|... .. .. ....|C-3 .. .. ....|... .. .. ....|... .. .. ....|... .. .. ....
15 |... .. .. ....|... .. .. ....|... .. .. ....|... .. .. ....|... .. .. ....|... .. .. ....|... .. .. ....|... .. .. ....|... .. .. ....|... .. .. ....|... .. .. ....|... .. .. ....|C-3 .. .. ....|... .. .. ....|... .. .. ....|... .. .. ....
16 |... .. .. ....|... .. .. ....|C-3 .. .. ....|B-4 .. .. ....|B-4 .. .. ....|G-4 .. .. ....|... .. .. ....|... .. .. ....|... .. .. ....|... .. .. ....|C-3 .. .. ....|... .. .. ....|C-3 .. .. ....|... .. .. ....|... .. .. ....|... .. .. ....
17 |... .. .. ....|... .. .. ....|C-3 .. .. ....|... .. .. ....|... .. .. ....|... .. .. ....|... .. .. ....|... .. .. ....|... .. .. ....|... .. .. ....|... .. .. ....|... .. .. ....|C-3 .. .. ....|... .. .. ....|... .. .. ....|... .. .. ....
18 |... .. .. ....|... .. .. ....|C-2 .. .. ....|... .. .. ....|... .. .. ....|... .. .. ....|... .. .. ....|... .. .. ....|... .. .. ....|C-3 .. .. ....|... .. .. ....|... .. .. ....|C-3 .. .. ....|... .. .. ....|... .. .. ....|... .. .. ....
19 |... .. .. ....|... .. .. ....|... .. .. ....|... .. .. ....|... .. .. ....|... .. .. ....|... .. .. ....|... .. .. ....|... .. .. ....|... .. .. ....|... .. .. ....|... .. .. ....|C-3 .. .. ....|... .. .. ....|... .. .. ....|... .. .. ....
1A |... .. .. ....|... .. .. ....|C-3 .. .. ....|... .. .. ....|... .. .. ....|... .. .. ....|... .. .. ....|... .. .. ....|... .. .. ....|... .. .. ....|C-3 .. .. ....|... .. .. ....|C-3 .. .. ....|... .. .. ....|... .. .. ....|... .. .. ....
1B |... .. .. ....|... .. .. ....|C-3 .. .. ....|... .. .. ....|... .. .. ....|... .. .. ....|... .. .. ....|... .. .. ....|... .. .. ....|... .. .. ....|C-3 .. .. ....|... .. .. ....|C-3 .. .. ....|... .. .. ....|... .. .. ....|... .. .. ....
1C |... .. .. ....|... .. .. ....|C-2 .. .. ....|C-5 .. .. ....|C-5 .. .. ....|G-4 .. .. ....|... .. .. ....|... .. .. ....|... .. .. ....|C-3 .. .. ....|... .. .. ....|... .. .. ....|C-3 .. .. ....|... .. .. ....|... .. .. ....|... .. .. ....
1D |... .. .. ....|... .. .. ....|... .. .. ....|... .. .. ....|... .. .. ....|... .. .. ....|... .. .. ....|... .. .. ....|... .. .. ....|... .. .. ....|... .. .. ....|... .. .. ....|C-3 .. .. ....|... .. .. ....|... .. .. ....|... .. .. ....
1E |... .. .. ....|... .. .. ....|C-3 .. .. ....|OFF .. .. ....|OFF .. .. ....|OFF .. .. ....|... .. .. ....|... .. .. ....|... .. .. ....|... .. .. ....|C-3 .. .. ....|... .. .. ....|C-3 .. .. ....|... .. .. ....|... .. .. ....|... .. .. ....
1F |... .. .. ....|... .. .. ....|C-3 .. .. ....|... .. .. ....|... .. .. ....|... .. .. ....|... .. .. ....|... .. .. ....|... .. .. ....|... .. .. ....|... .. .. ....|... .. .. ....|C-3 .. .. ....|... .. .. ....|... .. .. ....|... .. .. ....
----- ORDER 0D
00 |F-4 .. .. ....|D-5 .. .. ....|D-2 .. .. ....|A-4 .. .. ....|A-4 .. .. ....|F-4 .. .. ....|... .. .. ....|... .. .. ....|... .. .. ....|C-3 .. .. ....|... .. .. ....|... .. .. ....|C-3 .. .. ....|... .. .. ....|... .. .. ....|... .. .. ....
01 |... .. .. ....|... .. .. ....|... .. .. ....|... .. .. ....|... .. .. ....|... .. .. ....|... .. .. ....|... .. .. ....|... .. .. ....|... .. .. ....|... .. .. ....|... .. .. ....|C-3 .. .. ....|... .. .. ....|... .. .. ....|... .. .. ....
02 |... .. .. ....|... .. .. ....|D-3 .. .. ....|... .. .. ....|... .. .. ....|... .. .. ....|... .. .. ....|... .. .. ....|... .. .. ....|... .. .. ....|C-3 .. .. ....|... .. .. ....|C-3 .. .. ....|... .. .. ....|... .. .. ....|... .. .. ....
03 |... .. .. ....|... .. .. ....|D-3 .. .. ....|... .. .. ....|... .. .. ....|... .. .. ....|... .. .. ....|... .. .. ....|... .. .. ....|... .. .. ....|... .. .. ....|... .. .. ....|C-3 .. .. ....|... .. .. ....|... .. .. ....|... .. .. ....
04 |... .. .. ....|... .. .. ....|D-2 .. .. ....|... .. .. ....|... .. .. ....|... .. .. ....|... .. .. ....|... .. .. ....|... .. .. ....|C-3 .. .. ....|... .. .. ....|... .. .. ....|C-3 .. .. ....|... .. .. ....|... .. .. ....|... .. .. ....
05 |... .. .. ....|... .. .. ....|... .. .. ....|... .. .. ....|... .. .. ....|... .. .. ....|... .. .. ....|... .. .. ....|... .. .. ....|... .. .. ....|... .. .. ....|... .. .. ....|C-3 .. .. ....|... .. .. ....|... .. .. ....|... .. .. ....
06 |... .. .. ....|... .. .. ....|D-3 .. .. ....|OFF .. .. ....|OFF .. .. ....|OFF .. .. ....|... .. .. ....|... .. .. ....|... .. .. ....|... .. .. ....|C-3 .. .. ....|... .. .. ....|C-3 .. .. ....|... .. .. ....|... .. .. ....|... .. .. ....
07 |... .. .. ....|... .. .. ....|D-3 .. .. ....|... .. .. ....|... .. .. ....|... .. .. ....|... .. .. ....|... .. .. ....|... .. .. ....|... .. .. ....|... .. .. ....|... .. .. ....|C-3 .. .. ....|... .. .. ....|... .. .. ....|... .. .. ....
08 |... .. .. ....|... .. .. ....|D-2 .. .. ....|A-4 .. .. ....|A-4 .. .. ....|F-4 .. .. ....|... .. .. ....|... .. .. ....|... .. .. ....|C-3 .. .. ....|... .. .. ....|... .. .. ....|C-3 .. .. ....|... .. .. ....|... .. .. ....|... .. .. ....
09 |... .. .. ....|... .. .. ....|... .. .. ....|... .. .. ....|... .. .. ....|... .. .. ....|... .. .. ....|... .. .. ....|... .. .. ....|... .. .. ....|... .. .. ....|... .. .. ....|C-3 .. .. ....|... .. .. ....|... .. .. ....|... .. .. ....
0A |... .. .. ....|... .. .. ....|D-3 .. .. ....|... .. .. ....|... .. .. ....|... .. .. ....|... .. .. ....|... .. .. ....|... .. .. ....|... .. .. ....|C-3 .. .. ....|... .. .. ....|C-3 .. .. ....|... .. .. ....|... .. .. ....|... .. .. ....
0B |... .. .. ....|... .. .. ....|D-3 .. .. ....|B-4 .. .. ....|B-4 .. .. ....|F-4 .. .. ....|... .. .. ....|... .. .. ....|... .. .. ....|... .. .. ....|... .. .. ....|... .. .. ....|C-3 .. .. ....|... .. .. ....|... .. .. ....|... .. .. ....
0C |... .. .. ....|... .. .. ....|D-2 .. .. ....|... .. .. ....|... .. .. ....|... .. .. ....|... .. .. ....|... .. .. ....|... .. .. ....|C-3 .. .. ....|... .. .. ....|... .. .. ....|C-3 .. .. ....|... .. .. ....|... .. .. ....|... .. .. ....
0D |... .. .. ....|... .. .. ....|... .. .. ....|... .. .. ....|... .. .. ....|... .. .. ....|... .. .. ....|... .. .. ....|... .. .. ....|... .. .. ....|... .. .. ....|... .. .. ....|C-3 .. .. ....|... .. .. ....|... .. .. ....|... .. .. ....
0E |... .. .. ....|... .. .. ....|D-3 .. .. ....|C-5 .. .. ....|C-5 .. .. ....|F-4 .. .. ....|... .. .. ....|... .. .. ....|... .. .. ....|... .. .. ....|C-3 .. .. ....|... .. .. ....|C-3 .. .. ....|... .. .. ....|... .. .. ....|... .. .. ....
0F |... .. .. ....|... .. .. ....|D-3 .. .. ....|... .. .. ....|... .. .. ....|... .. .. ....|... .. .. ....|... .. .. ....|... .. .. ....|... .. .. ....|... .. .. ....|... .. .. ....|C-3 .. .. ....|... .. .. ....|... .. .. ....|... .. .. ....
10 |E-4 .. .. ....|B-4 .. .. ....|E-2 .. .. ....|G#4 .. .. ....|G#4 .. .. ....|E-4 .. .. ....|... .. .. ....|... .. .. ....|... .. .. ....|C-3 .. .. ....|... .. .. ....|... .. .. ....|C-3 .. .. ....|... .. .. ....|... .. .. ....|... .. .. ....
11 |... .. .. ....|... .. .. ....|... .. .. ....|... .. .. ....|... .. .. ....|... .. .. ....|... .. .. ....|... .. .. ....|... .. .. ....|... .. .. ....|... .. .. ....|... .. .. ....|C-3 .. .. ....|... .. .. ....|... .. .. ....|... .. .. ....
12 |... .. .. ....|... .. .. ....|E-3 .. .. ....|... .. .. ....|... .. .. ....|... .. .. ....|... .. .. ....|... .. .. ....|... .. .. ....|... .. .. ....|C-3 .. .. ....|... .. .. ....|C-3 .. .. ....|... .. .. ....|... .. .. ....|... .. .. ....
13 |... .. .. ....|... .. .. ....|E-3 .. .. ....|... .. .. ....|... .. .. ....|... .. .. ....|... .. .. ....|... .. .. ....|... .. .. ....|... .. .. ....|... .. .. ....|... .. .. ....|C-3 .. .. ....|... .. .. ....|... .. .. ....|... .. .. ....
14 |... .. .. ....|... .. .. ....|E-2 .. .. ....|G#4 .. .. ....|G#4 .. .. ....|... .. .. ....|... .. .. ....|... .. .. ....|... .. .. ....|C-3 .. .. ....|... .. .. ....|... .. .. ....|C-3 .. .. ....|... .. .. ....|... .. .. ....|... .. .. ....
15 |... .. .. ....|... .. .. ....|... .. .. ....|... .. .. ....|... .. .. ....|... .. .. ....|... .. .. ....|... .. .. ....|... .. .. ....|... .. .. ....|... .. .. ....|... .. .. ....|C-3 .. .. ....|... .. .. ....|... .. .. ....|... .. .. ....
16 |... .. .. ....|... .. .. ....|E-3 .. .. ....|E-5 .. .. ....|E-5 .. .. ....|B-4 .. .. ....|... .. .. ....|... .. .. ....|... .. .. ....|... .. .. ....|C-3 .. .. ....|... .. .. ....|C-3 .. .. ....|... .. .. ....|... .. .. ....|... .. .. ....
17 |... .. .. ....|... .. .. ....|E-3 .. .. ....|... .. .. ....|... .. .. ....|... .. .. ....|... .. .. ....|... .. .. ....|... .. .. ....|... .. .. ....|... .. .. ....|... .. .. ....|C-3 .. .. ....|... .. .. ....|... .. .. ....|... .. .. ....
18 |... .. .. ....|... .. .. ....|E-2 .. .. ....|... .. .. ....|... .. .. ....|... .. .. ....|... .. .. ....|... .. .. ....|... .. .. ....|C-3 .. .. ....|... .. .. ....|... .. .. ....|C-3 .. .. ....|... .. .. ....|... .. .. ....|... .. .. ....
19 |... .. .. ....|... .. .. ....|... .. .. ....|... .. .. ....|... .. .. ....|... .. .. ....|... .. .. ....|... .. .. ....|... .. .. ....|... .. .. ....|... .. .. ....|... .. .. ....|C-3 .. .. ....|... .. .. ....|... .. .. ....|... .. .. ....
1A |... .. .. ....|... .. .. ....|E-3 .. .. ....|... .. .. ....|... .. .. ....|... .. .. ....|... .. .. ....|... .. .. ....|... .. .. ....|... .. .. ....|C-3 .. .. ....|... .. .. ....|C-3 .. .. ....|... .. .. ....|... .. .. ....|... .. .. ....
1B |... .. .. ....|... .. .. ....|E-3 .. .. ....|... .. .. ....|... .. .. ....|... .. .. ....|... .. .. ....|... .. .. ....|... .. .. ....|... .. .. ....|C-3 .. .. ....|... .. .. ....|C-3 .. .. ....|... .. .. ....|... .. .. ....|... .. .. ....
1C |... .. .. ....|... .. .. ....|G-2 .. .. ....|... .. .. ....|... .. .. ....|... .. .. ....|... .. .. ....|... .. .. ....|... .. .. ....|C-3 .. .. ....|... .. .. ....|... .. .. ....|C-3 .. .. ....|... .. .. ....|... .. .. ....|... .. .. ....
1D |... .. .. ....|... .. .. ....|... .. .. ....|... .. .. ....|... .. .. ....|... .. .. ....|... .. .. ....|... .. .. ....|... .. .. ....|... .. .. ....|... .. .. ....|... .. .. ....|C-3 .. .. ....|... .. .. ....|... .. .. ....|... .. .. ....
1E |... .. .. ....|... .. .. ....|G-3 .. .. ....|OFF .. .. ....|OFF .. .. ....|OFF .. .. ....|... .. .. ....|... .. .. ....|... .. .. ....|... .. .. ....|C-3 .. .. ....|... .. .. ....|C-3 .. .. ....|... .. .. ....|... .. .. ....|... .. .. ....
1F |... .. .. ....|... .. .. ....|G-3 .. .. ....|... .. .. ....|... .. .. ....|... .. .. ....|... .. .. ....|... .. .. ....|... .. .. ....|... .. .. ....|C-3 .. .. ....|... .. .. ....|C-3 .. .. ....|... .. .. ....|... .. .. ....|... .. .. ....
----- ORDER 0E
00 |C-4 .. .. ....|A-4 .. .. ....|A-2 .. .. ....|E-4 05 75 ....|E-4 03 75 ....|C-4 03 75 ....|... .. .. ....|... .. .. ....|... .. .. ....|C-3 .. .. ....|... .. .. ....|... .. .. ....|C-3 .. .. ....|... .. .. ....|... .. .. ....|... .. .. ....
01 |... .. .. ....|... .. .. ....|... .. .. ....|... .. .. ....|... .. .. ....|... .. .. ....|... .. .. ....|... .. .. ....|... .. .. ....|... .. .. ....|... .. .. ....|... .. .. ....|C-3 .. .. ....|... .. .. ....|... .. .. ....|... .. .. ....
02 |... .. .. ....|... .. .. ....|A-3 .. .. ....|... .. .. ....|... .. .. ....|... .. .. ....|... .. .. ....|... .. .. ....|... .. .. ....|... .. .. ....|C-3 01 .. ....|... .. .. ....|C-3 .. .. ....|... .. .. ....|... .. .. ....|... .. .. ....
03 |... .. .. ....|... .. .. ....|A-3 .. .. ....|... .. .. ....|... .. .. ....|... .. .. ....|... .. .. ....|... .. .. ....|... .. .. ....|... .. .. ....|... .. .. ....|... .. .. ....|C-3 .. .. ....|... .. .. ....|... .. .. ....|... .. .. ....
04 |... .. .. ....|... .. .. ....|A-2 .. .. ....|... .. .. ....|... .. .. ....|... .. .. ....|... .. .. ....|... .. .. ....|... .. .. ....|C-3 .. .. ....|... .. .. ....|... .. .. ....|C-3 .. .. ....|... .. .. ....|... .. .. ....|... .. .. ....
05 |... .. .. ....|... .. .. ....|... .. .. ....|... .. .. ....|... .. .. ....|... .. .. ....|... .. .. ....|... .. .. ....|... .. .. ....|... .. .. ....|... .. .. ....|... .. .. ....|C-3 .. .. ....|... .. .. ....|... .. .. ....|... .. .. ....
06 |... .. .. ....|... .. .. ....|A-3 .. .. ....|... .. .. ....|... .. .. ....|... .. .. ....|... .. .. ....|... .. .. ....|... .. .. ....|... .. .. ....|C-3 .. .. ....|... .. .. ....|C-3 .. .. ....|... .. .. ....|... .. .. ....|... .. .. ....
07 |... .. .. ....|... .. .. ....|A-3 .. .. ....|... .. .. ....|... .. .. ....|... .. .. ....|... .. .. ....|... .. .. ....|... .. .. ....|... .. .. ....|... .. .. ....|... .. .. ....|C-3 .. .. ....|... .. .. ....|... .. .. ....|... .. .. ....
08 |... .. .. ....|... .. .. ....|A-2 .. .. ....|A-4 .. .. ....|A-4 .. .. ....|E-4 .. .. ....|... .. .. ....|... .. .. ....|... .. .. ....|C-3 .. .. ....|... .. .. ....|... .. .. ....|C-3 .. .. ....|... .. .. ....|... .. .. ....|... .. .. ....
09 |... .. .. ....|... .. .. ....|... .. .. ....|... .. .. ....|... .. .. ....|... .. .. ....|... .. .. ....|... .. .. ....|... .. .. ....|... .. .. ....|... .. .. ....|... .. .. ....|C-3 .. .. ....|... .. .. ....|... .. .. ....|... .. .. ....
0A |... .. .. ....|... .. .. ....|A-3 .. .. ....|... .. .. ....|... .. .. ....|... .. .. ....|... .. .. ....|... .. .. ....|... .. .. ....|... .. .. ....|C-3 .. .. ....|... .. .. ....|C-3 .. .. ....|... .. .. ....|... .. .. ....|... .. .. ....
0B |... .. .. ....|... .. .. ....|A-3 .. .. ....|... .. .. ....|... .. .. ....|... .. .. ....|... .. .. ....|... .. .. ....|... .. .. ....|... .. .. ....|... .. .. ....|... .. .. ....|C-3 .. .. ....|... .. .. ....|... .. .. ....|... .. .. ....
0C |... .. .. ....|... .. .. ....|A-2 .. .. ....|E-4 .. .. ....|E-4 .. .. ....|C-4 .. .. ....|... .. .. ....|... .. .. ....|... .. .. ....|C-3 .. .. ....|... .. .. ....|... .. .. ....|C-3 .. .. ....|... .. .. ....|... .. .. ....|... .. .. ....
0D |... .. .. ....|... .. .. ....|... .. .. ....|... .. .. ....|... .. .. ....|... .. .. ....|... .. .. ....|... .. .. ....|... .. .. ....|... .. .. ....|... .. .. ....|... .. .. ....|C-3 .. .. ....|... .. .. ....|... .. .. ....|... .. .. ....
0E |... .. .. ....|... .. .. ....|A-3 .. .. ....|A-4 .. .. ....|A-4 .. .. ....|E-4 .. .. ....|... .. .. ....|... .. .. ....|... .. .. ....|... .. .. ....|C-3 .. .. ....|... .. .. ....|C-3 .. .. ....|... .. .. ....|... .. .. ....|... .. .. ....
0F |... .. .. ....|... .. .. ....|A-3 .. .. ....|... .. .. ....|... .. .. ....|... .. .. ....|... .. .. ....|... .. .. ....|... .. .. ....|... .. .. ....|... .. .. ....|... .. .. ....|C-3 .. .. ....|... .. .. ....|... .. .. ....|... .. .. ....
10 |B-3 .. .. ....|G-4 .. .. ....|G-2 .. .. ....|B-4 .. .. ....|B-4 .. .. ....|G-4 .. .. ....|... .. .. ....|... .. .. ....|... .. .. ....|C-3 .. .. ....|... .. .. ....|... .. .. ....|C-3 .. .. ....|... .. .. ....|... .. .. ....|... .. .. ....
11 |... .. .. ....|... .. .. ....|... .. .. ....|... .. .. ....|... .. .. ....|... .. .. ....|... .. .. ....|... .. .. ....|... .. .. ....|... .. .. ....|... .. .. ....|... .. .. ....|C-3 .. .. ....|... .. .. ....|... .. .. ....|... .. .. ....
12 |... .. .. ....|... .. .. ....|G-3 .. .. ....|... .. .. ....|... .. .. ....|... .. .. ....|... .. .. ....|... .. .. ....|... .. .. ....|... .. .. ....|C-3 .. .. ....|... .. .. ....|C-3 .. .. ....|... .. .. ....|... .. .. ....|... .. .. ....
13 |... .. .. ....|... .. .. ....|G-3 .. .. ....|... .. .. ....|... .. .. ....|... .. .. ....|... .. .. ....|... .. .. ....|... .. .. ....|... .. .. ....|... .. .. ....|... .. .. ....|C-3 .. .. ....|... .. .. ....|... .. .. ....|... .. .. ....
14 |... .. .. ....|... .. .. ....|G-2 .. .. ....|... .. .. ....|... .. .. ....|... .. .. ....|... .. .. ....|... .. .. ....|... .. .. ....|C-3 .. .. ....|... .. .. ....|... .. .. ....|C-3 .. .. ....|... .. .. ....|... .. .. ....|... .. .. ....
15 |... .. .. ....|... .. .. ....|... .. .. ....|... .. .. ....|... .. .. ....|... .. .. ....|... .. .. ....|... .. .. ....|... .. .. ....|... .. .. ....|... .. .. ....|... .. .. ....|C-3 .. .. ....|... .. .. ....|... .. .. ....|... .. .. ....
16 |... .. .. ....|... .. .. ....|G-3 .. .. ....|OFF .. .. ....|OFF .. .. ....|OFF .. .. ....|... .. .. ....|... .. .. ....|... .. .. ....|... .. .. ....|C-3 .. .. ....|... .. .. ....|C-3 .. .. ....|... .. .. ....|... .. .. ....|... .. .. ....
17 |... .. .. ....|... .. .. ....|G-3 .. .. ....|... .. .. ....|... .. .. ....|... .. .. ....|... .. .. ....|... .. .. ....|... .. .. ....|... .. .. ....|... .. .. ....|... .. .. ....|C-3 .. .. ....|... .. .. ....|... .. .. ....|... .. .. ....
18 |... .. .. ....|... .. .. ....|G-2 .. .. ....|B-4 .. .. ....|B-4 .. .. ....|G-4 .. .. ....|... .. .. ....|... .. .. ....|... .. .. ....|C-3 .. .. ....|... .. .. ....|... .. .. ....|C-3 .. .. ....|... .. .. ....|... .. .. ....|... .. .. ....
19 |... .. .. ....|... .. .. ....|... .. .. ....|... .. .. ....|... .. .. ....|... .. .. ....|... .. .. ....|... .. .. ....|... .. .. ....|... .. .. ....|... .. .. ....|... .. .. ....|C-3 .. .. ....|... .. .. ....|... .. .. ....|... .. .. ....
1A |... .. .. ....|... .. .. ....|G-3 .. .. ....|... .. .. ....|... .. .. ....|... .. .. ....|... .. .. ....|... .. .. ....|... .. .. ....|... .. .. ....|C-3 .. .. ....|... .. .. ....|C-3 .. .. ....|... .. .. ....|... .. .. ....|... .. .. ....
1B |... .. .. ....|... .. .. ....|G-3 .. .. ....|C-5 .. .. ....|C-5 .. .. ....|A-4 .. .. ....|... .. .. ....|... .. .. ....|... .. .. ....|... .. .. ....|C-3 .. .. ....|... .. .. ....|C-3 .. .. ....|... .. .. ....|... .. .. ....|... .. .. ....
1C |... .. .. ....|... .. .. ....|G-2 .. .. ....|... .. .. ....|... .. .. ....|... .. .. ....|... .. .. ....|... .. .. ....|... .. .. ....|C-3 .. .. ....|... .. .. ....|... .. .. ....|C-3 .. .. ....|... .. .. ....|... .. .. ....|... .. .. ....
1D |... .. .. ....|... .. .. ....|... .. .. ....|... .. .. ....|... .. .. ....|... .. .. ....|... .. .. ....|... .. .. ....|... .. .. ....|... .. .. ....|... .. .. ....|... .. .. ....|C-3 .. .. ....|... .. .. ....|... .. .. ....|... .. .. ....
1E |... .. .. ....|... .. .. ....|G-3 .. .. ....|D-5 .. .. ....|D-5 .. .. ....|B-4 .. .. ....|... .. .. ....|... .. .. ....|... .. .. ....|... .. .. ....|C-3 .. .. ....|... .. .. ....|C-3 .. .. ....|... .. .. ....|... .. .. ....|... .. .. ....
1F |... .. .. ....|... .. .. ....|G-3 .. .. ....|... .. .. ....|... .. .. ....|... .. .. ....|... .. .. ....|... .. .. ....|... .. .. ....|... .. .. ....|... .. .. ....|... .. .. ....|C-3 .. .. ....|... .. .. ....|... .. .. ....|... .. .. ....
----- ORDER 0F
00 |A-3 .. .. ....|F#4 .. .. ....|F#2 .. .. ....|D-5 .. .. ....|D-5 .. .. ....|B-4 .. .. ....|... .. .. ....|... .. .. ....|... .. .. ....|C-3 .. .. ....|... .. .. ....|... .. .. ....|C-3 .. .. ....|... .. .. ....|... .. .. ....|... .. .. ....
01 |... .. .. ....|... .. .. ....|... .. .. ....|... .. .. ....|... .. .. ....|... .. .. ....|... .. .. ....|... .. .. ....|... .. .. ....|... .. .. ....|... .. .. ....|... .. .. ....|C-3 .. .. ....|... .. .. ....|... .. .. ....|... .. .. ....
02 |... .. .. ....|... .. .. ....|F#3 .. .. ....|... .. .. ....|... .. .. ....|... .. .. ....|... .. .. ....|... .. .. ....|... .. .. ....|... .. .. ....|C-3 .. .. ....|... .. .. ....|C-3 .. .. ....|... .. .. ....|... .. .. ....|... .. .. ....
03 |... .. .. ....|... .. .. ....|F#3 .. .. ....|... .. .. ....|... .. .. ....|... .. .. ....|... .. .. ....|... .. .. ....|... .. .. ....|... .. .. ....|... .. .. ....|... .. .. ....|C-3 .. .. ....|... .. .. ....|... .. .. ....|... .. .. ....
04 |... .. .. ....|... .. .. ....|F#2 .. .. ....|... .. .. ....|... .. .. ....|... .. .. ....|... .. .. ....|... .. .. ....|... .. .. ....|C-3 .. .. ....|... .. .. ....|... .. .. ....|C-3 .. .. ....|... .. .. ....|... .. .. ....|... .. .. ....
05 |... .. .. ....|... .. .. ....|... .. .. ....|... .. .. ....|... .. .. ....|... .. .. ....|... .. .. ....|... .. .. ....|... .. .. ....|... .. .. ....|... .. .. ....|... .. .. ....|C-3 .. .. ....|... .. .. ....|... .. .. ....|... .. .. ....
06 |... .. .. ....|... .. .. ....|F#3 .. .. ....|E-5 .. .. ....|E-5 .. .. ....|C-5 .. .. ....|... .. .. ....|... .. .. ....|... .. .. ....|... .. .. ....|C-3 .. .. ....|... .. .. ....|C-3 .. .. ....|... .. .. ....|... .. .. ....|... .. .. ....
07 |... .. .. ....|... .. .. ....|F#3 .. .. ....|... .. .. ....|... .. .. ....|... .. .. ....|... .. .. ....|... .. .. ....|... .. .. ....|... .. .. ....|... .. .. ....|... .. .. ....|C-3 .. .. ....|... .. .. ....|... .. .. ....|... .. .. ....
08 |... .. .. ....|... .. .. ....|F#2 .. .. ....|... .. .. ....|... .. .. ....|... .. .. ....|... .. .. ....|... .. .. ....|... .. .. ....|C-3 .. .. ....|... .. .. ....|... .. .. ....|C-3 .. .. ....|... .. .. ....|... .. .. ....|... .. .. ....
09 |... .. .. ....|... .. .. ....|... .. .. ....|... .. .. ....|... .. .. ....|... .. .. ....|... .. .. ....|... .. .. ....|... .. .. ....|... .. .. ....|... .. .. ....|... .. .. ....|C-3 .. .. ....|... .. .. ....|... .. .. ....|... .. .. ....
0A |... .. .. ....|... .. .. ....|F#3 .. .. ....|... .. .. ....|... .. .. ....|... .. .. ....|... .. .. ....|... .. .. ....|... .. .. ....|... .. .. ....|C-3 .. .. ....|... .. .. ....|C-3 .. .. ....|... .. .. ....|... .. .. ....|... .. .. ....
0B |... .. .. ....|... .. .. ....|F#3 .. .. ....|... .. .. ....|... .. .. ....|... .. .. ....|... .. .. ....|... .. .. ....|... .. .. ....|... .. .. ....|... .. .. ....|... .. .. ....|C-3 .. .. ....|... .. .. ....|... .. .. ....|... .. .. ....
0C |... .. .. ....|... .. .. ....|F#2 .. .. ....|G-5 .. .. ....|G-5 .. .. ....|B-4 .. .. ....|... .. .. ....|... .. .. ....|... .. .. ....|C-3 .. .. ....|... .. .. ....|... .. .. ....|C-3 .. .. ....|... .. .. ....|... .. .. ....|... .. .. ....
0D |... .. .. ....|... .. .. ....|... .. .. ....|... .. .. ....|... .. .. ....|... .. .. ....|... .. .. ....|... .. .. ....|... .. .. ....|... .. .. ....|... .. .. ....|... .. .. ....|C-3 .. .. ....|... .. .. ....|... .. .. ....|... .. .. ....
0E |... .. .. ....|... .. .. ....|F#3 .. .. ....|OFF .. .. ....|OFF .. .. ....|OFF .. .. ....|... .. .. ....|... .. .. ....|... .. .. ....|... .. .. ....|C-3 .. .. ....|... .. .. ....|C-3 .. .. ....|... .. .. ....|... .. .. ....|... .. .. ....
0F |... .. .. ....|... .. .. ....|F#3 .. .. ....|... .. .. ....|... .. .. ....|... .. .. ....|... .. .. ....|... .. .. ....|... .. .. ....|... .. .. ....|... .. .. ....|... .. .. ....|C-3 .. .. ....|... .. .. ....|... .. .. ....|... .. .. ....
10 |D-4 .. .. ....|A-4 .. .. ....|D-2 .. .. ....|A-5 .. .. ....|A-5 .. .. ....|A-4 .. .. ....|... .. .. ....|... .. .. ....|... .. .. ....|C-3 .. .. ....|... .. .. ....|... .. .. ....|C-3 .. .. ....|... .. .. ....|... .. .. ....|... .. .. ....
11 |... .. .. ....|... .. .. ....|... .. .. ....|... .. .. ....|... .. .. ....|... .. .. ....|... .. .. ....|... .. .. ....|... .. .. ....|... .. .. ....|... .. .. ....|... .. .. ....|C-3 .. .. ....|... .. .. ....|... .. .. ....|... .. .. ....
12 |... .. .. ....|... .. .. ....|D-3 .. .. ....|... .. .. ....|... .. .. ....|... .. .. ....|... .. .. ....|... .. .. ....|... .. .. ....|... .. .. ....|C-3 .. .. ....|... .. .. ....|C-3 .. .. ....|... .. .. ....|... .. .. ....|... .. .. ....
13 |... .. .. ....|... .. .. ....|D-3 .. .. ....|... .. .. ....|... .. .. ....|... .. .. ....|... .. .. ....|... .. .. ....|... .. .. ....|... .. .. ....|... .. .. ....|... .. .. ....|C-3 .. .. ....|... .. .. ....|... .. .. ....|... .. .. ....
14 |... .. .. ....|... .. .. ....|D-2 .. .. ....|... .. .. ....|... .. .. ....|... .. .. ....|... .. .. ....|... .. .. ....|... .. .. ....|C-3 .. .. ....|... .. .. ....|... .. .. ....|C-3 .. .. ....|... .. .. ....|... .. .. ....|... .. .. ....
15 |... .. .. ....|... .. .. ....|... .. .. ....|... .. .. ....|... .. .. ....|... .. .. ....|... .. .. ....|... .. .. ....|... .. .. ....|... .. .. ....|... .. .. ....|... .. .. ....|C-3 .. .. ....|... .. .. ....|... .. .. ....|... .. .. ....
16 |... .. .. ....|... .. .. ....|D-3 .. .. ....|... .. .. ....|... .. .. ....|... .. .. ....|... .. .. ....|... .. .. ....|... .. .. ....|... .. .. ....|C-3 .. .. ....|... .. .. ....|C-3 .. .. ....|... .. .. ....|... .. .. ....|... .. .. ....
17 |... .. .. ....|... .. .. ....|D-3 .. .. ....|... .. .. ....|... .. .. ....|... .. .. ....|... .. .. ....|... .. .. ....|... .. .. ....|... .. .. ....|... .. .. ....|... .. .. ....|C-3 .. .. ....|... .. .. ....|... .. .. ....|... .. .. ....
18 |... .. .. ....|... .. .. ....|D-2 .. .. ....|OFF .. .. ....|OFF .. .. ....|OFF .. .. ....|... .. .. ....|... .. .. ....|... .. .. ....|C-3 .. .. ....|... .. .. ....|... .. .. ....|C-3 .. .. ....|... .. .. ....|... .. .. ....|... .. .. ....
19 |... .. .. ....|... .. .. ....|... .. .. ....|... .. .. ....|... .. .. ....|... .. .. ....|... .. .. ....|... .. .. ....|... .. .. ....|... .. .. ....|... .. .. ....|... .. .. ....|C-3 .. .. ....|... .. .. ....|... .. .. ....|... .. .. ....
1A |... .. .. ....|... .. .. ....|D-3 .. .. ....|A-5 .. .. ....|A-5 .. .. ....|E-5 .. .. ....|... .. .. ....|... .. .. ....|... .. .. ....|... .. .. ....|C-3 .. .. ....|... .. .. ....|C-3 .. .. ....|... .. .. ....|... .. .. ....|... .. .. ....
1B |... .. .. ....|... .. .. ....|D-3 .. .. ....|... .. .. ....|... .. .. ....|... .. .. ....|... .. .. ....|... .. .. ....|... .. .. ....|... .. .. ....|C-3 .. .. ....|... .. .. ....|C-3 .. .. ....|... .. .. ....|... .. .. ....|... .. .. ....
1C |... .. .. ....|... .. .. ....|E-2 .. .. ....|B-5 .. .. ....|B-5 .. .. ....|G-5 .. .. ....|... .. .. ....|... .. .. ....|... .. .. ....|C-3 .. .. ....|... .. .. ....|... .. .. ....|C-3 .. .. ....|... .. .. ....|... .. .. ....|... .. .. ....
1D |... .. .. ....|... .. .. ....|... .. .. ....|... .. .. ....|... .. .. ....|... .. .. ....|... .. .. ....|... .. .. ....|... .. .. ....|... .. .. ....|... .. .. ....|... .. .. ....|C-3 .. .. ....|... .. .. ....|... .. .. ....|... .. .. ....
1E |... .. .. ....|... .. .. ....|E-3 .. .. ....|C-6 .. .. ....|C-6 .. .. ....|A-5 .. .. ....|... .. .. ....|... .. .. ....|... .. .. ....|... .. .. ....|C-3 .. .. ....|... .. .. ....|C-3 .. .. ....|... .. .. ....|... .. .. ....|... .. .. ....
1F |... .. .. ....|... .. .. ....|E-3 .. .. ....|... .. .. ....|... .. .. ....|... .. .. ....|... .. .. ....|... .. .. ....|... .. .. ....|... .. .. ....|C-3 .. .. ....|... .. .. ....|C-3 .. .. ....|... .. .. ....|... .. .. ....|... .. .. ....
----- ORDER 10
00 |F-4 .. .. ....|C-5 .. .. ....|F-2 .. .. ....|... .. .. ....|... .. .. ....|... .. .. ....|... .. .. ....|... .. .. ....|... .. .. ....|C-3 .. .. ....|... .. .. ....|... .. .. ....|C-3 .. .. ....|... .. .. ....|... .. .. ....|... .. .. ....
01 |... .. .. ....|... .. .. ....|... .. .. ....|... .. .. ....|... .. .. ....|... .. .. ....|... .. .. ....|... .. .. ....|... .. .. ....|... .. .. ....|... .. .. ....|... .. .. ....|C-3 .. .. ....|... .. .. ....|... .. .. ....|... .. .. ....
02 |... .. .. ....|... .. .. ....|F-3 .. .. ....|... .. .. ....|... .. .. ....|... .. .. ....|... .. .. ....|... .. .. ....|... .. .. ....|... .. .. ....|C-3 01 .. ....|... .. .. ....|C-3 .. .. ....|... .. .. ....|... .. .. ....|... .. .. ....
03 |... .. .. ....|... .. .. ....|F-3 .. .. ....|... .. .. ....|... .. .. ....|... .. .. ....|... .. .. ....|... .. .. ....|... .. .. ....|... .. .. ....|... .. .. ....|... .. .. ....|C-3 .. .. ....|... .. .. ....|... .. .. ....|... .. .. ....
04 |... .. .. ....|... .. .. ....|F-2 .. .. ....|... .. .. ....|... .. .. ....|... .. .. ....|... .. .. ....|... .. .. ....|... .. .. ....|C-3 .. .. ....|... .. .. ....|... .. .. ....|C-3 .. .. ....|... .. .. ....|... .. .. ....|... .. .. ....
05 |... .. .. ....|... .. .. ....|... .. .. ....|... .. .. ....|... .. .. ....|... .. .. ....|... .. .. ....|... .. .. ....|... .. .. ....|... .. .. ....|... .. .. ....|... .. .. ....|C-3 .. .. ....|... .. .. ....|... .. .. ....|... .. .. ....
06 |... .. .. ....|... .. .. ....|F-3 .. .. ....|E-5 .. .. ....|E-5 .. .. ....|C-5 .. .. ....|... .. .. ....|... .. .. ....|... .. .. ....|... .. .. ....|C-3 .. .. ....|... .. .. ....|C-3 .. .. ....|... .. .. ....|... .. .. ....|... .. .. ....
07 |... .. .. ....|... .. .. ....|F-3 .. .. ....|... .. .. ....|... .. .. ....|... .. .. ....|... .. .. ....|... .. .. ....|... .. .. ....|... .. .. ....|... .. .. ....|... .. .. ....|C-3 .. .. ....|... .. .. ....|... .. .. ....|... .. .. ....
08 |... .. .. ....|... .. .. ....|F-2 .. .. ....|... .. .. ....|... .. .. ....|... .. .. ....|... .. .. ....|... .. .. ....|... .. .. ....|C-3 .. .. ....|... .. .. ....|... .. .. ....|C-3 .. .. ....|... .. .. ....|... .. .. ....|... .. .. ....
09 |... .. .. ....|... .. .. ....|... .. .. ....|... .. .. ....|... .. .. ....|... .. .. ....|... .. .. ....|... .. .. ....|... .. .. ....|... .. .. ....|... .. .. ....|... .. .. ....|C-3 .. .. ....|... .. .. ....|... .. .. ....|... .. .. ....
0A |... .. .. ....|... .. .. ....|F-3 .. .. ....|... .. .. ....|... .. .. ....|... .. .. ....|... .. .. ....|... .. .. ....|... .. .. ....|... .. .. ....|C-3 .. .. ....|... .. .. ....|C-3 .. .. ....|... .. .. ....|... .. .. ....|... .. .. ....
0B |... .. .. ....|... .. .. ....|F-3 .. .. ....|... .. .. ....|... .. .. ....|... .. .. ....|... .. .. ....|... .. .. ....|... .. .. ....|... .. .. ....|... .. .. ....|... .. .. ....|C-3 .. .. ....|... .. .. ....|... .. .. ....|... .. .. ....
0C |... .. .. ....|... .. .. ....|F-2 .. .. ....|C-6 .. .. ....|C-6 .. .. ....|E-5 .. .. ....|... .. .. ....|... .. .. ....|... .. .. ....|C-3 .. .. ....|... .. .. ....|... .. .. ....|C-3 .. .. ....|... .. .. ....|... .. .. ....|... .. .. ....
0D |... .. .. ....|... .. .. ....|... .. .. ....|... .. .. ....|... .. .. ....|... .. .. ....|... .. .. ....|... .. .. ....|... .. .. ....|... .. .. ....|... .. .. ....|... .. .. ....|C-3 .. .. ....|... .. .. ....|... .. .. ....|... .. .. ....
0E |... .. .. ....|... .. .. ....|F-3 .. .. ....|... .. .. ....|... .. .. ....|... .. .. ....|... .. .. ....|... .. .. ....|... .. .. ....|... .. .. ....|C-3 .. .. ....|... .. .. ....|C-3 .. .. ....|... .. .. ....|... .. .. ....|... .. .. ....
0F |... .. .. ....|... .. .. ....|F-3 .. .. ....|... .. .. ....|... .. .. ....|... .. .. ....|... .. .. ....|... .. .. ....|... .. .. ....|... .. .. ....|... .. .. ....|... .. .. ....|C-3 .. .. ....|... .. .. ....|... .. .. ....|... .. .. ....
10 |G-4 .. .. ....|D-5 .. .. ....|G-2 .. .. ....|B-5 .. .. ....|B-5 .. .. ....|D-5 .. .. ....|... .. .. ....|... .. .. ....|... .. .. ....|C-3 .. .. ....|... .. .. ....|... .. .. ....|C-3 .. .. ....|... .. .. ....|... .. .. ....|... .. .. ....
11 |... .. .. ....|... .. .. ....|... .. .. ....|... .. .. ....|... .. .. ....|... .. .. ....|... .. .. ....|... .. .. ....|... .. .. ....|... .. .. ....|... .. .. ....|... .. .. ....|C-3 .. .. ....|... .. .. ....|... .. .. ....|... .. .. ....
12 |... .. .. ....|... .. .. ....|G-3 .. .. ....|... .. .. ....|... .. .. ....|... .. .. ....|... .. .. ....|... .. .. ....|... .. .. ....|... .. .. ....|C-3 .. .. ....|... .. .. ....|C-3 .. .. ....|... .. .. ....|... .. .. ....|... .. .. ....
13 |... .. .. ....|... .. .. ....|G-3 .. .. ....|... .. .. ....|... .. .. ....|... .. .. ....|... .. .. ....|... .. .. ....|... .. .. ....|... .. .. ....|... .. .. ....|... .. .. ....|C-3 .. .. ....|... .. .. ....|... .. .. ....|... .. .. ....
14 |... .. .. ....|... .. .. ....|G-2 .. .. ....|... .. .. ....|... .. .. ....|... .. .. ....|... .. .. ....|... .. .. ....|... .. .. ....|C-3 .. .. ....|... .. .. ....|... .. .. ....|C-3 .. .. ....|... .. .. ....|... .. .. ....|... .. .. ....
15 |... .. .. ....|... .. .. ....|... .. .. ....|... .. .. ....|... .. .. ....|... .. .. ....|... .. .. ....|... .. .. ....|... .. .. ....|... .. .. ....|... .. .. ....|... .. .. ....|C-3 .. .. ....|... .. .. ....|... .. .. ....|... .. .. ....
16 |... .. .. ....|... .. .. ....|G-3 .. .. ....|A-5 .. .. ....|A-5 .. .. ....|C-5 .. .. ....|... .. .. ....|... .. .. ....|... .. .. ....|... .. .. ....|C-3 .. .. ....|... .. .. ....|C-3 .. .. ....|... .. .. ....|... .. .. ....|... .. .. ....
17 |... .. .. ....|... .. .. ....|G-3 .. .. ....|... .. .. ....|... .. .. ....|... .. .. ....|... .. .. ....|... .. .. ....|... .. .. ....|... .. .. ....|... .. .. ....|... .. .. ....|C-3 .. .. ....|... .. .. ....|... .. .. ....|... .. .. ....
18 |... .. .. ....|... .. .. ....|G-2 .. .. ....|... .. .. ....|... .. .. ....|... .. .. ....|... .. .. ....|... .. .. ....|... .. .. ....|C-3 .. .. ....|... .. .. ....|... .. .. ....|C-3 .. .. ....|... .. .. ....|... .. .. ....|... .. .. ....
19 |... .. .. ....|... .. .. ....|... .. .. ....|... .. .. ....|... .. .. ....|... .. .. ....|... .. .. ....|... .. .. ....|... .. .. ....|... .. .. ....|... .. .. ....|... .. .. ....|C-3 .. .. ....|... .. .. ....|... .. .. ....|... .. .. ....
1A |... .. .. ....|... .. .. ....|G-3 .. .. ....|... .. .. ....|... .. .. ....|... .. .. ....|... .. .. ....|... .. .. ....|... .. .. ....|... .. .. ....|C-3 .. .. ....|... .. .. ....|C-3 .. .. ....|... .. .. ....|... .. .. ....|... .. .. ....
1B |... .. .. ....|... .. .. ....|G-3 .. .. ....|... .. .. ....|... .. .. ....|... .. .. ....|... .. .. ....|... .. .. ....|... .. .. ....|... .. .. ....|C-3 .. .. ....|... .. .. ....|C-3 .. .. ....|... .. .. ....|... .. .. ....|... .. .. ....
1C |... .. .. ....|... .. .. ....|G-2 .. .. ....|G-5 .. .. ....|G-5 .. .. ....|B-4 .. .. ....|... .. .. ....|... .. .. ....|... .. .. ....|C-3 .. .. ....|... .. .. ....|... .. .. ....|C-3 .. .. ....|... .. .. ....|... .. .. ....|... .. .. ....
1D |... .. .. ....|... .. .. ....|... .. .. ....|... .. .. ....|... .. .. ....|... .. .. ....|... .. .. ....|... .. .. ....|... .. .. ....|... .. .. ....|... .. .. ....|... .. .. ....|C-3 .. .. ....|... .. .. ....|... .. .. ....|... .. .. ....
1E |... .. .. ....|... .. .. ....|G-3 .. .. ....|OFF .. .. ....|OFF .. .. ....|OFF .. .. ....|... .. .. ....|... .. .. ....|... .. .. ....|... .. .. ....|C-3 .. .. ....|... .. .. ....|C-3 .. .. ....|... .. .. ....|... .. .. ....|... .. .. ....
1F |... .. .. ....|... .. .. ....|G-3 .. .. ....|... .. .. ....|... .. .. ....|... .. .. ....|... .. .. ....|... .. .. ....|... .. .. ....|... .. .. ....|... .. .. ....|... .. .. ....|C-3 .. .. ....|... .. .. ....|... .. .. ....|... .. .. ....
----- ORDER 11
00 |E-4 .. .. ....|D-5 .. .. ....|A-2 .. .. ....|A-5 .. .. ....|A-5 .. .. ....|D-5 .. .. ....|... .. .. ....|... .. .. ....|... .. .. ....|C-3 .. .. ....|... .. .. ....|... .. .. ....|C-3 .. .. ....|... .. .. ....|... .. .. ....|... .. .. ....
01 |... .. .. ....|... .. .. ....|... .. .. ....|... .. .. ....|... .. .. ....|... .. .. ....|... .. .. ....|... .. .. ....|... .. .. ....|... .. .. ....|... .. .. ....|... .. .. ....|C-3 .. .. ....|... .. .. ....|... .. .. ....|... .. .. ....
02 |... .. .. ....|... .. .. ....|A-3 .. .. ....|... .. .. ....|... .. .. ....|... .. .. ....|... .. .. ....|... .. .. ....|... .. .. ....|... .. .. ....|C-3 .. .. ....|... .. .. ....|C-3 .. .. ....|... .. .. ....|... .. .. ....|... .. .. ....
03 |... .. .. ....|... .. .. ....|A-3 .. .. ....|... .. .. ....|... .. .. ....|... .. .. ....|... .. .. ....|... .. .. ....|... .. .. ....|... .. .. ....|... .. .. ....|... .. .. ....|C-3 .. .. ....|... .. .. ....|... .. .. ....|... .. .. ....
04 |... .. .. ....|... .. .. ....|A-2 .. .. ....|... .. .. ....|... .. .. ....|... .. .. ....|... .. .. ....|... .. .. ....|... .. .. ....|C-3 .. .. ....|... .. .. ....|... .. .. ....|C-3 .. .. ....|... .. .. ....|... .. .. ....|... .. .. ....
05 |... .. .. ....|... .. .. ....|... .. .. ....|... .. .. ....|... .. .. ....|... .. .. ....|... .. .. ....|... .. .. ....|... .. .. ....|... .. .. ....|... .. .. ....|... .. .. ....|C-3 .. .. ....|... .. .. ....|... .. .. ....|... .. .. ....
06 |... .. .. ....|... .. .. ....|A-3 .. .. ....|... .. .. ....|... .. .. ....|... .. .. ....|... .. .. ....|... .. .. ....|... .. .. ....|... .. .. ....|C-3 .. .. ....|... .. .. ....|C-3 .. .. ....|... .. .. ....|... .. .. ....|... .. .. ....
07 |... .. .. ....|... .. .. ....|A-3 .. .. ....|... .. .. ....|... .. .. ....|... .. .. ....|... .. .. ....|... .. .. ....|... .. .. ....|... .. .. ....|... .. .. ....|... .. .. ....|C-3 .. .. ....|... .. .. ....|... .. .. ....|... .. .. ....
08 |... .. .. ....|... .. .. ....|A-2 .. .. ....|... .. .. ....|... .. .. ....|... .. .. ....|... .. .. ....|... .. .. ....|... .. .. ....|C-3 .. .. ....|... .. .. ....|... .. .. ....|C-3 .. .. ....|... .. .. ....|... .. .. ....|... .. .. ....
09 |... .. .. ....|... .. .. ....|... .. .. ....|... .. .. ....|... .. .. ....|... .. .. ....|... .. .. ....|... .. .. ....|... .. .. ....|... .. .. ....|... .. .. ....|... .. .. ....|C-3 .. .. ....|... .. .. ....|... .. .. ....|... .. .. ....
0A |... .. .. ....|... .. .. ....|A-3 .. .. ....|... .. .. ....|... .. .. ....|... .. .. ....|... .. .. ....|... .. .. ....|... .. .. ....|... .. .. ....|C-3 .. .. ....|... .. .. ....|C-3 .. .. ....|... .. .. ....|... .. .. ....|... .. .. ....
0B |... .. .. ....|... .. .. ....|A-3 .. .. ....|... .. .. ....|... .. .. ....|... .. .. ....|... .. .. ....|... .. .. ....|... .. .. ....|... .. .. ....|... .. .. ....|... .. .. ....|C-3 .. .. ....|... .. .. ....|... .. .. ....|... .. .. ....
0C |... .. .. ....|... .. .. ....|A-2 .. .. ....|... .. .. ....|... .. .. ....|... .. .. ....|... .. .. ....|... .. .. ....|... .. .. ....|C-3 .. .. ....|... .. .. ....|... .. .. ....|C-3 .. .. ....|... .. .. ....|... .. .. ....|... .. .. ....
0D |... .. .. ....|... .. .. ....|... .. .. ....|... .. .. ....|... .. .. ....|... .. .. ....|... .. .. ....|... .. .. ....|... .. .. ....|... .. .. ....|... .. .. ....|... .. .. ....|C-3 .. .. ....|... .. .. ....|... .. .. ....|... .. .. ....
0E |... .. .. ....|... .. .. ....|A-3 .. .. ....|... .. .. ....|... .. .. ....|... .. .. ....|... .. .. ....|... .. .. ....|... .. .. ....|... .. .. ....|C-3 .. .. ....|... .. .. ....|C-3 .. .. ....|... .. .. ....|... .. .. ....|... .. .. ....
0F |... .. .. ....|... .. .. ....|A-3 .. .. ....|... .. .. ....|... .. .. ....|... .. .. ....|... .. .. ....|... .. .. ....|... .. .. ....|... .. .. ....|... .. .. ....|... .. .. ....|C-3 .. .. ....|... .. .. ....|... .. .. ....|... .. .. ....
10 |E-4 .. .. ....|C#5 .. .. ....|A-2 .. .. ....|... .. .. ....|... .. .. ....|... .. .. ....|... .. .. ....|... .. .. ....|... .. .. ....|C-3 .. .. ....|... .. .. ....|... .. .. ....|C-3 .. .. ....|... .. .. ....|... .. .. ....|... .. .. ....
11 |... .. .. ....|... .. .. ....|... .. .. ....|... .. .. ....|... .. .. ....|... .. .. ....|... .. .. ....|... .. .. ....|... .. .. ....|... .. .. ....|... .. .. ....|... .. .. ....|C-3 .. .. ....|... .. .. ....|... .. .. ....|... .. .. ....
12 |... .. .. ....|... .. .. ....|A-3 .. .. ....|... .. .. ....|... .. .. ....|... .. .. ....|... .. .. ....|... .. .. ....|... .. .. ....|... .. .. ....|C-3 .. .. ....|... .. .. ....|C-3 .. .. ....|... .. .. ....|... .. .. ....|... .. .. ....
13 |... .. .. ....|... .. .. ....|A-3 .. .. ....|... .. .. ....|... .. .. ....|... .. .. ....|... .. .. ....|... .. .. ....|... .. .. ....|... .. .. ....|... .. .. ....|... .. .. ....|C-3 .. .. ....|... .. .. ....|... .. .. ....|... .. .. ....
14 |... .. .. ....|... .. .. ....|A-2 .. .. ....|... .. .. ....|... .. .. ....|... .. .. ....|... .. .. ....|... .. .. ....|... .. .. ....|C-3 .. .. ....|... .. .. ....|... .. .. ....|C-3 .. .. ....|... .. .. ....|... .. .. ....|... .. .. ....
15 |... .. .. ....|... .. .. ....|... .. .. ....|... .. .. ....|... .. .. ....|... .. .. ....|... .. .. ....|... .. .. ....|... .. .. ....|... .. .. ....|... .. .. ....|... .. .. ....|C-3 .. .. ....|... .. .. ....|... .. .. ....|... .. .. ....
16 |... .. .. ....|... .. .. ....|A-3 .. .. ....|... .. .. ....|... .. .. ....|... .. .. ....|... .. .. ....|... .. .. ....|... .. .. ....|... .. .. ....|C-3 .. .. ....|... .. .. ....|C-3 .. .. ....|... .. .. ....|... .. .. ....|... .. .. ....
17 |... .. .. ....|... .. .. ....|A-3 .. .. ....|... .. .. ....|... .. .. ....|... .. .. ....|... .. .. ....|... .. .. ....|... .. .. ....|... .. .. ....|... .. .. ....|... .. .. ....|C-3 .. .. ....|... .. .. ....|... .. .. ....|... .. .. ....
18 |... .. .. ....|... .. .. ....|A-2 .. .. ....|... .. .. ....|... .. .. ....|... .. .. ....|... .. .. ....|... .. .. ....|... .. .. ....|C-3 .. .. ....|... .. .. ....|... .. .. ....|C-3 .. .. ....|... .. .. ....|... .. .. ....|... .. .. ....
19 |... .. .. ....|... .. .. ....|... .. .. ....|... .. .. ....|... .. .. ....|... .. .. ....|... .. .. ....|... .. .. ....|... .. .. ....|... .. .. ....|... .. .. ....|... .. .. ....|C-3 .. .. ....|... .. .. ....|... .. .. ....|... .. .. ....
1A |... .. .. ....|... .. .. ....|A-3 .. .. ....|... .. .. ....|... .. .. ....|... .. .. ....|... .. .. ....|... .. .. ....|... .. .. ....|... .. .. ....|C-3 .. .. ....|... .. .. ....|C-3 .. .. ....|... .. .. ....|... .. .. ....|... .. .. ....
1B |... .. .. ....|... .. .. ....|A-3 .. .. ....|... .. .. ....|... .. .. ....|... .. .. ....|... .. .. ....|... .. .. ....|... .. .. ....|... .. .. ....|C-3 .. .. ....|... .. .. ....|C-3 .. .. ....|... .. .. ....|... .. .. ....|... .. .. ....
1C |... .. .. ....|... .. .. ....|G-2 .. .. ....|OFF .. .. ....|OFF .. .. ....|... .. .. ....|... .. .. ....|... .. .. ....|... .. .. ....|C-3 .. .. ....|... .. .. ....|... .. .. ....|C-3 .. .. ....|... .. .. ....|... .. .. ....|... .. .. ....
1D |... .. .. ....|... .. .. ....|... .. .. ....|... .. .. ....|... .. .. ....|... .. .. ....|... .. .. ....|... .. .. ....|... .. .. ....|... .. .. ....|... .. .. ....|... .. .. ....|C-3 .. .. ....|... .. .. ....|... .. .. ....|... .. .. ....
1E |... .. .. ....|... .. .. ....|G-3 .. .. ....|... .. .. ....|... .. .. ....|... .. .. ....|... .. .. ....|... .. .. ....|... .. .. ....|... .. .. ....|C-3 .. .. ....|... .. .. ....|C-3 .. .. ....|... .. .. ....|... .. .. ....|... .. .. ....
1F |... .. .. ....|... .. .. ....|G-3 .. .. ....|... .. .. ....|... .. .. ....|... .. .. ....|... .. .. ....|... .. .. ....|... .. .. ....|... .. .. ....|C-3 .. .. ....|... .. .. ....|C-3 .. .. ....|... .. .. ....|... .. .. ....|... .. .. ....
----- ORDER 12
00 |A-5 04 75 ....|E-5 04 75 ....|F-2 .. .. ....|A-2 01 72 ....|C-3 01 72 ....|F-3 01 72 ....|... .. .. ....|... .. .. ....|... .. .. ....|C-3 .. .. ....|... .. .. ....|... .. .. ....|C-3 .. .. ....|... .. .. ....|... .. .. ....|... .. .. ....
01 |... .. .. ....|... .. .. ....|... .. .. ....|... .. .. ....|... .. .. ....|... .. .. ....|... .. .. ....|... .. .. ....|... .. .. ....|... .. .. ....|... .. .. ....|... .. .. ....|... .. .. ....|... .. .. ....|... .. .. ....|... .. .. ....
02 |B-5 .. .. ....|G-5 .. .. ....|F-3 .. .. ....|... .. .. ....|... .. .. ....|... .. .. ....|... .. .. ....|... .. .. ....|... .. .. ....|... .. .. ....|... .. .. ....|... .. .. ....|C-3 .. .. ....|... .. .. ....|... .. .. ....|... .. .. ....
03 |... .. .. ....|... .. .. ....|... .. .. ....|... .. .. ....|... .. .. ....|... .. .. ....|... .. .. ....|... .. .. ....|... .. .. ....|... .. .. ....|... .. .. ....|... .. .. ....|... .. .. ....|... .. .. ....|... .. .. ....|... .. .. ....
04 |C-6 .. .. ....|A-5 .. .. ....|F-2 .. .. ....|... .. .. ....|... .. .. ....|... .. .. ....|... .. .. ....|... .. .. ....|... .. .. ....|... .. .. ....|... .. .. ....|... .. .. ....|C-3 .. .. ....|... .. .. ....|... .. .. ....|... .. .. ....
05 |... .. .. ....|... .. .. ....|... .. .. ....|... .. .. ....|... .. .. ....|... .. .. ....|... .. .. ....|... .. .. ....|... .. .. ....|... .. .. ....|... .. .. ....|... .. .. ....|... .. .. ....|... .. .. ....|... .. .. ....|... .. .. ....
06 |OFF .. .. ....|OFF .. .. ....|G-2 .. .. ....|G-2 .. .. ....|B-2 .. .. ....|D-3 .. .. ....|... .. .. ....|... .. .. ....|... .. .. ....|C-3 .. .. ....|... .. .. ....|... .. .. ....|C-3 .. .. ....|... .. .. ....|... .. .. ....|... .. .. ....
07 |... .. .. ....|... .. .. ....|... .. .. ....|... .. .. ....|... .. .. ....|... .. .. ....|... .. .. ....|... .. .. ....|... .. .. ....|... .. .. ....|... .. .. ....|... .. .. ....|... .. .. ....|... .. .. ....|... .. .. ....|... .. .. ....
08 |B-5 .. .. ....|G-5 .. .. ....|G-3 .. .. ....|... .. .. ....|... .. .. ....|... .. .. ....|... .. .. ....|... .. .. ....|... .. .. ....|... .. .. ....|... .. .. ....|... .. .. ....|C-3 .. .. ....|... .. .. ....|... .. .. ....|... .. .. ....
09 |... .. .. ....|... .. .. ....|... .. .. ....|... .. .. ....|... .. .. ....|... .. .. ....|... .. .. ....|... .. .. ....|... .. .. ....|... .. .. ....|... .. .. ....|... .. .. ....|... .. .. ....|... .. .. ....|... .. .. ....|... .. .. ....
0A |C-6 .. .. ....|A-5 .. .. ....|G-2 .. .. ....|... .. .. ....|... .. .. ....|... .. .. ....|... .. .. ....|... .. .. ....|... .. .. ....|... .. .. ....|... .. .. ....|... .. .. ....|C-3 .. .. ....|... .. .. ....|... .. .. ....|... .. .. ....
0B |... .. .. ....|... .. .. ....|... .. .. ....|... .. .. ....|... .. .. ....|... .. .. ....|... .. .. ....|... .. .. ....|... .. .. ....|... .. .. ....|... .. .. ....|... .. .. ....|... .. .. ....|... .. .. ....|... .. .. ....|... .. .. ....
0C |D-6 .. .. ....|B-5 .. .. ....|G-2 .. .. ....|B-2 .. .. ....|D-3 .. .. ....|G-3 .. .. ....|... .. .. ....|... .. .. ....|... .. .. ....|C-3 .. .. ....|... .. .. ....|... .. .. ....|C-3 .. .. ....|... .. .. ....|... .. .. ....|... .. .. ....
0D |... .. .. ....|... .. .. ....|... .. .. ....|... .. .. ....|... .. .. ....|... .. .. ....|... .. .. ....|... .. .. ....|... .. .. ....|... .. .. ....|... .. .. ....|... .. .. ....|... .. .. ....|... .. .. ....|... .. .. ....|... .. .. ....
0E |OFF .. .. ....|OFF .. .. ....|G-3 .. .. ....|... .. .. ....|... .. .. ....|... .. .. ....|... .. .. ....|... .. .. ....|... .. .. ....|... .. .. ....|... .. .. ....|... .. .. ....|C-3 .. .. ....|... .. .. ....|... .. .. ....|... .. .. ....
0F |... .. .. ....|... .. .. ....|... .. .. ....|... .. .. ....|... .. .. ....|... .. .. ....|... .. .. ....|... .. .. ....|... .. .. ....|... .. .. ....|... .. .. ....|... .. .. ....|... .. .. ....|... .. .. ....|... .. .. ....|... .. .. ....
10 |C-6 .. .. ....|A-5 .. .. ....|E-2 .. .. ....|... .. .. ....|... .. .. ....|... .. .. ....|... .. .. ....|... .. .. ....|... .. .. ....|... .. .. ....|... .. .. ....|... .. .. ....|C-3 .. .. ....|... .. .. ....|... .. .. ....|... .. .. ....
11 |... .. .. ....|... .. .. ....|... .. .. ....|... .. .. ....|... .. .. ....|... .. .. ....|... .. .. ....|... .. .. ....|... .. .. ....|... .. .. ....|... .. .. ....|... .. .. ....|... .. .. ....|... .. .. ....|... .. .. ....|... .. .. ....
12 |B-5 .. .. ....|G-5 .. .. ....|E-3 .. .. ....|G-2 .. .. ....|B-2 .. .. ....|E-3 .. .. ....|... .. .. ....|... .. .. ....|... .. .. ....|C-3 .. .. ....|... .. .. ....|... .. .. ....|C-3 .. .. ....|... .. .. ....|... .. .. ....|... .. .. ....
13 |... .. .. ....|... .. .. ....|... .. .. ....|... .. .. ....|... .. .. ....|... .. .. ....|... .. .. ....|... .. .. ....|... .. .. ....|... .. .. ....|... .. .. ....|... .. .. ....|... .. .. ....|... .. .. ....|... .. .. ....|... .. .. ....
14 |A-5 .. .. ....|E-5 .. .. ....|E-2 .. .. ....|... .. .. ....|... .. .. ....|... .. .. ....|... .. .. ....|... .. .. ....|... .. .. ....|... .. .. ....|... .. .. ....|... .. .. ....|C-3 .. .. ....|... .. .. ....|... .. .. ....|... .. .. ....
15 |... .. .. ....|... .. .. ....|... .. .. ....|... .. .. ....|... .. .. ....|... .. .. ....|... .. .. ....|... .. .. ....|... .. .. ....|... .. .. ....|... .. .. ....|... .. .. ....|... .. .. ....|... .. .. ....|... .. .. ....|... .. .. ....
16 |G-5 .. .. ....|D-5 .. .. ....|E-3 .. .. ....|... .. .. ....|... .. .. ....|... .. .. ....|... .. .. ....|... .. .. ....|... .. .. ....|... .. .. ....|... .. .. ....|C-3 00 .. ....|... .. .. ....|... .. .. ....|... .. .. ....|... .. .. ....
17 |... .. .. ....|... .. .. ....|... .. .. ....|... .. .. ....|... .. .. ....|... .. .. ....|... .. .. ....|... .. .. ....|... .. .. ....|... .. .. ....|... .. .. ....|... .. .. ....|... .. .. ....|... .. .. ....|... .. .. ....|... .. .. ....
18 |A-5 .. .. ....|E-5 .. .. ....|A-2 .. .. ....|C-3 .. .. ....|E-3 .. .. ....|A-3 .. .. ....|... .. .. ....|... .. .. ....|... .. .. ....|... .. .. ....|... .. .. ....|C-3 02 .. ....|... .. .. ....|... .. .. ....|... .. .. ....|... .. .. ....
19 |... .. .. ....|... .. .. ....|... .. .. ....|... .. .. ....|... .. .. ....|... .. .. ....|... .. .. ....|... .. .. ....|... .. .. ....|... .. .. ....|... .. .. ....|... .. .. ....|... .. .. ....|... .. .. ....|... .. .. ....|... .. .. ....
1A |E-5 .. .. ....|C-5 .. .. ....|A-3 .. .. ....|... .. .. ....|... .. .. ....|... .. .. ....|... .. .. ....|... .. .. ....|... .. .. ....|... .. .. ....|... .. .. ....|... .. .. ....|... .. .. ....|... .. .. ....|... .. .. ....|... .. .. ....
1B |... .. .. ....|... .. .. ....|... .. .. ....|... .. .. ....|... .. .. ....|... .. .. ....|... .. .. ....|... .. .. ....|... .. .. ....|... .. .. ....|... .. .. ....|... .. .. ....|... .. .. ....|... .. .. ....|... .. .. ....|... .. .. ....
1C |G-5 .. .. ....|D-5 .. .. ....|G-2 .. .. ....|B-2 .. .. ....|D-3 .. .. ....|G-3 .. .. ....|... .. .. ....|... .. .. ....|... .. .. ....|... .. .. ....|... .. .. ....|C-3 02 .. ....|... .. .. ....|... .. .. ....|... .. .. ....|... .. .. ....
1D |... .. .. ....|... .. .. ....|... .. .. ....|... .. .. ....|... .. .. ....|... .. .. ....|... .. .. ....|... .. .. ....|... .. .. ....|... .. .. ....|... .. .. ....|... .. .. ....|... .. .. ....|... .. .. ....|... .. .. ....|... .. .. ....
1E |A-5 .. .. ....|E-5 .. .. ....|G-3 .. .. ....|... .. .. ....|... .. .. ....|... .. .. ....|... .. .. ....|... .. .. ....|... .. .. ....|... .. .. ....|... .. .. ....|... .. .. ....|... .. .. ....|... .. .. ....|... .. .. ....|... .. .. ....
1F |... .. .. ....|... .. .. ....|... .. .. ....|... .. .. ....|... .. .. ....|... .. .. ....|... .. .. ....|... .. .. ....|... .. .. ....|... .. .. ....|... .. .. ....|... .. .. ....|... .. .. ....|... .. .. ....|... .. .. ....|... .. .. ..01
----- ORDER 13
00 |A-5 .. .. ....|E-5 .. .. ....|F-2 .. .. ....|A-2 01 72 ....|C-3 01 72 ....|F-3 01 72 ....|... .. .. ....|... .. .. ....|... .. .. ....|C-3 .. .. ....|... .. .. ....|... .. .. ....|C-3 .. .. ....|... .. .. ....|... .. .. ....|... .. .. ....
01 |... .. .. ....|... .. .. ....|... .. .. ....|... .. .. ....|... .. .. ....|... .. .. ....|... .. .. ....|... .. .. ....|... .. .. ....|... .. .. ....|... .. .. ....|... .. .. ....|... .. .. ....|... .. .. ....|... .. .. ....|... .. .. ....
02 |B-5 .. .. ....|G-5 .. .. ....|F-3 .. .. ....|... .. .. ....|... .. .. ....|... .. .. ....|... .. .. ....|... .. .. ....|... .. .. ....|... .. .. ....|... .. .. ....|... .. .. ....|C-3 .. .. ....|... .. .. ....|... .. .. ....|... .. .. ....
03 |... .. .. ....|... .. .. ....|... .. .. ....|... .. .. ....|... .. .. ....|... .. .. ....|... .. .. ....|... .. .. ....|... .. .. ....|... .. .. ....|... .. .. ....|... .. .. ....|... .. .. ....|... .. .. ....|... .. .. ....|... .. .. ....
04 |C-6 .. .. ....|A-5 .. .. ....|F-2 .. .. ....|... .. .. ....|... .. .. ....|... .. .. ....|... .. .. ....|... .. .. ....|... .. .. ....|... .. .. ....|... .. .. ....|... .. .. ....|C-3 .. .. ....|... .. .. ....|... .. .. ....|... .. .. ....
05 |... .. .. ....|... .. .. ....|... .. .. ....|... .. .. ....|... .. .. ....|... .. .. ....|... .. .. ....|... .. .. ....|... .. .. ....|... .. .. ....|... .. .. ....|... .. .. ....|... .. .. ....|... .. .. ....|... .. .. ....|... .. .. ....
06 |OFF .. .. ....|OFF .. .. ....|G-2 .. .. ....|G-2 .. .. ....|B-2 .. .. ....|D-3 .. .. ....|... .. .. ....|... .. .. ....|... .. .. ....|C-3 .. .. ....|... .. .. ....|... .. .. ....|C-3 .. .. ....|... .. .. ....|... .. .. ....|... .. .. ....
07 |... .. .. ....|... .. .. ....|... .. .. ....|... .. .. ....|... .. .. ....|... .. .. ....|... .. .. ....|... .. .. ....|... .. .. ....|... .. .. ....|... .. .. ....|... .. .. ....|... .. .. ....|... .. .. ....|... .. .. ....|... .. .. ....
08 |B-5 .. .. ....|G-5 .. .. ....|G-3 .. .. ....|... .. .. ....|... .. .. ....|... .. .. ....|... .. .. ....|... .. .. ....|... .. .. ....|... .. .. ....|... .. .. ....|... .. .. ....|C-3 .. .. ....|... .. .. ....|... .. .. ....|... .. .. ....
09 |... .. .. ....|... .. .. ....|... .. .. ....|... .. .. ....|... .. .. ....|... .. .. ....|... .. .. ....|... .. .. ....|... .. .. ....|... .. .. ....|... .. .. ....|... .. .. ....|... .. .. ....|... .. .. ....|... .. .. ....|... .. .. ....
0A |C-6 .. .. ....|A-5 .. .. ....|G-2 .. .. ....|... .. .. ....|... .. .. ....|... .. .. ....|... .. .. ....|... .. .. ....|... .. .. ....|... .. .. ....|... .. .. ....|... .. .. ....|C-3 .. .. ....|... .. .. ....|... .. .. ....|... .. .. ....
0B |... .. .. ....|... .. .. ....|... .. .. ....|... .. .. ....|... .. .. ....|... .. .. ....|... .. .. ....|... .. .. ....|... .. .. ....|... .. .. ....|... .. .. ....|... .. .. ....|... .. .. ....|... .. .. ....|... .. .. ....|... .. .. ....
0C |D-6 .. .. ....|B-5 .. .. ....|G-2 .. .. ....|B-2 .. .. ....|D-3 .. .. ....|G-3 .. .. ....|... .. .. ....|... .. .. ....|... .. .. ....|C-3 .. .. ....|... .. .. ....|... .. .. ....|C-3 .. .. ....|... .. .. ....|... .. .. ....|... .. .. ....
0D |... .. .. ....|... .. .. ....|... .. .. ....|... .. .. ....|... .. .. ....|... .. .. ....|... .. .. ....|... .. .. ....|... .. .. ....|... .. .. ....|... .. .. ....|... .. .. ....|... .. .. ....|... .. .. ....|... .. .. ....|... .. .. ....
0E |E-6 .. .. ....|C-6 .. .. ....|G-3 .. .. ....|... .. .. ....|... .. .. ....|... .. .. ....|... .. .. ....|... .. .. ....|... .. .. ....|... .. .. ....|... .. .. ....|... .. .. ....|C-3 .. .. ....|... .. .. ....|... .. .. ....|... .. .. ....
0F |... .. .. ....|... .. .. ....|... .. .. ....|... .. .. ....|... .. .. ....|... .. .. ....|... .. .. ....|... .. .. ....|... .. .. ....|... .. .. ....|... .. .. ....|... .. .. ....|... .. .. ....|... .. .. ....|... .. .. ....|... .. .. ....
10 |B-5 .. .. ....|G-5 .. .. ....|E-2 .. .. ....|... .. .. ....|... .. .. ....|... .. .. ....|... .. .. ....|... .. .. ....|... .. .. ....|... .. .. ....|... .. .. ....|... .. .. ....|C-3 .. .. ....|... .. .. ....|... .. .. ....|... .. .. ....
11 |C-6 .. .. ....|A-5 .. .. ....|... .. .. ....|... .. .. ....|... .. .. ....|... .. .. ....|... .. .. ....|... .. .. ....|... .. .. ....|... .. .. ....|... .. .. ....|... .. .. ....|... .. .. ....|... .. .. ....|... .. .. ....|... .. .. ....
12 |B-5 .. .. ....|G-5 .. .. ....|E-3 .. .. ....|G-2 .. .. ....|B-2 .. .. ....|E-3 .. .. ....|... .. .. ....|... .. .. ....|... .. .. ....|C-3 .. .. ....|... .. .. ....|... .. .. ....|C-3 .. .. ....|... .. .. ....|... .. .. ....|... .. .. ....
13 |C-6 .. .. ....|A-5 .. .. ....|... .. .. ....|... .. .. ....|... .. .. ....|... .. .. ....|... .. .. ....|... .. .. ....|... .. .. ....|... .. .. ....|... .. .. ....|... .. .. ....|... .. .. ....|... .. .. ....|... .. .. ....|... .. .. ....
14 |G-5 .. .. ....|E-5 .. .. ....|E-2 .. .. ....|... .. .. ....|... .. .. ....|... .. .. ....|... .. .. ....|... .. .. ....|... .. .. ....|... .. .. ....|... .. .. ....|... .. .. ....|C-3 .. .. ....|... .. .. ....|... .. .. ....|... .. .. ....
15 |... .. .. ....|... .. .. ....|... .. .. ....|... .. .. ....|... .. .. ....|... .. .. ....|... .. .. ....|... .. .. ....|... .. .. ....|... .. .. ....|... .. .. ....|... .. .. ....|... .. .. ....|... .. .. ....|... .. .. ....|... .. .. ....
16 |E-5 .. .. ....|C-5 .. .. ....|E-3 .. .. ....|... .. .. ....|... .. .. ....|... .. .. ....|... .. .. ....|... .. .. ....|... .. .. ....|... .. .. ....|... .. .. ....|C-3 00 .. ....|... .. .. ....|... .. .. ....|... .. .. ....|... .. .. ....
17 |... .. .. ....|... .. .. ....|... .. .. ....|... .. .. ....|... .. .. ....|... .. .. ....|... .. .. ....|... .. .. ....|... .. .. ....|... .. .. ....|... .. .. ....|... .. .. ....|... .. .. ....|... .. .. ....|... .. .. ....|... .. .. ....
18 |A-5 .. .. ....|E-5 .. .. ....|A-2 .. .. ....|C-3 .. .. ....|E-3 .. .. ....|A-3 .. .. ....|... .. .. ....|... .. .. ....|... .. .. ....|... .. .. ....|... .. .. ....|C-3 02 .. ....|... .. .. ....|... .. .. ....|... .. .. ....|... .. .. ....
19 |... .. .. ....|... .. .. ....|... .. .. ....|... .. .. ....|... .. .. ....|... .. .. ....|... .. .. ....|... .. .. ....|... .. .. ....|... .. .. ....|... .. .. ....|... .. .. ....|... .. .. ....|... .. .. ....|... .. .. ....|... .. .. ....
1A |... .. .. ....|... .. .. ....|A-3 .. .. ....|... .. .. ....|... .. .. ....|... .. .. ....|... .. .. ....|... .. .. ....|... .. .. ....|... .. .. ....|... .. .. ....|... .. .. ....|... .. .. ....|... .. .. ....|... .. .. ....|... .. .. ....
1B |... .. .. ....|... .. .. ....|... .. .. ....|... .. .. ....|... .. .. ....|... .. .. ....|... .. .. ....|... .. .. ....|... .. .. ....|... .. .. ....|... .. .. ....|... .. .. ....|... .. .. ....|... .. .. ....|... .. .. ....|... .. .. ....
1C |OFF .. .. ....|OFF .. .. ....|G-2 .. .. ....|B-2 .. .. ....|D-3 .. .. ....|G-3 .. .. ....|... .. .. ....|... .. .. ....|... .. .. ....|... .. .. ....|... .. .. ....|C-3 02 .. ....|... .. .. ....|... .. .. ....|... .. .. ....|... .. .. ....
1D |... .. .. ....|... .. .. ....|... .. .. ....|... .. .. ....|... .. .. ....|... .. .. ....|... .. .. ....|... .. .. ....|... .. .. ....|... .. .. ....|... .. .. ....|... .. .. ....|... .. .. ....|... .. .. ....|... .. .. ....|... .. .. ....
1E |... .. .. ....|... .. .. ....|G-3 .. .. ....|... .. .. ....|... .. .. ....|... .. .. ....|... .. .. ....|... .. .. ....|... .. .. ....|... .. .. ....|... .. .. ....|... .. .. ....|... .. .. ....|... .. .. ....|... .. .. ....|... .. .. ....
1F |... .. .. ....|... .. .. ....|... .. .. ....|... .. .. ....|... .. .. ....|... .. .. ....|... .. .. ....|... .. .. ....|... .. .. ....|... .. .. ....|... .. .. ....|... .. .. ....|... .. .. ....|... .. .. ....|... .. .. ....|... .. .. ..01
----- ORDER 14
00 |A-5 04 75 ....|E-5 04 75 ....|F-2 .. .. ....|A-2 01 72 ....|C-3 01 72 ....|F-3 01 72 ....|... .. .. ....|... .. .. ....|... .. .. ....|C-3 .. .. ....|... .. .. ....|... .. .. ....|C-3 .. .. ....|... .. .. ....|... .. .. ....|... .. .. ....
01 |... .. .. ....|... .. .. ....|... .. .. ....|... .. .. ....|... .. .. ....|... .. .. ....|... .. .. ....|... .. .. ....|... .. .. ....|... .. .. ....|... .. .. ....|... .. .. ....|... .. .. ....|... .. .. ....|... .. .. ....|... .. .. ....
02 |B-5 .. .. ....|G-5 .. .. ....|F-3 .. .. ....|... .. .. ....|... .. .. ....|... .. .. ....|... .. .. ....|... .. .. ....|... .. .. ....|... .. .. ....|... .. .. ....|... .. .. ....|C-3 .. .. ....|... .. .. ....|... .. .. ....|... .. .. ....
03 |... .. .. ....|... .. .. ....|... .. .. ....|... .. .. ....|... .. .. ....|... .. .. ....|... .. .. ....|... .. .. ....|... .. .. ....|... .. .. ....|... .. .. ....|... .. .. ....|... .. .. ....|... .. .. ....|... .. .. ....|... .. .. ....
04 |C-6 .. .. ....|A-5 .. .. ....|F-2 .. .. ....|... .. .. ....|... .. .. ....|... .. .. ....|... .. .. ....|... .. .. ....|... .. .. ....|... .. .. ....|... .. .. ....|... .. .. ....|C-3 .. .. ....|... .. .. ....|... .. .. ....|... .. .. ....
05 |... .. .. ....|... .. .. ....|... .. .. ....|... .. .. ....|... .. .. ....|... .. .. ....|... .. .. ....|... .. .. ....|... .. .. ....|... .. .. ....|... .. .. ....|... .. .. ....|... .. .. ....|... .. .. ....|... .. .. ....|... .. .. ....
06 |OFF .. .. ....|OFF .. .. ....|G-2 .. .. ....|G-2 .. .. ....|B-2 .. .. ....|D-3 .. .. ....|... .. .. ....|... .. .. ....|... .. .. ....|C-3 .. .. ....|... .. .. ....|... .. .. ....|C-3 .. .. ....|... .. .. ....|... .. .. ....|... .. .. ....
07 |... .. .. ....|... .. .. ....|... .. .. ....|... .. .. ....|... .. .. ....|... .. .. ....|... .. .. ....|... .. .. ....|... .. .. ....|... .. .. ....|... .. .. ....|... .. .. ....|... .. .. ....|... .. .. ....|... .. .. ....|... .. .. ....
08 |B-5 .. .. ....|G-5 .. .. ....|G-3 .. .. ....|... .. .. ....|... .. .. ....|... .. .. ....|... .. .. ....|... .. .. ....|... .. .. ....|... .. .. ....|... .. .. ....|... .. .. ....|C-3 .. .. ....|... .. .. ....|... .. .. ....|... .. .. ....
09 |... .. .. ....|... .. .. ....|... .. .. ....|... .. .. ....|... .. .. ....|... .. .. ....|... .. .. ....|... .. .. ....|... .. .. ....|... .. .. ....|... .. .. ....|... .. .. ....|... .. .. ....|... .. .. ....|... .. .. ....|... .. .. ....
0A |C-6 .. .. ....|A-5 .. .. ....|G-2 .. .. ....|... .. .. ....|... .. .. ....|... .. .. ....|... .. .. ....|... .. .. ....|... .. .. ....|... .. .. ....|... .. .. ....|... .. .. ....|C-3 .. .. ....|... .. .. ....|... .. .. ....|... .. .. ....
0B |... .. .. ....|... .. .. ....|... .. .. ....|... .. .. ....|... .. .. ....|... .. .. ....|... .. .. ....|... .. .. ....|... .. .. ....|... .. .. ....|... .. .. ....|... .. .. ....|... .. .. ....|... .. .. ....|... .. .. ....|... .. .. ....
0C |D-6 .. .. ....|B-5 .. .. ....|G-2 .. .. ....|B-2 .. .. ....|D-3 .. .. ....|G-3 .. .. ....|... .. .. ....|... .. .. ....|... .. .. ....|C-3 .. .. ....|... .. .. ....|... .. .. ....|C-3 .. .. ....|... .. .. ....|... .. .. ....|... .. .. ....
0D |... .. .. ....|... .. .. ....|... .. .. ....|... .. .. ....|... .. .. ....|... .. .. ....|... .. .. ....|... .. .. ....|... .. .. ....|... .. .. ....|... .. .. ....|... .. .. ....|... .. .. ....|... .. .. ....|... .. .. ....|... .. .. ....
0E |OFF .. .. ....|OFF .. .. ....|G-3 .. .. ....|... .. .. ....|... .. .. ....|... .. .. ....|... .. .. ....|... .. .. ....|... .. .. ....|... .. .. ....|... .. .. ....|... .. .. ....|C-3 .. .. ....|... .. .. ....|... .. .. ....|... .. .. ....
0F |... .. .. ....|... .. .. ....|... .. .. ....|... .. .. ....|... .. .. ....|... .. .. ....|... .. .. ....|... .. .. ....|... .. .. ....|... .. .. ....|... .. .. ....|... .. .. ....|... .. .. ....|... .. .. ....|... .. .. ....|... .. .. ....
10 |C-6 .. .. ....|A-5 .. .. ....|E-2 .. .. ....|... .. .. ....|... .. .. ....|... .. .. ....|... .. .. ....|... .. .. ....|... .. .. ....|... .. .. ....|... .. .. ....|... .. .. ....|C-3 .. .. ....|... .. .. ....|... .. .. ....|... .. .. ....
11 |... .. .. ....|... .. .. ....|... .. .. ....|... .. .. ....|... .. .. ....|... .. .. ....|... .. .. ....|... .. .. ....|... .. .. ....|... .. .. ....|... .. .. ....|... .. .. ....|... .. .. ....|... .. .. ....|... .. .. ....|... .. .. ....
12 |B-5 .. .. ....|G-5 .. .. ....|E-3 .. .. ....|G-2 .. .. ....|B-2 .. .. ....|E-3 .. .. ....|... .. .. ....|... .. .. ....|... .. .. ....|C-3 .. .. ....|... .. .. ....|... .. .. ....|C-3 .. .. ....|... .. .. ....|... .. .. ....|... .. .. ....
13 |... .. .. ....|... .. .. ....|... .. .. ....|... .. .. ....|... .. .. ....|... .. .. ....|... .. .. ....|... .. .. ....|... .. .. ....|... .. .. ....|... .. .. ....|... .. .. ....|... .. .. ....|... .. .. ....|... .. .. ....|... .. .. ....
14 |A-5 .. .. ....|E-5 .. .. ....|E-2 .. .. ....|... .. .. ....|... .. .. ....|... .. .. ....|... .. .. ....|... .. .. ....|... .. .. ....|... .. .. ....|... .. .. ....|... .. .. ....|C-3 .. .. ....|... .. .. ....|... .. .. ....|... .. .. ....
15 |... .. .. ....|... .. .. ....|... .. .. ....|... .. .. ....|... .. .. ....|... .. .. ....|... .. .. ....|... .. .. ....|... .. .. ....|... .. .. ....|... .. .. ....|... .. .. ....|... .. .. ....|... .. .. ....|... .. .. ....|... .. .. ....
16 |G-5 .. .. ....|D-5 .. .. ....|E-3 .. .. ....|... .. .. ....|... .. .. ....|... .. .. ....|... .. .. ....|... .. .. ....|... .. .. ....|... .. .. ....|... .. .. ....|C-3 00 .. ....|... .. .. ....|... .. .. ....|... .. .. ....|... .. .. ....
17 |... .. .. ....|... .. .. ....|... .. .. ....|... .. .. ....|... .. .. ....|... .. .. ....|... .. .. ....|... .. .. ....|... .. .. ....|... .. .. ....|... .. .. ....|... .. .. ....|... .. .. ....|... .. .. ....|... .. .. ....|... .. .. ....
18 |A-5 .. .. ....|E-5 .. .. ....|A-2 .. .. ....|C-3 .. .. ....|E-3 .. .. ....|A-3 .. .. ....|... .. .. ....|... .. .. ....|... .. .. ....|... .. .. ....|... .. .. ....|C-3 02 .. ....|... .. .. ....|... .. .. ....|... .. .. ....|... .. .. ....
19 |... .. .. ....|... .. .. ....|... .. .. ....|... .. .. ....|... .. .. ....|... .. .. ....|... .. .. ....|... .. .. ....|... .. .. ....|... .. .. ....|... .. .. ....|... .. .. ....|... .. .. ....|... .. .. ....|... .. .. ....|... .. .. ....
1A |E-5 .. .. ....|C-5 .. .. ....|A-3 .. .. ....|... .. .. ....|... .. .. ....|... .. .. ....|... .. .. ....|... .. .. ....|... .. .. ....|... .. .. ....|... .. .. ....|... .. .. ....|... .. .. ....|... .. .. ....|... .. .. ....|... .. .. ....
1B |... .. .. ....|... .. .. ....|... .. .. ....|... .. .. ....|... .. .. ....|... .. .. ....|... .. .. ....|... .. .. ....|... .. .. ....|... .. .. ....|... .. .. ....|... .. .. ....|... .. .. ....|... .. .. ....|... .. .. ....|... .. .. ....
1C |G-5 .. .. ....|D-5 .. .. ....|G-2 .. .. ....|B-2 .. .. ....|D-3 .. .. ....|G-3 .. .. ....|... .. .. ....|... .. .. ....|... .. .. ....|... .. .. ....|... .. .. ....|C-3 02 .. ....|... .. .. ....|... .. .. ....|... .. .. ....|... .. .. ....
1D |... .. .. ....|... .. .. ....|... .. .. ....|... .. .. ....|... .. .. ....|... .. .. ....|... .. .. ....|... .. .. ....|... .. .. ....|... .. .. ....|... .. .. ....|... .. .. ....|... .. .. ....|... .. .. ....|... .. .. ....|... .. .. ....
1E |A-5 .. .. ....|E-5 .. .. ....|G-3 .. .. ....|... .. .. ....|... .. .. ....|... .. .. ....|... .. .. ....|... .. .. ....|... .. .. ....|... .. .. ....|... .. .. ....|... .. .. ....|... .. .. ....|... .. .. ....|... .. .. ....|... .. .. ....
1F |... .. .. ....|... .. .. ....|... .. .. ....|... .. .. ....|... .. .. ....|... .. .. ....|... .. .. ....|... .. .. ....|... .. .. ....|... .. .. ....|... .. .. ....|... .. .. ....|... .. .. ....|... .. .. ....|... .. .. ....|... .. .. ..01
----- ORDER 15
00 |A-5 .. .. ....|E-5 .. .. ....|F-2 .. .. ....|A-2 01 72 ....|C-3 01 72 ....|F-3 01 72 ....|... .. .. ....|... .. .. ....|... .. .. ....|C-3 .. .. ....|... .. .. ....|... .. .. ....|C-3 .. .. ....|... .. .. ....|... .. .. ....|... .. .. ....
01 |... .. .. ....|... .. .. ....|... .. .. ....|... .. .. ....|... .. .. ....|... .. .. ....|... .. .. ....|... .. .. ....|... .. .. ....|... .. .. ....|... .. .. ....|... .. .. ....|... .. .. ....|... .. .. ....|... .. .. ....|... .. .. ....
02 |B-5 .. .. ....|G-5 .. .. ....|F-3 .. .. ....|... .. .. ....|... .. .. ....|... .. .. ....|... .. .. ....|... .. .. ....|... .. .. ....|... .. .. ....|... .. .. ....|... .. .. ....|C-3 .. .. ....|... .. .. ....|... .. .. ....|... .. .. ....
03 |... .. .. ....|... .. .. ....|... .. .. ....|... .. .. ....|... .. .. ....|... .. .. ....|... .. .. ....|... .. .. ....|... .. .. ....|... .. .. ....|... .. .. ....|... .. .. ....|... .. .. ....|... .. .. ....|... .. .. ....|... .. .. ....
04 |C-6 .. .. ....|A-5 .. .. ....|F-2 .. .. ....|... .. .. ....|... .. .. ....|... .. .. ....|... .. .. ....|... .. .. ....|... .. .. ....|... .. .. ....|... .. .. ....|... .. .. ....|C-3 .. .. ....|... .. .. ....|... .. .. ....|... .. .. ....
05 |... .. .. ....|... .. .. ....|... .. .. ....|... .. .. ....|... .. .. ....|... .. .. ....|... .. .. ....|... .. .. ....|... .. .. ....|... .. .. ....|... .. .. ....|... .. .. ....|... .. .. ....|... .. .. ....|... .. .. ....|... .. .. ....
06 |OFF .. .. ....|OFF .. .. ....|G-2 .. .. ....|G-2 .. .. ....|B-2 .. .. ....|D-3 .. .. ....|... .. .. ....|... .. .. ....|... .. .. ....|C-3 .. .. ....|... .. .. ....|... .. .. ....|C-3 .. .. ....|... .. .. ....|... .. .. ....|... .. .. ....
07 |... .. .. ....|... .. .. ....|... .. .. ....|... .. .. ....|... .. .. ....|... .. .. ....|... .. .. ....|... .. .. ....|... .. .. ....|... .. .. ....|... .. .. ....|... .. .. ....|... .. .. ....|... .. .. ....|... .. .. ....|... .. .. ....
08 |B-5 .. .. ....|G-5 .. .. ....|G-3 .. .. ....|... .. .. ....|... .. .. ....|... .. .. ....|... .. .. ....|... .. .. ....|... .. .. ....|... .. .. ....|... .. .. ....|... .. .. ....|C-3 .. .. ....|... .. .. ....|... .. .. ....|... .. .. ....
09 |... .. .. ....|... .. .. ....|... .. .. ....|... .. .. ....|... .. .. ....|... .. .. ....|... .. .. ....|... .. .. ....|... .. .. ....|... .. .. ....|... .. .. ....|... .. .. ....|... .. .. ....|... .. .. ....|... .. .. ....|... .. .. ....
0A |C-6 .. .. ....|A-5 .. .. ....|G-2 .. .. ....|... .. .. ....|... .. .. ....|... .. .. ....|... .. .. ....|... .. .. ....|... .. .. ....|... .. .. ....|... .. .. ....|... .. .. ....|C-3 .. .. ....|... .. .. ....|... .. .. ....|... .. .. ....
0B |... .. .. ....|... .. .. ....|... .. .. ....|... .. .. ....|... .. .. ....|... .. .. ....|... .. .. ....|... .. .. ....|... .. .. ....|... .. .. ....|... .. .. ....|... .. .. ....|... .. .. ....|... .. .. ....|... .. .. ....|... .. .. ....
0C |D-6 .. .. ....|B-5 .. .. ....|G-2 .. .. ....|B-2 .. .. ....|D-3 .. .. ....|G-3 .. .. ....|... .. .. ....|... .. .. ....|... .. .. ....|C-3 .. .. ....|... .. .. ....|... .. .. ....|C-3 .. .. ....|... .. .. ....|... .. .. ....|... .. .. ....
0D |... .. .. ....|... .. .. ....|... .. .. ....|... .. .. ....|... .. .. ....|... .. .. ....|... .. .. ....|... .. .. ....|... .. .. ....|... .. .. ....|... .. .. ....|... .. .. ....|... .. .. ....|... .. .. ....|... .. .. ....|... .. .. ....
0E |E-6 .. .. ....|C-6 .. .. ....|G-3 .. .. ....|... .. .. ....|... .. .. ....|... .. .. ....|... .. .. ....|... .. .. ....|... .. .. ....|... .. .. ....|... .. .. ....|... .. .. ....|C-3 .. .. ....|... .. .. ....|... .. .. ....|... .. .. ....
0F |... .. .. ....|... .. .. ....|... .. .. ....|... .. .. ....|... .. .. ....|... .. .. ....|... .. .. ....|... .. .. ....|... .. .. ....|... .. .. ....|... .. .. ....|... .. .. ....|... .. .. ....|... .. .. ....|... .. .. ....|... .. .. ....
10 |B-5 .. .. ....|G-5 .. .. ....|E-2 .. .. ....|... .. .. ....|... .. .. ....|... .. .. ....|... .. .. ....|... .. .. ....|... .. .. ....|... .. .. ....|... .. .. ....|... .. .. ....|C-3 .. .. ....|... .. .. ....|... .. .. ....|... .. .. ....
11 |C-6 .. .. ....|A-5 .. .. ....|... .. .. ....|... .. .. ....|... .. .. ....|... .. .. ....|... .. .. ....|... .. .. ....|... .. .. ....|... .. .. ....|... .. .. ....|... .. .. ....|... .. .. ....|... .. .. ....|... .. .. ....|... .. .. ....
12 |B-5 .. .. ....|G-5 .. .. ....|E-3 .. .. ....|G-2 .. .. ....|B-2 .. .. ....|E-3 .. .. ....|... .. .. ....|... .. .. ....|... .. .. ....|C-3 .. .. ....|... .. .. ....|... .. .. ....|C-3 .. .. ....|... .. .. ....|... .. .. ....|... .. .. ....
13 |C-6 .. .. ....|A-5 .. .. ....|... .. .. ....|... .. .. ....|... .. .. ....|... .. .. ....|... .. .. ....|... .. .. ....|... .. .. ....|... .. .. ....|... .. .. ....|... .. .. ....|... .. .. ....|... .. .. ....|... .. .. ....|... .. .. ....
14 |G-5 .. .. ....|E-5 .. .. ....|E-2 .. .. ....|... .. .. ....|... .. .. ....|... .. .. ....|... .. .. ....|... .. .. ....|... .. .. ....|... .. .. ....|... .. .. ....|... .. .. ....|C-3 .. .. ....|... .. .. ....|... .. .. ....|... .. .. ....
15 |... .. .. ....|... .. .. ....|... .. .. ....|... .. .. ....|... .. .. ....|... .. .. ....|... .. .. ....|... .. .. ....|... .. .. ....|... .. .. ....|... .. .. ....|... .. .. ....|... .. .. ....|... .. .. ....|... .. .. ....|... .. .. ....
16 |E-5 .. .. ....|C-5 .. .. ....|E-3 .. .. ....|... .. .. ....|... .. .. ....|... .. .. ....|... .. .. ....|... .. .. ....|... .. .. ....|... .. .. ....|... .. .. ....|C-3 00 .. ....|... .. .. ....|... .. .. ....|... .. .. ....|... .. .. ....
17 |... .. .. ....|... .. .. ....|... .. .. ....|... .. .. ....|... .. .. ....|... .. .. ....|... .. .. ....|... .. .. ....|... .. .. ....|... .. .. ....|... .. .. ....|... .. .. ....|... .. .. ....|... .. .. ....|... .. .. ....|... .. .. ....
18 |A-5 .. .. ....|E-5 .. .. ....|A-2 .. .. ....|C-3 .. .. ....|E-3 .. .. ....|A-3 .. .. ....|... .. .. ....|... .. .. ....|... .. .. ....|... .. .. ....|C-3 00 .. ....|... .. .. ....|... .. .. ....|... .. .. ....|... .. .. ....|... .. .. ....
19 |... .. .. ....|... .. .. ....|B-2 .. .. ....|... .. .. ....|... .. .. ....|... .. .. ....|... .. .. ....|... .. .. ....|... .. .. ....|... .. .. ....|C-3 .. .. ....|... .. .. ....|... .. .. ....|... .. .. ....|... .. .. ....|... .. .. ....
1A |... .. .. ....|... .. .. ....|C-3 .. .. ....|... .. .. ....|... .. .. ....|... .. .. ....|... .. .. ....|... .. .. ....|... .. .. ....|... .. .. ....|C-3 .. .. ....|... .. .. ....|... .. .. ....|... .. .. ....|... .. .. ....|... .. .. ....
1B |... .. .. ....|... .. .. ....|E-3 .. .. ....|... .. .. ....|... .. .. ....|... .. .. ....|... .. .. ....|... .. .. ....|... .. .. ....|... .. .. ....|C-3 .. .. ....|... .. .. ....|... .. .. ....|... .. .. ....|... .. .. ....|... .. .. ....
1C |OFF .. .. ....|OFF .. .. ....|A-3 .. .. ....|OFF .. .. ....|OFF .. .. ....|OFF .. .. ....|... .. .. ....|... .. .. ....|... .. .. ....|... .. .. ....|... .. .. ....|C-3 01 .. ....|... .. .. ....|... .. .. ....|... .. .. ....|... .. .. ....
1D |... .. .. ....|... .. .. ....|... .. .. ....|... .. .. ....|... .. .. ....|... .. .. ....|... .. .. ....|... .. .. ....|... .. .. ....|... .. .. ....|... .. .. ....|... .. .. ....|... .. .. ....|... .. .. ....|... .. .. ....|... .. .. ....
1E |... .. .. ....|... .. .. ....|OFF .. .. ....|... .. .. ....|... .. .. ....|... .. .. ....|... .. .. ....|... .. .. ....|... .. .. ....|... .. .. ....|... .. .. ....|... .. .. ....|... .. .. ....|... .. .. ....|... .. .. ....|... .. .. ....
1F |... .. .. ....|... .. .. ....|... .. .. ....|... .. .. ....|... .. .. ....|... .. .. ....|... .. .. ....|... .. .. ....|... .. .. ....|... .. .. ....|... .. .. ....|... .. .. ....|... .. .. ....|... .. .. ....|... .. .. ....|... .. .. ..01
----- ORDER 16
00 |A-5 04 75 ....|E-5 04 75 ....|F-2 .. .. ....|A-2 01 72 ....|C-3 01 72 ....|F-3 01 72 ....|... .. .. ....|... .. .. ....|... .. .. ....|C-4 .. .. ....|... .. .. ....|... .. .. ....|C-3 .. .. ....|... .. .. ....|... .. .. ....|... .. .. ....
01 |... .. .. ....|... .. .. ....|... .. .. ....|... .. .. ....|... .. .. ....|... .. .. ....|... .. .. ....|... .. .. ....|... .. .. ....|... .. .. ....|... .. .. ....|... .. .. ....|C-3 .. .. ....|... .. .. ....|... .. .. ....|... .. .. ....
02 |B-5 .. .. ....|G-5 .. .. ....|F-3 .. .. ....|... .. .. ....|... .. .. ....|... .. .. ....|... .. .. ....|... .. .. ....|... .. .. ....|... .. .. ....|C-4 00 .. ....|... .. .. ....|C-3 .. .. ....|... .. .. ....|... .. .. ....|... .. .. ....
03 |... .. .. ....|... .. .. ....|... .. .. ....|... .. .. ....|... .. .. ....|... .. .. ....|... .. .. ....|... .. .. ....|... .. .. ....|... .. .. ....|... .. .. ....|... .. .. ....|C-3 .. .. ....|... .. .. ....|... .. .. ....|... .. .. ....
04 |C-6 .. .. ....|A-5 .. .. ....|F-2 .. .. ....|... .. .. ....|... .. .. ....|... .. .. ....|... .. .. ....|... .. .. ....|... .. .. ....|C-4 .. .. ....|... .. .. ....|... .. .. ....|C-3 .. .. ....|... .. .. ....|... .. .. ....|... .. .. ....
05 |... .. .. ....|... .. .. ....|... .. .. ....|... .. .. ....|... .. .. ....|... .. .. ....|... .. .. ....|... .. .. ....|... .. .. ....|... .. .. ....|... .. .. ....|... .. .. ....|C-3 .. .. ....|... .. .. ....|... .. .. ....|... .. .. ....
06 |OFF .. .. ....|OFF .. .. ....|G-2 .. .. ....|G-2 .. .. ....|B-2 .. .. ....|D-3 .. .. ....|... .. .. ....|... .. .. ....|... .. .. ....|... .. .. ....|C-4 .. .. ....|... .. .. ....|C-3 .. .. ....|... .. .. ....|... .. .. ....|... .. .. ....
07 |... .. .. ....|... .. .. ....|... .. .. ....|... .. .. ....|... .. .. ....|... .. .. ....|... .. .. ....|... .. .. ....|... .. .. ....|... .. .. ....|... .. .. ....|... .. .. ....|C-3 .. .. ....|... .. .. ....|... .. .. ....|... .. .. ....
08 |B-5 .. .. ....|G-5 .. .. ....|G-3 .. .. ....|... .. .. ....|... .. .. ....|... .. .. ....|... .. .. ....|... .. .. ....|... .. .. ....|C-4 .. .. ....|... .. .. ....|... .. .. ....|C-3 .. .. ....|... .. .. ....|... .. .. ....|... .. .. ....
09 |... .. .. ....|... .. .. ....|... .. .. ....|... .. .. ....|... .. .. ....|... .. .. ....|... .. .. ....|... .. .. ....|... .. .. ....|... .. .. ....|... .. .. ....|... .. .. ....|C-3 .. .. ....|... .. .. ....|... .. .. ....|... .. .. ....
0A |C-6 .. .. ....|A-5 .. .. ....|G-2 .. .. ....|... .. .. ....|... .. .. ....|... .. .. ....|... .. .. ....|... .. .. ....|... .. .. ....|... .. .. ....|C-4 .. .. ....|... .. .. ....|C-3 .. .. ....|... .. .. ....|... .. .. ....|... .. .. ....
0B |... .. .. ....|... .. .. ....|... .. .. ....|... .. .. ....|... .. .. ....|... .. .. ....|... .. .. ....|... .. .. ....|... .. .. ....|... .. .. ....|... .. .. ....|... .. .. ....|C-3 .. .. ....|... .. .. ....|... .. .. ....|... .. .. ....
0C |D-6 .. .. ....|B-5 .. .. ....|G-2 .. .. ....|B-2 .. .. ....|D-3 .. .. ....|G-3 .. .. ....|... .. .. ....|... .. .. ....|... .. .. ....|C-4 .. .. ....|... .. .. ....|... .. .. ....|C-3 .. .. ....|... .. .. ....|... .. .. ....|... .. .. ....
0D |... .. .. ....|... .. .. ....|... .. .. ....|... .. .. ....|... .. .. ....|... .. .. ....|... .. .. ....|... .. .. ....|... .. .. ....|... .. .. ....|... .. .. ....|... .. .. ....|C-3 .. .. ....|... .. .. ....|... .. .. ....|... .. .. ....
0E |OFF .. .. ....|OFF .. .. ....|G-3 .. .. ....|... .. .. ....|... .. .. ....|... .. .. ....|... .. .. ....|... .. .. ....|... .. .. ....|... .. .. ....|C-4 .. .. ....|... .. .. ....|C-3 .. .. ....|... .. .. ....|... .. .. ....|... .. .. ....
0F |... .. .. ....|... .. .. ....|... .. .. ....|... .. .. ....|... .. .. ....|... .. .. ....|... .. .. ....|... .. .. ....|... .. .. ....|... .. .. ....|... .. .. ....|... .. .. ....|C-3 .. .. ....|... .. .. ....|... .. .. ....|... .. .. ....
10 |C-6 .. .. ....|A-5 .. .. ....|E-2 .. .. ....|... .. .. ....|... .. .. ....|... .. .. ....|... .. .. ....|... .. .. ....|... .. .. ....|C-4 .. .. ....|... .. .. ....|... .. .. ....|C-3 .. .. ....|... .. .. ....|... .. .. ....|... .. .. ....
11 |... .. .. ....|... .. .. ....|... .. .. ....|... .. .. ....|... .. .. ....|... .. .. ....|... .. .. ....|... .. .. ....|... .. .. ....|... .. .. ....|... .. .. ....|... .. .. ....|C-3 .. .. ....|... .. .. ....|... .. .. ....|... .. .. ....
12 |B-5 .. .. ....|G-5 .. .. ....|E-3 .. .. ....|G-2 .. .. ....|B-2 .. .. ....|E-3 .. .. ....|... .. .. ....|... .. .. ....|... .. .. ....|... .. .. ....|C-4 .. .. ....|... .. .. ....|C-3 .. .. ....|... .. .. ....|... .. .. ....|... .. .. ....
13 |... .. .. ....|... .. .. ....|... .. .. ....|... .. .. ....|... .. .. ....|... .. .. ....|... .. .. ....|... .. .. ....|... .. .. ....|... .. .. ....|... .. .. ....|... .. .. ....|C-3 .. .. ....|... .. .. ....|... .. .. ....|... .. .. ....
14 |A-5 .. .. ....|E-5 .. .. ....|E-2 .. .. ....|... .. .. ....|... .. .. ....|... .. .. ....|... .. .. ....|... .. .. ....|... .. .. ....|C-4 .. .. ....|... .. .. ....|... .. .. ....|C-3 .. .. ....|... .. .. ....|... .. .. ....|... .. .. ....
15 |... .. .. ....|... .. .. ....|... .. .. ....|... .. .. ....|... .. .. ....|... .. .. ....|... .. .. ....|... .. .. ....|... .. .. ....|... .. .. ....|... .. .. ....|... .. .. ....|C-3 .. .. ....|... .. .. ....|... .. .. ....|... .. .. ....
16 |G-5 .. .. ....|D-5 .. .. ....|E-3 .. .. ....|... .. .. ....|... .. .. ....|... .. .. ....|... .. .. ....|... .. .. ....|... .. .. ....|... .. .. ....|C-4 .. .. ....|... .. .. ....|C-3 .. .. ....|... .. .. ....|... .. .. ....|... .. .. ....
17 |... .. .. ....|... .. .. ....|... .. .. ....|... .. .. ....|... .. .. ....|... .. .. ....|... .. .. ....|... .. .. ....|... .. .. ....|... .. .. ....|... .. .. ....|... .. .. ....|C-3 .. .. ....|... .. .. ....|... .. .. ....|... .. .. ....
18 |A-5 .. .. ....|E-5 .. .. ....|A-2 .. .. ....|C-3 .. .. ....|E-3 .. .. ....|A-3 .. .. ....|... .. .. ....|... .. .. ....|... .. .. ....|C-4 .. .. ....|... .. .. ....|... .. .. ....|C-3 .. .. ....|... .. .. ....|... .. .. ....|... .. .. ....
19 |... .. .. ....|... .. .. ....|... .. .. ....|... .. .. ....|... .. .. ....|... .. .. ....|... .. .. ....|... .. .. ....|... .. .. ....|... .. .. ....|... .. .. ....|... .. .. ....|C-3 .. .. ....|... .. .. ....|... .. .. ....|... .. .. ....
1A |E-5 .. .. ....|C-5 .. .. ....|A-3 .. .. ....|... .. .. ....|... .. .. ....|... .. .. ....|... .. .. ....|... .. .. ....|... .. .. ....|... .. .. ....|C-4 .. .. ....|... .. .. ....|C-3 .. .. ....|... .. .. ....|... .. .. ....|... .. .. ....
1B |... .. .. ....|... .. .. ....|... .. .. ....|... .. .. ....|... .. .. ....|... .. .. ....|... .. .. ....|... .. .. ....|... .. .. ....|... .. .. ....|C-4 .. .. ....|... .. .. ....|C-3 .. .. ....|... .. .. ....|... .. .. ....|... .. .. ....
1C |G-5 .. .. ....|D-5 .. .. ....|G-2 .. .. ....|B-2 .. .. ....|D-3 .. .. ....|G-3 .. .. ....|... .. .. ....|... .. .. ....|... .. .. ....|C-4 .. .. ....|... .. .. ....|... .. .. ....|C-3 .. .. ....|... .. .. ....|... .. .. ....|... .. .. ....
1D |... .. .. ....|... .. .. ....|... .. .. ....|... .. .. ....|... .. .. ....|... .. .. ....|... .. .. ....|... .. .. ....|... .. .. ....|C-4 .. .. ....|... .. .. ....|... .. .. ....|C-3 .. .. ....|... .. .. ....|... .. .. ....|... .. .. ....
1E |A-5 .. .. ....|E-5 .. .. ....|G-3 .. .. ....|... .. .. ....|... .. .. ....|... .. .. ....|... .. .. ....|... .. .. ....|... .. .. ....|... .. .. ....|C-4 .. .. ....|... .. .. ....|C-3 .. .. ....|... .. .. ....|... .. .. ....|... .. .. ....
1F |... .. .. ....|... .. .. ....|... .. .. ....|... .. .. ....|... .. .. ....|... .. .. ....|... .. .. ....|... .. .. ....|... .. .. ....|... .. .. ....|... .. .. ....|... .. .. ....|C-3 .. .. ....|... .. .. ....|... .. .. ....|... .. .. ..01
----- ORDER 17
00 |A-5 .. .. ....|E-5 .. .. ....|F-2 .. .. ....|A-2 01 72 ....|C-3 01 72 ....|F-3 01 72 ....|... .. .. ....|... .. .. ....|... .. .. ....|C-4 .. .. ....|... .. .. ....|... .. .. ....|C-3 .. .. ....|... .. .. ....|... .. .. ....|... .. .. ....
01 |... .. .. ....|... .. .. ....|... .. .. ....|... .. .. ....|... .. .. ....|... .. .. ....|... .. .. ....|... .. .. ....|... .. .. ....|... .. .. ....|... .. .. ....|... .. .. ....|C-3 .. .. ....|... .. .. ....|... .. .. ....|... .. .. ....
02 |B-5 .. .. ....|G-5 .. .. ....|F-3 .. .. ....|... .. .. ....|... .. .. ....|... .. .. ....|... .. .. ....|... .. .. ....|... .. .. ....|... .. .. ....|C-4 00 .. ....|... .. .. ....|C-3 .. .. ....|... .. .. ....|... .. .. ....|... .. .. ....
03 |... .. .. ....|... .. .. ....|... .. .. ....|... .. .. ....|... .. .. ....|... .. .. ....|... .. .. ....|... .. .. ....|... .. .. ....|... .. .. ....|... .. .. ....|... .. .. ....|C-3 .. .. ....|... .. .. ....|... .. .. ....|... .. .. ....
04 |C-6 .. .. ....|A-5 .. .. ....|F-2 .. .. ....|... .. .. ....|... .. .. ....|... .. .. ....|... .. .. ....|... .. .. ....|... .. .. ....|C-4 .. .. ....|... .. .. ....|... .. .. ....|C-3 .. .. ....|... .. .. ....|... .. .. ....|... .. .. ....
05 |... .. .. ....|... .. .. ....|... .. .. ....|... .. .. ....|... .. .. ....|... .. .. ....|... .. .. ....|... .. .. ....|... .. .. ....|... .. .. ....|... .. .. ....|... .. .. ....|C-3 .. .. ....|... .. .. ....|... .. .. ....|... .. .. ....
06 |OFF .. .. ....|OFF .. .. ....|G-2 .. .. ....|G-2 .. .. ....|B-2 .. .. ....|D-3 .. .. ....|... .. .. ....|... .. .. ....|... .. .. ....|... .. .. ....|C-4 .. .. ....|... .. .. ....|C-3 .. .. ....|... .. .. ....|... .. .. ....|... .. .. ....
07 |... .. .. ....|... .. .. ....|... .. .. ....|... .. .. ....|... .. .. ....|... .. .. ....|... .. .. ....|... .. .. ....|... .. .. ....|... .. .. ....|... .. .. ....|... .. .. ....|C-3 .. .. ....|... .. .. ....|... .. .. ....|... .. .. ....
08 |B-5 .. .. ....|G-5 .. .. ....|G-3 .. .. ....|... .. .. ....|... .. .. ....|... .. .. ....|... .. .. ....|... .. .. ....|... .. .. ....|C-4 .. .. ....|... .. .. ....|... .. .. ....|C-3 .. .. ....|... .. .. ....|... .. .. ....|... .. .. ....
09 |... .. .. ....|... .. .. ....|... .. .. ....|... .. .. ....|... .. .. ....|... .. .. ....|... .. .. ....|... .. .. ....|... .. .. ....|... .. .. ....|... .. .. ....|... .. .. ....|C-3 .. .. ....|... .. .. ....|... .. .. ....|... .. .. ....
0A |C-6 .. .. ....|A-5 .. .. ....|G-2 .. .. ....|... .. .. ....|... .. .. ....|... .. .. ....|... .. .. ....|... .. .. ....|... .. .. ....|... .. .. ....|C-4 .. .. ....|... .. .. ....|C-3 .. .. ....|... .. .. ....|... .. .. ....|... .. .. ....
0B |... .. .. ....|... .. .. ....|... .. .. ....|... .. .. ....|... .. .. ....|... .. .. ....|... .. .. ....|... .. .. ....|... .. .. ....|... .. .. ....|... .. .. ....|... .. .. ....|C-3 .. .. ....|... .. .. ....|... .. .. ....|... .. .. ....
0C |D-6 .. .. ....|B-5 .. .. ....|G-2 .. .. ....|B-2 .. .. ....|D-3 .. .. ....|G-3 .. .. ....|... .. .. ....|... .. .. ....|... .. .. ....|C-4 .. .. ....|... .. .. ....|... .. .. ....|C-3 .. .. ....|... .. .. ....|... .. .. ....|... .. .. ....
0D |... .. .. ....|... .. .. ....|... .. .. ....|... .. .. ....|... .. .. ....|... .. .. ....|... .. .. ....|... .. .. ....|... .. .. ....|... .. .. ....|... .. .. ....|... .. .. ....|C-3 .. .. ....|... .. .. ....|... .. .. ....|... .. .. ....
0E |E-6 .. .. ....|C-6 .. .. ....|G-3 .. .. ....|... .. .. ....|... .. .. ....|... .. .. ....|... .. .. ....|... .. .. ....|... .. .. ....|... .. .. ....|C-4 .. .. ....|... .. .. ....|C-3 .. .. ....|... .. .. ....|... .. .. ....|... .. .. ....
0F |... .. .. ....|... .. .. ....|... .. .. ....|... .. .. ....|... .. .. ....|... .. .. ....|... .. .. ....|... .. .. ....|... .. .. ....|... .. .. ....|... .. .. ....|... .. .. ....|C-3 .. .. ....|... .. .. ....|... .. .. ....|... .. .. ....
10 |B-5 .. .. ....|G-5 .. .. ....|E-2 .. .. ....|... .. .. ....|... .. .. ....|... .. .. ....|... .. .. ....|... .. .. ....|... .. .. ....|C-4 .. .. ....|... .. .. ....|... .. .. ....|C-3 .. .. ....|... .. .. ....|... .. .. ....|... .. .. ....
11 |C-6 .. .. ....|A-5 .. .. ....|... .. .. ....|... .. .. ....|... .. .. ....|... .. .. ....|... .. .. ....|... .. .. ....|... .. .. ....|... .. .. ....|... .. .. ....|... .. .. ....|C-3 .. .. ....|... .. .. ....|... .. .. ....|... .. .. ....
12 |B-5 .. .. ....|G-5 .. .. ....|E-3 .. .. ....|G-2 .. .. ....|B-2 .. .. ....|E-3 .. .. ....|... .. .. ....|... .. .. ....|... .. .. ....|... .. .. ....|C-4 .. .. ....|... .. .. ....|C-3 .. .. ....|... .. .. ....|... .. .. ....|... .. .. ....
13 |C-6 .. .. ....|A-5 .. .. ....|... .. .. ....|... .. .. ....|... .. .. ....|... .. .. ....|... .. .. ....|... .. .. ....|... .. .. ....|... .. .. ....|... .. .. ....|... .. .. ....|C-3 .. .. ....|... .. .. ....|... .. .. ....|... .. .. ....
14 |G-5 .. .. ....|E-5 .. .. ....|E-2 .. .. ....|... .. .. ....|... .. .. ....|... .. .. ....|... .. .. ....|... .. .. ....|... .. .. ....|C-4 .. .. ....|... .. .. ....|... .. .. ....|C-3 .. .. ....|... .. .. ....|... .. .. ....|... .. .. ....
15 |... .. .. ....|... .. .. ....|... .. .. ....|... .. .. ....|... .. .. ....|... .. .. ....|... .. .. ....|... .. .. ....|... .. .. ....|... .. .. ....|... .. .. ....|... .. .. ....|C-3 .. .. ....|... .. .. ....|... .. .. ....|... .. .. ....
16 |E-5 .. .. ....|C-5 .. .. ....|E-3 .. .. ....|... .. .. ....|... .. .. ....|... .. .. ....|... .. .. ....|... .. .. ....|... .. .. ....|... .. .. ....|C-4 .. .. ....|... .. .. ....|C-3 .. .. ....|... .. .. ....|... .. .. ....|... .. .. ....
17 |... .. .. ....|... .. .. ....|... .. .. ....|... .. .. ....|... .. .. ....|... .. .. ....|... .. .. ....|... .. .. ....|... .. .. ....|... .. .. ....|... .. .. ....|... .. .. ....|C-3 .. .. ....|... .. .. ....|... .. .. ....|... .. .. ....
18 |A-5 .. .. ....|E-5 .. .. ....|A-2 .. .. ....|C-3 .. .. ....|E-3 .. .. ....|A-3 .. .. ....|... .. .. ....|... .. .. ....|... .. .. ....|C-4 .. .. ....|... .. .. ....|... .. .. ....|C-3 .. .. ....|... .. .. ....|... .. .. ....|... .. .. ....
19 |... .. .. ....|... .. .. ....|... .. .. ....|... .. .. ....|... .. .. ....|... .. .. ....|... .. .. ....|... .. .. ....|... .. .. ....|... .. .. ....|... .. .. ....|... .. .. ....|C-3 .. .. ....|... .. .. ....|... .. .. ....|... .. .. ....
1A |... .. .. ....|... .. .. ....|A-3 .. .. ....|... .. .. ....|... .. .. ....|... .. .. ....|... .. .. ....|... .. .. ....|... .. .. ....|... .. .. ....|C-4 .. .. ....|... .. .. ....|C-3 .. .. ....|... .. .. ....|... .. .. ....|... .. .. ....
1B |... .. .. ....|... .. .. ....|... .. .. ....|... .. .. ....|... .. .. ....|... .. .. ....|... .. .. ....|... .. .. ....|... .. .. ....|... .. .. ....|C-4 .. .. ....|... .. .. ....|C-3 .. .. ....|... .. .. ....|... .. .. ....|... .. .. ....
1C |OFF .. .. ....|OFF .. .. ....|G-2 .. .. ....|B-2 .. .. ....|D-3 .. .. ....|G-3 .. .. ....|... .. .. ....|... .. .. ....|... .. .. ....|C-4 .. .. ....|... .. .. ....|... .. .. ....|C-3 .. .. ....|... .. .. ....|... .. .. ....|... .. .. ....
1D |... .. .. ....|... .. .. ....|... .. .. ....|... .. .. ....|... .. .. ....|... .. .. ....|... .. .. ....|... .. .. ....|... .. .. ....|C-4 .. .. ....|... .. .. ....|... .. .. ....|C-3 .. .. ....|... .. .. ....|... .. .. ....|... .. .. ....
1E |... .. .. ....|... .. .. ....|G-3 .. .. ....|... .. .. ....|... .. .. ....|... .. .. ....|... .. .. ....|... .. .. ....|... .. .. ....|... .. .. ....|C-4 .. .. ....|... .. .. ....|C-3 .. .. ....|... .. .. ....|... .. .. ....|... .. .. ....
1F |... .. .. ....|... .. .. ....|... .. .. ....|... .. .. ....|... .. .. ....|... .. .. ....|... .. .. ....|... .. .. ....|... .. .. ....|... .. .. ....|... .. .. ....|... .. .. ....|C-3 .. .. ....|... .. .. ....|... .. .. ....|... .. .. ..01
----- ORDER 18
00 |A-5 04 75 ....|E-5 04 75 ....|F-2 .. .. ....|A-2 01 72 ....|C-3 01 72 ....|F-3 01 72 ....|... .. .. ....|... .. .. ....|... .. .. ....|C-4 .. .. ....|... .. .. ....|... .. .. ....|C-3 .. .. ....|... .. .. ....|... .. .. ....|... .. .. ....
01 |... .. .. ....|... .. .. ....|... .. .. ....|... .. .. ....|... .. .. ....|... .. .. ....|... .. .. ....|... .. .. ....|... .. .. ....|... .. .. ....|... .. .. ....|... .. .. ....|C-3 .. .. ....|... .. .. ....|... .. .. ....|... .. .. ....
02 |B-5 .. .. ....|G-5 .. .. ....|F-3 .. .. ....|... .. .. ....|... .. .. ....|... .. .. ....|... .. .. ....|... .. .. ....|... .. .. ....|... .. .. ....|C-4 00 .. ....|... .. .. ....|C-3 .. .. ....|... .. .. ....|... .. .. ....|... .. .. ....
03 |... .. .. ....|... .. .. ....|... .. .. ....|... .. .. ....|... .. .. ....|... .. .. ....|... .. .. ....|... .. .. ....|... .. .. ....|... .. .. ....|... .. .. ....|... .. .. ....|C-3 .. .. ....|... .. .. ....|... .. .. ....|... .. .. ....
04 |C-6 .. .. ....|A-5 .. .. ....|F-2 .. .. ....|... .. .. ....|... .. .. ....|... .. .. ....|... .. .. ....|... .. .. ....|... .. .. ....|C-4 .. .. ....|... .. .. ....|... .. .. ....|C-3 .. .. ....|... .. .. ....|... .. .. ....|... .. .. ....
05 |... .. .. ....|... .. .. ....|... .. .. ....|... .. .. ....|... .. .. ....|... .. .. ....|... .. .. ....|... .. .. ....|... .. .. ....|... .. .. ....|... .. .. ....|... .. .. ....|C-3 .. .. ....|... .. .. ....|... .. .. ....|... .. .. ....
06 |OFF .. .. ....|OFF .. .. ....|G-2 .. .. ....|G-2 .. .. ....|B-2 .. .. ....|D-3 .. .. ....|... .. .. ....|... .. .. ....|... .. .. ....|... .. .. ....|C-4 .. .. ....|... .. .. ....|C-3 .. .. ....|... .. .. ....|... .. .. ....|... .. .. ....
07 |... .. .. ....|... .. .. ....|... .. .. ....|... .. .. ....|... .. .. ....|... .. .. ....|... .. .. ....|... .. .. ....|... .. .. ....|... .. .. ....|... .. .. ....|... .. .. ....|C-3 .. .. ....|... .. .. ....|... .. .. ....|... .. .. ....
08 |B-5 .. .. ....|G-5 .. .. ....|G-3 .. .. ....|... .. .. ....|... .. .. ....|... .. .. ....|... .. .. ....|... .. .. ....|... .. .. ....|C-4 .. .. ....|... .. .. ....|... .. .. ....|C-3 .. .. ....|... .. .. ....|... .. .. ....|... .. .. ....
09 |... .. .. ....|... .. .. ....|... .. .. ....|... .. .. ....|... .. .. ....|... .. .. ....|... .. .. ....|... .. .. ....|... .. .. ....|... .. .. ....|... .. .. ....|... .. .. ....|C-3 .. .. ....|... .. .. ....|... .. .. ....|... .. .. ....
0A |C-6 .. .. ....|A-5 .. .. ....|G-2 .. .. ....|... .. .. ....|... .. .. ....|... .. .. ....|... .. .. ....|... .. .. ....|... .. .. ....|... .. .. ....|C-4 .. .. ....|... .. .. ....|C-3 .. .. ....|... .. .. ....|... .. .. ....|... .. .. ....
0B |... .. .. ....|... .. .. ....|... .. .. ....|... .. .. ....|... .. .. ....|... .. .. ....|... .. .. ....|... .. .. ....|... .. .. ....|... .. .. ....|... .. .. ....|... .. .. ....|C-3 .. .. ....|... .. .. ....|... .. .. ....|... .. .. ....
0C |D-6 .. .. ....|B-5 .. .. ....|G-2 .. .. ....|B-2 .. .. ....|D-3 .. .. ....|G-3 .. .. ....|... .. .. ....|... .. .. ....|... .. .. ....|C-4 .. .. ....|... .. .. ....|... .. .. ....|C-3 .. .. ....|... .. .. ....|... .. .. ....|... .. .. ....
0D |... .. .. ....|... .. .. ....|... .. .. ....|... .. .. ....|... .. .. ....|... .. .. ....|... .. .. ....|... .. .. ....|... .. .. ....|... .. .. ....|... .. .. ....|... .. .. ....|C-3 .. .. ....|... .. .. ....|... .. .. ....|... .. .. ....
0E |OFF .. .. ....|OFF .. .. ....|G-3 .. .. ....|... .. .. ....|... .. .. ....|... .. .. ....|... .. .. ....|... .. .. ....|... .. .. ....|... .. .. ....|C-4 .. .. ....|... .. .. ....|C-3 .. .. ....|... .. .. ....|... .. .. ....|... .. .. ....
0F |... .. .. ....|... .. .. ....|... .. .. ....|... .. .. ....|... .. .. ....|... .. .. ....|... .. .. ....|... .. .. ....|... .. .. ....|... .. .. ....|... .. .. ....|... .. .. ....|C-3 .. .. ....|... .. .. ....|... .. .. ....|... .. .. ....
10 |C-6 .. .. ....|A-5 .. .. ....|E-2 .. .. ....|... .. .. ....|... .. .. ....|... .. .. ....|... .. .. ....|... .. .. ....|... .. .. ....|C-4 .. .. ....|... .. .. ....|... .. .. ....|C-3 .. .. ....|... .. .. ....|... .. .. ....|... .. .. ....
11 |... .. .. ....|... .. .. ....|... .. .. ....|... .. .. ....|... .. .. ....|... .. .. ....|... .. .. ....|... .. .. ....|... .. .. ....|... .. .. ....|... .. .. ....|... .. .. ....|C-3 .. .. ....|... .. .. ....|... .. .. ....|... .. .. ....
12 |B-5 .. .. ....|G-5 .. .. ....|E-3 .. .. ....|G-2 .. .. ....|B-2 .. .. ....|E-3 .. .. ....|... .. .. ....|... .. .. ....|... .. .. ....|... .. .. ....|C-4 .. .. ....|... .. .. ....|C-3 .. .. ....|... .. .. ....|... .. .. ....|... .. .. ....
13 |... .. .. ....|... .. .. ....|... .. .. ....|... .. .. ....|... .. .. ....|... .. .. ....|... .. .. ....|... .. .. ....|... .. .. ....|... .. .. ....|... .. .. ....|... .. .. ....|C-3 .. .. ....|... .. .. ....|... .. .. ....|... .. .. ....
14 |A-5 .. .. ....|E-5 .. .. ....|E-2 .. .. ....|... .. .. ....|... .. .. ....|... .. .. ....|... .. .. ....|... .. .. ....|... .. .. ....|C-4 .. .. ....|... .. .. ....|... .. .. ....|C-3 .. .. ....|... .. .. ....|... .. .. ....|... .. .. ....
15 |... .. .. ....|... .. .. ....|... .. .. ....|... .. .. ....|... .. .. ....|... .. .. ....|... .. .. ....|... .. .. ....|... .. .. ....|... .. .. ....|... .. .. ....|... .. .. ....|C-3 .. .. ....|... .. .. ....|... .. .. ....|... .. .. ....
16 |G-5 .. .. ....|D-5 .. .. ....|E-3 .. .. ....|... .. .. ....|... .. .. ....|... .. .. ....|... .. .. ....|... .. .. ....|... .. .. ....|... .. .. ....|C-4 .. .. ....|... .. .. ....|C-3 .. .. ....|... .. .. ....|... .. .. ....|... .. .. ....
17 |... .. .. ....|... .. .. ....|... .. .. ....|... .. .. ....|... .. .. ....|... .. .. ....|... .. .. ....|... .. .. ....|... .. .. ....|... .. .. ....|... .. .. ....|... .. .. ....|C-3 .. .. ....|... .. .. ....|... .. .. ....|... .. .. ....
18 |A-5 .. .. ....|E-5 .. .. ....|A-2 .. .. ....|C-3 .. .. ....|E-3 .. .. ....|A-3 .. .. ....|... .. .. ....|... .. .. ....|... .. .. ....|C-4 .. .. ....|... .. .. ....|... .. .. ....|C-3 .. .. ....|... .. .. ....|... .. .. ....|... .. .. ....
19 |... .. .. ....|... .. .. ....|... .. .. ....|... .. .. ....|... .. .. ....|... .. .. ....|... .. .. ....|... .. .. ....|... .. .. ....|... .. .. ....|... .. .. ....|... .. .. ....|C-3 .. .. ....|... .. .. ....|... .. .. ....|... .. .. ....
1A |E-5 .. .. ....|C-5 .. .. ....|A-3 .. .. ....|... .. .. ....|... .. .. ....|... .. .. ....|... .. .. ....|... .. .. ....|... .. .. ....|... .. .. ....|C-4 .. .. ....|... .. .. ....|C-3 .. .. ....|... .. .. ....|... .. .. ....|... .. .. ....
1B |... .. .. ....|... .. .. ....|... .. .. ....|... .. .. ....|... .. .. ....|... .. .. ....|... .. .. ....|... .. .. ....|... .. .. ....|... .. .. ....|C-4 .. .. ....|... .. .. ....|C-3 .. .. ....|... .. .. ....|... .. .. ....|... .. .. ....
1C |G-5 .. .. ....|D-5 .. .. ....|G-2 .. .. ....|B-2 .. .. ....|D-3 .. .. ....|G-3 .. .. ....|... .. .. ....|... .. .. ....|... .. .. ....|C-4 .. .. ....|... .. .. ....|... .. .. ....|C-3 .. .. ....|... .. .. ....|... .. .. ....|... .. .. ....
1D |... .. .. ....|... .. .. ....|... .. .. ....|... .. .. ....|... .. .. ....|... .. .. ....|... .. .. ....|... .. .. ....|... .. .. ....|C-4 .. .. ....|... .. .. ....|... .. .. ....|C-3 .. .. ....|... .. .. ....|... .. .. ....|... .. .. ....
1E |A-5 .. .. ....|E-5 .. .. ....|G-3 .. .. ....|... .. .. ....|... .. .. ....|... .. .. ....|... .. .. ....|... .. .. ....|... .. .. ....|... .. .. ....|C-4 .. .. ....|... .. .. ....|C-3 .. .. ....|... .. .. ....|... .. .. ....|... .. .. ....
1F |... .. .. ....|... .. .. ....|... .. .. ....|... .. .. ....|... .. .. ....|... .. .. ....|... .. .. ....|... .. .. ....|... .. .. ....|... .. .. ....|... .. .. ....|... .. .. ....|C-3 .. .. ....|... .. .. ....|... .. .. ....|... .. .. ..01
----- ORDER 19
00 |A-5 .. .. ....|E-5 .. .. ....|F-2 .. .. ....|A-2 01 72 ....|C-3 01 72 ....|F-3 01 72 ....|... .. .. ....|... .. .. ....|... .. .. ....|C-4 .. .. ....|... .. .. ....|... .. .. ....|C-3 .. .. ....|... .. .. ....|... .. .. ....|... .. .. ....
01 |... .. .. ....|... .. .. ....|... .. .. ....|... .. .. ....|... .. .. ....|... .. .. ....|... .. .. ....|... .. .. ....|... .. .. ....|... .. .. ....|... .. .. ....|... .. .. ....|C-3 .. .. ....|... .. .. ....|... .. .. ....|... .. .. ....
02 |B-5 .. .. ....|G-5 .. .. ....|F-3 .. .. ....|... .. .. ....|... .. .. ....|... .. .. ....|... .. .. ....|... .. .. ....|... .. .. ....|... .. .. ....|C-4 00 .. ....|... .. .. ....|C-3 .. .. ....|... .. .. ....|... .. .. ....|... .. .. ....
03 |... .. .. ....|... .. .. ....|... .. .. ....|... .. .. ....|... .. .. ....|... .. .. ....|... .. .. ....|... .. .. ....|... .. .. ....|... .. .. ....|... .. .. ....|... .. .. ....|C-3 .. .. ....|... .. .. ....|... .. .. ....|... .. .. ....
04 |C-6 .. .. ....|A-5 .. .. ....|F-2 .. .. ....|... .. .. ....|... .. .. ....|... .. .. ....|... .. .. ....|... .. .. ....|... .. .. ....|C-4 .. .. ....|... .. .. ....|... .. .. ....|C-3 .. .. ....|... .. .. ....|... .. .. ....|... .. .. ....
05 |... .. .. ....|... .. .. ....|... .. .. ....|... .. .. ....|... .. .. ....|... .. .. ....|... .. .. ....|... .. .. ....|... .. .. ....|... .. .. ....|... .. .. ....|... .. .. ....|C-3 .. .. ....|... .. .. ....|... .. .. ....|... .. .. ....
06 |OFF .. .. ....|OFF .. .. ....|G-2 .. .. ....|G-2 .. .. ....|B-2 .. .. ....|D-3 .. .. ....|... .. .. ....|... .. .. ....|... .. .. ....|... .. .. ....|C-4 .. .. ....|... .. .. ....|C-3 .. .. ....|... .. .. ....|... .. .. ....|... .. .. ....
07 |... .. .. ....|... .. .. ....|... .. .. ....|... .. .. ....|... .. .. ....|... .. .. ....|... .. .. ....|... .. .. ....|... .. .. ....|... .. .. ....|... .. .. ....|... .. .. ....|C-3 .. .. ....|... .. .. ....|... .. .. ....|... .. .. ....
08 |B-5 .. .. ....|G-5 .. .. ....|G-3 .. .. ....|... .. .. ....|... .. .. ....|... .. .. ....|... .. .. ....|... .. .. ....|... .. .. ....|C-4 .. .. ....|... .. .. ....|... .. .. ....|C-3 .. .. ....|... .. .. ....|... .. .. ....|... .. .. ....
09 |... .. .. ....|... .. .. ....|... .. .. ....|... .. .. ....|... .. .. ....|... .. .. ....|... .. .. ....|... .. .. ....|... .. .. ....|... .. .. ....|... .. .. ....|... .. .. ....|C-3 .. .. ....|... .. .. ....|... .. .. ....|... .. .. ....
0A |C-6 .. .. ....|A-5 .. .. ....|G-2 .. .. ....|... .. .. ....|... .. .. ....|... .. .. ....|... .. .. ....|... .. .. ....|... .. .. ....|... .. .. ....|C-4 .. .. ....|... .. .. ....|C-3 .. .. ....|... .. .. ....|... .. .. ....|... .. .. ....
0B |... .. .. ....|... .. .. ....|... .. .. ....|... .. .. ....|... .. .. ....|... .. .. ....|... .. .. ....|... .. .. ....|... .. .. ....|... .. .. ....|... .. .. ....|... .. .. ....|C-3 .. .. ....|... .. .. ....|... .. .. ....|... .. .. ....
0C |D-6 .. .. ....|B-5 .. .. ....|G-2 .. .. ....|B-2 .. .. ....|D-3 .. .. ....|G-3 .. .. ....|... .. .. ....|... .. .. ....|... .. .. ....|C-4 .. .. ....|... .. .. ....|... .. .. ....|C-3 .. .. ....|... .. .. ....|... .. .. ....|... .. .. ....
0D |... .. .. ....|... .. .. ....|... .. .. ....|... .. .. ....|... .. .. ....|... .. .. ....|... .. .. ....|... .. .. ....|... .. .. ....|... .. .. ....|... .. .. ....|... .. .. ....|C-3 .. .. ....|... .. .. ....|... .. .. ....|... .. .. ....
0E |E-6 .. .. ....|C-6 .. .. ....|G-3 .. .. ....|... .. .. ....|... .. .. ....|... .. .. ....|... .. .. ....|... .. .. ....|... .. .. ....|... .. .. ....|C-4 .. .. ....|... .. .. ....|C-3 .. .. ....|... .. .. ....|... .. .. ....|... .. .. ....
0F |... .. .. ....|... .. .. ....|... .. .. ....|... .. .. ....|... .. .. ....|... .. .. ....|... .. .. ....|... .. .. ....|... .. .. ....|... .. .. ....|... .. .. ....|... .. .. ....|C-3 .. .. ....|... .. .. ....|... .. .. ....|... .. .. ....
10 |B-5 .. .. ....|G-5 .. .. ....|E-2 .. .. ....|... .. .. ....|... .. .. ....|... .. .. ....|... .. .. ....|... .. .. ....|... .. .. ....|C-4 .. .. ....|... .. .. ....|... .. .. ....|C-3 .. .. ....|... .. .. ....|... .. .. ....|... .. .. ....
11 |C-6 .. .. ....|A-5 .. .. ....|... .. .. ....|... .. .. ....|... .. .. ....|... .. .. ....|... .. .. ....|... .. .. ....|... .. .. ....|... .. .. ....|... .. .. ....|... .. .. ....|C-3 .. .. ....|... .. .. ....|... .. .. ....|... .. .. ....
12 |B-5 .. .. ....|G-5 .. .. ....|E-3 .. .. ....|G-2 .. .. ....|B-2 .. .. ....|E-3 .. .. ....|... .. .. ....|... .. .. ....|... .. .. ....|... .. .. ....|C-4 .. .. ....|... .. .. ....|C-3 .. .. ....|... .. .. ....|... .. .. ....|... .. .. ....
13 |C-6 .. .. ....|A-5 .. .. ....|... .. .. ....|... .. .. ....|... .. .. ....|... .. .. ....|... .. .. ....|... .. .. ....|... .. .. ....|... .. .. ....|... .. .. ....|... .. .. ....|C-3 .. .. ....|... .. .. ....|... .. .. ....|... .. .. ....
14 |G-5 .. .. ....|E-5 .. .. ....|E-2 .. .. ....|... .. .. ....|... .. .. ....|... .. .. ....|... .. .. ....|... .. .. ....|... .. .. ....|C-4 .. .. ....|... .. .. ....|... .. .. ....|C-3 .. .. ....|... .. .. ....|... .. .. ....|... .. .. ....
15 |... .. .. ....|... .. .. ....|... .. .. ....|... .. .. ....|... .. .. ....|... .. .. ....|... .. .. ....|... .. .. ....|... .. .. ....|... .. .. ....|... .. .. ....|... .. .. ....|C-3 .. .. ....|... .. .. ....|... .. .. ....|... .. .. ....
16 |E-5 .. .. ....|C-5 .. .. ....|E-3 .. .. ....|... .. .. ....|... .. .. ....|... .. .. ....|... .. .. ....|... .. .. ....|... .. .. ....|... .. .. ....|C-4 .. .. ....|... .. .. ....|C-3 .. .. ....|... .. .. ....|... .. .. ....|... .. .. ....
17 |... .. .. ....|... .. .. ....|... .. .. ....|... .. .. ....|... .. .. ....|... .. .. ....|... .. .. ....|... .. .. ....|... .. .. ....|... .. .. ....|... .. .. ....|... .. .. ....|C-3 .. .. ....|... .. .. ....|... .. .. ....|... .. .. ....
18 |A-5 .. .. ....|E-5 .. .. ....|A-2 .. .. ....|C-3 .. .. ....|E-3 .. .. ....|A-3 .. .. ....|... .. .. ....|... .. .. ....|... .. .. ....|... .. .. ....|C-4 .. .. ....|... .. .. ....|C-3 .. .. ....|... .. .. ....|... .. .. ....|... .. .. ....
19 |... .. .. ....|... .. .. ....|B-2 .. .. ....|... .. .. ....|... .. .. ....|... .. .. ....|... .. .. ....|... .. .. ....|... .. .. ....|... .. .. ....|C-4 .. .. ....|... .. .. ....|C-3 .. .. ....|... .. .. ....|... .. .. ....|... .. .. ....
1A |... .. .. ....|... .. .. ....|C-3 .. .. ....|... .. .. ....|... .. .. ....|... .. .. ....|... .. .. ....|... .. .. ....|... .. .. ....|... .. .. ....|C-4 .. .. ....|... .. .. ....|C-3 .. .. ....|... .. .. ....|... .. .. ....|... .. .. ....
1B |... .. .. ....|... .. .. ....|E-3 .. .. ....|... .. .. ....|... .. .. ....|... .. .. ....|... .. .. ....|... .. .. ....|... .. .. ....|... .. .. ....|C-4 .. .. ....|... .. .. ....|C-3 .. .. ....|... .. .. ....|... .. .. ....|... .. .. ....
1C |OFF .. .. ....|OFF .. .. ....|A-3 .. .. ....|OFF .. .. ....|OFF .. .. ....|OFF .. .. ....|... .. .. ....|... .. .. ....|... .. .. ....|... .. .. ....|... .. .. ....|C-4 00 .. ....|... .. .. ....|... .. .. ....|... .. .. ....|... .. .. ....
1D |... .. .. ....|... .. .. ....|... .. .. ....|... .. .. ....|... .. .. ....|... .. .. ....|... .. .. ....|... .. .. ....|... .. .. ....|... .. .. ....|... .. .. ....|... .. .. ....|... .. .. ....|... .. .. ....|... .. .. ....|... .. .. ....
1E |... .. .. ....|... .. .. ....|OFF .. .. ....|... .. .. ....|... .. .. ....|... .. .. ....|... .. .. ....|... .. .. ....|... .. .. ....|... .. .. ....|... .. .. ....|... .. .. ....|... .. .. ....|... .. .. ....|... .. .. ....|... .. .. ....
1F |... .. .. ....|... .. .. ....|... .. .. ....|... .. .. ....|... .. .. ....|... .. .. ....|... .. .. ....|... .. .. ....|... .. .. ....|... .. .. ....|... .. .. ....|... .. .. ....|... .. .. ....|... .. .. ....|... .. .. ....|... .. .. 0B01
